<?xml version="1.0" standalone="no"?>
<!DOCTYPE svg PUBLIC "-//W3C//DTD SVG 1.1//EN" "http://www.w3.org/Graphics/SVG/1.1/DTD/svg11.dtd" >
<svg xmlns="http://www.w3.org/2000/svg" xmlns:xlink="http://www.w3.org/1999/xlink" version="1.1">
<metadata>
Created by FontForge 20170731 at Wed Jun 10 09:40:32 2020
 By Aleksey,,,
Copyright (c) 2019 by www.fontiran.com All rights reserved.
</metadata>
<defs>
<font id="PeydaWeb-SemiBold" horiz-adv-x="0" >
  <font-face 
    font-family="PeydaWeb SemBd"
    font-weight="600"
    font-stretch="normal"
    units-per-em="1000"
    panose-1="0 0 0 0 0 0 0 0 0 0"
    ascent="800"
    descent="-200"
    x-height="500"
    cap-height="684"
    bbox="-219 -425 1460 1195"
    underline-thickness="50"
    underline-position="-175"
    unicode-range="U+000D-FEFC"
  />
<missing-glyph horiz-adv-x="250" 
 />
    <glyph glyph-name="uniFDF2" unicode="&#x627;&#xfedf;&#xfee0;&#xfeea;" horiz-adv-x="1273" arabic-form="isolated" 
d="M65 255q0 63 36 109t93 61l128 33v84h96v-366q0 -26 20 -44t46 -18h82q23 0 39.5 16.5t16.5 40.5v297h96v-303q2 -21 17.5 -36t35.5 -15h86q23 0 39.5 16.5t16.5 39.5v396h97v-395q0 -36 -13.5 -67t-36.5 -54t-54.5 -36.5t-66.5 -13.5h-47q-36 0 -67 14t-54 38
q-23 -24 -54.5 -38t-66.5 -14h-63q-47 0 -84.5 24.5t-58.5 62.5q-18 -12 -42 -12h-122q-50 0 -82.5 32.5t-32.5 82.5v65zM1211 676v-676h-96v676h96zM505 650v86h69v-86q0 -9 7.5 -16t16.5 -7h5q9 0 17.5 6t10.5 15l17 83l69 -12l-14 -72q-1 -3 -1 -5q0 -6 7 -10.5t15 -4.5
h40v113h69v-121q0 -28 -20 -48t-48 -20h-41q-34 0 -58 24q-27 -24 -63 -24q-20 0 -38 8t-31.5 21.5t-21 31.5t-7.5 38zM161 250v-61h161v165l-103 -27q-26 -7 -42 -29t-16 -48zM706 927v-158h-69v158h69z" />
    <glyph glyph-name="uniFEF5" unicode="&#xfedf;&#xfe82;" horiz-adv-x="553" arabic-form="isolated" 
d="M53 73l109 14l-48 519l96 13l46 -519l80 10q30 4 48.5 25t18.5 53v488h96v-487q0 -36 -11.5 -66.5t-32 -54t-48 -38.5t-60.5 -20l-280 -39zM-19 694q1 38 26.5 63t62.5 25h200v-83h-205q-11 0 -11 -10v-44h-74z" />
    <glyph glyph-name="uniFEF6" unicode="&#xfee0;&#xfe82;" horiz-adv-x="612" arabic-form="final" 
d="M53 73l109 14l-49 520l97 13l46 -521l80 11q30 4 49 25t19 52v489h96v-506q0 -26 17.5 -41t40.5 -15h54q14 0 14 -14v-86q0 -14 -14 -14h-40q-39 0 -71.5 16t-55.5 43q-38 -40 -99 -49l-280 -40zM-19 695q1 38 26.5 63t62.5 25h200v-83h-205q-11 0 -11 -10v-44h-74z" />
    <glyph glyph-name="uniFEF7" unicode="&#xfedf;&#xfe84;" horiz-adv-x="554" arabic-form="isolated" 
d="M53 73l109 14l-48 519l96 13l46 -519l80 10q30 4 48.5 25t18.5 53v488h96v-487q0 -36 -11.5 -66.5t-32 -54t-48 -38.5t-60.5 -20l-280 -39zM52 708l74 33h-3q-10 0 -17 13q-2 3 -7 12.5t-9 16.5q-10 21 -10 42t7.5 39t21.5 32t32 21l79 33l30 -71l-78 -33
q-9 -4 -12.5 -12t-3.5 -13q0 -6 3 -12q2 -4 9.5 -18.5t12.5 -22.5l119 63l33 -68l-247 -126z" />
    <glyph glyph-name="uniFEF8" unicode="&#xfee0;&#xfe84;" horiz-adv-x="612" arabic-form="final" 
d="M162 87l-49 520l97 13l46 -521l80 11q30 4 49 25t19 52v489h96v-506q0 -26 17.5 -41t40.5 -15h54q14 0 14 -14v-86q0 -14 -14 -14h-40q-39 0 -71.5 16t-55.5 43q-38 -40 -99 -49l-280 -40l-13 103zM54 708l74 33q-4 0 -7 2q-7 2 -12 11q-2 3 -7 13t-9 17q-10 21 -10.5 32
t-0.5 13q0 19 7.5 36.5t21.5 31.5t32 21l79 33l30 -71l-78 -34q-9 -4 -12 -12t-3 -12q0 -7 3 -13q2 -4 9.5 -18t12.5 -22l118 62l33 -67l-247 -127z" />
    <glyph glyph-name="uniFEF9" unicode="&#xfedf;&#xfe88;" horiz-adv-x="552" arabic-form="isolated" 
d="M50 73l109 14l-48 519l96 13l46 -519l80 10q30 4 48.5 25t18.5 53v488h96v-487q0 -36 -11.5 -66.5t-32 -54t-48 -38.5t-60.5 -20l-280 -39zM87 -314q5 2 14.5 6.5t20.5 9.5t22 9l17 8q-4 0 -7 2q-8 4 -13 13q-2 2 -7 11.5t-9 17.5q-10 21 -10 41.5t7.5 38.5t21.5 32
t32 22l79 32l29 -71l-78 -34q-9 -4 -12 -12t-3 -12q0 -7 3 -13q2 -4 9.5 -18t12.5 -22q14 8 34.5 18t39.5 20q22 12 45 24l33 -66l-248 -127z" />
    <glyph glyph-name="uniFEFA" unicode="&#xfee0;&#xfe88;" horiz-adv-x="610" arabic-form="final" 
d="M160 87l-49 520l97 13l46 -521l80 11q30 4 49 25t19 52v489h96v-506q0 -26 17.5 -41t40.5 -15h54q14 0 14 -14v-86q0 -14 -14 -14h-40q-39 0 -71.5 16t-55.5 43q-38 -40 -99 -49l-280 -40l-13 103zM161 -280q-3 0 -7 2q-7 2 -13 12q-1 2 -6.5 12t-8.5 17q-10 21 -10 41.5
t7.5 38.5t21.5 32t32 22l78 33l30 -72l-78 -34q-9 -4 -12 -11.5t-3 -12.5q0 -6 3 -13q2 -4 9 -17.5t12 -21.5l120 62l33 -67l-248 -126l-33 70z" />
    <glyph glyph-name="uniFEFB" unicode="&#xfedf;&#xfe8e;" horiz-adv-x="552" arabic-form="isolated" 
d="M159 87l-48 519l96 13l46 -519l80 10q30 4 48.5 25t18.5 53v488h96v-487q0 -36 -11.5 -66.5t-32 -54t-48 -38.5t-60.5 -20l-280 -39l-14 102z" />
    <glyph glyph-name="uniFEFC" unicode="&#xfee0;&#xfe8e;" horiz-adv-x="610" arabic-form="final" 
d="M160 87l-49 520l97 13l46 -521l80 11q30 4 49 25t19 52v489h96v-506q0 -26 17.5 -41t40.5 -15h54q14 0 14 -14v-86q0 -14 -14 -14h-40q-39 0 -71.5 16t-55.5 43q-38 -40 -99 -49l-280 -40l-13 103z" />
    <glyph glyph-name="uniFEB3FBFD" unicode="&#xfeb3;&#xfbfd;" horiz-adv-x="1334" 
d="M65 1v255h96v-240q0 -24 9.5 -45.5t25 -37.5t37 -25t45.5 -9h193q19 0 35.5 7t29 19.5t20 29t7.5 35.5v31l-247 59l1 90q0 39 14.5 73t38 59.5t55 42.5t65.5 22l52 7q14 2 28 2q37 0 79.5 -18.5t71.5 -62.5l89 -136q12 -17 30 -31t44 -14t44.5 14.5t23.5 36.5l34 172
l94 -17l-29 -148v-5q0 -20 14.5 -36.5t39.5 -16.5h79l-1 257h97v-261q0 -23 -8.5 -43t-23.5 -35t-35.5 -23.5t-43.5 -8.5h-64q-32 0 -57.5 14.5t-45.5 46.5q-21 -32 -51.5 -46.5t-66.5 -14.5q-48 0 -83 24.5t-67 75.5l-80 122q-16 25 -41.5 36.5t-49.5 11.5q-7 0 -14 -1
l-62 -8q-33 -5 -55 -31t-22 -59v-13l167 -38q37 -8 59.5 -36.5t22.5 -66.5v-36q0 -41 -13.5 -76.5t-37.5 -62t-57.5 -42t-74.5 -15.5h-195q-45 0 -84.5 17t-68.5 46.5t-46 68.5t-17 84z" />
    <glyph glyph-name="uniFEB4FBFD" unicode="&#xfeb4;&#xfbfd;" horiz-adv-x="1373" 
d="M65 1v256h96v-241q0 -24 9.5 -45.5t25 -37t37 -25t45.5 -9.5h193q19 0 36 7t29.5 19.5t19.5 28t7 32.5v4l-1 31l-246 59l1 90q0 39 14.5 73t38 59.5t55 42.5t65.5 22l51 8q13 2 26 2t32.5 -3t43 -13.5t43.5 -27t34 -38.5l90 -136q12 -17 30.5 -31t43.5 -14t43.5 14.5
t23.5 36.5l34 172l95 -17l-29 -147q-1 -5 -1 -10q0 -18 15.5 -33.5t39.5 -15.5h17q23 0 40 16.5t17 40.5v200h95v-203q0 -23 17 -38.5t40 -15.5h42q6 0 10 -4.5t4 -10.5v-85q-2 -14 -14 -14h-26q-36 0 -67 15.5t-54 46.5q-23 -31 -50 -46.5t-62 -15.5q-33 0 -63 14.5
t-49 46.5q-22 -32 -52 -46.5t-66 -14.5q-49 0 -83.5 24.5t-66.5 75.5l-80 122q-17 26 -42.5 37.5t-49.5 11.5q-6 0 -12 -1l-63 -9q-34 -5 -55.5 -31t-21.5 -59v-12l166 -39q38 -8 60 -36.5t22 -66.5v-36q0 -41 -13 -76.5t-37 -62t-57.5 -42t-74.5 -15.5h-195q-45 0 -84.5 17
t-68.5 46.5t-46 68.5t-17 84z" />
    <glyph glyph-name="uniFEB7FBFD" unicode="&#xfeb7;&#xfbfd;" horiz-adv-x="1333" 
d="M65 1v256h96v-241q0 -24 9 -45.5t25 -37t37.5 -25t45.5 -9.5h192q19 0 36 7t30 19.5t19.5 28t6.5 31.5v5v31l-246 59v90q0 39 14.5 73t38.5 59.5t55 42.5t65 22l52 8q14 2 28 2q37 0 80 -19t72 -63l90 -136q11 -17 29 -31t44 -14q25 0 43.5 14t23.5 36l34 173l95 -17
l-29 -148v-5q0 -20 15 -36.5t38 -16.5h79v257h96v-261q0 -24 -8.5 -44t-23.5 -34.5t-35.5 -23t-44.5 -8.5h-63q-32 0 -57.5 14.5t-45.5 46.5q-21 -32 -51.5 -46.5t-66.5 -14.5q-48 0 -82.5 24t-66.5 75l-80 122q-17 26 -43 37.5t-50 11.5q-6 0 -12 -1l-62 -9
q-34 -4 -55.5 -30.5t-21.5 -58.5v-13l166 -38q37 -8 60 -36.5t23 -66.5v-36q0 -41 -13 -76.5t-37 -62t-58 -42t-75 -15.5h-195q-45 0 -84.5 17t-68.5 46t-46 68.5t-17 84.5zM850 543h105v-105h-105v105zM1007 543h105v-105h-105v105zM927 580v104h104v-104h-104z" />
    <glyph glyph-name="uniFEB8FBFD" unicode="&#xfeb8;&#xfbfd;" horiz-adv-x="1373" 
d="M161 257v-241q0 -24 9.5 -45.5t25 -37t37 -25t45.5 -9.5h193q19 0 36 7t29.5 19.5t19.5 28t7 32.5v4l-1 31l-246 59l1 90q0 39 14.5 73t38 59.5t55 42.5t65.5 22l51 8q13 2 26 2t32.5 -3t43 -13.5t43.5 -27t34 -38.5l90 -136q12 -17 30.5 -31t43.5 -14t43.5 14.5
t23.5 36.5l34 172l95 -17l-29 -147q-1 -5 -1 -10q0 -18 15.5 -33.5t39.5 -15.5h17q23 0 40 16.5t17 40.5v200h95v-203q0 -23 17 -38.5t40 -15.5h42q6 0 10 -4.5t4 -10.5v-85q-2 -14 -14 -14h-26q-36 0 -67 15.5t-54 46.5q-23 -31 -50 -46.5t-62 -15.5q-33 0 -63 14.5
t-49 46.5q-22 -32 -52 -46.5t-66 -14.5q-49 0 -83.5 24.5t-66.5 75.5l-80 122q-17 26 -42.5 37.5t-49.5 11.5q-6 0 -12 -1l-63 -9q-34 -5 -55.5 -31t-21.5 -59v-12l166 -39q38 -8 60 -36.5t22 -66.5v-36q0 -41 -13 -76.5t-37 -62t-57.5 -42t-74.5 -15.5h-195q-45 0 -84.5 17
t-68.5 46.5t-46 68.5t-17 84v256h96zM850 543h105v-105h-105v105zM1032 685v-105h-105v105h105zM1112 543v-105h-105v105h105z" />
    <glyph glyph-name="uniFEBBFBFD" unicode="&#xfebb;&#xfbfd;" horiz-adv-x="1407" 
d="M65 2v256h96v-241q0 -24 9 -45.5t25 -37.5t37.5 -25t46.5 -9h193q19 0 35.5 7t28.5 19.5t19 29t7 35.5v32l-245 57v90q0 40 14.5 74t38.5 60t55.5 43t66.5 21l56 8q14 2 28 2q38 0 79 -18.5t68 -62.5l69 -107q5 -6 15 -20t14 -20l157 168q31 34 72 51.5t86 17.5h62
q32 0 60.5 -12t49.5 -33t33.5 -49.5t12.5 -60.5v-63q0 -35 -13 -65.5t-36 -53.5t-53 -36.5t-65 -13.5h-297q-51 0 -86.5 24.5t-67.5 75.5l-78 122q-17 26 -41.5 37.5t-48.5 11.5q-7 0 -14 -1l-66 -9q-32 -4 -55 -30t-23 -59v-17l166 -34q37 -8 59.5 -37t22.5 -67v-35
q0 -41 -13 -76.5t-37 -62t-57 -42t-73 -15.5h-197q-45 0 -84 17t-68.5 46.5t-46.5 68.5t-17 84zM1203 114q23 0 39 16t16 39v55q0 23 -16.5 39t-39.5 16h-78q-26 0 -50.5 -10t-43.5 -30l-115 -125h288z" />
    <glyph glyph-name="uniFEBCFBFD" unicode="&#xfebc;&#xfbfd;" horiz-adv-x="1446" 
d="M64 1v257h96v-241q0 -24 9 -45.5t25 -38t38 -26t47 -9.5h193q19 0 35.5 7.5t29 20t19.5 29.5t7 36v30l-247 59v89q0 39 14.5 73t39 60.5t56.5 44t67 22.5l56 8q13 2 25 2q39 0 82 -19t71 -64q1 -1 7.5 -11t14.5 -23t16 -25.5t12 -17.5q0 -1 7 -11t15.5 -22t15.5 -22.5
t8 -11.5l154 167q31 33 72.5 51t87.5 18h63q32 0 60.5 -12.5t49.5 -33.5t33.5 -49.5t12.5 -60.5v-58q0 -23 16 -41.5t39 -18.5h35q14 0 14 -14v-86q0 -14 -14 -14h-19q-36 0 -65.5 13.5t-52.5 38.5q-23 -25 -54.5 -38.5t-67.5 -13.5h-295q-52 0 -86 24t-67 75l-80 122
q-17 26 -42 37.5t-49 11.5q-7 0 -14 -1l-65 -10q-33 -3 -56 -28.5t-23 -59.5v-15l166 -35q37 -8 60 -37t23 -67v-36q0 -41 -13 -76.5t-37 -62.5t-57 -42.5t-73 -15.5h-199q-45 0 -84 17t-68.5 46.5t-46.5 69t-17 84.5zM1205 114q23 0 38.5 16t15.5 38v55q0 23 -16.5 39
t-39.5 16h-79q-55 0 -93 -41l-114 -123h288z" />
    <glyph glyph-name="uniFEBFFBFD" unicode="&#xfebf;&#xfbfd;" horiz-adv-x="1407" 
d="M65 2v256h96v-241q0 -24 9 -45.5t25 -37.5t37.5 -25t46.5 -9h193q19 0 35.5 7t28.5 19.5t19 29t7 35.5v32l-245 57v90q0 40 14.5 74t38.5 60t55.5 43t66.5 21l56 8q14 2 28 2q38 0 79 -18.5t68 -62.5l69 -107q5 -6 15 -20t14 -20l157 168q31 34 72 51.5t86 17.5h62
q32 0 60.5 -12t49.5 -33t33.5 -49.5t12.5 -60.5v-63q0 -35 -13 -65.5t-36 -53.5t-53 -36.5t-65 -13.5h-297q-51 0 -86.5 24.5t-67.5 75.5l-78 122q-17 26 -41.5 37.5t-48.5 11.5q-7 0 -14 -1l-66 -9q-32 -4 -55 -30t-23 -59v-17l166 -34q37 -8 59.5 -37t22.5 -67v-35
q0 -41 -13 -76.5t-37 -62t-57 -42t-73 -15.5h-197q-45 0 -84 17t-68.5 46.5t-46.5 68.5t-17 84zM1203 114q23 0 39 16t16 39v55q0 23 -16.5 39t-39.5 16h-78q-26 0 -50.5 -10t-43.5 -30l-115 -125h288zM1102 485v105h105v-105h-105z" />
    <glyph glyph-name="uniFEC0FBFD" unicode="&#xfec0;&#xfbfd;" horiz-adv-x="1444" 
d="M161 257v-240q0 -24 9 -45.5t25 -37.5t37.5 -25.5t46.5 -9.5h193q19 0 35.5 7t28.5 19.5t19 29.5t7 36v31l-245 58v90q0 38 14.5 72t38.5 60t55.5 43t66.5 22l57 8q13 2 26 2t32 -3t42 -13t43 -26.5t34 -38.5q0 -1 6.5 -11.5t15 -23.5t17 -25.5t12.5 -18.5q0 -1 7 -11
t15.5 -22t15.5 -22t8 -11l154 167q30 33 71.5 51t87.5 18h62q32 0 60.5 -12.5t49.5 -33.5t33.5 -49.5t12.5 -60.5v-56q0 -23 16 -42t39 -19h35q14 0 14 -14v-86q0 -14 -14 -14h-19q-36 0 -66 14.5t-52 37.5q-23 -23 -54 -37.5t-67 -14.5h-295q-52 0 -86 24.5t-67 75.5
l-79 122q-17 26 -42 37t-48 11q-7 0 -15 -1l-66 -9q-32 -4 -54 -29.5t-22 -59.5v-16l164 -35q37 -8 59.5 -36.5t22.5 -66.5v-35q0 -41 -13 -76.5t-37 -62t-57 -42t-73 -15.5h-197q-45 0 -84.5 17t-68.5 46t-46 68.5t-17 84.5v255h96zM914 114h290q23 0 38 16t15 38v56
q0 23 -16 38.5t-39 15.5h-79q-26 0 -50.5 -10.5t-42.5 -29.5zM1108 593h105v-105h-105v105z" />
    <glyph glyph-name="uniFE92FBFD" unicode="&#xfe92;&#xfbfd;" horiz-adv-x="918" 
d="M65 1v255h96v-240q0 -25 9 -46.5t25 -37.5t37.5 -25t46.5 -9h191q20 0 36.5 7t29 19.5t19.5 29t7 35.5v33l-245 58v89q0 36 14.5 69.5t38 60t55 44.5t65.5 23l60 8q13 2 25 2q13 0 31.5 -3t41.5 -13.5t42.5 -26.5t34.5 -37q7 -10 22 -33l30 -46q18 -28 38 -59
q11 -17 30 -30.5t47 -13.5h26q7 0 10.5 -4.5t3.5 -10.5v-85q0 -14 -14 -14h-26q-51 0 -85.5 24t-67.5 75l-80 123q-17 25 -42 36.5t-47 11.5q-8 0 -16 -1l-67 -9q-34 -5 -56 -30.5t-22 -59.5v-17l168 -34q36 -8 58 -36.5t22 -65.5v-36q0 -41 -13 -77t-37 -62.5t-57 -42
t-74 -15.5h-196q-44 0 -83 17t-68.5 46.5t-46.5 69t-17 84.5zM729 -226v105h105v-105h-105z" />
    <glyph glyph-name="uniFB59FBFD" unicode="&#xfb59;&#xfbfd;" horiz-adv-x="1005" 
d="M65 1v255h96v-240q0 -25 9 -46.5t25 -37.5t37.5 -25t46.5 -9h191q20 0 36.5 7t29 19.5t19.5 29t7 35.5v33l-245 58v89q0 36 14.5 69.5t38 60t55 44.5t65.5 23l60 8q13 2 25 2q13 0 31.5 -3t41.5 -13.5t42.5 -26.5t34.5 -37q7 -10 22 -33l30 -46q18 -28 38 -59
q11 -17 30 -30.5t47 -13.5h113q7 0 10.5 -5t3.5 -10v-85q0 -14 -14 -14h-113q-51 0 -85.5 24t-67.5 75l-80 123q-17 25 -42 36.5t-47 11.5q-8 0 -16 -1l-67 -9q-34 -5 -56 -30.5t-22 -59.5v-17l168 -34q36 -8 58 -36.5t22 -65.5v-36q0 -41 -13 -77t-37 -62.5t-57 -42
t-74 -15.5h-196q-44 0 -83 17t-68.5 46.5t-46.5 69t-17 84.5zM700 -120h105v-105h-105v105zM778 -262h105v-105h-105v105zM857 -225v105h105v-105h-105z" />
    <glyph glyph-name="uniFE98FBFD" unicode="&#xfe98;&#xfbfd;" horiz-adv-x="917" 
d="M161 257v-241q0 -24 9 -45.5t25 -37.5t37.5 -25t46.5 -9h191q38 0 64.5 26.5t26.5 64.5v32l-245 57l1 90q0 36 14 69.5t38 60.5t55.5 44.5t66.5 22.5l57 8q14 2 28 2q37 0 78 -18.5t70 -61.5q8 -11 22.5 -33.5t30.5 -45.5q18 -27 38 -58q11 -17 29.5 -31t46.5 -14h26
q14 0 14 -14v-86q0 -14 -14 -14h-26q-51 0 -85.5 24t-67.5 75l-79 122q-17 26 -42.5 37.5t-48.5 11.5q-7 0 -14 -1l-67 -9q-34 -5 -55.5 -30.5t-21.5 -59.5v-16l166 -33q36 -8 59 -37t23 -67v-36q0 -41 -13 -76.5t-37 -62t-57.5 -42t-74.5 -15.5h-195q-45 0 -84 17t-68.5 46
t-46.5 68.5t-17 84.5v256h96zM687 491v105h105v-105h-105zM635 596v-105h-105v105h105z" />
    <glyph glyph-name="uniFE9CFBFD" unicode="&#xfe9c;&#xfbfd;" horiz-adv-x="917" 
d="M162 257v-241q0 -24 9 -45.5t25 -37.5t37.5 -25t45.5 -9h192q19 0 35.5 7t29 19.5t19.5 29t7 35.5v32l-245 58v90q0 36 14.5 69.5t38.5 60t55.5 44t65.5 22.5l58 9q13 2 26 2q12 0 31 -3t42 -13t43 -26.5t34 -38.5q7 -10 22 -33l30 -46q18 -27 38 -58q11 -17 30 -31
t46 -14h26q14 0 14 -14v-85q0 -15 -14 -15h-25q-51 0 -85.5 24.5t-67.5 75.5l-80 121q-17 26 -41.5 37.5t-46.5 11.5q-9 0 -17 -1l-67 -8q-33 -5 -55 -31t-22 -59v-17l166 -33q37 -8 59.5 -37t22.5 -66v-37q0 -41 -13 -76.5t-37 -62t-57 -42t-74 -15.5h-196q-45 0 -84 17
t-68 46t-46 68.5t-17 84.5v256h96zM688 598h109v-109h-109v109zM715 744v-109h-108v109h108zM528 598h108v-109h-108v109z" />
    <glyph glyph-name="uniFEE8FBFD" unicode="&#xfee8;&#xfbfd;" horiz-adv-x="917" 
d="M65 2v255h96v-240q0 -24 9 -45.5t25 -37.5t37.5 -25.5t45.5 -9.5h192q19 0 35.5 7t29 19.5t19.5 29.5t7 36v31l-245 58v90q0 36 14.5 69.5t38 60t55 44.5t66.5 23l58 8q14 2 27 2q37 0 78.5 -18.5t70.5 -61.5q7 -11 22 -33.5t30 -45.5q18 -27 38 -58q11 -17 30 -31.5
t46 -14.5h26q14 0 14 -14v-86q0 -5 -4 -9.5t-10 -4.5h-25q-51 0 -85.5 24.5t-67.5 75.5l-80 122q-17 26 -41.5 37t-46.5 11q-8 0 -17 -1l-67 -9q-33 -5 -55 -30t-22 -59v-16l166 -35q38 -7 60 -36t22 -67v-35q0 -41 -13 -76.5t-37 -62t-57 -42t-74 -15.5h-196q-45 0 -84 17
t-68 46t-46 68.5t-17 84.5zM714 596v-105h-105v105h105z" />
    <glyph glyph-name="uniFBFDFE8C" unicode="&#xfe8c;&#xfbfd;" horiz-adv-x="917" 
d="M161 257v-241q0 -24 9 -45.5t25 -37.5t37.5 -25t46.5 -9h191q38 0 64.5 26.5t26.5 64.5v32l-245 57l1 90q0 36 14 69.5t38 60.5t55.5 44.5t66.5 22.5l57 8q14 2 28 2q37 0 78 -18.5t70 -61.5q8 -11 22.5 -33.5t30.5 -45.5q18 -27 38 -58q11 -17 29.5 -31t46.5 -14h26
q14 0 14 -14v-86q0 -14 -14 -14h-26q-51 0 -85.5 24t-67.5 75l-79 122q-17 26 -42.5 37.5t-48.5 11.5q-7 0 -14 -1l-67 -9q-34 -5 -55.5 -30.5t-21.5 -59.5v-16l166 -33q36 -8 59 -37t23 -67v-36q0 -41 -13 -76.5t-37 -62t-57.5 -42t-74.5 -15.5h-195q-45 0 -84 17t-68.5 46
t-46.5 68.5t-17 84.5v256h96zM503 538l70 32q-1 0 -5.5 2t-9.5 11q-2 4 -7.5 14t-9.5 18q-10 21 -10 41.5t7.5 38.5t21.5 32t32 21l79 33l30 -72l-78 -33q-9 -5 -12 -12.5t-3 -12.5q0 -6 3 -12t10 -19.5t11 -20.5l119 62l34 -67l-248 -126z" />
    <glyph glyph-name="uniFBFDFBFF" unicode="&#xfbff;&#xfbfd;" horiz-adv-x="1005" 
d="M65 1v256h96v-241q0 -24 9 -45.5t25 -37.5t37.5 -25t46.5 -9h191q38 0 64.5 26.5t26.5 64.5v32l-244 58v90q0 36 14 69.5t37.5 60.5t55 44.5t66.5 21.5l58 9q14 2 28 2q37 0 78 -18.5t70 -62.5q7 -10 22 -33l30 -46q18 -27 39 -58q11 -17 29.5 -31t46.5 -14h114
q14 0 14 -14v-85q0 -15 -14 -15h-114q-51 0 -85.5 24.5t-67.5 75.5l-79 121q-17 26 -42 37.5t-47 11.5q-8 0 -16 -1l-67 -8q-34 -5 -56 -31t-22 -59v-17l167 -33q36 -8 59 -37t23 -66v-37q0 -41 -13 -76.5t-37 -62t-57.5 -42t-74.5 -15.5h-195q-45 0 -84 17t-68.5 46
t-46.5 68.5t-17 84.5zM860 -225v105h105v-105h-105zM808 -120v-105h-105v105h105z" />
    <glyph glyph-name="uni0621" unicode="&#x621;" horiz-adv-x="452" arabic-form="isolated" 
d="M62 65l86 43q-2 0 -10 3.5t-15 17.5l-15 29q-12 24 -12.5 36.5t-0.5 14.5q0 22 9 42.5t25.5 37t37.5 25.5l92 38l36 -83l-89 -39q-14 -6 -17 -15t-3 -14q0 -7 3 -13q1 -3 3.5 -9t6 -13.5t7 -14.5t5.5 -12l140 73l38 -78l-289 -148z" />
    <glyph glyph-name="uni0622" unicode="&#x622;" horiz-adv-x="268" arabic-form="isolated" 
d="M102 598h96v-598h-96v598zM-30 623v48q0 42 26.5 65.5t62.5 23.5h201v-84h-194q-10 0 -16 -6.5t-6 -15.5v-31h-74z" />
    <glyph glyph-name="uni0623" unicode="&#x623;" horiz-adv-x="222" arabic-form="isolated" 
d="M164 598v-598h-96v598h96zM-20 710l73 33q-3 0 -7 2q-7 4 -12 12q-2 2 -7 12l-9 18q-10 21 -10 41.5t7.5 38.5t21.5 32t32 21l79 32l29 -70l-77 -34q-9 -4 -12.5 -12t-3.5 -13q0 -6 3 -12q2 -4 9.5 -18t11.5 -22l120 62l34 -67l-248 -127z" />
    <glyph glyph-name="uni0624" unicode="&#x624;" horiz-adv-x="494" arabic-form="isolated" 
d="M58 177l17 91q5 26 18.5 48t33 38t43.5 25t50 9h56q33 0 61.5 -12.5t49.5 -33.5t33 -49.5t12 -61.5v-217q0 -38 -11.5 -73.5t-32.5 -65t-50.5 -52t-65.5 -34.5l-130 -44l-30 93l134 44q40 14 64.5 45t24.5 73v11q-11 -5 -25 -8t-28 -3h-79q-35 0 -64.5 15t-49.5 39.5
t-27 49.5t-7 44q0 14 3 29zM144 564q-4 0 -7 2q-8 4 -13 13q-2 2 -7 11.5t-8 16.5q-10 21 -10.5 32t-0.5 13q0 19 7.5 36.5t21.5 31.5t32 21l79 33l29 -72l-77 -33q-9 -4 -12.5 -12t-3.5 -13q0 -6 3 -12q2 -4 9.5 -18t12.5 -22l119 63l34 -68l-248 -126l-34 70zM161 129
q12 -15 30 -15h145v118q0 20 -13.5 33.5t-33.5 13.5h-75q-17 0 -29.5 -10.5t-16.5 -27.5l-15 -80q-1 -4 -1 -9q0 -12 9 -23z" />
    <glyph glyph-name="uni0625" unicode="&#x625;" horiz-adv-x="232" arabic-form="isolated" 
d="M165 676v-676h-96v676h96zM50 -254q-4 0 -7 2q-7 2 -13 12q-1 2 -6 11.5t-9 17.5q-10 21 -10.5 32t-0.5 12q0 19 7.5 36.5t21.5 31.5t32 22l80 33l29 -71l-78 -34q-9 -5 -12 -12.5t-3 -12.5q0 -6 3 -12q2 -4 9.5 -18t12.5 -22l119 62l33 -67l-248 -126l-34 70z" />
    <glyph glyph-name="uni0626" unicode="&#x626;" horiz-adv-x="752" arabic-form="isolated" 
d="M81 265h96v-215q0 -24 9.5 -45.5t25 -37t37 -25t45.5 -9.5h212q19 0 35.5 7t29 19.5t19.5 29.5t7 36v30l-277 65v114q0 39 13 72.5t36.5 59.5t55 43t68.5 22l132 17l15 -104l-150 -20q-33 -5 -55 -30.5t-22 -58.5v-36l199 -45q36 -8 59 -35.5t23 -65.5v-37
q0 -41 -15.5 -76.5t-42 -62.5t-62.5 -42.5t-77 -15.5h-200q-45 0 -84.5 17t-68.5 46.5t-46 69t-17 84.5v229zM138 487q-6 0 -10.5 3t-8.5 11l-15 29q-10 21 -10.5 32t-0.5 12q0 19 7.5 36.5t21.5 31.5t32 21l79 33l29 -71l-77 -34q-9 -4 -12.5 -11.5t-3.5 -12.5q0 -6 3 -12
q2 -4 9.5 -18.5t12.5 -22.5l119 63l34 -67l-249 -127l-33 70z" />
    <glyph glyph-name="uni0627" unicode="&#x627;" horiz-adv-x="216" arabic-form="isolated" 
d="M65 0v676h96v-676h-96z" />
    <glyph glyph-name="uni0628" unicode="&#x628;" horiz-adv-x="864" arabic-form="isolated" 
d="M65 195v175h96v-165q0 -19 7 -35.5t19.5 -29t29 -19.5t35.5 -7h406q23 0 39.5 16.5t16.5 40.5v199h96v-199q0 -36 -13.5 -67t-36.5 -54t-54 -36.5t-66 -13.5h-380q-40 0 -76 15.5t-62 41.5t-41.5 62t-15.5 76zM385 -118h105v-106h-105v106z" />
    <glyph glyph-name="uni0629" unicode="&#x629;" horiz-adv-x="501" arabic-form="isolated" 
d="M65 202q0 45 21 81t50 53l36 21l-67 45l52 82q58 -39 105 -71q20 -13 40 -26.5t36 -24t27 -18t14 -9.5q38 -25 53 -60t15 -70v-35q0 -33 -12 -65t-35 -58t-57 -42t-78 -16h-21q-42 0 -75 16t-56.5 42t-35.5 58.5t-12 64.5v32zM161 172q0 -12 5.5 -25t15 -23.5t23.5 -17.5
t31 -7h40q19 0 33 7.5t23.5 19t14 23.5t4.5 21v41q0 12 -5.5 24t-17.5 20q-4 2 -16 10t-26 17q-16 10 -35 22l-68 -50q-8 -6 -15 -15.5t-7 -25.5v-41zM276 691h105v-105h-105v105zM224 691v-105h-105v105h105z" />
    <glyph glyph-name="uni062A" unicode="&#x62a;" horiz-adv-x="864" arabic-form="isolated" 
d="M65 195v175h96v-165q0 -19 7 -35.5t19.5 -29t29 -19.5t35.5 -7h406q23 0 39.5 16.5t16.5 40.5v199h96v-199q0 -36 -13.5 -67t-36.5 -54t-54 -36.5t-66 -13.5h-380q-40 0 -76 15.5t-62 41.5t-41.5 62t-15.5 76zM463 475h105v-105h-105v105zM411 370h-105v105h105v-105z
" />
    <glyph glyph-name="uni062B" unicode="&#x62b;" horiz-adv-x="864" arabic-form="isolated" 
d="M161 371v-166q0 -38 26.5 -64.5t64.5 -26.5h406q23 0 39.5 16.5t16.5 39.5v201h96v-200q0 -35 -13.5 -66t-36.5 -54.5t-54.5 -37t-66.5 -13.5h-379q-41 0 -76.5 15.5t-62 41.5t-41.5 62t-15 76v176h96zM411 476v-105h-105v105h105zM383 618h105v-105h-105v105zM568 476
v-105h-105v105h105z" />
    <glyph glyph-name="uni062C" unicode="&#x62c;" horiz-adv-x="691" arabic-form="isolated" 
d="M91 343q8 29 26.5 49.5t42 32.5t40 13.5t23.5 1.5q18 0 36 -5l379 -114l-29 -92l-62 17q-9 3 -18 3q-17 0 -33 -11l-252 -185q-28 -20 -42.5 -49.5t-14.5 -63.5q0 -31 12 -58.5t32.5 -48t48 -32.5t58.5 -12h252v-114h-251q-53 0 -100 20.5t-82 55t-55 80.5t-20 98
q0 59 25.5 108.5t70.5 82.5q20 15 49 36t58.5 42.5t55.5 40.5t41 30q11 8 20.5 14.5t11.5 7.5l-192 56q-5 2 -9 2q-7 0 -16 -5t-13 -18l-31 -93l-87 23zM361 15h105v-105h-105v105z" />
    <glyph glyph-name="uni062D" unicode="&#x62d;" horiz-adv-x="691" arabic-form="isolated" 
d="M65 256l25 87q8 29 26.5 49.5t42 32.5t40 13.5t23.5 1.5q18 0 36 -5l379 -114l-29 -92l-62 17q-9 3 -18 3q-17 0 -33 -11l-252 -185q-28 -20 -42.5 -49.5t-14.5 -63.5q0 -31 12 -58.5t32.5 -48t48 -32.5t58.5 -12h252v-114h-251q-53 0 -100 20.5t-82 55t-55 80.5t-20 98
q0 59 25.5 108.5t70.5 82.5q20 15 49 36t58.5 42.5t55.5 40.5t41 30q11 8 20.5 14.5t11.5 7.5l-192 56q-5 2 -9 2q-7 0 -16 -5t-13 -18l-31 -93z" />
    <glyph glyph-name="uni062E" unicode="&#x62e;" horiz-adv-x="691" arabic-form="isolated" 
d="M90 343q9 29 27.5 49.5t42 32.5t40 13.5t23.5 1.5q18 0 36 -5l379 -114l-29 -92l-62 17q-9 3 -18 3q-17 0 -33 -11l-253 -185q-27 -20 -41.5 -49.5t-14.5 -63.5q0 -31 12 -58.5t32 -48t48 -32.5t59 -12h252v-113h-251q-54 0 -100.5 20t-81.5 54.5t-55 80.5t-20 98
q0 59 25.5 108.5t70.5 81.5q20 15 49 36t58.5 43t55.5 41t40 30q12 8 21.5 14t11.5 7l-192 57q-5 2 -10 2q-7 0 -16 -5.5t-12 -17.5l-32 -93l-87 23zM151 645h105v-105h-105v105z" />
    <glyph glyph-name="uni062F" unicode="&#x62f;" horiz-adv-x="565" arabic-form="isolated" 
d="M148 247v-104q0 -12 8 -20.5t20 -8.5h163q22 0 38 10t24.5 26t8.5 34.5t-9 34.5l-121 215l81 54l127 -225q24 -42 24 -86q0 -3 -1 -27.5t-23 -63t-61.5 -62.5t-89.5 -24h-148q-25 0 -48 10t-39.5 27t-26.5 39.5t-10 48.5v122h83z" />
    <glyph glyph-name="uni0630" unicode="&#x630;" horiz-adv-x="565" arabic-form="isolated" 
d="M148 247v-104q0 -12 8 -20.5t20 -8.5h163q22 0 38 10t24.5 26t8.5 34.5t-9 34.5l-121 215l81 54l127 -225q24 -42 24 -86q0 -3 -1 -27.5t-23 -63t-61.5 -62.5t-89.5 -24h-148q-25 0 -48 10t-39.5 27t-26.5 39.5t-10 48.5v122h83zM222 588v105h105v-105h-105z" />
    <glyph glyph-name="uni0631" unicode="&#x631;" horiz-adv-x="345" arabic-form="isolated" 
d="M97 -117q39 14 63 47t24 75v336h96v-327q0 -38 -11.5 -72.5t-32.5 -64t-50.5 -51.5t-65.5 -35l-130 -44l-30 92z" />
    <glyph glyph-name="uni0632" unicode="&#x632;" horiz-adv-x="347" arabic-form="isolated" 
d="M-40 -161l137 44q39 14 63 47t24 75v336h96v-327q0 -38 -11.5 -72.5t-32.5 -64t-50.5 -51.5t-65.5 -35l-130 -44zM177 546h105v-105h-105v105z" />
    <glyph glyph-name="uni0633" unicode="&#x633;" horiz-adv-x="1174" arabic-form="isolated" 
d="M65 41v285h96v-270q0 -24 9.5 -45.5t25.5 -37t37.5 -25t45.5 -9.5h178q20 0 37.5 7.5t30.5 21t20.5 31t7.5 36.5v307h96v-174q1 -23 17 -38.5t39 -15.5h25q23 0 40 14t22 36l34 174l95 -17l-29 -143q-1 -5 -1 -10q0 -20 14.5 -37t40.5 -17h78v258h96v-261
q0 -23 -8.5 -43.5t-23.5 -35.5t-35 -23.5t-43 -8.5h-65q-32 0 -59.5 14.5t-47.5 46.5q-23 -32 -52.5 -46.5t-64.5 -14.5q-19 0 -38.5 6.5t-34.5 27.5v-31q0 -38 -16 -70.5t-42.5 -56.5t-61 -37.5t-72.5 -13.5h-174q-45 0 -84.5 17t-69 46.5t-46.5 68.5t-17 84z" />
    <glyph glyph-name="uni0634" unicode="&#x634;" horiz-adv-x="1174" arabic-form="isolated" 
d="M65 41v285h96v-270q0 -24 9.5 -45.5t25.5 -37t37.5 -25t45.5 -9.5h178q20 0 37.5 7.5t30.5 21t20.5 31t7.5 36.5v307h96v-174q1 -23 17 -38.5t39 -15.5h25q23 0 40 14t22 36l34 174l95 -17l-29 -143q-1 -5 -1 -10q0 -20 14.5 -37t40.5 -17h78v258h96v-261
q0 -23 -8.5 -43.5t-23.5 -35.5t-35 -23.5t-43 -8.5h-65q-32 0 -59.5 14.5t-47.5 46.5q-23 -32 -52.5 -46.5t-64.5 -14.5q-19 0 -38.5 6.5t-34.5 27.5v-31q0 -38 -16 -70.5t-42.5 -56.5t-61 -37.5t-72.5 -13.5h-174q-45 0 -84.5 17t-69 46.5t-46.5 68.5t-17 84zM694 544h105
v-105h-105v105zM770 686h105v-105h-105v105zM956 544v-105h-105v105h105z" />
    <glyph glyph-name="uni0635" unicode="&#x635;" horiz-adv-x="1241" arabic-form="isolated" 
d="M65 42v285h96v-269q0 -24 9 -45.5t25 -37.5t37 -25.5t45 -9.5h180q20 0 37.5 7.5t30.5 21t20.5 31t7.5 36.5v306h96v-134q0 -14 2.5 -23.5t5.5 -15.5t7 -9l146 158q31 32 72.5 50.5t86.5 18.5h62q33 0 61.5 -12t49.5 -33t33 -49.5t12 -61.5v-63q0 -35 -13 -65.5
t-35.5 -53.5t-53 -36t-64.5 -13h-252q-34 0 -67.5 8.5t-53.5 31.5v-35q0 -38 -15.5 -70.5t-42 -56.5t-61.5 -38t-74 -14h-174q-45 0 -84 17t-68.5 46.5t-46.5 68.5t-17 84zM748 114h289q23 0 38.5 16t15.5 39v54q0 23 -16 39t-39 16h-79q-28 0 -51.5 -10.5t-41.5 -29.5z" />
    <glyph glyph-name="uni0636" unicode="&#x636;" horiz-adv-x="1241" arabic-form="isolated" 
d="M161 327v-269q0 -24 9 -45.5t25 -37.5t37 -25.5t45 -9.5h180q20 0 37.5 7.5t30.5 21t20.5 31t7.5 36.5v306h96v-134q0 -14 2.5 -23.5t5.5 -15.5t7 -9l146 158q31 32 72.5 50.5t86.5 18.5h62q33 0 61.5 -12t49.5 -33t33 -49.5t12 -61.5v-63q0 -35 -13 -65.5t-35.5 -53.5
t-53 -36t-64.5 -13h-252q-34 0 -67.5 8.5t-53.5 31.5v-35q0 -38 -15.5 -70.5t-42 -56.5t-61.5 -38t-74 -14h-174q-45 0 -84 17t-68.5 46.5t-46.5 68.5t-17 84v285h96zM1037 114q23 0 38.5 16t15.5 39v54q0 23 -16 39t-39 16h-79q-28 0 -51.5 -10.5t-41.5 -29.5l-116 -124
h289zM1012 593v-105h-105v105h105z" />
    <glyph glyph-name="uni0637" unicode="&#x637;" horiz-adv-x="740" arabic-form="isolated" 
d="M121 114l107 115v448h96v-305q0 -19 -5 -34.5t-6 -17.5l16 16q60 51 140 51h62q32 0 60.5 -12t49.5 -33t33.5 -49.5t12.5 -61.5v-63q0 -35 -13 -65.5t-36 -53.5t-53 -36t-65 -13h-454v114h55zM249 114h288q23 0 38.5 16t15.5 38v55q0 23 -16 39t-39 16h-80q-55 0 -93 -40
z" />
    <glyph glyph-name="uni0638" unicode="&#x638;" horiz-adv-x="740" arabic-form="isolated" 
d="M65 0v114h55l107 115v448h96v-305q0 -19 -5 -34.5t-6 -17.5l16 16q60 51 140 51h62q32 0 60.5 -12t49.5 -33t33.5 -49.5t12.5 -61.5v-63q0 -35 -13 -65.5t-36 -53.5t-53 -36t-65 -13h-454zM536 114q23 0 38.5 16t15.5 38v55q0 23 -16 39t-39 16h-80q-55 0 -93 -40
l-114 -124h288zM422 487v105h105v-105h-105z" />
    <glyph glyph-name="uni0639" unicode="&#x639;" horiz-adv-x="569" arabic-form="isolated" 
d="M71 -118q5 24 17 48t30.5 47.5t45.5 42.5q-8 5 -13 15.5t-7 21.5l-30 149q-3 15 -3 29q0 19 7 43t27.5 48t50 38.5t63.5 14.5h160v-108h-165q-21 0 -33.5 -15t-12.5 -31q0 -4 1 -9l33 -160q23 8 63 20.5t78 25.5q46 14 96 30l29 -88l-249 -78q-15 -4 -31 -12.5
t-28.5 -22.5t-21 -33.5t-8.5 -46.5q0 -31 11.5 -58.5t32 -48t48 -32.5t59.5 -12h174v-114h-173q-54 0 -101 20.5t-81.5 55.5t-54.5 81.5t-20 97.5q0 18 6 41z" />
    <glyph glyph-name="uni063A" unicode="&#x63a;" horiz-adv-x="569" arabic-form="isolated" 
d="M71 -117q5 24 17 48t30.5 47.5t45.5 42.5q-8 5 -13 15.5t-7 21.5l-29 147q-3 14 -3 28q0 19 7.5 43.5t28 48.5t50 38.5t63.5 14.5h159v-109h-164q-22 0 -34 -14.5t-12 -29.5q0 -5 1 -11l31 -157q23 8 63 20.5t78 25.5q46 14 96 30l29 -88l-249 -78q-15 -4 -31 -12.5
t-28.5 -22.5t-21 -33.5t-8.5 -46.5q0 -31 12 -58.5t32.5 -48t48 -32.5t58.5 -12h174v-114h-173q-54 0 -101 20.5t-81.5 55.5t-54.5 81.5t-20 97.5q0 18 6 41zM334 613v-105h-105v105h105z" />
    <glyph glyph-name="uni0641" unicode="&#x641;" horiz-adv-x="865" arabic-form="isolated" 
d="M161 370v-167q0 -19 7 -35.5t19 -28.5t28.5 -18.5t35.5 -6.5h404q24 0 41.5 15t17.5 40v3v18q-12 -5 -25.5 -7.5t-28.5 -2.5h-71q-35 0 -65 15t-50.5 39.5t-27.5 50t-7 44.5q0 15 3 30l16 82q5 26 18 48t32.5 37.5t43.5 24.5t51 9h54q32 0 60 -12t49 -33t33 -49t12 -60
l-1 -236q0 -35 -13 -66t-36 -54t-54 -36.5t-67 -13.5h-379q-41 0 -77 15.5t-62.5 42t-41.5 62t-15 76.5v174h96zM546 309q12 -15 31 -15h138v112q0 20 -13.5 33t-33.5 13h-71q-17 0 -30.5 -11t-15.5 -28l-14 -72q-1 -4 -1 -7q0 -14 10 -25zM579 766h105v-105h-105v105z" />
    <glyph glyph-name="uni0642" unicode="&#x642;" horiz-adv-x="706" arabic-form="isolated" 
d="M65 -9v256h96v-242q0 -24 9 -45t25 -37t37.5 -25t45.5 -9h177q41 0 69.5 25.5t28.5 62.5v32q-11 -3 -25 -6t-29 -3h-72q-35 0 -65 15t-50.5 39.5t-27.5 50.5t-7 46q0 13 2 27l17 82q10 53 50.5 86.5t94.5 33.5h53q33 0 61.5 -12t49.5 -33t32.5 -49.5t11.5 -60.5v-257
q0 -40 -15 -75t-41.5 -61.5t-62 -41.5t-76.5 -15h-173q-45 0 -84.5 17t-68.5 46t-46 68.5t-17 84.5zM383 128q11 -14 31 -14h139v111q0 19 -14 32t-33 13h-72q-17 0 -29.5 -10.5t-16.5 -27.5l-14 -71q-1 -4 -1 -7q0 -15 10 -26zM601 585v-105h-106v105h106zM443 585v-105
h-105v105h105z" />
    <glyph glyph-name="uni0643" unicode="&#x643;" horiz-adv-x="865" arabic-form="isolated" 
d="M161 369v-164q0 -38 26.5 -64.5t64.5 -26.5h407q23 0 39.5 16.5t16.5 39.5v529h96v-529q0 -35 -13.5 -66t-36.5 -54t-54.5 -36.5t-66.5 -13.5h-379q-40 0 -76 15.5t-62.5 41.5t-42 62t-15.5 76v174h96zM359 402q-12 0 -19 13q-2 3 -7 12.5t-9 17.5q-10 21 -10 42t7.5 39
t21.5 32t32 21l79 32l29 -71l-77 -33q-10 -4 -13 -12t-3 -12q0 -7 3 -13l9 -18q7 -14 12 -23l120 63l33 -67l-248 -127l-33 71z" />
    <glyph glyph-name="uni0644" unicode="&#x644;" horiz-adv-x="703" arabic-form="isolated" 
d="M161 297v-241q0 -24 9.5 -45.5t25 -37.5t37 -25t45.5 -9h178q41 0 69 28t28 68v641h96v-657q0 -41 -15 -76t-41.5 -61.5t-61.5 -41.5t-75 -15h-175q-44 0 -83.5 17t-69 46t-46.5 68.5t-17 84.5v256h96z" />
    <glyph glyph-name="uni0645" unicode="&#x645;" horiz-adv-x="678" arabic-form="isolated" 
d="M65 216q0 36 13.5 67t37 54t54.5 36.5t66 13.5h232q33 0 61.5 -12.5t49.5 -33.5t33.5 -49.5t12.5 -60.5v-120q0 -24 -8.5 -44t-23.5 -35t-35.5 -23.5t-43.5 -8.5h-119q-35 0 -64.5 14.5t-49.5 39t-26.5 50t-6.5 44.5q0 14 2 28l19 102h-52q-23 0 -39.5 -17t-16.5 -40
v-475h-96v470zM353 129q11 -15 31 -15h145v118q0 20 -14 33t-33 13h-115l-22 -117q-1 -4 -1 -8q0 -13 9 -24z" />
    <glyph glyph-name="uni0646" unicode="&#x646;" horiz-adv-x="703" arabic-form="isolated" 
d="M162 325v-270q0 -24 9 -45.5t25 -37t37.5 -25t45.5 -9.5h178q40 0 68 28t28 69v306h96v-323q0 -40 -15.5 -75.5t-41.5 -61.5t-61.5 -41.5t-75.5 -15.5h-173q-45 0 -84.5 17t-68.5 46.5t-46 69t-17 84.5v284h96zM410 447v-105h-105v105h105z" />
    <glyph glyph-name="uni0647" unicode="&#x647;" horiz-adv-x="501" arabic-form="isolated" 
d="M86 283q21 36 50 53l36 21l-67 45l52 82l222 -149q38 -25 53 -60t15 -70v-35q0 -32 -12 -64.5t-35 -58.5t-57 -42t-78 -16h-21q-42 0 -75 16t-56.5 42t-35.5 58.5t-12 64.5v32q0 45 21 81zM167 147q5 -13 14.5 -23.5t23.5 -17.5t31 -7h40q19 0 33 7.5t23 19t13.5 23.5
t4.5 21v41q0 12 -5.5 24t-17.5 20q-4 2 -16 10t-26 17q-15 10 -34 22l-68 -50q-8 -6 -15 -15t-7 -26v-40q0 -13 6 -26z" />
    <glyph glyph-name="uni0648" unicode="&#x648;" horiz-adv-x="495" arabic-form="isolated" 
d="M58 177l17 91q5 26 18.5 48t33 38t43.5 25t50 9h56q33 0 61.5 -12.5t49.5 -33.5t33 -49.5t12 -61.5v-217q0 -38 -11.5 -73.5t-32.5 -65t-50.5 -52t-65.5 -34.5l-130 -44l-30 93l134 44q40 14 64.5 45t24.5 73v11q-11 -5 -25 -8t-28 -3h-79q-35 0 -64.5 15t-49.5 39.5
t-27 49.5t-7 44q0 14 3 29zM161 129q12 -15 30 -15h145v118q0 20 -13.5 33.5t-33.5 13.5h-75q-17 0 -29.5 -10.5t-16.5 -27.5l-15 -80q-1 -4 -1 -9q0 -12 9 -23z" />
    <glyph glyph-name="uni0649" unicode="&#x649;" horiz-adv-x="737" arabic-form="isolated" 
d="M65 36v229h96v-215q0 -24 9.5 -45.5t25 -37t37 -25t45.5 -9.5h212q19 0 36 7t29.5 19.5t19.5 29.5t7 36v30l-279 65v114q0 39 13.5 72.5t36.5 59.5t55 43t69 22l132 17l15 -104l-150 -20q-34 -5 -55.5 -30.5t-21.5 -58.5v-36l199 -45q36 -8 59 -35.5t23 -65.5v-37
q0 -41 -15.5 -76.5t-42 -62.5t-62.5 -42.5t-77 -15.5h-200q-45 0 -84.5 17t-68.5 46.5t-46 69t-17 84.5z" />
    <glyph glyph-name="uni064A" unicode="&#x64a;" horiz-adv-x="737" arabic-form="isolated" 
d="M65 36v229h96v-215q0 -24 9.5 -45.5t25 -37t37 -25t45.5 -9.5h212q19 0 35.5 7t29 19.5t19.5 29.5t7 36v30l-277 65v114q0 39 13 72.5t36.5 59.5t55 43t68.5 22l132 17l15 -104l-150 -20q-33 -5 -55 -30.5t-22 -58.5v-36l199 -45q36 -8 59 -35.5t23 -65.5v-37
q0 -41 -15.5 -76.5t-42 -62.5t-62.5 -42.5t-77 -15.5h-200q-45 0 -84.5 17t-68.5 46.5t-46 69t-17 84.5zM396 -385v105h105v-105h-105zM239 -280h105v-105h-105v105z" />
    <glyph glyph-name="uni064B" unicode="&#xfe70;" arabic-form="isolated" 
d="M-155 825l-11 66l319 69l15 -66zM-155 700l-11 65l319 69l15 -65z" />
    <glyph glyph-name="uni064C" unicode="&#xfe72;" arabic-form="isolated" 
d="M-177 765l34 7l-22 91l77 18l20 -92l37 7q-3 14 -5 23.5t-4 16.5l-3 14q-1 7 -2 16q-1 6 -1 12q0 10 4 22t14 23.5t24.5 19t30.5 9.5l52 7q5 1 9 1q11 0 24 -4.5t25.5 -14.5t21.5 -24t12 -29l6 -35v-6q0 -31 -20 -56t-53 -33l-12 -2q-12 -3 -31 -7t-43.5 -9.5
t-49.5 -10.5q-59 -13 -134 -29zM26 862l13 -52l57 13q8 2 12.5 6.5t4.5 10.5v3l-9 34q-2 8 -7 11.5t-9 3.5q-3 0 -5 -1l-41 -6q-8 -2 -12.5 -6.5t-4.5 -10.5q0 -3 1 -6z" />
    <glyph glyph-name="uni064D" unicode="&#xfe74;" arabic-form="isolated" 
d="M-155 -263l-12 69l320 69l15 -68zM-155 -137l-12 69l320 69l15 -68z" />
    <glyph glyph-name="uni064E" unicode="&#xfe76;" arabic-form="isolated" 
d="M-155 700l-12 66l319 69l16 -66z" />
    <glyph glyph-name="uni064F" unicode="&#xfe78;" arabic-form="isolated" 
d="M-49 788q-3 14 -5 23.5t-4 16.5l-3 14q-1 7 -2 16q-1 6 -1 12q0 10 4 22t14 24t24.5 19.5t30.5 9.5l52 6q5 1 9 1q11 0 24 -4.5t25.5 -14t21.5 -23.5t12 -30l6 -35q1 -6 1 -13q0 -10 -4 -22.5t-14 -25t-24.5 -21t-30.5 -12.5l-10 -2q-11 -2 -27.5 -6t-37.5 -8.5t-43 -9.5
q-52 -11 -117 -25l-13 65zM8 855l13 -52l57 12q8 2 13 7t5 10q0 2 -1 4l-9 33q-2 8 -7.5 11.5t-9.5 3.5q-2 0 -4 -1l-41 -6q-8 -1 -12.5 -5.5t-4.5 -11.5q0 -2 1 -5z" />
    <glyph glyph-name="uni0650" unicode="&#xfe7a;" arabic-form="isolated" 
d="M-155 -145l-14 77l320 68l17 -76z" />
    <glyph glyph-name="uni0651" unicode="&#xfe7c;" arabic-form="isolated" 
d="M-95 884v-86q1 -9 8 -15.5t17 -7.5h6q22 0 27 22l16 83l69 -13l-14 -71v-3q0 -9 7 -13.5t15 -4.5h38v113h70v-122q0 -29 -18.5 -47.5t-47.5 -18.5h-36q-17 0 -32 6.5t-27 21.5q-12 -15 -31.5 -21.5t-37.5 -6.5q-41 0 -69.5 28.5t-28.5 70.5v85h69z" />
    <glyph glyph-name="uni0652" unicode="&#xfe7e;" arabic-form="isolated" 
d="M-102 808q0 42 27.5 69.5t69.5 27.5h10q20 0 37.5 -7.5t31 -21t21 -31t7.5 -37.5v-11q0 -20 -7.5 -38t-21 -31t-31 -20.5t-37.5 -7.5h-10q-21 0 -38.5 8t-30.5 21.5t-20.5 31t-7.5 36.5v11zM-38 808v-9q0 -11 8 -18.5t19 -7.5h23q11 0 18.5 7.5t7.5 18.5v9q0 11 -7.5 19
t-18.5 8h-23q-11 0 -19 -8t-8 -19z" />
    <glyph glyph-name="uni0671" unicode="&#x671;" horiz-adv-x="342" arabic-form="isolated" 
d="M-2 719q11 0 18.5 7.5t7.5 17.5v52h64v-23q0 -11 3 -18.5t4 -8.5l76 75q41 41 93 41h25q19 0 36 -7.5t29.5 -20.5t20 -30t7.5 -36v-32q0 -18 -8 -35t-20.5 -29.5t-29.5 -20.5t-35 -8h-163q-40 0 -67 27q-25 -27 -66 -27h-33v76h38zM216 598v-598h-96v598h96zM298 719
q8 0 14.5 6t6.5 14v26q0 10 -7 16.5t-17 6.5h-42q-26 0 -49 -21l-49 -48h143z" />
    <glyph glyph-name="uni067E" unicode="&#x67e;" horiz-adv-x="864" arabic-form="isolated" 
d="M65 195v175h96v-165q0 -19 7 -35.5t19.5 -29t29 -19.5t35.5 -7h406q23 0 39.5 16.5t16.5 40.5v199h96v-199q0 -36 -13.5 -67t-36.5 -54t-54 -36.5t-66 -13.5h-380q-40 0 -76 15.5t-62 41.5t-41.5 62t-15.5 76zM415 -119v-106h-105v106h105zM467 -225v106h105v-106h-105z
M388 -367v105h105v-105h-105z" />
    <glyph glyph-name="uni0686" unicode="&#x686;" horiz-adv-x="691" arabic-form="isolated" 
d="M66 256l25 87q8 29 26.5 49.5t42 32.5t40 13.5t23.5 1.5q18 0 36 -5l379 -114l-29 -92l-62 17q-9 3 -18 3q-17 0 -33 -11l-252 -185q-28 -20 -42.5 -49.5t-14.5 -63.5q0 -31 12 -58.5t32.5 -48t48 -32.5t58.5 -12h252v-114h-251q-53 0 -100 20.5t-82 55t-55 80.5t-20 98
q0 59 25.5 108.5t70.5 82.5q20 15 49 36t58.5 42.5t55.5 40.5t41 30q11 8 20.5 14.5t11.5 7.5l-192 56q-5 2 -9 2q-7 0 -16 -5t-13 -18l-31 -93zM411 -68h90v-91h-90v91zM476 53h90v-90h-90v90zM342 53h90v-90h-90v90z" />
    <glyph glyph-name="uni0698" unicode="&#x698;" horiz-adv-x="385" arabic-form="isolated" 
d="M-40 -161l137 44q39 14 63 47t24 75v336h96v-327q0 -38 -11.5 -72.5t-32.5 -64t-50.5 -51.5t-65.5 -35l-130 -44zM98 442v105h105v-105h-105zM175 584v105h105v-105h-105zM255 547h105v-105h-105v105z" />
    <glyph glyph-name="uni06A9" unicode="&#x6a9;" horiz-adv-x="888" arabic-form="isolated" 
d="M65 196v161h96v-153q0 -19 7 -35.5t19 -28.5t28.5 -19t35.5 -7h376q29 0 52 15t34 36.5t11 46.5q0 3 -1 18.5t-20 41.5l-168 229v71l328 167l43 -85l-271 -138l146 -188q40 -51 41.5 -83t1.5 -38q0 -51 -23.5 -97t-72 -78t-111.5 -32h-356q-41 0 -77 15.5t-62.5 42
t-41.5 62.5t-15 76z" />
    <glyph glyph-name="uni06AF" unicode="&#x6af;" horiz-adv-x="888" arabic-form="isolated" 
d="M65 196v161h96v-153q0 -19 7 -35.5t19 -28.5t28.5 -19t35.5 -7h376q29 0 52 15t34 36.5t11 46.5q0 3 -1 18.5t-20 41.5l-168 229v71l328 167l43 -85l-271 -138l146 -188q40 -51 41.5 -83t1.5 -38q0 -51 -23.5 -97t-72 -78t-111.5 -32h-356q-41 0 -77 15.5t-62.5 42
t-41.5 62.5t-15 76zM798 855l30 -69l-301 -154l-31 69z" />
    <glyph glyph-name="uni06C0" unicode="&#x6c0;" horiz-adv-x="501" arabic-form="isolated" 
d="M65 170v32q0 45 21 81t50 53l36 21l-67 45l52 82q58 -39 105 -71q20 -13 40 -26.5t36 -24t27 -18t14 -9.5q38 -25 53 -60t15 -70v-35q0 -33 -12 -65t-35 -58t-57 -42t-78 -16h-21q-42 0 -75 16t-56.5 42t-35.5 58.5t-12 64.5zM198 665q-4 0 -7 2q-8 4 -13 13
q-2 2 -7 11.5t-8 16.5q-10 21 -10.5 32t-0.5 13q0 19 7.5 36.5t21.5 31.5t32 21l79 33l29 -72l-77 -33q-9 -4 -12.5 -12t-3.5 -13q0 -6 3 -12q2 -4 9.5 -18t12.5 -22l119 63l34 -68l-248 -126l-34 70zM161 172q0 -12 5.5 -25t15 -23.5t23.5 -17.5t31 -7h40q19 0 33 7.5
t23.5 19t14 23.5t4.5 21v41q0 12 -5.5 24t-17.5 20q-4 2 -16 10t-26 17q-16 10 -35 22l-68 -50q-8 -6 -15 -15.5t-7 -25.5v-41z" />
    <glyph glyph-name="uni06CC" unicode="&#x6cc;" horiz-adv-x="737" arabic-form="isolated" 
d="M65 36v229h96v-215q0 -24 9.5 -45.5t25 -37t37 -25t45.5 -9.5h212q19 0 35.5 7t29 19.5t19.5 29.5t7 36v30l-277 65v114q0 39 13 72.5t36.5 59.5t55 43t68.5 22l132 17l15 -104l-150 -20q-33 -5 -55 -30.5t-22 -58.5v-36l199 -45q36 -8 59 -35.5t23 -65.5v-37
q0 -41 -15.5 -76.5t-42 -62.5t-62.5 -42.5t-77 -15.5h-200q-45 0 -84.5 17t-68.5 46.5t-46 69t-17 84.5z" />
    <glyph glyph-name="uniFB51" unicode="&#x671;" horiz-adv-x="320" arabic-form="final" 
d="M-40 719h38q11 0 18.5 7.5t7.5 17.5v52h64v-23q0 -11 3 -18.5t4 -8.5l76 75q41 41 93 41h25q19 0 36 -7.5t29.5 -20.5t20 -30t7.5 -36v-32q0 -18 -8 -35t-20.5 -29.5t-29.5 -20.5t-35 -8h-163q-40 0 -67 27q-25 -27 -66 -27h-33v76zM112 598h96v-428q0 -23 16.5 -39.5
t39.5 -16.5h56q5 0 9.5 -4.5t4.5 -10.5v-85q0 -5 -4.5 -9.5t-9.5 -4.5h-39q-35 0 -65.5 13t-53.5 36t-36.5 53.5t-13.5 65.5v430zM155 719h143q8 0 14.5 6t6.5 14v26q0 10 -7 16.5t-17 6.5h-42q-26 0 -49 -21z" />
    <glyph glyph-name="uniFB57" unicode="&#x67e;" horiz-adv-x="895" arabic-form="final" 
d="M161 370v-166q0 -38 26.5 -64t64.5 -26h406q23 0 39.5 16t16.5 39v172h96v-171q0 -24 16.5 -40t39.5 -16h29q6 0 10.5 -4t4.5 -10v-86q0 -6 -4.5 -10t-10.5 -4h-12q-36 0 -66.5 16t-53.5 45q-24 -32 -55.5 -46.5t-67.5 -14.5h-380q-40 0 -75.5 15.5t-62 41.5t-42 62
t-15.5 76v175h96zM416 -120v-105h-105v105h105zM494 -262v-105h-105v105h105zM468 -120h105v-105h-105v105z" />
    <glyph glyph-name="uniFB58" unicode="&#x67e;" horiz-adv-x="421" arabic-form="initial" 
d="M-14 99q0 6 4 10.5t10 4.5h214q23 0 39.5 16.5t16.5 40.5v199h96v-199q0 -36 -13.5 -67t-36.5 -54t-54 -36.5t-66 -13.5h-196q-6 0 -10 4.5t-4 9.5v85zM20 -120h105v-105h-105v105zM98 -262h105v-105h-105v105zM282 -120v-105h-105v105h105z" />
    <glyph glyph-name="uniFB59" unicode="&#x67e;" horiz-adv-x="365" arabic-form="medial" 
d="M-10 110q4 4 10 4h79q23 0 40 14t22 36l35 173l94 -17l-28 -144q-1 -6 -1 -12q0 -17 14 -33.5t40 -16.5h70q6 0 10 -4.5t4 -10.5v-85q0 -14 -14 -14h-71q-16 0 -33 5t-32 13t-26 19t-16 24q-16 -26 -49 -43.5t-67 -17.5h-71q-14 0 -14 14v85q0 6 4 11zM56 -120h105v-105
h-105v105zM239 -262v-105h-105v105h105zM318 -120v-105h-105v105h105z" />
    <glyph glyph-name="uniFB7B" unicode="&#x686;" horiz-adv-x="697" arabic-form="final" 
d="M65 256l25 87q8 29 26.5 49.5t42 32.5t40 13.5t23.5 1.5q18 0 36 -5l379 -114l-28 -89l-63 14q-10 2 -20.5 2t-19.5 -5v-72q0 -24 17 -40.5t40 -16.5h133q14 0 14 -14v-86q0 -5 -4 -9.5t-10 -4.5h-117q-35 0 -64 13t-50.5 35t-33.5 51.5t-12 62.5v21l-176 -130
q-28 -20 -42.5 -49.5t-14.5 -62.5q0 -32 12 -59.5t32.5 -48t48 -32.5t58.5 -12h252v-114h-251q-53 0 -100 20.5t-82 55t-55 80.5t-20 98q0 59 25.5 108.5t70.5 82.5q20 15 48 35t56.5 41t55 40.5t44.5 32.5q5 3 16 11t16 11l-192 56q-5 2 -9 2q-7 0 -16 -5t-13 -18l-31 -93z
M372 -67v71h71v-71h-71zM338 4v-71h-70v71h70zM322 -160v71h69v-71h-69z" />
    <glyph glyph-name="uniFB7C" unicode="&#x686;" horiz-adv-x="681" arabic-form="initial" 
d="M-14 99q0 6 4.5 10.5t9.5 4.5h173q45 0 87 14.5t73 46.5l68 69q11 11 15 13l-220 66q-4 1 -8 1q-8 0 -17 -5t-13 -17l-34 -93l-84 23l25 87q8 29 26 49.5t41.5 32.5t40.5 14t24 2q19 0 37 -6l394 -118l-29 -91l-45 14q-11 2 -21 2q-12 0 -24.5 -5t-28.5 -21l-116 -111
q-42 -41 -96.5 -60.5t-113.5 -20.5h-154q-6 0 -10 4.5t-4 10.5v84zM197 -225v105h105v-105h-105zM380 -262v-105h-105v105h105zM354 -225v105h105v-105h-105z" />
    <glyph glyph-name="uniFB7D" unicode="&#x686;" horiz-adv-x="685" arabic-form="medial" 
d="M-14 14v85q0 5 4.5 10t9.5 5h173q45 0 87 14t73 46l77 77q4 4 6 5l-220 65q-6 2 -11 2q-6 0 -14 -5t-13 -17l-34 -93l-84 23l25 87q8 29 26 49.5t41.5 32.5t40.5 14t24 2q19 0 37 -6l394 -118l-29 -91l-45 13q-12 3 -22 3q-6 0 -15.5 -2t-20.5 -10v-35q0 -23 16.5 -39.5
t39.5 -16.5h133q6 0 10 -4.5t4 -9.5v-86q0 -14 -14 -14h-117q-60 0 -101 36t-53 92l-50 -48q-42 -41 -96.5 -60.5t-112.5 -19.5h-155q-14 0 -14 14zM189 -120h105v-105h-105v105zM268 -367v105h105v-105h-105zM346 -120h105v-105h-105v105z" />
    <glyph glyph-name="uniFB8B" unicode="&#x698;" horiz-adv-x="429" arabic-form="final" 
d="M-39 -161l136 45q40 13 63.5 46.5t23.5 75.5v336h96v-177q0 -22 17 -36.5t39 -14.5h93q14 0 14 -14v-86q0 -14 -14 -14h-77q-20 0 -40 7.5t-32 26.5v-26q0 -37 -12 -71t-33 -62.5t-50 -49.5t-64 -33l-130 -44zM205 546v-105h-105v105h105zM177 583v105h105v-105h-105z
M257 441v105h105v-105h-105z" />
    <glyph glyph-name="uniFB8F" unicode="&#x6a9;" horiz-adv-x="1003" arabic-form="final" 
d="M65 196v161h96v-153q0 -19 7 -35.5t19 -28.5t28.5 -19t35.5 -7h376q30 0 52.5 15t33 37t10.5 45q0 4 -1 20t-20 42l-168 228v71l329 167l43 -85l-271 -138l274 -358q15 -20 36 -32t47 -12h11q5 0 9.5 -4t4.5 -10v-86q0 -6 -4.5 -10t-9.5 -4h-7q-43 0 -78.5 19.5
t-61.5 55.5l-48 66q-8 -31 -26.5 -57t-44 -44.5t-56.5 -29t-65 -10.5h-355q-41 0 -77 15.5t-62.5 42t-41.5 62.5t-15 76z" />
    <glyph glyph-name="uniFB90" unicode="&#x6a9;" horiz-adv-x="398" arabic-form="initial" 
d="M-10 110q5 4 10 4h136q30 0 52.5 15t34 36.5t11.5 46.5q0 3 -1 18.5t-21 42.5l-168 227v72l329 167l43 -86l-272 -138l147 -188q40 -51 41.5 -82.5t1.5 -37.5q0 -50 -23.5 -96.5t-72.5 -78.5t-112 -32h-126q-14 0 -14 14v86q0 6 4 10z" />
    <glyph glyph-name="uniFB91" unicode="&#x6a9;" horiz-adv-x="513" arabic-form="medial" 
d="M-10 110q5 4 10 4h136q30 0 53 15t33.5 37t10.5 45q0 4 -1 20t-20 42l-168 227v72l329 167l43 -86l-272 -138l274 -358q15 -20 36.5 -31.5t46.5 -11.5h12q5 0 9.5 -4.5t4.5 -10.5v-85q0 -6 -4.5 -10t-9.5 -4h-8q-42 0 -77.5 19t-61.5 56l-47 66q-9 -31 -27.5 -57
t-44 -44.5t-56.5 -29t-65 -10.5h-126q-14 0 -14 14v86q0 6 4 10z" />
    <glyph glyph-name="uniFB93" unicode="&#x6af;" horiz-adv-x="1003" arabic-form="final" 
d="M65 196v161h96v-153q0 -19 7 -35.5t19 -28.5t28.5 -19t35.5 -7h376q30 0 52.5 15t33 37t10.5 45q0 4 -1 20t-20 42l-168 228v71l329 167l43 -85l-271 -138l274 -358q15 -20 36 -32t47 -12h11q5 0 9.5 -4t4.5 -10v-86q0 -6 -4.5 -10t-9.5 -4h-7q-43 0 -78.5 19.5
t-61.5 55.5l-48 66q-8 -31 -26.5 -57t-44 -44.5t-56.5 -29t-65 -10.5h-355q-41 0 -77 15.5t-62.5 42t-41.5 62.5t-15 76zM798 855l30 -69l-301 -154l-31 69z" />
    <glyph glyph-name="uniFB94" unicode="&#x6af;" horiz-adv-x="398" arabic-form="initial" 
d="M-10 110q5 4 10 4h136q30 0 52.5 15t34 36.5t11.5 46.5q0 3 -1 18.5t-21 42.5l-168 227v72l329 167l43 -86l-272 -138l147 -188q40 -51 41.5 -82.5t1.5 -37.5q0 -50 -23.5 -96.5t-72.5 -78.5t-112 -32h-126q-14 0 -14 14v86q0 6 4 10zM14 701l303 154l30 -69l-302 -154z
" />
    <glyph glyph-name="uniFB95" unicode="&#x6af;" horiz-adv-x="523" arabic-form="medial" 
d="M-10 110q5 4 10 4h146q30 0 53 15t34 37t11 47q0 3 -1 18.5t-21 41.5l-168 227v72l329 167l43 -86l-272 -138l274 -358q15 -20 36.5 -31.5t46.5 -11.5h12q5 0 9.5 -4.5t4.5 -10.5v-85q0 -6 -4.5 -10t-9.5 -4h-8q-85 0 -139 75l-47 66q-9 -31 -27.5 -57t-44 -44.5
t-56.5 -29t-65 -10.5h-136q-14 0 -14 14v86q0 6 4 10zM22 701l303 154l30 -69l-302 -154z" />
    <glyph glyph-name="uniFBA5" unicode="&#x6c0;" horiz-adv-x="522" arabic-form="final" 
d="M65 191v64q0 31 9.5 58.5t27 50t41.5 38.5t52 23l135 33v77h96v-359q0 -26 20 -44t46 -18h30q5 0 9.5 -4t4.5 -10v-86q0 -6 -4.5 -10t-9.5 -4h-30q-49 0 -85.5 25t-57.5 66q-11 -8 -27.5 -12t-30.5 -4h-110q-51 0 -83.5 32.5t-32.5 83.5zM196 657q0 1 -7.5 2.5
t-12.5 11.5q-1 2 -6.5 12t-9.5 17q-10 21 -10 42t7.5 39t21.5 32t32 21l79 33l30 -71l-78 -34q-9 -4 -12 -12t-3 -12q0 -7 3 -13l9 -18q7 -14 12 -22l119 62l34 -67l-248 -126l-34 70zM161 249v-60h169v165l-110 -27q-26 -7 -42.5 -29t-16.5 -49z" />
    <glyph glyph-name="uniFBE8" unicode="&#x649;" horiz-adv-x="360" arabic-form="initial" 
d="M-14 99q0 6 4 10.5t10 4.5h154q23 0 39.5 16.5t16.5 40.5v199h96v-199q0 -36 -13.5 -67t-36.5 -54t-54 -36.5t-66 -13.5h-136q-6 0 -10 4.5t-4 9.5v85z" />
    <glyph glyph-name="uniFBE9" unicode="&#x649;" horiz-adv-x="365" arabic-form="medial" 
d="M-10 110q4 4 10 4h79q23 0 40 14t22 36l35 173l94 -17l-28 -144q-1 -6 -1 -12q0 -17 14 -33.5t40 -16.5h70q6 0 10 -4.5t4 -10.5v-85q0 -14 -14 -14h-71q-16 0 -33 5t-32 13t-26 19t-16 24q-16 -26 -49 -43.5t-67 -17.5h-71q-14 0 -14 14v85q0 6 4 11z" />
    <glyph glyph-name="uniFBFD" unicode="&#x6cc;" horiz-adv-x="743" arabic-form="final" 
d="M65 -19v256h96v-241q0 -24 9.5 -45.5t25.5 -37.5t37.5 -25t45.5 -9h182q38 0 65 26.5t27 64.5v30h-193v114h383q14 0 14 -14v-85q0 -6 -4 -10.5t-10 -4.5h-98q1 -2 2.5 -7.5t1.5 -13.5v-22q0 -41 -15.5 -76t-42 -60.5t-62.5 -40.5t-77 -15h-171q-45 0 -84 17t-68.5 46.5
t-46.5 68.5t-17 84z" />
    <glyph glyph-name="uniFBFE" unicode="&#x6cc;" horiz-adv-x="420" arabic-form="initial" 
d="M-14 99q0 6 4 10.5t10 4.5h214q23 0 39.5 16.5t16.5 40.5v199h96v-199q0 -36 -13.5 -67t-36.5 -54t-54 -36.5t-66 -13.5h-196q-6 0 -10 4.5t-4 9.5v85zM168 -225v105h105v-105h-105zM11 -120h105v-105h-105v105z" />
    <glyph glyph-name="uniFBFF" unicode="&#x6cc;" horiz-adv-x="365" arabic-form="medial" 
d="M-10 110q4 4 10 4h79q23 0 40 14t22 36l35 173l94 -17l-28 -144q-1 -6 -1 -12q0 -17 14 -33.5t40 -16.5h70q6 0 10 -4.5t4 -10.5v-85q0 -14 -14 -14h-71q-16 0 -33 5t-32 13t-26 19t-16 24q-16 -26 -49 -43.5t-67 -17.5h-71q-14 0 -14 14v85q0 6 4 11zM314 -120v-105
h-105v105h105zM157 -120v-105h-105v105h105z" />
    <glyph glyph-name="uniFC5E" unicode="&#xfc5e;" arabic-form="isolated" 
d="M-146 996l-21 91l77 18l21 -93l36 8q-3 13 -6 25q-2 11 -4.5 23t-4.5 22q-1 5 -1 11q0 8 4 19.5t14.5 24t24.5 21t30 10.5l52 7q4 1 8 1q12 0 25.5 -5t26 -15t21 -23.5t11.5 -28.5l6 -36v-6q0 -31 -19.5 -55.5t-52.5 -32.5l-12 -2q-12 -3 -31 -7t-43.5 -9.5t-49.5 -10.5
q-60 -13 -135 -29l-11 65zM-164 799v85h70v-86q1 -9 7.5 -15.5t15.5 -7.5h8q9 0 16.5 6t9.5 16l17 82l69 -12l-14 -71v-5q0 -7 6 -11.5t14 -4.5h39v113h71l-1 -123q0 -28 -18.5 -46.5t-46.5 -18.5h-43q-35 0 -58 23q-26 -23 -63 -23q-20 0 -38 8t-31.5 21.5t-21.5 31.5
t-8 38zM23 1086l14 -52l56 13q8 2 12.5 6.5t4.5 10.5v3l-8 34q-4 14 -17 14h-5l-41 -7q-8 -1 -12.5 -5.5t-4.5 -10.5q0 -3 1 -6z" />
    <glyph glyph-name="uniFC5F" unicode="&#xfc5f;" arabic-form="isolated" 
d="M-162 1186h70v-86q0 -9 7 -16t17 -7h7q9 0 16.5 6t9.5 16l17 82l68 -12l-14 -71v-3q0 -9 7 -13.5t15 -4.5h38v113h70v-123q0 -28 -18.5 -46.5t-47.5 -18.5h-43q-33 0 -58 22q-25 -22 -62 -22q-42 0 -70.5 28.5t-28.5 70.5v85zM151 835l16 -66l-323 -69l-12 66zM151 960
l16 -65l-323 -69l-12 66z" />
    <glyph glyph-name="uniFC60" unicode="&#xfc60;" arabic-form="isolated" 
d="M-161 798v85h70v-86q0 -9 7 -16t16 -7h7q10 0 17 6t9 15l17 83l69 -12l-14 -71v-3q0 -9 6.5 -13.5t14.5 -4.5h39v113h70v-123q0 -28 -18.5 -46.5t-47.5 -18.5h-43q-33 0 -58 22q-27 -22 -63 -22q-41 0 -69.5 28.5t-28.5 70.5zM150 1057l16 -65l-323 -69l-12 66z" />
    <glyph glyph-name="uniFC61" unicode="&#xfc61;" arabic-form="isolated" 
d="M-45 1005q-3 14 -7 32.5t-8 37.5q-1 5 -1 9q0 11 4.5 24t14.5 24.5t24.5 19.5t30.5 10l52 6q5 1 9 1q11 0 24 -4.5t25.5 -14.5t21 -24t11.5 -30l7 -35q1 -6 1 -12q0 -28 -20.5 -51t-52.5 -31l-10 -2q-11 -2 -27.5 -5.5t-38 -8t-43.5 -9.5q-51 -11 -117 -25l-12 64z
M-165 800v85h70v-86q1 -9 8 -16t16 -8h7q9 0 16.5 6.5t9.5 15.5l17 83l69 -12l-14 -71v-4q0 -8 6.5 -12.5t14.5 -5.5h39v113h70v-122q0 -29 -18.5 -47.5t-47.5 -18.5h-43q-33 0 -58 23q-26 -23 -63 -23q-20 0 -38 8t-31.5 21.5t-21.5 31.5t-8 39zM11 1071l14 -52l57 12
q7 2 12 7t5 10q0 2 -1 4l-8 34q-4 14 -17 14h-5l-41 -7q-8 -1 -12.5 -5.5t-4.5 -11.5q0 -2 1 -5z" />
    <glyph glyph-name="uniFC62" unicode="&#xfc62;" arabic-form="isolated" 
d="M-161 955v86h70v-86q0 -9 7 -16t17 -8h7q9 0 16.5 6.5t9.5 15.5l17 83l68 -12l-14 -72v-2q0 -10 7 -14t15 -5h38v113h70v-122q0 -29 -18.5 -47.5t-46.5 -18.5h-43q-17 0 -32 6t-26 17q-26 -23 -63 -23q-21 0 -39 8t-31.5 21.5t-21 31.5t-7.5 38zM152 834l16 -66l-323 -69
l-12 66z" />
    <glyph glyph-name="uniFC63" unicode="&#xfc63;" arabic-form="isolated" 
d="M-94 884v-85q1 -10 8 -16.5t16 -7.5h7q10 0 17 6t9 16l17 82l69 -12l-14 -71v-3q0 -9 6.5 -13.5t14.5 -4.5h39v113h69v-123q0 -28 -18.5 -46.5t-46.5 -18.5h-43q-33 0 -58 23q-26 -23 -63 -23q-41 0 -69.5 28.5t-28.5 70.5v85h69zM-34 1071h69v-158h-69v158z" />
    <glyph glyph-name="uniFE82" unicode="&#x622;" horiz-adv-x="314" arabic-form="final" 
d="M202 598v-428q0 -23 16.5 -39.5t39.5 -16.5h56q5 0 9.5 -4.5t4.5 -10.5v-85q0 -5 -4.5 -9.5t-9.5 -4.5h-39q-35 0 -65.5 13t-53.5 36t-36.5 53.5t-13.5 65.5v430h96zM-28 623v48q0 21 7.5 37.5t20 28t28.5 17.5t33 6h201v-84h-193q-10 0 -16.5 -6.5t-6.5 -15.5v-31h-74z
" />
    <glyph glyph-name="uniFE84" unicode="&#x623;" horiz-adv-x="266" arabic-form="final" 
d="M154 598v-428q0 -23 16.5 -39.5t39.5 -16.5h56q5 0 9.5 -4.5t4.5 -10.5v-85q0 -5 -4.5 -9.5t-9.5 -4.5h-39q-35 0 -65.5 13t-53.5 36t-36.5 53.5t-13.5 65.5v430h96zM-20 711l74 33q-4 0 -7 1q-8 4 -13 13q-1 2 -6 11.5t-9 17.5q-10 21 -10.5 32t-0.5 12q0 19 7.5 36.5
t21.5 31.5t32 21l80 33l29 -71l-78 -33q-9 -5 -12 -12.5t-3 -12.5q0 -6 3 -12l21 -41l119 63l34 -68l-248 -126z" />
    <glyph glyph-name="uniFE86" unicode="&#x624;" horiz-adv-x="505" arabic-form="final" 
d="M58 177l17 91q5 26 18.5 48t33 38t43.5 25t50 9h56q33 0 61.5 -12.5t49.5 -33.5t33 -49.5t12 -61.5v-117h73q14 0 14 -14v-86q0 -14 -14 -14h-74v-13q-2 -33 -14.5 -64t-33.5 -57t-49 -45.5t-62 -31.5l-130 -44l-30 93l134 44q40 14 64.5 45t24.5 73v11q-11 -5 -25 -8
t-28 -3h-79q-35 0 -64.5 15t-49.5 39.5t-26.5 50t-6.5 44.5q0 14 2 28zM70 531l74 33q-4 0 -7 2q-8 4 -13 13q-2 2 -7 11.5t-8 16.5q-10 21 -10.5 32t-0.5 13q0 19 7.5 36.5t21.5 31.5t32 21l79 33l29 -72l-77 -33q-9 -4 -12.5 -12t-3.5 -13q0 -6 3 -12q2 -4 9.5 -18
t12.5 -22l119 63l34 -68l-248 -126zM161 129q12 -15 30 -15h145v118q0 20 -13.5 33.5t-33.5 13.5h-75q-17 0 -29.5 -10.5t-16.5 -27.5l-15 -80q-1 -4 -1 -9q0 -12 9 -23z" />
    <glyph glyph-name="uniFE88" unicode="&#x625;" horiz-adv-x="274" arabic-form="final" 
d="M66 618h96v-448q0 -23 16.5 -39.5t39.5 -16.5h56q5 0 9.5 -4.5t4.5 -10.5v-85q0 -5 -4.5 -9.5t-9.5 -4.5h-39q-35 0 -65.5 13.5t-53.5 36.5t-36.5 53.5t-13.5 65.5v449zM92 -253q-3 0 -7 2q-7 2 -13 12q-1 2 -6 11.5t-9 17.5q-10 21 -10.5 32t-0.5 12q0 19 7.5 36.5
t21.5 31.5t32 22l80 32l29 -71l-77 -33q-10 -4 -13 -12t-3 -12q0 -7 3 -13l22 -41l119 63l33 -68l-247 -126l-34 71z" />
    <glyph glyph-name="uniFE8A" unicode="&#x626;" horiz-adv-x="747" arabic-form="final" 
d="M165 237v-241q0 -24 9.5 -45.5t25.5 -37.5t37.5 -25t45.5 -9h182q38 0 65 26.5t27 64.5v30h-193v114h383q14 0 14 -14v-85q0 -6 -4 -10.5t-10 -4.5h-98q1 -2 2.5 -7.5t1.5 -13.5v-22q0 -41 -15.5 -76t-42 -60.5t-62.5 -40.5t-77 -15h-171q-45 0 -84 17t-68.5 46.5
t-46.5 68.5t-17 84v256h96zM65 404l74 33q-4 0 -7 2q-7 2 -12 11q-2 3 -7 13t-9 17q-10 21 -10.5 32t-0.5 13q0 19 7.5 36.5t21.5 31.5t32 21l79 33l30 -71l-78 -34q-9 -4 -12 -12t-3 -12q0 -7 3 -13q2 -4 9.5 -18t12.5 -22l118 62l33 -67l-247 -127z" />
    <glyph glyph-name="uniFE8B" unicode="&#x626;" horiz-adv-x="366" arabic-form="initial" 
d="M-14 14v85q0 6 4 10.5t10 4.5h154q23 0 39.5 16.5t16.5 40.5v199h96v-199q0 -36 -13.5 -67t-36.5 -54t-54 -36.5t-66 -13.5h-136q-6 0 -10 4.5t-4 9.5zM-1 454l74 34q-3 0 -7 1q-8 4 -13 13q-1 2 -6.5 11.5t-9.5 16.5q-10 21 -10 41.5t7.5 38.5t21.5 32t32 22l79 33
l30 -72l-78 -33q-10 -4 -13 -11.5t-3 -11.5q0 -6 4 -13q2 -5 9 -19t12 -22q14 8 34 18t38.5 20t32.5 17t15 8l32 -68l-247 -126z" />
    <glyph glyph-name="uniFE8C" unicode="&#x626;" horiz-adv-x="365" arabic-form="medial" 
d="M-14 14v85q0 6 4 10.5t10 4.5h79q23 0 40 14t22 36l35 173l94 -17l-28 -144q-1 -6 -1 -12q0 -17 14 -33.5t40 -16.5h70q6 0 10 -4.5t4 -10.5v-85q0 -14 -14 -14h-71q-16 0 -33 5t-32 13t-26 19t-16 24q-16 -26 -49 -43.5t-67 -17.5h-71q-14 0 -14 14zM47 477l74 33
q-2 0 -8 1.5t-11 11.5q-2 4 -7.5 13.5t-8.5 16.5q-10 21 -10.5 32t-0.5 13q0 19 7.5 36.5t21.5 31.5t32 21l79 33l30 -72l-78 -33q-9 -4 -12.5 -12t-3.5 -12q0 -7 4 -13l9 -18q7 -14 12 -22l120 63l33 -68l-248 -126z" />
    <glyph glyph-name="uniFE8E" unicode="&#x627;" horiz-adv-x="265" arabic-form="final" 
d="M161 676v-506q0 -24 16.5 -40t39.5 -16h48q6 0 10 -4.5t4 -10.5v-85q0 -14 -14 -14h-32q-35 0 -65.5 13t-53.5 35.5t-36 53t-13 65.5v509h96z" />
    <glyph glyph-name="uniFE90" unicode="&#x628;" horiz-adv-x="895" arabic-form="final" 
d="M161 370v-166q0 -38 26.5 -64t64.5 -26h406q23 0 39.5 16t16.5 39v172h96v-171q0 -24 16.5 -40t39.5 -16h29q6 0 10.5 -4t4.5 -10v-86q0 -6 -4.5 -10t-10.5 -4h-12q-36 0 -66.5 16t-53.5 45q-24 -32 -55.5 -46.5t-67.5 -14.5h-380q-40 0 -75.5 15.5t-62 41.5t-42 62
t-15.5 76v175h96zM490 -122v-105h-105v105h105z" />
    <glyph glyph-name="uniFE91" unicode="&#x628;" horiz-adv-x="360" arabic-form="initial" 
d="M-14 99q0 6 4 10.5t10 4.5h154q23 0 39.5 16.5t16.5 40.5v199h96v-199q0 -36 -13.5 -67t-36.5 -54t-54 -36.5t-66 -13.5h-136q-6 0 -10 4.5t-4 9.5v85zM24 -225v105h105v-105h-105z" />
    <glyph glyph-name="uniFE92" unicode="&#x628;" horiz-adv-x="365" arabic-form="medial" 
d="M-10 110q4 4 10 4h79q23 0 40 14t22 36l35 173l94 -17l-28 -144q-1 -6 -1 -12q0 -17 14 -33.5t40 -16.5h70q6 0 10 -4.5t4 -10.5v-85q0 -14 -14 -14h-71q-16 0 -33 5t-32 13t-26 19t-16 24q-16 -26 -49 -43.5t-67 -17.5h-71q-14 0 -14 14v85q0 6 4 11zM238 -121v-105
h-105v105h105z" />
    <glyph glyph-name="uniFE94" unicode="&#x629;" horiz-adv-x="522" arabic-form="final" 
d="M65 191v64q0 31 9.5 58.5t27 50t41.5 38.5t52 23l135 33v77h96v-359q0 -26 20 -44t46 -18h30q5 0 9.5 -4t4.5 -10v-86q0 -6 -4.5 -10t-9.5 -4h-30q-49 0 -85.5 25t-57.5 66q-11 -8 -27.5 -12t-30.5 -4h-110q-51 0 -83.5 32.5t-32.5 83.5zM330 189v165l-110 -27
q-26 -7 -42.5 -29t-16.5 -49v-60h169zM269 742h105v-105h-105v105zM112 742h105v-105h-105v105z" />
    <glyph glyph-name="uniFE96" unicode="&#x62a;" horiz-adv-x="896" arabic-form="final" 
d="M161 370v-166q0 -38 26.5 -64t64.5 -26h406q23 0 39.5 16t16.5 39v172h96v-171q0 -24 16.5 -40t39.5 -16h29q6 0 10.5 -4t4.5 -10v-86q0 -6 -4.5 -10t-10.5 -4h-12q-36 0 -66.5 16t-53.5 45q-24 -32 -55.5 -46.5t-67.5 -14.5h-380q-40 0 -75.5 15.5t-62 41.5t-42 62
t-15.5 76v175h96zM568 475v-105h-105v105h105zM306 475h105v-105h-105v105z" />
    <glyph glyph-name="uniFE97" unicode="&#x62a;" horiz-adv-x="360" arabic-form="initial" 
d="M-14 99q0 6 4 10.5t10 4.5h154q23 0 39.5 16.5t16.5 40.5v199h96v-199q0 -36 -13.5 -67t-36.5 -54t-54 -36.5t-66 -13.5h-136q-6 0 -10 4.5t-4 9.5v85zM201 470v105h105v-105h-105zM44 575h105v-105h-105v105z" />
    <glyph glyph-name="uniFE98" unicode="&#x62a;" horiz-adv-x="365" arabic-form="medial" 
d="M-10 110q4 4 10 4h79q23 0 40 14t22 36l35 173l94 -17l-28 -144q-1 -6 -1 -12q0 -17 14 -33.5t40 -16.5h70q6 0 10 -4.5t4 -10.5v-85q0 -14 -14 -14h-71q-16 0 -33 5t-32 13t-26 19t-16 24q-16 -26 -49 -43.5t-67 -17.5h-71q-14 0 -14 14v85q0 6 4 11zM308 543v-105h-105
v105h105zM151 543v-105h-105v105h105z" />
    <glyph glyph-name="uniFE9A" unicode="&#x62b;" horiz-adv-x="895" arabic-form="final" 
d="M161 370v-166q0 -38 26.5 -64t64.5 -26h406q23 0 39.5 16t16.5 39v172h96v-171q0 -24 16.5 -40t39.5 -16h29q6 0 10.5 -4t4.5 -10v-86q0 -6 -4.5 -10t-10.5 -4h-12q-36 0 -66.5 16t-53.5 45q-24 -32 -55.5 -46.5t-67.5 -14.5h-380q-40 0 -75.5 15.5t-62 41.5t-42 62
t-15.5 76v175h96zM307 475h105v-105h-105v105zM384 512v105h105v-105h-105zM569 370h-105v105h105v-105z" />
    <glyph glyph-name="uniFE9B" unicode="&#x62b;" horiz-adv-x="345" arabic-form="initial" 
d="M-14 14v85q0 6 4 10.5t10 4.5h138q23 0 40 16.5t17 40.5v199h96v-199q0 -36 -13.5 -67t-36.5 -54t-54 -36.5t-67 -13.5h-120q-6 0 -10 4.5t-4 9.5zM28 470v105h105v-105h-105zM210 717v-105h-105v105h105zM185 470v105h105v-105h-105z" />
    <glyph glyph-name="uniFE9C" unicode="&#x62b;" horiz-adv-x="365" arabic-form="medial" 
d="M-10 110q4 4 10 4h79q23 0 40 14t22 36l35 173l94 -17l-28 -144q-1 -6 -1 -12q0 -17 14 -33.5t40 -16.5h70q6 0 10 -4.5t4 -10.5v-85q0 -14 -14 -14h-71q-16 0 -33 5t-32 13t-26 19t-16 24q-16 -26 -49 -43.5t-67 -17.5h-71q-14 0 -14 14v85q0 6 4 11zM45 544h105v-105
h-105v105zM122 686h105v-105h-105v105zM202 439v105h105v-105h-105z" />
    <glyph glyph-name="uniFE9E" unicode="&#x62c;" horiz-adv-x="697" arabic-form="final" 
d="M91 343q8 29 26.5 49.5t42 32.5t40 13.5t23.5 1.5q18 0 36 -5l379 -114l-28 -89l-63 14q-10 2 -20.5 2t-19.5 -5v-72q0 -24 17 -40.5t40 -16.5h133q14 0 14 -14v-86q0 -5 -4 -9.5t-10 -4.5h-117q-35 0 -64 13t-50.5 35t-33.5 51.5t-12 62.5v21l-176 -130
q-28 -20 -42.5 -49.5t-14.5 -62.5q0 -32 12 -59.5t32.5 -48t48 -32.5t58.5 -12h252v-114h-251q-53 0 -100 20.5t-82 55t-55 80.5t-20 98q0 59 25.5 108.5t70.5 82.5q20 15 48 35t56.5 41t55 40.5t44.5 32.5q5 3 16 11t16 11l-192 56q-5 2 -9 2q-7 0 -16 -5t-13 -18l-31 -93
l-87 23zM314 -98v105h105v-105h-105z" />
    <glyph glyph-name="uniFE9F" unicode="&#x62c;" horiz-adv-x="682" arabic-form="initial" 
d="M-14 99q0 6 4.5 10.5t9.5 4.5h173q45 0 87 14.5t73 46.5l68 69q11 11 15 13l-220 66q-4 1 -8 1q-8 0 -17 -5t-13 -17l-34 -93l-84 23l25 87q8 29 26 49.5t41.5 32.5t40.5 14t24 2q19 0 37 -6l394 -118l-29 -91l-45 14q-11 2 -21 2q-12 0 -24.5 -5t-28.5 -21l-116 -111
q-42 -41 -96.5 -60.5t-113.5 -20.5h-154q-6 0 -10 4.5t-4 10.5v84zM381 -120v-105h-105v105h105z" />
    <glyph glyph-name="uniFEA0" unicode="&#x62c;" horiz-adv-x="685" arabic-form="medial" 
d="M-14 99q0 5 4.5 10t9.5 5h173q45 0 87 14t73 46l77 77q4 4 6 5l-220 65q-6 2 -11 2q-6 0 -14 -5t-13 -17l-34 -93l-84 23l25 87q8 29 26 49.5t41.5 32.5t40.5 14t24 2q19 0 37 -6l394 -118l-29 -91l-45 13q-12 3 -22 3q-6 0 -15.5 -2t-20.5 -10v-35q0 -23 16.5 -39.5
t39.5 -16.5h133q6 0 10 -4.5t4 -9.5v-86q0 -14 -14 -14h-117q-60 0 -101 36t-53 92l-50 -48q-42 -41 -96.5 -60.5t-112.5 -19.5h-155q-14 0 -14 14v85zM275 -121h105v-105h-105v105z" />
    <glyph glyph-name="uniFEA2" unicode="&#x62d;" horiz-adv-x="697" arabic-form="final" 
d="M90 343q8 29 26.5 49.5t42 32.5t40 13.5t23.5 1.5q18 0 36 -5l379 -114l-28 -89l-63 14q-10 2 -20.5 2t-19.5 -5v-72q0 -24 17 -40.5t40 -16.5h133q14 0 14 -14v-86q0 -5 -4 -9.5t-10 -4.5h-117q-35 0 -64 13t-50.5 35t-33.5 51.5t-12 62.5v21l-176 -130
q-28 -20 -42.5 -49.5t-14.5 -62.5q0 -32 12 -59.5t32.5 -48t48 -32.5t58.5 -12h252v-114h-251q-53 0 -100 20.5t-82 55t-55 80.5t-20 98q0 59 25.5 108.5t70.5 82.5q20 15 48 35t56.5 41t55 40.5t44.5 32.5q5 3 16 11t16 11l-192 56q-5 2 -9 2q-7 0 -16 -5t-13 -18l-31 -93
l-87 23z" />
    <glyph glyph-name="uniFEA3" unicode="&#x62d;" horiz-adv-x="682" arabic-form="initial" 
d="M-14 99q0 6 4.5 10.5t9.5 4.5h173q45 0 87 14.5t73 46.5l68 69q11 11 15 13l-220 66q-4 1 -8 1q-8 0 -17 -5t-13 -17l-34 -93l-84 23l25 87q8 29 26 49.5t41.5 32.5t40.5 14t24 2q19 0 37 -6l394 -118l-29 -91l-45 14q-11 2 -21 2q-12 0 -24.5 -5t-28.5 -21l-116 -111
q-42 -41 -96.5 -60.5t-113.5 -20.5h-154q-6 0 -10 4.5t-4 10.5v84z" />
    <glyph glyph-name="uniFEA4" unicode="&#x62d;" horiz-adv-x="685" arabic-form="medial" 
d="M-14 14v85q0 5 4.5 10t9.5 5h173q45 0 87 14t73 46l77 77q4 4 6 5l-220 65q-6 2 -11 2q-6 0 -14 -5t-13 -17l-34 -93l-84 23l25 87q8 29 26 49.5t41.5 32.5t40.5 14t24 2q19 0 37 -6l394 -118l-29 -91l-45 13q-12 3 -22 3q-6 0 -15.5 -2t-20.5 -10v-35q0 -23 16.5 -39.5
t39.5 -16.5h133q6 0 10 -4.5t4 -9.5v-86q0 -14 -14 -14h-117q-60 0 -101 36t-53 92l-50 -48q-42 -41 -96.5 -60.5t-112.5 -19.5h-155q-14 0 -14 14z" />
    <glyph glyph-name="uniFEA6" unicode="&#x62e;" horiz-adv-x="697" arabic-form="final" 
d="M91 343q8 29 26.5 49.5t42 32.5t40 13.5t23.5 1.5q18 0 36 -5l379 -114l-28 -89l-63 14q-10 2 -20.5 2t-19.5 -5v-72q0 -24 17 -40.5t40 -16.5h133q14 0 14 -14v-86q0 -5 -4 -9.5t-10 -4.5h-117q-35 0 -64 13t-50.5 35t-33.5 51.5t-12 62.5v21l-176 -130
q-28 -20 -42.5 -49.5t-14.5 -62.5q0 -32 12 -59.5t32.5 -48t48 -32.5t58.5 -12h252v-114h-251q-53 0 -100 20.5t-82 55t-55 80.5t-20 98q0 59 25.5 108.5t70.5 82.5q20 15 48 35t56.5 41t55 40.5t44.5 32.5q5 3 16 11t16 11l-192 56q-5 2 -9 2q-7 0 -16 -5t-13 -18l-31 -93
l-87 23zM152 645h105v-105h-105v105z" />
    <glyph glyph-name="uniFEA7" unicode="&#x62e;" horiz-adv-x="681" arabic-form="initial" 
d="M-14 99q0 6 4.5 10.5t9.5 4.5h173q45 0 87 14.5t73 46.5l68 69q11 11 15 13l-220 66q-4 1 -8 1q-8 0 -17 -5t-13 -17l-34 -93l-84 23l25 87q8 29 26 49.5t41.5 32.5t40.5 14t24 2q19 0 37 -6l394 -118l-29 -91l-45 14q-11 2 -21 2q-12 0 -24.5 -5t-28.5 -21l-116 -111
q-42 -41 -96.5 -60.5t-113.5 -20.5h-154q-6 0 -10 4.5t-4 10.5v84zM151 620h105v-105h-105v105z" />
    <glyph glyph-name="uniFEA8" unicode="&#x62e;" horiz-adv-x="685" arabic-form="medial" 
d="M-14 99q0 5 4.5 10t9.5 5h173q45 0 87 14t73 46l77 77q4 4 6 5l-220 65q-6 2 -11 2q-6 0 -14 -5t-13 -17l-34 -93l-84 23l25 87q8 29 26 49.5t41.5 32.5t40.5 14t24 2q19 0 37 -6l394 -118l-29 -91l-45 13q-12 3 -22 3q-6 0 -15.5 -2t-20.5 -10v-35q0 -23 16.5 -39.5
t39.5 -16.5h133q6 0 10 -4.5t4 -9.5v-86q0 -14 -14 -14h-117q-60 0 -101 36t-53 92l-50 -48q-42 -41 -96.5 -60.5t-112.5 -19.5h-155q-14 0 -14 14v85zM257 620v-105h-105v105h105z" />
    <glyph glyph-name="uniFEAA" unicode="&#x62f;" horiz-adv-x="589" arabic-form="final" 
d="M65 125v122h82v-103q0 -13 8 -21.5t21 -8.5h147q17 0 31 7.5t23.5 19.5t12.5 24t3 20q0 7 -1 14l-78 282l91 33l99 -355q5 -20 22 -32.5t37 -12.5h26q5 0 9.5 -4.5t4.5 -10.5v-85q0 -5 -4 -9.5t-10 -4.5h-20q-39 0 -70 17t-51 43q-23 -28 -55.5 -44t-70.5 -16h-133
q-26 0 -48.5 10t-39.5 27t-26.5 39.5t-9.5 48.5z" />
    <glyph glyph-name="uniFEAC" unicode="&#x630;" horiz-adv-x="589" arabic-form="final" 
d="M65 125v122h82v-103q0 -13 8 -21.5t21 -8.5h147q17 0 31 7.5t23.5 19.5t12.5 24t3 20q0 7 -1 14l-78 282l91 33l99 -355q5 -20 22 -32.5t37 -12.5h26q5 0 9.5 -4.5t4.5 -10.5v-85q0 -5 -4 -9.5t-10 -4.5h-20q-39 0 -70 17t-51 43q-23 -28 -55.5 -44t-70.5 -16h-133
q-26 0 -48.5 10t-39.5 27t-26.5 39.5t-9.5 48.5zM286 719h105v-105h-105v105z" />
    <glyph glyph-name="uniFEAE" unicode="&#x631;" horiz-adv-x="418" arabic-form="final" 
d="M-40 -161l136 45q40 13 63.5 46.5t23.5 75.5v336h96v-177q0 -22 17 -36.5t39 -14.5h83q14 0 14 -14v-86q0 -14 -14 -14h-67q-20 0 -40 7.5t-32 26.5v-26q0 -37 -12 -71t-33 -62.5t-50 -49.5t-64 -33l-130 -44z" />
    <glyph glyph-name="uniFEB0" unicode="&#x632;" horiz-adv-x="428" arabic-form="final" 
d="M96 -116q40 13 63.5 46.5t23.5 75.5v336h96v-177q0 -22 17 -36.5t39 -14.5h93q14 0 14 -14v-86q0 -14 -14 -14h-77q-20 0 -40 7.5t-32 26.5v-26q0 -37 -12 -71t-33 -62.5t-50 -49.5t-64 -33l-130 -44l-30 91zM177 442v105h105v-105h-105z" />
    <glyph glyph-name="uniFEB2" unicode="&#x633;" horiz-adv-x="1217" arabic-form="final" 
d="M65 41v284h96v-269q0 -24 9 -45.5t25 -37.5t37.5 -25t45.5 -9h177q40 0 68 28t28 69v306h96v-173q0 -23 17 -39t40 -16h25q23 0 40 14t22 37l35 173l94 -17l-29 -145q-1 -5 -1 -10q0 -19 15 -36t39 -17h23q23 0 39.5 16.5t16.5 39.5v201h96v-202q0 -22 17 -38t40 -16h41
q14 0 14 -14v-86q0 -14 -14 -14h-25q-36 0 -67 15t-54 46q-23 -31 -57 -46.5t-69 -15.5q-33 0 -61 15.5t-48 46.5q-22 -32 -50.5 -46.5t-62.5 -14.5q-19 0 -40 6.5t-36 27.5v-31q0 -37 -15.5 -69.5t-42 -56.5t-61.5 -38t-74 -14h-173q-45 0 -84.5 17t-68.5 46.5t-46 68.5
t-17 84z" />
    <glyph glyph-name="uniFEB3" unicode="&#x633;" horiz-adv-x="722" arabic-form="initial" 
d="M-14 14v85q0 6 4.5 10.5t9.5 4.5h44q23 0 39.5 17t16.5 41v170h96v-171q0 -24 16.5 -40.5t39.5 -16.5h25q23 0 40.5 14t21.5 37l36 173l94 -17l-29 -144q-1 -6 -1 -11q0 -18 15 -35t39 -17h79v256h96v-258q0 -48 -32 -80t-80 -32h-63q-32 0 -60.5 15t-47.5 47
q-23 -32 -52.5 -47t-63.5 -15q-36 0 -67 15t-54 46q-23 -31 -54 -46t-67 -15h-27q-6 0 -10 4t-4 8v2z" />
    <glyph glyph-name="uniFEB4" unicode="&#x633;" horiz-adv-x="763" arabic-form="medial" 
d="M-14 99q0 6 4.5 10.5t9.5 4.5h41q23 1 39.5 17.5t16.5 39.5v171h96v-173q0 -22 17.5 -38.5t38.5 -16.5h27q23 0 40.5 14.5t21.5 37.5l34 173l95 -17l-29 -146q-1 -6 -1 -11q0 -17 14.5 -34t40.5 -17h22q23 0 39.5 16.5t16.5 39.5v199h96v-200q1 -23 17.5 -39t39.5 -16h40
q5 0 9.5 -4.5t4.5 -9.5v-85q0 -6 -4 -10.5t-10 -4.5h-24q-37 0 -67.5 15t-53.5 47q-23 -32 -54.5 -47t-67.5 -15q-33 0 -63.5 14.5t-49.5 47.5q-22 -33 -52 -47.5t-64 -14.5q-36 0 -67 15t-54 47q-23 -32 -54.5 -47t-67.5 -15h-24q-5 0 -9.5 4.5t-4.5 9.5v85z" />
    <glyph glyph-name="uniFEB6" unicode="&#x634;" horiz-adv-x="1217" arabic-form="final" 
d="M65 41v284h96v-269q0 -24 9 -45.5t25 -37.5t37.5 -25t45.5 -9h177q40 0 68 28t28 69v306h96v-173q0 -23 17 -39t40 -16h25q23 0 40 14t22 37l35 173l94 -17l-29 -145q-1 -5 -1 -10q0 -19 15 -36t39 -17h23q23 0 39.5 16.5t16.5 39.5v201h96v-202q0 -22 17 -38t40 -16h41
q14 0 14 -14v-86q0 -14 -14 -14h-25q-36 0 -67 15t-54 46q-23 -31 -57 -46.5t-69 -15.5q-33 0 -61 15.5t-48 46.5q-22 -32 -50.5 -46.5t-62.5 -14.5q-19 0 -40 6.5t-36 27.5v-31q0 -37 -15.5 -69.5t-42 -56.5t-61.5 -38t-74 -14h-173q-45 0 -84.5 17t-68.5 46.5t-46 68.5
t-17 84zM692 438v105h105v-105h-105zM769 685h105v-105h-105v105zM954 543v-105h-105v105h105z" />
    <glyph glyph-name="uniFEB7" unicode="&#x634;" horiz-adv-x="722" arabic-form="initial" 
d="M-14 14v85q0 6 4.5 10.5t9.5 4.5h44q23 0 39.5 17t16.5 41v170h97v-172q0 -23 16 -39.5t40 -16.5h23q23 0 40 14t22 37l35 173l97 -17l-29 -144q-1 -6 -1 -11q0 -18 14.5 -35t39.5 -17h78v256h96v-259q0 -23 -8.5 -43.5t-23.5 -35.5t-35.5 -23.5t-43.5 -8.5h-63
q-33 0 -61.5 15t-46.5 47q-23 -33 -53 -47.5t-64 -14.5q-36 0 -67 15t-54 46q-23 -31 -54 -46t-67 -15h-27q-14 0 -14 14zM349 543v-105h-105v105h105zM320 685h105v-105h-105v105zM506 543v-105h-105v105h105z" />
    <glyph glyph-name="uniFEB8" unicode="&#x634;" horiz-adv-x="767" arabic-form="medial" 
d="M-14 99q0 6 4.5 10.5t9.5 4.5h44q23 0 39.5 17t16.5 40v171h96v-177q0 -22 17.5 -36.5t38.5 -14.5h27q23 0 40.5 14.5t21.5 37.5l34 173l95 -17l-28 -146q-1 -6 -1 -11q0 -18 14.5 -34.5t40.5 -16.5h21q23 0 39.5 16.5t16.5 39.5v199h96v-201q1 -23 17.5 -38.5
t39.5 -15.5h41q6 0 10 -4.5t4 -9.5v-85q0 -6 -3.5 -10.5t-10.5 -4.5h-25q-37 0 -67.5 15t-53.5 47q-23 -32 -54.5 -47t-66.5 -15q-34 0 -64.5 14.5t-49.5 47.5q-22 -33 -52 -47.5t-64 -14.5q-36 0 -67 15t-54 47q-23 -32 -54.5 -47t-67.5 -15h-27q-5 0 -9.5 4.5t-4.5 9.5v85
zM243 543h105v-105h-105v105zM425 685v-105h-105v105h105zM400 543h105v-105h-105v105z" />
    <glyph glyph-name="uniFEBA" unicode="&#x635;" horiz-adv-x="1277" arabic-form="final" 
d="M161 326v-270q0 -24 9 -45t25 -37t37.5 -25t45.5 -9h178q20 0 37.5 7.5t30.5 20.5t20.5 30.5t7.5 36.5v307h96v-135q0 -14 2.5 -23.5t5.5 -14.5q3 -7 7 -10l146 158q30 32 72 50.5t88 18.5h61q32 0 60.5 -12.5t50 -33.5t34 -49.5t12.5 -60.5v-60q0 -24 16 -40t40 -16h34
q5 0 9.5 -4.5t4.5 -10.5v-85q0 -14 -14 -14h-18q-73 0 -120 53q-23 -25 -53.5 -39t-66.5 -14h-250q-28 0 -63.5 7.5t-58.5 31.5v-36q0 -37 -15.5 -69.5t-42 -56.5t-61.5 -37.5t-74 -13.5h-173q-45 0 -84.5 17t-68.5 46t-46 68.5t-17 84.5v284h96zM1037 114q22 0 38 15t16 38
v55q0 23 -16 39t-39 16h-80q-54 0 -93 -41l-115 -122h289z" />
    <glyph glyph-name="uniFEBB" unicode="&#x635;" horiz-adv-x="794" arabic-form="initial" 
d="M-14 15v84q0 6 4.5 10.5t9.5 4.5h51q23 0 39.5 16.5t16.5 39.5v156h96v-118q0 -29 7.5 -38t7.5 -10l146 158q30 33 72 51t87 18h62q32 0 60.5 -12.5t49.5 -33.5t33.5 -49.5t12.5 -60.5v-63q0 -35 -13 -65.5t-36 -53.5t-53 -36t-65 -13h-298q-36 0 -69 15t-53 47
q-23 -32 -54.5 -47t-67.5 -15h-32q-6 0 -10 4.5t-4 10.5zM303 114h288q23 0 38.5 16t15.5 39v55q0 23 -16 39t-39 16h-80q-55 0 -93 -41z" />
    <glyph glyph-name="uniFEBC" unicode="&#x635;" horiz-adv-x="833" arabic-form="medial" 
d="M-14 15v84q0 6 4.5 10.5t9.5 4.5h50q23 0 39.5 16.5t16.5 39.5v156h96v-121q0 -28 7.5 -36.5t7.5 -9.5l147 159q31 33 72.5 51t86.5 18h62q32 0 60.5 -12.5t49.5 -33.5t33.5 -49.5t12.5 -60.5v-64q0 -22 16.5 -37.5t39.5 -15.5h36q5 0 9.5 -4.5t4.5 -9.5v-85
q0 -6 -4 -10.5t-10 -4.5h-20q-36 0 -66.5 15t-52.5 46q-46 -61 -120 -61h-299q-37 0 -68.5 14.5t-53.5 47.5q-23 -32 -54 -47t-67 -15h-32q-6 0 -10 4.5t-4 10.5zM302 114h289q23 0 38.5 16t15.5 39v54q0 23 -16.5 39t-39.5 16h-78q-27 0 -51.5 -10.5t-42.5 -29.5z" />
    <glyph glyph-name="uniFEBE" unicode="&#x636;" horiz-adv-x="1277" arabic-form="final" 
d="M161 326v-270q0 -24 9 -45t25 -37t37.5 -25t45.5 -9h178q20 0 37.5 7.5t30.5 20.5t20.5 30.5t7.5 36.5v307h96v-135q0 -14 2.5 -23.5t5.5 -14.5q3 -7 7 -10l146 158q30 32 72 50.5t88 18.5h61q32 0 60.5 -12.5t50 -33.5t34 -49.5t12.5 -60.5v-60q0 -24 16 -40t40 -16h34
q5 0 9.5 -4.5t4.5 -10.5v-85q0 -14 -14 -14h-18q-73 0 -120 53q-23 -25 -53.5 -39t-66.5 -14h-250q-28 0 -63.5 7.5t-58.5 31.5v-36q0 -37 -15.5 -69.5t-42 -56.5t-61.5 -37.5t-74 -13.5h-173q-45 0 -84.5 17t-68.5 46t-46 68.5t-17 84.5v284h96zM748 114h289q22 0 37.5 15
t15.5 38v55q0 23 -16 39t-39 16h-79q-54 0 -93 -41zM907 591h105v-105h-105v105z" />
    <glyph glyph-name="uniFEBF" unicode="&#x636;" horiz-adv-x="794" arabic-form="initial" 
d="M-14 15v84q0 6 4.5 10.5t9.5 4.5h51q23 0 39.5 16.5t16.5 39.5v156h96v-118q0 -29 7.5 -38t7.5 -10l146 158q30 33 72 51t87 18h62q32 0 60.5 -12.5t49.5 -33.5t33.5 -49.5t12.5 -60.5v-63q0 -35 -13 -65.5t-36 -53.5t-53 -36t-65 -13h-298q-36 0 -69 15t-53 47
q-23 -32 -54.5 -47t-67.5 -15h-32q-6 0 -10 4.5t-4 10.5zM591 114q23 0 38.5 16t15.5 39v55q0 23 -16 39t-39 16h-80q-55 0 -93 -41l-114 -124h288zM592 592v-105h-105v105h105z" />
    <glyph glyph-name="uniFEC0" unicode="&#x636;" horiz-adv-x="833" arabic-form="medial" 
d="M-14 99q0 6 4.5 10.5t9.5 4.5h50q23 0 39.5 16.5t16.5 39.5v156h96v-121q0 -28 7.5 -36.5t7.5 -9.5l147 159q31 33 72.5 51t86.5 18h62q32 0 60.5 -12.5t49.5 -33.5t33.5 -49.5t12.5 -60.5v-64q0 -22 16.5 -37.5t39.5 -15.5h36q5 0 9.5 -4.5t4.5 -9.5v-85q0 -6 -4 -10.5
t-10 -4.5h-20q-36 0 -66.5 15t-52.5 46q-46 -61 -120 -61h-299q-37 0 -68.5 14.5t-53.5 47.5q-23 -32 -54 -47t-67 -15h-32q-6 0 -10 4.5t-4 10.5v84zM591 114q23 0 38.5 16t15.5 39v54q0 23 -16.5 39t-39.5 16h-78q-27 0 -51.5 -10.5t-42.5 -29.5l-115 -124h289zM487 592
h105v-105h-105v105z" />
    <glyph glyph-name="uniFEC2" unicode="&#x637;" horiz-adv-x="781" arabic-form="final" 
d="M120 114l107 116v446h96v-304q0 -9 -1.5 -18t-3.5 -17q-3 -9 -6 -17q2 1 8 7.5t12 11.5q26 23 61.5 35.5t74.5 12.5h62q33 0 61.5 -12.5t49.5 -33.5t33 -49.5t12 -60.5v-62q0 -23 16.5 -39t39.5 -16h39q14 0 14 -14v-86q0 -14 -14 -14h-22q-36 0 -67 15t-53 46
q-23 -31 -54 -46t-66 -15h-454v114h55zM536 114q23 0 38.5 15.5t15.5 38.5v55q0 23 -16 39t-39 16h-80q-26 0 -50 -10.5t-43 -29.5l-115 -124h289z" />
    <glyph glyph-name="uniFEC3" unicode="&#x637;" horiz-adv-x="685" arabic-form="initial" 
d="M-14 100q0 14 14 14h65l107 115v448h96v-305q0 -9 -1.5 -18t-3.5 -17q-3 -9 -6 -17l16 16q60 51 140 51h62q32 0 60.5 -12t49.5 -33t33.5 -49.5t12.5 -61.5v-63q0 -35 -13 -65.5t-36 -53.5t-53 -36t-65 -13h-464q-6 0 -10 4.5t-4 9.5v86zM481 114q23 0 38.5 16t15.5 38
v55q0 23 -16 39t-39 16h-80q-26 0 -50 -10.5t-43 -29.5l-114 -124h288z" />
    <glyph glyph-name="uniFEC4" unicode="&#x637;" horiz-adv-x="726" arabic-form="medial" 
d="M-14 100q0 14 14 14h65l107 116v446h96v-304q0 -9 -1.5 -18t-3.5 -17q-3 -9 -6 -17q2 1 8 7.5t12 11.5q26 23 61.5 35.5t74.5 12.5h62q33 0 61.5 -12.5t49.5 -33.5t33 -49.5t12 -60.5v-62q0 -23 16.5 -39t39.5 -16h39q14 0 14 -14v-86q0 -14 -14 -14h-22q-36 0 -67 15
t-53 47q-23 -32 -54 -47t-66 -15h-464q-6 0 -10 4.5t-4 10.5v85zM481 114q23 0 38.5 15.5t15.5 38.5v55q0 23 -16 39t-39 16h-80q-26 0 -50 -10.5t-43 -29.5l-115 -124h289z" />
    <glyph glyph-name="uniFEC6" unicode="&#x638;" horiz-adv-x="781" arabic-form="final" 
d="M65 114h55l107 116v446h96v-304q0 -9 -1.5 -18t-3.5 -17q-3 -9 -6 -17q2 1 8 7.5t12 11.5q26 23 61.5 35.5t74.5 12.5h62q33 0 61.5 -12.5t49.5 -33.5t33 -49.5t12 -60.5v-62q0 -23 16.5 -39t39.5 -16h39q14 0 14 -14v-86q0 -14 -14 -14h-22q-36 0 -67 15t-53 46
q-23 -31 -54 -46t-66 -15h-454v114zM247 114h289q23 0 38.5 15.5t15.5 38.5v55q0 23 -16 39t-39 16h-80q-26 0 -50 -10.5t-43 -29.5zM422 592h105v-105h-105v105z" />
    <glyph glyph-name="uniFEC7" unicode="&#x638;" horiz-adv-x="685" arabic-form="initial" 
d="M-14 14v86q0 14 14 14h65l107 115v448h96v-305q0 -9 -1.5 -18t-3.5 -17q-3 -9 -6 -17l16 16q60 51 140 51h62q32 0 60.5 -12t49.5 -33t33.5 -49.5t12.5 -61.5v-63q0 -35 -13 -65.5t-36 -53.5t-53 -36t-65 -13h-464q-6 0 -10 4.5t-4 9.5zM481 114q23 0 38.5 16t15.5 38v55
q0 23 -16 39t-39 16h-80q-26 0 -50 -10.5t-43 -29.5l-114 -124h288zM480 592v-105h-105v105h105z" />
    <glyph glyph-name="uniFEC8" unicode="&#x638;" horiz-adv-x="726" arabic-form="medial" 
d="M-14 15v85q0 14 14 14h65l107 116v446h96v-304q0 -9 -1.5 -18t-3.5 -17q-3 -9 -6 -17q2 1 8 7.5t12 11.5q26 23 61.5 35.5t74.5 12.5h62q33 0 61.5 -12.5t49.5 -33.5t33 -49.5t12 -60.5v-62q0 -23 16.5 -39t39.5 -16h39q14 0 14 -14v-86q0 -14 -14 -14h-22q-36 0 -67 15
t-53 47q-23 -32 -54 -47t-66 -15h-464q-6 0 -10 4.5t-4 10.5zM481 114q23 0 38.5 15.5t15.5 38.5v55q0 23 -16 39t-39 16h-80q-26 0 -50 -10.5t-43 -29.5l-115 -124h289zM480 591v-105h-105v105h105z" />
    <glyph glyph-name="uniFECA" unicode="&#x639;" horiz-adv-x="616" arabic-form="final" 
d="M89 -37q24 50 69 82l71 54l-129 89v134q0 44 26 70.5t71 26.5h185q30 0 57 -11.5t46.5 -31t31 -46t11.5 -56.5v-26q0 -25 -12 -49t-34 -40l-53 -36q15 -5 32 -7t34 -2h121q6 0 10 -4.5t4 -9.5v-87q0 -5 -4 -9t-10 -4h-121q-94 0 -180 43l-89 -64q-28 -19 -42.5 -49
t-14.5 -65q0 -31 12 -58t33 -47.5t48.5 -32t58.5 -11.5h253v-114h-252q-53 0 -100 20.5t-82 55t-55 81t-20 98.5q0 57 24 106zM195 310v-63l127 -81l110 74v23q0 20 -15 33.5t-35 13.5h-187z" />
    <glyph glyph-name="uniFECB" unicode="&#x639;" horiz-adv-x="487" arabic-form="initial" 
d="M-11 110q4 4 11 4h107q-10 16 -13 30l-21 108q-2 14 -2 27q0 19 7 44t27.5 49t50 38.5t63.5 14.5h170v-109h-175q-22 0 -34 -14.5t-12 -30.5q0 -5 1 -10l29 -144l220 24l16 -104l-162 -21q-59 -8 -117 -12t-115 -4h-40q-12 0 -14 14v86q0 5 3 10z" />
    <glyph glyph-name="uniFECC" unicode="&#x639;" horiz-adv-x="624" arabic-form="medial" 
d="M-14 99q0 6 4 10.5t10 4.5h132q22 0 45.5 2t31.5 5l-100 68v134q0 45 26 71t70 26h188q30 0 56 -11t46 -30.5t31.5 -46t11.5 -56.5v-26q0 -26 -11.5 -50t-33.5 -39l-57 -38q10 -4 32 -6.5t49 -2.5h107q7 0 10.5 -4.5t3.5 -10.5v-85q0 -5 -4.5 -9.5t-9.5 -4.5h-122
q-48 0 -93.5 12t-87.5 34q-42 -22 -87.5 -34t-93.5 -12h-140q-6 0 -10 4.5t-4 9.5v85zM235 229l40 -28q24 -16 51 -35l116 76v23q0 20 -14.5 34t-34.5 14h-189v-64q10 -6 31 -20z" />
    <glyph glyph-name="uniFECE" unicode="&#x63a;" horiz-adv-x="616" arabic-form="final" 
d="M89 -37q24 50 69 82l71 54l-129 89v134q0 44 26 70.5t71 26.5h185q30 0 57 -11.5t46.5 -31t31 -46t11.5 -56.5v-26q0 -25 -12 -49t-34 -40l-53 -36q15 -5 32 -7t34 -2h121q6 0 10 -4.5t4 -9.5v-87q0 -5 -4 -9t-10 -4h-121q-94 0 -180 43l-89 -64q-28 -19 -42.5 -49
t-14.5 -65q0 -31 12 -58t33 -47.5t48.5 -32t58.5 -11.5h253v-114h-252q-53 0 -100 20.5t-82 55t-55 81t-20 98.5q0 57 24 106zM195 310v-63l127 -81l110 74v23q0 20 -15 33.5t-35 13.5h-187zM360 623v-105h-105v105h105z" />
    <glyph glyph-name="uniFECF" unicode="&#x63a;" horiz-adv-x="487" arabic-form="initial" 
d="M-11 110q4 4 11 4h107q-10 16 -13 30l-21 108q-2 14 -2 27q0 19 7 44t27.5 49t50 38.5t63.5 14.5h170v-109h-175q-22 0 -34 -14.5t-12 -30.5q0 -5 1 -10l29 -144l220 24l16 -104l-162 -21q-59 -8 -117 -12t-115 -4h-40q-12 0 -14 14v86q0 5 3 10zM198 511v105h106v-105
h-106z" />
    <glyph glyph-name="uniFED0" unicode="&#x63a;" horiz-adv-x="624" arabic-form="medial" 
d="M-14 99q0 6 4 10.5t10 4.5h135q23 0 46 2t31 5l-101 68v134q0 45 26.5 71t69.5 26h188q30 0 56.5 -11t46.5 -30.5t31.5 -46t11.5 -56.5v-26q0 -26 -12 -50t-33 -39l-57 -38q8 -4 27 -6.5t54 -2.5h104q7 0 10.5 -4.5t3.5 -10.5v-85q0 -5 -4.5 -9.5t-9.5 -4.5h-119
q-48 0 -93.5 12t-87.5 34q-42 -22 -87.5 -34t-93.5 -12h-143q-6 0 -10 4.5t-4 9.5v85zM237 229l92 -63l116 76v23q0 20 -14.5 34t-34.5 14h-189v-64q10 -6 30 -20zM360 626v-104h-104v104h104z" />
    <glyph glyph-name="uniFED2" unicode="&#x641;" horiz-adv-x="939" arabic-form="final" 
d="M161 370v-167q0 -38 25.5 -63.5t63.5 -25.5h315q-20 23 -32 49.5t-12 55.5v29q0 37 15 70t40 58t58 39.5t68 14.5h15q37 0 69 -14t56 -38t38 -56.5t14 -68.5v-34q0 -29 -12 -55.5t-32 -49.5h89q6 0 10 -4.5t4 -10.5v-85q0 -6 -4.5 -10t-9.5 -4h-95q-18 0 -33 1.5
t-30.5 5.5t-32.5 11t-40 19q-22 -12 -39.5 -19t-33 -11t-31 -5.5t-33.5 -1.5h-308q-42 0 -78 15.5t-62.5 42t-42 62t-15.5 76.5v174h96zM618 213q0 -23 25.5 -45.5t64.5 -37.5q39 15 64.5 37.5t25.5 45.5v27q0 34 -23.5 57.5t-58.5 23.5h-17q-34 0 -57.5 -23.5t-23.5 -56.5
v-28zM654 530v105h105v-105h-105z" />
    <glyph glyph-name="uniFED3" unicode="&#x641;" horiz-adv-x="473" arabic-form="initial" 
d="M-14 99q0 6 3.5 10.5t10.5 4.5h265q23 0 40.5 15t17.5 42v19q-12 -5 -25.5 -7.5t-27.5 -2.5h-72q-35 0 -65 15t-50.5 40t-27 50t-6.5 44q0 15 3 30l15 81q5 26 18.5 48.5t33 38.5t43.5 25t50 9h53q32 0 60.5 -12.5t49.5 -33.5t33 -49t12 -60v-235q0 -36 -13.5 -67
t-36.5 -54t-54.5 -36.5t-66.5 -13.5h-249q-7 0 -10.5 4.5t-3.5 10.5v84zM154 309q12 -15 31 -15h139v112q0 19 -13.5 32.5t-33.5 13.5h-72q-17 0 -30 -11t-16 -28l-13 -71q-1 -5 -1 -9q0 -13 9 -24zM192 765h105v-105h-105v105z" />
    <glyph glyph-name="uniFED4" unicode="&#x641;" horiz-adv-x="475" arabic-form="medial" 
d="M-14 14v85q0 6 3.5 10.5t10.5 4.5h96q-20 23 -31.5 49.5t-11.5 55.5v30q0 38 14.5 71t39.5 57.5t57 38.5t67 14h15q37 0 69 -14t56 -38t38 -56.5t14 -69.5v-33q0 -29 -12 -55.5t-32 -49.5h96q6 0 10 -4.5t4 -10.5v-85q0 -5 -4.5 -9.5t-9.5 -4.5h-102q-36 0 -65 7t-71 29
q-21 -11 -38.5 -18t-33 -11t-30.5 -5.5t-33 -1.5h-102q-6 0 -9.5 4.5t-4.5 9.5zM147 240v-26q0 -25 25 -46.5t65 -37.5q39 16 64.5 37.5t25.5 46.5v26q0 34 -24 57.5t-58 23.5h-17q-34 0 -57.5 -23.5t-23.5 -57.5zM184 635h105v-105h-105v105z" />
    <glyph glyph-name="uniFED6" unicode="&#x642;" horiz-adv-x="737" arabic-form="final" 
d="M65 -9v256h96v-241q0 -24 9 -45.5t25 -37.5t37.5 -25t45.5 -9h177q41 0 69 25.5t28 63.5v31q-11 -3 -24.5 -6t-27.5 -3h-74q-35 0 -65 15t-50 39.5t-27 50t-7 44.5q0 15 3 30l15 82q11 52 51.5 85.5t93.5 33.5h54q32 0 60 -12t49 -33t33 -49t12 -60v-112h89q6 0 10 -4.5
t4 -10.5v-85q0 -5 -4 -9.5t-10 -4.5h-89v-32q0 -40 -15 -75t-41.5 -61.5t-61.5 -41.5t-75 -15h-175q-44 0 -83 17t-68.5 46t-46.5 68.5t-17 84.5zM383 129q11 -15 30 -15h139v111q0 19 -13.5 32.5t-33.5 13.5h-71q-17 0 -29.5 -10.5t-16.5 -27.5l-14 -72q-1 -4 -1 -7
q0 -14 10 -25zM590 586v-105h-105v105h105zM433 586v-105h-105v105h105z" />
    <glyph glyph-name="uniFED7" unicode="&#x642;" horiz-adv-x="473" arabic-form="initial" 
d="M-11 110q4 4 11 4h264q24 0 41.5 15.5t17.5 42.5v19q-28 -10 -53 -10h-72q-36 0 -66 15t-50 40t-27 50.5t-7 44.5q0 14 3 29l16 81q10 53 50.5 87t94.5 34h53q32 0 60 -12.5t49 -33.5t33 -49t12 -60v-235q0 -36 -13.5 -67t-36.5 -54.5t-54 -37t-66 -13.5h-249
q-14 0 -14 14v86q0 5 3 10zM154 310q12 -15 31 -15h138v112q0 19 -13 32.5t-33 13.5h-72q-17 0 -30 -11t-16 -28l-13 -71q-1 -5 -1 -9q0 -13 9 -24zM261 764h105v-105h-105v105zM209 764v-105h-105v105h105z" />
    <glyph glyph-name="uniFED8" unicode="&#x642;" horiz-adv-x="475" arabic-form="medial" 
d="M-14 14v85q0 6 3.5 10.5t10.5 4.5h96q-20 23 -31.5 49.5t-11.5 55.5v30q0 38 14.5 71t39.5 57.5t57 38.5t67 14h15q37 0 69 -14t56 -38t38 -56.5t14 -69.5v-33q0 -29 -12 -55.5t-32 -49.5h96q6 0 10 -4.5t4 -10.5v-85q0 -5 -4.5 -9.5t-9.5 -4.5h-102q-36 0 -65 7t-71 29
q-21 -11 -38.5 -18t-33 -11t-30.5 -5.5t-33 -1.5h-102q-6 0 -9.5 4.5t-4.5 9.5zM147 240v-26q0 -25 25 -46.5t65 -37.5q39 16 64.5 37.5t25.5 46.5v26q0 34 -24 57.5t-58 23.5h-17q-34 0 -57.5 -23.5t-23.5 -57.5zM262 530v105h105v-105h-105zM210 635v-105h-105v105h105z
" />
    <glyph glyph-name="uniFEDA" unicode="&#x643;" horiz-adv-x="896" arabic-form="final" 
d="M161 369v-164q0 -38 26.5 -64.5t64.5 -26.5h406q23 0 40 16.5t17 39.5v529h96v-529q0 -24 16.5 -40t39.5 -16h29q14 0 14 -14v-86q0 -14 -14 -14h-12q-37 0 -68 14t-53 40q-23 -26 -55 -40t-68 -14h-379q-40 0 -76 15.5t-62.5 41.5t-42 62t-15.5 76v174h96zM359 402
q-13 0 -20 13q-2 3 -7 12.5t-9 17.5q-10 21 -10 42t7.5 39t21.5 32.5t32 21.5l79 32l30 -72l-78 -32q-10 -5 -13 -12.5t-3 -12.5q0 -6 3 -13q2 -4 9.5 -18t12.5 -23l120 64l33 -68l-248 -127l-34 71z" />
    <glyph glyph-name="uniFEDB" unicode="&#x643;" horiz-adv-x="398" arabic-form="initial" 
d="M-10 110q5 4 10 4h136q30 0 52.5 15t34 36.5t11.5 46.5q0 3 -1 18.5t-21 42.5l-168 227v72l329 167l43 -86l-272 -138l147 -188q40 -51 41.5 -82.5t1.5 -37.5q0 -50 -23.5 -96.5t-72.5 -78.5t-112 -32h-126q-14 0 -14 14v86q0 6 4 10z" />
    <glyph glyph-name="uniFEDC" unicode="&#x643;" horiz-adv-x="513" arabic-form="medial" 
d="M-10 110q5 4 10 4h136q30 0 53 15t33.5 37t10.5 45q0 4 -1 20t-20 42l-168 227v72l329 167l43 -86l-272 -138l274 -358q15 -20 36.5 -31.5t46.5 -11.5h12q5 0 9.5 -4.5t4.5 -10.5v-85q0 -6 -4.5 -10t-9.5 -4h-8q-42 0 -77.5 19t-61.5 56l-47 66q-9 -31 -27.5 -57
t-44 -44.5t-56.5 -29t-65 -10.5h-126q-14 0 -14 14v86q0 6 4 10z" />
    <glyph glyph-name="uniFEDE" unicode="&#x644;" horiz-adv-x="764" arabic-form="final" 
d="M65 297h96v-241q0 -24 9.5 -45.5t25 -37.5t37 -25t45.5 -9h178q20 0 37.5 7.5t31 20.5t21 30.5t7.5 37.5v641h96v-507q0 -23 16.5 -39t39.5 -16h59q5 0 9.5 -4.5t4.5 -9.5v-86q0 -14 -14 -14h-42q-23 0 -41 7t-33 27v-25q0 -32 -13.5 -64.5t-39 -59t-61 -43.5t-79.5 -17
h-174q-45 0 -84 17t-68.5 46.5t-46.5 69t-17 84.5v255z" />
    <glyph glyph-name="uniFEDF" unicode="&#x644;" horiz-adv-x="268" arabic-form="initial" 
d="M-14 14v86q0 14 14 14h61q24 0 40.5 16.5t16.5 39.5v506h96v-506q0 -35 -13.5 -66t-36.5 -54t-54 -36.5t-66 -13.5h-44q-5 0 -9.5 4t-4.5 10z" />
    <glyph glyph-name="uniFEE0" unicode="&#x644;" horiz-adv-x="333" arabic-form="medial" 
d="M0 114h63q24 0 40.5 17t16.5 40v506h96v-511q2 -22 18 -37t38 -15h61q5 0 9.5 -4t4.5 -10v-86q0 -6 -4.5 -10t-9.5 -4h-45q-35 0 -66 14t-54 39q-23 -25 -54.5 -39t-67.5 -14h-46q-14 0 -14 14v86q0 14 14 14z" />
    <glyph glyph-name="uniFEE2" unicode="&#x645;" horiz-adv-x="743" arabic-form="final" 
d="M65 216q0 36 13.5 67t37 54t54.5 36.5t66 13.5h232q33 0 61.5 -12.5t49.5 -33.5t33.5 -49.5t12.5 -60.5v-60q0 -24 16.5 -40.5t39.5 -16.5h62q14 0 14 -14v-86q0 -14 -14 -14h-46q-29 0 -56 10.5t-48 34.5q-14 -26 -34 -35.5t-45 -9.5h-119q-35 0 -64.5 14.5t-49.5 39
t-26.5 50t-6.5 44.5q0 14 2 28l19 102h-52q-23 0 -39.5 -17t-16.5 -40v-475h-96v470zM353 128q11 -14 31 -14h145v118q0 20 -14 33t-34 13h-114l-22 -118q-1 -4 -1 -8q0 -13 9 -24z" />
    <glyph glyph-name="uniFEE3" unicode="&#x645;" horiz-adv-x="524" arabic-form="initial" 
d="M-14 100q0 14 14 14h32q23 0 40 14t22 37l20 103q5 26 18 48t32.5 37.5t43.5 24.5t51 9h56q32 0 60.5 -12t49.5 -33t33.5 -49.5t12.5 -60.5v-120q0 -48 -31.5 -80t-79.5 -32h-118q-31 0 -58 14t-47 46q-21 -32 -50 -46t-61 -14h-26q-6 0 -10 4.5t-4 10.5v85zM199 129
q12 -15 31 -15h145v118q0 20 -13 33.5t-33 13.5h-77q-17 0 -29.5 -10.5t-15.5 -27.5l-16 -80q-1 -4 -1 -9q0 -12 9 -23z" />
    <glyph glyph-name="uniFEE4" unicode="&#x645;" horiz-adv-x="563" arabic-form="medial" 
d="M-14 100q0 14 14 14h32q23 0 40 14t22 37l20 103q5 26 18 48t32.5 37.5t43.5 24.5t51 9h56q32 0 60.5 -12t49.5 -33t33.5 -49.5t12.5 -60.5v-61q0 -23 16.5 -40t39.5 -17h36q5 0 9.5 -4.5t4.5 -9.5v-85q0 -6 -4.5 -10.5t-9.5 -4.5h-19q-30 0 -56.5 11t-47.5 35
q-14 -26 -34.5 -36t-45.5 -10h-118q-31 0 -58 14t-47 47q-21 -33 -50 -47t-61 -14h-26q-6 0 -10 4.5t-4 10.5v85zM199 129q12 -15 31 -15h144v118q0 20 -13 33.5t-33 13.5h-76q-17 0 -29.5 -10.5t-15.5 -27.5l-16 -80q-1 -4 -1 -9q0 -12 9 -23z" />
    <glyph glyph-name="uniFEE6" unicode="&#x646;" horiz-adv-x="766" arabic-form="final" 
d="M66 41v284h96v-270q0 -24 9 -45.5t25 -37t37.5 -25t45.5 -9.5h178q40 0 68 28t28 69v306h96v-170q0 -27 17.5 -42t40.5 -15h59q6 0 10 -4.5t4 -10.5v-85q0 -5 -4 -9.5t-10 -4.5h-46q-32 0 -48.5 12t-23.5 22v-30q0 -38 -15.5 -70.5t-42 -57t-61.5 -38.5t-74 -14h-173
q-45 0 -84.5 17t-68.5 46.5t-46 69t-17 84.5zM410 447v-105h-105v105h105z" />
    <glyph glyph-name="uniFEE7" unicode="&#x646;" horiz-adv-x="361" arabic-form="initial" 
d="M-14 99q0 6 4 10.5t10 4.5h154q23 0 39.5 16.5t16.5 40.5v199h96v-199q0 -36 -13.5 -67t-36.5 -54t-54 -36.5t-66 -13.5h-136q-6 0 -10 4.5t-4 9.5v85zM203 575h105v-105h-105v105z" />
    <glyph glyph-name="uniFEE8" unicode="&#x646;" horiz-adv-x="365" arabic-form="medial" 
d="M-10 110q4 4 10 4h79q23 0 40 14t22 36l35 173l94 -17l-28 -144q-1 -6 -1 -12q0 -17 14 -33.5t40 -16.5h70q6 0 10 -4.5t4 -10.5v-85q0 -14 -14 -14h-71q-16 0 -33 5t-32 13t-26 19t-16 24q-16 -26 -49 -43.5t-67 -17.5h-71q-14 0 -14 14v85q0 6 4 11zM146 543h105v-105
h-105v105z" />
    <glyph glyph-name="uniFEEA" unicode="&#x647;" horiz-adv-x="522" arabic-form="final" 
d="M65 191v64q0 31 9.5 58.5t27 50t41.5 38.5t52 23l135 33v77h96v-359q0 -25 20 -43.5t46 -18.5h30q5 0 9.5 -4t4.5 -10v-86q0 -6 -4.5 -10t-9.5 -4h-30q-49 0 -85.5 25t-57.5 66q-11 -8 -27.5 -12t-30.5 -4h-110q-51 0 -83.5 32.5t-32.5 83.5zM161 249v-60h169v166
l-110 -28q-26 -6 -42.5 -28.5t-16.5 -49.5z" />
    <glyph glyph-name="uniFEEB" unicode="&#x647;" horiz-adv-x="731" arabic-form="initial" 
d="M-14 14v86q0 14 14 14h96q-12 7 -13.5 22t-1.5 22q0 14 3 27l14 68q11 52 50.5 85t92.5 33h40q32 0 60 -12t48.5 -32.5t32.5 -48t12 -59.5v-62q0 -17 -4 -29t-5 -14h156v142q0 26 -14 44t-36 26l-348 108l26 99l339 -105q28 -9 51.5 -25.5t41 -39.5t27 -51t9.5 -59v-138
q0 -50 -32.5 -82.5t-83.5 -32.5h-157v64q-6 -15 -18.5 -27t-28 -20t-31.5 -12.5t-28 -4.5h-298q-14 0 -14 14zM185 128q12 -14 30 -14h123v112q0 19 -13.5 32t-32.5 13h-58q-17 0 -29.5 -10.5t-15.5 -27.5l-13 -74q-1 -4 -1 -8q0 -13 10 -23z" />
    <glyph glyph-name="uniFEEC" unicode="&#x647;" horiz-adv-x="599" arabic-form="medial" 
d="M170 -157q-48 11 -75 54t-27 103h-68q-6 0 -10 4.5t-4 10.5v85q0 14 14 14h67v108q0 32 12 60t33 49t49 33t61 12h40q53 0 93.5 -33.5t51.5 -85.5l15 -78q3 -15 3 -29q0 -19 -7 -44.5t-27.5 -50.5t-50.5 -40t-65 -15h-58q-15 0 -28 2.5t-26 7.5v-9q0 -29 12.5 -50.5
t42.5 -27.5l108 -20l94 125q31 41 73 63.5t93 22.5h13q5 0 9.5 -4t4.5 -10v-85q0 -6 -4 -10.5t-10 -4.5h-30q-52 0 -83 -45q-2 -3 -12 -16t-22.5 -30.5t-27 -37t-27 -36.5t-21 -29t-9.5 -13zM163 114h126q19 0 29.5 12.5t10.5 26.5q0 4 -1 9l-13 67q-3 17 -16 28t-30 11h-60
q-19 0 -32.5 -13.5t-13.5 -32.5v-108z" />
    <glyph glyph-name="uniFEEE" unicode="&#x648;" horiz-adv-x="505" arabic-form="final" 
d="M58 177l17 91q5 26 18.5 48t33 38t43.5 25t50 9h56q33 0 61.5 -12.5t49.5 -33.5t33 -49.5t12 -61.5v-117h73q14 0 14 -14v-86q0 -14 -14 -14h-74v-13q-2 -33 -14.5 -64t-33.5 -57t-49 -45.5t-62 -31.5l-130 -44l-30 93l134 44q40 14 64.5 45t24.5 73v11q-11 -5 -25 -8
t-28 -3h-79q-35 0 -64.5 15t-49.5 39.5t-26.5 50t-6.5 44.5q0 14 2 28zM161 129q12 -15 30 -15h145v118q0 20 -13.5 33.5t-33.5 13.5h-75q-17 0 -29.5 -10.5t-16.5 -27.5l-15 -80q-1 -4 -1 -9q0 -12 9 -23z" />
    <glyph glyph-name="uniFEF0" unicode="&#x649;" horiz-adv-x="743" arabic-form="final" 
d="M65 -19v256h96v-241q0 -24 9.5 -45.5t25.5 -37.5t37.5 -25t45.5 -9h182q38 0 65 26.5t27 64.5v30h-193v114h383q14 0 14 -14v-85q0 -6 -4 -10.5t-10 -4.5h-98q1 -2 2.5 -7.5t1.5 -13.5v-22q0 -41 -15.5 -76t-42 -60.5t-62.5 -40.5t-77 -15h-171q-45 0 -84 17t-68.5 46.5
t-46.5 68.5t-17 84z" />
    <glyph glyph-name="uniFEF2" unicode="&#x64a;" horiz-adv-x="743" arabic-form="final" 
d="M65 -19v256h96v-241q0 -24 9.5 -45.5t25.5 -37.5t37.5 -25t45.5 -9h182q38 0 65 26.5t27 64.5v30h-193v114h383q14 0 14 -14v-85q0 -6 -4 -10.5t-10 -4.5h-98q1 -2 2.5 -7.5t1.5 -13.5v-22q0 -41 -15.5 -76t-42 -60.5t-62.5 -40.5t-77 -15h-171q-45 0 -84 17t-68.5 46.5
t-46.5 68.5t-17 84zM383 -425v105h104v-105h-104zM227 -320h104v-105h-104v105z" />
    <glyph glyph-name="uniFEF3" unicode="&#x64a;" horiz-adv-x="420" arabic-form="initial" 
d="M-14 99q0 6 4 10.5t10 4.5h214q23 0 39.5 16.5t16.5 40.5v199h96v-199q0 -36 -13.5 -67t-36.5 -54t-54 -36.5t-66 -13.5h-196q-6 0 -10 4.5t-4 9.5v85zM166 -225v105h105v-105h-105zM10 -120h104v-105h-104v105z" />
    <glyph glyph-name="uniFEF4" unicode="&#x64a;" horiz-adv-x="365" arabic-form="medial" 
d="M-10 110q4 4 10 4h79q23 0 40 14t22 36l35 173l94 -17l-28 -144q-1 -6 -1 -12q0 -17 14 -33.5t40 -16.5h70q6 0 10 -4.5t4 -10.5v-85q0 -14 -14 -14h-71q-16 0 -33 5t-32 13t-26 19t-16 24q-16 -26 -49 -43.5t-67 -17.5h-71q-14 0 -14 14v85q0 6 4 11zM316 -120v-105
h-105v105h105zM159 -120v-105h-104v105h104z" />
    <glyph glyph-name=".notdef" horiz-adv-x="250" 
 />
    <glyph glyph-name=".null" 
 />
    <glyph glyph-name=".null" 
 />
    <glyph glyph-name="uni000D" unicode="&#xd;" horiz-adv-x="250" 
 />
    <glyph glyph-name="space" unicode=" " horiz-adv-x="110" 
 />
    <glyph glyph-name="exclam" unicode="!" horiz-adv-x="256" 
d="M73 0v127h110v-127h-110zM76 244l-11 440h126l-12 -440h-103z" />
    <glyph glyph-name="quotedbl" unicode="&#x22;" horiz-adv-x="399" 
d="M54 449l-4 235h113l-6 -235h-103zM240 449l-4 235h113l-6 -235h-103z" />
    <glyph glyph-name="numbersign" unicode="#" horiz-adv-x="654" 
d="M65 156v98h101v144h-101v98h101v166h102v-166h118v166h102v-166h101v-98h-101v-144h101v-98h-101v-156h-102v156h-118v-156h-102v156h-101zM268 254h118v144h-118v-144z" />
    <glyph glyph-name="dollar" unicode="$" horiz-adv-x="578" 
d="M65 482q1 31 9 65t33 62t71.5 46t124.5 18l18 134h66l-18 -139q29 -3 65.5 -8.5t63.5 -11.5l-9 -94q-11 1 -30 3t-39 3.5t-37.5 3t-26.5 2.5l-24 -183q44 -13 77.5 -27t56.5 -34t35 -49.5t12 -74.5q0 -103 -59.5 -157t-165.5 -54h-5l-14 -115q-66 3 -66 7l14 112
q-32 5 -72 12t-72 13l12 92q11 -1 32 -3.5t43.5 -4.5t42 -4t27.5 -3l25 194q-39 11 -74 25.5t-61 37t-40.5 53.5t-14.5 73v6zM202 439q19 -18 68 -34l20 163q-50 -2 -78.5 -18t-29.5 -61q0 -33 20 -50zM372 119q24 24 24 67q0 34 -17.5 50t-60.5 32l-21 -176q51 2 75 27z
" />
    <glyph glyph-name="percent" unicode="%" horiz-adv-x="604" 
d="M328 134q0 142 118 142t118 -142q0 -146 -118 -146t-118 146zM157 672q118 0 118 -143q0 -145 -118 -145q-117 0 -117 145q0 143 117 143zM381 694l66 -23l-225 -699l-66 21zM408 134q0 -74 38 -74t38 73q0 72 -38 72t-38 -71zM157 456q38 0 38 73q0 71 -38 71
q-37 0 -37 -71q0 -73 37 -73z" />
    <glyph glyph-name="ampersand" unicode="&#x26;" horiz-adv-x="768" 
d="M100 326q34 46 111 74q-36 42 -49.5 74.5t-13.5 70.5q0 82 51 123t146 41q94 0 144 -40t50 -116q0 -36 -11.5 -65.5t-31 -54t-45 -44.5t-54.5 -37l113 -113q4 11 7.5 29t6.5 37.5t5 39t3 32.5l113 -3q-15 -120 -49 -204l117 -105l-67 -76l-111 95q-42 -49 -94 -72.5
t-130 -23.5q-125 0 -185.5 53.5t-60.5 159.5q0 79 35 125zM313 94q48 0 86.5 14t56.5 40l-184 183q-45 -18 -66.5 -47.5t-21.5 -75.5q0 -114 129 -114zM266 544q0 -17 6.5 -35t16 -34.5t21 -31t21.5 -24.5q16 8 32 20.5t28.5 28.5t20.5 35t8 40q0 31 -19 48t-57 17
q-39 0 -58.5 -17.5t-19.5 -46.5z" />
    <glyph glyph-name="quotesingle" unicode="'" horiz-adv-x="213" 
d="M54 449l-4 235h113l-6 -235h-103z" />
    <glyph glyph-name="parenleft" unicode="(" horiz-adv-x="329" 
d="M65 302q0 51 8.5 109t23.5 116.5t35.5 115.5t44.5 107h112q-16 -40 -32.5 -98.5t-30.5 -121.5t-23 -124t-9 -107q0 -88 25 -197t70 -227h-112q-23 40 -43.5 94.5t-35.5 113t-24 116t-9 103.5z" />
    <glyph glyph-name="parenright" unicode=")" horiz-adv-x="329" 
d="M40 -125q45 118 70 227t25 197q0 46 -9 107t-23 124t-30.5 121.5t-32.5 98.5h111q25 -50 45.5 -107t35.5 -115.5t23.5 -116.5t8.5 -109q0 -46 -9 -103.5t-24 -116t-35.5 -113t-44.5 -94.5h-111z" />
    <glyph glyph-name="asterisk" unicode="*" horiz-adv-x="566" 
d="M65 396l74 74l145 -143l143 143l74 -74l-143 -143l143 -145l-74 -74l-143 145l-145 -145l-74 74l144 145z" />
    <glyph glyph-name="plus" unicode="+" horiz-adv-x="587" 
d="M240 304v175h105v-175h177v-105h-177v-178h-105v178h-175v105h175z" />
    <glyph glyph-name="comma" unicode="," horiz-adv-x="272" 
d="M65 29q0 15 5.5 36t9.5 32l43 129l64 -23l-42 -125l62 -24l-38 -109q-14 5 -28 10.5t-25 11.5q-18 10 -34 24.5t-17 37.5z" />
    <glyph glyph-name="hyphen" unicode="-" horiz-adv-x="428" 
d="M65 215v107h298v-107h-298z" />
    <glyph glyph-name="period" unicode="." horiz-adv-x="255" 
d="M73 0v127h110v-127h-110z" />
    <glyph glyph-name="slash" unicode="/" horiz-adv-x="455" 
d="M136 -28l-103 37l286 706l103 -37z" />
    <glyph glyph-name="zero" unicode="0" horiz-adv-x="593" 
d="M45 332q0 90 15.5 155t46.5 106t78.5 60.5t110.5 19.5q64 0 111 -19.5t78.5 -60.5t47 -106t15.5 -155q0 -91 -15.5 -155.5t-46.5 -106t-78.5 -61t-110.5 -19.5q-64 0 -111 19.5t-78.5 61t-47 106t-15.5 155.5zM169 332q0 -66 7 -111.5t22.5 -73t40 -40t58.5 -12.5
t58 12.5t39.5 40t22.5 73t7 111.5t-7 111t-22.5 72.5t-39.5 40t-58 12.5t-58.5 -12.5t-40 -40t-22.5 -72.5t-7 -111z" />
    <glyph glyph-name="one" unicode="1" horiz-adv-x="439" 
d="M253 0v524l-150 -97l-55 90l215 143h111v-660h-121z" />
    <glyph glyph-name="two" unicode="2" horiz-adv-x="551" 
d="M63 104l156 160l79 85q26 31 40 61t14 65q0 48 -26 69t-81 21q-33 0 -69.5 -3.5t-77.5 -9.5l-24 -4l-7 94q96 30 199 30q210 0 210 -187q0 -53 -16 -92q-14 -36 -45 -73t-84 -87l-133 -126h291v-107h-426v104z" />
    <glyph glyph-name="three" unicode="3" horiz-adv-x="563" 
d="M70 113q109 -20 173 -20q65 0 99 23t34 74q0 46 -28 71t-79 25h-133v101h133q36 0 65 26t29 78q0 39 -27.5 57.5t-89.5 18.5q-28 0 -63.5 -4t-79.5 -11l-26 -4l-8 90q46 17 96 25.5t104 8.5q115 0 166.5 -42t51.5 -134q0 -101 -83 -152q27 -13 45 -26t29.5 -29.5
t16.5 -38.5t5 -54q0 -106 -53.5 -157t-172.5 -51q-38 0 -83.5 6t-96.5 19l-31 8z" />
    <glyph glyph-name="four" unicode="4" horiz-adv-x="561" 
d="M210 660h132l-181 -440h171v191h120v-191h69v-105h-69v-115h-120v115h-292v92z" />
    <glyph glyph-name="five" unicode="5" horiz-adv-x="579" 
d="M63 24l13 90q58 -11 108 -15.5t92 -4.5q57 0 87 30.5t30 87.5q0 102 -100 102q-31 0 -56 -5.5t-43 -12.5t-28 -13t-11 -7l-76 15l18 369h398v-105h-303l-17 -165q33 15 66.5 22.5t71.5 7.5q100 0 152 -49.5t52 -151.5q0 -110 -58 -170t-164 -60q-22 0 -47.5 2t-51.5 6
t-51.5 8.5t-46.5 9.5z" />
    <glyph glyph-name="six" unicode="6" horiz-adv-x="612" 
d="M131 588q68 84 197 84q48 0 100.5 -8.5t97.5 -17.5l-11 -93q-50 7 -94 10.5t-82 3.5q-151 0 -151 -176q42 13 77.5 21t58.5 8q225 0 225 -206q0 -112 -61.5 -169t-178.5 -57q-123 0 -184.5 86.5t-61.5 252.5q0 177 68 261zM187 289q0 -97 31 -146.5t94 -49.5q55 0 84 30
t29 86q0 107 -106 107q-15 0 -32.5 -2.5t-35.5 -6.5t-34.5 -9t-29.5 -9z" />
    <glyph glyph-name="seven" unicode="7" horiz-adv-x="524" 
d="M241 -12l-112 33l232 501v31h-298v107h418v-140z" />
    <glyph glyph-name="eight" unicode="8" horiz-adv-x="616" 
d="M58 172q0 56 22.5 95.5t68.5 73.5q-43 30 -61.5 65.5t-18.5 85.5q0 48 22.5 82t57 56t76 32t80.5 10q43 0 86.5 -11t78 -33t56.5 -56t22 -81q0 -27 -4 -47.5t-14 -38t-26 -33t-39 -31.5q47 -32 70 -68.5t23 -91.5q0 -97 -66 -145t-191 -48q-243 0 -243 184zM186 192
q0 -95 122 -95q121 0 121 95q0 37 -18.5 58t-56.5 34h-94q-74 -24 -74 -92zM197 479q0 -31 15.5 -53t47.5 -39h94q34 17 49.5 39.5t15.5 53.5q0 83 -111 83q-56 0 -83.5 -21.5t-27.5 -62.5z" />
    <glyph glyph-name="nine" unicode="9" horiz-adv-x="582" 
d="M60 446q0 108 64 167t179 59q120 0 182 -87.5t62 -258.5q0 -176 -68 -257t-204 -81q-38 0 -78.5 6t-84.5 14l-29 6l10 93q51 -7 96 -10.5t87 -3.5q146 0 146 182q-51 -17 -82.5 -24.5t-57.5 -7.5q-109 0 -165.5 51.5t-56.5 151.5zM292 348q26 0 54 5.5t58 14.5l19 6
q0 193 -127 193q-53 0 -82.5 -30.5t-29.5 -85.5q0 -103 108 -103z" />
    <glyph glyph-name="colon" unicode=":" horiz-adv-x="252" 
d="M73 0v127h110v-127h-110zM73 323v127h110v-127h-110z" />
    <glyph glyph-name="semicolon" unicode=";" horiz-adv-x="271" 
d="M102 174q14 -5 28.5 -10.5t25.5 -10.5q18 -11 33.5 -28.5t15.5 -36.5q0 -13 -5 -33.5t-9 -31.5l-44 -128l-62 22l42 127l-62 23zM76 441h109v-125h-109v125z" />
    <glyph glyph-name="less" unicode="&#x3c;" horiz-adv-x="489" 
d="M40 203v97l409 189v-120l-284 -115l284 -124v-119z" />
    <glyph glyph-name="equal" unicode="=" horiz-adv-x="570" 
d="M65 98v106h440v-106h-440zM505 405v-106h-440v106h440z" />
    <glyph glyph-name="greater" unicode="&#x3e;" horiz-adv-x="489" 
d="M449 300v-97l-409 -192v119l284 124l-284 115v120z" />
    <glyph glyph-name="question" unicode="?" horiz-adv-x="474" 
d="M50 662q92 33 178 33q100 -1 148 -37t48 -115v-3q0 -33 -2.5 -58.5t-11.5 -46.5t-25.5 -40t-44.5 -40q-39 -29 -60 -54.5t-21 -55.5v-33h-94q-8 12 -13 26q-5 12 -9.5 27t-4.5 31q0 17 14 36t33.5 38t39 35.5t31.5 27.5q26 23 36.5 42t10.5 47q0 34 -25 51t-79 17
q-49 0 -142 -18zM263 127v-127h-110v127h110z" />
    <glyph glyph-name="at" unicode="@" horiz-adv-x="1029" 
d="M96 462q31 88 90.5 147t145.5 88.5t196 29.5q218 0 327 -111t109 -322q0 -67 -10.5 -122t-33 -93.5t-57.5 -59.5t-85 -21q-97 0 -131 58q-85 -58 -158 -58q-45 0 -78.5 14t-56.5 44t-34.5 77.5t-11.5 115.5q0 132 44.5 192.5t149.5 60.5q21 0 49.5 -8.5t48.5 -17.5v14
h118v-194q0 -58 1 -96.5t6 -61t17 -32t33 -9.5q24 0 38.5 16t22 43t9.5 63t2 77q0 167 -75.5 248t-246.5 81t-257 -92.5t-86 -280.5q0 -88 18 -155t58.5 -112t106 -67.5t160.5 -22.5l144 10l5 -103q-38 -4 -79.5 -6.5t-70.5 -2.5h-15q-218 0 -331 117.5t-113 343.5
q0 119 31 208zM504 102q17 0 43.5 7.5t59.5 23.5q-3 20 -5 51.5t-2 73.5v128q-45 13 -80 13q-28 0 -46 -8t-28.5 -25.5t-15 -46t-4.5 -70.5q0 -147 78 -147z" />
    <glyph glyph-name="A" unicode="A" horiz-adv-x="604" 
d="M188 684h228l167 -684h-116l-35 143h-259l-35 -143h-116zM196 245h213l-82 343h-49z" />
    <glyph glyph-name="B" unicode="B" horiz-adv-x="595" 
d="M329 684q106 0 157 -43.5t51 -139.5q0 -55 -19 -89.5t-61 -60.5q49 -19 72 -57t23 -100q0 -99 -55 -146.5t-161 -47.5h-271v684h264zM183 293v-190h147q54 0 79 21.5t25 70.5q0 98 -106 98h-145zM183 582v-187h143q94 0 94 94q0 48 -23 70.5t-74 22.5h-140z" />
    <glyph glyph-name="C" unicode="C" horiz-adv-x="540" 
d="M55 467q9 62 36.5 112.5t77.5 83t132 32.5q90 0 199 -25l-4 -97q-99 15 -165 15q-52 0 -84 -23t-49.5 -60t-23 -83t-5.5 -91q0 -42 5 -84t21.5 -75.5t49.5 -55t89 -21.5q66 0 162 15l3 -99q-109 -23 -186 -23q-78 0 -129.5 27.5t-82.5 75.5t-43.5 113t-12.5 140
q0 60 10 123z" />
    <glyph glyph-name="D" unicode="D" horiz-adv-x="624" 
d="M300 684q82 0 136 -26.5t85.5 -71.5t44.5 -105.5t13 -129.5q0 -82 -15.5 -147.5t-49 -110.5t-86.5 -69t-128 -24h-235v684h235zM186 105h114q50 0 80.5 23t47 59t22 81.5t5.5 90.5q0 51 -7 92t-24.5 69.5t-47.5 43.5t-76 15h-114v-474z" />
    <glyph glyph-name="E" unicode="E" horiz-adv-x="546" 
d="M501 684v-105h-315v-183h255v-105h-255v-186h315v-105h-435v684h435z" />
    <glyph glyph-name="F" unicode="F" horiz-adv-x="518" 
d="M493 684v-105h-308v-221h255v-105h-255v-253h-120v684h428z" />
    <glyph glyph-name="G" unicode="G" horiz-adv-x="610" 
d="M60 504q14 66 47 108.5t86 62.5t131 20q39 0 87.5 -5t102.5 -16l36 -6l-4 -95q-120 15 -201 15q-56 0 -90.5 -20.5t-53.5 -55t-25.5 -80.5t-6.5 -98q0 -37 4.5 -79.5t21 -78t49 -59t87.5 -23.5q32 0 55.5 1t43.5 6v155h-91v105h211v-349q-142 -24 -223 -24
q-79 0 -133 26.5t-87 74t-47.5 113.5t-14.5 144q0 92 15 158z" />
    <glyph glyph-name="H" unicode="H" horiz-adv-x="652" 
d="M185 684v-288h282v288h120v-684h-120v291h-282v-291h-120v684h120z" />
    <glyph glyph-name="I" unicode="I" horiz-adv-x="250" 
d="M65 0v684h120v-684h-120z" />
    <glyph glyph-name="J" unicode="J" horiz-adv-x="276" 
d="M20 -71v106q23 0 39.5 3.5t27 12.5t15 25t4.5 41v567h120v-575q0 -98 -54.5 -139t-151.5 -41z" />
    <glyph glyph-name="K" unicode="K" horiz-adv-x="570" 
d="M65 684h120v-305l99 8l131 297h137l-163 -343l169 -341h-139l-135 282l-99 -7v-275h-120v684z" />
    <glyph glyph-name="L" unicode="L" horiz-adv-x="473" 
d="M65 0v684h120v-577h265v-107h-385z" />
    <glyph glyph-name="M" unicode="M" horiz-adv-x="828" 
d="M272 684l142 -520l142 520h207v-684h-120v551h-14l-153 -522h-123l-153 522h-15v-551h-120v684h207z" />
    <glyph glyph-name="N" unicode="N" horiz-adv-x="664" 
d="M272 684l194 -579h13v579h120v-684h-202l-200 579h-12v-579h-120v684h207z" />
    <glyph glyph-name="O" unicode="O" horiz-adv-x="649" 
d="M45 339q0 123 27 201t88.5 116.5t164.5 38.5q102 0 163.5 -38.5t88.5 -116.5t27 -202q0 -122 -26 -198t-87 -114t-166 -38q-103 0 -164.5 37.5t-88.5 114t-27 199.5zM169 339q0 -87 12.5 -139.5t46.5 -79t97 -26.5q60 0 94 24t47.5 76.5t13.5 143.5t-14 145.5t-48 80.5
t-93 26q-60 0 -94 -26t-48 -80t-14 -145z" />
    <glyph glyph-name="P" unicode="P" horiz-adv-x="584" 
d="M65 0v684h252q235 0 235 -233q0 -119 -58.5 -181t-176.5 -62h-132v-208h-120zM185 313h131q116 0 116 139q0 66 -27.5 96.5t-88.5 30.5h-131v-266z" />
    <glyph glyph-name="Q" unicode="Q" horiz-adv-x="654" 
d="M65 498q15 67 48 110.5t86.5 65t130.5 21.5t130 -21.5t86 -65t48 -110.5t15 -159q0 -52 -6 -99t-19 -86.5t-33.5 -69.5t-49.5 -50l84 -135l-110 -52l-90 146q-18 -5 -54 -5q-78 0 -132 22t-87 66t-47.5 109.5t-14.5 153.5q0 92 15 159zM174 337q0 -37 3.5 -79.5t18.5 -79
t46.5 -60.5t87.5 -24q46 0 76 14.5t47.5 44.5t24.5 75t7 106q0 62 -7 109.5t-25 80t-48 49.5t-76 17q-45 0 -75 -16t-47.5 -48t-25 -79t-7.5 -110z" />
    <glyph glyph-name="R" unicode="R" horiz-adv-x="608" 
d="M326 684q118 0 176.5 -54.5t58.5 -161.5q0 -145 -108 -201l108 -267h-132l-93 239h-151v-239h-120v684h261zM185 579v-235h143q54 0 82 31t28 87t-28.5 86.5t-83.5 30.5h-141z" />
    <glyph glyph-name="S" unicode="S" horiz-adv-x="553" 
d="M106 646q60 49 176 49q35 0 83 -5.5t129 -19.5l-10 -96q-53 6 -104.5 11t-94.5 5q-60 0 -89.5 -20t-29.5 -56q0 -28 17.5 -47.5t43 -33t54 -22t50.5 -15.5q33 -10 64.5 -24.5t56.5 -37.5t40.5 -56.5t15.5 -80.5q0 -100 -61.5 -154t-173.5 -54q-48 0 -103 8.5t-118 19.5
l13 95q135 -18 204 -18q118 0 118 103q0 39 -34 60t-103 40q-52 14 -90.5 31t-64 40.5t-38 55.5t-12.5 75q0 97 61 147z" />
    <glyph glyph-name="T" unicode="T" horiz-adv-x="525" 
d="M13 684h500v-107h-189v-577h-120v577h-191v107z" />
    <glyph glyph-name="U" unicode="U" horiz-adv-x="633" 
d="M183 684v-462q0 -128 134 -128q133 0 133 128v462h121v-460q0 -121 -63 -178.5t-192 -57.5t-191 57t-62 179v460h120z" />
    <glyph glyph-name="V" unicode="V" horiz-adv-x="605" 
d="M23 684h126l130 -579h48l130 579h126l-165 -684h-231z" />
    <glyph glyph-name="W" unicode="W" horiz-adv-x="918" 
d="M23 684h126l94 -580h19l127 578h140l127 -578h20l93 580h126l-133 -684h-189l-114 539l-114 -539h-189z" />
    <glyph glyph-name="X" unicode="X" horiz-adv-x="587" 
d="M23 0l201 330l-201 354h134l140 -264l142 264h126l-201 -349l201 -335h-134l-140 250l-143 -250h-125z" />
    <glyph glyph-name="Y" unicode="Y" horiz-adv-x="585" 
d="M154 684l139 -287l138 287h134l-211 -404v-280h-121v280l-213 404h134z" />
    <glyph glyph-name="Z" unicode="Z" horiz-adv-x="530" 
d="M490 684v-112l-307 -449v-18h307v-105h-450v110l307 449v20h-307v105h450z" />
    <glyph glyph-name="bracketleft" unicode="[" horiz-adv-x="345" 
d="M305 749v-104h-121v-664h121v-104h-240v872h240z" />
    <glyph glyph-name="backslash" unicode="\" horiz-adv-x="482" 
d="M348 -30l-315 698l100 45l317 -700z" />
    <glyph glyph-name="bracketright" unicode="]" horiz-adv-x="345" 
d="M280 749v-872h-240v104h121v664h-121v104h240z" />
    <glyph glyph-name="asciicircum" unicode="^" horiz-adv-x="565" 
d="M231 660h101l193 -345h-123l-119 231l-120 -231h-123z" />
    <glyph glyph-name="underscore" unicode="_" horiz-adv-x="558" 
d="M65 -179v100h428v-100h-428z" />
    <glyph glyph-name="a" unicode="a" horiz-adv-x="500" 
d="M73 260q39 34 127 41l123 10v35q0 35 -15.5 50.5t-50.5 15.5q-48 0 -95.5 -2.5t-95.5 -7.5l-3 83q54 13 103 20t93 7q96 0 138.5 -40t42.5 -126v-222q2 -23 10.5 -32.5t29.5 -13.5l-4 -90q-49 0 -79 8t-57 29q-80 -37 -156 -37t-113.5 40.5t-37.5 118.5t40 113zM212 85
q20 0 43.5 3.5t49.5 11.5l18 5v124l-109 -10q-64 -6 -64 -71q0 -63 62 -63z" />
    <glyph glyph-name="b" unicode="b" horiz-adv-x="522" 
d="M182 705v-222q39 15 66 22t60 7q50 0 85.5 -14.5t58.5 -46t34 -81t11 -119.5q0 -72 -12.5 -122t-41 -81t-74.5 -45t-112 -14q-47 0 -95.5 4t-96.5 9v703h117zM182 390v-293q20 -2 41 -3t32 -1q35 0 58.5 8.5t38 27.5t21 49t6.5 73q0 86 -22.5 121t-75.5 35q-37 0 -99 -17
z" />
    <glyph glyph-name="c" unicode="c" horiz-adv-x="434" 
d="M45 250q0 131 48 196.5t158 65.5q32 0 67.5 -4.5t89.5 -15.5l-3 -93q-2 0 -17.5 1t-34.5 3l-39 3q-20 1 -29 1q-37 0 -60.5 -8.5t-37 -27t-18.5 -49.5t-5 -76q0 -29 3 -56.5t15 -48.5t37 -34t69 -13l117 8l4 -94q-52 -10 -92 -15t-69 -5q-109 0 -156 62.5t-47 199.5z" />
    <glyph glyph-name="d" unicode="d" horiz-adv-x="547" 
d="M45 244q0 141 48.5 204.5t151.5 63.5q26 0 54.5 -3.5t65.5 -10.5v207h117v-705h-117v24q-41 -20 -72 -28t-64 -8q-98 0 -141 62.5t-43 193.5zM185 129q21 -36 72 -36q20 0 44 4t48 12l16 5v287q-28 6 -51 8.5t-40 2.5q-61 0 -85.5 -37.5t-24.5 -126.5q0 -84 21 -119z" />
    <glyph glyph-name="e" unicode="e" horiz-adv-x="508" 
d="M99 445q53 67 166 67q104 0 157.5 -56t53.5 -165v-8l-9 -74h-304q1 -32 7.5 -54.5t20.5 -36.5t37 -20.5t57 -6.5t71 1t72 5l29 3l2 -87q-57 -13 -105 -19t-89 -6q-118 0 -169 62t-51 190q0 137 54 205zM162 290h197q0 69 -21.5 97t-73.5 28q-54 0 -77.5 -29t-24.5 -96z
" />
    <glyph glyph-name="f" unicode="f" horiz-adv-x="363" 
d="M33 496h56v33q0 54 7.5 90t24 58t44 31t67.5 9l111 -9l-2 -98q-24 1 -42 2q-17 1 -30 1.5t-15 0.5h-2q-24 0 -35 -24t-11 -62v-32h128v-100h-128v-396h-117v396h-56v100z" />
    <glyph glyph-name="g" unicode="g" horiz-adv-x="553" 
d="M64 -27q18 29 55 58q-17 11 -25.5 29.5t-8.5 35.5q0 22 12.5 45.5t24.5 43.5q-71 47 -71 148q0 90 52 133.5t147 43.5q49 0 105 -13l158 5v-95l-80 4q14 -20 19.5 -37t5.5 -45q0 -91 -49.5 -129.5t-151.5 -38.5q-33 0 -48 4q-5 -12 -9 -25t-4 -21q1 -21 27 -28t65 -7
q41 0 80.5 -2t71.5 -15.5t51.5 -43t19.5 -83.5q0 -89 -59 -130.5t-186 -41.5q-111 0 -166 32t-55 105q0 39 19 68zM168 334q0 -83 87 -83q86 0 86 83q0 44 -20.5 64t-65.5 20t-66 -20t-21 -64zM184 -127q24 -12 88 -12h7q60 0 87 17t27 49q0 20 -10.5 32.5t-26 19.5
t-33.5 9.5t-33 2.5h-94q-17 -15 -26.5 -32t-9.5 -38q0 -35 24 -48z" />
    <glyph glyph-name="h" unicode="h" horiz-adv-x="521" 
d="M182 705v-230q39 19 71 28t67 9q95 0 132 -60.5t37 -182.5v-269h-117v267q0 34 -3.5 60t-12.5 44t-25 27t-42 9q-25 0 -55.5 -6.5t-51.5 -13.5v-387h-117v705h117z" />
    <glyph glyph-name="i" unicode="i" horiz-adv-x="212" 
d="M48 0v500h117v-500h-117zM165 707v-121h-117v121h117z" />
    <glyph glyph-name="j" unicode="j" horiz-adv-x="226" 
d="M26 -90q21 21 28.5 44.5t7.5 66.5v479h117v-480q0 -68 -15 -109t-51 -71.5t-109 -67.5l-47 87q48 30 69 51zM179 707v-121h-117v121h117z" />
    <glyph glyph-name="k" unicode="k" horiz-adv-x="508" 
d="M180 705v-405l58 7l112 193h131l-139 -235l146 -265h-131l-115 206l-62 -7v-199h-117v705h117z" />
    <glyph glyph-name="l" unicode="l" horiz-adv-x="242" 
d="M63 0v705h117v-705h-117z" />
    <glyph glyph-name="m" unicode="m" horiz-adv-x="806" 
d="M163 500v-29q38 21 68 31t63 10q38 0 70 -12t52 -36q90 48 177 48q48 0 80 -15.5t51.5 -46.5t28 -76t8.5 -104v-269h-117v265q0 34 -3 60t-12 44t-24.5 27.5t-40.5 9.5q-24 0 -54 -7.5t-53 -16.5q2 -3 4 -35t2 -88v-259h-117v257q0 23 -1 49t-8.5 48t-23.5 37t-45 15
q-11 0 -24.5 -2t-28 -5.5t-28 -7.5t-23.5 -8v-383h-117v499h116z" />
    <glyph glyph-name="n" unicode="n" horiz-adv-x="516" 
d="M163 500v-29q41 23 72 32t66 9q48 0 80.5 -15.5t52.5 -46t28.5 -76t8.5 -104.5v-269h-117v265q0 34 -3.5 60t-12.5 44t-24.5 27.5t-40.5 9.5q-26 0 -57.5 -7.5t-51.5 -15.5v-383h-117v499h116z" />
    <glyph glyph-name="o" unicode="o" horiz-adv-x="526" 
d="M52 359q13 48 40.5 82t70 52.5t100.5 18.5q114 0 169.5 -69.5t55.5 -192.5q0 -61 -13.5 -109.5t-41 -82.5t-70 -52t-100.5 -18q-115 0 -170 68.5t-55 193.5q0 60 14 109zM157 250q0 -80 23 -121t83 -41q58 0 82 40t24 123q0 78 -23 119.5t-83 41.5q-58 0 -82 -40
t-24 -122z" />
    <glyph glyph-name="p" unicode="p" horiz-adv-x="513" 
d="M48 500h116v-29q39 23 68.5 32t62.5 9q95 0 140 -63t45 -201q0 -72 -12 -121.5t-38.5 -80t-68 -44.5t-100.5 -14q-26 0 -49.5 2.5t-46.5 6.5v-211h-117v714zM212 90q21 -2 36 -2q63 0 88.5 36.5t25.5 122.5q0 85 -22.5 122.5t-68.5 37.5q-26 0 -56 -8t-50 -17v-286
q26 -4 47 -6z" />
    <glyph glyph-name="q" unicode="q" horiz-adv-x="519" 
d="M40 250q0 62 13 111t42 83t74 51t108 17h7l188 -13v-713h-117v231q-38 -16 -65.5 -22.5t-59.5 -6.5q-99 0 -144.5 61t-45.5 201zM157 250q0 -85 23.5 -121t77.5 -36q22 0 48.5 5.5t48.5 11.5v297q-17 2 -37 3.5t-30 1.5h-7q-33 0 -57.5 -9t-39.5 -28.5t-21 -50.5t-6 -74z
" />
    <glyph glyph-name="r" unicode="r" horiz-adv-x="352" 
d="M48 500h116v-57q86 53 166 69v-118q-37 -5 -82 -20t-83 -30v-344h-117v500z" />
    <glyph glyph-name="s" unicode="s" horiz-adv-x="469" 
d="M90 473q51 38 142 38q45 0 92.5 -8t92.5 -16l-2 -97q-57 8 -101.5 14.5t-78.5 6.5q-38 0 -59 -11t-21 -39q0 -26 21.5 -38t71.5 -22q33 -7 66 -15.5t59.5 -24t42.5 -41t16 -66.5q0 -85 -48 -125.5t-149 -40.5q-47 0 -95 7.5t-95 15.5l4 99q61 -8 105.5 -15t77.5 -7
q38 0 60.5 11.5t22.5 39.5q0 29 -32.5 44.5t-91.5 28.5q-31 7 -59 16.5t-49 25.5t-33 41t-12 62q0 78 52 116z" />
    <glyph glyph-name="t" unicode="t" horiz-adv-x="368" 
d="M85 500v143h117v-143h133v-100h-133v-218q0 -45 7.5 -67t38.5 -22h5l79 3l6 -94q-39 -8 -62 -11t-45 -3q-42 0 -70 9.5t-45 31.5t-24 58t-7 89v224h-62v100h62z" />
    <glyph glyph-name="u" unicode="u" horiz-adv-x="507" 
d="M45 238v262h117v-263q0 -28 1.5 -54t10 -46t26.5 -32t52 -12q20 0 41.5 5t56.5 18v384h117v-500h-117v30q-41 -23 -72 -32.5t-67 -9.5q-49 0 -81.5 15.5t-51 47t-26 78t-7.5 109.5z" />
    <glyph glyph-name="v" unicode="v" horiz-adv-x="503" 
d="M23 500h122l91 -400h31l94 400h119l-126 -500h-205z" />
    <glyph glyph-name="w" unicode="w" horiz-adv-x="762" 
d="M23 500h115l73 -400h21l89 390h120l89 -390h22l72 400h116l-102 -500h-178l-79 331l-79 -331h-177z" />
    <glyph glyph-name="x" unicode="x" horiz-adv-x="481" 
d="M23 500h125l92 -167l93 167h125l-147 -246l147 -254h-125l-93 165l-92 -165h-125l143 251z" />
    <glyph glyph-name="y" unicode="y" horiz-adv-x="504" 
d="M23 500h115l101 -400h26l101 400h115l-185 -714h-115l58 214h-88z" />
    <glyph glyph-name="z" unicode="z" horiz-adv-x="421" 
d="M396 500v-104l-230 -292h230v-104h-371v104l231 292h-231v104h371z" />
    <glyph glyph-name="braceleft" unicode="{" horiz-adv-x="398" 
d="M40 358q111 25 111 95v4l-7 127v16q0 37 9 67t33 50t63 30t94 12v-99q-49 -4 -67.5 -23t-18.5 -57v-4l7 -127q1 -10 1 -19q0 -20 -4 -38.5t-16.5 -33.5t-34.5 -25t-56 -19q34 -9 56 -20t35 -27.5t17 -36t4 -39.5q0 -9 -1 -19l-7 -117v-8q0 -37 18 -56.5t66 -23.5l-1 -99
q-54 2 -92.5 12.5t-62.5 30.5t-33 49.5t-9 65.5v15l7 121v4q0 73 -111 101v91z" />
    <glyph glyph-name="bar" unicode="|" horiz-adv-x="243" 
d="M64 -213v918h117v-918h-117z" />
    <glyph glyph-name="braceright" unicode="}" horiz-adv-x="399" 
d="M57 759q56 -2 94.5 -12t62.5 -30t33 -50t9 -67v-16l-7 -127v-5q0 -69 110 -94v-91q-110 -28 -110 -100v-5l7 -121v-14q0 -37 -9.5 -66.5t-33.5 -49.5t-62.5 -30.5t-92.5 -12.5v99q47 4 65.5 23.5t18.5 56.5v8l-7 117v12q0 25 3.5 45.5t16 37t34.5 27.5t56 20
q-34 9 -56 19t-34.5 25t-16 35t-3.5 44v12l7 127v7q0 36 -18.5 54.5t-67.5 22.5z" />
    <glyph glyph-name="asciitilde" unicode="~" horiz-adv-x="563" 
d="M64 279q61 52 121 52q29 0 104 -24q37 -12 60.5 -18.5t34.5 -6.5t25 4t28.5 10.5t28.5 13.5t23 13l9 -94q-11 -10 -25.5 -19.5t-30 -16.5t-31 -11.5t-28.5 -4.5q-14 0 -41 6.5t-65 18.5t-62.5 18.5t-33.5 6.5q-10 0 -24.5 -4.5t-29.5 -11t-29.5 -14t-23.5 -12.5z" />
    <glyph glyph-name="exclamdown" unicode="&#xa1;" horiz-adv-x="256" 
d="M65 -184l11 441h103l12 -441h-126zM73 372v127h110v-127h-110z" />
    <glyph glyph-name="cent" unicode="&#xa2;" horiz-adv-x="473" 
d="M90 408q44 53 135 61v106h97v-110l86 -13l-4 -88q-12 1 -31 1.5t-38.5 1t-35.5 1t-24 0.5h-7q-53 0 -78.5 -27.5t-25.5 -92.5q0 -63 26 -89.5t87 -26.5h9l118 4l4 -88q-23 -5 -44 -8t-42 -5v-112h-97l1 108q-93 7 -137 59t-44 158t45 160z" />
    <glyph glyph-name="sterling" unicode="&#xa3;" horiz-adv-x="544" 
d="M141 100v229h-64v99h64v58q0 51 8.5 86.5t27.5 57t49.5 31.5t75.5 10q33 0 73.5 -7t73.5 -15l-3 -92q-38 5 -64.5 7t-52.5 2q-43 0 -58 -26.5t-15 -66.5v-45h158v-99h-158v-229h133l71 16l19 -98l-81 -18h-334v100h77z" />
    <glyph glyph-name="currency" unicode="&#xa4;" horiz-adv-x="614" 
d="M137 162q-22 41 -22 90q0 48 22 89l-72 72l81 81l71 -72q41 22 90 22q46 0 89 -22l72 72l81 -81l-73 -72q23 -44 23 -89q0 -46 -23 -90l73 -71l-81 -81l-72 73q-44 -23 -89 -23q-46 0 -89 23l-72 -73l-81 81zM241 186q28 -28 66 -28q19 0 36.5 7.5t30.5 20.5t20.5 30
t7.5 36t-7.5 36.5t-20.5 30.5t-30.5 20.5t-36.5 7.5t-36.5 -7.5t-30.5 -20.5t-20.5 -30.5t-7.5 -36.5q0 -37 29 -66z" />
    <glyph glyph-name="yen" unicode="&#xa5;" horiz-adv-x="670" 
d="M65 660h134l137 -228l136 228h133l-151 -264h103v-92h-160v-71h160v-90h-160v-143h-120v143h-164v90h164v71h-164v92h105z" />
    <glyph glyph-name="brokenbar" unicode="&#xa6;" horiz-adv-x="243" 
d="M181 166v-379h-117v379h117zM64 333v372h117v-372h-117z" />
    <glyph glyph-name="section" unicode="&#xa7;" horiz-adv-x="551" 
d="M70 259q5 19 13.5 37.5t19.5 34.5t23 26q-44 32 -44 109q0 176 210 176q37 0 85.5 -7t87.5 -15l-6 -95q-55 8 -96 12t-70 4q-54 0 -75.5 -16.5t-21.5 -56.5q0 -30 30.5 -44t93.5 -28q34 -8 64.5 -18.5t53.5 -28t36.5 -42.5t13.5 -62q0 -70 -49 -138q21 -19 30 -42t9 -65
q0 -94 -50.5 -136.5t-158.5 -42.5q-45 0 -92 7t-91 15l11 95q108 -15 163 -15q56 0 81 16.5t25 51.5q0 22 -17 36t-40 23t-47 14t-38 8q-33 8 -62 18.5t-51 28t-34.5 43.5t-12.5 63q0 15 6 34zM182 248q0 -18 3 -29.5t11.5 -19t23 -13t38.5 -10.5q54 -14 92 -28
q9 12 13.5 32t4.5 41v9q-1 28 -17 42t-57 23q-7 2 -19.5 4.5t-26.5 6t-26.5 6.5t-18.5 5q-21 -34 -21 -69z" />
    <glyph glyph-name="copyright" unicode="&#xa9;" horiz-adv-x="672" 
d="M99 578q35 64 97.5 100.5t141.5 36.5q76 0 139 -37q63 -38 97 -102.5t34 -143.5q0 -80 -34 -142q-35 -64 -96.5 -100.5t-139.5 -36.5q-39 0 -73.5 9.5t-66.5 27.5q-63 38 -98.5 102t-35.5 144q0 78 35 142zM121 434q0 -63 28 -113q29 -52 78 -82t109 -30q62 0 110 29
q49 30 77 81.5t28 113.5t-28 114q-29 52 -78 82.5t-109 30.5q-90 0 -153 -66q-62 -68 -62 -160zM225 511q7 31 22 49.5t39.5 27t59.5 8.5q39 0 69 -11l10 -3l-6 -76q-36 6 -64 6t-37 -16t-9 -58q0 -43 9.5 -63t32.5 -20l68 5l6 -73q-29 -16 -86 -16q-65 0 -93 37t-28 127
q0 45 7 76z" />
    <glyph glyph-name="guillemotleft" unicode="&#xab;" horiz-adv-x="563" 
d="M523 445v-119l-113 -80l113 -92v-118l-213 165v86zM40 287l213 158v-119l-113 -80l113 -92v-118l-213 165v86z" />
    <glyph glyph-name="registered" unicode="&#xae;" horiz-adv-x="672" 
d="M99 578q35 64 97.5 100.5t140.5 36.5q77 0 140 -37q62 -38 96.5 -102t34.5 -143q0 -81 -34 -143q-35 -64 -96 -100.5t-139 -36.5q-76 0 -141 37q-63 37 -98.5 101t-35.5 144q0 79 35 143zM149 321q29 -52 78.5 -82t109.5 -30t109 30t77 81.5t28 113.5t-28 114
q-29 52 -78 82t-109 30q-61 0 -110 -31q-50 -31 -77.5 -83t-27.5 -112q0 -63 28 -113zM219 589h128q54 0 84 -24t30 -70q0 -22 -2 -38.5t-7 -28.5t-13 -21.5t-20 -17.5l45 -111h-84l-35 97h-47v-97h-79v311zM340 439q39 0 39 43q0 42 -43 42h-39v-85h43z" />
    <glyph glyph-name="degree" unicode="&#xb0;" horiz-adv-x="425" 
d="M105 655q40 40 106 40q33 0 60 -10.5t47 -30t31 -46.5t11 -60t-11 -60t-31 -46.5t-47 -30t-60 -10.5t-60 10.5t-46.5 30t-30 46.5t-10.5 60q0 66 41 107zM154 489q21 -22 57 -22t58.5 22.5t22.5 58.5t-22.5 58.5t-58.5 22.5t-57.5 -23t-21.5 -58q0 -37 22 -59z" />
    <glyph glyph-name="plusminus" unicode="&#xb1;" horiz-adv-x="588" 
d="M240 390v113h105v-113h177v-105h-177v-108h-105v108h-175v105h175zM65 25v105h457v-105h-457z" />
    <glyph glyph-name="paragraph" unicode="&#xb6;" horiz-adv-x="648" 
d="M64 495q0 41 14 75.5t38.5 59.5t59 39.5t76.5 14.5h330v-100h-46v-584h-101v584h-77v-584h-101v297h-7q-40 0 -74 15.5t-59 42.5t-39 63t-14 77z" />
    <glyph glyph-name="periodcentered" unicode="&#xb7;" horiz-adv-x="255" 
d="M73 209v127h110v-127h-110z" />
    <glyph glyph-name="guillemotright" unicode="&#xbb;" horiz-adv-x="563" 
d="M253 287v-86l-213 -165v118l113 92l-113 80v118zM523 287v-86l-213 -165v118l113 92l-113 80v118z" />
    <glyph glyph-name="questiondown" unicode="&#xbf;" horiz-adv-x="474" 
d="M49 -40q0 33 2.5 58.5t11.5 46.5t25.5 40t44.5 40q39 29 60 54.5t21 55.5v33h94q8 -12 14 -26q5 -12 9 -27t4 -31t-14 -35.5t-33.5 -38.5t-39.5 -35.5t-32 -27.5q-25 -23 -35.5 -42t-10.5 -47q0 -34 25 -51t79 -17q49 0 142 18l7 -90q-46 -17 -91 -25t-87 -8
q-100 1 -148 37t-48 115v3zM320 500v-127h-110v127h110z" />
    <glyph glyph-name="multiply" unicode="&#xd7;" horiz-adv-x="566" 
d="M65 396l74 74l145 -143l143 143l74 -74l-143 -143l143 -145l-74 -74l-143 145l-145 -145l-74 74l144 145z" />
    <glyph glyph-name="divide" unicode="&#xf7;" horiz-adv-x="549" 
d="M484 396v-107h-419v107h419zM216 212h116v-123h-116v123zM216 472v123h116v-123h-116z" />
    <glyph glyph-name="tilde" unicode="&#x2dc;" horiz-adv-x="563" 
d="M64 279q61 52 121 52q29 0 104 -24q37 -12 60.5 -18.5t34.5 -6.5t25 4t28.5 10.5t28.5 13.5t23 13l9 -94q-11 -10 -25.5 -19.5t-30 -16.5t-31 -11.5t-28.5 -4.5q-14 0 -41 6.5t-65 18.5t-62.5 18.5t-33.5 6.5q-10 0 -24.5 -4.5t-29.5 -11t-29.5 -14t-23.5 -12.5z" />
    <glyph glyph-name="uni060C" unicode="&#x60c;" horiz-adv-x="272" 
d="M65 29q0 15 5.5 36t9.5 32l43 129l64 -23l-42 -125l62 -24l-38 -109q-14 5 -28 10.5t-25 11.5q-18 10 -34 24.5t-17 37.5z" />
    <glyph glyph-name="uni060D" unicode="&#x60d;" horiz-adv-x="250" 
d="M134 -111h-94l45 231h128z" />
    <glyph glyph-name="uni061B" unicode="&#x61b;" horiz-adv-x="272" 
d="M63 354q0 12 5.5 31.5t9.5 32.5l44 129l63 -23l-42 -125l62 -24l-38 -108q-13 4 -27.5 9.5t-28.5 13.5q-16 9 -31.5 26.5t-16.5 37.5zM83 127h112v-127h-112v127z" />
    <glyph glyph-name="uni061F" unicode="&#x61f;" horiz-adv-x="474" 
d="M97 660q48 36 148 37q42 0 87 -8t91 -25l-7 -90q-93 18 -142 18q-54 0 -79 -17t-25 -51q0 -29 11.5 -48t34.5 -41q12 -11 32 -27.5t39.5 -35.5t33.5 -38.5t14 -36.5q0 -15 -4 -30t-9 -27q-6 -14 -14 -26h-94v33q0 30 -21 55.5t-60 54.5q-28 21 -44.5 40t-25.5 40
t-11.5 46.5t-2.5 58.5v3q0 79 48 115zM320 129v-127h-110v127h110z" />
    <glyph glyph-name="uni0640" unicode="&#x640;" horiz-adv-x="158" 
d="M0 114h158q14 0 14 -14v-86q0 -14 -14 -14h-158q-14 0 -14 14v86q0 14 14 14z" />
    <glyph glyph-name="uni0653" unicode="&#x653;" 
d="M-144 748q0 19 7.5 35.5t20 28.5t28 18.5t32.5 6.5h201v-84h-193q-11 0 -17 -6.5t-6 -15.5v-31h-74z" />
    <glyph glyph-name="uni0653" unicode="&#x6e4;" 
d="M-144 748q0 19 7.5 35.5t20 28.5t28 18.5t32.5 6.5h201v-84h-193q-11 0 -17 -6.5t-6 -15.5v-31h-74z" />
    <glyph glyph-name="uni0654" unicode="&#x654;" 
d="M-154 772l80 12q0 1 -3 6t-5 14q-1 4 -2.5 12t-2.5 14q-2 11 -2 21q0 17 7 35t21.5 32.5t32 22.5t29.5 9l88 11l9 -75l-86 -10q-14 -2 -22.5 -9t-8.5 -20q0 -5 1 -11l7 -40q22 5 47 10t47 10q26 6 52 11l19 -67l-295 -60z" />
    <glyph glyph-name="uni0655" unicode="&#x655;" 
d="M-154 -189l81 13q-1 0 -4 5t-5 13v0l-1 2.5t-1.5 7t-1 8.5t-0.5 5q-2 12 -2 23q0 18 6.5 36.5t21 33.5t31.5 22.5t30 9.5l87 10l10 -74l-94 -12q-8 -1 -16.5 -6.5t-8.5 -17.5q0 -4 1 -8l9 -46q21 4 46.5 9.5t47.5 10.5q26 5 52 11l19 -67l-296 -61z" />
    <glyph glyph-name="uni0656" unicode="&#x656;" 
d="M33 -159h-68v159h68v-159z" />
    <glyph glyph-name="uni0660" unicode="&#x660;" horiz-adv-x="284" 
d="M215 52l-147 1v147h147v-148z" />
    <glyph glyph-name="uni0661" unicode="&#x661;" horiz-adv-x="268" 
d="M65 685l102 18l17 -83q10 -48 14.5 -96t4.5 -96v-428h-104v429q0 92 -18 180z" />
    <glyph glyph-name="uni0662" unicode="&#x662;" horiz-adv-x="546" 
d="M171 703l5 -17q4 -18 9.5 -45.5t11 -60.5t7.5 -65q2 -20 18.5 -32t36.5 -12h131v228h104v-231q0 -23 -8.5 -43.5t-23.5 -35.5t-35 -23.5t-44 -8.5h-114q-24 0 -40 10.5t-21 15.5v-383h-104v429q0 45 -5 90t-14 90l-16 76z" />
    <glyph glyph-name="uni0663" unicode="&#x663;" horiz-adv-x="720" 
d="M167 703q0 -3 4 -19.5t9 -42t10 -58t9 -67.5q1 -17 16 -31t36 -14h3h14q23 0 40 14t21 36l35 174l102 -18l-29 -148v-6q0 -18 12.5 -35t39.5 -17h74v228h104v-228q0 -24 -9 -44.5t-24.5 -36t-36 -24.5t-44.5 -9h-64q-32 0 -59.5 12t-48.5 34q-23 -22 -51.5 -34t-62.5 -12
q-17 0 -33.5 4t-30.5 12v-373h-104v429q0 45 -5 90t-14 90l-15 76z" />
    <glyph glyph-name="uni0664" unicode="&#x664;" horiz-adv-x="469" 
d="M65 149l1 80q0 42 16 75.5t42 57.5q-27 28 -36 69l-18 92q-3 15 -3 30q0 19 7 43.5t27 48.5t49.5 38.5t64.5 14.5h146v-109h-157q-18 0 -28.5 -13.5t-10.5 -27.5q0 -5 1 -10l15 -80q3 -17 16 -30.5t25 -13.5q4 0 8 1l133 37l28 -95l-172 -51q-21 -6 -39 -26.5t-18 -43.5
v-80v-3q0 -16 12.5 -28t30.5 -12h217v-113h-208q-30 0 -57.5 11.5t-47.5 31.5t-32 47t-12 59z" />
    <glyph glyph-name="uni0665" unicode="&#x665;" horiz-adv-x="606" 
d="M45 189q0 63 13 113t37 94t57.5 85t74.5 85l-61 56l63 89l147 -140q41 -38 75 -78.5t59 -86.5t38 -97.5t13 -110.5v-9q-1 -39 -11.5 -73.5t-31.5 -60t-53 -40.5t-75 -15h-174q-43 0 -75 15t-53.5 40.5t-32 60t-10.5 73.5zM149 189q0 -24 5.5 -38.5t13.5 -22.5t18.5 -11
t19.5 -3h194q10 0 20 3t18.5 11t13.5 22.5t5 38.5q0 46 -7.5 83t-24.5 72t-47 71.5t-75 79.5q-46 -45 -75.5 -81.5t-47 -71t-24.5 -71.5t-7 -82z" />
    <glyph glyph-name="uni0666" unicode="&#x666;" horiz-adv-x="531" 
d="M17 596l10 106q19 -2 43 -4.5t50 -5t53 -4t52 -1.5q36 0 73 3t66.5 7t48 7t19.5 3v-432q0 -88 18 -180l17 -76l-102 -18l-18 83q-10 48 -14.5 96.5t-4.5 96.5v303q-6 0 -21.5 -0.5t-33 -1.5t-33.5 -1.5t-24 -0.5q-52 0 -106 7t-93 13z" />
    <glyph glyph-name="uni0667" unicode="&#x667;" horiz-adv-x="602" 
d="M117 714q1 -1 14.5 -22.5t33 -57t42 -83t43 -101t34.5 -110.5t17 -112q1 45 13.5 96.5t31 103.5t40.5 100t42 87t35.5 65.5t21.5 33.5l85 -69q-1 -2 -15.5 -23t-36 -60t-47.5 -95t-50.5 -127t-44 -156.5t-28.5 -182.5h-94q-15 113 -37.5 203.5t-46.5 161.5t-48 123
t-43.5 86t-32 51t-13.5 19z" />
    <glyph glyph-name="uni0668" unicode="&#x668;" horiz-adv-x="602" 
d="M33 69q1 2 13.5 19t32 51t43.5 86t48 123t46.5 162t37.5 203h94q9 -97 28.5 -182.5t44 -156.5t50.5 -127t47.5 -95t36 -60t15.5 -23l-85 -69q-6 7 -21.5 33.5t-35.5 65.5t-42 87t-40.5 100t-31 103.5t-13.5 96.5q-3 -55 -17 -112t-34.5 -110.5t-43 -101t-42 -83t-33 -57
t-14.5 -22.5z" />
    <glyph glyph-name="uni0669" unicode="&#x669;" horiz-adv-x="513" 
d="M39 491l17 91q5 26 18.5 48t33 38t43.5 25t50 9h56q32 0 60.5 -12.5t50 -33.5t33.5 -49.5t12 -60.5v-271q0 -90 19 -181l16 -76l-96 -19l-16 84q-19 95 -19 193v49q-2 -1 -14 -5.5t-31 -4.5h-88q-36 0 -66 13t-50 36.5t-26 48t-6 43.5q0 17 3 35zM142 442q12 -13 30 -13
h145v117q0 23 -14 35t-33 12h-76q-17 0 -29.5 -10t-15.5 -27l-15 -81q-1 -6 -1 -11q0 -13 9 -22z" />
    <glyph glyph-name="uni066A" unicode="&#x66a;" horiz-adv-x="503" 
d="M460 0l-147 1v147h147v-148zM84 0l-49 33l393 632l49 -33zM206 522l-147 1v147h147v-148z" />
    <glyph glyph-name="uni066B" unicode="&#x66b;" horiz-adv-x="158" 
d="M134 -111h-94l45 231h128z" />
    <glyph glyph-name="uni066C" unicode="&#x66c;" horiz-adv-x="158" 
d="M134 401h-94l45 231h128z" />
    <glyph glyph-name="uni066D" unicode="&#x66d;" horiz-adv-x="440" 
d="M92 405l-42 53l106 78l-103 75l41 56l103 -74l39 122l68 -22l-39 -123h125v-67h-125l39 -122l-66 -20l-41 123z" />
    <glyph glyph-name="uni0670" unicode="&#x670;" 
d="M35 700h-69v159h69v-159z" />
    <glyph glyph-name="uni06F0" unicode="&#x6f0;" horiz-adv-x="472" 
d="M55 206v51q0 32 12.5 60.5t33.5 49.5t49.5 33.5t60.5 12.5h49q33 0 61.5 -12.5t49.5 -33.5t33.5 -49.5t12.5 -60.5v-51q0 -32 -12.5 -60.5t-33.5 -49.5t-49.5 -33.5t-61.5 -12.5h-49q-32 0 -60.5 12.5t-49.5 33.5t-33.5 49.5t-12.5 60.5zM160 258v-48q0 -20 13.5 -33
t33.5 -13h58q21 0 34 13t13 33v48q0 20 -13.5 33t-33.5 13h-58q-20 0 -33.5 -13t-13.5 -33z" />
    <glyph glyph-name="uni06F1" unicode="&#x6f1;" horiz-adv-x="261" 
d="M160 703l17 -83q10 -48 14.5 -96t4.5 -96v-428h-96v429q0 45 -5 90t-14 90l-16 76z" />
    <glyph glyph-name="uni06F2" unicode="&#x6f2;" horiz-adv-x="537" 
d="M159 703l5 -17q4 -18 9.5 -45.5t11 -60.5t7.5 -65q2 -20 18.5 -32t36.5 -12h131v228h104v-231q0 -23 -8.5 -43.5t-23.5 -35.5t-35 -23.5t-44 -8.5h-108q-20 0 -36.5 6.5t-30.5 24.5v-388h-97v429q0 45 -5 90t-14 90l-15 76z" />
    <glyph glyph-name="uni06F3" unicode="&#x6f3;" horiz-adv-x="707" 
d="M160 703q0 -3 4 -19.5t9 -42t10 -58t9 -67.5q1 -17 16 -31t36 -14h3h14q23 0 40 14t21 36l35 174l95 -18l-30 -148v-5q0 -19 13 -36t40 -17h88v228h96v-231q0 -47 -31 -79t-79 -32h-68q-32 0 -59.5 13.5t-48.5 42.5q-22 -29 -47 -42.5t-59 -13.5q-17 0 -37 5.5t-34 24.5
v-387h-96v429q0 45 -5 90t-14 90l-16 76z" />
    <glyph glyph-name="uni06F4" unicode="&#x6f4;" horiz-adv-x="633" 
d="M159 704q2 -8 6 -27.5t8.5 -45t9.5 -55.5t9 -60q4 -21 17.5 -33t33.5 -12h37l-4 9q-4 7 -5 16l-1 7q-2 6 -4 16t-4 21t-4 20q-2 14 -2 27q0 20 7.5 46t28.5 50t50 38t61 14h130v-101h-143q-23 0 -31.5 -15.5t-8.5 -28.5q0 -5 1 -9l21 -106q15 2 46.5 4.5t63.5 5.5
q37 4 80 8l16 -99q-33 -4 -72.5 -10.5t-81.5 -12.5t-85 -10t-82 -4q-35 0 -61 16v-373h-97v429q0 64 -10.5 129t-23.5 128z" />
    <glyph glyph-name="uni06F5" unicode="&#x6f5;" horiz-adv-x="675" 
d="M68 315q18 57 47 106.5t66.5 92.5t77.5 82l-37 34l68 85l122 -113q36 -34 74 -74t69 -89.5t50.5 -110.5t19.5 -137q0 -40 -10 -75t-31 -60.5t-53 -40.5t-76 -15q-36 0 -65 13t-53 36q-24 -23 -54 -36t-62 -13q-46 0 -79 16t-53 42.5t-29.5 61t-9.5 71.5q0 66 18 124z
M154 190q0 -31 14 -53.5t47 -22.5h8q23 0 40 13.5t25 48.5l20 85l102 -18l-20 -85q6 -17 23 -30.5t38 -13.5h8q32 0 47 20.5t15 55.5q0 52 -10 93.5t-31.5 80t-56.5 77.5t-86 85q-50 -48 -85 -87t-56.5 -77.5t-31.5 -79.5t-10 -92z" />
    <glyph glyph-name="uni06F6" unicode="&#x6f6;" horiz-adv-x="607" 
d="M65 52l212 301q-11 0 -28.5 6.5t-27.5 14.5l-86 67q-29 23 -41.5 52.5t-12.5 58.5q0 2 0.5 19t15 47t41.5 51l126 100l54 -75l-127 -108q-13 -11 -14.5 -21.5t-1.5 -13.5q0 -14 13 -24l137 -103q25 34 52.5 65.5t57.5 61.5l62 58l71 -73l-56 -53q-35 -33 -62.5 -65
t-56.5 -73l-244 -352z" />
    <glyph glyph-name="uni06F7" unicode="&#x6f7;" horiz-adv-x="602" 
d="M33 645l84 69l13 -20q13 -21 32 -56.5t42 -82.5t43.5 -100t35 -108t18.5 -107q3 39 12 80t22.5 81.5t30 79.5t32.5 74q39 81 87 159l85 -69q-53 -81 -97 -181q-19 -43 -38.5 -94t-36.5 -109.5t-30 -123.5t-20 -136h-94q-21 164 -58.5 284t-73.5 200q-42 94 -89 160z" />
    <glyph glyph-name="uni06F8" unicode="&#x6f8;" horiz-adv-x="602" 
d="M33 69q47 66 89 160q36 81 73.5 201t58.5 283h94q7 -70 20 -135.5t30 -124t36.5 -109.5t38.5 -94q44 -100 97 -181l-85 -69q-48 78 -87 159q-16 35 -32.5 74t-30 79.5t-22.5 81.5t-12 80q-3 -52 -18 -107t-35.5 -108t-43.5 -100t-42 -82.5t-32 -55.5l-13 -21z" />
    <glyph glyph-name="uni06F9" unicode="&#x6f9;" horiz-adv-x="509" 
d="M38 491l17 91q5 26 18.5 48t33 38t43.5 25t50 9h56q32 0 60.5 -12.5t49.5 -33.5t33.5 -49.5t12.5 -60.5v-271q0 -90 19 -181l16 -76l-96 -18l-16 83q-19 95 -19 193v49q-2 -1 -14 -5.5t-31 -4.5h-88q-36 0 -66 13t-50 36.5t-26 48t-6 43.5q0 17 3 35zM141 442
q12 -13 30 -13h145v117q0 23 -14 35t-33 12h-76q-17 0 -29.5 -10t-15.5 -27l-15 -81q-1 -6 -1 -11q0 -13 9 -22z" />
    <glyph glyph-name="uni200B" unicode="&#x200b;" horiz-adv-x="333" 
 />
    <glyph glyph-name="uni200C" unicode="&#x200c;" horiz-adv-x="333" 
 />
    <glyph glyph-name="endash" unicode="&#x2013;" horiz-adv-x="630" 
d="M65 217v100h500v-100h-500z" />
    <glyph glyph-name="emdash" unicode="&#x2014;" horiz-adv-x="1130" 
d="M65 217v100h1000v-100h-1000z" />
    <glyph glyph-name="quoteleft" unicode="&#x2018;" horiz-adv-x="249" 
d="M40 449l79 239h90l-47 -239h-122z" />
    <glyph glyph-name="quoteright" unicode="&#x2019;" horiz-adv-x="249" 
d="M40 449l47 239h122l-79 -239h-90z" />
    <glyph glyph-name="quotesinglbase" unicode="&#x201a;" horiz-adv-x="254" 
d="M40 -111l79 231h94l-45 -231h-128z" />
    <glyph glyph-name="quotedblleft" unicode="&#x201c;" horiz-adv-x="424" 
d="M40 449l79 239h90l-47 -239h-122zM215 449l79 239h90l-47 -239h-122z" />
    <glyph glyph-name="quotedblright" unicode="&#x201d;" horiz-adv-x="424" 
d="M262 688h122l-79 -238h-90zM40 450l47 238h122l-79 -238h-90z" />
    <glyph glyph-name="quotedblbase" unicode="&#x201e;" horiz-adv-x="424" 
d="M40 -123l79 239h90l-47 -239h-122zM215 -123l79 239h90l-47 -239h-122z" />
    <glyph glyph-name="dagger" unicode="&#x2020;" horiz-adv-x="549" 
d="M216 500v183h116v-183h152v-100h-152l-8 -472h-100l-8 472h-152v100h152z" />
    <glyph glyph-name="daggerdbl" unicode="&#x2021;" horiz-adv-x="549" 
d="M64 500h152v183h117v-183h150v-100h-150v-189h151v-100h-151v-183h-117v183h-152v100h152v189h-152v100z" />
    <glyph glyph-name="bullet" unicode="&#x2022;" horiz-adv-x="428" 
d="M339 109h-250v288h250v-288z" />
    <glyph glyph-name="ellipsis" unicode="&#x2026;" horiz-adv-x="765" 
d="M73 0v127h110v-127h-110zM327 0v127h110v-127h-110zM583 0v127h110v-127h-110z" />
    <glyph glyph-name="guilsinglleft" unicode="&#x2039;" horiz-adv-x="293" 
d="M40 287l213 157v-118l-113 -80l113 -92v-118l-213 165v86z" />
    <glyph glyph-name="guilsinglright" unicode="&#x203a;" horiz-adv-x="293" 
d="M253 294v-86l-213 -165v118l113 92l-113 80v118z" />
    <glyph glyph-name="fraction" unicode="&#x2044;" horiz-adv-x="126" 
d="M-170 -4l-49 33l393 632l49 -33z" />
    <glyph glyph-name="Euro" unicode="&#x20ac;" horiz-adv-x="625" 
d="M122 303v75h-57v90h63q7 59 23.5 100.5t45 68t69.5 39t98 12.5q45 0 92.5 -7t103.5 -19l-3 -93q-47 7 -87.5 10.5t-75.5 3.5q-36 0 -61.5 -5.5t-42 -19t-26 -35.5t-15.5 -55h250v-90h-257v-75h257v-90h-248q11 -58 42 -89t99 -31q35 0 76 3t89 11l3 -96
q-100 -22 -197 -22q-107 0 -162.5 58.5t-71.5 165.5h-64v90h57z" />
    <glyph glyph-name="trademark" unicode="&#x2122;" horiz-adv-x="644" 
d="M291 331v309h94l48 -173l53 173h92v-309h-73v189l-43 -170h-52l-46 170v-189h-73zM64 640h200v-71h-48v-237h-79v237h-73v71z" />
    <glyph glyph-name="minus" unicode="&#x2212;" horiz-adv-x="564" 
d="M65 199v105h434v-105h-434z" />
    <glyph glyph-name="uniFBB2" unicode="&#xfbb2;" 
d="M275 1l1 104h104l-1 -104h-104z" />
    <glyph glyph-name="uniFBB3" unicode="&#xfbb3;" 
d="M276 -105l-1 105h105l1 -105h-105z" />
    <glyph glyph-name="uniFBB4" unicode="&#xfbb4;" 
d="M369 105h105v-105h-105v105zM317 105v-105h-105v105h105z" />
    <glyph glyph-name="uniFBB5" unicode="&#xfbb5;" 
d="M368 0h105v-105h-105v105zM316 0v-105h-104v105h104z" />
    <glyph glyph-name="uniFBB6" unicode="&#xfbb6;" 
d="M367 105h105v-105h-105v105zM392 247v-105h-105v105h105zM315 105v-105h-105v105h105z" />
    <glyph glyph-name="uniFBB7" unicode="&#xfbb7;" 
d="M369 0h105v-105h-105v105zM395 -142v-105h-105v105h105zM317 0v-105h-105v105h105z" />
    <glyph glyph-name="uniFBB7" unicode="&#xfbb9;" 
d="M369 0h105v-105h-105v105zM395 -142v-105h-105v105h105zM317 0v-105h-105v105h105z" />
    <glyph glyph-name="uniFE70FE7C" 
d="M-159 885h70v-86q0 -9 7 -16t16 -8h7q10 0 17 6.5t9 15.5l17 83l69 -12l-14 -72v-3q0 -9 6.5 -13t14.5 -5h39v113h70v-122q0 -29 -18.5 -47.5t-47.5 -18.5h-43q-17 0 -31.5 6t-26.5 17q-26 -23 -63 -23q-20 0 -38 8t-31.5 21.5t-21 31.5t-7.5 38v86zM151 1069l16 -65
l-323 -69l-12 66zM-168 1126l319 69l16 -65l-323 -69z" />
    <glyph glyph-name="uniFB8E.alt" horiz-adv-x="1117" 
d="M65 374h96v-171q0 -19 7 -35t19 -28t28.5 -19t35.5 -7h670q20 0 33 13.5t13 33.5v69q0 22 -15 37t-36 15h-483l-70 66l284 332l69 -64l-194 -229h385q33 0 61.5 -12.5t49.5 -33.5t33 -49.5t12 -60.5v-75q0 -33 -13 -61.5t-34.5 -49.5t-49.5 -33t-59 -12h-646
q-41 0 -77 15.5t-62.5 41.5t-41.5 62t-15 76v179z" />
    <glyph glyph-name="uniFB8F.alt" horiz-adv-x="1174" 
d="M65 374h96v-171q0 -19 7 -35t19 -28t28.5 -19t35.5 -7h670q20 0 33 13.5t13 33.5v69q0 22 -15 37t-36 15h-483l-70 66l284 332l69 -64l-194 -229h385q33 0 61.5 -12.5t49.5 -33.5t33 -49.5t12 -60.5v-64q2 -23 18 -38t39 -15h54q14 0 14 -16v-84q0 -14 -14 -14h-38
q-35 0 -64.5 13.5t-52.5 37.5q-22 -24 -51 -37.5t-61 -13.5h-646q-41 0 -77 15.5t-62.5 41.5t-41.5 62t-15 76v179z" />
    <glyph glyph-name="uniFB91.alt" horiz-adv-x="840" 
d="M-14 14v86q0 14 14 14h586q19 0 33 14t14 34v68q0 22 -15 37t-37 15h-482l-70 66l283 331l70 -64l-194 -228h385q32 0 60.5 -12.5t50 -33.5t34 -49.5t12.5 -61.5v-60q0 -24 16.5 -40t39.5 -16h54q6 0 10 -4.5t4 -9.5v-86q0 -5 -4 -9.5t-10 -4.5h-37q-35 0 -65.5 13.5
t-52.5 38.5q-22 -25 -51.5 -38.5t-62.5 -13.5h-571q-7 0 -10.5 4.5t-3.5 9.5z" />
    <glyph glyph-name="uniFB90.alt" horiz-adv-x="784" 
d="M-14 14v86q0 14 14 14h587q19 0 33 13t14 34v69q0 22 -15 37t-37 15h-483l-70 66l283 331l70 -64l-194 -228h385q32 0 60.5 -12.5t50 -33.5t34 -49.5t12.5 -61.5v-74q0 -33 -13 -61.5t-34.5 -49.5t-50.5 -33t-61 -12h-571q-6 0 -10 4.5t-4 9.5z" />
    <glyph glyph-name="uniFB92.alt" horiz-adv-x="1117" 
d="M65 374h96v-171q0 -19 7 -35t19 -28t28.5 -19t35.5 -7h670q20 0 33 13.5t13 33.5v69q0 22 -15 37t-36 15h-483l-70 66l284 332l69 -64l-194 -229h385q33 0 61.5 -12.5t49.5 -33.5t33 -49.5t12 -60.5v-75q0 -33 -13 -61.5t-34.5 -49.5t-49.5 -33t-59 -12h-646
q-41 0 -77 15.5t-62.5 41.5t-41.5 62t-15 76v179zM519 729l49 -46l-220 -257l-51 41z" />
    <glyph glyph-name="uniFB93.alt" horiz-adv-x="1174" 
d="M65 374h96v-171q0 -19 7 -35t19 -28t28.5 -19t35.5 -7h670q20 0 33 13.5t13 33.5v69q0 22 -15 37t-36 15h-483l-70 66l284 332l69 -64l-194 -229h385q33 0 61.5 -12.5t49.5 -33.5t33 -49.5t12 -60.5v-64q2 -23 18 -38t39 -15h54q14 0 14 -16v-84q0 -14 -14 -14h-38
q-35 0 -64.5 13.5t-52.5 37.5q-22 -24 -51 -37.5t-61 -13.5h-646q-41 0 -77 15.5t-62.5 41.5t-41.5 62t-15 76v179zM519 729l49 -46l-220 -258l-51 42z" />
    <glyph glyph-name="uniFB95.alt" horiz-adv-x="927" 
d="M-14 100q0 14 14 14h674q19 0 33 14t14 34v68q0 22 -15.5 37t-36.5 15h-482l-70 66l283 331l69 -64l-193 -228h385q32 0 60.5 -12.5t49.5 -33.5t33.5 -49.5t12.5 -61.5v-60q0 -24 16.5 -40t39.5 -16h54q6 0 10 -4.5t4 -9.5v-86q0 -5 -4.5 -9.5t-9.5 -4.5h-37
q-35 0 -65 13.5t-52 38.5q-22 -25 -51.5 -38.5t-63.5 -13.5h-658q-7 0 -10.5 4.5t-3.5 9.5v86zM50 467l222 262l49 -46l-220 -258z" />
    <glyph glyph-name="uniFB94.alt" horiz-adv-x="871" 
d="M-14 100q0 14 14 14h678h2q15 0 28 13t13 34v69q0 22 -15.5 36.5t-36.5 15.5h-483l-69 66l283 331l69 -64l-193 -228h385q32 0 60.5 -12.5t49.5 -33.5t33.5 -49.5t12.5 -60.5v-75q0 -33 -13 -61.5t-34.5 -49.5t-50.5 -33t-61 -12h-658q-6 0 -10 4.5t-4 9.5v86zM50 467
l222 262l49 -46l-220 -258z" />
  </font>
</defs>
</svg>
