<?xml version="1.0" standalone="no"?>
<!DOCTYPE svg PUBLIC "-//W3C//DTD SVG 1.1//EN" "http://www.w3.org/Graphics/SVG/1.1/DTD/svg11.dtd" >
<svg xmlns="http://www.w3.org/2000/svg" xmlns:xlink="http://www.w3.org/1999/xlink" version="1.1">
<metadata>
Created by FontForge 20170731 at Wed Jun 10 09:40:50 2020
 By Aleksey,,,
Copyright (c) 2019 by www.fontiran.com All rights reserved.
</metadata>
<defs>
<font id="PeydaWeb-Thin" horiz-adv-x="0" >
  <font-face 
    font-family="PeydaWeb Thin"
    font-weight="100"
    font-stretch="normal"
    units-per-em="1000"
    panose-1="0 0 0 0 0 0 0 0 0 0"
    ascent="800"
    descent="-200"
    x-height="497"
    cap-height="700"
    bbox="-196 -427 1446 1095"
    underline-thickness="50"
    underline-position="-175"
    unicode-range="U+000D-FEFC"
  />
<missing-glyph horiz-adv-x="250" 
 />
    <glyph glyph-name="uniFDF2" unicode="&#x627;&#xfedf;&#xfee0;&#xfeea;" horiz-adv-x="1234" arabic-form="isolated" 
d="M89 207q0 62 29.5 96t73.5 47l154 39v84h31v-335q0 -21 8.5 -40t23 -32.5t33.5 -21.5t40 -8h63q20 0 37.5 7.5t30.5 20.5t20.5 30.5t7.5 36.5v261h31v-267q0 -17 7 -33t20.5 -28.5t31.5 -20t38 -7.5h61q20 0 37 7.5t30 21t20.5 31t7.5 36.5v404h31v-405q0 -27 -10.5 -51
t-28.5 -41.5t-41.5 -28t-50.5 -10.5h-52q-38 0 -68.5 18.5t-47.5 48.5q-19 -30 -49.5 -48.5t-68.5 -18.5h-58q-46 0 -81.5 25t-49.5 65q-15 -15 -35 -15h-161q-39 0 -52 13.5t-13 51.5v67zM346 111v244l-153 -39q-33 -10 -53 -40.5t-20 -65.5v-99h226zM1166 634v-634h-31
v634h31zM534 645v-59q0 -21 15 -36t35 -15h7q20 0 34 12t18 32l12 57l16 -3l-11 -50q-1 -4 -1 -8q0 -7 3.5 -14.5t11 -13.5t17 -9t19.5 -3h49v113h17v-93q0 -20 -8.5 -30.5t-32.5 -10.5h-25q-18 0 -36 9.5t-22 30.5q-11 -22 -27.5 -31t-34.5 -9q-31 0 -51.5 21.5t-20.5 50.5
v59h16zM665 805v-105h-16v105h16z" />
    <glyph glyph-name="uniFEF5" unicode="&#xfedf;&#xfe82;" horiz-adv-x="501" arabic-form="isolated" 
d="M64 4l108 14l-48 518l29 5l46 -519l110 15q45 6 67 31t22 77v489h31v-490q0 -36 -8 -60t-22.5 -39t-33.5 -23t-41 -11l-257 -36zM-20 592q0 22 13 40q15 19 49 19h176v-30h-181q-13 0 -24 -11.5t-11 -25.5v-19h-22v27z" />
    <glyph glyph-name="uniFEF6" unicode="&#xfee0;&#xfe82;" horiz-adv-x="551" arabic-form="final" 
d="M65 5l107 14l-47 517l29 5l46 -518l111 15q44 6 66.5 30t22.5 78v489h31v-506q0 -27 9.5 -44.5t24.5 -28t34 -15t39 -4.5h13q14 0 14 -14v-9q0 -5 -4 -9.5t-10 -4.5h-21q-36 0 -66 18.5t-47 47.5q-17 -24 -40 -36.5t-51 -15.5l-258 -38zM-20 594q0 22 13 41q15 19 50 19
h175v-31h-180q-14 0 -25 -11.5t-11 -25.5v-19h-22v27z" />
    <glyph glyph-name="uniFEF7" unicode="&#xfedf;&#xfe84;" horiz-adv-x="492" arabic-form="isolated" 
d="M49 4l108 14l-48 518l29 5l46 -519l110 15q45 6 67 31t22 77v489h31v-490q0 -36 -8 -60t-22.5 -39t-33.5 -23t-41 -11l-257 -36zM59 587l86 43q0 1 1 1q-1 2 -6 5.5t-12 17.5q0 1 -3 7.5t-6 14.5l-7 15q-4 7 -5 9q-8 18 -8 37t6.5 35.5t19 30t28.5 20.5l68 28l5 -14
l-77 -36q-23 -11 -29.5 -29.5t-6.5 -29.5q0 -15 7 -30q2 -4 6.5 -13.5t10.5 -20.5t11.5 -22.5t8.5 -19.5l161 84l8 -16l-259 -132z" />
    <glyph glyph-name="uniFEF8" unicode="&#xfee0;&#xfe84;" horiz-adv-x="535" arabic-form="final" 
d="M156 19l-47 517l29 5l46 -518l111 15q44 6 66.5 30t22.5 78v489h31v-506q0 -27 9.5 -44.5t24.5 -28t34 -15t39 -4.5h13q14 0 14 -14v-9q0 -5 -4 -9.5t-10 -4.5h-21q-36 0 -66 18.5t-47 47.5q-17 -24 -40 -36.5t-51 -15.5l-258 -38l-3 29zM75 590l85 42q-1 0 -6 5t-10 18
q-1 2 -4 8.5t-6.5 14t-6.5 14t-4 8.5q-8 19 -8.5 29t-0.5 12q0 17 6.5 33t19 29t29.5 20l67 29l5 -14l-76 -36q-11 -5 -19.5 -15t-12 -21t-3.5 -21q0 -3 0.5 -11t6.5 -21q2 -4 6.5 -13.5t10 -20.5t11 -22.5t8.5 -18.5l161 83l9 -17l-259 -132z" />
    <glyph glyph-name="uniFEF9" unicode="&#xfedf;&#xfe88;" horiz-adv-x="494" arabic-form="isolated" 
d="M158 18l-48 518l29 5l46 -519l110 15q45 6 67 31t22 77v489h31v-490q0 -36 -8 -60t-22.5 -39t-33.5 -23t-41 -11l-257 -36l-3 29zM91 -335q20 11 37.5 19.5t47.5 22.5q-2 2 -6.5 7t-10.5 16q0 1 -3 7.5t-6.5 14.5t-7 15t-4.5 10q-9 19 -9 38t7 35.5t19.5 29.5t28.5 20
l68 29l5 -14l-76 -36q-23 -11 -29.5 -30.5t-6.5 -30.5q0 -15 7 -29q2 -3 6.5 -12.5t10.5 -21.5l11 -23q5 -11 8 -19q35 17 64.5 32.5t51.5 27.5q25 13 46 24l7 -16l-259 -133z" />
    <glyph glyph-name="uniFEFA" unicode="&#xfee0;&#xfe88;" horiz-adv-x="536" arabic-form="final" 
d="M50 5l107 14l-47 517l29 5l46 -518l111 15q44 6 66.5 30t22.5 78v489h31v-506q0 -27 9.5 -44.5t24.5 -28t34 -15t39 -4.5h13q14 0 14 -14v-9q0 -5 -4 -9.5t-10 -4.5h-21q-36 0 -66 18.5t-47 47.5q-17 -24 -40 -36.5t-51 -15.5l-258 -38zM90 -333l85 42q-1 0 -6 5t-10 17
q0 1 -3 7.5t-7 14.5t-7 15t-5 9q-8 19 -8 38t6.5 35.5t19 30t29.5 20.5l68 28l5 -14l-77 -36q-23 -11 -29.5 -29t-6.5 -30q0 -15 7 -30q2 -4 6.5 -13.5t10 -20.5t11 -22.5t9.5 -18.5l161 82l8 -16l-260 -132z" />
    <glyph glyph-name="uniFEFB" unicode="&#xfedf;&#xfe8e;" horiz-adv-x="494" arabic-form="isolated" 
d="M158 18l-48 518l29 5l46 -519l110 15q45 6 67 31t22 77v489h31v-490q0 -36 -8 -60t-22.5 -39t-33.5 -23t-41 -11l-257 -36l-3 29z" />
    <glyph glyph-name="uniFEFC" unicode="&#xfee0;&#xfe8e;" horiz-adv-x="536" arabic-form="final" 
d="M158 19l-48 517l29 5l46 -518l111 15q44 6 66.5 31t22.5 77v489h31v-506q0 -27 9.5 -44.5t24.5 -28t34 -15t39 -4.5h13q14 0 14 -14v-9q0 -5 -4 -9.5t-10 -4.5h-21q-36 0 -66 18.5t-47 47.5q-17 -24 -40 -36.5t-51 -15.5l-257 -37l-3 28z" />
    <glyph glyph-name="uniFEB3FBFD" unicode="&#xfeb3;&#xfbfd;" horiz-adv-x="1278" 
d="M89 182h33v-212q0 -30 11.5 -56.5t31.5 -46.5t46.5 -31.5t56.5 -11.5h177q26 0 49.5 10t40.5 27.5t27.5 41t10.5 50.5v54l-234 54v75q0 33 11 61t30.5 49t45 34t52.5 16l58 7h8q26 0 51.5 -12.5t42.5 -37.5l100 -151q41 -63 106 -63q38 0 66 22.5t34 57.5l28 139l32 -6
l-21 -106q-2 -10 -2 -20t3.5 -24.5t16 -29.5t31 -24t39.5 -9h97v257h33v-235q0 -61 -62 -61h-68q-74 0 -106 74q-20 -37 -52.5 -55.5t-71.5 -18.5q-37 0 -70.5 18t-61.5 63l-99 156q-11 17 -28 25t-33 8h-7l-71 -8q-22 -3 -41 -14t-32.5 -28.5t-21 -39t-7.5 -44.5v-48
l183 -42q23 -6 38 -24.5t15 -43.5v-37q0 -32 -13.5 -60.5t-36 -49.5t-52 -33.5t-62.5 -12.5h-175q-37 0 -69 14t-56 38.5t-38 57t-14 69.5v218z" />
    <glyph glyph-name="uniFEB4FBFD" unicode="&#xfeb4;&#xfbfd;" horiz-adv-x="1337" 
d="M89 181h34v-212q0 -30 11.5 -56.5t31 -46.5t46 -31.5t56.5 -11.5h176q27 0 50.5 10t41.5 27.5t27 39t9 42.5v65l-234 53v76q0 32 11.5 60t31 49t44.5 34.5t52 16.5l58 6q5 0 10 1q26 -1 51 -14.5t41 -37.5l98 -150q20 -31 49 -47.5t60 -16.5q38 0 65.5 23t34.5 58l27 139
l32 -5l-21 -107q-2 -8 -2 -17q0 -11 4.5 -26.5t16.5 -30.5t30 -24.5t39 -9.5h7q19 0 36 7.5t29.5 20t20 30t7.5 36.5v165h34v-174q0 -17 7.5 -32.5t20.5 -27t30 -18.5t35 -7h40q14 0 14 -14v-10q0 -7 -4.5 -10t-9.5 -3h-34q-36 0 -67 18.5t-49 54.5q-17 -36 -46.5 -54.5
t-66.5 -18.5q-36 0 -65.5 17.5t-44.5 55.5q-20 -38 -52 -55.5t-71 -17.5q-37 0 -70.5 18.5t-62.5 60.5l-99 156q-10 17 -27 26t-36 9h-4l-72 -9q-22 -2 -40.5 -13.5t-32 -29t-21 -39t-7.5 -44.5v-48l183 -41q24 -7 39 -25t15 -44v-37q0 -32 -13.5 -60.5t-36 -50t-52.5 -34
t-62 -12.5h-176q-37 0 -69 14.5t-56 39t-38 57t-14 68.5v219z" />
    <glyph glyph-name="uniFEB7FBFD" unicode="&#xfeb7;&#xfbfd;" horiz-adv-x="1271" 
d="M120 180v-211q0 -30 11.5 -56.5t31.5 -47t47 -32t58 -11.5h175q27 0 50.5 10.5t41.5 28t28 41t10 49.5v54l-234 55v75q0 32 11 60t30.5 49t44.5 34t52 16l58 7h8q26 0 51.5 -12.5t40.5 -37.5l100 -150q20 -32 48.5 -48t60.5 -16q38 0 66 22.5t35 57.5l28 139l30 -6
l-21 -105q-2 -9 -2 -18q0 -12 4 -27t16.5 -30t31 -24t39.5 -9h98v258h31v-236q0 -59 -61 -59h-68q-36 0 -63.5 18.5t-42.5 55.5q-20 -37 -52.5 -55.5t-71.5 -18.5q-38 0 -71 18.5t-62 61.5l-100 157q-9 17 -26 25.5t-34 8.5h-7l-71 -8q-22 -3 -40.5 -14.5t-31.5 -29
t-20.5 -39.5t-7.5 -45v-48l181 -43q24 -6 38.5 -24t14.5 -44v-36q0 -32 -13.5 -60.5t-36 -49.5t-52 -33.5t-62.5 -12.5h-176q-36 0 -68 14t-55.5 38.5t-37.5 57t-14 68.5v218h31zM893 458h60v-60h-60v60zM1061 458v-60h-59v60h59zM1004 552v-59h-59v59h59z" />
    <glyph glyph-name="uniFEB8FBFD" unicode="&#xfeb8;&#xfbfd;" horiz-adv-x="1337" 
d="M89 -38v219h34v-212q0 -30 11.5 -56.5t31 -46.5t46 -31.5t56.5 -11.5h176q27 0 50 10t40.5 27.5t27.5 41t10 49.5l1 56l-235 54v75q0 32 11.5 60t31 49t44.5 34.5t52 16.5l58 6q5 0 10 1q25 -1 49.5 -14.5t40.5 -37.5l104 -150q21 -31 47.5 -47.5t57.5 -16.5q38 0 66 23
t34 58l29 139l31 -5l-20 -107q-2 -9 -2 -19t3.5 -25t15.5 -30t29.5 -24.5t39.5 -9.5h7q19 0 36 7.5t29.5 20t20 30t7.5 36.5v165h34v-174q0 -17 7.5 -32.5t20.5 -27t30 -18.5t35 -7h40q14 0 14 -14v-10q0 -8 -4.5 -10.5t-9.5 -2.5h-34q-36 0 -67 18.5t-49 54.5
q-17 -36 -46.5 -54.5t-66.5 -18.5t-65.5 17.5t-43.5 55.5q-20 -38 -51.5 -55.5t-72.5 -17.5q-37 0 -70.5 18.5t-62.5 60.5l-100 156q-11 17 -27 26t-35 9h-4l-72 -9q-22 -2 -40.5 -13.5t-32 -29t-21 -39t-7.5 -44.5v-48l183 -41q23 -5 38 -24t15 -45v-37q0 -32 -13.5 -60.5
t-36 -50t-52 -34t-61.5 -12.5h-176q-37 0 -69 14.5t-56 39t-38 57t-14 68.5zM1001 551v-57h-57v57h57zM1001 399v56h58v-56h-58zM892 455h57v-56h-57v56z" />
    <glyph glyph-name="uniFEBBFBFD" unicode="&#xfebb;&#xfbfd;" horiz-adv-x="1370" 
d="M123 181v-210q0 -31 11.5 -58t31.5 -47.5t46.5 -32t57.5 -11.5h175q27 0 50.5 10.5t41 28.5t27.5 41.5t10 50.5v52l-238 60v69q0 33 12 61.5t31.5 49.5t45.5 34t54 16l87 8h7q25 0 51.5 -13t41.5 -36l113 -171l11 -14q4 -6 8 -9q3 -4 6 -6l184 199q26 28 60 43t71 15h61
q25 0 46.5 -9.5t37.5 -25.5t25.5 -37.5t9.5 -45.5v-81q0 -23 -9 -43.5t-24 -35.5t-35.5 -24t-44.5 -9h-316q-44 0 -73 20t-56 62l-100 154q-12 19 -29.5 27t-34.5 8h-8l-97 -8q-23 -3 -42.5 -14.5t-33.5 -29t-21.5 -39.5t-7.5 -45v-44l186 -47q24 -7 38 -24t14 -42v-37
q0 -33 -13.5 -61.5t-36 -49.5t-52 -33t-61.5 -12h-174q-37 0 -69.5 14t-57 38.5t-38.5 57t-14 69.5v217h34zM830 37h356q33 0 56.5 24.5t23.5 57.5v71q0 37 -25 61.5t-62 24.5h-53q-35 0 -66.5 -13.5t-55.5 -38.5z" />
    <glyph glyph-name="uniFEBCFBFD" unicode="&#xfebc;&#xfbfd;" horiz-adv-x="1432" 
d="M89 181h34v-210q0 -31 11.5 -58t31.5 -47.5t46.5 -32t57.5 -11.5h175q27 0 50.5 10.5t41 28.5t27.5 41.5t10 50.5v52l-238 60v69q0 33 12 61.5t31.5 49.5t45.5 34t54 16l87 8h7q25 0 51.5 -13t41.5 -36l113 -171l11 -14q4 -6 8 -9q3 -4 6 -6l184 199q26 28 60 43t71 15
h61q25 0 46.5 -9.5t37.5 -25.5t25.5 -37.5t9.5 -45.5v-72q0 -17 7.5 -32t20 -26.5t29.5 -18.5t35 -7h41q6 0 10 -4.5t4 -10.5v-9q0 -7 -4.5 -10t-9.5 -3h-34q-33 0 -62 16t-48 47q-14 -27 -41.5 -45t-60.5 -18h-316q-44 0 -73 20t-56 62l-100 154q-12 19 -29.5 27t-34.5 8
h-8l-97 -8q-23 -3 -42.5 -14.5t-33.5 -29t-21.5 -39.5t-7.5 -45v-44l186 -47q24 -7 38 -24t14 -42v-37q0 -33 -13.5 -61.5t-36 -49.5t-52 -33t-61.5 -12h-174q-37 0 -69.5 14t-57 38.5t-38.5 57t-14 69.5v217zM1186 37q33 0 56.5 24.5t23.5 57.5v71q0 37 -25 61.5t-62 24.5
h-53q-35 0 -66.5 -13.5t-55.5 -38.5l-174 -187h356z" />
    <glyph glyph-name="uniFEBFFBFD" unicode="&#xfebf;&#xfbfd;" horiz-adv-x="1370" 
d="M89 181h34v-210q0 -31 11.5 -58t31.5 -47.5t46.5 -32t57.5 -11.5h175q27 0 50.5 10.5t41 28.5t27.5 41.5t10 50.5v52l-238 60v69q0 33 12 61.5t31.5 49.5t45.5 34t54 16l87 8h7q25 0 51.5 -13t41.5 -36l113 -171l11 -14q4 -6 8 -9q3 -4 6 -6l184 199q26 28 60 43t71 15
h61q25 0 46.5 -9.5t37.5 -25.5t25.5 -37.5t9.5 -45.5v-81q0 -23 -9 -43.5t-24 -35.5t-35.5 -24t-44.5 -9h-316q-44 0 -73 20t-56 62l-100 154q-12 19 -29.5 27t-34.5 8h-8l-97 -8q-23 -3 -42.5 -14.5t-33.5 -29t-21.5 -39.5t-7.5 -45v-44l186 -47q24 -7 38 -24t14 -42v-37
q0 -33 -13.5 -61.5t-36 -49.5t-52 -33t-61.5 -12h-174q-37 0 -69.5 14t-57 38.5t-38.5 57t-14 69.5v217zM830 37h356q33 0 56.5 24.5t23.5 57.5v71q0 37 -25 61.5t-62 24.5h-53q-35 0 -66.5 -13.5t-55.5 -38.5zM1102 511h58v-59h-58v59z" />
    <glyph glyph-name="uniFEC0FBFD" unicode="&#xfec0;&#xfbfd;" horiz-adv-x="1432" 
d="M123 181v-210q0 -31 11.5 -58t31.5 -47.5t46.5 -32t57.5 -11.5h175q27 0 50.5 10.5t41 28.5t27.5 41.5t10 50.5v52l-238 60v69q0 33 12 61.5t31.5 49.5t45.5 34t54 16l87 8h7q25 0 51.5 -13t41.5 -36l113 -171l11 -14q4 -6 8 -9q3 -4 6 -6l184 199q26 28 60 43t71 15h61
q25 0 46.5 -9.5t37.5 -25.5t25.5 -37.5t9.5 -45.5v-72q0 -17 7.5 -32t20 -26.5t29.5 -18.5t35 -7h41q6 0 10 -4.5t4 -10.5v-9q0 -7 -4.5 -10t-9.5 -3h-34q-33 0 -62 16t-48 47q-14 -27 -41.5 -45t-60.5 -18h-316q-44 0 -73 20t-56 62l-100 154q-12 19 -29.5 27t-34.5 8h-8
l-97 -8q-23 -3 -42.5 -14.5t-33.5 -29t-21.5 -39.5t-7.5 -45v-44l186 -47q24 -7 38 -24t14 -42v-37q0 -33 -13.5 -61.5t-36 -49.5t-52 -33t-61.5 -12h-174q-37 0 -69.5 14t-57 38.5t-38.5 57t-14 69.5v217h34zM830 37h356q33 0 56.5 24.5t23.5 57.5v71q0 37 -25 61.5
t-62 24.5h-53q-35 0 -66.5 -13.5t-55.5 -38.5zM1157 510v-59h-58v59h58z" />
    <glyph glyph-name="uniFE92FBFD" unicode="&#xfe92;&#xfbfd;" horiz-adv-x="898" 
d="M89 182h31v-210q0 -30 12 -57t32 -47.5t47.5 -32t57.5 -11.5h175q26 0 49.5 9t41 25.5t28 39t10.5 50.5v61l-237 55v71q0 35 11.5 63t31 48.5t45.5 32.5t54 15l87 10h7q25 0 51 -13t42 -36q8 -11 24 -36.5t33 -51.5q20 -31 42 -66q19 -30 47.5 -47t61.5 -17h25
q5 0 9.5 -2.5t4.5 -7.5v-13q0 -8 -4.5 -11t-9.5 -3h-27q-42 0 -75 19.5t-60 61.5l-99 155q-11 19 -29.5 27.5t-35.5 8.5h-8l-93 -10q-22 -2 -41.5 -13.5t-33 -29t-21.5 -39t-8 -44.5v-44l185 -45q23 -6 37.5 -24.5t14.5 -43.5v-35q0 -33 -13.5 -61.5t-36 -49.5t-52 -33.5
t-61.5 -12.5h-174q-37 0 -69.5 14t-56.5 38t-38 56.5t-14 69.5v217zM726 -177v56h56v-56h-56z" />
    <glyph glyph-name="uniFB59FBFD" unicode="&#xfb59;&#xfbfd;" horiz-adv-x="928" 
d="M89 182h31v-210q0 -30 12 -57t32 -47.5t47.5 -32t57.5 -11.5h175q26 0 49.5 9t41 25.5t28 39t10.5 50.5v61l-237 55v71q0 35 11.5 63t31 48.5t45.5 32.5t54 15l87 10h7q25 0 51 -13t42 -36q8 -11 24 -36.5t33 -51.5q20 -31 42 -66q19 -30 47.5 -47t61.5 -17h55
q14 0 14 -10v-13q0 -14 -14 -14h-57q-42 0 -75 19.5t-60 61.5l-99 155q-11 19 -29.5 27.5t-35.5 8.5h-8l-93 -10q-22 -2 -41.5 -13.5t-33 -29t-21.5 -39t-8 -44.5v-44l185 -45q23 -6 37.5 -24.5t14.5 -43.5v-35q0 -33 -13.5 -61.5t-36 -49.5t-52 -33.5t-61.5 -12.5h-174
q-37 0 -69.5 14t-56.5 38t-38 56.5t-14 69.5v217zM723 -120v-58h-58v58h58zM832 -120v-58h-57v58h57zM724 -272v57h58v-57h-58z" />
    <glyph glyph-name="uniFE98FBFD" unicode="&#xfe98;&#xfbfd;" horiz-adv-x="898" 
d="M89 182h31v-210q0 -30 12 -57t32 -47.5t47.5 -32t57.5 -11.5h175q26 0 49.5 9t41 25.5t28 39t10.5 50.5v61l-237 55v71q0 35 11.5 63t31 48.5t45.5 32.5t54 15l87 10h7q25 0 51 -13t42 -36q8 -11 24 -36.5t33 -51.5q20 -31 42 -66q19 -30 47.5 -47t61.5 -17h25
q5 0 9.5 -2.5t4.5 -7.5v-13q0 -8 -4.5 -11t-9.5 -3h-27q-42 0 -75 19.5t-60 61.5l-99 155q-11 19 -29.5 27.5t-35.5 8.5h-8l-93 -10q-22 -2 -41.5 -13.5t-33 -29t-21.5 -39t-8 -44.5v-44l185 -45q23 -6 37.5 -24.5t14.5 -43.5v-35q0 -33 -13.5 -61.5t-36 -49.5t-52 -33.5
t-61.5 -12.5h-174q-37 0 -69.5 14t-56.5 38t-38 56.5t-14 69.5v217zM605 507v-58h-58v58h58zM714 507v-58h-57v58h57z" />
    <glyph glyph-name="uniFE9CFBFD" unicode="&#xfe9c;&#xfbfd;" horiz-adv-x="898" 
d="M120 182v-210q0 -30 12 -57t32 -47.5t47.5 -32t57.5 -11.5h175q26 0 49.5 9t41 25.5t28 39t10.5 50.5v61l-237 55v71q0 35 11.5 63t31 48.5t45.5 32.5t54 15l87 10h7q25 0 51 -13t42 -36q8 -11 24 -36.5t33 -51.5q20 -31 42 -66q19 -30 47.5 -47t61.5 -17h25
q5 0 9.5 -2.5t4.5 -7.5v-13q0 -8 -4.5 -11t-9.5 -3h-27q-42 0 -75 19.5t-60 61.5l-99 155q-11 19 -29.5 27.5t-35.5 8.5h-8l-93 -10q-22 -2 -41.5 -13.5t-33 -29t-21.5 -39t-8 -44.5v-44l185 -45q23 -6 37.5 -24.5t14.5 -43.5v-35q0 -33 -13.5 -61.5t-36 -49.5t-52 -33.5
t-61.5 -12.5h-174q-37 0 -69.5 14t-56.5 38t-38 56.5t-14 69.5v217h31zM599 595h56v-55h-56v55zM712 503v-55h-56v55h56zM549 503h55v-55h-55v55z" />
    <glyph glyph-name="uniFEE8FBFD" unicode="&#xfee8;&#xfbfd;" horiz-adv-x="898" 
d="M120 182v-210q0 -30 12 -57t32 -47.5t47.5 -32t57.5 -11.5h175q26 0 49.5 9t41 25.5t28 39t10.5 50.5v61l-237 55v71q0 35 11.5 63t31 48.5t45.5 32.5t54 15l87 10h7q25 0 51 -13t42 -36q8 -11 24 -36.5t33 -51.5q20 -31 42 -66q19 -30 47.5 -47t61.5 -17h25
q5 0 9.5 -2.5t4.5 -7.5v-13q0 -8 -4.5 -11t-9.5 -3h-27q-42 0 -75 19.5t-60 61.5l-99 155q-11 19 -29.5 27.5t-35.5 8.5h-8l-93 -10q-22 -2 -41.5 -13.5t-33 -29t-21.5 -39t-8 -44.5v-44l185 -45q23 -6 37.5 -24.5t14.5 -43.5v-35q0 -33 -13.5 -61.5t-36 -49.5t-52 -33.5
t-61.5 -12.5h-174q-37 0 -69.5 14t-56.5 38t-38 56.5t-14 69.5v217h31zM598 507h58v-57h-58v57z" />
    <glyph glyph-name="uniFBFDFE8C" unicode="&#xfe8c;&#xfbfd;" horiz-adv-x="898" 
d="M120 182v-210q0 -30 12 -57t32 -47.5t47.5 -32t57.5 -11.5h175q26 0 49.5 9t41 25.5t28 39t10.5 50.5v61l-237 55v71q0 35 11.5 63t31 48.5t45.5 32.5t54 15l87 10h7q25 0 51 -13t42 -36q8 -11 24 -36.5t33 -51.5q20 -31 42 -66q19 -30 47.5 -47t61.5 -17h25
q5 0 9.5 -2.5t4.5 -7.5v-13q0 -8 -4.5 -11t-9.5 -3h-27q-42 0 -75 19.5t-60 61.5l-99 155q-11 19 -29.5 27.5t-35.5 8.5h-8l-93 -10q-22 -2 -41.5 -13.5t-33 -29t-21.5 -39t-8 -44.5v-44l185 -45q23 -6 37.5 -24.5t14.5 -43.5v-35q0 -33 -13.5 -61.5t-36 -49.5t-52 -33.5
t-61.5 -12.5h-174q-37 0 -69.5 14t-56.5 38t-38 56.5t-14 69.5v217h31zM557 425q-1 2 -7 6.5t-12 17.5q-1 1 -4 7.5t-6.5 14.5t-6.5 15t-4 9q-8 18 -8 37t7 35.5t19.5 30t28.5 20.5l67 28l6 -13l-77 -37q-12 -5 -20 -15t-11.5 -21t-3.5 -21q0 -3 0.5 -11.5t6.5 -21.5
q2 -5 7 -15l21 -43q5 -11 8 -17l160 83l8 -17l-257 -131l-10 17z" />
    <glyph glyph-name="uniFBFDFBFF" unicode="&#xfbff;&#xfbfd;" horiz-adv-x="926" 
d="M120 182v-210q0 -30 12 -57t32 -47.5t47.5 -32t57.5 -11.5h175q26 0 49.5 9t41 25.5t28 39t10.5 50.5v61l-237 55v71q0 35 11.5 63t31 48.5t45.5 32.5t54 15l87 10h7q25 0 51 -13t42 -36q8 -11 24 -36.5t33 -51.5q20 -31 42 -66q19 -30 47.5 -47t61.5 -17h53
q5 0 9.5 -2.5t4.5 -7.5v-13q0 -8 -4.5 -11t-9.5 -3h-55q-42 0 -75 19.5t-60 61.5l-99 155q-11 19 -29.5 27.5t-35.5 8.5h-8l-93 -10q-22 -2 -41.5 -13.5t-33 -29t-21.5 -39t-8 -44.5v-44l185 -45q23 -6 37.5 -24.5t14.5 -43.5v-35q0 -33 -13.5 -61.5t-36 -49.5t-52 -33.5
t-61.5 -12.5h-174q-37 0 -69.5 14t-56.5 38t-38 56.5t-14 69.5v217h31zM742 -121v-57h-58v57h58zM851 -121v-57h-57v57h57z" />
    <glyph glyph-name="uni0621" unicode="&#x621;" horiz-adv-x="462" arabic-form="isolated" 
d="M179 59q-2 0 -10.5 6t-17.5 24l-23 48q-10 22 -10 44t7.5 41.5t22.5 35t34 23.5l79 33l11 -17l-92 -42q-25 -12 -34.5 -33.5t-9.5 -35.5q0 -17 8 -34q3 -4 8.5 -15.5t12 -24.5t13 -26.5t10.5 -22.5l190 98l9 -21l-303 -154l-10 19z" />
    <glyph glyph-name="uni0622" unicode="&#x622;" horiz-adv-x="203" arabic-form="isolated" 
d="M83 552h31v-552h-31v552zM-30 603q0 22 14.5 42t48.5 20h175v-31h-188q-10 0 -19 -9t-9 -20v-26h-22v24z" />
    <glyph glyph-name="uni0623" unicode="&#x623;" horiz-adv-x="205" arabic-form="isolated" 
d="M107 552h31v-552h-31v552zM65 657q-1 2 -5.5 6t-11.5 18l-2 7l-7 14q-4 8 -7 15t-5 10q-8 18 -8 36.5t6.5 35t19 30t29.5 20.5l68 28l4 -12l-76 -38q-23 -11 -29.5 -29t-6.5 -29q0 -14 7 -29q2 -4 6.5 -14t10.5 -21l11 -23q5 -12 8 -19l162 84l7 -17l-257 -133l-9 15z
" />
    <glyph glyph-name="uni0624" unicode="&#x624;" horiz-adv-x="453" arabic-form="isolated" 
d="M80 111q0 10 2 20l17 91q8 38 38 63t69 25h56q24 0 45.5 -9t37.5 -25t25.5 -37t9.5 -45v-217q0 -32 -10 -61.5t-27.5 -54t-42 -43t-54.5 -28.5l-94 -31l-11 34l100 34q49 17 78 58t29 92v28q-10 -5 -23 -5h-136q-26 0 -47.5 11t-36.5 29t-20 37t-5 34zM111 116
q0 -11 3 -21q5 -17 15.5 -30t25.5 -20.5t33 -7.5h161v157q0 36 -25.5 60.5t-61.5 24.5h-51q-31 0 -55 -19.5t-29 -48.5l-15 -82q-1 -7 -1 -13zM80 390l84 43q-2 0 -6.5 5t-9.5 16q0 1 -3 7.5t-6.5 14.5t-6.5 15t-5 10q-8 19 -8.5 29t-0.5 12q0 17 6.5 33t19 29t29.5 20
l69 28l4 -13l-76 -36q-23 -11 -29.5 -29.5t-6.5 -29.5q0 -15 7 -30q2 -4 6.5 -13.5t10 -21t11 -22.5t8.5 -19l162 83l7 -16l-259 -132z" />
    <glyph glyph-name="uni0625" unicode="&#x625;" horiz-adv-x="202" arabic-form="isolated" 
d="M101 634h31v-634h-31v634zM74 -289q-1 0 -5.5 5t-9.5 17l-3 6q-3 7 -6.5 15t-7 15t-4.5 10q-8 19 -8.5 29t-0.5 12q0 17 6.5 33t19 29t29.5 20l68 29l5 -14l-76 -36q-23 -11 -29.5 -29t-6.5 -29q0 -15 7 -30q2 -4 6 -13t10 -21l11 -23q5 -11 9 -19l162 82l7 -16
l-259 -132l-9 14z" />
    <glyph glyph-name="uni0626" unicode="&#x626;" horiz-adv-x="768" arabic-form="isolated" 
d="M89 38v232h31v-225q0 -30 11.5 -57t31.5 -47.5t47 -32t58 -11.5h196q27 0 50.5 10t41 28t27.5 41.5t10 50.5v53l-267 64v92q0 33 12 61t31.5 48.5t45 33.5t52.5 16l94 12l4 -28l-105 -15q-23 -3 -42 -15t-32.5 -29.5t-21 -38.5t-7.5 -44v-66l215 -52q24 -5 38 -19t14 -39
v-45q0 -32 -12 -60.5t-33 -49.5t-49.5 -33.5t-60.5 -12.5h-202q-37 0 -69.5 14t-56.5 38t-38 56.5t-14 69.5zM126 454q17 8 47 24q-3 2 -5 5t-5 7t-6 10l-22 47q-8 18 -8 37t6.5 35.5t19 29.5t30.5 20l67 28l5 -13l-76 -36q-23 -11 -29.5 -29.5t-6.5 -29.5q0 -16 7 -31
q2 -3 6.5 -12.5t10.5 -20.5l11 -23q5 -12 8 -20q35 18 64.5 33.5t51.5 26.5q25 13 46 24l7 -16l-259 -132l-7 17z" />
    <glyph glyph-name="uni0627" unicode="&#x627;" horiz-adv-x="198" arabic-form="isolated" 
d="M119 0h-31v634h31v-634z" />
    <glyph glyph-name="uni0628" unicode="&#x628;" horiz-adv-x="829" arabic-form="isolated" 
d="M119 292v-127q0 -27 10.5 -50t28 -40.5t41.5 -27.5t51 -10h381q20 0 37 7.5t30 20t20.5 30t7.5 37.5v160h31v-160q0 -27 -10.5 -51t-28.5 -42t-41.5 -28.5t-50.5 -10.5h-380q-32 0 -61 12.5t-50.5 33.5t-34 49.5t-12.5 60.5v136h31zM394 -119h57v-58h-57v58z" />
    <glyph glyph-name="uni0629" unicode="&#x629;" horiz-adv-x="465" arabic-form="isolated" 
d="M88 125v37q0 31 10 56q9 24 34 43q13 8 28 18t28 18q16 10 31 20l-68 45l17 28l12 -8q12 -9 30.5 -22t41 -28.5t43 -29.5t36.5 -25.5t22 -16.5q14 -11 27 -36t13 -61v-38q0 -32 -12.5 -58.5t-32.5 -45t-45 -28.5t-51 -10h-21q-27 0 -52.5 10t-45.5 28.5t-32.5 45
t-12.5 58.5zM129 91q9 -22 25 -38t37 -24.5t45 -8.5h11q22 0 42.5 8t36.5 23.5t26 37.5t10 50v35q0 35 -31 62q-4 3 -18 12t-30 20l-39 26l-96 -61q-16 -12 -21.5 -26t-7.5 -34v-35q0 -26 10 -47zM324 588v-58h-58v58h58zM157 588h57v-58h-57v58z" />
    <glyph glyph-name="uni062A" unicode="&#x62a;" horiz-adv-x="829" arabic-form="isolated" 
d="M89 156v136h31v-127q0 -27 10.5 -50t28 -40.5t41.5 -27.5t51 -10h381q20 0 37 7.5t30 20t20.5 30t7.5 37.5v160h31v-160q0 -27 -10.5 -51t-28.5 -42t-41.5 -28.5t-50.5 -10.5h-380q-32 0 -61 12.5t-50.5 33.5t-34 49.5t-12.5 60.5zM449 292v58h58v-58h-58zM340 292v58h57
v-58h-57z" />
    <glyph glyph-name="uni062B" unicode="&#x62b;" horiz-adv-x="828" arabic-form="isolated" 
d="M120 292v-127q0 -27 10.5 -50t28 -40.5t41.5 -27.5t51 -10h381q20 0 37 7.5t30 20t20.5 30t7.5 37.5v160h31v-160q0 -27 -10.5 -51t-28.5 -42t-41.5 -28.5t-50.5 -10.5h-380q-32 0 -61 12.5t-50.5 33.5t-34 49.5t-12.5 60.5v136h31zM449 446v-58h-58v58h58zM449 294v57
h58v-57h-58zM340 351h57v-57h-57v57z" />
    <glyph glyph-name="uni062C" unicode="&#x62c;" horiz-adv-x="642" arabic-form="isolated" 
d="M88 224l21 69q11 36 39 52.5t56 16.5q7 0 13 -1t12 -3l341 -103l-11 -25l-47 12q-10 3 -19 3q-19 0 -37 -12l-251 -187q-35 -26 -55 -64t-20 -83q0 -39 15.5 -73t41 -60t60.5 -41t74 -15h211v-36h-212q-45 0 -85 17t-69.5 46.5t-47 69.5t-17.5 86q0 56 26.5 104.5
t71.5 82.5l234 171q2 1 4.5 3t11.5 6l-236 70q-7 2 -14 2q-5 0 -14.5 -2t-21 -9.5t-20.5 -18.5t-13 -23l-19 -61zM348 -57h58v-57h-58v57z" />
    <glyph glyph-name="uni062D" unicode="&#x62d;" horiz-adv-x="642" arabic-form="isolated" 
d="M88 224l21 69q11 36 39 52.5t56 16.5q7 0 13 -1t12 -3l341 -103l-11 -25l-47 12q-10 3 -19 3q-19 0 -37 -12l-251 -187q-35 -26 -55 -64t-20 -83q0 -39 15.5 -73t41 -60t60.5 -41t74 -15h211v-36h-212q-45 0 -85 17t-69.5 46.5t-47 69.5t-17.5 86q0 56 26.5 104.5
t71.5 82.5l234 171q2 1 4.5 3t11.5 6l-236 70q-7 2 -14 2q-5 0 -14.5 -2t-21 -9.5t-20.5 -18.5t-13 -23l-19 -61z" />
    <glyph glyph-name="uni062E" unicode="&#x62e;" horiz-adv-x="643" arabic-form="isolated" 
d="M88 224l21 69q11 36 39 52.5t56 16.5q7 0 13 -1t12 -3l341 -103l-11 -25l-47 12q-10 3 -19 3q-19 0 -37 -12l-251 -187q-35 -26 -55 -64t-20 -83q0 -39 15.5 -73t41 -60t60.5 -41t74 -15h211v-36h-212q-45 0 -85 17t-69.5 46.5t-47 69.5t-17.5 86q0 56 26.5 104.5
t71.5 82.5l234 171q2 1 4.5 3t11.5 6l-236 70q-7 2 -14 2q-5 0 -14.5 -2t-21 -9.5t-20.5 -18.5t-13 -23l-19 -61zM174 562h57v-57h-57v57z" />
    <glyph glyph-name="uni062F" unicode="&#x62f;" horiz-adv-x="526" arabic-form="isolated" 
d="M89 170h27v-73q0 -25 13 -42.5t43 -17.5h149q41 0 64.5 16.5t32.5 37.5t9 42q0 5 -1.5 21t-12.5 35l-107 191l26 20l97 -176q24 -42 24.5 -63t0.5 -24q0 -37 -16 -67.5t-48 -50t-74 -19.5h-141q-18 0 -33.5 7t-27 18.5t-18.5 27t-7 33.5v84z" />
    <glyph glyph-name="uni0630" unicode="&#x630;" horiz-adv-x="526" arabic-form="isolated" 
d="M89 86v84h27v-73q0 -25 13 -42.5t43 -17.5h149q41 0 64.5 16.5t32.5 37.5t9 42q0 5 -1.5 21t-12.5 35l-107 191l26 20l97 -176q24 -42 24.5 -63t0.5 -24q0 -37 -16 -67.5t-48 -50t-74 -19.5h-141q-18 0 -33.5 7t-27 18.5t-18.5 27t-7 33.5zM240 544v58h58v-58h-58z" />
    <glyph glyph-name="uni0631" unicode="&#x631;" horiz-adv-x="287" arabic-form="isolated" 
d="M61 -174q48 17 77 58t29 92v289h31v-289q0 -31 -9.5 -60t-27 -53.5t-42.5 -43.5t-55 -29l-93 -31l-11 35z" />
    <glyph glyph-name="uni0632" unicode="&#x632;" horiz-adv-x="301" arabic-form="isolated" 
d="M60 -173q48 16 77.5 56.5t29.5 91.5v290h31v-288q0 -32 -9.5 -61.5t-27.5 -54t-42.5 -43t-54.5 -28.5l-93 -32l-11 35zM155 406v57h57v-57h-57z" />
    <glyph glyph-name="uni0633" unicode="&#x633;" horiz-adv-x="1124" arabic-form="isolated" 
d="M89 249h31v-238q0 -30 11.5 -57t32 -47.5t47.5 -32t57 -11.5h169q26 0 49.5 10t40.5 27t27 40t10 49v277h32v-133q0 -20 7 -37.5t20 -30.5t30.5 -20.5t37.5 -7.5h6q37 0 65 23.5t35 58.5l27 137l31 -4l-22 -107q-1 -7 -1 -15q0 -13 4.5 -29t17 -31t30.5 -24t39 -9h98v258
h31v-235q0 -60 -61 -60h-68q-36 0 -64 19t-44 54q-17 -35 -48 -54t-66 -19q-29 0 -56.5 11.5t-48.5 36.5v-56q0 -34 -12 -64t-33.5 -52.5t-50.5 -36t-63 -13.5h-170q-37 0 -69.5 14t-56.5 38t-38 56.5t-14 69.5v245z" />
    <glyph glyph-name="uni0634" unicode="&#x634;" horiz-adv-x="1124" arabic-form="isolated" 
d="M120 249v-238q0 -30 11.5 -57t32 -47.5t47.5 -32t57 -11.5h169q26 0 49.5 10t40.5 27t27 40t10 49v277h32v-133q0 -20 7 -37.5t20 -30.5t30.5 -20.5t37.5 -7.5h6q37 0 65 23.5t35 58.5l27 137l31 -4l-22 -107q-1 -7 -1 -15q0 -13 4.5 -29t17 -31t30.5 -24t39 -9h98v258
h31v-235q0 -60 -61 -60h-68q-36 0 -64 19t-44 54q-17 -35 -48 -54t-66 -19q-29 0 -56.5 11.5t-48.5 36.5v-56q0 -34 -12 -64t-33.5 -52.5t-50.5 -36t-63 -13.5h-170q-37 0 -69.5 14t-56.5 38t-38 56.5t-14 69.5v245h31zM743 456h58v-58h-58v58zM853 456h57v-58h-57v58z
M794 550h58v-57h-58v57z" />
    <glyph glyph-name="uni0635" unicode="&#x635;" horiz-adv-x="1179" arabic-form="isolated" 
d="M89 247h31v-236q0 -31 12 -58t32 -47.5t47.5 -32t57.5 -11.5h168q26 0 49.5 10t40.5 27t27 40t10 50v276h31v-143q0 -21 5.5 -35t12.5 -22q8 -10 18 -15l184 202q25 28 59.5 43t72.5 15h60q24 0 45.5 -9.5t37.5 -25.5t25.5 -37.5t9.5 -45.5v-80q0 -23 -9 -43.5t-24 -35.5
t-35.5 -24t-43.5 -9h-300q-53 0 -80 10t-37 29v-47q0 -35 -12.5 -65t-34 -53t-50.5 -36t-62 -13h-170q-37 0 -69.5 14t-56.5 38t-38 56.5t-14 69.5v244zM1013 37q34 0 57.5 22t23.5 59v72q0 37 -25.5 62.5t-62.5 25.5h-52q-40 0 -69 -13.5t-52 -39.5l-174 -188h354z" />
    <glyph glyph-name="uni0636" unicode="&#x636;" horiz-adv-x="1197" arabic-form="isolated" 
d="M120 247v-236q0 -31 12 -58t32 -47.5t47.5 -32t57.5 -11.5h168q26 0 49.5 10t40.5 27t27 40t10 50v276h31v-143q0 -21 5.5 -35t12.5 -22q8 -10 18 -15l184 202q25 28 59.5 43t72.5 15h60q24 0 45.5 -9.5t37.5 -25.5t25.5 -37.5t9.5 -45.5v-80q0 -23 -9 -43.5t-24 -35.5
t-35.5 -24t-43.5 -9h-300q-53 0 -80 10t-37 29v-47q0 -35 -12.5 -65t-34 -53t-50.5 -36t-62 -13h-170q-37 0 -69.5 14t-56.5 38t-38 56.5t-14 69.5v244h31zM1013 37q34 0 57.5 22t23.5 59v72q0 37 -25.5 62.5t-62.5 25.5h-52q-40 0 -69 -13.5t-52 -39.5l-174 -188h354z
M932 452v58h58v-58h-58z" />
    <glyph glyph-name="uni0637" unicode="&#x637;" horiz-adv-x="726" arabic-form="isolated" 
d="M89 37h55l117 126v472h31v-413q0 -11 -0.5 -16.5t-0.5 -7.5q0 -3 1 -3q2 2 8 9t13 15t13 14.5t7 8.5q27 33 64 50.5t79 17.5h61q24 0 45.5 -9.5t37.5 -25.5t25.5 -37.5t9.5 -45.5v-80q0 -23 -9 -43.5t-24 -35.5t-35.5 -24t-43.5 -9h-454v37zM543 37q33 0 57 23.5t24 57.5
v72q0 37 -26 62.5t-63 25.5h-52q-35 0 -67 -14t-55 -40l-179 -187h361z" />
    <glyph glyph-name="uni0638" unicode="&#x638;" horiz-adv-x="726" arabic-form="isolated" 
d="M89 37h55l117 126v472h31v-413q0 -11 -0.5 -16.5t-0.5 -7.5q0 -3 1 -3q2 2 8 9t13 15t13 14.5t7 8.5q27 33 64 50.5t79 17.5h61q24 0 45.5 -9.5t37.5 -25.5t25.5 -37.5t9.5 -45.5v-80q0 -23 -9 -43.5t-24 -35.5t-35.5 -24t-43.5 -9h-454v37zM182 37h361q33 0 57 23.5
t24 57.5v72q0 37 -26 62.5t-63 25.5h-52q-35 0 -67 -14t-55 -40zM529 510v-57h-58v57h58z" />
    <glyph glyph-name="uni0639" unicode="&#x639;" horiz-adv-x="561" arabic-form="isolated" 
d="M88 -221q0 63 27 108q26 46 62 71q-7 10 -12 20.5t-7 24.5l-33 165q-2 11 -2 21q0 14 5 32.5t20 37t36.5 29.5t47.5 11h124v-31h-131q-17 0 -31.5 -7.5t-24.5 -19.5t-13.5 -24.5t-3.5 -22.5q0 -6 1 -13l41 -214q4 1 16.5 5t30 9.5t39 12.5t43.5 14q51 17 113 37l9 -30
l-211 -66q-19 -6 -39.5 -18.5t-37.5 -32t-28.5 -46.5t-11.5 -61q0 -36 13.5 -69t38 -58t60 -40t79.5 -15h193v-36h-194q-45 0 -84.5 16.5t-69.5 45t-47.5 66t-17.5 78.5z" />
    <glyph glyph-name="uni063A" unicode="&#x63a;" horiz-adv-x="561" arabic-form="isolated" 
d="M115 -112q26 45 62 70q-7 10 -12 20.5t-7 24.5l-23 152q-2 10 -2 19q0 15 5.5 34t20 37t36 29t47.5 11h122v-31h-129q-17 0 -32 -7.5t-25 -19.5t-13.5 -24.5t-3.5 -22.5q0 -6 1 -13l32 -200q4 1 16.5 5t30 9.5t39 12.5t43.5 14q51 17 113 37l9 -30l-211 -66
q-19 -6 -39.5 -18.5t-37.5 -32t-28.5 -45.5t-11.5 -59q0 -37 15 -70.5t41 -59t60.5 -40.5t74.5 -15h193v-36h-194q-45 0 -84.5 16.5t-69.5 45t-47.5 66t-17.5 79.5q0 63 27 108zM234 417v57h57v-57h-57z" />
    <glyph glyph-name="uni0641" unicode="&#x641;" horiz-adv-x="830" arabic-form="isolated" 
d="M89 291h31v-134q0 -53 32.5 -86.5t89.5 -33.5h375q21 0 41 5t35.5 16.5t24.5 31.5t9 50v8q-5 -2 -11 -3.5t-12 -1.5h-132q-26 0 -47.5 10.5t-36 28.5t-19.5 37t-5 33q0 10 2 20l16 87q8 38 38 63t69 25h51q25 0 46.5 -9t37.5 -25t25 -38t9 -47v-196q0 -28 -10.5 -52
t-28.5 -42t-42 -28t-51 -10h-374q-38 0 -68.5 12t-51.5 34t-32 51.5t-11 63.5v130zM495 258q0 -11 3 -21q5 -16 15.5 -29t26 -20.5t33.5 -7.5h154v148q0 37 -24.5 62.5t-61.5 25.5h-47q-32 0 -55 -20.5t-29 -49.5l-14 -75q-1 -7 -1 -13zM594 588v58h57v-58h-57z" />
    <glyph glyph-name="uni0642" unicode="&#x642;" horiz-adv-x="681" arabic-form="isolated" 
d="M120 170v-210q0 -30 11.5 -57t32 -47.5t47.5 -32t57 -11.5h169q26 0 49.5 10.5t40.5 28.5t27 42t10 51v61q-3 -2 -9 -3.5t-16 -1.5h-130q-25 0 -47 10.5t-36.5 28.5t-20 37t-5.5 34q0 9 2 19l17 86q8 39 38 64t69 25h50q24 0 46 -9.5t38 -25.5t25 -36.5t9 -42.5v-257
q0 -33 -12 -61.5t-33.5 -50t-50 -34t-61.5 -12.5h-171q-37 0 -69.5 14t-56.5 38t-38 56.5t-14 69.5v217h32zM336 94q4 -17 14.5 -29.5t25.5 -20t33 -7.5h154v149q0 36 -24.5 61.5t-59.5 25.5h-49q-30 0 -53.5 -20t-28.5 -49l-14 -76q-1 -7 -1 -13q0 -11 3 -21zM480 504h57
v-57h-57v57zM371 447v57h57v-57h-57z" />
    <glyph glyph-name="uni0643" unicode="&#x643;" horiz-adv-x="837" arabic-form="isolated" 
d="M120 291v-126q0 -27 10.5 -50.5t28 -40.5t41.5 -27t51 -10h381q20 0 37 7.5t30 20t20.5 30t7.5 37.5v489h31v-489q0 -28 -10.5 -52t-28.5 -42t-41.5 -28t-50.5 -10h-381q-32 0 -60.5 12t-50 33t-34 49.5t-12.5 60.5v136h31zM391 294h1q0 1 -5 5t-13 18q0 1 -2.5 7
t-6.5 14t-7 15t-5 9q-8 19 -8 38t6.5 35.5t19 29.5t29.5 20l68 29l4 -14l-76 -36q-23 -11 -29.5 -29.5t-6.5 -29.5q0 -15 7 -30l7 -13q4 -9 9 -20.5t10.5 -23t9.5 -19.5l162 84l8 -17l-260 -132l-7 15z" />
    <glyph glyph-name="uni0644" unicode="&#x644;" horiz-adv-x="675" arabic-form="isolated" 
d="M89 220h31v-209q0 -30 11.5 -57.5t31.5 -47.5t47 -32t58 -12h169q26 0 49.5 10t40.5 27.5t27 40.5t10 50v645h31v-652q0 -33 -12.5 -62t-34 -50t-50 -33.5t-61.5 -12.5h-170q-37 0 -69.5 14t-56.5 38t-38 56.5t-14 69.5v217z" />
    <glyph glyph-name="uni0645" unicode="&#x645;" horiz-adv-x="616" arabic-form="isolated" 
d="M88 -241v419q0 27 10.5 51t28.5 42t42 28t51 10h207q24 0 45.5 -9t37.5 -24.5t25 -37t9 -45.5v-133q0 -60 -60 -60h-130q-26 0 -47.5 11t-36.5 29t-20 37t-5 33q0 10 2 20l27 148h-59q-20 0 -37.5 -8.5t-30.5 -23t-20.5 -33t-7.5 -38.5v-416h-31zM276 114q0 -10 2 -19
q3 -17 12.5 -29.5t25.5 -20.5t38 -8h159v157q0 35 -25 59.5t-60 24.5h-125l-26 -150q-1 -7 -1 -14z" />
    <glyph glyph-name="uni0646" unicode="&#x646;" horiz-adv-x="675" arabic-form="isolated" 
d="M88 248h32v-237q0 -30 11.5 -57.5t31.5 -47.5t47 -32t58 -12h169q26 0 49.5 10t40.5 27t27 40.5t10 49.5v276h31v-282q0 -33 -12.5 -62t-34 -50t-50 -33.5t-60.5 -12.5h-172q-37 0 -69.5 14t-56.5 38t-38 56.5t-14 69.5v245zM371 324v-58h-58v58h58z" />
    <glyph glyph-name="uni0647" unicode="&#x647;" horiz-adv-x="465" arabic-form="isolated" 
d="M89 162q0 31 9 55.5t35 43.5q13 8 27.5 18t27.5 18q16 10 31 20l-68 45l17 28l9 -6q8 -6 20.5 -15t29 -20.5t33.5 -23.5q41 -28 92 -64q15 -14 28 -38t13 -60v-38q0 -32 -12.5 -58t-32.5 -44.5t-45 -28.5t-51 -10h-21q-27 0 -52.5 10t-45.5 28.5t-32 44.5t-12 58v37z
M120 173v-35q0 -26 9.5 -47.5t25.5 -37t37 -24t44 -8.5h11q22 0 42.5 8t36.5 23t26 37t10 50v35q0 35 -30 62q-5 3 -19 12t-29 20l-39 26l-97 -61q-15 -12 -21 -26t-7 -34z" />
    <glyph glyph-name="uni0648" unicode="&#x648;" horiz-adv-x="454" arabic-form="isolated" 
d="M80 111q0 10 2 20l17 91q8 38 38 63t69 25h56q24 0 45.5 -9t37.5 -25t25.5 -37t9.5 -45v-217q0 -32 -10 -61.5t-27.5 -54t-42 -43t-54.5 -28.5l-94 -31l-11 34l100 34q49 17 78 58t29 92v28q-10 -5 -23 -5h-136q-26 0 -47.5 11t-36.5 29t-20 37t-5 34zM114 95
q5 -17 15.5 -30t25.5 -20.5t33 -7.5h161v157q0 36 -25.5 60.5t-61.5 24.5h-51q-31 0 -55 -19.5t-29 -48.5l-15 -82q-1 -7 -1 -13q0 -11 3 -21z" />
    <glyph glyph-name="uni0649" unicode="&#x649;" horiz-adv-x="701" arabic-form="isolated" 
d="M89 270h31v-225q0 -30 11.5 -57t31.5 -47.5t47 -32t58 -11.5h196q27 0 50.5 10t41 28t27.5 41.5t10 50.5v53l-267 64v92q0 33 12 61t31.5 48.5t45 33.5t52.5 16l94 12l4 -28l-105 -15q-23 -3 -42 -15t-32.5 -29.5t-21 -38.5t-7.5 -44v-66l215 -52q24 -5 38 -19t14 -39
v-45q0 -32 -12 -60.5t-33 -49.5t-49.5 -33.5t-60.5 -12.5h-202q-37 0 -69.5 14t-56.5 38t-38 56.5t-14 69.5v232z" />
    <glyph glyph-name="uni064A" unicode="&#x64a;" horiz-adv-x="701" arabic-form="isolated" 
d="M120 270v-225q0 -30 11.5 -57t31.5 -47.5t47 -32t58 -11.5h196q27 0 50.5 10t41 28t27.5 41.5t10 50.5v53l-267 64v92q0 33 12 61t31.5 48.5t45 33.5t52.5 16l94 12l4 -28l-105 -15q-23 -3 -42 -15t-32.5 -29.5t-21 -38.5t-7.5 -44v-66l215 -52q24 -5 38 -19t14 -39v-45
q0 -32 -12 -60.5t-33 -49.5t-49.5 -33.5t-60.5 -12.5h-202q-37 0 -69.5 14t-56.5 38t-38 56.5t-14 69.5v232h31zM267 -233h58v-57h-58v57zM377 -233h57v-57h-57v57z" />
    <glyph glyph-name="uni064B" unicode="&#xfe70;" arabic-form="isolated" 
d="M-136 717l268 58l5 -18l-270 -57zM-136 826l268 58l5 -18l-270 -57z" />
    <glyph glyph-name="uni064C" unicode="&#xfe72;" arabic-form="isolated" 
d="M-94 729l-24 114l17 3l23 -114l64 13q-2 8 -5 22t-6.5 29.5t-7 28.5t-4.5 18t-1 10q0 6 1.5 14t8 18t18.5 16.5t31 7.5h54q22 -2 40 -15t23 -35l10 -49q2 -7 2 -13q0 -15 -13.5 -27.5t-37.5 -18.5l-11 -2q-11 -2 -28.5 -6t-39.5 -8.5t-45 -9.5q-54 -11 -122 -25l-3 18z
M-19 852q0 -5 1 -11l24 -92l95 21q10 5 18.5 12.5t8.5 16.5q0 3 -1 6q0 1 -1.5 9.5t-3.5 19.5q-2 12 -5 28q-2 15 -15.5 21.5t-23.5 6.5h-3l-65 -4h-2q-11 0 -19 -10t-8 -24z" />
    <glyph glyph-name="uni064D" unicode="&#xfe74;" arabic-form="isolated" 
d="M-137 -168l268 58l5 -18l-270 -57zM-137 -59l268 58l5 -18l-270 -57z" />
    <glyph glyph-name="uni064E" unicode="&#xfe76;" arabic-form="isolated" 
d="M-137 718l269 57l5 -17l-270 -58z" />
    <glyph glyph-name="uni064F" unicode="&#xfe78;" arabic-form="isolated" 
d="M-24 741q-2 8 -5 22.5t-6.5 30t-6.5 28.5t-4 18q-2 6 -2 13q0 3 1 10.5t7.5 17t19 16t30.5 7.5l54 3h6q19 0 36 -11.5t22 -40.5l9 -48q3 -9 3 -17q0 -13 -10.5 -24.5t-35.5 -16.5q-1 0 -11 -2t-26 -6t-36.5 -8t-41.5 -9q-50 -11 -112 -24l-6 17zM-28 837l23 -92l95 22
q5 2 10.5 3.5t9.5 5t5.5 8.5t1.5 9t-1 9q0 1 -1.5 9.5t-3.5 18.5q-2 13 -5 28q-2 15 -13 22t-28 7l-64 -4q-12 0 -22 -9.5t-10 -21.5q0 -7 3 -15z" />
    <glyph glyph-name="uni0650" unicode="&#xfe7a;" arabic-form="isolated" 
d="M-137 -52l269 57l5 -17l-270 -58z" />
    <glyph glyph-name="uni0651" unicode="&#xfe7c;" arabic-form="isolated" 
d="M-114 829v-58q1 -20 16 -34.5t35 -15.5h7q20 0 34.5 12t18.5 30l10 58l17 -4l-9 -48q-1 -4 -1 -8q0 -16 14 -28t32 -12h52v113h17v-108q0 -17 -5 -21.5t-23 -4.5h-34q-19 0 -35.5 8.5t-25.5 26.5q-9 -18 -26.5 -26.5t-37.5 -8.5q-30 0 -51 20.5t-21 51.5v57h16z" />
    <glyph glyph-name="uni0652" unicode="&#xfe7e;" arabic-form="isolated" 
d="M-75 770v11q0 29 20.5 49.5t49.5 20.5h10q29 0 50 -20.5t21 -49.5v-11q0 -29 -21 -49.5t-50 -20.5h-10q-29 0 -49.5 19.5t-20.5 50.5zM-43 735q15 -15 38 -16h11q23 0 38.5 15.5t15.5 38.5v8q0 23 -15.5 38t-38.5 15h-11q-23 0 -38 -14.5t-15 -35.5v-11q0 -23 15 -38z
" />
    <glyph glyph-name="uni0671" unicode="&#x671;" horiz-adv-x="288" arabic-form="isolated" 
d="M-40 627h12q22 0 37 15t15 37v14h21v-33q0 -6 2.5 -12t10.5 -14l105 103q15 14 34 23t40 9h25q28 0 47 -19t19 -47v-32q0 -29 -18.5 -47.5t-47.5 -18.5h-163q-33 0 -45.5 11t-22.5 35q-11 -24 -27.5 -35t-36.5 -11h-7v22zM261 627q20 0 33.5 14t13.5 33v26
q0 21 -14.5 35.5t-35.5 14.5h-13q-19 0 -37 -7.5t-31 -21.5l-98 -94h182zM149 552h31v-552h-31v552z" />
    <glyph glyph-name="uni067E" unicode="&#x67e;" horiz-adv-x="829" arabic-form="isolated" 
d="M89 156v136h31v-127q0 -27 10.5 -50t28 -40.5t41.5 -27.5t51 -10h381q20 0 37 7.5t30 20t20.5 30t7.5 37.5v160h31v-160q0 -27 -10.5 -51t-28.5 -42t-41.5 -28.5t-50.5 -10.5h-380q-32 0 -61 12.5t-50.5 33.5t-34 49.5t-12.5 60.5zM472 -178v58h58v-58h-58zM420 -120v-58
h-57v58h57zM422 -272v57h57v-57h-57z" />
    <glyph glyph-name="uni0686" unicode="&#x686;" horiz-adv-x="642" arabic-form="isolated" 
d="M88 224l21 69q11 36 39 52.5t56 16.5q7 0 13 -1t12 -3l341 -103l-11 -25l-47 12q-10 3 -19 3q-19 0 -37 -12l-251 -187q-35 -26 -55 -64t-20 -83q0 -39 15.5 -73t41 -60t60.5 -41t74 -15h211v-36h-212q-45 0 -85 17t-69.5 46.5t-47 69.5t-17.5 86q0 56 26.5 104.5
t71.5 82.5l234 171q2 1 4.5 3t11.5 6l-236 70q-7 2 -14 2q-5 0 -14.5 -2t-21 -9.5t-20.5 -18.5t-13 -23l-19 -61zM307 -16h66v-66h-66v66zM430 -82v66h66v-66h-66zM437 -122v-66h-65v66h65z" />
    <glyph glyph-name="uni0698" unicode="&#x698;" horiz-adv-x="319" arabic-form="isolated" 
d="M-40 -206l101 32q48 17 77 58t29 92v289h31v-289q0 -31 -9.5 -60.5t-27 -54t-42.5 -44t-55 -29.5l-93 -31zM212 562v-58h-57v58h57zM212 410v57h58v-57h-58zM103 410v57h57v-57h-57z" />
    <glyph glyph-name="uni06A9" unicode="&#x6a9;" horiz-adv-x="851" arabic-form="isolated" 
d="M120 348v-191q0 -53 32 -86.5t88 -33.5h366q38 0 70 18.5t46.5 46.5t14.5 60q0 8 -2.5 33t-35.5 71l-151 212v41l277 143l15 -31l-263 -136l149 -212q35 -51 38 -81.5t3 -40.5q0 -38 -17 -74.5t-57 -61.5t-96 -25h-347q-37 0 -67 12.5t-51 34t-32 51.5t-11 64v186h31z
" />
    <glyph glyph-name="uni06AF" unicode="&#x6af;" horiz-adv-x="851" arabic-form="isolated" 
d="M89 348h31v-191q0 -53 32 -86.5t88 -33.5h366q38 0 70 18.5t46.5 46.5t14.5 60q0 8 -2.5 33t-35.5 71l-151 212v41l277 143l15 -31l-263 -136l149 -212q35 -51 38 -81.5t3 -40.5q0 -38 -17 -74.5t-57 -61.5t-96 -25h-347q-37 0 -67 12.5t-51 34t-32 51.5t-11 64v186z
M781 750l12 -30l-239 -122l-12 29z" />
    <glyph glyph-name="uni06C0" unicode="&#x6c0;" horiz-adv-x="465" arabic-form="isolated" 
d="M88 162q0 31 10 56q9 24 34 43q13 8 28 18t28 18q16 10 31 20l-68 45l17 28l12 -8q12 -9 30.5 -22t41 -28.5t43 -29.5t36.5 -25.5t22 -16.5q14 -11 27 -36t13 -61v-38q0 -32 -12.5 -58.5t-32.5 -45t-45 -28.5t-51 -10h-21q-27 0 -52.5 10t-45.5 28.5t-32.5 45t-12.5 58.5
v37zM119 138q0 -26 10 -47q9 -22 25 -38t37 -24.5t45 -8.5h11q22 0 42.5 8t36.5 23.5t26 37.5t10 50v35q0 35 -31 62q-4 3 -18 12t-30 20l-39 26l-96 -61q-16 -12 -21.5 -26t-7.5 -34v-35zM213 525q-1 0 -5.5 5t-10.5 17q0 1 -3 7.5t-7 14t-7 14.5t-5 10q-8 19 -8 38
t6.5 35.5t19 29.5t29.5 20l68 29l5 -14l-77 -36q-23 -11 -29.5 -29.5t-6.5 -29.5q0 -15 7 -30q2 -4 6.5 -14t10 -21.5t11.5 -22.5l9 -19l161 84l8 -16l-258 -132l-7 15z" />
    <glyph glyph-name="uni06CC" unicode="&#x6cc;" horiz-adv-x="701" arabic-form="isolated" 
d="M89 270h31v-225q0 -30 11.5 -57t31.5 -47.5t47 -32t58 -11.5h196q27 0 50.5 10t41 28t27.5 41.5t10 50.5v53l-267 64v92q0 33 12 61t31.5 48.5t45 33.5t52.5 16l94 12l4 -28l-105 -15q-23 -3 -42 -15t-32.5 -29.5t-21 -38.5t-7.5 -44v-66l215 -52q24 -5 38 -19t14 -39
v-45q0 -32 -12 -60.5t-33 -49.5t-49.5 -33.5t-60.5 -12.5h-202q-37 0 -69.5 14t-56.5 38t-38 56.5t-14 69.5v232z" />
    <glyph glyph-name="uniFB51" unicode="&#x671;" horiz-adv-x="293" arabic-form="final" 
d="M-40 627h12q22 0 37 15t15 37v14h21v-33q0 -6 2.5 -12t10.5 -14l105 103q15 14 34 23t40 9h25q28 0 47 -19t19 -47v-32q0 -29 -18.5 -47.5t-47.5 -18.5h-163q-21 0 -38 9.5t-28 26.5q-10 -17 -28 -26.5t-38 -9.5h-7v22zM124 552h31v-420q0 -20 7.5 -37.5t20.5 -30t30 -20
t36 -7.5h44q14 0 14 -13v-10q0 -14 -14 -14h-37q-27 0 -51 10.5t-42 28.5t-28.5 42t-10.5 52v419zM79 627h182q20 0 33.5 14t13.5 33v26q0 21 -14.5 35.5t-35.5 14.5h-13q-20 0 -37.5 -8.5t-30.5 -20.5z" />
    <glyph glyph-name="uniFB57" unicode="&#x67e;" horiz-adv-x="882" arabic-form="final" 
d="M89 292h31v-126q0 -27 10 -50.5t28 -41t41.5 -27.5t50.5 -10h383q19 0 36 7.5t30 20t20.5 30t7.5 37.5v133h31v-133q0 -40 27.5 -67.5t67.5 -27.5h29q14 0 14 -14v-9q0 -14 -14 -14h-23q-37 0 -68 18.5t-48 53.5q-19 -35 -49.5 -53.5t-67.5 -18.5h-380q-32 0 -60.5 12
t-50 33t-34 49.5t-12.5 60.5v137zM471 -120h58v-58h-58v58zM419 -120v-58h-57v58h57zM421 -215h57v-57h-57v57z" />
    <glyph glyph-name="uniFB58" unicode="&#x67e;" horiz-adv-x="283" arabic-form="initial" 
d="M-10 33q4 4 10 4h76q20 0 37 7.5t29.5 20t20 29.5t7.5 36v163h31v-163q0 -27 -10 -50.5t-28 -41t-41.5 -28t-50.5 -10.5h-71q-14 0 -14 14v8q0 6 4 11zM58 -214h58v-58h-58v58zM-1 -120h58v-57h-58v57zM166 -120v-57h-57v57h57z" />
    <glyph glyph-name="uniFB59" unicode="&#x67e;" horiz-adv-x="319" arabic-form="medial" 
d="M0 37h44q37 0 65 23t35 58l27 139l31 -5l-23 -115q-2 -8 -2 -16q0 -11 5 -25.5t18 -28.5t31 -22t39 -8h49q14 0 14 -14v-9q0 -14 -14 -14h-50q-35 0 -67 20t-40 52q-20 -32 -49 -52t-64 -20h-49q-14 0 -14 14v9q0 14 14 14zM137 -272v58h58v-58h-58zM78 -120h58v-57h-58
v57zM188 -177v57h57v-57h-57z" />
    <glyph glyph-name="uniFB7B" unicode="&#x686;" horiz-adv-x="675" arabic-form="final" 
d="M110 294q11 36 39 52.5t56 16.5q7 0 13 -1t12 -3l341 -103l-11 -25l-47 12q-10 2 -19 2q-25 0 -46 -18v-94q0 -20 7.5 -37.5t20.5 -30.5t30.5 -20.5t36.5 -7.5h131q6 0 11 -4t5 -10v-9q0 -6 -5 -10t-11 -4h-125q-27 0 -50 10.5t-40 29t-26.5 43.5t-9.5 54v70l-217 -160
q-35 -26 -55 -64t-20 -83q0 -39 15.5 -73t41 -60t60.5 -41t74 -15h211v-36h-212q-45 0 -84.5 17t-69.5 46.5t-47.5 69t-17.5 84.5v4q0 55 26.5 103t71.5 82l234 171q5 4 7 5t9 4l-236 70q-7 2 -14 2q-5 0 -14.5 -2t-21 -9.5t-20.5 -18.5t-13 -23l-19 -61l-23 6zM308 -184v54
h55v-54h-55zM256 -53h54v-54h-54v54zM410 -53v-54h-53v54h53z" />
    <glyph glyph-name="uniFB7C" unicode="&#x686;" horiz-adv-x="671" arabic-form="initial" 
d="M-14 14v10q0 13 14 13h148q107 2 188 70l117 99q5 4 10.5 9t12.5 10l-266 79q-8 2 -16 2q-5 0 -14.5 -1.5t-21 -8.5t-20 -18t-12.5 -24l-19 -61l-24 7l20 68q9 30 34.5 50t58.5 20q15 0 28 -4l375 -113l-8 -26l-34 11q-17 5 -27 5q-21 0 -37 -12.5t-42 -34.5l-117 -99
q-38 -32 -82.5 -48.5t-93.5 -16.5h-158q-14 0 -14 14zM280 -273v58h57v-58h-57zM388 -121v-57h-58v57h58zM221 -121h57v-57h-57v57z" />
    <glyph glyph-name="uniFB7D" unicode="&#x686;" horiz-adv-x="686" arabic-form="medial" 
d="M-10 34q3 3 8 3h150q107 2 188 70l117 99q5 4 11.5 9.5t11.5 9.5l-266 79q-8 2 -16 2q-5 0 -14.5 -1.5t-21 -8.5t-20 -18t-12.5 -24l-19 -61l-24 7l20 68q9 30 34.5 50t58.5 20q15 0 28 -4l375 -113l-8 -26l-34 11q-17 5 -27 5q-20 0 -36 -11.5t-36 -29.5v-38
q0 -40 28 -67.5t68 -27.5h131q6 0 10 -4.5t4 -9.5v-9q0 -14 -14 -14h-125q-30 0 -55 11.5t-42.5 31t-25.5 42.5t-8 46q0 7 1 15l-96 -81q-38 -32 -82.5 -48.5t-93.5 -16.5h-157q-15 0 -15 14v10q0 5 4 10zM343 -214v-58h-57v58h57zM225 -177v57h58v-57h-58zM392 -120v-57
h-57v57h57z" />
    <glyph glyph-name="uniFB8B" unicode="&#x698;" horiz-adv-x="414" arabic-form="final" 
d="M61 -174q49 16 78.5 57t29.5 92v288h31v-129q0 -40 27 -68.5t68 -28.5h119q6 0 10 -5t4 -11v-7q0 -14 -14 -14h-112q-32 0 -58.5 14t-43.5 34v-68q0 -33 -9.5 -63t-27 -55.5t-42.5 -45t-56 -29.5l-92 -32l-11 37zM208 560v-58h-57v58h57zM208 408v57h58v-57h-58zM156 465
v-57h-57v57h57z" />
    <glyph glyph-name="uniFB8F" unicode="&#x6a9;" horiz-adv-x="985" arabic-form="final" 
d="M120 348v-191q0 -53 32 -86.5t88 -33.5h366q40 0 71.5 19t45.5 48t14 59q0 9 -3 34.5t-35 70.5l-152 210v41l277 143l16 -31l-263 -136l286 -395q20 -28 47.5 -45.5t62.5 -17.5h12q8 0 11 -5t3 -11v-7q0 -14 -14 -14h-14q-47 0 -82 23.5t-67 71.5l-63 92q3 -18 3 -35
q0 -26 -10.5 -54.5t-35 -52t-56 -34.5t-61.5 -11h-349q-37 0 -67 12.5t-51 34t-32 51.5t-11 64v186h31z" />
    <glyph glyph-name="uniFB90" unicode="&#x6a9;" horiz-adv-x="376" arabic-form="initial" 
d="M-14 14v9q0 14 15 14h130q38 0 69.5 18.5t46 47t14.5 60.5q0 8 -2.5 33t-35.5 71l-151 212v39l278 144l16 -31l-264 -137l148 -212q36 -51 39.5 -82.5t3.5 -42.5q0 -37 -16.5 -72t-56.5 -60t-96 -25h-124q-14 0 -14 14z" />
    <glyph glyph-name="uniFB91" unicode="&#x6a9;" horiz-adv-x="511" arabic-form="medial" 
d="M-14 14v9q0 14 15 14h130q40 0 71.5 19t45 47.5t13.5 58.5q0 9 -3 34.5t-35 70.5l-151 211v40l278 144l16 -31l-264 -137l286 -394q21 -28 48.5 -45.5t62.5 -17.5h12q6 0 10 -5t4 -11v-7q0 -14 -14 -14h-14q-47 0 -83 22.5t-68 71.5l-61 93q3 -18 3 -35
q0 -27 -10.5 -55.5t-35 -51.5t-56.5 -34t-62 -11h-124q-14 0 -14 14z" />
    <glyph glyph-name="uniFB93" unicode="&#x6af;" horiz-adv-x="985" arabic-form="final" 
d="M89 348h31v-191q0 -53 32 -86.5t88 -33.5h366q40 0 71.5 19t45.5 48t14 59q0 9 -3 34.5t-35 70.5l-152 210v41l277 143l16 -31l-263 -136l286 -395q20 -28 47.5 -45.5t62.5 -17.5h12q8 0 11 -5t3 -11v-7q0 -14 -14 -14h-14q-47 0 -82 23.5t-67 71.5l-63 92q3 -18 3 -35
q0 -26 -10.5 -54.5t-35 -52t-56 -34.5t-61.5 -11h-349q-37 0 -67 12.5t-51 34t-32 51.5t-11 64v186zM542 627l239 123l12 -30l-239 -122z" />
    <glyph glyph-name="uniFB94" unicode="&#x6af;" horiz-adv-x="376" arabic-form="initial" 
d="M1 37h130q38 0 69.5 18.5t46 47t14.5 60.5q0 8 -2.5 33t-35.5 71l-151 212v39l278 144l16 -31l-264 -137l148 -212q36 -51 39.5 -82.5t3.5 -42.5q0 -37 -16.5 -72t-56.5 -60t-96 -25h-124q-14 0 -14 14v9q0 14 15 14zM63 627l239 122l13 -29l-240 -123z" />
    <glyph glyph-name="uniFB95" unicode="&#x6af;" horiz-adv-x="511" arabic-form="medial" 
d="M1 37h130q40 0 71.5 19t45 47.5t13.5 58.5q0 9 -3 34.5t-35 70.5l-151 211v40l278 144l16 -31l-264 -137l286 -394q21 -28 48.5 -45.5t62.5 -17.5h12q6 0 10 -5t4 -11v-7q0 -14 -14 -14h-14q-47 0 -83 22.5t-68 71.5l-61 93q3 -18 3 -35q0 -27 -10.5 -55.5t-35 -51.5
t-56.5 -34t-62 -11h-124q-14 0 -14 14v9q0 14 15 14zM303 749l12 -30l-239 -122l-12 29z" />
    <glyph glyph-name="uniFBA5" unicode="&#x6c0;" horiz-adv-x="506" arabic-form="final" 
d="M89 141v67q0 63 29.5 97t75.5 46l146 39v88h31v-340q0 -21 8.5 -39.5t23 -32t33.5 -21.5t40 -8h30q14 0 14 -14v-9q0 -14 -14 -14h-30q-43 0 -78.5 25t-49.5 63q-6 -5 -11.5 -9t-15.5 -4h-168q-38 0 -51 14t-13 52zM118 112h222v242l-145 -38q-36 -9 -56.5 -39.5
t-20.5 -65.5v-99zM201 535q0 2 -5.5 7t-10.5 17l-3 7q-3 6 -6.5 14t-7 15t-5.5 10q-9 21 -9 40q0 17 10.5 42.5t45.5 40.5l68 29l4 -14l-76 -36q-23 -11 -29.5 -29.5t-6.5 -29.5q0 -16 8 -31q2 -4 6.5 -14t9.5 -21t10.5 -22.5t8.5 -18.5l160 84l8 -16l-258 -134l-10 15z" />
    <glyph glyph-name="uniFBE8" unicode="&#x649;" horiz-adv-x="273" arabic-form="initial" 
d="M-14 14v8q0 6 4 11q4 4 10 4h76q20 0 37 7.5t29.5 20t20 29.5t7.5 36v163h31v-163q0 -27 -10 -50.5t-28 -41t-41.5 -28t-50.5 -10.5h-71q-14 0 -14 14z" />
    <glyph glyph-name="uniFBE9" unicode="&#x649;" horiz-adv-x="319" arabic-form="medial" 
d="M-14 14v9q0 14 14 14h44q37 0 65 23t35 58l27 139l31 -5l-23 -115q-2 -8 -2 -16q0 -11 5 -25.5t18 -28.5t31 -22t39 -8h49q14 0 14 -14v-9q0 -14 -14 -14h-50q-35 0 -67 20t-40 52q-20 -32 -49 -52t-64 -20h-49q-14 0 -14 14z" />
    <glyph glyph-name="uniFBFD" unicode="&#x6cc;" horiz-adv-x="729" arabic-form="final" 
d="M89 159h31v-210q0 -30 11.5 -57t32 -47.5t47.5 -32t57 -11.5h167q27 0 50.5 10t41 28t27.5 41.5t10 50.5v69h-178v37h343q14 0 14 -14v-10q0 -13 -14 -13h-139q6 -15 6 -25v-52q0 -32 -12.5 -61t-33.5 -51t-49.5 -34.5t-60.5 -12.5h-173q-37 0 -69.5 14t-56.5 38
t-38 56.5t-14 69.5v217z" />
    <glyph glyph-name="uniFBFE" unicode="&#x6cc;" horiz-adv-x="290" arabic-form="initial" 
d="M-10 33q4 4 10 4h76q20 0 37 7.5t29.5 20t20 29.5t7.5 36v163h31v-163q0 -27 -10 -50.5t-28 -41t-41.5 -28t-50.5 -10.5h-71q-14 0 -14 14v8q0 6 4 11zM161 -120v-57h-58v57h58zM-7 -120h58v-57h-58v57z" />
    <glyph glyph-name="uniFBFF" unicode="&#x6cc;" horiz-adv-x="319" arabic-form="medial" 
d="M-14 24q0 13 14 13h44q37 0 65 23t35 58l27 138l31 -5l-23 -115q-2 -8 -2 -15q0 -11 5 -25.5t18 -28.5t31 -22t39 -8h49q14 0 14 -13v-10q0 -14 -14 -14h-50q-35 0 -67 19.5t-40 52.5q-20 -33 -49 -52.5t-64 -19.5h-49q-14 0 -14 14v10zM79 -178v58h58v-58h-58zM189 -178
v58h57v-58h-57z" />
    <glyph glyph-name="uniFC5E" unicode="&#xfc5e;" arabic-form="isolated" 
d="M-149 904l56 11l-24 114l16 2l24 -113l63 13q-5 23 -10 43q-4 17 -7 33.5t-5 21.5q-1 5 -1 9q0 18 10.5 36t48.5 21h53q22 -1 40.5 -14.5t23.5 -35.5l10 -50q1 -6 1 -11q0 -16 -13 -29t-37 -18q-1 0 -12 -2t-28.5 -6t-40 -8.5t-45.5 -9.5q-54 -11 -122 -25zM-18 1038
q0 -5 1 -11l23 -91l96 20q9 5 18 12.5t9 17.5q0 3 -1 6l-10 56q-3 15 -16 21.5t-23 6.5h-3l-65 -4q-12 0 -20.5 -10.5t-8.5 -23.5zM-132 829h16v-58q1 -20 16 -34.5t35 -15.5l7 1q20 0 34.5 12t18.5 30l11 58l17 -5l-10 -48q-1 -4 -1 -8q0 -15 14 -27t32 -12h52v112h18v-107
q0 -17 -5.5 -22t-22.5 -5h-39q-19 0 -33.5 9t-23.5 23q-10 -14 -27 -23t-37 -10q-29 1 -50 21t-21 48v3z" />
    <glyph glyph-name="uniFC5F" unicode="&#xfc5f;" arabic-form="isolated" 
d="M-120 1057v-59q0 -18 14 -35q15 -15 35 -16h8q21 0 34 13q15 12 18 31l11 57l17 -3l-9 -50q-1 -4 -1 -8q0 -16 13 -26q16 -13 36 -13h49v113h17v-108q0 -17 -5 -22t-22 -5h-39q-21 0 -34 10q-14 8 -24 23q-10 -16 -28 -24q-17 -9 -35 -9q-30 0 -51 21t-21 51v59h17z
M132 884l5 -17l-270 -58l-3 17zM132 775l5 -17l-270 -58l-3 17z" />
    <glyph glyph-name="uniFC60" unicode="&#xfc60;" arabic-form="isolated" 
d="M-107 831v-60q0 -20 14.5 -34.5t34.5 -15.5h8q20 0 34.5 12.5t17.5 31.5l12 57l16 -3l-9 -50q-1 -4 -1 -8q0 -16 14.5 -27.5t34.5 -12.5h49v113h17v-107q0 -17 -5 -22t-22 -5h-39q-19 0 -34 9.5t-24 23.5q-10 -15 -26.5 -24t-36.5 -9q-30 0 -51 21t-21 51v59h17z
M-137 904l268 58l5 -17l-270 -58z" />
    <glyph glyph-name="uniFC61" unicode="&#xfc61;" arabic-form="isolated" 
d="M-138 904l114 24q-1 4 -3.5 18t-6 29.5t-7 30t-4.5 20.5q-2 7 -2 14q0 13 10 31t47 20l53 2q23 -1 41.5 -15t23.5 -36l10 -49q1 -6 1 -11q0 -36 -44 -47q-1 0 -11 -2t-26 -5.5t-36.5 -7.5t-41.5 -9q-50 -11 -112 -24zM-28 1034q0 -5 1 -10l22 -91l95 20q10 4 18.5 12
t8.5 18v5q0 1 -1.5 9.5t-3.5 19.5q-2 12 -5 28q-3 14 -15 21t-21 7h-5l-64 -3q-13 0 -21.5 -11.5t-8.5 -24.5zM-133 830h16v-59q1 -20 16 -34t35 -15h7q20 0 34.5 12t18.5 30l11 58l17 -4l-10 -49q-1 -4 -1 -8q0 -15 14 -27t32 -12h52v113h18v-108q0 -17 -5.5 -22t-22.5 -5
h-39q-19 0 -34 9t-24 24q-9 -15 -26 -24t-37 -9q-29 0 -50.5 21t-21.5 51v58z" />
    <glyph glyph-name="uniFC62" unicode="&#xfc62;" arabic-form="isolated" 
d="M-137 900v59h16v-59q1 -20 15.5 -34.5t34.5 -15.5h8q20 0 34 12t18 31l12 57l16 -3l-9 -50q-1 -4 -1 -8q0 -15 14.5 -27t34.5 -12h49v113h17v-108q0 -17 -5 -22t-22 -5h-39q-39 2 -58 34q-10 -16 -27 -25t-36 -9q-30 0 -51 21t-21 51zM-136 718l268 57l5 -17l-270 -58z
" />
    <glyph glyph-name="uniFC63" unicode="&#xfc63;" arabic-form="isolated" 
d="M-113 831v-60q1 -20 15.5 -34.5t34.5 -15.5h8q19 0 33.5 12.5t18.5 30.5l12 57l16 -2l-9 -50q-1 -4 -1 -8q0 -16 14 -27.5t34 -12.5h50v113h16v-107q0 -17 -5 -22t-22 -5h-39q-19 0 -33.5 9t-23.5 24q-10 -15 -27 -24t-36 -9q-30 0 -51 21t-21 51v59h16zM6 888v105h15
v-105h-15z" />
    <glyph glyph-name="uniFE82" unicode="&#x622;" horiz-adv-x="235" arabic-form="final" 
d="M96 552v-421q0 -19 7.5 -36.5t20 -30t30 -20t37.5 -7.5h44q5 0 9.5 -4.5t4.5 -10.5v-8q0 -6 -4.5 -10t-9.5 -4h-37q-28 0 -52 10.5t-42 28.5t-28.5 42t-10.5 51v420h31zM-16 603q0 10 5.5 21t14 20t20 15t23.5 6h174v-30h-187q-11 0 -20 -9.5t-9 -20.5v-26h-21v24z" />
    <glyph glyph-name="uniFE84" unicode="&#x623;" horiz-adv-x="223" arabic-form="final" 
d="M55 557h31v-426q0 -19 7.5 -36.5t20 -30t29.5 -20t36 -7.5h44q7 0 10.5 -4.5t3.5 -10.5v-8q0 -14 -14 -14h-37q-27 0 -51 10.5t-41.5 28.5t-28 42t-10.5 51v425zM73 658q0 1 -5 5.5t-10 17.5q0 1 -3 7.5t-6.5 14.5t-7 15t-4.5 10q-9 18 -9 36.5t6.5 35t19 29.5t29.5 20
l68 29l5 -13l-76 -37q-23 -11 -30 -29.5t-7 -29.5q0 -14 7 -29l37 -76l161 84l8 -18l-260 -132l-8 19z" />
    <glyph glyph-name="uniFE86" unicode="&#x624;" horiz-adv-x="467" arabic-form="final" 
d="M80 109q0 11 2 22l17 91q8 38 38 63t69 25h56q24 0 45.5 -9t37.5 -25t25.5 -37t9.5 -45v-157h87q8 0 11 -4.5t3 -9.5v-9q0 -14 -14 -14h-88v-21q0 -28 -8 -57t-25.5 -56t-43 -47t-56.5 -30l-94 -31l-11 34l100 34q49 17 78 58t29 92v29q-10 -5 -23 -5h-136
q-26 0 -47.5 11t-36.5 29t-20 37t-5 32zM114 95q4 -17 15 -30t26 -20.5t33 -7.5h161v157q0 36 -25.5 60.5t-61.5 24.5h-51q-31 0 -55 -19.5t-29 -48.5l-15 -82q-1 -7 -1 -13q0 -11 3 -21zM80 390l84 43q-2 0 -6.5 5t-9.5 16q0 1 -3 7.5t-6.5 14.5t-6.5 15t-5 10
q-8 19 -8.5 29t-0.5 12q0 17 6.5 33t19 29t29.5 20l69 28l4 -13l-76 -36q-23 -11 -29.5 -29.5t-6.5 -29.5q0 -15 7 -30q2 -4 6.5 -13.5t10 -21t11 -22.5t8.5 -19l162 83l7 -16l-259 -132z" />
    <glyph glyph-name="uniFE88" unicode="&#x625;" horiz-adv-x="257" arabic-form="final" 
d="M120 669v-538q0 -19 7.5 -36.5t20 -30t29.5 -20t36 -7.5h45q6 0 10 -4.5t4 -10.5v-8q0 -14 -14 -14h-38q-27 0 -51 10.5t-41.5 28.5t-28 42t-10.5 51v537h31zM101 -289q0 2 -5.5 6t-10.5 18l-3 6q-3 7 -6.5 15t-6.5 15t-5 10q-8 18 -8.5 28t-0.5 11q0 17 7 33t19.5 29
t29.5 20l66 29l5 -12l-77 -38q-22 -11 -28.5 -29t-6.5 -28q0 -16 8 -31l36 -76l162 84l8 -17l-260 -133l-9 19z" />
    <glyph glyph-name="uniFE8A" unicode="&#x626;" horiz-adv-x="729" arabic-form="final" 
d="M120 159v-210q0 -30 11.5 -57t32 -47.5t47.5 -32t57 -11.5h167q27 0 50.5 10t41 28t27.5 41.5t10 50.5v69h-178v37h343q14 0 14 -14v-10q0 -13 -14 -13h-139q6 -15 6 -25v-52q0 -32 -12.5 -61t-33.5 -51t-49.5 -34.5t-60.5 -12.5h-173q-37 0 -69.5 14t-56.5 38t-38 56.5
t-14 69.5v217h31zM173 381q0 1 -5.5 6.5t-10.5 17.5q-1 1 -3.5 7.5t-6 14.5t-6.5 15t-5 9q-9 20 -9 39q0 17 10.5 43t45.5 41l67 28l6 -14l-78 -35q-23 -10 -29 -29t-6 -30q0 -16 7 -31q2 -4 6.5 -14t10 -21t11 -22.5t8.5 -18.5l163 84l7 -16l-259 -134l-8 18z" />
    <glyph glyph-name="uniFE8B" unicode="&#x626;" horiz-adv-x="310" arabic-form="initial" 
d="M-14 22q0 6 4 11q4 4 10 4h76q20 0 37 7.5t29.5 20t20 29.5t7.5 36v163h31v-163q0 -27 -10 -50.5t-28 -41t-41.5 -28t-50.5 -10.5h-71q-14 0 -14 14v8zM76 408q-1 1 -6 6.5t-11 16.5q0 1 -3 7.5t-6.5 14.5t-6.5 15t-5 10q-8 19 -8 37.5t6.5 35t19 30t28.5 20.5l69 28
l4 -13l-76 -36q-12 -6 -20 -16t-12 -21.5t-4 -23.5q0 -1 0.5 -8.5t6.5 -20.5q2 -3 7 -12.5t10 -21t10.5 -23t8.5 -19.5q70 35 112.5 57.5t49.5 26.5l7 -16l-258 -132l-8 16z" />
    <glyph glyph-name="uniFE8C" unicode="&#x626;" horiz-adv-x="319" arabic-form="medial" 
d="M-14 24q0 13 14 13h44q37 0 65 23t35 58l27 138l31 -5l-23 -115q-2 -8 -2 -15q0 -11 5 -25.5t18 -28.5t31 -22t39 -8h49q14 0 14 -13v-10q0 -14 -14 -14h-50q-35 0 -67 19.5t-40 52.5q-20 -33 -49 -52.5t-64 -19.5h-49q-14 0 -14 14v10zM94 378q-1 0 -5.5 5t-10.5 19
q-1 1 -4 7t-6.5 13.5t-6.5 14.5t-5 9q-8 19 -8 38t6.5 35.5t19 29.5t29.5 20l67 29l5 -14l-76 -36q-23 -11 -29.5 -29t-6.5 -29q0 -15 7 -30l7 -14q5 -10 10 -21t10.5 -22.5t8.5 -18.5l162 82l7 -16l-258 -132l-8 18z" />
    <glyph glyph-name="uniFE8E" unicode="&#x627;" horiz-adv-x="265" arabic-form="final" 
d="M88 634h31v-504q0 -19 7.5 -36t20 -29.5t30 -20t36.5 -7.5h52q6 0 10 -4.5t4 -10.5v-8q0 -14 -14 -14h-45q-27 0 -51 10.5t-42 28t-28.5 41.5t-10.5 51v503z" />
    <glyph glyph-name="uniFE90" unicode="&#x628;" horiz-adv-x="881" arabic-form="final" 
d="M120 292v-126q0 -27 10 -50.5t27.5 -41t41 -27.5t50.5 -10h383q19 0 36 7.5t30 20t20.5 30t7.5 37.5v133h31v-133q0 -40 27.5 -67.5t67.5 -27.5h29q14 0 14 -14v-9q0 -14 -14 -14h-23q-37 0 -68 18.5t-48 53.5q-19 -35 -49.5 -53.5t-67.5 -18.5h-380q-32 0 -60.5 12
t-49.5 33t-33.5 49.5t-12.5 60.5v137h31zM394 -122h57v-58h-57v58z" />
    <glyph glyph-name="uniFE91" unicode="&#x628;" horiz-adv-x="273" arabic-form="initial" 
d="M-14 14v8q0 6 4 11q4 4 10 4h76q20 0 37 7.5t29.5 20t20 29.5t7.5 36v163h31v-163q0 -27 -10 -50.5t-28 -41t-41.5 -28t-50.5 -10.5h-71q-14 0 -14 14zM11 -120h58v-57h-58v57z" />
    <glyph glyph-name="uniFE92" unicode="&#x628;" horiz-adv-x="319" arabic-form="medial" 
d="M-14 24q0 13 14 13h44q37 0 65 23t35 58l27 138l31 -5l-23 -115q-2 -8 -2 -15q0 -11 5 -25.5t18 -28.5t31 -22t39 -8h49q14 0 14 -13v-10q0 -14 -14 -14h-50q-35 0 -67 19.5t-40 52.5q-20 -33 -49 -52.5t-64 -19.5h-49q-14 0 -14 14v10zM187 -121v-58h-57v58h57z" />
    <glyph glyph-name="uniFE94" unicode="&#x629;" horiz-adv-x="506" arabic-form="final" 
d="M89 141v67q0 62 29.5 96.5t73.5 46.5l148 39v88h31v-340q0 -21 8.5 -39.5t23 -32t33.5 -21.5t40 -8h30q14 0 14 -14v-9q0 -14 -14 -14h-30q-43 0 -78.5 25t-49.5 63q-6 -5 -11.5 -9t-16.5 -4h-167q-38 0 -51 14t-13 52zM340 115v239l-147 -38q-35 -9 -55 -39.5t-20 -65.5
v-96h222zM142 644h58v-57h-58v57zM252 644h57v-57h-57v57z" />
    <glyph glyph-name="uniFE96" unicode="&#x62a;" horiz-adv-x="882" arabic-form="final" 
d="M120 292v-126q0 -27 10 -50.5t28 -41t41.5 -27.5t50.5 -10h383q19 0 36 7.5t30 20t20.5 30t7.5 37.5v133h31v-133q0 -40 27.5 -67.5t67.5 -27.5h29q14 0 14 -14v-9q0 -14 -14 -14h-23q-37 0 -68 18.5t-48 53.5q-19 -35 -49.5 -53.5t-67.5 -18.5h-380q-32 0 -60.5 12
t-50 33t-34 49.5t-12.5 60.5v137h31zM448 293v58h58v-58h-58zM339 293v58h57v-58h-57z" />
    <glyph glyph-name="uniFE97" unicode="&#x62a;" horiz-adv-x="273" arabic-form="initial" 
d="M-14 14v8q0 6 4 11q4 4 10 4h76q20 0 37 7.5t29.5 20t20 29.5t7.5 36v163h31v-163q0 -27 -10 -50.5t-28 -41t-41.5 -28t-50.5 -10.5h-71q-14 0 -14 14zM142 434v58h58v-58h-58zM33 492h57v-58h-57v58z" />
    <glyph glyph-name="uniFE98" unicode="&#x62a;" horiz-adv-x="319" arabic-form="medial" 
d="M-14 24q0 13 14 13h44q37 0 65 23t35 58l27 138l31 -5l-23 -115q-2 -8 -2 -15q0 -11 5 -25.5t18 -28.5t31 -22t39 -8h49q14 0 14 -13v-10q0 -14 -14 -14h-50q-35 0 -67 19.5t-40 52.5q-20 -33 -49 -52.5t-64 -19.5h-49q-14 0 -14 14v10zM87 398v58h58v-58h-58zM197 398
v58h57v-58h-57z" />
    <glyph glyph-name="uniFE9A" unicode="&#x62b;" horiz-adv-x="882" arabic-form="final" 
d="M89 155v137h31v-126q0 -27 10 -50.5t28 -41t41.5 -27.5t50.5 -10h383q19 0 36 7.5t30 20t20.5 30t7.5 37.5v133h31v-133q0 -40 27.5 -67.5t67.5 -27.5h29q14 0 14 -14v-9q0 -14 -14 -14h-23q-37 0 -68 18.5t-48 53.5q-19 -35 -49.5 -53.5t-67.5 -18.5h-380
q-32 0 -60.5 12t-50 33t-34 49.5t-12.5 60.5zM448 292v58h58v-58h-58zM396 350v-58h-57v58h57zM391 387v57h57v-57h-57z" />
    <glyph glyph-name="uniFE9B" unicode="&#x62b;" horiz-adv-x="273" arabic-form="initial" 
d="M-14 14v8q0 6 4 11q4 4 10 4h76q20 0 37 7.5t29.5 20t20 29.5t7.5 36v163h31v-163q0 -27 -10 -50.5t-28 -41t-41.5 -28t-50.5 -10.5h-71q-14 0 -14 14zM143 434v58h58v-58h-58zM143 586v-57h-58v57h58zM91 492v-58h-57v58h57z" />
    <glyph glyph-name="uniFE9C" unicode="&#x62b;" horiz-adv-x="319" arabic-form="medial" 
d="M-14 14v10q0 13 14 13h44q37 0 65 23t35 58l27 138l31 -5l-23 -115q-2 -8 -2 -15q0 -11 5 -25.5t18 -28.5t31 -22t39 -8h49q14 0 14 -13v-10q0 -14 -14 -14h-50q-35 0 -67 19.5t-40 52.5q-20 -33 -49 -52.5t-64 -19.5h-49q-14 0 -14 14zM197 548v-58h-57v58h57zM197 396
v57h58v-57h-58zM145 453v-57h-57v57h57z" />
    <glyph glyph-name="uniFE9E" unicode="&#x62c;" horiz-adv-x="673" arabic-form="final" 
d="M109 294q11 36 39 52.5t56 16.5q7 0 13 -1t12 -3l341 -103l-11 -25l-47 12q-10 2 -19 2q-25 0 -46 -18v-94q0 -20 7.5 -37.5t20.5 -30.5t30.5 -20.5t36.5 -7.5h131q6 0 11 -4t5 -10v-9q0 -6 -5 -10t-11 -4h-125q-27 0 -50 10.5t-40 29t-26.5 43.5t-9.5 54v70l-217 -160
q-35 -26 -55 -64t-20 -83q0 -39 15.5 -73t41 -60t60.5 -41t74 -15h211v-36h-212q-45 0 -84.5 17t-69.5 46.5t-47.5 69t-17.5 84.5v4q0 55 26.5 103t71.5 82l234 171q5 4 7 5t9 4l-236 70q-7 2 -14 2q-5 0 -14.5 -2t-21 -9.5t-20.5 -18.5t-13 -23l-19 -61l-23 6zM313 -52h57
v-57h-57v57z" />
    <glyph glyph-name="uniFE9F" unicode="&#x62c;" horiz-adv-x="671" arabic-form="initial" 
d="M-10 34q3 3 8 3h150q53 1 100.5 19t87.5 52l117 99q5 4 10.5 9t12.5 10l-266 79q-8 2 -16 2q-5 0 -14.5 -1.5t-21 -8.5t-20 -18t-12.5 -24l-19 -61l-24 7l20 68q9 30 34.5 50t58.5 20q15 0 28 -4l375 -113l-8 -26l-34 11q-17 5 -27 5q-21 0 -37 -12.5t-42 -34.5l-117 -99
q-38 -32 -82.5 -49t-93.5 -17h-157q-15 0 -15 14v10q0 5 4 10zM273 -121h58v-57h-58v57z" />
    <glyph glyph-name="uniFEA0" unicode="&#x62c;" horiz-adv-x="685" arabic-form="medial" 
d="M-14 14v10q0 5 4 10q3 3 8 3h150q107 2 188 70l117 99q5 4 11.5 9.5t11.5 9.5l-266 79q-8 2 -16 2q-5 0 -14.5 -1.5t-21 -8.5t-20 -18t-12.5 -24l-19 -61l-24 7l20 68q9 30 34.5 50t58.5 20q15 0 28 -4l375 -113l-8 -26l-34 11q-17 5 -27 5q-20 0 -36 -11.5t-36 -29.5
v-38q0 -40 28 -67.5t68 -27.5h131q6 0 10 -4.5t4 -9.5v-9q0 -14 -14 -14h-125q-30 0 -55 11.5t-42.5 31t-25.5 42.5t-8 46q0 7 1 15l-96 -81q-38 -32 -82.5 -48.5t-93.5 -16.5h-157q-15 0 -15 14zM275 -120h58v-57h-58v57z" />
    <glyph glyph-name="uniFEA2" unicode="&#x62d;" horiz-adv-x="673" arabic-form="final" 
d="M109 294q11 36 39 52.5t56 16.5q7 0 13 -1t12 -3l341 -103l-11 -25l-47 12q-10 2 -19 2q-25 0 -46 -18v-94q0 -20 7.5 -37.5t20.5 -30.5t30.5 -20.5t36.5 -7.5h131q6 0 11 -4t5 -10v-9q0 -6 -5 -10t-11 -4h-125q-27 0 -50 10.5t-40 29t-26.5 43.5t-9.5 54v70l-217 -160
q-35 -26 -55 -64t-20 -83q0 -39 15.5 -73t41 -60t60.5 -41t74 -15h211v-36h-212q-45 0 -84.5 17t-69.5 46.5t-47.5 69t-17.5 84.5v4q0 55 26.5 103t71.5 82l234 171q5 4 7 5t9 4l-236 70q-7 2 -14 2q-5 0 -14.5 -2t-21 -9.5t-20.5 -18.5t-13 -23l-19 -61l-23 6z" />
    <glyph glyph-name="uniFEA3" unicode="&#x62d;" horiz-adv-x="671" arabic-form="initial" 
d="M-14 14v10q0 13 14 13h148q107 2 188 70l117 99q5 4 10.5 9t12.5 10l-266 79q-8 2 -16 2q-5 0 -14.5 -1.5t-21 -8.5t-20 -18t-12.5 -24l-19 -61l-24 7l20 68q9 30 34.5 50t58.5 20q15 0 28 -4l375 -113l-8 -26l-34 11q-17 5 -27 5q-21 0 -37 -12.5t-42 -34.5l-117 -99
q-38 -32 -82.5 -48.5t-93.5 -16.5h-158q-14 0 -14 14z" />
    <glyph glyph-name="uniFEA4" unicode="&#x62d;" horiz-adv-x="685" arabic-form="medial" 
d="M-14 14v10q0 5 4 10q3 3 8 3h150q107 2 188 70l117 99q5 4 11.5 9.5t11.5 9.5l-266 79q-8 2 -16 2q-5 0 -14.5 -1.5t-21 -8.5t-20 -18t-12.5 -24l-19 -61l-24 7l20 68q9 30 34.5 50t58.5 20q15 0 28 -4l375 -113l-8 -26l-34 11q-17 5 -27 5q-20 0 -36 -11.5t-36 -29.5
v-38q0 -40 28 -67.5t68 -27.5h131q6 0 10 -4.5t4 -9.5v-9q0 -14 -14 -14h-125q-30 0 -55 11.5t-42.5 31t-25.5 42.5t-8 46q0 7 1 15l-96 -81q-38 -32 -82.5 -48.5t-93.5 -16.5h-157q-15 0 -15 14z" />
    <glyph glyph-name="uniFEA6" unicode="&#x62e;" horiz-adv-x="673" arabic-form="final" 
d="M89 225l21 69q11 36 39 52.5t56 16.5q7 0 13 -1t12 -3l341 -103l-11 -25l-47 12q-10 2 -19 2q-25 0 -46 -18v-94q0 -20 7.5 -37.5t20.5 -30.5t30.5 -20.5t36.5 -7.5h131q6 0 11 -4t5 -10v-9q0 -6 -5 -10t-11 -4h-125q-27 0 -50 10.5t-40 29t-26.5 43.5t-9.5 54v70
l-217 -160q-35 -26 -55 -64t-20 -83q0 -39 15.5 -73t41 -60t60.5 -41t74 -15h211v-36h-212q-45 0 -84.5 17t-69.5 46.5t-47.5 69t-17.5 84.5v4q0 55 26.5 103t71.5 82l234 171q5 4 7 5t9 4l-236 70q-7 2 -14 2q-5 0 -14.5 -2t-21 -9.5t-20.5 -18.5t-13 -23l-19 -61zM175 562
h58v-58h-58v58z" />
    <glyph glyph-name="uniFEA7" unicode="&#x62e;" horiz-adv-x="671" arabic-form="initial" 
d="M0 37h148q107 2 188 70l117 99q5 4 10.5 9t12.5 10l-266 79q-8 2 -16 2q-5 0 -14.5 -1.5t-21 -8.5t-20 -18t-12.5 -24l-19 -61l-24 7l20 68q9 30 34.5 50t58.5 20q15 0 28 -4l375 -113l-8 -26l-34 11q-17 5 -27 5q-21 0 -37 -12.5t-42 -34.5l-117 -99
q-38 -32 -82.5 -48.5t-93.5 -16.5h-158q-14 0 -14 14v10q0 13 14 13zM209 537v-58h-57v58h57z" />
    <glyph glyph-name="uniFEA8" unicode="&#x62e;" horiz-adv-x="686" arabic-form="medial" 
d="M-10 34q3 3 8 3h150q107 2 188 70l117 99q5 4 11.5 9.5t11.5 9.5l-266 79q-8 2 -16 2q-5 0 -14.5 -1.5t-21 -8.5t-20 -18t-12.5 -24l-19 -61l-24 7l20 68q9 30 34.5 50t58.5 20q15 0 28 -4l375 -113l-8 -26l-34 11q-17 5 -27 5q-20 0 -36 -11.5t-36 -29.5v-38
q0 -40 28 -67.5t68 -27.5h131q6 0 10 -4.5t4 -9.5v-9q0 -14 -14 -14h-125q-30 0 -55 11.5t-42.5 31t-25.5 42.5t-8 46q0 7 1 15l-96 -81q-38 -32 -82.5 -48.5t-93.5 -16.5h-157q-15 0 -15 14v10q0 5 4 10zM152 537h57v-58h-57v58z" />
    <glyph glyph-name="uniFEAA" unicode="&#x62f;" horiz-adv-x="574" arabic-form="final" 
d="M89 170h26v-72q0 -25 13.5 -43t43.5 -18h144q26 0 47.5 11.5t35 30.5t17 35.5t3.5 25.5q0 14 -4 28l-69 251l29 11l88 -318q9 -33 35.5 -54t60.5 -21h15q6 0 10 -4.5t4 -10.5v-8q0 -14 -14 -14h-19q-37 0 -68 22.5t-48 72.5q-16 -47 -50.5 -71t-72.5 -24h-142
q-36 0 -60.5 25t-24.5 61v84z" />
    <glyph glyph-name="uniFEAC" unicode="&#x630;" horiz-adv-x="574" arabic-form="final" 
d="M89 170h26v-72q0 -25 13.5 -43t43.5 -18h144q26 0 47.5 11.5t35 30.5t17 35.5t3.5 25.5q0 14 -4 28l-69 251l29 11l88 -318q9 -33 35.5 -54t60.5 -21h15q6 0 10 -4.5t4 -10.5v-8q0 -14 -14 -14h-19q-37 0 -68 22.5t-48 72.5q-16 -47 -50.5 -71t-72.5 -24h-142
q-36 0 -60.5 25t-24.5 61v84zM315 629h57v-58h-57v58z" />
    <glyph glyph-name="uniFEAE" unicode="&#x631;" horiz-adv-x="418" arabic-form="final" 
d="M-40 -208l99 34q49 16 78.5 57t29.5 92v288h31v-129q0 -40 27 -68.5t68 -28.5h125q6 0 10 -5t4 -11v-7q0 -14 -14 -14h-118q-32 0 -58.5 14t-43.5 34v-68q0 -66 -36.5 -118t-98.5 -73l-92 -32z" />
    <glyph glyph-name="uniFEB0" unicode="&#x632;" horiz-adv-x="412" arabic-form="final" 
d="M-40 -208l99 34q49 16 78.5 57t29.5 92v288h31v-129q0 -40 27 -68.5t68 -28.5h119q14 -2 14 -16v-7q0 -14 -14 -14h-112q-32 0 -58.5 14t-43.5 34v-68q0 -66 -36.5 -118t-98.5 -73l-92 -32zM212 464v-58h-57v58h57z" />
    <glyph glyph-name="uniFEB2" unicode="&#x633;" horiz-adv-x="1185" arabic-form="final" 
d="M89 249h31l1 -237q0 -30 11.5 -57.5t32 -47.5t47.5 -32t58 -12h166q26 0 49 10t40 27t27 40.5t10 49.5v276h31v-133q0 -20 8 -37.5t21 -30.5t31 -20.5t37 -7.5h7q37 0 65 23.5t35 58.5l28 137l30 -4l-23 -114v-6q0 -17 5.5 -33.5t18 -30.5t29.5 -22t38 -8h3q20 0 37 7.5
t29.5 20.5t20 30.5t7.5 36.5v164h31v-173q0 -16 8 -31.5t21 -28t30 -20t36 -7.5h38q6 0 10.5 -4t4.5 -10v-8q0 -6 -4.5 -10.5t-10.5 -4.5h-31q-38 0 -68.5 19t-48.5 53q-18 -34 -47 -53t-64 -19q-37 0 -66 19t-44 53q-18 -35 -49 -53.5t-67 -18.5q-29 0 -56.5 12t-47.5 36
v-56q0 -34 -12 -64.5t-33 -53t-50 -35.5t-62 -13h-170q-37 0 -69.5 14t-57 38t-38.5 56.5t-14 69.5v245z" />
    <glyph glyph-name="uniFEB3" unicode="&#x633;" horiz-adv-x="686" arabic-form="initial" 
d="M-14 14v9q0 14 14 14h36q19 0 36 7t30 20t20.5 30t7.5 37v135h31v-137q0 -19 7.5 -36t20 -29.5t29 -19.5t35.5 -7h8q36 0 64 23.5t36 59.5l27 136l30 -4l-23 -114q-2 -8 -2 -16q0 -12 5 -27t18 -28.5t31 -21.5t39 -8h97v259h31v-236q0 -60 -60 -60h-69q-35 0 -66 20
t-42 52q-18 -35 -49.5 -53.5t-68.5 -18.5q-36 0 -66.5 18.5t-47.5 53.5q-17 -35 -47 -53.5t-68 -18.5h-30q-14 0 -14 14z" />
    <glyph glyph-name="uniFEB4" unicode="&#x633;" horiz-adv-x="755" arabic-form="medial" 
d="M-15 14v9q0 14 14 14h41q20 0 37 7.5t30.5 20.5t21 30.5t7.5 36.5v134h30v-136q0 -40 28 -66.5t67 -26.5h6q37 0 65.5 23.5t35.5 58.5l27 137l32 -5l-23 -113q-2 -8 -2 -17q0 -11 4.5 -25.5t17.5 -28t32 -22t42 -8.5q19 0 35.5 8t29 21t20 30.5t7.5 36.5v165h30v-174
q5 -37 32 -62t64 -25h40q5 0 9.5 -4t4.5 -10v-9q0 -5 -4.5 -9.5t-9.5 -4.5h-34q-37 0 -67.5 19.5t-48.5 54.5q-18 -35 -49 -54.5t-67 -19.5q-35 0 -64.5 18.5t-40.5 55.5q-18 -36 -49.5 -55t-66.5 -19q-37 0 -68.5 19.5t-49.5 54.5q-19 -35 -49.5 -54.5t-67.5 -19.5h-35
q-6 0 -10 4.5t-4 9.5z" />
    <glyph glyph-name="uniFEB6" unicode="&#x634;" horiz-adv-x="1184" arabic-form="final" 
d="M120 249l1 -237q0 -30 11.5 -57.5t32 -47.5t47.5 -32t58 -12h166q26 0 49 10t40 27t27 40.5t10 49.5v276h31v-133q0 -20 8 -37.5t21 -30.5t31 -20.5t37 -7.5h7q37 0 65 23.5t35 58.5l28 137l30 -4l-23 -114v-6q0 -17 5.5 -33.5t18 -30.5t29.5 -22t38 -8h3q20 0 37 7.5
t29.5 20.5t20 30.5t7.5 36.5v164h31v-173q0 -16 8 -31.5t21 -28t30 -20t36 -7.5h38q6 0 10.5 -4t4.5 -10v-8q0 -6 -4.5 -10.5t-10.5 -4.5h-31q-38 0 -68.5 19t-48.5 53q-18 -34 -47 -53t-64 -19q-37 0 -66 19t-44 53q-18 -35 -49 -53.5t-67 -18.5q-29 0 -56.5 12t-47.5 36
v-56q0 -34 -12 -64.5t-33 -53t-50 -35.5t-62 -13h-170q-37 0 -69.5 14t-57 38t-38.5 56.5t-14 69.5v245h31zM742 396v58h58v-58h-58zM909 454v-58h-57v58h57zM852 548v-57h-58v57h58z" />
    <glyph glyph-name="uniFEB7" unicode="&#x634;" horiz-adv-x="690" arabic-form="initial" 
d="M-14 23q0 14 14 14h38q19 0 36.5 7.5t30.5 20t20.5 30t7.5 36.5v135h31v-137q0 -19 7.5 -36t20.5 -29.5t30 -19.5t36 -7h9q36 0 64.5 23.5t35.5 59.5l27 136l29 -4l-23 -114q-2 -9 -2 -17q0 -12 4.5 -26t17.5 -28t31.5 -22t39.5 -8h97v259h31v-236q0 -60 -60 -60h-69
q-35 0 -66 20t-42 52q-18 -35 -49.5 -53.5t-68.5 -18.5t-67.5 18.5t-48.5 53.5q-17 -35 -47.5 -53.5t-68.5 -18.5h-32q-12 0 -14 14v9zM477 455v-58h-58v58h58zM367 455v-58h-57v58h57zM362 549h57v-57h-57v57z" />
    <glyph glyph-name="uniFEB8" unicode="&#x634;" horiz-adv-x="753" arabic-form="medial" 
d="M-14 23q0 14 14 14h38q20 0 37 7.5t30.5 20.5t21 30.5t7.5 36.5v134h30v-134q0 -19 7.5 -36.5t20.5 -30.5t30.5 -20.5t36.5 -7.5h6q37 0 65.5 23.5t35.5 58.5l27 137l31 -5l-23 -113q-2 -9 -2 -17q0 -12 5 -26.5t17.5 -28t32 -21.5t42.5 -8q19 0 35.5 8t29 21t20 30.5
t7.5 36.5v165h30v-174q5 -37 32 -62t64 -25h39q5 0 9.5 -4t4.5 -10v-9q0 -5 -4 -9.5t-10 -4.5h-33q-37 0 -67.5 19.5t-48.5 54.5q-18 -35 -49 -54.5t-67 -19.5q-35 0 -64.5 18.5t-40.5 55.5q-18 -36 -49.5 -55t-66.5 -19q-37 0 -68.5 19.5t-49.5 54.5q-19 -35 -49.5 -54.5
t-67.5 -19.5h-32q-6 0 -10 4.5t-4 9.5v9zM362 552h57v-58h-57v58zM311 400v57h58v-57h-58zM421 457h57v-57h-57v57z" />
    <glyph glyph-name="uniFEBA" unicode="&#x635;" horiz-adv-x="1248" arabic-form="final" 
d="M120 248v-237q0 -30 11.5 -57.5t32 -47.5t47.5 -32t57 -12h169q27 0 50 10t40.5 27.5t27.5 41t10 49.5v276h31v-145q0 -20 5.5 -34t12.5 -22q7 -10 17 -15l184 204q25 27 59.5 41.5t72.5 14.5h61q24 0 45.5 -9.5t37.5 -25.5t25 -37.5t9 -45.5v-60q0 -40 28 -67.5
t68 -27.5h27q14 0 14 -13v-10q0 -5 -4 -9.5t-10 -4.5h-21q-36 0 -65.5 19t-46.5 56q-32 -75 -101 -75h-301q-33 0 -54 4.5t-34 11t-19.5 13.5t-9.5 12v-50q0 -34 -12 -64t-33.5 -52.5t-50.5 -35.5t-62 -13h-171q-37 0 -69.5 14t-56.5 38t-38 56.5t-14 69.5v244h31zM1013 37
q34 0 57.5 23.5t23.5 56.5v73q0 37 -25.5 62.5t-62.5 25.5h-52q-35 0 -66 -14t-55 -40l-174 -187h354z" />
    <glyph glyph-name="uniFEBB" unicode="&#x635;" horiz-adv-x="762" arabic-form="initial" 
d="M-1 37h35q20 0 37.5 7.5t30.5 20t20.5 30t7.5 36.5v116h30v-117q0 -27 4.5 -43t10.5 -25t11 -12l4 -3l190 205q25 27 58.5 42.5t71.5 15.5h63q24 0 45.5 -9.5t37.5 -25.5t25.5 -37.5t9.5 -46.5v-80q0 -23 -9 -43t-24 -35t-35.5 -24t-43.5 -9h-317q-44 0 -75 15.5
t-44 56.5q-19 -34 -48 -53t-67 -19h-29q-5 0 -9 4.5t-4 10.5v9q0 13 13 13zM218 36h361q33 0 57 22t24 59v73q0 37 -26 62.5t-63 25.5h-54q-34 0 -66.5 -14t-56.5 -40z" />
    <glyph glyph-name="uniFEBC" unicode="&#x635;" horiz-adv-x="811" arabic-form="medial" 
d="M0 37h35q20 0 37.5 7.5t30.5 20t20.5 30t7.5 36.5v116h30v-117q0 -27 4.5 -43t10.5 -25t11 -12l4 -3l190 205q25 27 58.5 42.5t71.5 15.5h62q25 0 46.5 -9.5t37.5 -25.5t25 -37.5t9 -45.5v-69q0 -38 28.5 -62t65.5 -24h26q14 0 14 -14v-10q0 -5 -4 -9t-10 -4h-20
q-36 0 -66 18t-46 52q-31 -70 -99 -70h-317q-44 0 -75 15.5t-44 56.5q-19 -34 -48 -53t-67 -19h-29q-5 0 -9 4.5t-4 10.5v9q0 13 13 13zM578 36q35 0 58.5 23.5t23.5 57.5v73q0 37 -25.5 62.5t-63.5 25.5h-53q-34 0 -66 -14t-57 -40l-176 -188h359z" />
    <glyph glyph-name="uniFEBE" unicode="&#x636;" horiz-adv-x="1247" arabic-form="final" 
d="M88 4v244h31v-237q0 -30 11.5 -57.5t32 -47.5t47.5 -32t57 -12h169q27 0 50 10t40.5 27.5t27.5 41t10 49.5v276h31v-145q0 -20 5.5 -34t12.5 -22q7 -10 17 -15l184 204q25 27 59.5 41.5t72.5 14.5h61q24 0 45.5 -9.5t37.5 -25.5t25 -37.5t9 -45.5v-60q0 -40 28 -67.5
t68 -27.5h27q14 0 14 -13v-10q0 -5 -4 -9.5t-10 -4.5h-21q-36 0 -65.5 19t-46.5 56q-32 -75 -101 -75h-301q-32 0 -53.5 4t-34.5 9.5t-19.5 12t-9.5 11.5v-46q0 -34 -12 -64t-33.5 -52.5t-50.5 -35.5t-62 -13h-171q-37 0 -69.5 14t-56.5 38t-38 56.5t-14 69.5zM1012 36
q34 0 57.5 24t23.5 57v73q0 37 -25.5 62.5t-62.5 25.5h-52q-73 0 -121 -54l-174 -188h354zM989 510v-57h-58v57h58z" />
    <glyph glyph-name="uniFEBF" unicode="&#x636;" horiz-adv-x="762" arabic-form="initial" 
d="M-14 24q0 13 13 13h35q20 0 37.5 7.5t30.5 20t20.5 30t7.5 36.5v116h30v-117q0 -27 4.5 -43t10.5 -25t11 -12l4 -3l190 205q25 27 58.5 42.5t71.5 15.5h63q24 0 45.5 -9.5t37.5 -25.5t25.5 -37.5t9.5 -46.5v-80q0 -23 -9 -43t-24 -35t-35.5 -24t-43.5 -9h-317
q-44 0 -75 15.5t-44 56.5q-19 -34 -48 -53t-67 -19h-29q-5 0 -9 4.5t-4 10.5v9zM579 36q33 0 57 22t24 59v73q0 37 -26 62.5t-63 25.5h-54q-34 0 -66.5 -14t-56.5 -40l-176 -188h361zM540 510v-58h-57v58h57z" />
    <glyph glyph-name="uniFEC0" unicode="&#x636;" horiz-adv-x="811" arabic-form="medial" 
d="M-13 24q0 13 13 13h35q20 0 37.5 7.5t30.5 20t20.5 30t7.5 36.5v116h30v-117q0 -27 4.5 -43t10.5 -25t11 -12l4 -3l190 205q25 27 58.5 42.5t71.5 15.5h62q25 0 46.5 -9.5t37.5 -25.5t25 -37.5t9 -45.5v-69q0 -38 28.5 -62t65.5 -24h26q14 0 14 -14v-10q0 -5 -4 -9
t-10 -4h-20q-36 0 -66 18t-46 52q-31 -70 -99 -70h-317q-44 0 -75 15.5t-44 56.5q-19 -34 -48 -53t-67 -19h-29q-5 0 -9 4.5t-4 10.5v9zM578 36q35 0 58.5 23.5t23.5 57.5v73q0 37 -25.5 62.5t-63.5 25.5h-53q-34 0 -66 -14t-57 -40l-176 -188h359zM481 452v58h57v-58h-57z
" />
    <glyph glyph-name="uniFEC2" unicode="&#x637;" horiz-adv-x="774" arabic-form="final" 
d="M89 37h53l118 125v473h31v-413q0 -23 -1 -26q18 23 37.5 43.5t42 36t48 25t56.5 9.5h62q24 0 45.5 -9.5t37.5 -25t25.5 -37t9.5 -45.5v-61q0 -40 27.5 -67.5t67.5 -27.5h25q5 0 9.5 -4t4.5 -10v-9q0 -5 -4.5 -9.5t-9.5 -4.5h-18q-36 0 -66 18.5t-46 50.5
q-16 -32 -42 -50.5t-61 -18.5h-452v37zM541 37q34 0 58 24.5t24 57.5v71q0 18 -7 34t-19.5 28t-29 19t-34.5 7h-52q-34 0 -66.5 -13t-55.5 -39l-177 -189h359z" />
    <glyph glyph-name="uniFEC3" unicode="&#x637;" horiz-adv-x="646" arabic-form="initial" 
d="M-10 33q5 4 10 4h63l117 126v472h31v-440q1 2 7 9t13.5 15t13.5 14.5t7 8.5q27 33 64 50.5t79 17.5h61q24 0 45.5 -9.5t37.5 -25.5t25.5 -37.5t9.5 -45.5v-80q0 -23 -9 -43.5t-24 -35.5t-35.5 -24t-43.5 -9h-462q-5 0 -9.5 4.5t-4.5 11.5v7q0 6 4 10zM462 37
q33 0 57 23.5t24 57.5v72q0 37 -26 62.5t-63 25.5h-52q-35 0 -67 -14t-55 -40l-179 -187h361z" />
    <glyph glyph-name="uniFEC4" unicode="&#x637;" horiz-adv-x="694" arabic-form="medial" 
d="M-14 23q0 14 14 14h62l118 125v473h31v-413q0 -23 -1 -25q2 2 7 7.5t11.5 12.5t12.5 14t9 10q29 33 65.5 51t78.5 18h62q24 0 45.5 -9.5t37.5 -25t25.5 -37t9.5 -45.5v-61q0 -40 27.5 -67.5t67.5 -27.5h25q14 0 14 -14v-9q0 -5 -4.5 -9.5t-9.5 -4.5h-18q-36 0 -66 18
t-46 51q-16 -33 -42 -51t-61 -18h-461q-14 0 -14 14v9zM461 37q34 0 58 24.5t24 57.5v71q0 18 -7 34t-19.5 28t-29 19t-34.5 7h-52q-34 0 -66.5 -13t-55.5 -39l-177 -189h359z" />
    <glyph glyph-name="uniFEC6" unicode="&#x638;" horiz-adv-x="774" arabic-form="final" 
d="M142 37l118 125v473h31v-413q0 -23 -1 -26q18 23 37.5 43.5t42 36t48 25t56.5 9.5h62q24 0 45.5 -9.5t37.5 -25t25.5 -37t9.5 -45.5v-61q0 -40 27.5 -67.5t67.5 -27.5h25q5 0 9.5 -4t4.5 -10v-9q0 -5 -4.5 -9.5t-9.5 -4.5h-18q-36 0 -66 18.5t-46 50.5q-16 -32 -42 -50.5
t-61 -18.5h-452v37h53zM182 37h359q34 0 58 24.5t24 57.5v71q0 18 -7 34t-19.5 28t-29 19t-34.5 7h-52q-34 0 -66.5 -13t-55.5 -39zM469 452v58h58v-58h-58z" />
    <glyph glyph-name="uniFEC7" unicode="&#x638;" horiz-adv-x="644" arabic-form="initial" 
d="M-14 14v9q0 14 14 14h62l117 126v472h31v-440q1 2 7 9t13.5 15t13.5 15t7 8q27 33 64 50.5t79 17.5h61q24 0 45.5 -9.5t37.5 -25.5t25.5 -37.5t9.5 -45.5v-80q0 -23 -9 -43.5t-24 -35.5t-35.5 -24t-43.5 -9h-461q-14 0 -14 14zM461 37q33 0 57 24t24 57v72q0 37 -26 62.5
t-63 25.5h-52q-35 0 -67 -14t-55 -40l-179 -187h361zM375 510h58v-57h-58v57z" />
    <glyph glyph-name="uniFEC8" unicode="&#x638;" horiz-adv-x="694" arabic-form="medial" 
d="M-14 23q0 14 14 14h62l118 125v473h31v-413q0 -23 -1 -25q2 2 7 7.5t11.5 12.5t12.5 14t9 10q29 33 65.5 51t78.5 18h62q24 0 45.5 -9.5t37.5 -25t25.5 -37t9.5 -45.5v-61q0 -40 27.5 -67.5t67.5 -27.5h25q14 0 14 -14v-9q0 -5 -4.5 -9.5t-9.5 -4.5h-18q-36 0 -66 18
t-46 51q-16 -33 -42 -51t-61 -18h-461q-14 0 -14 14v9zM461 37q34 0 58 24.5t24 57.5v71q0 18 -7 34t-19.5 28t-29 19t-34.5 7h-52q-34 0 -66.5 -13t-55.5 -39l-177 -189h359zM375 510h58v-57h-58v57z" />
    <glyph glyph-name="uniFECA" unicode="&#x639;" horiz-adv-x="574" arabic-form="final" 
d="M89 -174q0 53 24 101t73 82l85 59l-148 101v108q0 31 18.5 49.5t49.5 18.5h163q26 0 48 -8.5t38.5 -23.5t26 -35t9.5 -44v-22q0 -38 -32 -59l-118 -83q37 -17 80 -24.5t84 -7.5h84q6 0 10 -4t4 -9v-12q0 -13 -14 -13h-83q-56 0 -103.5 13t-89.5 37l-105 -76
q-37 -26 -57 -62.5t-20 -81.5q0 -39 15 -73.5t41 -60.5t61 -41t74 -15h224v-37h-225q-45 0 -84.5 17.5t-69 47.5t-46.5 70.5t-17 87.5zM154 310v-121l148 -101l139 106v41q0 16 -7 29.5t-18.5 23.5t-26.5 16t-31 6h-204z" />
    <glyph glyph-name="uniFECB" unicode="&#x639;" horiz-adv-x="449" arabic-form="initial" 
d="M-14 14v10q0 5 4 9t9 4h138q-4 10 -7 26l-27 149q-2 11 -2 22q0 13 5 32t19.5 37.5t36 29.5t47.5 11h133v-31h-139q-18 0 -32.5 -7.5t-24 -20t-13 -25.5t-3.5 -23q0 -6 1 -13l33 -185l208 21l5 -28l-122 -16q-57 -8 -114 -12t-114 -4h-27q-14 0 -14 14z" />
    <glyph glyph-name="uniFECC" unicode="&#x639;" horiz-adv-x="554" arabic-form="medial" 
d="M-14 23q0 14 15 14h105q35 0 69 9t73 23l-148 101v112q0 27 17.5 44.5t45.5 17.5h180q23 0 43 -8.5t35 -23t24 -34.5t9 -44v-23q0 -17 -7.5 -32t-22.5 -26l-117 -81q38 -15 73 -25t67 -10h107q14 0 14 -14v-8q0 -6 -4 -10.5t-10 -4.5h-99q-48 0 -93 13t-87 37
q-40 -23 -85.5 -36.5t-93.5 -13.5h-95q-6 0 -10.5 4.5t-4.5 10.5v8zM180 158q25 -17 47 -32l52 -36l142 106v38q0 33 -21 54t-53 21h-212v-120q20 -14 45 -31z" />
    <glyph glyph-name="uniFECE" unicode="&#x63a;" horiz-adv-x="574" arabic-form="final" 
d="M89 -174q0 53 24 101t73 82l85 59l-148 101v108q0 31 18.5 49.5t49.5 18.5h163q26 0 48 -8.5t38.5 -23.5t26 -35t9.5 -44v-22q0 -38 -32 -59l-118 -83q37 -17 80 -24.5t84 -7.5h84q6 0 10 -4t4 -9v-12q0 -13 -14 -13h-83q-56 0 -103.5 13t-89.5 37l-105 -76
q-37 -26 -57 -62.5t-20 -81.5q0 -39 15 -73.5t41 -60.5t61 -41t74 -15h224v-37h-225q-45 0 -84.5 17.5t-69 47.5t-46.5 70.5t-17 87.5zM302 88l139 106v41q0 16 -7 29.5t-18.5 23.5t-26.5 16t-31 6h-204v-121zM251 542h58v-57h-58v57z" />
    <glyph glyph-name="uniFECF" unicode="&#x63a;" horiz-adv-x="449" arabic-form="initial" 
d="M-10 33q4 4 10 4h137q-2 6 -3 12t-3 14l-28 149q-2 10 -2 20q0 15 5 34t20 37.5t36.5 29.5t47.5 11h133v-31h-140q-17 0 -31.5 -7.5t-24.5 -20t-13.5 -25.5t-3.5 -23q0 -6 1 -13l34 -185l207 21l6 -28l-123 -16q-57 -8 -114 -12t-114 -4h-27q-14 0 -14 14v10q0 5 4 9z
M279 511v-57h-58v57h58z" />
    <glyph glyph-name="uniFED0" unicode="&#x63a;" horiz-adv-x="553" arabic-form="medial" 
d="M0 37h119q33 0 68 9t75 23l-148 101v112q0 27 17.5 44.5t44.5 17.5h180q23 0 43.5 -8.5t35.5 -23t24 -34.5t9 -44v-23q0 -17 -8.5 -32t-22.5 -26l-117 -81q38 -15 75 -25t65 -10h93q5 0 9.5 -4t4.5 -10v-8q0 -6 -4 -10.5t-10 -4.5h-85q-48 0 -93 13t-87 37
q-40 -23 -85.5 -36.5t-93.5 -13.5h-109q-6 0 -10 4.5t-4 10.5v8q0 14 14 14zM193 157q25 -17 47 -32l52 -36l141 107v38q0 33 -20.5 54t-52.5 21h-212v-121q20 -14 45 -31zM253 483v59h60v-59h-60z" />
    <glyph glyph-name="uniFED2" unicode="&#x641;" horiz-adv-x="907" arabic-form="final" 
d="M88 292h31v-134q0 -54 32.5 -87.5t89.5 -33.5h394q4 0 12 2q-42 26 -67.5 61t-25.5 80v31q0 30 10.5 55.5t29.5 45t45 30.5t57 11h8q30 0 56 -11.5t45.5 -31t31 -46t11.5 -56.5v-28q0 -45 -25.5 -80t-67.5 -61q8 -2 13 -2h139q6 0 10 -4t4 -9v-10q0 -14 -14 -14h-71
q-32 0 -65 2.5t-71 12.5q-37 -10 -69.5 -12.5t-64.5 -2.5h-316q-38 0 -68 12.5t-51 34.5t-32 51.5t-11 63.5v130zM594 135q9 -18 25 -34.5t36.5 -32t44.5 -29.5q25 12 46.5 28t37 33.5t24.5 35.5t9 34v41q0 23 -9 43t-24 35t-35.5 24t-43.5 9h-8q-23 0 -43.5 -9t-35.5 -24
t-24 -35.5t-9 -43.5v-40q0 -18 9 -35zM731 552v-57h-58v57h58z" />
    <glyph glyph-name="uniFED3" unicode="&#x641;" horiz-adv-x="426" arabic-form="initial" 
d="M-11 33q4 4 11 4h212q22 0 42 5t35 16.5t24 31.5t9 50v8q-5 -3 -11 -4t-12 -1h-132q-26 0 -47.5 10.5t-36 28.5t-19.5 36.5t-5 32.5q0 9 2 19l16 87q8 38 38 63t69 25h51q25 0 46.5 -9.5t37.5 -25.5t25.5 -37.5t9.5 -46.5v-195q0 -27 -10.5 -51t-28.5 -42t-42.5 -28
t-51.5 -10h-221q-14 0 -14 13v9q0 6 3 11zM90 257q0 -11 3 -21q5 -16 15.5 -28.5t26 -20t33.5 -7.5h155v148q0 18 -6.5 33.5t-18.5 27t-28 18.5t-34 7h-47q-32 0 -55 -19.5t-29 -50.5l-14 -74q-1 -7 -1 -13zM236 644v-57h-58v57h58z" />
    <glyph glyph-name="uniFED4" unicode="&#x641;" horiz-adv-x="406" arabic-form="medial" 
d="M-14 14v8q0 6 4 10.5t10 4.5h134q6 0 15 2q-42 26 -68 61t-26 80v30q0 29 11 55t30 45.5t45.5 31t56.5 11.5h9q30 0 56 -11.5t45.5 -31.5t31 -46t11.5 -56v-28q0 -45 -25.5 -80t-67.5 -61q8 -2 14 -2h134q5 0 9.5 -4.5t4.5 -10.5v-8q0 -7 -4.5 -10.5t-9.5 -3.5h-67
q-32 0 -71 4.5t-65 9.5q-26 -5 -64 -9.5t-72 -4.5h-67q-14 0 -14 14zM88 209v-32q0 -43 33 -75q32 -33 82 -63q50 30 83.5 62.5t33.5 75.5v32q0 24 -9 44.5t-24 35.5t-35.5 24t-43.5 9h-9q-23 0 -43 -9t-35 -24t-24 -35.5t-9 -44.5zM228 554v-58h-58v58h58z" />
    <glyph glyph-name="uniFED6" unicode="&#x642;" horiz-adv-x="723" arabic-form="final" 
d="M89 170h32l-1 -208q0 -31 11.5 -58.5t32 -47.5t47.5 -32t58 -12h169q26 0 49 10.5t40 28t27 41.5t10 51v62q-3 -2 -9.5 -3.5t-14.5 -1.5h-131q-26 0 -47.5 11t-36 29t-19.5 37t-5 33q0 9 2 19l16 86q7 39 37.5 64t69.5 25h51q25 0 46.5 -9.5t37.5 -25.5t25.5 -37.5
t9.5 -46.5v-148h127q14 0 14 -14v-10q0 -13 -14 -13h-128v-67q0 -33 -12.5 -61.5t-33.5 -50t-49.5 -34t-61.5 -12.5h-171q-37 0 -69.5 14t-56.5 38t-38 56.5t-14 69.5v217zM332 116q0 -11 3 -21q5 -17 15.5 -29.5t26 -20.5t33.5 -8h155v150q0 18 -6.5 33.5t-18.5 27
t-28 18.5t-34 7h-47q-32 0 -55.5 -19.5t-28.5 -50.5l-14 -74q-1 -7 -1 -13zM540 502v-57h-58v57h58zM430 502v-57h-57v57h57z" />
    <glyph glyph-name="uniFED7" unicode="&#x642;" horiz-adv-x="426" arabic-form="initial" 
d="M-14 22q0 6 3 11q3 4 11 4h213q21 0 41 5t35.5 17t24.5 32t9 50v8q-9 -5 -23 -5h-132q-26 0 -47.5 10.5t-36 28.5t-20 36.5t-5.5 33.5q0 9 2 18l17 87q8 38 37.5 63t69.5 25h51q25 0 46.5 -9.5t37.5 -25.5t25.5 -37.5t9.5 -46.5v-195q0 -27 -10.5 -51t-28.5 -42
t-42.5 -28.5t-51.5 -10.5h-222q-14 0 -14 13v9zM94 238q5 -17 15.5 -29.5t26 -20t33.5 -7.5h155v148q0 18 -7 33.5t-18.5 27t-27.5 18.5t-34 7h-47q-32 0 -55 -19.5t-29 -50.5l-14 -73q-1 -7 -1 -13q0 -11 3 -21zM130 589v58h58v-58h-58zM297 647v-58h-57v58h57z" />
    <glyph glyph-name="uniFED8" unicode="&#x642;" horiz-adv-x="406" arabic-form="medial" 
d="M-14 14v8q0 6 4 10.5t10 4.5h134q6 0 15 2q-42 26 -68 61t-26 80v30q0 29 11 55t30 45.5t45.5 31t56.5 11.5h9q30 0 56 -11.5t45.5 -31.5t31 -46t11.5 -56v-28q0 -45 -25.5 -80t-67.5 -61q8 -2 14 -2h134q5 0 9.5 -4.5t4.5 -10.5v-8q0 -7 -4.5 -10.5t-9.5 -3.5h-67
q-32 0 -71 4.5t-65 9.5q-26 -5 -64 -9.5t-72 -4.5h-67q-14 0 -14 14zM121 102q32 -33 82 -63q50 30 83.5 62.5t33.5 75.5v32q0 24 -9 44.5t-24 35.5t-35.5 24t-43.5 9h-9q-23 0 -43 -9t-35 -24t-24 -35.5t-9 -44.5v-32q0 -43 33 -75zM228 551h58v-58h-58v58zM119 551h57v-58
h-57v58z" />
    <glyph glyph-name="uniFEDA" unicode="&#x643;" horiz-adv-x="883" arabic-form="final" 
d="M89 155v136h31v-126q0 -27 10.5 -50.5t28 -40.5t41.5 -27t51 -10h381q20 0 37 7.5t30 20t20.5 30t7.5 37.5v489h31v-489q0 -40 27.5 -67.5t68.5 -27.5h29q14 0 14 -14v-9q0 -14 -14 -14h-23q-37 0 -68 19.5t-49 56.5q-18 -38 -48.5 -57t-67.5 -19h-381q-32 0 -60.5 12
t-50 33t-34 49.5t-12.5 60.5zM305 252l87 42q0 1 -5.5 5t-11.5 18q0 1 -3 7t-6.5 14t-6.5 15l-5 9q-9 19 -9 38t6.5 35.5t19.5 29.5t29 20l68 29l5 -14l-77 -36q-23 -11 -29.5 -30t-6.5 -30q0 -15 7 -29l7 -13q4 -9 10 -20l11 -23q5 -12 9 -20l161 83l8 -16l-259 -132z" />
    <glyph glyph-name="uniFEDB" unicode="&#x643;" horiz-adv-x="376" arabic-form="initial" 
d="M-14 14v9q0 14 15 14h130q38 0 69.5 18.5t46 47t14.5 60.5q0 8 -2.5 33t-35.5 71l-151 212v39l278 144l16 -31l-264 -137l148 -212q36 -51 39.5 -82.5t3.5 -42.5q0 -37 -16.5 -72t-56.5 -60t-96 -25h-124q-14 0 -14 14z" />
    <glyph glyph-name="uniFEDC" unicode="&#x643;" horiz-adv-x="511" arabic-form="medial" 
d="M-14 14v9q0 14 15 14h130q40 0 71.5 19t45 47.5t13.5 58.5q0 9 -3 34.5t-35 70.5l-151 211v40l278 144l16 -31l-264 -137l286 -394q21 -28 48.5 -45.5t62.5 -17.5h12q6 0 10 -5t4 -11v-7q0 -14 -14 -14h-14q-47 0 -83 22.5t-68 71.5l-61 93q3 -18 3 -35
q0 -27 -10.5 -55.5t-35 -51.5t-56.5 -34t-62 -11h-124q-14 0 -14 14z" />
    <glyph glyph-name="uniFEDE" unicode="&#x644;" horiz-adv-x="732" arabic-form="final" 
d="M89 220h31l-1 -205q0 -30 11.5 -57.5t32 -48.5t47.5 -33.5t58 -12.5l167 1q26 0 49.5 10.5t41 28t27.5 41t10 50.5v641h31v-502q0 -41 27.5 -68.5t67.5 -27.5h43q5 0 9.5 -4.5t4.5 -9.5v-9q0 -14 -14 -14h-32q-26 0 -54.5 10.5t-51.5 38.5v-59q0 -38 -13 -68t-35 -51
t-50.5 -32.5t-59.5 -11.5h-169q-37 0 -69.5 14.5t-56.5 39t-38 57.5t-14 70v212z" />
    <glyph glyph-name="uniFEDF" unicode="&#x644;" horiz-adv-x="258" arabic-form="initial" 
d="M-14 14v9q0 14 14 14h60q19 0 36.5 7.5t30.5 20t20.5 30t7.5 37.5v502h31v-502q0 -28 -10.5 -52t-28.5 -42t-42 -28t-51 -10h-54q-14 0 -14 14z" />
    <glyph glyph-name="uniFEE0" unicode="&#x644;" horiz-adv-x="331" arabic-form="medial" 
d="M-14 14v9q0 14 14 14h59q20 0 37 7.5t30.5 20t21 30t7.5 36.5v504h31v-512q0 -17 7 -32.5t20 -27.5t30.5 -19t36.5 -7h51q14 0 14 -14v-9q0 -14 -14 -14h-45q-38 0 -68.5 18.5t-47.5 47.5q-18 -29 -48 -47.5t-68 -18.5h-54q-14 0 -14 14z" />
    <glyph glyph-name="uniFEE2" unicode="&#x645;" horiz-adv-x="742" arabic-form="final" 
d="M88 -242v420q0 27 10.5 51.5t28.5 42.5t42 28.5t51 10.5h207q24 0 45.5 -9.5t37.5 -25.5t25 -37.5t9 -45.5v-62q0 -20 7.5 -37t21 -30t31 -20t36.5 -7h102q5 0 9.5 -4t4.5 -10v-9q0 -5 -4 -9.5t-10 -4.5h-96q-29 0 -58 13.5t-46 42.5q0 -37 -15.5 -46.5t-42.5 -9.5h-130
q-26 0 -47.5 11t-36.5 29t-20 37t-5 33q0 10 2 20l27 149h-59q-20 0 -37.5 -9t-30.5 -23.5t-20.5 -33t-7.5 -38.5v-417h-31zM278 95q3 -17 13 -29.5t26 -20.5t37 -8h159v157q0 35 -25 60t-61 25h-124l-26 -151q-1 -7 -1 -14q0 -10 2 -19z" />
    <glyph glyph-name="uniFEE3" unicode="&#x645;" horiz-adv-x="504" arabic-form="initial" 
d="M-14 14v9q0 5 3 10q4 4 11 4h32q35 0 63.5 20.5t35.5 60.5l20 103q8 39 37.5 64t69.5 25h56q24 0 45.5 -9.5t37.5 -25t25.5 -37t9.5 -45.5v-132q0 -61 -62 -61h-129q-33 0 -60 17.5t-38 55.5q-14 -38 -45.5 -55.5t-65.5 -17.5h-32q-14 0 -14 14zM166 95q5 -17 15.5 -30
t25.5 -20.5t33 -7.5h161v156q0 36 -25.5 60.5t-61.5 24.5h-51q-31 0 -55 -19t-29 -49l-15 -81q-1 -7 -1 -13q0 -11 3 -21z" />
    <glyph glyph-name="uniFEE4" unicode="&#x645;" horiz-adv-x="554" arabic-form="medial" 
d="M-14 23q0 5 3 10q4 4 11 4h32q40 0 66 23t33 58l20 103q8 39 37.5 64t69.5 25h56q24 0 45.5 -9.5t37.5 -25t25.5 -37t9.5 -45.5v-61q0 -40 27.5 -67.5t67.5 -27.5h27q8 0 11 -4.5t3 -9.5v-9q0 -14 -14 -14h-21q-30 0 -58 13.5t-46 42.5q0 -37 -16 -46.5t-43 -9.5h-129
q-33 0 -60 17.5t-38 55.5q-14 -38 -45.5 -55.5t-65.5 -17.5h-32q-14 0 -14 14v9zM163 116q0 -11 3 -21q5 -17 15.5 -30t25.5 -20.5t33 -7.5h161v156q0 36 -25.5 60.5t-61.5 24.5h-51q-31 0 -55 -19t-29 -49l-15 -81q-1 -7 -1 -13z" />
    <glyph glyph-name="uniFEE6" unicode="&#x646;" horiz-adv-x="749" arabic-form="final" 
d="M88 248h32v-237q0 -30 11.5 -57.5t31.5 -47.5t47 -32t58 -12h169q26 0 49.5 10t40.5 27t27 40.5t10 49.5v276h31v-130q0 -28 9.5 -47t24.5 -30.5t34.5 -16t40.5 -4.5h45q14 0 14 -14v-9q0 -5 -4 -9.5t-10 -4.5h-53q-11 0 -24.5 3t-27.5 9t-26.5 15t-21.5 21v-56
q0 -35 -12.5 -65.5t-33.5 -53t-50 -35.5t-62 -13h-172q-37 0 -69.5 14t-56.5 38t-38 56.5t-14 69.5v245zM371 324v-58h-58v58h58z" />
    <glyph glyph-name="uniFEE7" unicode="&#x646;" horiz-adv-x="273" arabic-form="initial" 
d="M-10 33q4 4 10 4h76q20 0 37 7.5t29.5 20t20 29.5t7.5 36v163h31v-163q0 -27 -10 -50.5t-28 -41t-41.5 -28t-50.5 -10.5h-71q-14 0 -14 14v8q0 6 4 11zM152 494h58v-57h-58v57z" />
    <glyph glyph-name="uniFEE8" unicode="&#x646;" horiz-adv-x="319" arabic-form="medial" 
d="M-14 24q0 13 14 13h44q37 0 65 23t35 58l27 138l31 -5l-23 -115q-2 -8 -2 -15q0 -11 5 -25.5t18 -28.5t31 -22t39 -8h49q14 0 14 -13v-10q0 -14 -14 -14h-50q-35 0 -67 19.5t-40 52.5q-20 -33 -49 -52.5t-64 -19.5h-49q-14 0 -14 14v10zM186 456v-58h-57v58h57z" />
    <glyph glyph-name="uniFEEA" unicode="&#x647;" horiz-adv-x="506" arabic-form="final" 
d="M89 141v67q0 63 29.5 97t76.5 46l145 39v88h31v-340q0 -21 8.5 -39t23 -32t33.5 -22t40 -8h30q14 0 14 -14v-9q0 -14 -14 -14h-30q-43 0 -78.5 25t-49.5 63q-6 -5 -11.5 -9t-15.5 -4h-168q-38 0 -51 14.5t-13 51.5zM118 211v-96h222v242l-144 -38q-18 -4 -32.5 -15
t-24.5 -26t-15.5 -32.5t-5.5 -34.5z" />
    <glyph glyph-name="uniFEEB" unicode="&#x647;" horiz-adv-x="604" arabic-form="initial" 
d="M-14 25q0 5 3 9q4 3 11 3h107q-6 1 -13 8t-11.5 18.5t-6 21t-1.5 14.5q0 11 3 22l15 72q8 35 36 57.5t63 22.5h34q48 0 78 -31t30 -76v-103q0 -14 -2 -19.5t-2 -6.5h172v138q0 47 -22.5 72t-56.5 35l-300 93l8 30l297 -92q21 -7 40 -18t33.5 -28.5t23 -42t8.5 -57.5v-102
q0 -38 -14 -51.5t-51 -13.5h-143v22q-4 -6 -10 -11q-6 -4 -15 -7.5t-23 -3.5h-277q-14 0 -14 11v14zM104 102q0 -24 18 -42q22 -23 55 -23h126v124q0 35 -23 58.5t-58 23.5h-26q-29 0 -50 -19t-27 -46l-13 -60q-2 -8 -2 -16z" />
    <glyph glyph-name="uniFEEC" unicode="&#x647;" horiz-adv-x="530" arabic-form="medial" 
d="M-14 23q0 14 14 14h117v143q0 25 9 46.5t25 37.5t38 25.5t47 9.5h37q19 0 37 -6.5t32.5 -18.5t24.5 -28t13 -36l15 -81q2 -11 2 -21q0 -14 -4.5 -32t-18.5 -36t-35.5 -29t-49.5 -11h-118q-6 0 -12 2t-11 4v-12q0 -37 7.5 -62.5t21 -42.5t34 -26.5t46.5 -15.5l66 -13
l62 128q19 40 50.5 57.5t78.5 17.5h16q14 0 14 -14v-9q0 -14 -14 -14h-33q-35 0 -54 -14.5t-36 -45.5l-68 -136l-83 15q-33 6 -58.5 18t-43.5 33t-27.5 53t-9.5 77h-117q-14 0 -14 16v7zM148 37h139q27 0 43.5 7.5t25 20.5t9.5 23.5t1 16.5q0 11 -2 23l-13 70q-5 31 -29 50
t-55 19h-33q-37 0 -61.5 -25t-24.5 -60v-145z" />
    <glyph glyph-name="uniFEEE" unicode="&#x648;" horiz-adv-x="467" arabic-form="final" 
d="M82 131l17 91q8 38 38 63t69 25h56q24 0 45.5 -9t37.5 -25t25.5 -37t9.5 -45v-157h87q8 0 11 -4.5t3 -9.5v-9q0 -14 -14 -14h-88v-21q0 -28 -8 -57t-25.5 -56t-43 -47t-56.5 -30l-94 -31l-11 34l100 34q49 17 78 58t29 92v29q-10 -5 -23 -5h-136q-26 0 -47.5 11t-36.5 29
t-20 37t-5 32q0 11 2 22zM111 116q0 -11 3 -21q4 -17 15 -30t26 -20.5t33 -7.5h161v157q0 36 -25.5 60.5t-61.5 24.5h-51q-31 0 -55 -19.5t-29 -48.5l-15 -82q-1 -7 -1 -13z" />
    <glyph glyph-name="uniFEF0" unicode="&#x649;" horiz-adv-x="729" arabic-form="final" 
d="M89 159h31v-210q0 -30 11.5 -57t32 -47.5t47.5 -32t57 -11.5h167q27 0 50.5 10t41 28t27.5 41.5t10 50.5v69h-178v37h343q14 0 14 -14v-10q0 -13 -14 -13h-139q6 -15 6 -25v-52q0 -32 -12.5 -61t-33.5 -51t-49.5 -34.5t-60.5 -12.5h-173q-37 0 -69.5 14t-56.5 38
t-38 56.5t-14 69.5v217z" />
    <glyph glyph-name="uniFEF2" unicode="&#x64a;" horiz-adv-x="729" arabic-form="final" 
d="M89 -58v217h31v-210q0 -30 11.5 -57t32 -47.5t47.5 -32t57 -11.5h167q27 0 50.5 10t41 28t27.5 41.5t10 50.5v69h-178v37h343q14 0 14 -14v-10q0 -13 -14 -13h-139q6 -15 6 -25v-52q0 -32 -12.5 -61t-33.5 -51t-49.5 -34.5t-60.5 -12.5h-173q-37 0 -69.5 14t-56.5 38
t-38 56.5t-14 69.5zM369 -320h58v-58h-58v58zM259 -320h58v-58h-58v58z" />
    <glyph glyph-name="uniFEF3" unicode="&#x64a;" horiz-adv-x="290" arabic-form="initial" 
d="M-10 33q4 4 10 4h76q20 0 37 7.5t29.5 20t20 29.5t7.5 36v163h31v-163q0 -27 -10 -50.5t-28 -41t-41.5 -28t-50.5 -10.5h-71q-14 0 -14 14v8q0 6 4 11zM165 -120v-57h-58v57h58zM-3 -120h58v-57h-58v57z" />
    <glyph glyph-name="uniFEF4" unicode="&#x64a;" horiz-adv-x="319" arabic-form="medial" 
d="M-14 24q0 13 14 13h44q37 0 65 23t35 58l27 138l31 -5l-23 -115q-2 -8 -2 -15q0 -11 5 -25.5t18 -28.5t31 -22t39 -8h49q14 0 14 -13v-10q0 -14 -14 -14h-50q-35 0 -67 19.5t-40 52.5q-20 -33 -49 -52.5t-64 -19.5h-49q-14 0 -14 14v10zM185 -178v58h58v-58h-58zM76 -178
v58h57v-58h-57z" />
    <glyph glyph-name=".notdef" horiz-adv-x="250" 
 />
    <glyph glyph-name=".null" 
 />
    <glyph glyph-name=".null" 
 />
    <glyph glyph-name="uni000D" unicode="&#xd;" horiz-adv-x="250" 
 />
    <glyph glyph-name="space" unicode=" " horiz-adv-x="150" 
 />
    <glyph glyph-name="exclam" unicode="!" horiz-adv-x="213" 
d="M129 0h-43v83h43v-83zM123 213h-36l2 487h34v-487z" />
    <glyph glyph-name="quotedbl" unicode="&#x22;" horiz-adv-x="391" 
d="M98 700h38l-4 -210h-33zM255 700h37l-3 -210h-33z" />
    <glyph glyph-name="numbersign" unicode="#" horiz-adv-x="680" 
d="M89 191v31h122v227h-122v31h122v190h35v-190h188v190h35v-190h122v-31h-122v-227h122v-31h-122v-191h-35v191h-188v-191h-35v191h-122zM246 449v-227h188v227h-188z" />
    <glyph glyph-name="dollar" unicode="$" horiz-adv-x="586" 
d="M146 643q48 33 142 33q19 0 39 -1l16 115l27 1l-17 -116q4 -1 22.5 -4.5t39.5 -7t39 -6t22 -2.5l-3 -34q-10 1 -27.5 3t-36 4t-35 3.5t-24.5 2.5l-40 -289q59 -13 96 -28t57 -33.5t27 -43t7 -56.5q-1 -95 -52 -147.5t-157 -52.5h-24l-11 -103q-17 2 -21.5 3t-4.5 3l14 97
q-5 1 -26.5 5t-46 8t-45.5 7.5t-26 3.5l6 32q10 -1 30.5 -3.5t42.5 -4.5t41.5 -4t26.5 -3l37 289q-41 9 -76 20.5t-60.5 32.5t-40.5 54.5t-15 85.5v3q0 93 57 133zM140 445q9 -26 28.5 -43.5t49 -28t68.5 -18.5l37 281q-35 0 -69 -0.5t-61 -12t-44 -38t-18 -77.5v-7
q0 -33 9 -56zM283 23q84 0 128 37t44 115q0 34 -8.5 55.5t-27 36t-47 23.5t-67.5 18l-35 -285h13z" />
    <glyph glyph-name="percent" unicode="%" horiz-adv-x="565" 
d="M40 537q0 132 104 132t104 -132q0 -70 -28 -104.5t-76 -34.5q-49 0 -76.5 34.5t-27.5 104.5zM422 262q103 0 103 -131q0 -69 -28 -104.5t-76 -35.5t-74.5 35.5t-26.5 104.5q0 131 102 131zM77 539q0 -110 67 -110q35 0 51 26.5t16 83.5q0 51 -15 75t-52 24
q-34 0 -50.5 -24t-16.5 -75zM357 133q0 -60 16 -85.5t51 -25.5t49 26t14 82q0 55 -14 78t-49 23q-38 0 -52.5 -22.5t-14.5 -75.5zM178 -1l185 670l30 -9l-183 -669z" />
    <glyph glyph-name="ampersand" unicode="&#x26;" horiz-adv-x="727" 
d="M99 287q10 32 30.5 54.5t52 37.5t73.5 27q-26 25 -39.5 55.5t-13.5 75.5q0 75 40.5 115.5t115.5 40.5q74 0 112 -39.5t38 -111.5q0 -33 -8.5 -59t-28 -47t-51.5 -38.5t-78 -32.5l188 -183q8 21 13 40t9 40t7 45.5t6 57.5h34q-15 -136 -42 -209l139 -138l-23 -26l-132 132
q-35 -71 -91.5 -102t-127.5 -31q-63 0 -107.5 14t-72.5 41t-40.5 67t-12.5 93q0 48 10 81zM171 69q47 -44 147 -44q78 0 123 29t74 94l-233 232q-42 -10 -72 -22.5t-49 -32t-28 -47t-9 -68.5q0 -97 47 -141zM263 459q24 -41 55 -71q28 10 55.5 22.5t49.5 31t35.5 45
t13.5 63.5q0 107 -117 107t-117 -105q0 -53 25 -93z" />
    <glyph glyph-name="quotesingle" unicode="'" horiz-adv-x="233" 
d="M132 490h-33l-1 210h38z" />
    <glyph glyph-name="parenleft" unicode="(" horiz-adv-x="260" 
d="M95 403q5 49 16.5 103t29 114t42.5 130h37q-17 -46 -34 -101t-30.5 -114.5t-22 -121.5t-8.5 -122q0 -46 9.5 -102t24 -113t31 -110t30.5 -91h-37q-37 106 -65.5 211t-28.5 218q0 49 6 99z" />
    <glyph glyph-name="parenright" unicode=")" horiz-adv-x="260" 
d="M72 -34q16 53 30 110t23.5 113t9.5 102q0 60 -8 122t-21.5 121.5t-30.5 114.5t-35 101h36q25 -70 43 -130t29.5 -114t17 -103.5t5.5 -98.5q0 -57 -7.5 -111t-20.5 -107t-30.5 -105.5t-36.5 -105.5h-36q15 38 32 91z" />
    <glyph glyph-name="asterisk" unicode="*" horiz-adv-x="563" 
d="M112 448l169 -170l170 170l23 -23l-170 -170l170 -169l-23 -23l-170 170l-169 -170l-23 23l169 169l-169 170z" />
    <glyph glyph-name="plus" unicode="+" horiz-adv-x="622" 
d="M292 268v212h35v-212h206v-34h-206v-214h-35v214h-203v34h203z" />
    <glyph glyph-name="comma" unicode="," horiz-adv-x="283" 
d="M97 17q0 8 3 19t6.5 22t7 20.5t5.5 13.5l41 106l29 -11l-55 -149l62 -21l-19 -60q-22 8 -35 13.5t-24 11.5q-21 11 -21 33v2z" />
    <glyph glyph-name="hyphen" unicode="-" horiz-adv-x="485" 
d="M89 300h307v-36h-307v36z" />
    <glyph glyph-name="period" unicode="." horiz-adv-x="212" 
d="M128 0h-44v83h44v-83z" />
    <glyph glyph-name="slash" unicode="/" horiz-adv-x="400" 
d="M44 11l280 691l32 -14l-278 -687z" />
    <glyph glyph-name="zero" unicode="0" horiz-adv-x="596" 
d="M83 490q14 65 42 105t71 57.5t100 17.5q58 0 101.5 -18t72.5 -58t43.5 -105t14.5 -160t-14.5 -160t-43.5 -104.5t-71.5 -57t-99.5 -17.5q-58 0 -101.5 17.5t-72 57t-42.5 104.5t-14 160t14 161zM107 329q0 -86 11 -144q11 -59 34.5 -94.5t59.5 -50.5t87 -15q50 0 86 15
t59 50.5t34 94t11 144.5q0 87 -11 145.5t-34 94.5t-59 51t-86 15q-51 0 -87 -15t-59.5 -51t-34.5 -94.5t-11 -145.5z" />
    <glyph glyph-name="one" unicode="1" horiz-adv-x="412" 
d="M324 0h-36v620l-188 -123l-17 27l205 136h36v-660z" />
    <glyph glyph-name="two" unicode="2" horiz-adv-x="567" 
d="M74 33l294 311q24 29 45 71.5t21 96.5q0 63 -40.5 93t-132.5 30q-33 0 -69 -5t-78 -14l-29 -8l-5 35q45 14 90.5 20t87.5 6q112 0 162.5 -39t50.5 -126q0 -38 -8 -67.5t-22 -54.5q-17 -26 -42.5 -54t-57.5 -65l-219 -229h370v-34h-418v33z" />
    <glyph glyph-name="three" unicode="3" horiz-adv-x="574" 
d="M81 48q50 -12 91.5 -20t84.5 -8q40 0 77.5 8.5t66 28t45.5 51.5t17 79q0 67 -39 104.5t-125 37.5h-133v38h133q25 0 51 11.5t47 30t34.5 43.5t13.5 52q0 35 -8.5 60t-28 40.5t-51.5 23t-79 7.5q-38 0 -79.5 -4t-79.5 -12l-26 -6l-5 35q47 11 95.5 17t93.5 6
q112 0 158.5 -40.5t46.5 -129.5q0 -22 -9.5 -45.5t-25.5 -44.5t-36.5 -37t-42.5 -22q66 -18 99 -61.5t33 -119.5q0 -90 -51.5 -135t-163.5 -45q-38 0 -84.5 2.5t-95.5 13.5l-31 6z" />
    <glyph glyph-name="four" unicode="4" horiz-adv-x="561" 
d="M40 172l205 488h38l-201 -485h305v220h36v-220h98v-32h-98v-143h-36v143h-347v29z" />
    <glyph glyph-name="five" unicode="5" horiz-adv-x="576" 
d="M79 51q54 -12 100.5 -17.5t88.5 -5.5q97 0 146.5 49.5t49.5 140.5q0 86 -44 122.5t-133 36.5q-25 0 -54.5 -8t-55.5 -17.5t-44 -17.5t-19 -9l-35 4l18 331h373v-35h-338l-19 -267q45 27 90.5 40.5t98.5 13.5q98 0 148.5 -48t50.5 -148q0 -108 -57 -166t-163 -58
q-21 0 -40.5 1t-40 3t-43.5 6t-52 10l-31 6z" />
    <glyph glyph-name="six" unicode="6" horiz-adv-x="596" 
d="M139 585q64 84 184 84q42 0 83.5 -1.5t83.5 -8.5l-3 -33q-44 5 -87 8t-86 3q-95 0 -147.5 -73t-52.5 -205q14 6 38.5 14.5t52 16t54.5 12.5t46 5q217 0 217 -198q0 -105 -56.5 -161.5t-149.5 -56.5q-125 0 -183.5 81t-58.5 249q0 179 65 264zM113 326q1 -142 46 -222
q44 -81 131 -81q98 0 145.5 46.5t47.5 133.5t-46.5 129.5t-134.5 42.5q-17 0 -42.5 -4.5t-52 -11.5t-52 -15.5t-42.5 -17.5z" />
    <glyph glyph-name="seven" unicode="7" horiz-adv-x="531" 
d="M174 5l265 599v22h-365v34h402v-64l-266 -605z" />
    <glyph glyph-name="eight" unicode="8" horiz-adv-x="580" 
d="M46 169q0 68 35 109t98 69q-64 25 -93 58.5t-29 83.5q0 52 22 87t55.5 56t74.5 30t80 9q235 0 235 -181q0 -53 -31 -86.5t-104 -56.5q75 -23 110 -62.5t35 -109.5q0 -90 -57.5 -137t-184.5 -47q-246 0 -246 178zM134 62q51 -36 154 -36q106 0 157.5 38t51.5 119
q0 32 -9 54t-28 38.5t-48 28.5t-70 23h-119q-73 -18 -106.5 -53.5t-33.5 -97.5q0 -78 51 -114zM93 500q0 -54 31 -86t99 -49h119q77 17 111 48.5t34 87.5q0 135 -197 135t-197 -136z" />
    <glyph glyph-name="nine" unicode="9" horiz-adv-x="554" 
d="M60 441q0 53 15.5 95t44 71.5t67.5 45.5t86 16q236 0 236 -346q0 -176 -63.5 -254t-194.5 -78q-29 0 -64.5 3t-77.5 6l-23 1l4 31q44 -5 84.5 -7t81.5 -2q211 0 215 277q-54 -22 -106.5 -33t-109.5 -11q-195 0 -195 185zM264 288q42 0 84 9.5t89 24.5l34 11
q-5 304 -195 304q-81 0 -129 -50.5t-48 -138.5q0 -160 165 -160z" />
    <glyph glyph-name="colon" unicode=":" horiz-adv-x="214" 
d="M128 84v-84h-44v84h44zM84 339v84h44v-84h-44z" />
    <glyph glyph-name="semicolon" unicode=";" horiz-adv-x="274" 
d="M107 147q22 -8 35 -13.5t24 -11.5q21 -11 21 -33v-2q0 -8 -3 -19t-6.5 -22t-7 -20t-5.5 -14l-41 -106l-29 11l55 149l-62 21zM141 421v-73h-39v73h39z" />
    <glyph glyph-name="less" unicode="&#x3c;" horiz-adv-x="502" 
d="M40 233v36l422 217v-40l-392 -195l392 -196v-41z" />
    <glyph glyph-name="equal" unicode="=" horiz-adv-x="600" 
d="M89 353h422v-35h-422v35zM511 184v-35h-422v35h422z" />
    <glyph glyph-name="greater" unicode="&#x3e;" horiz-adv-x="503" 
d="M463 269v-36l-423 -219v41l392 196l-392 195v40z" />
    <glyph glyph-name="question" unicode="?" horiz-adv-x="566" 
d="M197 704q33 5 56 5h12q51 -1 89 -8t63.5 -23.5t38 -45.5t12.5 -76q0 -32 -5 -55t-17 -42t-31 -38t-45 -44q-13 -13 -31.5 -30t-35.5 -37t-29 -41t-12 -41v-38h-32l1 1q-1 2 -1.5 6t-1.5 11.5t-2 15.5t-1 14q0 25 12 47.5t29 42.5t36.5 37.5t35.5 32.5q32 31 50 50.5
t27 36t11 33.5t2 44q0 59 -38 86.5t-123 27.5q-18 0 -58.5 -7t-106.5 -21l-4 35q55 13 99 21zM268 84v-83h-44v83h44z" />
    <glyph glyph-name="at" unicode="@" horiz-adv-x="1043" 
d="M89 262q0 123 26 210t80 141.5t136 80t194 25.5q116 0 198 -26.5t133.5 -80.5t75 -136.5t23.5 -195.5q0 -18 -0.5 -47t-5 -61t-14 -64.5t-27 -58.5t-44 -42.5t-65.5 -16.5q-51 0 -78.5 16t-38.5 50q-57 -32 -105.5 -48.5t-98.5 -16.5q-29 0 -57 8.5t-49.5 33.5
t-34.5 70.5t-13 118.5q0 78 11 133t36 89t64.5 49.5t96.5 15.5q29 0 65.5 -8.5t65.5 -18.5v18h38v-267q0 -69 2.5 -110.5t13 -63.5t32.5 -29t61 -7q27 0 45.5 16t30.5 41.5t18.5 56.5t9 60.5t3 54.5t0.5 38q0 102 -21 177t-67 124.5t-119.5 73.5t-179.5 24t-182 -23
t-125.5 -74.5t-73 -135t-23.5 -203.5q0 -89 16.5 -166t61 -134t123.5 -89.5t204 -32.5l143 11l3 -32q-6 0 -27.5 -1t-46 -2.5t-45.5 -3t-26 -2.5q-32 -3 -62 -3q-81 0 -154 24t-126 84.5t-77 150.5t-24 205zM393 79q31 -54 89 -54q30 0 76.5 15.5t115.5 45.5q-5 32 -8 85
t-3 131v148q-38 14 -72 21t-68 7q-90 0 -126 -56.5t-36 -180.5q0 -109 32 -162z" />
    <glyph glyph-name="A" unicode="A" horiz-adv-x="578" 
d="M231 700h116l197 -700h-36l-60 214h-318l-60 -214h-36zM438 251l-117 417h-64l-117 -417h298z" />
    <glyph glyph-name="B" unicode="B" horiz-adv-x="608" 
d="M86 0v701h240q103 0 152 -42.5t49 -132.5q0 -69 -26.5 -107t-73.5 -55q64 -23 95 -64.5t31 -116.5q0 -98 -52 -140.5t-155 -42.5h-260zM120 343v-309h226q85 0 129 34t44 112q0 45 -14.5 76t-39.5 50.5t-58 28t-71 8.5h-216zM120 376h217q80 0 117.5 36.5t37.5 114.5
q0 77 -39 109t-127 32h-206v-292z" />
    <glyph glyph-name="C" unicode="C" horiz-adv-x="542" 
d="M79 473q10 64 38.5 116.5t78.5 85.5t129 33q37 0 80.5 -4t96.5 -13l-3 -35q-50 10 -95 14.5t-87 4.5q-49 0 -84 -16.5t-59 -43t-37.5 -61.5t-21 -72t-9.5 -74t-2 -67q0 -60 9 -117t34.5 -101.5t73.5 -71.5t126 -27q26 0 65.5 5t86.5 16l3 -34q-48 -10 -90.5 -15t-71.5 -5
q-82 0 -134.5 29.5t-83 79t-42 113.5t-11.5 132q0 63 10 128z" />
    <glyph glyph-name="D" unicode="D" horiz-adv-x="651" 
d="M89 0v700h260q68 0 113 -30.5t71.5 -78.5t37.5 -106t11 -112q0 -97 -16.5 -167.5t-47 -116.5t-73.5 -67.5t-96 -21.5h-260zM349 34q40 0 76 19t63 59t43 101.5t16 145.5q0 78 -14.5 136t-40.5 96t-62.5 56.5t-80.5 18.5h-225v-632h225z" />
    <glyph glyph-name="E" unicode="E" horiz-adv-x="572" 
d="M503 700v-34h-373v-292h313v-34h-313v-306h373v-34h-408v700h408z" />
    <glyph glyph-name="F" unicode="F" horiz-adv-x="538" 
d="M89 700h401v-34h-365v-316h314v-34h-314v-317h-36v701z" />
    <glyph glyph-name="G" unicode="G" horiz-adv-x="610" 
d="M82 511q13 66 44.5 109.5t84 65.5t131.5 22q34 0 79 -4.5t96 -13.5l33 -6l-3 -35q-66 12 -121.5 19t-105.5 7q-56 0 -96.5 -14.5t-67 -49.5t-39.5 -95t-13 -152q0 -54 8 -113.5t32.5 -109.5t69 -83t117.5 -33q22 0 42 1t41.5 3.5t45.5 6.5t53 10v268h-139v34h176v-333
q-58 -12 -112.5 -18t-110.5 -6q-72 0 -121.5 20.5t-79.5 64.5t-43.5 113.5t-13.5 167.5q0 88 13 154z" />
    <glyph glyph-name="H" unicode="H" horiz-adv-x="666" 
d="M125 700v-332h417v332h36v-699h-36v333h-417v-333h-36v699h36z" />
    <glyph glyph-name="I" unicode="I" horiz-adv-x="213" 
d="M125 0h-36v700h36v-700z" />
    <glyph glyph-name="J" unicode="J" horiz-adv-x="287" 
d="M82 -36q26 3 42 16.5t23 41t7 75.5v603h35v-619q0 -47 -14 -77t-37.5 -47t-54.5 -23.5t-66 -6.5v34q38 0 65 3z" />
    <glyph glyph-name="K" unicode="K" horiz-adv-x="557" 
d="M125 700v-339l124 1l226 338h42l-235 -353l251 -347h-46l-233 330l-129 -1v-329h-36v700h36z" />
    <glyph glyph-name="L" unicode="L" horiz-adv-x="500" 
d="M125 33h341v-33h-377v700h36v-667z" />
    <glyph glyph-name="M" unicode="M" horiz-adv-x="820" 
d="M164 700l247 -639l245 639h75v-700h-36v667h-12l-248 -646h-50l-250 646h-10v-667h-36v700h75z" />
    <glyph glyph-name="N" unicode="N" horiz-adv-x="658" 
d="M89 0v700h83l338 -668h23v668h36v-700h-85l-339 668h-20v-668h-36z" />
    <glyph glyph-name="O" unicode="O" horiz-adv-x="671" 
d="M69 346q0 127 25 205t83 117.5t161 39.5q99 0 157 -39.5t83 -118t25 -207.5q0 -130 -24 -206t-81 -111t-159 -35q-106 0 -164 37t-82 114t-24 204zM126 155q22 -70 71 -100t142 -30q90 0 138.5 31.5t69 100t20.5 187.5q0 118 -21 190t-71 106t-137 34q-92 0 -142 -34
t-71 -104.5t-21 -188.5q0 -123 22 -192z" />
    <glyph glyph-name="P" unicode="P" horiz-adv-x="595" 
d="M346 700q109 0 157 -52.5t48 -164.5q0 -115 -49.5 -170.5t-155.5 -55.5h-221v-257h-36v700h257zM125 666v-375h220q170 0 170 194q0 93 -40 137t-130 44h-220z" />
    <glyph glyph-name="Q" unicode="Q" horiz-adv-x="700" 
d="M112 509q13 68 44 112.5t82.5 65.5t126.5 21t125.5 -21t82 -64.5t45 -110t13.5 -157.5q0 -38 -3 -87.5t-14.5 -97.5t-35.5 -89t-66 -63l84 -138l-34 -17l-87 141q-25 -6 -52 -9.5t-57 -3.5q-77 0 -128.5 29.5t-82.5 79t-44 114t-13 133.5q0 94 14 162zM133 343
q0 -54 8.5 -110.5t34 -102.5t72 -75.5t121.5 -29.5q69 0 113.5 27.5t69.5 71.5t34.5 101t9.5 115q0 34 -3.5 71.5t-12.5 74.5t-25.5 71t-42.5 60t-63 41.5t-88 15.5q-69 0 -113.5 -29t-70 -76.5t-35 -106.5t-9.5 -119z" />
    <glyph glyph-name="R" unicode="R" horiz-adv-x="627" 
d="M342 700q107 0 156.5 -48t49.5 -154q0 -177 -142 -204l154 -294h-37l-157 290h-241v-290h-36v700h253zM125 666v-342h217q87 0 129.5 42t42.5 131q0 88 -42 128.5t-130 40.5h-217z" />
    <glyph glyph-name="S" unicode="S" horiz-adv-x="566" 
d="M121 669q52 42 169 42q42 0 94 -5t99 -11l-4 -35q-75 9 -123.5 13t-71.5 4q-178 0 -178 -144q0 -40 10 -64.5t32.5 -40t57.5 -25.5t84 -21q38 -8 75 -18.5t66.5 -29t47.5 -49t18 -77.5q0 -112 -50 -164t-161 -52q-12 0 -29 0.5t-42.5 2t-60.5 5t-82 9.5l4 35
q69 -9 119.5 -13.5t76.5 -4.5q98 0 143 43.5t45 129.5q0 46 -16.5 73t-41.5 41.5t-55.5 20.5t-57.5 9q-38 6 -77.5 17t-71 33t-51.5 58.5t-20 92.5q0 82 52 125z" />
    <glyph glyph-name="T" unicode="T" horiz-adv-x="549" 
d="M24 700h500v-33h-230v-667h-36v667h-234v33z" />
    <glyph glyph-name="U" unicode="U" horiz-adv-x="611" 
d="M74 700h38v-505q0 -86 48 -128t148 -42q96 0 143.5 39.5t47.5 130.5v505h37v-504q0 -108 -59 -156.5t-175 -48.5q-114 0 -171 48.5t-57 156.5v504z" />
    <glyph glyph-name="V" unicode="V" horiz-adv-x="578" 
d="M34 700h36l187 -668h64l187 668h36l-197 -700h-116z" />
    <glyph glyph-name="W" unicode="W" horiz-adv-x="849" 
d="M72 700l140 -665h38l155 657h42l153 -657h40l140 665h34l-147 -700h-94l-149 642l-145 -642h-96l-149 700h38z" />
    <glyph glyph-name="X" unicode="X" horiz-adv-x="569" 
d="M34 0l227 348l-227 352h44l208 -327l207 327h42l-223 -354l223 -346h-42l-207 323l-209 -323h-43z" />
    <glyph glyph-name="Y" unicode="Y" horiz-adv-x="533" 
d="M64 700l202 -360l204 360h43l-228 -398v-302h-36v302l-229 398h44z" />
    <glyph glyph-name="Z" unicode="Z" horiz-adv-x="530" 
d="M40 700h450v-71l-415 -576v-21h415v-33h-450v68l413 574v25h-413v34z" />
    <glyph glyph-name="bracketleft" unicode="[" horiz-adv-x="312" 
d="M270 749v-31h-146v-810h146v-31h-181v872h181z" />
    <glyph glyph-name="backslash" unicode="\" horiz-adv-x="425" 
d="M381 14l-34 -13l-303 686l37 13z" />
    <glyph glyph-name="bracketright" unicode="]" horiz-adv-x="310" 
d="M222 749v-872h-182v31h147v810h-147v31h182z" />
    <glyph glyph-name="asciicircum" unicode="^" horiz-adv-x="483" 
d="M219 660h36l188 -336h-40l-165 299l-158 -299h-40z" />
    <glyph glyph-name="underscore" unicode="_" horiz-adv-x="606" 
d="M89 -105h428v-33h-428v33z" />
    <glyph glyph-name="a" unicode="a" horiz-adv-x="503" 
d="M77 239q33 36 105 44l190 20v51q0 63 -26.5 93t-70.5 30q-50 0 -101 -5.5t-102 -11.5l-2 32q54 8 101.5 12.5t88.5 4.5q75 0 112 -37t37 -118v-290q0 -13 20 -24t54 -16l-2 -33q-34 0 -62 12.5t-42 32.5q-97 -45 -201 -45q-64 0 -98 39t-34 108q0 65 33 101zM84 140
q0 -115 90 -115q44 0 85.5 8t83.5 23l29 10v206l-185 -20q-56 -5 -79.5 -31.5t-23.5 -80.5z" />
    <glyph glyph-name="b" unicode="b" horiz-adv-x="514" 
d="M89 1v729h36v-259q42 18 86 28t89 10q48 0 79.5 -13t50.5 -42.5t27 -78t8 -119.5q0 -69 -13 -119t-42.5 -82t-77.5 -47.5t-118 -15.5q-23 0 -58 2t-67 7zM125 27h25q18 -1 37 -2t35 -2t20 -1q54 0 90 13.5t58 42.5t31 73.5t9 107.5t-6.5 105.5t-22 68t-41 36.5t-63.5 11
t-79.5 -9.5t-92.5 -29.5v-414z" />
    <glyph glyph-name="c" unicode="c" horiz-adv-x="445" 
d="M78 345q9 46 30.5 83t57 60t88.5 23q38 0 73.5 -3.5t67.5 -8.5l-2 -30q-3 0 -14.5 1.5t-27 3t-33.5 2.5t-36 1q-55 0 -89 -16.5t-53 -46.5t-26 -71.5t-7 -91.5q0 -42 2.5 -83t18 -72.5t49.5 -51t98 -19.5l121 9l1 -32q-45 -5 -76.5 -8t-51.5 -3q-58 0 -97 14.5
t-61.5 45.5t-32 80.5t-9.5 119.5q0 47 9 94z" />
    <glyph glyph-name="d" unicode="d" horiz-adv-x="536" 
d="M69 243q0 71 11.5 121.5t38 82.5t69 47t103.5 15q32 0 61.5 -3.5t58.5 -8.5v233h36v-730h-38v40q-80 -49 -167 -49q-93 0 -133 59.5t-40 192.5zM136 77q29 -57 97 -57q18 0 39 3.5t42 8.5t40 12t32 14l25 13v393q-35 7 -66 10t-58 3q-52 0 -87 -13t-55.5 -40.5t-29 -71
t-8.5 -104.5q0 -115 29 -171z" />
    <glyph glyph-name="e" unicode="e" horiz-adv-x="505" 
d="M117 444q48 65 153 65q98 0 144.5 -54t46.5 -147q0 -18 -2 -38v-35h-354v-12q0 -51 8 -89.5t28 -64t54 -37t85 -11.5q26 0 62 1t67 4l30 3l2 -29q-102 -9 -174 -9q-57 0 -95.5 20t-61 55t-32 82t-9.5 102q0 128 48 194zM423 268q0 110 -36.5 158.5t-116.5 48.5
q-81 0 -123.5 -50t-42.5 -152v-5h319z" />
    <glyph glyph-name="f" unicode="f" horiz-adv-x="355" 
d="M44 501h70v60q0 53 6.5 87t22 54.5t40 28.5t60.5 8l92 -6v-27q-28 1 -51 2q-20 0 -36 0.5t-18 0.5h-5q-44 0 -59.5 -35t-15.5 -114v-59h162v-32h-162v-469h-36v469h-70v32z" />
    <glyph glyph-name="g" unicode="g" horiz-adv-x="531" 
d="M69 -86q0 49 23 77.5t60 55.5q-11 8 -16 23.5t-5 32.5q0 6 0.5 12.5t3 16t8.5 24t17 35.5q-85 29 -85 153q0 85 40.5 125.5t133.5 40.5q50 0 101 -13l141 4v-35l-107 -1q20 -15 29 -45t9 -72q0 -92 -41.5 -130.5t-131.5 -38.5q-21 0 -36 1t-26 3q-3 -5 -7 -16t-7.5 -24
t-6 -26t-2.5 -23q1 -9 4.5 -15.5t13 -11t26 -6.5t43.5 -2h21q8 0 15 0.5t7 1.5q10 1 20 1q25 0 53.5 -4.5t54 -21t41 -47t15.5 -79.5q0 -38 -11 -66t-37 -46.5t-68 -27.5t-104 -9q-59 0 -96 8.5t-57.5 27t-28 47.5t-7.5 70zM112 -142q7 -24 25 -38.5t48.5 -20.5t75.5 -6
q51 0 85.5 6.5t56 21t30.5 38t9 57.5q0 33 -6.5 54t-23 34t-44.5 18t-70 5h-119q-18 -12 -31.5 -22.5t-23.5 -22.5t-15 -27t-5 -37q0 -36 8 -60zM110 344q0 -37 7 -62t23.5 -40.5t42.5 -22.5t64 -7t64.5 7t43 22.5t24 41t7.5 62.5q0 74 -31 103.5t-105 29.5
q-77 0 -108.5 -30t-31.5 -104z" />
    <glyph glyph-name="h" unicode="h" horiz-adv-x="508" 
d="M89 1v729h36v-260q43 19 87 29t86 10q55 0 88 -18t50 -50.5t22.5 -78t5.5 -101.5v-260h-36v258q0 37 -2 76t-13.5 71.5t-37 53t-72.5 20.5q-19 0 -43.5 -4t-48.5 -10t-46.5 -13t-39.5 -14v-438h-36z" />
    <glyph glyph-name="i" unicode="i" horiz-adv-x="203" 
d="M119 500v-500h-36v500h36zM83 644v55h36v-55h-36z" />
    <glyph glyph-name="j" unicode="j" horiz-adv-x="202" 
d="M-56 -189q60 33 89 57q28 24 39 54.5t11 82.5v495h36v-496q0 -58 -13.5 -94.5t-47 -65.5t-98.5 -63zM83 644v55h36v-55h-36z" />
    <glyph glyph-name="k" unicode="k" horiz-adv-x="448" 
d="M111 730v-441h95l174 211h41l-186 -225l193 -275h-41l-181 257l-95 1v-258h-37v730h37z" />
    <glyph glyph-name="l" unicode="l" horiz-adv-x="185" 
d="M111 0h-37v730h37v-730z" />
    <glyph glyph-name="m" unicode="m" horiz-adv-x="833" 
d="M83 497h35v-37q77 46 168 46q50 0 81 -13t47 -38q18 11 43.5 20.5t53 16.5t53.5 10.5t46 3.5q53 0 83.5 -24t46.5 -60.5t20 -80t4 -82.5v-259h-36v258q0 36 -2 74.5t-15 71t-39.5 53t-76.5 20.5q-38 0 -81.5 -13t-85.5 -36q11 -17 14.5 -58t3.5 -110v-260h-36v258
q0 45 -2 84.5t-13 69.5t-34 47.5t-65 17.5q-20 0 -43.5 -4t-47.5 -11t-46.5 -16t-39.5 -19v-427h-36v497z" />
    <glyph glyph-name="n" unicode="n" horiz-adv-x="527" 
d="M83 497h35v-37q49 26 90.5 36t79.5 10q57 0 91 -19.5t51.5 -53.5t22.5 -79t5 -95v-259h-36v258q0 31 -2 69t-14.5 71.5t-39 56t-74.5 22.5q-22 0 -45.5 -4.5t-46.5 -12t-44 -16t-37 -17.5v-427h-36v497z" />
    <glyph glyph-name="o" unicode="o" horiz-adv-x="553" 
d="M73 244q0 49 7.5 96.5t29.5 85t62 60.5t105 23q59 0 98 -19.5t62.5 -54.5t33 -83.5t9.5 -106.5q0 -49 -7.5 -95t-29.5 -81.5t-62 -56.5t-105 -21q-58 0 -97 17.5t-62.5 50t-33.5 79.5t-10 106zM116 165q5 -40 22 -71.5t50.5 -51t90.5 -19.5q51 0 83 16.5t50 46.5t24 71.5
t6 90.5q0 38 -4.5 78.5t-21.5 74t-50.5 55t-91.5 21.5q-52 0 -84 -18t-49.5 -49.5t-23.5 -73.5t-6 -91q0 -40 5 -80z" />
    <glyph glyph-name="p" unicode="p" horiz-adv-x="507" 
d="M83 500h35v-40q82 49 174 49q45 0 77.5 -14t53 -44t30 -77.5t9.5 -114.5q0 -71 -11 -121.5t-37 -83t-68 -48t-104 -15.5q-30 0 -61.5 3t-61.5 11v-235h-36v730zM202 27q34 -4 57 -4q90 0 129 54t39 178q0 61 -8.5 103.5t-24.5 69.5t-39.5 39.5t-53.5 12.5
q-20 0 -44.5 -4.5t-49.5 -12t-48 -17t-40 -19.5v-391q48 -6 83 -9z" />
    <glyph glyph-name="q" unicode="q" horiz-adv-x="500" 
d="M40 236q0 76 12 130t38.5 88t63 45.5t75.5 11.5q18 0 37 -2l151 -9v-730h-36v257q-36 -17 -76.5 -26.5t-82.5 -9.5q-48 0 -82.5 14t-56.5 43.5t-32.5 76t-10.5 111.5zM84 138q8 -42 26 -68t46 -38t67 -12q16 0 36.5 3.5t42.5 9t42.5 12.5t36.5 14v411q-7 0 -25 1t-37 2.5
t-35.5 2.5t-20.5 1q-14 1 -27 1q-39 0 -71 -13t-52.5 -44.5t-28.5 -77.5t-8 -104q0 -60 8 -101z" />
    <glyph glyph-name="r" unicode="r" horiz-adv-x="344" 
d="M83 500h35v-77q43 32 92.5 54t106.5 34v-38q-20 -4 -46.5 -13.5t-53.5 -21.5t-53 -25t-45 -25v-388h-36v500z" />
    <glyph glyph-name="s" unicode="s" horiz-adv-x="508" 
d="M73 373q0 75 47 105t141 30q35 0 77 -3.5t79 -11.5l-2 -32q-35 5 -77 10t-82 5q-80 0 -113.5 -25t-33.5 -71q0 -20 7 -35.5t23.5 -27t43.5 -21t68 -17.5q23 -5 55 -13.5t60.5 -24.5t48.5 -41t20 -62q0 -79 -45.5 -113t-143.5 -34q-42 0 -83.5 5t-82.5 12l4 31
q55 -9 97.5 -12.5t72.5 -3.5q76 0 110.5 26.5t34.5 86.5q0 30 -18 50t-42.5 32t-50.5 17.5t-43 6.5q-53 8 -86.5 19t-52.5 27t-26 37t-7 48z" />
    <glyph glyph-name="t" unicode="t" horiz-adv-x="371" 
d="M34 500h80v162h36v-162h180v-32h-180v-281q0 -36 1.5 -67t10.5 -53.5t27.5 -35t51.5 -12.5l97 9l3 -29q-34 -5 -60.5 -7.5t-43.5 -2.5q-34 0 -58 8t-38 28t-20.5 54t-6.5 86v303h-80v32z" />
    <glyph glyph-name="u" unicode="u" horiz-adv-x="520" 
d="M105 497v-257q0 -46 2 -86t14 -70t37.5 -47t73.5 -17q39 0 81.5 12.5t82.5 37.5v427h36v-497h-38v37q-40 -23 -75.5 -34.5t-77.5 -11.5q-59 0 -93 22t-51.5 57t-22.5 79t-5 88v260h36z" />
    <glyph glyph-name="v" unicode="v" horiz-adv-x="478" 
d="M34 500h40l142 -468h43l146 468h38l-155 -500h-99z" />
    <glyph glyph-name="w" unicode="w" horiz-adv-x="753" 
d="M34 500h36l130 -468h10l148 458h37l148 -458h12l126 468h37l-135 -500h-69l-138 448l-137 -448h-69z" />
    <glyph glyph-name="x" unicode="x" horiz-adv-x="451" 
d="M34 0l172 250l-172 250h41l151 -224l150 224h41l-171 -249l169 -251h-41l-148 223l-151 -223h-41z" />
    <glyph glyph-name="y" unicode="y" horiz-adv-x="479" 
d="M34 500h36l149 -468h40l148 468h37l-229 -730h-37l71 230h-60z" />
    <glyph glyph-name="z" unicode="z" horiz-adv-x="469" 
d="M420 500v-29l-327 -442h327v-29h-371v29l328 442h-328v29h371z" />
    <glyph glyph-name="braceleft" unicode="{" horiz-adv-x="346" 
d="M40 296v30q57 13 79.5 41t23.5 79l-7 129q2 89 42.5 130.5t134.5 45.5l2 -32q-40 -2 -67 -11t-43.5 -26t-24 -43.5t-7.5 -63.5l7 -120q-2 -63 -24.5 -96t-76.5 -48q27 -9 46 -21t30.5 -28.5t16.5 -39.5t6 -53l-7 -115q0 -36 7.5 -62.5t24.5 -44.5t44.5 -27.5t67.5 -11.5
l-2 -32q-94 4 -134.5 45.5t-42.5 132.5l7 121q-1 48 -23.5 76t-79.5 45z" />
    <glyph glyph-name="bar" unicode="|" horiz-adv-x="188" 
d="M117 -230h-34v960h34v-960z" />
    <glyph glyph-name="braceright" unicode="}" horiz-adv-x="352" 
d="M36 -92q41 2 68.5 11.5t45 27.5t25 44.5t7.5 62.5l-7 115q1 30 6 53t16.5 39.5t30.5 28.5t46 21q-56 15 -78 48t-23 96l7 120q0 37 -7.5 63.5t-24.5 43.5t-44 26t-66 11l2 32q93 -4 133 -45.5t42 -130.5l-7 -129q1 -51 24 -79t80 -41v-30q-57 -17 -80 -45t-24 -76l7 -121
q-2 -91 -41.5 -132.5t-133.5 -45.5z" />
    <glyph glyph-name="asciitilde" unicode="~" horiz-adv-x="596" 
d="M195 319q28 0 104 -35q68 -37 90 -37q10 0 24.5 5.5t29.5 13t28.5 16.5t22.5 16l11 -30q-39 -32 -65 -44t-52 -12q-29 0 -99 37q-74 37 -91 37q-10 0 -24 -5.5t-29 -14t-28.5 -17.5t-21.5 -16l-12 33q62 53 112 53z" />
    <glyph glyph-name="exclamdown" unicode="&#xa1;" horiz-adv-x="213" 
d="M123 -200h-34v487h34v-487zM129 416h-43v84h43v-84z" />
    <glyph glyph-name="cent" unicode="&#xa2;" horiz-adv-x="443" 
d="M70 342q10 40 31 66t53.5 38.5t77.5 14.5v130h35v-132l116 -10l-2 -34q-24 3 -42 4.5t-32 3t-27 2t-28 0.5q-44 0 -73.5 -9.5t-47 -30.5t-25 -54.5t-7.5 -82.5q0 -50 7 -83t24 -52.5t47 -27.5t76 -8l129 8l3 -35q-42 -5 -67 -7t-40 -2h-11v-126h-35l1 126q-48 2 -81 12
t-53.5 33t-29.5 61.5t-9 97.5q0 57 10 97z" />
    <glyph glyph-name="sterling" unicode="&#xa3;" horiz-adv-x="562" 
d="M176 34v340h-69v32h69v52q0 46 3 85t16.5 67t41 44t75.5 16q30 0 60 -3.5t59 -9.5l2 -32q-49 7 -80.5 10.5t-45.5 3.5h-5q-34 0 -53.5 -14t-28.5 -39.5t-10 -59t-1 -71.5v-49h183v-32h-183v-340h174l83 16l7 -32l-83 -18h-307v34h93z" />
    <glyph glyph-name="currency" unicode="&#xa4;" horiz-adv-x="584" 
d="M89 429l27 27l68 -70q44 36 107 36q59 0 110 -36l68 70l26 -27l-70 -69q37 -50 37 -109q0 -63 -37 -107l70 -69l-26 -26l-68 69q-51 -36 -110 -36q-63 0 -108 36l-67 -70l-27 27l69 69q-19 26 -27.5 52.5t-8.5 54.5q0 27 8.5 54.5t27.5 54.5zM197 158q40 -41 96 -41
q27 0 51.5 11t43 29.5t29.5 43t11 51.5t-11 51.5t-29.5 43t-43 29.5t-51.5 11q-28 0 -52.5 -11t-43.5 -29.5t-30 -43t-11 -51.5q0 -56 41 -94z" />
    <glyph glyph-name="yen" unicode="&#xa5;" horiz-adv-x="667" 
d="M130 660l205 -310l202 310h41l-190 -296h168v-35h-203v-112h204v-34h-204v-183h-36v183h-205v34h205v112h-207v35h171l-192 296h41z" />
    <glyph glyph-name="brokenbar" unicode="&#xa6;" horiz-adv-x="188" 
d="M83 -230v377h34v-377h-34zM117 730v-375h-34v375h34z" />
    <glyph glyph-name="section" unicode="&#xa7;" horiz-adv-x="518" 
d="M83 283q0 12 5 30q5 17 12.5 35t17 33.5t19.5 23.5q-44 32 -44 112q0 143 175 143q36 0 77.5 -4.5t78.5 -6.5l-3 -34q-106 15 -165 15q-60 0 -94.5 -28t-34.5 -83q0 -37 12.5 -59.5t34 -35.5t49.5 -19.5t59 -11.5q31 -4 59.5 -12t51 -23.5t36 -40t13.5 -61.5
q0 -68 -40 -127q17 -13 27 -39.5t10 -54.5q0 -77 -45.5 -118t-127.5 -41q-41 0 -85 4t-84 10l3 32q111 -15 167 -15q66 0 102 32.5t36 95.5q0 34 -14 53t-36 29.5t-48.5 15.5t-52.5 9q-47 7 -79.5 17.5t-53 27t-29.5 40t-9 56.5zM117 273q0 -43 35.5 -67t121.5 -38
q87 -15 103 -23q6 8 11.5 22.5t10 31.5t6.5 32.5t2 25.5v8q-2 23 -9 39t-24 27.5t-45.5 20t-73.5 16.5q-27 3 -48.5 7t-46.5 15q-21 -39 -32 -68t-11 -49z" />
    <glyph glyph-name="copyright" unicode="&#xa9;" horiz-adv-x="678" 
d="M102 537q19 48 53 84t81 57t102 21t102 -21t81 -57.5t53 -85t19 -102.5t-18.5 -102t-52.5 -84t-80.5 -57t-102.5 -21q-55 0 -102 21t-81.5 57t-53.5 84.5t-19 103.5q0 54 19 102zM131 345q16 -43 45.5 -74.5t70.5 -50t90 -18.5q48 0 89.5 18t71.5 49.5t47 74t17 90.5
t-16.5 90.5t-46 74.5t-70.5 51t-91 19q-49 0 -90.5 -18.5t-70.5 -51t-45.5 -75t-16.5 -90.5q0 -47 16 -89zM229 434q0 78 25 115q24 37 83 37q21 0 37.5 -1t28.5 -3l10 -3l-3 -31q-39 6 -79 6q-39 0 -54 -26.5t-15 -93.5q0 -68 15.5 -94.5t61.5 -26.5l71 7l3 -32
q-23 -4 -40 -5.5t-30 -1.5q-64 0 -89 36.5t-25 116.5z" />
    <glyph glyph-name="guillemotleft" unicode="&#xab;" horiz-adv-x="454" 
d="M40 234v36l166 129v-38l-134 -107l134 -118v-40zM248 270l166 129v-38l-135 -107l135 -118v-40l-166 138v36z" />
    <glyph glyph-name="registered" unicode="&#xae;" horiz-adv-x="678" 
d="M83 435q0 54 19 102t53 84t81 57t102 21q56 0 103 -20t80.5 -55.5t52.5 -83.5t19 -104q0 -54 -18.5 -102.5t-51.5 -85t-80 -58t-104 -21.5q-55 0 -101.5 21t-81 57t-54 84.5t-19.5 103.5zM132 346q16 -43 45 -75t70.5 -50.5t90.5 -18.5t90 18t71 49.5t46.5 73.5t16.5 91
q0 48 -16.5 90.5t-46 74.5t-70.5 51t-91 19q-48 0 -89 -18.5t-70.5 -50.5t-46.5 -74.5t-17 -90.5q0 -47 17 -89zM236 580h93q60 0 87 -18.5t27 -62.5q0 -42 -14 -63t-46 -31l64 -118h-35l-65 116h-77v-116h-34v293zM269 551v-118h78q35 0 49.5 13.5t14.5 45.5q0 59 -81 59
h-61z" />
    <glyph glyph-name="degree" unicode="&#xb0;" horiz-adv-x="446" 
d="M83 574q0 60 38 97q37 37 98 37t99.5 -37t38.5 -97q0 -30 -10.5 -55t-28.5 -43t-43.5 -27.5t-55.5 -9.5q-60 0 -98 36.5t-38 98.5zM147 498q27 -29 72 -29q47 0 75 28.5t28 76.5q0 47 -28.5 75.5t-74.5 28.5q-45 0 -72.5 -28.5t-27.5 -75.5q0 -48 28 -76z" />
    <glyph glyph-name="plusminus" unicode="&#xb1;" horiz-adv-x="623" 
d="M292 340v138h35v-138h206v-33h-206v-146h-35v146h-203v33h203zM89 51v33h444v-33h-444z" />
    <glyph glyph-name="paragraph" unicode="&#xb6;" horiz-adv-x="691" 
d="M83 521q0 39 14.5 72t39.5 56.5t59 37t74 13.5h328v-32h-97v-668h-37v668h-150v-668h-38v349h-7q-39 0 -73 12.5t-59 35.5t-39.5 54.5t-14.5 69.5z" />
    <glyph glyph-name="periodcentered" unicode="&#xb7;" horiz-adv-x="212" 
d="M127 266h-43v83h43v-83z" />
    <glyph glyph-name="guillemotright" unicode="&#xbb;" horiz-adv-x="454" 
d="M414 270v-36l-166 -137v39l134 118l-134 108v37zM40 97v39l135 119l-135 106v38l166 -129v-36z" />
    <glyph glyph-name="questiondown" unicode="&#xbf;" horiz-adv-x="566" 
d="M98 -51q0 32 6 55q5 23 16.5 42t30.5 38t46 44q13 13 31 30t34.5 37t28.5 41t12 41v38h32l4 -18l2 -16q1 -8 1 -14q0 -25 -12 -47.5t-29.5 -42.5t-37.5 -37.5t-36 -32.5q-32 -31 -50 -50.5t-26.5 -36t-10.5 -33.5t-2 -44q0 -59 38.5 -86.5t123.5 -27.5q17 0 58 7t107 21
l3 -35q-55 -13 -94.5 -19.5t-60.5 -6.5h-11q-51 1 -89 8t-63.5 23.5t-38.5 45.5t-13 76zM297 504h44v-83h-44v83z" />
    <glyph glyph-name="multiply" unicode="&#xd7;" horiz-adv-x="563" 
d="M112 448l169 -170l170 170l23 -23l-170 -170l170 -169l-23 -23l-170 170l-169 -170l-23 23l169 169l-169 170z" />
    <glyph glyph-name="divide" unicode="&#xf7;" horiz-adv-x="402" 
d="M89 327v41h224v-41h-224zM222 226v-80h-38v80h38zM184 471v78h38v-78h-38z" />
    <glyph glyph-name="tilde" unicode="&#x2dc;" horiz-adv-x="596" 
d="M195 319q28 0 104 -35q68 -37 90 -37q10 0 24.5 5.5t29.5 13t28.5 16.5t22.5 16l11 -30q-39 -32 -65 -44t-52 -12q-29 0 -99 37q-74 37 -91 37q-10 0 -24 -5.5t-29 -14t-28.5 -17.5t-21.5 -16l-12 33q62 53 112 53z" />
    <glyph glyph-name="uni060C" unicode="&#x60c;" horiz-adv-x="277" 
d="M97 17q0 8 3 19t6.5 22t7 20.5t5.5 13.5l41 106l29 -11l-55 -149l62 -21l-19 -60q-22 8 -35 13.5t-24 11.5q-21 11 -21 33v2z" />
    <glyph glyph-name="uni060D" unicode="&#x60d;" horiz-adv-x="158" 
d="M69 -91h-29l41 200h37z" />
    <glyph glyph-name="uni061B" unicode="&#x61b;" horiz-adv-x="260" 
d="M84 350q3 11 6.5 22t7 20.5t5.5 13.5l41 106l29 -11l-55 -149l62 -21l-19 -60q-22 8 -35 13.5t-24 11.5q-21 11 -21 33v2q0 8 3 19zM126 73h39v-73h-39v73z" />
    <glyph glyph-name="uni061F" unicode="&#x61f;" horiz-adv-x="530" 
d="M80 556q0 47 12.5 76t38 45.5t63.5 23.5t89 8h12q23 0 56 -5q44 -8 99 -21l-4 -35q-66 14 -106.5 21t-58.5 7q-85 0 -123 -27.5t-38 -86.5q0 -27 2 -44t11 -33.5t27 -36t50 -50.5q16 -15 35.5 -32.5t36.5 -37.5t29 -42.5t12 -47.5q0 -6 -1 -14t-2 -15.5t-1.5 -11.5
t-1.5 -6l1 -1h-32v38q0 20 -12 41t-29 41t-35.5 37t-31.5 30q-26 25 -45 44t-31 38t-17 42t-5 55zM324 84v-83h-44v83h44z" />
    <glyph glyph-name="uni0640" unicode="&#x640;" horiz-adv-x="206" 
d="M-14 23q0 14 14 14h206q5 0 9.5 -4t4.5 -10v-9q0 -14 -14 -14h-206q-14 0 -14 14v9z" />
    <glyph glyph-name="uni0653" unicode="&#x653;" 
d="M-118 700v24q0 27 19.5 44.5t43.5 17.5h174v-31h-187q-13 0 -21 -9t-8 -20v-26h-21z" />
    <glyph glyph-name="uni0653" unicode="&#x6e4;" 
d="M-118 700v24q0 27 19.5 44.5t43.5 17.5h174v-31h-187q-13 0 -21 -9t-8 -20v-26h-21z" />
    <glyph glyph-name="uni0654" unicode="&#x654;" 
d="M-121 715l83 17q-1 1 -5 7.5t-6 18.5q0 2 -1.5 8t-2.5 13.5t-2.5 14t-1.5 9.5q-2 8 -2 16q0 6 1.5 16.5t9.5 23t21.5 22t33.5 12.5l61 7l3 -22l-72 -8q-20 -3 -31.5 -16t-11.5 -30q0 -6 1 -13l14 -77q7 2 31.5 7t50.5 10q30 7 67 14l4 -16l-241 -49z" />
    <glyph glyph-name="uni0655" unicode="&#x655;" 
d="M-122 -185l81 18q-1 1 -4.5 7.5t-6.5 19.5q0 3 -1.5 10t-3 15t-2.5 14.5t-1 7.5q-2 7 -2 14q0 6 2 16t10 23t21.5 22t32.5 12l62 6l2 -21l-67 -8q-23 -3 -35 -17.5t-12 -32.5q0 -6 1 -13l14 -73q7 2 31 7t50 10q31 6 68 14l3 -16l-241 -49z" />
    <glyph glyph-name="uni0656" unicode="&#x656;" 
d="M-10 -117v105h15v-105h-15z" />
    <glyph glyph-name="uni0660" unicode="&#x660;" horiz-adv-x="257" 
d="M87 52v84h84v-84h-84z" />
    <glyph glyph-name="uni0661" unicode="&#x661;" horiz-adv-x="231" 
d="M89 616l26 5l9 -47q9 -45 14 -91.5t5 -93.5v-389h-26v390q0 48 -5.5 95t-14.5 94z" />
    <glyph glyph-name="uni0662" unicode="&#x662;" horiz-adv-x="491" 
d="M87 616l26 5q0 -1 2.5 -14t6.5 -34t8.5 -48t6.5 -56q1 -16 9.5 -30t21 -24t29 -15.5t33.5 -5.5h170v228h27v-204q0 -61 -61 -61h-125q-26 0 -50.5 7.5t-50.5 37.5l1 -402h-27v390q0 48 -5 95t-14 94z" />
    <glyph glyph-name="uni0663" unicode="&#x663;" horiz-adv-x="658" 
d="M115 621q0 -1 3 -15l8 -35q4 -21 8 -47t5 -52q0 -10 5 -24t16.5 -26t28 -20t38.5 -8h19q37 0 65 23t35 58l27 138l26 -5l-22 -112v-9q0 -15 5.5 -31.5t18 -30.5t30 -22.5t37.5 -8.5h99l1 227l26 1v-190q0 -31 -21.5 -53t-53.5 -22h-51q-36 0 -64 18t-44 47
q-18 -30 -46.5 -47.5t-70.5 -17.5q-31 0 -55.5 11.5t-44.5 41.5v-410h-27v390q0 48 -4 95t-15 94l-8 37z" />
    <glyph glyph-name="uni0664" unicode="&#x664;" horiz-adv-x="453" 
d="M89 111l1 77q2 48 23.5 80.5t53.5 49.5q-21 14 -35.5 34t-19.5 46l-18 92q-2 10 -2 21q0 13 5 31t20 36t37 29t47 11h108v-32h-108q-19 0 -34.5 -8t-26 -21.5t-14 -26.5t-3.5 -22t2 -17l15 -80q3 -15 12.5 -29.5t22.5 -25.5t24 -16t19 -5q4 0 8 1l96 27l8 -32l-135 -40
q-35 -10 -53.5 -40t-20.5 -67l-1 -70v-4q0 -15 6 -29t17 -25t26.5 -17.5t32.5 -6.5h168v-32h-170q-23 0 -43.5 9t-36 24.5t-23.5 34.5t-8 38v5z" />
    <glyph glyph-name="uni0665" unicode="&#x665;" horiz-adv-x="575" 
d="M84 269q15 50 41.5 93.5t63 83.5t78.5 84l-66 61l19 24l70 -66q44 -42 83 -82t68.5 -85.5t46.5 -100.5t18 -128q0 -30 -7 -57.5t-22.5 -48.5t-41 -33t-61.5 -12h-174q-36 0 -61.5 12t-41 33t-22.5 48.5t-7 57.5q0 65 16 116zM95 152q0 -18 3.5 -37.5t13.5 -36.5t29 -28
t49 -11h194q30 0 48.5 11t29 28t14 36.5t3.5 37.5q0 54 -9 97.5t-31 84.5t-59 83.5t-93 94.5q-56 -53 -93 -95.5t-59 -83.5t-31 -84t-9 -97z" />
    <glyph glyph-name="uni0666" unicode="&#x666;" horiz-adv-x="504" 
d="M49 585l5 -1l2 29q-5 0 -5 0.5t1 0.5t4 -1q8 -1 27.5 -3t44 -3.5t51 -3t48.5 -1.5q25 0 51.5 1.5t49 3.5t39 4.5t21.5 3.5v-385q0 -49 5.5 -96t14.5 -94l8 -36l-26 -6l-9 47q-8 46 -13.5 92t-5.5 93v345q-9 -1 -29.5 -2t-44 -2t-45 -2t-31.5 -2q-21 0 -45.5 2t-47 5
t-40 5.5t-25.5 3.5z" />
    <glyph glyph-name="uni0667" unicode="&#x667;" horiz-adv-x="525" 
d="M69 618q8 -11 30.5 -43.5t51 -98t59 -168t54.5 -252.5q10 70 22 143t32.5 145.5t53.5 142t85 131.5l24 -20q-9 -13 -35.5 -47t-58 -101.5t-62 -176t-47.5 -271.5h-29q-21 156 -52 263.5t-62 177t-56 106t-34 49.5z" />
    <glyph glyph-name="uni0668" unicode="&#x668;" horiz-adv-x="525" 
d="M44 22q6 9 19.5 28t31.5 50.5t39 77t41.5 109t39.5 145.5t33 186h29q11 -109 29 -193t38.5 -147t42 -107.5t40.5 -74.5t33 -47.5t20 -26.5l-24 -20q-52 62 -85 131.5t-53.5 142t-32.5 145.5t-22 143q-24 -150 -54.5 -252.5t-59 -168t-51 -98t-30.5 -43.5z" />
    <glyph glyph-name="uni0669" unicode="&#x669;" horiz-adv-x="474" 
d="M59 421q0 9 2 17l17 90q8 39 38 64t69 25h56q25 0 46.5 -9t37.5 -25t25 -37.5t9 -45.5v-285q0 -42 5.5 -84.5t13.5 -88.5l7 -38l-30 -4l-9 45q-10 46 -14 92t-4 93v83q-11 -5 -17.5 -5.5t-11.5 -0.5h-131q-25 0 -46.5 12t-36.5 31t-20.5 38t-5.5 33zM93 403
q5 -17 15.5 -30t25.5 -21t33 -8h161v156q0 18 -6.5 33.5t-18.5 27t-27.5 18.5t-33.5 7h-51q-31 0 -55.5 -20t-29.5 -49l-15 -81q-1 -6 -1 -13q0 -10 3 -20z" />
    <glyph glyph-name="uni066A" unicode="&#x66a;" horiz-adv-x="503" 
d="M379 0v84h84v-84h-84zM40 28l392 632l31 -21l-393 -630zM40 576v84h84v-84h-84z" />
    <glyph glyph-name="uni066B" unicode="&#x66b;" horiz-adv-x="158" 
d="M69 -91h-29l41 200h37z" />
    <glyph glyph-name="uni066C" unicode="&#x66c;" horiz-adv-x="158" 
d="M69 421h-29l41 200h37z" />
    <glyph glyph-name="uni066D" unicode="&#x66d;" horiz-adv-x="494" 
d="M98 458l109 79l-108 81l20 27l110 -80l42 128l32 -9l-41 -131h134v-34h-137l42 -128l-33 -11l-41 130l-110 -79z" />
    <glyph glyph-name="uni0670" unicode="&#x670;" 
d="M-2 879v103h16v-103h-16z" />
    <glyph glyph-name="uni06F0" unicode="&#x6f0;" horiz-adv-x="442" 
d="M79 171v51q0 24 9.5 45.5t25.5 37.5t37.5 25.5t45.5 9.5h49q24 0 45.5 -9.5t37.5 -25.5t25 -37.5t9 -45.5v-51q0 -24 -9 -45t-25 -37t-37.5 -25t-45.5 -9h-49q-25 0 -46.5 9t-37.5 25t-25 37t-9 45zM106 223v-46q0 -37 25 -61.5t60 -24.5h60q18 0 33.5 6.5t27 18
t18.5 27.5t7 34v46q0 18 -7 33.5t-18.5 27.5t-27 18.5t-33.5 6.5h-60q-17 0 -32.5 -6.5t-27 -18.5t-18.5 -27.5t-7 -33.5z" />
    <glyph glyph-name="uni06F1" unicode="&#x6f1;" horiz-adv-x="236" 
d="M119 621l9 -47q9 -45 14 -91.5t5 -93.5v-389h-31v390q0 48 -5 95t-14 94l-8 37z" />
    <glyph glyph-name="uni06F2" unicode="&#x6f2;" horiz-adv-x="512" 
d="M88 616l31 5q0 -1 2.5 -14t6.5 -34t8.5 -48t6.5 -56q1 -16 9.5 -30t21 -24t29 -15.5t33.5 -5.5h170v228h27v-204q0 -61 -61 -61h-128q-29 0 -53 10t-44 34v-401h-31v390q0 48 -5 95t-14 94z" />
    <glyph glyph-name="uni06F3" unicode="&#x6f3;" horiz-adv-x="682" 
d="M119 621q0 -1 3.5 -15t7.5 -35t8 -47t5 -52q0 -10 5 -24t16.5 -26t28 -20t38.5 -8h19q37 0 65 23t35 58l27 138l31 -5l-23 -112v-9q0 -15 5.5 -31.5t18 -30.5t30.5 -22.5t38 -8.5h91v227h30v-203q0 -32 -14 -46.5t-46 -14.5h-65q-36 0 -64.5 17.5t-43.5 41.5
q-18 -26 -49.5 -42.5t-73.5 -16.5q-30 0 -52.5 10t-42.5 33v-400h-31v390q0 98 -19 189l-8 37z" />
    <glyph glyph-name="uni06F4" unicode="&#x6f4;" horiz-adv-x="627" 
d="M119 621q6 -27 10 -48.5t6.5 -39t4.5 -32t3 -29.5q6 -33 33 -56.5t62 -23.5h53q-5 8 -6.5 15.5t-2.5 14.5q0 1 -2.5 15t-6 32t-6.5 35t-5 23q-2 10 -2 20q0 14 4.5 32.5t19 37t36.5 30t49 11.5h140l-1 -36h-141q-16 0 -31.5 -7t-26.5 -19t-15.5 -25t-4.5 -25q0 -6 1 -12
l28 -139q33 1 72.5 5t73 8t56.5 8l23 3l5 -30l-11 -1q-15 -3 -41.5 -6.5t-61 -8t-69.5 -8t-66.5 -6t-52.5 -2.5q-29 0 -54.5 11.5t-44.5 41.5v-410h-31v390q0 54 -8 113t-20 112z" />
    <glyph glyph-name="uni06F5" unicode="&#x6f5;" horiz-adv-x="693" 
d="M98 150q0 72 20 131t52.5 109t74 92.5t84.5 80.5l-39 35l13 20l89 -76q26 -22 60.5 -59.5t66.5 -87.5t54 -112t22 -133q0 -30 -8 -57t-23.5 -47.5t-39.5 -33t-56 -12.5q-41 0 -67 18.5t-54 58.5q-28 -40 -56 -58.5t-71 -18.5q-31 0 -54 12t-38 32t-22.5 47.5t-7.5 58.5z
M129 107q5 -21 15.5 -37t28 -25t42.5 -9h18q18 0 34.5 6.5t30 17t23 24t12.5 27.5l24 104l26 -4l-23 -94q3 -11 12 -25t22.5 -26.5t30 -21t34.5 -8.5h18q26 0 44 9.5t28.5 25.5t15 36.5t4.5 42.5q0 73 -19 130.5t-50.5 104.5t-72 86.5t-82.5 76.5q-36 -37 -75.5 -77.5
t-71.5 -88.5t-53 -105t-21 -127q0 -23 5 -43z" />
    <glyph glyph-name="uni06F6" unicode="&#x6f6;" horiz-adv-x="555" 
d="M89 3l204 293q-8 0 -20 7.5t-18 12.5l-127 97q-19 15 -28.5 36t-9.5 44q0 1 0.5 13.5t11 35.5t30.5 39l96 74l10 -19l-99 -81q-15 -12 -22.5 -28.5t-8 -25.5t-0.5 -10q0 -16 6.5 -31t21.5 -26l167 -124q29 42 61 80.5t68 73.5l34 33l16 -16l-28 -26q-22 -21 -35.5 -35
t-25.5 -28t-25.5 -33t-35.5 -50l-222 -321z" />
    <glyph glyph-name="uni06F7" unicode="&#x6f7;" horiz-adv-x="525" 
d="M69 618q33 -50 67 -121q29 -62 63 -154t64 -218q28 126 62 218t63 154q34 71 69 121l24 -20q-46 -73 -86 -164q-34 -79 -67.5 -188.5t-49.5 -243.5h-29q-6 61 -17.5 119t-27 111t-33 101t-35.5 88q-42 96 -91 177z" />
    <glyph glyph-name="uni06F8" unicode="&#x6f8;" horiz-adv-x="525" 
d="M45 21q49 81 91 177q18 41 35.5 89t33 101t27 111t17.5 118h29q16 -134 49.5 -243.5t67.5 -187.5q40 -92 86 -165l-24 -20q-35 50 -69 121q-29 62 -63 154t-62 218q-30 -126 -64 -218t-63 -154q-34 -71 -67 -121z" />
    <glyph glyph-name="uni06F9" unicode="&#x6f9;" horiz-adv-x="460" 
d="M60 422q0 9 2 17l17 90q8 39 38 64t69 25h56q25 0 46.5 -9t37.5 -25t25 -37.5t9 -45.5v-285q0 -42 5.5 -84.5t13.5 -88.5l7 -38l-30 -4l-9 45q-10 46 -14 92t-4 93v83q-11 -5 -17.5 -5.5t-11.5 -0.5h-131q-25 0 -46.5 12t-36.5 31t-20.5 38t-5.5 33zM94 404
q5 -17 15.5 -30t25.5 -21t33 -8h161v156q0 18 -6.5 33.5t-18.5 27t-27.5 18.5t-33.5 7h-51q-31 0 -55.5 -20t-29.5 -49l-15 -81q-1 -6 -1 -13q0 -10 3 -20z" />
    <glyph glyph-name="uni200B" unicode="&#x200b;" horiz-adv-x="333" 
 />
    <glyph glyph-name="uni200C" unicode="&#x200c;" horiz-adv-x="333" 
 />
    <glyph glyph-name="endash" unicode="&#x2013;" horiz-adv-x="678" 
d="M89 286h500v-34h-500v34z" />
    <glyph glyph-name="emdash" unicode="&#x2014;" horiz-adv-x="1178" 
d="M89 286h1000v-34h-1000v34z" />
    <glyph glyph-name="quoteleft" unicode="&#x2018;" horiz-adv-x="159" 
d="M78 528h-38l50 200h29z" />
    <glyph glyph-name="quoteright" unicode="&#x2019;" horiz-adv-x="159" 
d="M69 526h-29l41 201h38z" />
    <glyph glyph-name="quotesinglbase" unicode="&#x201a;" horiz-adv-x="185" 
d="M40 -91l49 200h29l-41 -200h-37z" />
    <glyph glyph-name="quotedblleft" unicode="&#x201c;" horiz-adv-x="291" 
d="M221 728h30l-41 -200h-39zM40 528l51 200h28l-41 -200h-38z" />
    <glyph glyph-name="quotedblright" unicode="&#x201d;" horiz-adv-x="291" 
d="M213 727h38l-50 -199h-30zM81 727h38l-49 -199h-30z" />
    <glyph glyph-name="quotedblbase" unicode="&#x201e;" horiz-adv-x="291" 
d="M221 109h30l-41 -200h-39zM40 -91l49 200h29l-41 -200h-37z" />
    <glyph glyph-name="dagger" unicode="&#x2020;" horiz-adv-x="573" 
d="M83 500h184v200h33v-200h184v-33h-184v-546h-34l1 546h-184v33z" />
    <glyph glyph-name="daggerdbl" unicode="&#x2021;" horiz-adv-x="574" 
d="M83 121v32h184v314h-184v33h184v200h35v-200h182v-33h-182v-314h183v-32h-183v-200h-35v200h-184z" />
    <glyph glyph-name="bullet" unicode="&#x2022;" horiz-adv-x="428" 
d="M339 109h-250v288h250v-288z" />
    <glyph glyph-name="ellipsis" unicode="&#x2026;" horiz-adv-x="719" 
d="M84 83h44v-83h-44v83zM337 83h43v-83h-43v83zM593 83h42v-83h-42v83z" />
    <glyph glyph-name="guilsinglleft" unicode="&#x2039;" horiz-adv-x="246" 
d="M40 234v36l166 129v-38l-134 -106l134 -119v-39z" />
    <glyph glyph-name="guilsinglright" unicode="&#x203a;" horiz-adv-x="246" 
d="M206 263v-36l-166 -137v39l134 118l-134 108v37z" />
    <glyph glyph-name="fraction" unicode="&#x2044;" horiz-adv-x="126" 
d="M-196 28l392 632l31 -21l-393 -630z" />
    <glyph glyph-name="Euro" unicode="&#x20ac;" horiz-adv-x="650" 
d="M153 273v119h-64v32h66q10 123 64 182.5t170 59.5q45 0 88 -6.5t83 -15.5l-1 -30q-93 18 -184 18q-90 0 -134 -49.5t-52 -158.5h322v-32h-324v-119h324v-30h-325q3 -59 15.5 -100.5t35.5 -67.5t58 -38t83 -12q89 0 181 20l3 -34q-47 -9 -89 -14t-79 -5q-64 0 -107.5 15
t-72 45.5t-43 78t-19.5 112.5h-63v30h64z" />
    <glyph glyph-name="trademark" unicode="&#x2122;" horiz-adv-x="681" 
d="M318 331v290h51l83 -242l89 242h48v-290h-32v258l-88 -248h-35l-85 248v-258h-31zM83 621h200v-30h-83v-259h-33v259h-84v30z" />
    <glyph glyph-name="minus" unicode="&#x2212;" horiz-adv-x="599" 
d="M89 268h421v-34h-421v34z" />
    <glyph glyph-name="uniFBB2" unicode="&#xfbb2;" 
d="M275 57l57 1l1 -57l-57 -1z" />
    <glyph glyph-name="uniFBB3" unicode="&#xfbb3;" 
d="M274 0h58v-57h-58v57z" />
    <glyph glyph-name="uniFBB4" unicode="&#xfbb4;" 
d="M212 58h58v-58h-58v58zM379 58v-58h-57v58h57z" />
    <glyph glyph-name="uniFBB5" unicode="&#xfbb5;" 
d="M270 0v-57h-58v57h58zM322 0h57v-57h-57v57z" />
    <glyph glyph-name="uniFBB6" unicode="&#xfbb6;" 
d="M377 57v-57h-58v57h58zM262 95v57h57v-57h-57zM267 57v-57h-57v57h57z" />
    <glyph glyph-name="uniFBB7" unicode="&#xfbb7;" 
d="M270 0v-57h-58v57h58zM329 -95v-57h-58v57h58zM322 0h57v-57h-57v57z" />
    <glyph glyph-name="uniFBB7" unicode="&#xfbb9;" 
d="M270 0v-57h-58v57h58zM329 -95v-57h-58v57h58zM322 0h57v-57h-57v57z" />
    <glyph glyph-name="uniFE70FE7C" 
d="M-108 831v-60q2 -20 16 -34t34 -16h8q21 0 34 13q13 12 18 30l12 57l16 -2l-9 -50q-1 -4 -1 -8q0 -16 13 -26q16 -13 36 -14h49v113h17v-107q0 -17 -5 -22t-22 -5h-39q-38 0 -58 33q-10 -16 -28 -24q-17 -9 -35 -9q-30 0 -51 21t-21 51v59h16zM132 962l5 -18l-270 -57
l-4 17zM132 1071l5 -17l-270 -58l-4 17z" />
    <glyph glyph-name="uniFB8E.alt" horiz-adv-x="1082" 
d="M119 312v-156q0 -54 32.5 -86.5t89.5 -32.5h653q17 0 32.5 6.5t27 18t18.5 27t7 33.5v63q0 38 -26 64t-64 26h-433l-22 22l233 274l23 -21l-203 -241h405q24 0 45.5 -9t37.5 -25t25.5 -37.5t9.5 -46.5v-73q0 -24 -9 -45.5t-24.5 -37.5t-37 -25.5t-47.5 -9.5h-641
q-38 0 -68 12t-51 33.5t-32.5 51t-11.5 63.5v152h31z" />
    <glyph glyph-name="uniFB8F.alt" horiz-adv-x="1123" 
d="M120 312v-154q0 -54 32.5 -87.5t89.5 -33.5h653q17 0 32.5 6.5t27 18t18.5 27t7 33.5v63q0 38 -26 64t-64 26h-433l-22 22l233 274l23 -21l-203 -241h405q24 0 45.5 -9t37.5 -25t25.5 -37.5t9.5 -46.5v-57q0 -20 7 -38t20 -31t31 -20.5t38 -7.5h16q6 0 9.5 -4.5
t3.5 -10.5v-8q0 -14 -13 -14h-10q-37 0 -67 19t-47 59q-16 -40 -43 -58.5t-63 -19.5h-641q-38 0 -68 12.5t-51 34.5t-32.5 51.5t-11.5 63.5v150h31z" />
    <glyph glyph-name="uniFB91.alt" horiz-adv-x="707" 
d="M-14 16v7q0 14 14 14h480q18 0 33.5 7t27 18.5t18 27t6.5 32.5v64q0 38 -26 64t-64 26h-433l-24 22l234 273l23 -21l-204 -240h407q25 0 46.5 -9.5t37.5 -25.5t25 -37.5t9 -45.5v-61q0 -19 7.5 -36t21 -30t31 -20.5t36.5 -7.5h15q14 0 14 -14v-9q0 -5 -4 -9.5t-10 -4.5
h-9q-37 0 -67 20t-47 58q-14 -39 -41.5 -58.5t-62.5 -19.5h-480q-6 0 -10 5t-4 11z" />
    <glyph glyph-name="uniFB90.alt" horiz-adv-x="667" 
d="M-14 15v8q0 14 14 14h480q18 0 33.5 7t27 18.5t18 27t6.5 32.5v64q0 38 -26 64t-64 26h-433l-24 22l234 273l23 -21l-204 -240h407q25 0 46.5 -9.5t37.5 -25.5t25 -37.5t9 -45.5v-74q0 -24 -9 -45t-24.5 -37.5t-36.5 -26t-46 -9.5h-480q-6 0 -10 4.5t-4 10.5z" />
    <glyph glyph-name="uniFB92.alt" horiz-adv-x="1082" 
d="M88 312h31v-156q0 -54 32.5 -86.5t89.5 -32.5h653q17 0 32.5 6.5t27 18t18.5 27t7 33.5v63q0 38 -26 64t-64 26h-433l-22 22l233 274l23 -21l-203 -241h405q24 0 45.5 -9t37.5 -25t25.5 -37.5t9.5 -46.5v-73q0 -24 -9 -45.5t-24.5 -37.5t-37 -25.5t-47.5 -9.5h-641
q-38 0 -68 12t-51 33.5t-32.5 51t-11.5 63.5v152zM422 415l172 205l24 -16l-176 -208z" />
    <glyph glyph-name="uniFB93.alt" horiz-adv-x="1123" 
d="M120 312v-154q0 -54 32.5 -87.5t89.5 -33.5h653q17 0 32.5 6.5t27 18t18.5 27t7 33.5v63q0 38 -26 64t-64 26h-433l-22 22l233 274l23 -21l-203 -241h405q24 0 45.5 -9t37.5 -25t25.5 -37.5t9.5 -46.5v-57q0 -20 7 -38t20 -31t31 -20.5t38 -7.5h16q6 0 9.5 -4.5
t3.5 -10.5v-8q0 -14 -13 -14h-10q-37 0 -67 19t-47 59q-16 -40 -43 -58.5t-63 -19.5h-641q-38 0 -68 12.5t-51 34.5t-32.5 51.5t-11.5 63.5v150h31zM426 413l171 205l22 -16l-176 -207z" />
    <glyph glyph-name="uniFB95.alt" horiz-adv-x="725" 
d="M0 37h498q36 0 60.5 25t24.5 60v64q0 38 -26 64t-64 26h-432l-25 22l234 273l23 -21l-204 -240h407q25 0 46.5 -9.5t37.5 -25.5t25 -37.5t9 -45.5v-61q0 -19 7.5 -36t21 -30t31 -20.5t36.5 -7.5h15q14 0 14 -14v-9q0 -5 -3.5 -9.5t-10.5 -4.5h-9q-37 0 -67 20t-47 58
q-14 -39 -41.5 -58.5t-62.5 -19.5h-498q-6 0 -10 5t-4 11v7q0 14 14 14zM199 620l22 -16l-177 -209l-18 20z" />
    <glyph glyph-name="uniFB94.alt" horiz-adv-x="686" 
d="M-14 23q0 14 14 14h496q38 0 62.5 25t24.5 60v64q0 38 -26 64t-64 26h-433l-23 22l233 273l23 -21l-204 -240h408q24 0 45.5 -9.5t37.5 -25.5t25 -37.5t9 -45.5v-74q0 -24 -9 -45.5t-24.5 -37.5t-36.5 -25.5t-46 -9.5h-498q-14 0 -14 14v9zM28 414l172 205l21 -15
l-177 -209z" />
  </font>
</defs>
</svg>
