<?xml version="1.0" standalone="no"?>
<!DOCTYPE svg PUBLIC "-//W3C//DTD SVG 1.1//EN" "http://www.w3.org/Graphics/SVG/1.1/DTD/svg11.dtd" >
<svg xmlns="http://www.w3.org/2000/svg" xmlns:xlink="http://www.w3.org/1999/xlink" version="1.1">
<metadata>
Created by FontForge 20170731 at Wed Jun 10 09:39:29 2020
 By Aleksey,,,
Copyright (c) 2019 by www.fontiran.com All rights reserved.
</metadata>
<defs>
<font id="PeydaWeb-Light" horiz-adv-x="0" >
  <font-face 
    font-family="PeydaWeb Light"
    font-weight="300"
    font-stretch="normal"
    units-per-em="1000"
    panose-1="0 0 0 0 0 0 0 0 0 0"
    ascent="800"
    descent="-200"
    x-height="498"
    cap-height="694"
    bbox="-205 -422 1444 1144"
    underline-thickness="50"
    underline-position="-175"
    unicode-range="U+000D-FEFC"
  />
<missing-glyph horiz-adv-x="250" 
 />
    <glyph glyph-name="uniFDF2" unicode="&#x627;&#xfedf;&#xfee0;&#xfeea;" horiz-adv-x="1248" arabic-form="isolated" 
d="M112 326q32 38 81 52l144 37v84h55v-347q0 -18 7.5 -34t20 -27.5t29 -18.5t34.5 -7h70q34 0 57.5 24t23.5 57v274h55v-277q0 -32 24 -55t57 -23h70q33 0 57 24t24 57v401h55v-401q0 -30 -11.5 -56.5t-31.5 -46.5t-46.5 -31.5t-56.5 -11.5h-50q-37 0 -67.5 17t-50.5 45
q-20 -28 -51 -45t-68 -17h-60q-46 0 -82 25t-53 64q-8 -6 -17.5 -10t-20.5 -4h-146q-84 0 -84 84v66q0 63 32 101zM135 225v-85h202v215l-134 -35q-31 -8 -49.5 -35.5t-18.5 -59.5zM1128 0v650h55v-650h-55zM513 610v69h36v-69q0 -17 12 -29t28 -12h7q16 0 28 10t15 26
l14 66l35 -6l-12 -58q-1 -4 -1 -8q0 -13 12.5 -21.5t27.5 -8.5h46v113h36v-103q0 -21 -15 -36t-36 -15h-31q-17 0 -32.5 8.5t-25.5 25.5q-11 -18 -27.5 -26t-34.5 -8q-35 0 -58.5 24t-23.5 58zM680 850v-124h-35v124h35z" />
    <glyph glyph-name="uniFEF5" unicode="&#xfedf;&#xfe82;" horiz-adv-x="520" arabic-form="isolated" 
d="M60 30l108 14l-48 518l54 8l46 -519l99 13q39 5 60 28.5t21 68.5v489h55v-489q0 -71 -35.5 -106.5t-87.5 -43.5l-265 -37zM-20 595v33q0 29 18.5 50.5t53.5 21.5h185v-50h-190q-10 0 -18 -8t-8 -19v-28h-41z" />
    <glyph glyph-name="uniFEF6" unicode="&#xfee0;&#xfe82;" horiz-adv-x="573" arabic-form="final" 
d="M60 31l108 14l-48 517l54 8l46 -519l100 13q38 5 59.5 28.5t21.5 68.5v489h55v-506q0 -43 27.5 -61t61.5 -18h28q14 0 14 -14v-37q0 -5 -4 -9.5t-10 -4.5h-28q-37 0 -67.5 17t-50.5 46q-17 -23 -41 -35t-53 -16l-266 -38zM-20 629q0 29 18.5 50.5t53.5 21.5h185v-50h-190
q-10 0 -18 -8t-8 -19v-28h-41v33z" />
    <glyph glyph-name="uniFEF7" unicode="&#xfedf;&#xfe84;" horiz-adv-x="515" arabic-form="isolated" 
d="M50 30l108 14l-48 518l54 8l46 -519l99 13q39 5 60 28.5t21 68.5v489h55v-489q0 -71 -35.5 -106.5t-87.5 -43.5l-265 -37zM137 671q-1 1 -6.5 5t-11.5 15q0 1 -2.5 6.5t-5.5 12t-6 12.5t-5 9q-9 20 -9 39.5t7 36.5t20 30.5t30 20.5l72 30l14 -35l-77 -35
q-18 -8 -23.5 -23t-5.5 -24q0 -12 6 -23q2 -3 5.5 -11t8.5 -17.5t9.5 -19t7.5 -15.5l146 76l17 -35l-255 -130l-17 36z" />
    <glyph glyph-name="uniFEF8" unicode="&#xfee0;&#xfe84;" horiz-adv-x="563" arabic-form="final" 
d="M158 45l-48 517l54 8l46 -519l100 13q38 5 59.5 28.5t21.5 68.5v489h55v-506q0 -43 27.5 -61t61.5 -18h28q14 0 14 -14v-37q0 -5 -4 -9.5t-10 -4.5h-28q-37 0 -67.5 17t-50.5 46q-17 -23 -41 -35t-53 -16l-266 -38l-7 57zM148 672q-1 0 -6.5 4t-10.5 15l-3 7
q-3 5 -6 11.5t-6 12.5t-4 9q-9 20 -9 39.5t6.5 36.5t19.5 30.5t30 20.5l72 30l14 -35l-77 -35q-17 -8 -22.5 -22.5t-5.5 -23.5q0 -12 6 -24l31 -62l145 75l18 -35l-255 -130l-18 37z" />
    <glyph glyph-name="uniFEF9" unicode="&#xfedf;&#xfe88;" horiz-adv-x="515" arabic-form="isolated" 
d="M50 30l108 14l-48 518l54 8l46 -519l99 13q39 5 60 28.5t21 68.5v489h55v-489q0 -71 -35.5 -106.5t-87.5 -43.5l-265 -37zM170 -288q-1 1 -6.5 5t-11.5 15q0 1 -2.5 6.5t-5.5 12t-6 12.5t-5 9q-9 20 -9 39.5t7 36.5t20 30.5t30 20.5l72 30l14 -35l-77 -35
q-18 -8 -23.5 -23t-5.5 -24q0 -12 6 -23q2 -3 5.5 -11t8.5 -17.5t9.5 -19t7.5 -15.5l146 76l17 -35l-255 -130l-17 36z" />
    <glyph glyph-name="uniFEFA" unicode="&#xfee0;&#xfe88;" horiz-adv-x="563" arabic-form="final" 
d="M50 31l108 14l-48 517l54 8l46 -519l100 13q38 5 59.5 28.5t21.5 68.5v489h55v-506q0 -43 27.5 -61t61.5 -18h28q14 0 14 -14v-37q0 -5 -4 -9.5t-10 -4.5h-28q-37 0 -67.5 17t-50.5 46q-17 -23 -41 -35t-53 -16l-266 -38zM89 -326l81 39q-1 0 -6.5 4t-10.5 16
q-1 1 -3.5 6.5t-5.5 11.5l-6 12q-3 6 -5 9q-9 20 -9 39.5t7 36.5t20 30.5t30 20.5l72 30l14 -35l-77 -35q-18 -8 -23.5 -22.5t-5.5 -23.5q0 -12 6 -23q2 -3 6 -11l9 -18l9 -19q4 -9 7 -15l146 75l17 -35l-254 -130z" />
    <glyph glyph-name="uniFEFB" unicode="&#xfedf;&#xfe8e;" horiz-adv-x="515" arabic-form="isolated" 
d="M158 44l-48 518l54 8l46 -519l99 13q39 5 60 28.5t21 68.5v489h55v-489q0 -71 -35.5 -106.5t-87.5 -43.5l-265 -37l-7 56z" />
    <glyph glyph-name="uniFEFC" unicode="&#xfee0;&#xfe8e;" horiz-adv-x="563" arabic-form="final" 
d="M158 45l-48 517l54 8l46 -519l100 13q38 5 59.5 28.5t21.5 68.5v489h55v-506q0 -43 27.5 -61t61.5 -18h28q14 0 14 -14v-37q0 -5 -4 -9.5t-10 -4.5h-28q-37 0 -67.5 17t-50.5 46q-17 -23 -41 -35t-53 -16l-266 -38l-7 57z" />
    <glyph glyph-name="uniFEB3FBFD" unicode="&#xfeb3;&#xfbfd;" horiz-adv-x="1299" 
d="M135 209v-222q0 -28 10.5 -53t29.5 -43.5t44 -29.5t53 -11h181q24 0 45 9t37 25t25 37t9 45v44l-239 56v82q0 35 12.5 65.5t33.5 53t48.5 37t57.5 18.5l56 6q9 1 18 1q28 0 59 -14.5t52 -46.5l97 -146q17 -26 41 -41.5t54 -15.5q34 0 58.5 20t29.5 50l30 151l54 -10
l-23 -120q-2 -8 -2 -16q0 -10 3.5 -22t14 -25t26.5 -20.5t34 -7.5h90v258h55v-244q0 -37 -21 -58t-58 -21h-66q-35 0 -62 17.5t-44 52.5q-20 -35 -52 -52.5t-70 -17.5q-41 0 -75 20.5t-63 67.5l-92 144q-13 20 -33.5 29.5t-40.5 9.5h-7l-68 -9q-21 -3 -38 -13t-30 -25.5
t-20 -35t-7 -40.5v-35l178 -41q29 -7 46.5 -29t17.5 -51v-36q0 -35 -13.5 -66.5t-36.5 -54.5t-54 -36.5t-67 -13.5h-182q-40 0 -74.5 15t-60.5 41t-41 61t-15 75v232h55z" />
    <glyph glyph-name="uniFEB4FBFD" unicode="&#xfeb4;&#xfbfd;" horiz-adv-x="1350" 
d="M135 208v-222q0 -28 10.5 -53t29 -43.5t43.5 -29.5t53 -11h182q24 0 45.5 9.5t37.5 25t24.5 35.5t8.5 41v5v45l-239 56v82q0 35 12.5 65t33.5 53t48 37.5t57 18.5l56 6q8 1 17 1q29 0 60.5 -15.5t51.5 -46.5l98 -145q18 -26 41.5 -41.5t52.5 -15.5q34 0 58.5 19.5
t29.5 50.5l31 151l53 -10l-23 -120q-1 -7 -1 -14q0 -10 3.5 -23t14 -26t26 -20.5t33.5 -7.5h10q34 0 57.5 23.5t23.5 57.5v177h55v-184q0 -15 6.5 -28.5t18 -23.5t26 -16t30.5 -6h40q5 0 9.5 -4.5t4.5 -10.5v-36q-2 -14 -14 -14h-30q-37 0 -68 17.5t-51 52.5
q-40 -70 -113 -70q-35 0 -64.5 17t-45.5 52q-20 -35 -51.5 -52t-69.5 -17q-42 0 -75.5 20.5t-64.5 66.5l-92 144q-13 20 -33 30t-40 10h-7l-69 -9q-20 -3 -37 -13t-29 -26t-18.5 -35t-6.5 -40v-35l176 -40q28 -8 45.5 -30t17.5 -52v-36q0 -35 -13.5 -66.5t-36.5 -54.5
t-54 -36.5t-67 -13.5h-183q-39 0 -74 15t-60.5 41.5t-40.5 61.5t-15 74v232h55z" />
    <glyph glyph-name="uniFEB7FBFD" unicode="&#xfeb7;&#xfbfd;" horiz-adv-x="1294" 
d="M80 -24v232h55v-222q0 -28 10.5 -53t29 -43.5t43.5 -29.5t53 -11h182q24 0 45 9.5t37 25t25 36.5t9 45v45l-239 56v82q0 35 12.5 65t33.5 52.5t48 37t57 18.5l56 7q9 1 17 1q29 0 60.5 -15t51.5 -47l98 -145q17 -26 41 -41.5t53 -15.5q34 0 58.5 19.5t30.5 49.5l30 152
l54 -10l-24 -121q-1 -7 -1 -14q0 -10 3.5 -23t14 -25.5t26 -20t33.5 -7.5h91v258h55v-245q0 -36 -21 -57t-59 -21h-66q-35 0 -61.5 17t-43.5 52q-20 -35 -52 -52t-70 -17q-42 0 -75.5 20.5t-63.5 66.5l-92 144q-12 20 -32.5 29.5t-40.5 9.5h-8l-68 -8q-20 -3 -37 -13
t-29 -26t-18.5 -35t-6.5 -40v-35l175 -41q29 -7 46.5 -29t17.5 -52v-36q0 -35 -13.5 -66.5t-36.5 -54.5t-54 -36.5t-67 -13.5h-183q-39 0 -74 15t-60.5 41.5t-40.5 61.5t-15 74zM877 413v75h75v-75h-75zM938 525v75h75v-75h-75zM1004 488h75v-75h-75v75z" />
    <glyph glyph-name="uniFEB8FBFD" unicode="&#xfeb8;&#xfbfd;" horiz-adv-x="1350" 
d="M135 208v-222q0 -28 10.5 -53t29 -43.5t43.5 -29.5t53 -11h182q24 0 45.5 9.5t37.5 25t24.5 35.5t8.5 41v5v45l-239 56v82q0 35 12.5 65t33.5 53t48 37.5t57 18.5l56 6q8 1 17 1q29 0 60.5 -15.5t51.5 -46.5l98 -145q18 -26 41.5 -41.5t52.5 -15.5q34 0 58.5 19.5
t29.5 50.5l31 151l53 -10l-23 -120q-1 -7 -1 -14q0 -10 3.5 -23t14 -26t26 -20.5t33.5 -7.5h10q34 0 57.5 23.5t23.5 57.5v177h55v-184q0 -15 6.5 -28.5t18 -23.5t26 -16t30.5 -6h40q5 0 9.5 -4.5t4.5 -10.5v-36q-2 -14 -14 -14h-30q-37 0 -68 17.5t-51 52.5
q-40 -70 -113 -70q-35 0 -64.5 17t-45.5 52q-20 -35 -51.5 -52t-69.5 -17q-42 0 -75.5 20.5t-64.5 66.5l-92 144q-13 20 -33 30t-40 10h-7l-69 -9q-20 -3 -37 -13t-29 -26t-18.5 -35t-6.5 -40v-35l176 -40q28 -8 45.5 -30t17.5 -52v-36q0 -35 -13.5 -66.5t-36.5 -54.5
t-54 -36.5t-67 -13.5h-183q-39 0 -74 15t-60.5 41.5t-40.5 61.5t-15 74v232h55zM952 488v-75h-75v75h75zM938 600h75v-75h-75v75zM1004 488h75v-75h-75v75z" />
    <glyph glyph-name="uniFEBBFBFD" unicode="&#xfebb;&#xfbfd;" horiz-adv-x="1384" 
d="M135 208v-221q0 -29 10.5 -53.5t29.5 -43.5t44 -29.5t53 -10.5h182q24 0 45 9t36.5 25t24.5 37t9 45v44l-242 56v81q0 36 13 66t34.5 52.5t50 37t58.5 17.5l77 9q8 1 17 1q28 0 59 -15t51 -46l97 -148q5 -9 12.5 -16.5t15.5 -14.5l173 186q27 29 63.5 45.5t77.5 16.5h61
q27 0 51 -10.5t42 -28.5t28.5 -42t10.5 -51v-74q0 -27 -10.5 -51t-28.5 -42t-42 -28.5t-51 -10.5h-310q-43 0 -75.5 21.5t-61.5 66.5l-93 143q-14 21 -34 30.5t-42 9.5h-8l-86 -9q-21 -2 -38.5 -12.5t-30 -26t-20 -35t-7.5 -40.5v-35l180 -42q29 -7 46 -28.5t17 -50.5v-37
q0 -35 -13.5 -66t-36.5 -54t-54 -36.5t-66 -13.5h-182q-40 0 -75 15t-61 41t-41 61t-15 75v231h55zM1193 65q29 0 50 21t21 50v66q0 32 -22 54t-54 22h-62q-32 0 -61 -13t-51 -36l-154 -164h333z" />
    <glyph glyph-name="uniFEBCFBFD" unicode="&#xfebc;&#xfbfd;" horiz-adv-x="1430" 
d="M135 208v-221q0 -29 10.5 -54t29.5 -43.5t44 -29t53 -10.5h183q24 0 45 9t36.5 25t24.5 37t9 45v44l-239 56v81q0 35 12.5 65.5t34 53t49 37t57.5 17.5l76 9q9 1 18 1q28 0 59.5 -14.5t51.5 -46.5q1 -1 13.5 -20.5t28.5 -44t31.5 -48.5t22.5 -35q6 -9 14 -16l14 -15
l171 186q28 29 64.5 45.5t78.5 16.5h60q27 0 51.5 -10.5t42.5 -28.5t28.5 -42t10.5 -52v-60q0 -33 23.5 -56.5t56.5 -23.5h30q14 0 14 -14v-37q0 -14 -14 -14h-20q-35 0 -64.5 16t-48.5 43q-17 -27 -46 -43t-64 -16h-309q-44 0 -76.5 21.5t-61.5 66.5l-92 143
q-14 21 -35.5 30t-42.5 9h-8l-84 -8q-20 -2 -37 -12t-29 -26t-19 -35.5t-7 -40.5v-36l175 -41q29 -7 46.5 -28.5t17.5 -50.5v-38q0 -35 -13.5 -66t-36.5 -54t-54 -36t-66 -13h-183q-40 0 -75 15t-61 41t-41 61t-15 75v231h55zM1193 65q29 0 50 21t21 50v66q0 32 -22 53.5
t-54 21.5h-61q-32 0 -61.5 -12.5t-51.5 -35.5l-152 -164h331z" />
    <glyph glyph-name="uniFEBFFBFD" unicode="&#xfebf;&#xfbfd;" horiz-adv-x="1384" 
d="M80 -23v231h55v-221q0 -29 10.5 -53.5t29.5 -43.5t44 -29.5t53 -10.5h182q24 0 45 9t36.5 25t24.5 37t9 45v44l-238 56v81q0 36 12.5 66t33.5 52.5t48.5 37t57.5 17.5l77 9q8 1 17 1q28 0 59 -15t51 -46l97 -148q5 -9 12.5 -16.5t15.5 -14.5l173 186q27 29 63.5 45.5
t77.5 16.5h61q27 0 51 -10.5t42 -28.5t28.5 -42t10.5 -51v-74q0 -27 -10.5 -51t-28.5 -42t-42 -28.5t-51 -10.5h-310q-43 0 -75.5 21.5t-61.5 66.5l-93 143q-14 21 -34 30.5t-42 9.5h-8l-86 -9q-42 -5 -67.5 -38.5t-25.5 -75.5v-35l177 -42q29 -7 46 -28.5t17 -50.5v-37
q0 -35 -13.5 -66t-36.5 -54t-54 -36.5t-66 -13.5h-182q-40 0 -75 15t-61 41t-41 61t-15 75zM1193 65q29 0 50.5 21t21.5 50v66q0 32 -22.5 54t-54.5 22h-62q-32 0 -61 -13t-51 -36l-154 -164h333zM1102 540h75v-76h-75v76z" />
    <glyph glyph-name="uniFEC0FBFD" unicode="&#xfec0;&#xfbfd;" horiz-adv-x="1430" 
d="M135 208v-221q0 -29 10.5 -54t29.5 -43.5t44 -29t53 -10.5h183q24 0 45 9t36 25t24 37t9 45v44l-238 56v81q0 35 12.5 65.5t34 53t49 37t57.5 17.5l76 9q9 1 18 1q28 0 59.5 -14.5t51.5 -46.5q1 -1 13.5 -20.5t28.5 -44t31.5 -48.5t22.5 -35q6 -9 14 -16l14 -15l171 186
q28 29 64.5 45.5t78.5 16.5h60q27 0 51.5 -10.5t42.5 -28.5t28.5 -42t10.5 -52v-60q0 -33 23.5 -56.5t56.5 -23.5h30q14 0 14 -14v-37q0 -14 -14 -14h-20q-35 0 -64.5 16t-48.5 43q-17 -27 -46 -43t-64 -16h-309q-44 0 -76.5 21.5t-61.5 66.5l-92 143q-14 21 -35.5 30
t-42.5 9h-8l-84 -8q-20 -2 -37 -12t-29 -26t-18.5 -35.5t-6.5 -40.5v-36l174 -41q29 -7 46.5 -28.5t17.5 -50.5v-38q0 -35 -13.5 -66t-36.5 -54t-54 -36t-66 -13h-183q-40 0 -75 15t-61 41t-41 61t-15 75v231h55zM862 65h331q29 0 50 21t21 50v66q0 32 -22 53.5t-54 21.5
h-61q-32 0 -61.5 -12.5t-51.5 -35.5zM1102 540h75v-76h-75v76z" />
    <glyph glyph-name="uniFE92FBFD" unicode="&#xfe92;&#xfbfd;" horiz-adv-x="906" 
d="M135 208v-221q0 -29 10.5 -53.5t29.5 -43.5t44 -29.5t53 -10.5h181q24 0 45 9t36.5 25t24.5 37t9 45v43l-242 56v82q0 35 13 65t35 52.5t50 37t59 17.5l77 9q9 1 17 1q28 0 58.5 -14.5t50.5 -44.5q8 -11 23.5 -35.5t32.5 -50.5q19 -29 41 -63q17 -26 41.5 -41t56.5 -15
h25q6 0 10 -4.5t4 -10.5v-36q0 -14 -14 -14h-27q-45 0 -78.5 21t-62.5 66l-92 144q-14 22 -34.5 31.5t-39.5 9.5q-5 0 -11 -1l-84 -10q-21 -2 -38.5 -12.5t-30.5 -26t-20 -35t-7 -40.5v-35l179 -41q29 -6 46 -28t17 -51v-36q0 -36 -13.5 -67t-36.5 -54t-54 -36.5t-66 -13.5
h-181q-40 0 -75 15t-61 41t-41 61t-15 75v231h55zM727 -195v74h74v-74h-74z" />
    <glyph glyph-name="uniFB59FBFD" unicode="&#xfb59;&#xfbfd;" horiz-adv-x="956" 
d="M80 209h55v-221q0 -29 10.5 -53.5t29.5 -43.5t44 -29.5t53 -10.5h181q24 0 45 9t36.5 25t24.5 37t9 45v43l-241 56v82q0 35 13 65t34.5 52.5t49.5 37t59 17.5l77 9q9 1 17 1q28 0 58.5 -14.5t50.5 -44.5q8 -11 23.5 -35.5t32.5 -50.5q19 -29 41 -63q17 -26 41.5 -41.5
t56.5 -15.5h75q6 0 10 -4.5t4 -10.5v-35q0 -6 -4 -10.5t-10 -4.5h-77q-45 0 -78.5 21.5t-62.5 66.5l-92 144q-14 22 -34.5 31.5t-39.5 9.5q-5 0 -11 -1l-84 -10q-21 -2 -38.5 -12.5t-30.5 -26t-20 -35t-7 -40.5v-35l179 -41q29 -6 46 -28t17 -51v-36q0 -36 -13.5 -67
t-36.5 -54t-54 -36.5t-66 -13.5h-181q-40 0 -75 15t-61 41t-41 61t-15 75v231zM678 -195v75h75v-75h-75zM819 -232v-75h-75v75h75zM805 -195v75h75v-75h-75z" />
    <glyph glyph-name="uniFE98FBFD" unicode="&#xfe98;&#xfbfd;" horiz-adv-x="906" 
d="M135 208v-221q0 -29 10.5 -53.5t29 -43t43.5 -29t54 -10.5h181q24 0 45 9t36.5 24.5t24.5 36.5t9 45v44l-241 56v81q0 35 13 65t34.5 52.5t49.5 37t59 17.5l77 9q9 1 17 1q28 0 58.5 -14.5t50.5 -44.5q8 -11 23.5 -35.5t32.5 -50.5q19 -29 41 -63q17 -26 41.5 -41
t56.5 -15h25q5 0 9.5 -4.5t4.5 -9.5v-37q0 -6 -4.5 -10t-9.5 -4h-27q-45 0 -78.5 21t-62.5 66l-92 144q-14 22 -34.5 32t-39.5 10q-6 0 -11 -1l-84 -10q-21 -2 -38.5 -12.5t-30.5 -26t-20 -35t-7 -40.5v-35l179 -41q29 -7 46 -29t17 -51v-36q0 -36 -13.5 -67t-36.5 -54
t-54 -36.5t-66 -13.5h-181q-40 0 -75 15t-61 41t-41 61t-15 75v231h55zM668 465v75h75v-75h-75zM541 465v75h75v-75h-75z" />
    <glyph glyph-name="uniFE9CFBFD" unicode="&#xfe9c;&#xfbfd;" horiz-adv-x="908" 
d="M137 208v-221q0 -29 10.5 -53.5t29 -43t43.5 -29t54 -10.5h181q24 0 45 9t36.5 24.5t24.5 36.5t9 45v44l-241 56v81q0 35 13 65t34.5 52.5t49.5 37t59 17.5l77 9q9 1 17 1q28 0 58.5 -14.5t50.5 -44.5q8 -11 23.5 -35.5t32.5 -50.5q19 -29 41 -63q17 -26 41.5 -41
t56.5 -15h25q5 0 9.5 -4.5t4.5 -9.5v-37q0 -6 -4.5 -10t-9.5 -4h-27q-45 0 -78.5 21t-62.5 66l-92 144q-14 22 -34.5 32t-39.5 10q-6 0 -11 -1l-84 -10q-21 -2 -38.5 -12.5t-30.5 -26t-20 -35t-7 -40.5v-35l179 -41q29 -7 46 -29t17 -51v-36q0 -36 -13.5 -67t-36.5 -54
t-54 -36.5t-66 -13.5h-181q-40 0 -75 15t-61 41t-41 61t-15 75v231h55zM616 538v-75h-75v75h75zM602 650h75v-75h-75v75zM668 538h75v-75h-75v75z" />
    <glyph glyph-name="uniFEE8FBFD" unicode="&#xfee8;&#xfbfd;" horiz-adv-x="906" 
d="M135 209v-221q0 -29 10.5 -54t29 -43.5t43.5 -29t53 -10.5h182q24 0 45 9t36.5 25t24.5 37t9 45v43l-241 56v82q0 35 13 65t34.5 52.5t49.5 37t58 17.5l78 9q9 1 17 1q28 0 58.5 -14.5t50.5 -44.5q8 -11 23.5 -35.5t32.5 -50.5q19 -29 41 -63q17 -26 41.5 -41.5
t56.5 -15.5h25q5 0 9.5 -4t4.5 -10v-37q0 -7 -4.5 -10.5t-9.5 -3.5h-27q-45 0 -78.5 21.5t-62.5 66.5l-93 144q-13 22 -33.5 31.5t-39.5 9.5q-5 0 -11 -1l-85 -10q-21 -2 -38 -12.5t-30 -26t-20 -35t-7 -40.5v-35l179 -41q29 -6 46 -28t17 -51v-36q0 -36 -13.5 -67
t-36.5 -54t-54 -36.5t-66 -13.5h-182q-39 0 -74 15t-61 41t-41 61t-15 75v231h55zM677 540v-75h-75v75h75z" />
    <glyph glyph-name="uniFBFDFE8C" unicode="&#xfe8c;&#xfbfd;" horiz-adv-x="906" 
d="M80 208h55v-221q0 -29 10.5 -53.5t29 -43t43.5 -29t54 -10.5h181q24 0 45 9t36.5 24.5t24.5 36.5t9 45v44l-241 56v81q0 35 13 65t34.5 52.5t49.5 37t59 17.5l77 9q9 1 17 1q28 0 58.5 -14.5t50.5 -44.5q8 -11 23.5 -35.5t32.5 -50.5q19 -29 41 -63q17 -26 41.5 -41
t56.5 -15h25q5 0 9.5 -4.5t4.5 -9.5v-37q0 -6 -4.5 -10t-9.5 -4h-27q-45 0 -78.5 21t-62.5 66l-92 144q-14 22 -34.5 32t-39.5 10q-6 0 -11 -1l-84 -10q-21 -2 -38.5 -12.5t-30.5 -26t-20 -35t-7 -40.5v-35l179 -41q29 -7 46 -29t17 -51v-36q0 -36 -13.5 -67t-36.5 -54
t-54 -36.5t-66 -13.5h-181q-40 0 -75 15t-61 41t-41 61t-15 75v231zM482 440l81 39q-1 0 -6.5 4t-10.5 16q-1 1 -3.5 6.5t-5.5 11.5l-6 12q-3 6 -5 9q-9 20 -9 39.5t7 36.5t20 30.5t30 20.5l72 30l14 -35l-77 -35q-18 -8 -23.5 -22.5t-5.5 -23.5q0 -12 6 -23q2 -3 6 -11
t9 -17l9 -19q4 -10 7 -16l146 75l17 -35l-254 -130z" />
    <glyph glyph-name="uniFBFDFBFF" unicode="&#xfbff;&#xfbfd;" horiz-adv-x="955" 
d="M135 208v-221q0 -29 10.5 -53.5t29 -43.5t43.5 -29.5t53 -10.5h182q24 0 45 9t36.5 25t24.5 37t9 45v44l-241 56v81q0 35 13 65t34.5 52.5t49.5 37t58 17.5l78 9q9 1 17 1q28 0 58.5 -14.5t50.5 -44.5q8 -11 23.5 -35.5t32.5 -50.5q19 -29 41 -63q17 -26 41.5 -41
t56.5 -15h74q5 0 9.5 -4.5t4.5 -9.5v-37q0 -6 -4.5 -10t-9.5 -4h-76q-45 0 -78.5 21t-62.5 66l-93 144q-13 22 -33.5 32t-39.5 10q-6 0 -11 -1l-85 -10q-42 -5 -68.5 -38.5t-26.5 -75.5v-35l179 -41q29 -7 46 -29t17 -51v-36q0 -36 -13.5 -67t-36.5 -54t-54 -36.5t-66 -13.5
h-182q-39 0 -74 15t-61 41t-41 61t-15 75v231h55zM893 -120v-75h-75v75h75zM691 -195v75h75v-75h-75z" />
    <glyph glyph-name="uni0621" unicode="&#x621;" horiz-adv-x="458" arabic-form="isolated" 
d="M70 27l98 50q-2 0 -10.5 5t-16.5 22l-20 41q-11 23 -11 45.5t8 42.5t23.5 36t35.5 24l84 35l20 -41l-91 -41q-21 -10 -28.5 -27t-7.5 -28q0 -13 7 -26l7 -13q4 -9 9 -20t11 -22l9 -19l171 89l20 -42l-298 -152z" />
    <glyph glyph-name="uni0622" unicode="&#x622;" horiz-adv-x="227" arabic-form="isolated" 
d="M90 569h55v-569h-55v569zM-30 595v33q0 29 18.5 50.5t53.5 21.5h185v-50h-190q-10 0 -18 -8t-8 -19v-28h-41z" />
    <glyph glyph-name="uni0623" unicode="&#x623;" horiz-adv-x="211" arabic-form="isolated" 
d="M148 569v-569h-55v569h55zM-20 648l81 41q-1 1 -6.5 4.5t-11.5 15.5q0 1 -2.5 6t-5.5 12l-6 13q-3 6 -5 9q-9 19 -9 38.5t7 36.5t20 30.5t30 20.5l72 30l14 -34l-77 -36q-18 -8 -23.5 -22.5t-5.5 -23.5q0 -12 6 -23q2 -3 5.5 -11t8.5 -17.5t9.5 -19t7.5 -15.5l146 76
l17 -36l-254 -130z" />
    <glyph glyph-name="uni0624" unicode="&#x624;" horiz-adv-x="468" arabic-form="isolated" 
d="M73 147l17 91q4 22 15 40t27.5 31.5t36.5 21t42 7.5h56q27 0 51 -10.5t42 -28t28.5 -41.5t10.5 -51v-217q0 -34 -10.5 -66t-29.5 -58.5t-45.5 -46.5t-58.5 -31l-107 -36l-18 57l113 38q45 15 72.5 52.5t27.5 85.5v22q-14 -7 -34 -7h-115q-29 0 -53.5 12.5t-41.5 32.5
t-22.5 41.5t-5.5 37.5q0 11 2 23zM128 112q4 -14 12.5 -24.5t21 -16.5t27.5 -6h155v142q0 30 -21 50.5t-51 20.5h-60q-26 0 -45.5 -16t-24.5 -41l-15 -81q-1 -6 -1 -12q0 -9 2 -16zM156 481q-1 0 -6.5 4t-10.5 15q0 1 -2.5 6.5t-5.5 12t-6 12.5t-5 9q-9 20 -9 39.5t6.5 36.5
t19.5 30.5t31 20.5l72 30l14 -35l-77 -35q-18 -8 -23.5 -22.5t-5.5 -23.5q0 -12 6 -24q2 -3 5.5 -11t8.5 -17.5t9.5 -19t7.5 -15.5l146 76l17 -35l-255 -130l-17 37z" />
    <glyph glyph-name="uni0625" unicode="&#x625;" horiz-adv-x="213" arabic-form="isolated" 
d="M90 650h55v-650h-55v650zM-15 -317l81 41q-1 0 -6.5 4t-10.5 15q0 1 -2.5 6l-5.5 11l-6 13q-3 7 -5 10q-9 19 -9 39t6.5 37t19.5 30.5t31 20.5l72 30l14 -35l-77 -35q-18 -8 -23.5 -22.5t-5.5 -23.5q0 -12 6 -23q2 -3 5.5 -10.5t8 -17t9.5 -19t8 -16.5l146 75l17 -35
l-255 -130z" />
    <glyph glyph-name="uni0626" unicode="&#x626;" horiz-adv-x="762" arabic-form="isolated" 
d="M128 37v231h55v-221q0 -28 10.5 -53t29.5 -43.5t44 -29.5t53 -11h202q24 0 45 9t36.5 25t24.5 37t9 45v44l-270 63v102q0 35 12.5 65t33.5 53t48.5 37t57.5 18l108 14l8 -56l-122 -17q-41 -5 -66.5 -38t-25.5 -75v-55l208 -49q29 -7 46 -26t17 -48v-42q0 -35 -13.5 -66.5
t-36.5 -54.5t-54 -36.5t-66 -13.5h-202q-40 0 -75 15t-61 41t-41 61t-15 75zM117 460q19 9 43 21q-3 1 -6 4q-6 6 -11 15l-19 40q-9 20 -9 39.5t6.5 36.5t19.5 30.5t31 20.5l72 30l14 -35l-77 -35q-18 -8 -23.5 -22.5t-5.5 -23.5q0 -12 6 -24q2 -3 5.5 -11t8.5 -17.5
t9.5 -19t7.5 -15.5q28 14 54 27.5t46 24.5q24 13 46 24l17 -35l-255 -130l-17 37q17 8 37 18z" />
    <glyph glyph-name="uni0627" unicode="&#x627;" horiz-adv-x="205" arabic-form="isolated" 
d="M80 0v650h55v-650h-55z" />
    <glyph glyph-name="uni0628" unicode="&#x628;" horiz-adv-x="842" arabic-form="isolated" 
d="M80 170v151h55v-141q0 -24 9 -45t25 -36.5t37 -24.5t45 -9h390q33 0 57 23.5t24 57.5v175h55v-175q0 -30 -11.5 -57t-31.5 -46.5t-46.5 -31t-56.5 -11.5h-380q-35 0 -66 13.5t-54.5 36.5t-37 54t-13.5 66zM466 -119v-75h-75v75h75z" />
    <glyph glyph-name="uni0629" unicode="&#x629;" horiz-adv-x="478" arabic-form="isolated" 
d="M94 248q14 29 40 47q11 8 23 15t22 14q12 7 23 14l-68 45l30 48q14 -10 31 -21q14 -10 31.5 -22t36.5 -25q43 -30 99 -68q23 -18 37 -46.5t14 -63.5v-37q0 -32 -12 -60.5t-33 -50t-49.5 -34t-61.5 -12.5h-21q-32 0 -60.5 12.5t-49.5 34t-33.5 50t-12.5 60.5v35
q0 36 14 65zM135 194v-37q0 -21 8 -39.5t21.5 -32t32 -21.5t39.5 -8h22q21 0 39 8t31.5 21.5t21.5 32t8 39.5v37q0 15 -7 29.5t-21 25.5q-4 3 -17.5 11.5t-28.5 18.5q-17 11 -37 25l-86 -57q-13 -10 -19 -22t-7 -31zM345 632v-75h-75v75h75zM143 632h75v-75h-75v75z" />
    <glyph glyph-name="uni062A" unicode="&#x62a;" horiz-adv-x="842" arabic-form="isolated" 
d="M80 321h55v-141q0 -24 9 -45t25 -36.5t37 -24.5t45 -9h390q33 0 57 23.5t24 57.5v175h55v-175q0 -30 -11.5 -57t-31.5 -46.5t-46.5 -31t-56.5 -11.5h-380q-35 0 -66 13.5t-54.5 36.5t-37 54t-13.5 66v151zM454 321v75h75v-75h-75zM327 321v75h75v-75h-75z" />
    <glyph glyph-name="uni062B" unicode="&#x62b;" horiz-adv-x="841" arabic-form="isolated" 
d="M80 170v151h55v-141q0 -24 9 -45t25 -36.5t37 -24.5t45 -9h390q33 0 57 23.5t24 57.5v175h55v-175q0 -30 -11.5 -57t-31.5 -46.5t-46.5 -31t-56.5 -11.5h-380q-35 0 -66 13.5t-54.5 36.5t-37 54t-13.5 66zM327 322v75h75v-75h-75zM388 509h75v-75h-75v75zM454 322v75h75
v-75h-75z" />
    <glyph glyph-name="uni062C" unicode="&#x62c;" horiz-adv-x="660" arabic-form="isolated" 
d="M80 236l22 76q7 25 23 42t35.5 26t32.5 10t18 2q15 -1 29 -5l355 -107l-17 -50l-53 16q-8 3 -16 3q-6 0 -16 -3t-22 -11l-252 -186q-32 -24 -50 -57.5t-18 -71.5v-4q0 -36 14 -68t38 -56t56 -38t68 -14h226v-65h-226q-48 0 -90.5 18t-74 49.5t-50 74t-18.5 90.5
q0 57 26 106t71 82q22 16 53.5 39t63.5 47t61 44.5t45 32.5q5 4 10.5 7.5t11.5 6.5l-220 65q-6 2 -13 2q-13 0 -30 -11t-23 -31l-22 -74zM428 -30v-75h-75v75h75z" />
    <glyph glyph-name="uni062D" unicode="&#x62d;" horiz-adv-x="660" arabic-form="isolated" 
d="M102 312q7 25 23 42t35.5 26t32.5 10t18 2q15 -1 29 -5l355 -107l-17 -50l-53 16q-8 3 -16 3q-6 0 -16 -3t-22 -11l-252 -186q-32 -24 -50 -57.5t-18 -71.5v-4q0 -36 14 -68t38 -56t56 -38t68 -14h226v-65h-226q-48 0 -90.5 18t-74 49.5t-50 74t-18.5 90.5q0 57 26 106
t71 82q22 16 53.5 39t63.5 47t61 44.5t45 32.5q5 4 10.5 7.5t11.5 6.5l-220 65q-6 2 -13 2q-13 0 -30 -11t-23 -31l-22 -74l-48 13z" />
    <glyph glyph-name="uni062E" unicode="&#x62e;" horiz-adv-x="660" arabic-form="isolated" 
d="M80 236l22 76q7 25 23 42t35.5 26t32.5 10t18 2q15 -1 29 -5l355 -107l-17 -50l-53 16q-8 3 -16 3q-6 0 -16 -3t-22 -11l-252 -186q-32 -24 -50 -57.5t-18 -71.5v-4q0 -36 14 -68t38 -56t56 -38t68 -14h226v-65h-226q-48 0 -90.5 18t-74 49.5t-50 74t-18.5 90.5
q0 57 26 106t71 82q22 16 53.5 39t63.5 47t61 44.5t45 32.5q5 4 10.5 7.5t11.5 6.5l-220 65q-6 2 -13 2q-13 0 -30 -11t-23 -31l-22 -74zM240 593v-75h-75v75h75z" />
    <glyph glyph-name="uni062F" unicode="&#x62f;" horiz-adv-x="540" arabic-form="isolated" 
d="M80 198h47v-84q0 -20 11.5 -34.5t34.5 -14.5h154q34 0 55 14t29.5 34t8.5 41q0 2 -0.5 15t-11.5 31l-112 200l46 32l108 -194q24 -43 24.5 -65t0.5 -23q0 -41 -18.5 -74.5t-53.5 -54.5t-80 -21h-143q-42 0 -71 29t-29 71v98z" />
    <glyph glyph-name="uni0630" unicode="&#x630;" horiz-adv-x="540" arabic-form="isolated" 
d="M127 198v-84q0 -20 11.5 -34.5t34.5 -14.5h154q34 0 55 14t29.5 34t8.5 41q0 2 -0.5 15t-11.5 31l-112 200l46 32l108 -194q24 -43 24.5 -65t0.5 -23q0 -41 -18.5 -74.5t-53.5 -54.5t-80 -21h-143q-42 0 -71 29t-29 71v98h47zM308 635v-75h-75v75h75z" />
    <glyph glyph-name="uni0631" unicode="&#x631;" horiz-adv-x="308" arabic-form="isolated" 
d="M74 -153q45 15 72 53t27 86v307h55v-303q0 -34 -10 -65.5t-29 -57.5t-45.5 -46.5t-58.5 -31.5l-107 -36l-18 57z" />
    <glyph glyph-name="uni0632" unicode="&#x632;" horiz-adv-x="318" arabic-form="isolated" 
d="M74 -153q45 15 72 53t27 86v307h55v-303q0 -34 -10 -65.5t-29 -57.5t-45.5 -46.5t-58.5 -31.5l-107 -36l-18 57zM238 494v-75h-75v75h75z" />
    <glyph glyph-name="uni0633" unicode="&#x633;" horiz-adv-x="1142" arabic-form="isolated" 
d="M135 277v-249q0 -28 11 -53t29.5 -43.5t43.5 -29.5t53 -11h172q24 0 45 9t37 25t25 36.5t9 44.5v288h55v-148q0 -34 23.5 -57.5t57.5 -23.5h13q32 0 56 20t30 51l30 150l54 -9l-24 -120q-1 -7 -1 -13q0 -11 4 -24.5t14.5 -26.5t25.5 -20.5t33 -7.5h91v258h55v-244
q0 -37 -21 -58t-58 -21h-67q-35 0 -63 17.5t-45 51.5q-19 -35 -49.5 -52t-65.5 -17q-26 0 -50 10t-43 33v-47q0 -35 -13.5 -66t-36.5 -54t-54.5 -36.5t-66.5 -13.5h-172q-40 0 -75 15t-61 41t-41 61t-15 75v259h55z" />
    <glyph glyph-name="uni0634" unicode="&#x634;" horiz-adv-x="1142" arabic-form="isolated" 
d="M135 277v-249q0 -28 11 -53t29.5 -43.5t43.5 -29.5t53 -11h172q24 0 45 9t37 25t25 36.5t9 44.5v288h55v-148q0 -34 23.5 -57.5t57.5 -23.5h13q32 0 56 20t30 51l30 150l54 -9l-24 -120q-1 -7 -1 -13q0 -11 4 -24.5t14.5 -26.5t25.5 -20.5t33 -7.5h91v258h55v-244
q0 -37 -21 -58t-58 -21h-67q-35 0 -63 17.5t-45 51.5q-19 -35 -49.5 -52t-65.5 -17q-26 0 -50 10t-43 33v-47q0 -35 -13.5 -66t-36.5 -54t-54.5 -36.5t-66.5 -13.5h-172q-40 0 -75 15t-61 41t-41 61t-15 75v259h55zM725 488h75v-75h-75v75zM785 525v75h75v-75h-75zM927 488
v-75h-75v75h75z" />
    <glyph glyph-name="uni0635" unicode="&#x635;" horiz-adv-x="1213" arabic-form="isolated" 
d="M80 17v259h55v-248q0 -29 11 -54t29.5 -43.5t43.5 -29.5t53 -11h172q24 0 45 9t37 25t25 37t9 45v287h55v-140q0 -19 4.5 -31t9.5 -19q6 -9 14 -13l170 186q27 29 64 45.5t78 16.5h61q27 0 51 -10.5t42 -28.5t28.5 -42t10.5 -51v-74q0 -27 -10.5 -51t-28.5 -42t-42 -28.5
t-51 -10.5h-282q-46 0 -76 9t-43 30v-43q0 -36 -13.5 -67t-36.5 -54t-54.5 -36.5t-66.5 -13.5h-172q-40 0 -75 15t-61 41t-41 61t-15 75zM1022 65q29 0 50 19.5t21 51.5v66q0 32 -22 54t-54 22h-62q-35 0 -62 -13t-49 -36l-152 -164h330z" />
    <glyph glyph-name="uni0636" unicode="&#x636;" horiz-adv-x="1213" arabic-form="isolated" 
d="M135 276v-248q0 -29 11 -54t29.5 -43.5t43.5 -29.5t53 -11h172q24 0 45 9t37 25t25 37t9 45v287h55v-140q0 -19 4.5 -31t9.5 -19q6 -9 14 -13l170 186q27 29 64 45.5t78 16.5h61q27 0 51 -10.5t42 -28.5t28.5 -42t10.5 -51v-74q0 -27 -10.5 -51t-28.5 -42t-42 -28.5
t-51 -10.5h-282q-46 0 -76 9t-43 30v-43q0 -36 -13.5 -67t-36.5 -54t-54.5 -36.5t-66.5 -13.5h-172q-40 0 -75 15t-61 41t-41 61t-15 75v259h55zM692 65h330q29 0 50 19.5t21 51.5v66q0 32 -22 54t-54 22h-62q-35 0 -62 -13t-49 -36zM923 465v75h75v-75h-75z" />
    <glyph glyph-name="uni0637" unicode="&#x637;" horiz-adv-x="731" arabic-form="isolated" 
d="M135 65l113 122v463h55v-373q0 -7 -0.5 -13.5t-1.5 -11.5q-1 -6 -2 -11q1 2 6 7t10 11l10 11l6 6q28 30 64.5 46t77.5 16h61q27 0 51 -10.5t42 -28.5t28.5 -42t10.5 -51v-74q0 -27 -10.5 -51t-28.5 -42t-42 -28.5t-51 -10.5h-454v65h55zM540 65q29 0 50 21t21 50v66
q0 32 -22 54t-54 22h-62q-32 0 -61 -13t-51 -36l-155 -164h334z" />
    <glyph glyph-name="uni0638" unicode="&#x638;" horiz-adv-x="731" arabic-form="isolated" 
d="M80 65h55l113 122v463h55v-373q0 -7 -0.5 -13.5t-1.5 -11.5q-1 -6 -2 -11q1 2 6 7t10 11l10 11l6 6q28 30 64.5 46t77.5 16h61q27 0 51 -10.5t42 -28.5t28.5 -42t10.5 -51v-74q0 -27 -10.5 -51t-28.5 -42t-42 -28.5t-51 -10.5h-454v65zM206 65h334q29 0 50 21t21 50v66
q0 32 -22 54t-54 22h-62q-32 0 -61 -13t-51 -36zM528 540v-75h-75v75h75z" />
    <glyph glyph-name="uni0639" unicode="&#x639;" horiz-adv-x="564" arabic-form="isolated" 
d="M80 -198q0 54 25 101.5t67 77.5q-15 18 -19 42l-32 159q-3 12 -3 25q0 15 6 35.5t23 41t41.5 33t53.5 12.5h137v-60h-143q-15 0 -27.5 -6t-21 -16.5t-11.5 -21t-3 -18.5q0 -7 1 -13l38 -194q14 5 52.5 17t80.5 26q49 15 107 34l16 -51l-225 -71q-17 -5 -36 -16
t-34.5 -28.5t-25.5 -42t-10 -55.5q0 -34 12.5 -65t35.5 -54t55.5 -37t72.5 -14h186v-65h-186q-48 0 -90.5 18t-74 49t-50 71.5t-18.5 85.5z" />
    <glyph glyph-name="uni063A" unicode="&#x63a;" horiz-adv-x="564" arabic-form="isolated" 
d="M105 -97q25 48 67 78q-15 18 -19 42l-25 150q-2 11 -2 22q0 17 6 38t22.5 41t41 32.5t53.5 12.5h136v-60h-142q-30 0 -47 -20.5t-17 -42.5q0 -6 1 -12l32 -184q14 5 52.5 17t80.5 26q49 15 107 34l16 -51l-225 -71q-17 -5 -36 -16t-34.5 -28.5t-25.5 -41t-10 -54.5
q0 -35 13.5 -66t37.5 -54.5t56 -37.5t69 -14h186v-65h-186q-48 0 -90.5 18t-74 49t-50 72t-18.5 86q0 53 25 100zM226 525h75v-75h-75v75z" />
    <glyph glyph-name="uni0641" unicode="&#x641;" horiz-adv-x="843" arabic-form="isolated" 
d="M80 174v146h55v-146q0 -48 30 -78.5t80 -30.5h386q36 0 63.5 19.5t27.5 67.5v12q-17 -7 -34 -7h-110q-29 0 -53.5 12.5t-41.5 32.5t-22.5 41.5t-5.5 37.5q0 11 2 23l16 85q4 22 15 40t27.5 31.5t36.5 21t42 7.5h52q27 0 51 -10t42 -28t28 -42t10 -52v-211
q0 -30 -11.5 -57t-31 -46.5t-46.5 -31t-57 -11.5h-376q-39 0 -71.5 13.5t-55.5 37t-35.5 55t-12.5 68.5zM525 245q19 -23 49 -23h148v135q0 30 -20.5 51t-50.5 21h-56q-26 0 -45.5 -16.5t-24.5 -41.5l-14 -74q-1 -6 -1 -12q0 -22 15 -40zM588 690h75v-75h-75v75z" />
    <glyph glyph-name="uni0642" unicode="&#x642;" horiz-adv-x="690" arabic-form="isolated" 
d="M135 198v-221q0 -28 11 -53t29.5 -43.5t43.5 -29.5t53 -11h172q24 0 45 9t37 25t25 37t9 45v51q-1 0 -10.5 -3.5t-24.5 -3.5h-109q-29 0 -54 12.5t-41.5 32.5t-22.5 41.5t-6 38.5q0 11 2 22l17 85q4 22 15 40t27.5 31.5t36.5 21t42 7.5h51q27 0 51.5 -10.5t42.5 -28.5
t28 -42t10 -51v-254q0 -35 -13.5 -66.5t-36.5 -54.5t-54 -36.5t-67 -13.5h-172q-40 0 -75 15t-61 41t-41 61t-15 75v231h55zM350 112q4 -14 12.5 -24.5t21 -16.5t27.5 -6h149v135q0 30 -21 51t-50 21h-57q-26 0 -45 -16.5t-24 -41.5l-14 -74q-1 -6 -1 -12q0 -9 2 -16z
M486 459v75h75v-75h-75zM359 534h75v-75h-75v75z" />
    <glyph glyph-name="uni0643" unicode="&#x643;" horiz-adv-x="847" arabic-form="isolated" 
d="M80 170v150h55v-140q0 -24 9 -45t25 -36.5t37 -24.5t45 -9h390q33 0 57 23.5t24 57.5v504h55v-504q0 -30 -11.5 -57t-31.5 -46.5t-46.5 -31t-56.5 -11.5h-380q-35 0 -66 13.5t-54.5 36.5t-37 54t-13.5 66zM298 293l81 41q-1 0 -6.5 4t-11.5 15q0 1 -2.5 6.5t-5.5 12
t-6 12.5t-5 9q-9 20 -9 39.5t7 36.5t20 30.5t30 20.5l72 30l14 -35l-77 -35q-18 -8 -23.5 -23t-5.5 -24q0 -12 6 -23q2 -3 5.5 -10.5t8 -17t9.5 -19t8 -16.5l146 76l17 -35l-255 -130z" />
    <glyph glyph-name="uni0644" unicode="&#x644;" horiz-adv-x="685" arabic-form="isolated" 
d="M80 248h55v-221q0 -28 10.5 -53t29.5 -43.5t44 -29.5t53 -11h172q24 0 45 9t37 25t25 37t9 45v644h55v-654q0 -36 -13.5 -67t-36.5 -54t-54.5 -36.5t-66.5 -13.5h-172q-40 0 -75 15t-61 41t-41 61t-15 75v231z" />
    <glyph glyph-name="uni0645" unicode="&#x645;" horiz-adv-x="639" arabic-form="isolated" 
d="M80 -246v438q0 30 11.5 57t31.5 46.5t46.5 31t56.5 11.5h216q27 0 51 -10t42 -28t28.5 -42t10.5 -51v-128q0 -37 -21 -58t-58 -21h-126q-29 0 -53.5 12.5t-41.5 32.5t-22.5 41.5t-5.5 37.5q0 11 2 23l24 131h-56q-34 0 -57.5 -26t-23.5 -60v-438h-55zM314 88
q16 -23 51 -23h154v143q0 29 -21 49.5t-50 20.5h-121l-25 -138q-1 -7 -1 -13q0 -21 13 -39z" />
    <glyph glyph-name="uni0646" unicode="&#x646;" horiz-adv-x="685" arabic-form="isolated" 
d="M80 276h55v-249q0 -28 10.5 -53t29.5 -43.5t44 -29.5t53 -11h172q24 0 45 9t37 25t25 37t9 45v287h55v-297q0 -36 -13.5 -67t-36.5 -54t-54.5 -36.5t-66.5 -13.5h-172q-40 0 -75 15t-61 41t-41 61t-15 75v259zM310 294v75h75v-75h-75z" />
    <glyph glyph-name="uni0647" unicode="&#x647;" horiz-adv-x="478" arabic-form="isolated" 
d="M94 248q14 29 40 47q11 8 23 15t22 14q12 7 23 14l-68 45l30 48q14 -10 31 -21q14 -10 31.5 -22t36.5 -25q43 -30 99 -68q23 -18 37 -46.5t14 -63.5v-37q0 -32 -12 -60.5t-33 -50t-49.5 -34t-61.5 -12.5h-21q-32 0 -60.5 12.5t-49.5 34t-33.5 50t-12.5 60.5v35
q0 36 14 65zM135 194v-37q0 -21 8 -39.5t21.5 -32t32 -21.5t39.5 -8h22q21 0 39 8t31.5 21.5t21.5 32t8 39.5v37q0 15 -7 29.5t-21 25.5q-4 3 -17.5 11.5t-28.5 18.5q-17 11 -37 25l-86 -57q-13 -10 -19 -22t-7 -31z" />
    <glyph glyph-name="uni0648" unicode="&#x648;" horiz-adv-x="469" arabic-form="isolated" 
d="M73 147l17 91q4 22 15 40t27.5 31.5t36.5 21t42 7.5h56q27 0 51 -10.5t42 -28t28.5 -41.5t10.5 -51v-217q0 -34 -10.5 -66t-29.5 -58.5t-45.5 -46.5t-58.5 -31l-107 -36l-18 57l113 38q45 15 72.5 52.5t27.5 85.5v22q-14 -7 -34 -7h-115q-29 0 -53.5 12.5t-41.5 32.5
t-22.5 41.5t-5.5 37.5q0 11 2 23zM128 112q4 -14 12.5 -24.5t21 -16.5t27.5 -6h155v142q0 30 -21 50.5t-51 20.5h-60q-26 0 -45.5 -16t-24.5 -41l-15 -81q-1 -6 -1 -12q0 -9 2 -16z" />
    <glyph glyph-name="uni0649" unicode="&#x649;" horiz-adv-x="714" arabic-form="isolated" 
d="M135 268v-221q0 -28 10.5 -53t29.5 -43.5t44 -29.5t53 -11h202q24 0 45 9t36.5 25t24.5 37t9 45v44l-271 63v102q0 35 12.5 65t33.5 53t48.5 37t58.5 18l108 14l8 -56l-122 -17q-42 -6 -67.5 -39t-25.5 -74v-55l209 -49q29 -7 46 -26t17 -48v-42q0 -35 -13.5 -66.5
t-36.5 -54.5t-54 -36.5t-66 -13.5h-202q-40 0 -75 15t-61 41t-41 61t-15 75v231h55z" />
    <glyph glyph-name="uni064A" unicode="&#x64a;" horiz-adv-x="714" arabic-form="isolated" 
d="M135 268v-221q0 -28 10.5 -53t29.5 -43.5t44 -29.5t53 -11h202q24 0 45 9t36.5 25t24.5 37t9 45v44l-270 63v102q0 35 12.5 65t33.5 53t48.5 37t57.5 18l108 14l8 -56l-122 -17q-41 -5 -66.5 -38t-25.5 -75v-55l208 -49q29 -7 46 -26t17 -48v-42q0 -35 -13.5 -66.5
t-36.5 -54.5t-54 -36.5t-66 -13.5h-202q-40 0 -75 15t-61 41t-41 61t-15 75v231h55zM384 -250h75v-75h-75v75zM257 -250h75v-75h-75v75z" />
    <glyph glyph-name="uni064B" unicode="&#xfe70;" arabic-form="isolated" 
d="M-142 700l-6 35l287 62l9 -36zM-142 815l-6 35l287 62l9 -36z" />
    <glyph glyph-name="uni064C" unicode="&#xfe72;" arabic-form="isolated" 
d="M-159 736l48 8l-23 106l38 9l23 -106l53 11q-2 10 -5 22.5t-5.5 25t-5 23t-3.5 16.5t-1 12q0 18 14.5 38.5t49.5 23.5l53 2h3q24 0 45 -16t26 -42l8 -43q1 -6 1 -12q0 -20 -15 -37t-43 -23l-11 -2q-12 -3 -30 -6.5t-41 -8.5t-47 -10q-55 -12 -126 -27zM-1 850l19 -78
l82 18q8 3 15.5 10t7.5 16v4l-10 47q-2 13 -11.5 18t-17.5 6q-2 -1 -5 -1l-56 -5h-2q-10 0 -16 -8t-6 -20v-7z" />
    <glyph glyph-name="uni064D" unicode="&#xfe74;" arabic-form="isolated" 
d="M-141 -223l-8 46l287 62l10 -46zM-141 -107l-8 45l287 62l10 -45z" />
    <glyph glyph-name="uni064E" unicode="&#xfe76;" arabic-form="isolated" 
d="M-142 701l-6 35l287 62l9 -36z" />
    <glyph glyph-name="uni064F" unicode="&#xfe78;" arabic-form="isolated" 
d="M-33 759q-5 19 -10.5 46t-8.5 41l-2 12q1 6 3 15.5t10 20t20.5 17.5t30.5 8l53 4h3q24 0 45 -16.5t26 -42.5l8 -44q1 -7 1 -13q0 -19 -13 -35t-40 -23q-1 0 -11 -2t-26.5 -6t-37.5 -8t-42 -9q-50 -11 -114 -24l-8 34zM-14 844l19 -77l81 17q9 2 16.5 9t7.5 17v4l-11 48
q-2 13 -11.5 18t-17.5 6q-2 -1 -5 -1l-56 -5h-2q-9 0 -15.5 -9t-6.5 -19q0 -4 1 -8z" />
    <glyph glyph-name="uni0650" unicode="&#xfe7a;" arabic-form="isolated" 
d="M-142 -97l-6 35l287 62l9 -36z" />
    <glyph glyph-name="uni0651" unicode="&#xfe7c;" arabic-form="isolated" 
d="M-106 850v-69q1 -16 13 -27.5t28 -12.5h7q16 0 28 10t15 25l13 67l36 -7l-11 -57q-1 -3 -1 -6q0 -13 11.5 -22.5t27.5 -9.5h45v113h37v-113q0 -41 -42 -41h-35q-18 0 -34 8t-26 25q-11 -17 -29 -25t-37 -8q-34 0 -58 23.5t-24 58.5v68h36z" />
    <glyph glyph-name="uni0652" unicode="&#xfe7e;" arabic-form="isolated" 
d="M-86 791q0 34 23.5 57t57.5 24h10q33 0 56.5 -23.5t23.5 -57.5v-11q0 -33 -23.5 -56.5t-56.5 -23.5h-10q-34 0 -57.5 23.5t-23.5 56.5v11zM-39 753q13 -13 31 -13h16q18 0 30.5 12.5t12.5 30.5v9q0 18 -12.5 30.5t-30.5 12.5h-16q-18 0 -30.5 -12t-12.5 -28v-3v-9v-3
q0 -16 12 -27z" />
    <glyph glyph-name="uni0671" unicode="&#x671;" horiz-adv-x="308" arabic-form="isolated" 
d="M-18 661q17 0 29.5 12.5t12.5 29.5v28h37v-29q0 -16 11 -27l94 93q17 16 37.5 25.5t43.5 9.5h25q32 0 54 -22t22 -54v-32q0 -32 -22 -54t-54 -22h-163q-29 0 -43 9.5t-25 29.5q-11 -20 -27.5 -29.5t-36.5 -9.5h-17v42h22zM193 569v-569h-55v569h55zM275 661q15 0 26 11
t11 26v26q0 17 -11.5 28.5t-28.5 11.5h-24q-35 0 -61 -26l-80 -77h168z" />
    <glyph glyph-name="uni067E" unicode="&#x67e;" horiz-adv-x="842" arabic-form="isolated" 
d="M80 170v151h55v-141q0 -24 9 -45t25 -36.5t37 -24.5t45 -9h390q33 0 57 23.5t24 57.5v175h55v-175q0 -30 -11.5 -57t-31.5 -46.5t-46.5 -31t-56.5 -11.5h-380q-35 0 -66 13.5t-54.5 36.5t-37 54t-13.5 66zM418 -120v-75h-75v75h75zM409 -232h75v-75h-75v75zM470 -120h75
v-75h-75v75z" />
    <glyph glyph-name="uni0686" unicode="&#x686;" horiz-adv-x="660" arabic-form="isolated" 
d="M80 236l22 76q7 25 23 42t35.5 26t32.5 10t18 2q15 -1 29 -5l355 -107l-17 -50l-53 16q-8 3 -16 3q-6 0 -16 -3t-22 -11l-252 -186q-32 -24 -50 -57.5t-18 -71.5v-4q0 -36 14 -68t38 -56t56 -38t68 -14h226v-65h-226q-48 0 -90.5 18t-74 49.5t-50 74t-18.5 90.5
q0 57 26 106t71 82q22 16 53.5 39t63.5 47t61 44.5t45 32.5q5 4 10.5 7.5t11.5 6.5l-220 65q-6 2 -13 2q-13 0 -30 -11t-23 -31l-22 -74zM395 10v-75h-75v75h75zM461 -102v-75h-75v75h75zM447 -65v75h75v-75h-75z" />
    <glyph glyph-name="uni0698" unicode="&#x698;" horiz-adv-x="343" arabic-form="isolated" 
d="M-40 -190l114 37q45 15 72 53t27 86v307h55v-303q0 -34 -10 -65.5t-29 -57.5t-45.5 -46.5t-58.5 -31.5l-107 -36zM101 496h75v-75h-75v75zM237 608v-75h-75v75h75zM303 496v-75h-75v75h75z" />
    <glyph glyph-name="uni06A9" unicode="&#x6a9;" horiz-adv-x="865" arabic-form="isolated" 
d="M135 351v-177q0 -48 29.5 -78.5t79.5 -30.5h370q35 0 63.5 17t41.5 43t13 55q0 6 -2 27.5t-30 60.5l-157 218v52l296 152l25 -51l-266 -137l148 -203q37 -51 39.5 -82t2.5 -40q0 -43 -19.5 -82.5t-62.5 -67t-102 -27.5h-350q-39 0 -71 13.5t-55 37t-35.5 55t-12.5 68.5
v177h55z" />
    <glyph glyph-name="uni06AF" unicode="&#x6af;" horiz-adv-x="865" arabic-form="isolated" 
d="M80 174v177h55v-177q0 -48 29.5 -78.5t79.5 -30.5h370q35 0 63.5 17t41.5 43t13 55q0 6 -2 27.5t-30 60.5l-157 218v52l296 152l25 -51l-266 -137l148 -203q37 -51 39.5 -82t2.5 -40q0 -43 -19.5 -82.5t-62.5 -67t-102 -27.5h-350q-39 0 -71 13.5t-55 37t-35.5 55
t-12.5 68.5zM787 788l19 -44l-262 -134l-19 44z" />
    <glyph glyph-name="uni06C0" unicode="&#x6c0;" horiz-adv-x="478" arabic-form="isolated" 
d="M80 183q0 36 14 65t40 47q11 8 23 15t22 14q12 7 23 14l-68 45l30 48q14 -10 31 -21q14 -10 31.5 -22t36.5 -25q43 -30 99 -68q23 -18 37 -46.5t14 -63.5v-37q0 -32 -12 -60.5t-33 -50t-49.5 -34t-61.5 -12.5h-21q-32 0 -60.5 12.5t-49.5 34t-33.5 50t-12.5 60.5v35z
M143 118q8 -19 21.5 -32.5t32 -21.5t39.5 -8h22q21 0 39 8t31.5 21.5t21.5 32t8 39.5v37q0 15 -7 29.5t-21 25.5q-4 3 -17.5 11.5t-28.5 18.5q-17 11 -37 25l-86 -57q-13 -10 -19 -22t-7 -31v-37q0 -21 8 -39zM128 542l80 41q-1 0 -6.5 4t-11.5 15q0 1 -2.5 6.5t-5.5 12
t-6 12.5t-5 9q-9 20 -9 39.5t7 36.5t20 30.5t30 20.5l72 30l14 -35l-77 -35q-18 -8 -23.5 -23t-5.5 -24q0 -12 6 -23q2 -3 5.5 -11t8.5 -17.5t9.5 -19t7.5 -15.5l146 76l17 -35l-254 -130z" />
    <glyph glyph-name="uni06CC" unicode="&#x6cc;" horiz-adv-x="714" arabic-form="isolated" 
d="M135 268v-221q0 -28 10.5 -53t29.5 -43.5t44 -29.5t53 -11h202q24 0 45 9t36.5 25t24.5 37t9 45v44l-270 63v102q0 35 12.5 65t33.5 53t48.5 37t57.5 18l108 14l8 -56l-122 -17q-41 -5 -66.5 -38t-25.5 -75v-55l208 -49q29 -7 46 -26t17 -48v-42q0 -35 -13.5 -66.5
t-36.5 -54.5t-54 -36.5t-66 -13.5h-202q-40 0 -75 15t-61 41t-41 61t-15 75v231h55z" />
    <glyph glyph-name="uniFB51" unicode="&#x671;" horiz-adv-x="303" arabic-form="final" 
d="M-40 661h22q17 0 29.5 12.5t12.5 29.5v28h37v-29q0 -16 11 -27l94 93q17 16 37.5 25.5t43.5 9.5h25q32 0 54 -22t22 -54v-32q0 -32 -22 -54t-54 -22h-163q-42 0 -66 32q-11 -15 -28.5 -23.5t-37.5 -8.5h-17v42zM120 146v423h55v-423q0 -34 23.5 -57.5t56.5 -23.5h48
q14 0 14 -14v-37q0 -14 -14 -14h-38q-30 0 -56.5 11.5t-46 31t-31 46.5t-11.5 57zM275 661q15 0 26 11t11 26v26q0 17 -11.5 28.5t-28.5 11.5h-24q-17 0 -33 -7.5t-28 -18.5l-80 -77h168z" />
    <glyph glyph-name="uniFB57" unicode="&#x67e;" horiz-adv-x="887" arabic-form="final" 
d="M80 170v151h55v-141q0 -24 9 -45t25 -36.5t37 -24.5t45 -9h391q33 0 56.5 23.5t23.5 57.5v147h55v-147q0 -34 23.5 -57.5t57.5 -23.5h29q14 0 14 -14v-37q0 -14 -14 -14h-19q-37 0 -67.5 18t-50.5 50q-20 -33 -51 -50.5t-68 -17.5h-380q-35 0 -66 13.5t-54.5 36.5t-37 54
t-13.5 66zM343 -195v75h75v-75h-75zM409 -307v75h75v-75h-75zM470 -195v75h75v-75h-75z" />
    <glyph glyph-name="uniFB58" unicode="&#x67e;" horiz-adv-x="315" arabic-form="initial" 
d="M-10 61q4 4 10 4h105q33 0 56.5 23.5t23.5 56.5v176h55v-176q0 -30 -11.5 -56.5t-31 -46t-46 -31t-56.5 -11.5h-95q-14 0 -14 14v36q0 6 4 11zM77 -120v-75h-75v75h75zM143 -232v-75h-75v75h75zM204 -120v-75h-75v75h75z" />
    <glyph glyph-name="uniFB59" unicode="&#x67e;" horiz-adv-x="336" arabic-form="medial" 
d="M0 65h57q32 0 56 20t30 50l30 151l54 -9l-25 -126q-1 -6 -1 -13q0 -10 4 -22.5t14.5 -24.5t26 -19t33.5 -7h57q14 0 14 -14v-37q0 -14 -14 -14h-58q-17 0 -34 5t-32 14t-26 21.5t-15 27.5q-18 -30 -48.5 -49t-65.5 -19h-57q-14 0 -14 14v37q0 14 14 14zM70 -195v75h75
v-75h-75zM136 -307v75h75v-75h-75zM197 -120h75v-75h-75v75z" />
    <glyph glyph-name="uniFB7B" unicode="&#x686;" horiz-adv-x="682" arabic-form="final" 
d="M102 312q7 25 23 42t35.5 26t32.5 10t18 2q15 -1 29 -5l355 -107l-17 -50l-53 16q-7 3 -15 3q-7 0 -18 -3.5t-23 -12.5v-86q0 -35 24 -58.5t57 -23.5h133q14 0 14 -14v-37q0 -14 -14 -14h-123q-30 0 -55.5 11.5t-44 31t-29 46.5t-10.5 57v52l-202 -149q-32 -24 -50 -57.5
t-18 -71.5v-4q0 -36 14 -68t38 -56t56 -38t68 -14h226v-65h-226q-48 0 -90.5 18t-74 49.5t-50 73.5t-18.5 90q0 57 26 106.5t71 82.5q22 16 52 38t61.5 45t60.5 44.5t49 35.5q5 4 10.5 7.5t11.5 6.5l-220 65q-6 2 -13 2q-13 0 -30 -11t-23 -31l-22 -74l-48 13zM260 -92v60
h60v-60h-60zM313 -115h60v-60h-60v60zM362 -92v60h60v-60h-60z" />
    <glyph glyph-name="uniFB7C" unicode="&#x686;" horiz-adv-x="675" arabic-form="initial" 
d="M-10 61q4 4 10 4h157q50 0 95.5 17.5t82.5 49.5l99 88q5 5 12 10t12 8l-252 74q-8 2 -15 2q-14 0 -31 -10.5t-23 -31.5l-22 -73l-48 13l22 75q6 22 20.5 39t33.5 27.5t33.5 12.5t20.5 2q16 0 31 -5l382 -115l-15 -51l-38 11q-14 4 -26 4q-2 0 -10 -0.5t-19 -6
t-20.5 -13.5t-19.5 -17l-117 -104q-39 -35 -87.5 -53t-100.5 -18h-157q-14 0 -14 14v37q0 5 4 10zM212 -120h75v-75h-75v75zM353 -232v-75h-75v75h75zM339 -195v75h75v-75h-75z" />
    <glyph glyph-name="uniFB7D" unicode="&#x686;" horiz-adv-x="685" arabic-form="medial" 
d="M-14 14v37q0 5 4 9.5t10 4.5h157q50 0 95.5 17.5t82.5 49.5l99 88q5 5 12 10.5t12 7.5l-252 74q-8 2 -15 2q-14 0 -31 -10.5t-23 -31.5l-22 -73l-48 13l22 75q6 22 20.5 39t33.5 27.5t33.5 12.5t20.5 2q16 0 31 -5l382 -115l-15 -51l-38 11q-15 5 -26 5q-1 0 -8 -0.5
t-16.5 -4.5t-18 -10.5t-16.5 -13.5v-38q0 -34 23.5 -57.5t57.5 -23.5h132q6 0 10 -4.5t4 -9.5v-37q0 -14 -14 -14h-122q-30 0 -55 11t-43.5 30.5t-29 45t-11.5 55.5l-79 -71q-39 -35 -87.5 -53t-100.5 -18h-157q-14 0 -14 14zM287 -120v-75h-75v75h75zM279 -232h75v-75h-75
v75zM339 -195v75h75v-75h-75z" />
    <glyph glyph-name="uniFB8B" unicode="&#x698;" horiz-adv-x="419" arabic-form="final" 
d="M74 -153q45 15 72.5 53t27.5 86v306h55v-147q0 -33 23.5 -56.5t57.5 -23.5h109q6 0 10 -4.5t4 -10.5v-36q0 -14 -14 -14h-99q-27 0 -51 11.5t-40 31.5v-53q0 -34 -10.5 -65.5t-29.5 -58t-45.5 -46.5t-58.5 -31l-106 -37l-18 57zM99 495h75v-75h-75v75zM235 607v-75h-75
v75h75zM301 495v-75h-75v75h75z" />
    <glyph glyph-name="uniFB8F" unicode="&#x6a9;" horiz-adv-x="992" arabic-form="final" 
d="M80 174v177h55v-177q0 -48 29.5 -78.5t79.5 -30.5h370q36 0 64 17.5t40.5 43.5t12.5 54q0 7 -2 29t-29 60l-158 217v52l296 152l26 -51l-266 -137l282 -381q18 -25 43 -40.5t57 -15.5h12q7 0 10.5 -4.5t3.5 -10.5v-36q0 -14 -14 -14h-12q-45 0 -80.5 21.5t-65.5 65.5
l-57 83v-10q0 -36 -14 -66t-39 -51t-56.5 -32t-62.5 -11h-351q-39 0 -71 13.5t-55 37t-35.5 55t-12.5 68.5z" />
    <glyph glyph-name="uniFB90" unicode="&#x6a9;" horiz-adv-x="384" arabic-form="initial" 
d="M0 65h133q35 0 63.5 17.5t41.5 43.5t13 55q0 6 -2 27.5t-30 60.5l-157 218v51l296 152l26 -51l-267 -137l148 -203q38 -51 40.5 -82t2.5 -40q0 -43 -19 -82.5t-62.5 -67t-101.5 -27.5h-125q-14 0 -14 14v37q0 14 14 14z" />
    <glyph glyph-name="uniFB91" unicode="&#x6a9;" horiz-adv-x="512" arabic-form="medial" 
d="M0 65h133q36 0 64 17.5t40.5 43.5t12.5 54q0 7 -2 29t-29 60l-157 217v52l296 152l26 -51l-267 -137l282 -381q19 -25 44 -40.5t57 -15.5h12q8 0 11 -5t3 -11v-35q0 -6 -4.5 -10t-9.5 -4h-12q-88 0 -147 87l-56 83v-10q0 -36 -14 -66t-39 -51t-56.5 -32t-62.5 -11h-125
q-14 0 -14 14v37q0 14 14 14z" />
    <glyph glyph-name="uniFB93" unicode="&#x6af;" horiz-adv-x="992" arabic-form="final" 
d="M80 174v177h55v-177q0 -48 29.5 -78.5t79.5 -30.5h370q36 0 64 17.5t40.5 43.5t12.5 54q0 7 -2 29t-29 60l-158 217v52l296 152l26 -51l-266 -137l282 -381q18 -25 43 -40.5t57 -15.5h12q7 0 10.5 -4.5t3.5 -10.5v-36q0 -14 -14 -14h-12q-45 0 -80.5 21.5t-65.5 65.5
l-57 83v-10q0 -36 -14 -66t-39 -51t-56.5 -32t-62.5 -11h-351q-39 0 -71 13.5t-55 37t-35.5 55t-12.5 68.5zM787 788l19 -44l-262 -134l-19 44z" />
    <glyph glyph-name="uniFB94" unicode="&#x6af;" horiz-adv-x="384" arabic-form="initial" 
d="M0 65h133q35 0 63.5 17.5t41.5 43.5t13 55q0 6 -2 27.5t-30 60.5l-157 218v51l296 152l26 -51l-267 -137l148 -203q38 -51 40.5 -82t2.5 -40q0 -43 -19 -82.5t-62.5 -67t-101.5 -27.5h-125q-14 0 -14 14v37q0 14 14 14zM45 654l262 134l19 -44l-262 -134z" />
    <glyph glyph-name="uniFB95" unicode="&#x6af;" horiz-adv-x="512" arabic-form="medial" 
d="M0 65h133q36 0 64 17.5t40.5 43.5t12.5 54q0 7 -2 29t-29 60l-157 217v52l296 152l26 -51l-267 -137l282 -381q19 -25 44 -40.5t57 -15.5h12q8 0 11 -5t3 -11v-35q0 -6 -4.5 -10t-9.5 -4h-12q-88 0 -147 87l-56 83v-10q0 -36 -14 -66t-39 -51t-56.5 -32t-62.5 -11h-125
q-14 0 -14 14v37q0 14 14 14zM45 654l262 134l19 -44l-262 -134z" />
    <glyph glyph-name="uniFBA5" unicode="&#x6c0;" horiz-adv-x="512" arabic-form="final" 
d="M112 327q32 38 82 51l142 37v84h55v-347q0 -18 7.5 -34t20 -27.5t29 -18.5t34.5 -7h30q14 0 14 -14v-37q0 -14 -14 -14h-30q-45 0 -81 25t-53 64q-8 -6 -17.5 -10t-20.5 -4h-147q-83 0 -83 84v66q0 63 32 102zM134 225v-85h202v214l-132 -34q-32 -8 -51 -35.5t-19 -59.5z
M116 539l83 41q0 1 -6 5t-11 15l-20 40q-9 20 -9 39t6.5 36.5t19.5 31t31 20.5l72 30l14 -35l-77 -35q-18 -8 -23.5 -23t-5.5 -23q0 -12 7 -24q2 -3 5.5 -11t8.5 -17l9 -19q4 -10 7 -16l145 76l17 -35l-254 -131z" />
    <glyph glyph-name="uniFBE8" unicode="&#x649;" horiz-adv-x="305" arabic-form="initial" 
d="M-10 61q4 4 10 4h105q33 0 56.5 23.5t23.5 56.5v176h55v-176q0 -30 -11.5 -56.5t-31 -46t-46 -31t-56.5 -11.5h-95q-14 0 -14 14v36q0 6 4 11z" />
    <glyph glyph-name="uniFBE9" unicode="&#x649;" horiz-adv-x="336" arabic-form="medial" 
d="M0 65h57q32 0 56 20t30 50l30 151l54 -9l-25 -126q-1 -6 -1 -13q0 -10 4 -22.5t14.5 -24.5t26 -19t33.5 -7h57q14 0 14 -14v-37q0 -14 -14 -14h-58q-17 0 -34 5t-32 14t-26 21.5t-15 27.5q-18 -30 -48.5 -49t-65.5 -19h-57q-14 0 -14 14v37q0 14 14 14z" />
    <glyph glyph-name="uniFBFD" unicode="&#x6cc;" horiz-adv-x="734" arabic-form="final" 
d="M135 188v-221q0 -28 11 -53t29.5 -43.5t43.5 -29.5t53 -11h172q24 0 45 9t37 25t25 37t9 45v54h-184v65h358q5 0 9.5 -4t4.5 -10v-37q0 -6 -4.5 -10t-9.5 -4h-124q5 -12 5 -23v-41q0 -35 -13.5 -66.5t-36.5 -54.5t-54.5 -36.5t-66.5 -13.5h-172q-40 0 -75 15t-61 41
t-41 61t-15 75v231h55z" />
    <glyph glyph-name="uniFBFE" unicode="&#x6cc;" horiz-adv-x="320" arabic-form="initial" 
d="M-10 61q4 4 10 4h105q33 0 56.5 23.5t23.5 56.5v176h55v-176q0 -30 -11.5 -56.5t-31 -46t-46 -31t-56.5 -11.5h-95q-14 0 -14 14v36q0 6 4 11zM202 -120v-75h-75v75h75zM0 -120h75v-75h-75v75z" />
    <glyph glyph-name="uniFBFF" unicode="&#x6cc;" horiz-adv-x="336" arabic-form="medial" 
d="M0 65h57q32 0 56 20t30 50l30 151l54 -9l-25 -126q-1 -6 -1 -13q0 -10 4 -22.5t14.5 -24.5t26 -19t33.5 -7h57q14 0 14 -14v-37q0 -14 -14 -14h-58q-17 0 -34 5t-32 14t-26 21.5t-15 27.5q-18 -30 -48.5 -49t-65.5 -19h-57q-14 0 -14 14v37q0 14 14 14zM271 -120v-75h-75
v75h75zM144 -120v-75h-75v75h75z" />
    <glyph glyph-name="uniFC5E" unicode="&#xfc5e;" arabic-form="isolated" 
d="M-156 953l48 8l-23 107l39 8l22 -105l54 10q-4 20 -8 37q-3 15 -6 29.5t-5 21.5q-1 6 -1 12q0 18 14 38t50 24l52 1h6q22 0 42.5 -15.5t25.5 -41.5l9 -44q1 -5 1 -10q0 -22 -15.5 -39t-43.5 -23l-11 -2q-12 -3 -30 -6.5t-41 -8.5t-47 -10q-55 -12 -126 -27zM-106 849v-69
q1 -16 12.5 -27.5t27.5 -11.5h8q15 0 27.5 10t14.5 25l14 67l35 -7l-10 -58q-1 -3 -1 -6q0 -13 11.5 -22t26.5 -9h46l1 113l36 -1l-1 -113q0 -40 -40 -40h-41q-37 0 -58 29q-11 -14 -27.5 -21.5t-35.5 -8.5q-34 0 -58 24t-24 58v69zM2 1067l19 -77l82 17q9 3 16 10t7 15v5
l-9 48q-3 12 -12 17t-17 6q-2 -1 -5 -1l-56 -4q-11 0 -18 -8.5t-7 -20.5v-7z" />
    <glyph glyph-name="uniFC5F" unicode="&#xfc5f;" arabic-form="isolated" 
d="M-146 1036v68h36v-69q0 -16 12 -27.5t28 -12.5h7q16 0 28 10t15 25l14 67l35 -6l-11 -58v-5q0 -13 11.5 -22.5t26.5 -10.5h46v113h36v-113q0 -41 -41 -41h-41q-18 0 -32.5 8t-24.5 21q-24 -29 -64 -29q-34 0 -57.5 24t-23.5 58zM-148 850l287 62l9 -36l-290 -61z
M-148 735l287 62l9 -36l-290 -61z" />
    <glyph glyph-name="uniFC60" unicode="&#xfc60;" arabic-form="isolated" 
d="M-145 782v69h36v-69q1 -17 12.5 -28.5t27.5 -11.5h8q16 0 28 10t15 25l13 66l36 -6l-11 -58q-1 -3 -1 -6q0 -13 11.5 -22t27.5 -9h45v113h36v-114q0 -41 -41 -41h-40q-37 2 -58 30q-11 -14 -28 -22t-35 -8q-34 0 -58 24t-24 58zM-148 929l287 62l9 -35l-289 -62z" />
    <glyph glyph-name="uniFC61" unicode="&#xfc61;" arabic-form="isolated" 
d="M-143 933l113 24q-1 5 -3.5 16.5t-5 25t-5.5 26t-4 19.5q-2 7 -2 13t2 15t10 19.5t21 17.5t30 8l53 4h3q24 0 45.5 -16.5t26.5 -42.5l8 -43q1 -7 1 -13q0 -20 -13.5 -36t-41.5 -23l-10 -2q-11 -2 -27 -6t-37 -8t-42 -9q-50 -11 -114 -24zM-143 850h36v-69q1 -16 13 -27.5
t28 -12.5h7q16 0 28 10t15 25l13 67l36 -7l-11 -57q-1 -3 -1 -6q0 -13 11.5 -22.5t27.5 -9.5h45v113h37v-113q0 -41 -42 -41h-40q-37 0 -58 29q-11 -14 -27.5 -21.5t-35.5 -7.5q-34 0 -58 23.5t-24 58.5v68zM-11 1042l19 -77l81 17q9 4 16 11t7 15v4q0 1 -1 8.5t-3 15.5
q-2 11 -5 24t-12 18t-17 6q-2 -1 -5 -1l-56 -4q-11 -1 -18 -10t-7 -19q0 -4 1 -8z" />
    <glyph glyph-name="uniFC62" unicode="&#xfc62;" arabic-form="isolated" 
d="M-146 920v69h36v-69q1 -17 12.5 -28.5t27.5 -11.5h8q16 0 28 10t15 25l13 66l36 -6l-11 -58q-1 -3 -1 -6q0 -13 11.5 -22t27.5 -9h45v113h36v-114q0 -41 -41 -41h-40q-37 2 -58 30q-11 -14 -28 -22t-35 -8q-34 0 -58 24t-24 58zM-148 736l287 61l9 -35l-289 -62z" />
    <glyph glyph-name="uniFC63" unicode="&#xfc63;" arabic-form="isolated" 
d="M-142 851h36v-69q1 -17 12.5 -28.5t27.5 -11.5h8q16 0 28 10t15 25l13 66l36 -6l-11 -58q-1 -3 -1 -6q0 -13 11.5 -22t27.5 -9h45v113h36v-114q0 -41 -41 -41h-40q-37 2 -58 30q-11 -14 -28 -22t-35 -8q-34 0 -58 24t-24 58v69zM15 1022v-124h-35v124h35z" />
    <glyph glyph-name="uniFE82" unicode="&#x622;" horiz-adv-x="264" arabic-form="final" 
d="M80 569h55v-424q0 -33 23.5 -56.5t57.5 -23.5h48q5 0 9.5 -4.5t4.5 -10.5v-36q0 -6 -4.5 -10t-9.5 -4h-38q-30 0 -57 11.5t-46.5 31t-31 46t-11.5 56.5v424zM-20 595v33q0 28 22 50t50 22h184v-50h-189q-11 0 -19 -8t-8 -19v-28h-40z" />
    <glyph glyph-name="uniFE84" unicode="&#x623;" horiz-adv-x="234" arabic-form="final" 
d="M51 145v427h55v-427q0 -33 23.5 -56.5t56.5 -23.5h48q6 0 10 -4.5t4 -10.5v-36q0 -14 -14 -14h-38q-30 0 -56.5 11.5t-46 31t-31 46t-11.5 56.5zM61 689q0 1 -6 4.5t-11 15.5q0 1 -2.5 6t-5.5 12l-6 13q-3 6 -5 9q-9 19 -9 38.5t6.5 36.5t19.5 30.5t31 20.5l72 30l14 -34
l-77 -36q-18 -8 -23.5 -22.5t-5.5 -23.5q0 -12 6 -23l31 -63l146 76l17 -36l-255 -130l-18 38z" />
    <glyph glyph-name="uniFE86" unicode="&#x624;" horiz-adv-x="481" arabic-form="final" 
d="M73 147l17 91q4 22 15 40t27.5 31.5t36.5 21t42 7.5h56q27 0 51 -10.5t42 -28t28 -41.5t10 -51v-142h83q6 0 10 -4.5t4 -9.5v-37q0 -14 -14 -14h-83v-10q0 -34 -10 -66t-29 -58.5t-45.5 -46.5t-58.5 -31l-107 -36l-18 57l113 38q45 15 72.5 52.5t27.5 85.5v22
q-14 -7 -34 -7h-115q-29 0 -53.5 12.5t-41.5 32.5t-22.5 41.5t-5.5 37.5q0 11 2 23zM128 112q4 -14 12.5 -24.5t21 -16.5t27.5 -6h154v143q0 29 -20.5 49.5t-50.5 20.5h-60q-26 0 -45.5 -16t-24.5 -41l-15 -81q-1 -6 -1 -12q0 -9 2 -16zM156 481q-1 0 -6.5 4t-10.5 15
q0 1 -2.5 6.5t-5.5 12t-6 12.5t-5 9q-9 20 -9 39.5t6.5 36.5t19.5 30.5t31 20.5l72 30l14 -35l-77 -35q-18 -8 -23.5 -22.5t-5.5 -23.5q0 -12 6 -24q2 -3 5.5 -11t8.5 -17.5t9.5 -19t7.5 -15.5l146 76l17 -35l-255 -130l-17 37z" />
    <glyph glyph-name="uniFE88" unicode="&#x625;" horiz-adv-x="264" arabic-form="final" 
d="M80 145v505h55v-505q0 -33 23.5 -56.5t56.5 -23.5h50q6 0 10 -4.5t4 -10.5v-36q0 -14 -14 -14h-40q-30 0 -56.5 11.5t-46 31t-31 46t-11.5 56.5zM97 -276q0 1 -6 4.5t-11 15.5q0 1 -2.5 6l-5.5 11l-6 13q-3 7 -5 10q-9 19 -9 38.5t6.5 36.5t19.5 30.5t31 20.5l71 30
l14 -34l-77 -36q-17 -8 -22.5 -22.5t-5.5 -23.5q0 -11 6 -23l31 -63l146 76l17 -36l-255 -130l-18 38z" />
    <glyph glyph-name="uniFE8A" unicode="&#x626;" horiz-adv-x="734" arabic-form="final" 
d="M135 188v-221q0 -28 11 -53t29.5 -43.5t43.5 -29.5t53 -11h172q24 0 45 9t37 25t25 37t9 45v54h-184v65h358q5 0 9.5 -4t4.5 -10v-37q0 -6 -4.5 -10t-9.5 -4h-124q5 -12 5 -23v-41q0 -35 -13.5 -66.5t-36.5 -54.5t-54.5 -36.5t-66.5 -13.5h-172q-40 0 -75 15t-61 41
t-41 61t-15 75v231h55zM80 363l80 39q0 1 -6 5t-11 15q-1 1 -3.5 6.5t-5.5 12t-5.5 12.5t-4.5 9q-9 20 -9.5 30t-0.5 12q0 17 7 34t20 30.5t31 20.5l71 30l15 -35l-78 -35q-17 -8 -22.5 -23t-5.5 -24q0 -12 6 -23q2 -3 5.5 -11t8.5 -17.5t9.5 -19t7.5 -15.5l146 76l17 -35
l-255 -131z" />
    <glyph glyph-name="uniFE8B" unicode="&#x626;" horiz-adv-x="331" arabic-form="initial" 
d="M-10 61q4 4 10 4h105q33 0 56.5 23.5t23.5 56.5v176h55v-176q0 -30 -11.5 -56.5t-31 -46t-46 -31t-56.5 -11.5h-95q-14 0 -14 14v36q0 6 4 11zM75 438q-1 0 -6.5 4t-10.5 16q-1 1 -3.5 6.5t-5.5 11.5l-6 12q-3 6 -5 9q-9 20 -9 39.5t7 36.5t20 30.5t30 20.5l72 30l14 -35
l-77 -35q-18 -8 -23.5 -22.5t-5.5 -23.5q0 -12 6 -23q2 -3 6 -11t9 -17l9 -19q4 -10 7 -16l146 75l17 -35l-254 -130l-18 37z" />
    <glyph glyph-name="uniFE8C" unicode="&#x626;" horiz-adv-x="336" arabic-form="medial" 
d="M0 65h57q32 0 56 20t30 50l30 151l54 -9l-25 -126q-1 -6 -1 -13q0 -10 4 -22.5t14.5 -24.5t26 -19t33.5 -7h57q14 0 14 -14v-37q0 -14 -14 -14h-58q-17 0 -34 5t-32 14t-26 21.5t-15 27.5q-18 -30 -48.5 -49t-65.5 -19h-57q-14 0 -14 14v37q0 14 14 14zM23 388l81 39
q-1 0 -6.5 4t-10.5 16q-1 1 -3.5 6.5t-5.5 11.5l-6 12q-3 6 -5 9q-9 20 -9 39.5t7 36.5t20 30.5t30 20.5l72 30l14 -35l-77 -35q-18 -8 -23.5 -22.5t-5.5 -23.5q0 -12 6 -23q2 -3 6 -11t9 -17l9 -19q4 -10 7 -16l146 75l17 -35l-254 -130z" />
    <glyph glyph-name="uniFE8E" unicode="&#x627;" horiz-adv-x="265" arabic-form="final" 
d="M135 650v-505q0 -33 23.5 -56.5t56.5 -23.5h50q6 0 10 -4.5t4 -10.5v-36q0 -14 -14 -14h-40q-30 0 -56.5 11.5t-46 31t-31 46t-11.5 56.5v505h55z" />
    <glyph glyph-name="uniFE90" unicode="&#x628;" horiz-adv-x="886" arabic-form="final" 
d="M80 170v151h55v-141q0 -24 9 -45t24.5 -36.5t36.5 -24.5t45 -9h391q33 0 56.5 23.5t23.5 57.5v147h55v-147q0 -34 23.5 -57.5t57.5 -23.5h29q14 0 14 -14v-37q0 -14 -14 -14h-19q-37 0 -67.5 18t-50.5 50q-20 -33 -51 -50.5t-68 -17.5h-380q-35 0 -66 13.5t-54 36.5
t-36.5 54t-13.5 66zM465 -122v-75h-75v75h75z" />
    <glyph glyph-name="uniFE91" unicode="&#x628;" horiz-adv-x="305" arabic-form="initial" 
d="M-10 61q4 4 10 4h105q33 0 56.5 23.5t23.5 56.5v176h55v-176q0 -30 -11.5 -56.5t-31 -46t-46 -31t-56.5 -11.5h-95q-14 0 -14 14v36q0 6 4 11zM16 -195v75h75v-75h-75z" />
    <glyph glyph-name="uniFE92" unicode="&#x628;" horiz-adv-x="336" arabic-form="medial" 
d="M0 65h57q32 0 56 20t30 50l30 151l54 -9l-25 -126q-1 -6 -1 -13q0 -10 4 -22.5t14.5 -24.5t26 -19t33.5 -7h57q14 0 14 -14v-37q0 -14 -14 -14h-58q-17 0 -34 5t-32 14t-26 21.5t-15 27.5q-18 -30 -48.5 -49t-65.5 -19h-57q-14 0 -14 14v37q0 14 14 14zM131 -121h75v-75
h-75v75z" />
    <glyph glyph-name="uniFE94" unicode="&#x629;" horiz-adv-x="512" arabic-form="final" 
d="M112 327q32 38 81 51l143 37v84h55v-347q0 -18 7.5 -34t20 -27.5t29 -18.5t34.5 -7h30q14 0 14 -14v-37q0 -14 -14 -14h-30q-45 0 -81 25t-53 64q-8 -6 -17.5 -10t-21.5 -4h-146q-83 0 -83 84v66q0 63 32 102zM336 142v212l-133 -34q-32 -8 -50.5 -35.5t-18.5 -59.5v-83
h202zM258 680h75v-75h-75v75zM131 680h75v-75h-75v75z" />
    <glyph glyph-name="uniFE96" unicode="&#x62a;" horiz-adv-x="887" arabic-form="final" 
d="M80 321h55v-141q0 -24 9 -45t25 -36.5t37 -24.5t45 -9h391q33 0 56.5 23.5t23.5 57.5v147h55v-147q0 -34 23.5 -57.5t57.5 -23.5h29q14 0 14 -14v-37q0 -14 -14 -14h-19q-37 0 -67.5 18t-50.5 50q-20 -33 -51 -50.5t-68 -17.5h-380q-35 0 -66 13.5t-54.5 36.5t-37 54
t-13.5 66v151zM529 396v-75h-75v75h75zM327 321v75h75v-75h-75z" />
    <glyph glyph-name="uniFE97" unicode="&#x62a;" horiz-adv-x="305" arabic-form="initial" 
d="M-10 61q4 4 10 4h105q33 0 56.5 23.5t23.5 56.5v176h55v-176q0 -30 -11.5 -56.5t-31 -46t-46 -31t-56.5 -11.5h-95q-14 0 -14 14v36q0 6 4 11zM164 447v75h75v-75h-75zM37 522h75v-75h-75v75z" />
    <glyph glyph-name="uniFE98" unicode="&#x62a;" horiz-adv-x="336" arabic-form="medial" 
d="M0 65h57q32 0 56 20t30 50l30 151l54 -9l-25 -126q-1 -6 -1 -13q0 -10 4 -22.5t14.5 -24.5t26 -19t33.5 -7h57q14 0 14 -14v-37q0 -14 -14 -14h-58q-17 0 -34 5t-32 14t-26 21.5t-15 27.5q-18 -30 -48.5 -49t-65.5 -19h-57q-14 0 -14 14v37q0 14 14 14zM274 488v-75h-75
v75h75zM147 488v-75h-75v75h75z" />
    <glyph glyph-name="uniFE9A" unicode="&#x62b;" horiz-adv-x="887" arabic-form="final" 
d="M80 170v151h55v-141q0 -24 9 -45t25 -36.5t37 -24.5t45 -9h391q33 0 56.5 23.5t23.5 57.5v147h55v-147q0 -34 23.5 -57.5t57.5 -23.5h29q14 0 14 -14v-37q0 -14 -14 -14h-19q-37 0 -67.5 18t-50.5 50q-20 -33 -51 -50.5t-68 -17.5h-380q-35 0 -66 13.5t-54.5 36.5t-37 54
t-13.5 66zM327 396h75v-75h-75v75zM388 433v75h75v-75h-75zM454 321v75h75v-75h-75z" />
    <glyph glyph-name="uniFE9B" unicode="&#x62b;" horiz-adv-x="305" arabic-form="initial" 
d="M-10 61q4 4 10 4h105q33 0 56.5 23.5t23.5 56.5v176h55v-176q0 -30 -11.5 -56.5t-31 -46t-46 -31t-56.5 -11.5h-95q-14 0 -14 14v36q0 6 4 11zM38 447v75h75v-75h-75zM98 559v75h75v-75h-75zM165 447v75h75v-75h-75z" />
    <glyph glyph-name="uniFE9C" unicode="&#x62b;" horiz-adv-x="335" arabic-form="medial" 
d="M0 65h57q32 0 56 20t30 50l30 151l54 -9l-25 -126q-1 -6 -1 -13q0 -10 4 -22.5t14.5 -24.5t26 -19t33.5 -7h57q14 0 14 -14v-37q0 -14 -14 -14h-58q-17 0 -34 5t-32 14t-26 21.5t-15 27.5q-18 -30 -48.5 -49t-65.5 -19h-57q-14 0 -14 14v37q0 14 14 14zM72 412v75h75v-75
h-75zM133 599h75v-75h-75v75zM199 412v75h75v-75h-75z" />
    <glyph glyph-name="uniFE9E" unicode="&#x62c;" horiz-adv-x="683" arabic-form="final" 
d="M80 236l22 76q7 25 23 42t35.5 26t32.5 10t18 2q15 -1 29 -5l355 -107l-17 -50l-53 16q-7 3 -15 3q-7 0 -18 -3.5t-23 -12.5v-86q0 -35 24 -58.5t57 -23.5h133q14 0 14 -14v-37q0 -14 -14 -14h-123q-30 0 -55.5 11.5t-44 31t-29 46.5t-10.5 57v52l-202 -149
q-32 -24 -50 -57.5t-18 -71.5v-4q0 -36 14 -68t38 -56t56 -38t68 -14h226v-65h-226q-48 0 -90.5 18t-74 49.5t-50 73.5t-18.5 90q0 57 26 106.5t71 82.5q22 16 52 38t61.5 45t60.5 44.5t49 35.5q5 4 10.5 7.5t11.5 6.5l-220 65q-6 2 -13 2q-13 0 -30 -11t-23 -31l-22 -74z
M313 -105v75h75v-75h-75z" />
    <glyph glyph-name="uniFE9F" unicode="&#x62c;" horiz-adv-x="675" arabic-form="initial" 
d="M-10 61q4 4 10 4h157q50 0 95.5 17.5t82.5 49.5l99 88q5 5 12 10t12 8l-252 74q-8 2 -15 2q-14 0 -31 -10.5t-23 -31.5l-22 -73l-48 13l22 75q6 22 20.5 39t33.5 27.5t33.5 12.5t20.5 2q16 0 31 -5l382 -115l-15 -51l-38 11q-14 4 -26 4q-2 0 -10 -0.5t-19 -6
t-20.5 -13.5t-19.5 -17l-117 -104q-39 -35 -87.5 -53t-100.5 -18h-157q-14 0 -14 14v37q0 5 4 10zM274 -195v75h75v-75h-75z" />
    <glyph glyph-name="uniFEA0" unicode="&#x62c;" horiz-adv-x="685" arabic-form="medial" 
d="M-14 14v37q0 5 4 9.5t10 4.5h157q50 0 95.5 17.5t82.5 49.5l99 88q5 5 12 10.5t12 7.5l-252 74q-8 2 -15 2q-14 0 -31 -10.5t-23 -31.5l-22 -73l-48 13l22 75q6 22 20.5 39t33.5 27.5t33.5 12.5t20.5 2q16 0 31 -5l382 -115l-15 -51l-38 11q-15 5 -26 5q-1 0 -8 -0.5
t-16.5 -4.5t-18 -10.5t-16.5 -13.5v-38q0 -34 23.5 -57.5t57.5 -23.5h132q6 0 10 -4.5t4 -9.5v-37q0 -14 -14 -14h-122q-30 0 -55 11t-43.5 30.5t-29 45t-11.5 55.5l-79 -71q-39 -35 -87.5 -53t-100.5 -18h-157q-14 0 -14 14zM275 -120h75v-75h-75v75z" />
    <glyph glyph-name="uniFEA2" unicode="&#x62d;" horiz-adv-x="682" arabic-form="final" 
d="M80 236l22 76q7 25 23 42t35.5 26t32.5 10t18 2q15 -1 29 -5l355 -107l-17 -50l-53 16q-7 3 -15 3q-7 0 -18 -3.5t-23 -12.5v-86q0 -35 24 -58.5t57 -23.5h133q14 0 14 -14v-37q0 -14 -14 -14h-123q-30 0 -55.5 11.5t-44 31t-29 46.5t-10.5 57v52l-202 -149
q-32 -24 -50 -57.5t-18 -71.5v-4q0 -36 14 -68t38 -56t56 -38t68 -14h226v-65h-226q-48 0 -90.5 18t-74 49.5t-50 73.5t-18.5 90q0 57 26 106.5t71 82.5q22 16 52 38t61.5 45t60.5 44.5t49 35.5q5 4 10.5 7.5t11.5 6.5l-220 65q-6 2 -13 2q-13 0 -30 -11t-23 -31l-22 -74z
" />
    <glyph glyph-name="uniFEA3" unicode="&#x62d;" horiz-adv-x="675" arabic-form="initial" 
d="M-10 61q4 4 10 4h157q50 0 95.5 17.5t82.5 49.5l99 88q5 5 12 10t12 8l-252 74q-8 2 -15 2q-14 0 -31 -10.5t-23 -31.5l-22 -73l-48 13l22 75q6 22 20.5 39t33.5 27.5t33.5 12.5t20.5 2q16 0 31 -5l382 -115l-15 -51l-38 11q-14 4 -26 4q-2 0 -10 -0.5t-19 -6
t-20.5 -13.5t-19.5 -17l-117 -104q-39 -35 -87.5 -53t-100.5 -18h-157q-14 0 -14 14v37q0 5 4 10z" />
    <glyph glyph-name="uniFEA4" unicode="&#x62d;" horiz-adv-x="685" arabic-form="medial" 
d="M-14 14v37q0 5 4 9.5t10 4.5h157q50 0 95.5 17.5t82.5 49.5l99 88q5 5 12 10.5t12 7.5l-252 74q-8 2 -15 2q-14 0 -31 -10.5t-23 -31.5l-22 -73l-48 13l22 75q6 22 20.5 39t33.5 27.5t33.5 12.5t20.5 2q16 0 31 -5l382 -115l-15 -51l-38 11q-15 5 -26 5q-1 0 -8 -0.5
t-16.5 -4.5t-18 -10.5t-16.5 -13.5v-38q0 -34 23.5 -57.5t57.5 -23.5h132q6 0 10 -4.5t4 -9.5v-37q0 -14 -14 -14h-122q-30 0 -55 11t-43.5 30.5t-29 45t-11.5 55.5l-79 -71q-39 -35 -87.5 -53t-100.5 -18h-157q-14 0 -14 14z" />
    <glyph glyph-name="uniFEA6" unicode="&#x62e;" horiz-adv-x="682" arabic-form="final" 
d="M102 312q7 25 23 42t35.5 26t32.5 10t18 2q15 -1 29 -5l355 -107l-17 -50l-53 16q-7 3 -15 3q-7 0 -18 -3.5t-23 -12.5v-86q0 -35 24 -58.5t57 -23.5h133q14 0 14 -14v-37q0 -14 -14 -14h-123q-30 0 -55.5 11.5t-44 31t-29 46.5t-10.5 57v52l-202 -149q-32 -24 -50 -57.5
t-18 -71.5v-4q0 -36 14 -68t38 -56t56 -38t68 -14h226v-65h-226q-48 0 -90.5 18t-74 49.5t-50 73.5t-18.5 90q0 57 26 106.5t71 82.5q22 16 52 38t61.5 45t60.5 44.5t49 35.5q5 4 10.5 7.5t11.5 6.5l-220 65q-6 2 -13 2q-13 0 -30 -11t-23 -31l-22 -74l-48 13zM166 518v75
h75v-75h-75z" />
    <glyph glyph-name="uniFEA7" unicode="&#x62e;" horiz-adv-x="675" arabic-form="initial" 
d="M-10 61q4 4 10 4h157q50 0 95.5 17.5t82.5 49.5l99 88q5 5 12 10t12 8l-252 74q-8 2 -15 2q-14 0 -31 -10.5t-23 -31.5l-22 -73l-48 13l22 75q6 22 20.5 39t33.5 27.5t33.5 12.5t20.5 2q16 0 31 -5l382 -115l-15 -51l-38 11q-14 4 -26 4q-2 0 -10 -0.5t-19 -6
t-20.5 -13.5t-19.5 -17l-117 -104q-39 -35 -87.5 -53t-100.5 -18h-157q-14 0 -14 14v37q0 5 4 10zM152 568h75v-75h-75v75z" />
    <glyph glyph-name="uniFEA8" unicode="&#x62e;" horiz-adv-x="685" arabic-form="medial" 
d="M-14 51q0 5 4 9.5t10 4.5h157q50 0 95.5 17.5t82.5 49.5l99 88q5 5 12 10.5t12 7.5l-252 74q-8 2 -15 2q-14 0 -31 -10.5t-23 -31.5l-22 -73l-48 13l22 75q6 22 20.5 39t33.5 27.5t33.5 12.5t20.5 2q16 0 31 -5l382 -115l-15 -51l-38 11q-15 5 -26 5q-1 0 -8 -0.5
t-16.5 -4.5t-18 -10.5t-16.5 -13.5v-38q0 -34 23.5 -57.5t57.5 -23.5h132q6 0 10 -4.5t4 -9.5v-37q0 -14 -14 -14h-122q-30 0 -55 11t-43.5 30.5t-29 45t-11.5 55.5l-79 -71q-39 -35 -87.5 -53t-100.5 -18h-157q-14 0 -14 14v37zM152 568h75v-75h-75v75z" />
    <glyph glyph-name="uniFEAA" unicode="&#x62f;" horiz-adv-x="579" arabic-form="final" 
d="M80 198h47v-83q0 -20 11.5 -35t34.5 -15h145q23 0 41.5 10t31 26.5t15.5 31t3 22.5q0 12 -3 24l-72 263l52 19l92 -332q8 -28 30.5 -46t51.5 -18h19q6 0 10 -4.5t4 -10.5v-36q0 -14 -14 -14h-19q-38 0 -69 20.5t-49 61.5q-18 -40 -52 -61t-72 -21h-139q-42 0 -70.5 29
t-28.5 71v98z" />
    <glyph glyph-name="uniFEAC" unicode="&#x630;" horiz-adv-x="579" arabic-form="final" 
d="M80 198h47v-83q0 -20 11.5 -35t34.5 -15h145q23 0 41.5 10t31 26.5t15.5 31t3 22.5q0 12 -3 24l-72 263l52 19l92 -332q8 -28 30.5 -46t51.5 -18h19q6 0 10 -4.5t4 -10.5v-36q0 -14 -14 -14h-19q-38 0 -69 20.5t-49 61.5q-18 -40 -52 -61t-72 -21h-139q-42 0 -70.5 29
t-28.5 71v98zM304 662h75v-75h-75v75z" />
    <glyph glyph-name="uniFEAE" unicode="&#x631;" horiz-adv-x="418" arabic-form="final" 
d="M-40 -191l113 38q45 15 72.5 53t27.5 86v306h55v-147q0 -33 23.5 -56.5t57.5 -23.5h109q6 0 10 -4.5t4 -10.5v-36q0 -14 -14 -14h-99q-27 0 -51 11.5t-40 31.5v-53q0 -34 -10.5 -65.5t-29.5 -58t-45.5 -46.5t-58.5 -31l-106 -37z" />
    <glyph glyph-name="uniFEB0" unicode="&#x632;" horiz-adv-x="418" arabic-form="final" 
d="M-40 -191l113 38q45 15 72.5 53t27.5 86v306h55v-147q0 -33 23.5 -56.5t57.5 -23.5h109q6 0 10 -4.5t4 -10.5v-36q0 -14 -14 -14h-99q-27 0 -51 11.5t-40 31.5v-53q0 -34 -10.5 -65.5t-29.5 -58t-45.5 -46.5t-58.5 -31l-106 -37zM163 419v75h75v-75h-75z" />
    <glyph glyph-name="uniFEB2" unicode="&#x633;" horiz-adv-x="1197" arabic-form="final" 
d="M135 277l1 -249q0 -28 10.5 -53t29.5 -43.5t44 -29.5t53 -11h170q24 0 45 9t36.5 25t24.5 37t9 45v287h55v-148q0 -34 24.5 -57.5t57.5 -23.5h14q32 0 56 20t30 51l30 150l54 -9l-25 -125q-1 -5 -1 -9q0 -12 5 -25.5t15.5 -25.5t25 -19t32.5 -7h10q33 0 56.5 23.5
t23.5 56.5v178h55v-184q0 -14 6.5 -27.5t18 -24t26 -17t30.5 -6.5h40q14 0 14 -14v-36q0 -6 -4 -10.5t-10 -4.5h-30q-37 0 -67.5 17.5t-50.5 50.5q-20 -33 -51 -50.5t-66 -17.5t-63.5 17.5t-45.5 50.5q-20 -34 -50 -51t-65 -17q-26 0 -50.5 10t-43.5 33v-47q0 -35 -13.5 -66
t-36.5 -54t-54 -36.5t-66 -13.5h-171q-40 0 -75 15t-61.5 41t-41.5 61t-15 75v259h55z" />
    <glyph glyph-name="uniFEB3" unicode="&#x633;" horiz-adv-x="699" arabic-form="initial" 
d="M0 65h39q33 0 56.5 23.5t23.5 57.5v148h55v-150q0 -33 23.5 -56t55.5 -23h14q32 0 56 20t30 51l30 150l54 -9l-25 -125q-1 -7 -1 -13q0 -11 4 -23.5t14.5 -24.5t26 -19t33.5 -7h90v258h55v-244q0 -37 -21 -58t-58 -21h-67q-34 0 -64 18t-44 50q-20 -34 -51 -51t-66 -17
q-36 0 -66.5 17.5t-50.5 50.5q-19 -33 -49.5 -50.5t-67.5 -17.5h-29q-14 0 -14 14v37q0 14 14 14z" />
    <glyph glyph-name="uniFEB4" unicode="&#x633;" horiz-adv-x="758" arabic-form="medial" 
d="M-14 14v37q0 14 14 14h40q33 0 57 24t24 57v148h55v-150q0 -33 24 -56t56 -23h14q32 0 56.5 20t30.5 51l29 150l55 -9l-25 -125q-1 -7 -1 -13q0 -11 4 -23.5t15 -24.5t27.5 -19t36.5 -7h4q33 0 56.5 24t23.5 57v178h55v-184q3 -32 26 -53.5t55 -21.5h40q5 0 9.5 -4
t4.5 -10v-37q0 -5 -4 -9.5t-10 -4.5h-30q-37 0 -67.5 17.5t-50.5 51.5q-20 -34 -51 -51.5t-67 -17.5q-35 0 -64.5 17t-43.5 52q-20 -35 -50.5 -52t-65.5 -17q-37 0 -68 17.5t-51 51.5q-20 -34 -51 -51.5t-68 -17.5h-30q-6 0 -10 4.5t-4 9.5z" />
    <glyph glyph-name="uniFEB6" unicode="&#x634;" horiz-adv-x="1197" arabic-form="final" 
d="M80 277h55l1 -249q0 -28 10.5 -53t29.5 -43.5t44 -29.5t53 -11h170q24 0 45 9t36.5 25t24.5 37t9 45v287h55v-148q0 -34 24.5 -57.5t57.5 -23.5h14q32 0 56 20t30 51l30 150l54 -9l-25 -125q-1 -5 -1 -9q0 -12 5 -25.5t15.5 -25.5t25 -19t32.5 -7h10q33 0 56.5 23.5
t23.5 56.5v178h55v-184q0 -14 6.5 -27.5t18 -24t26 -17t30.5 -6.5h40q14 0 14 -14v-36q0 -6 -4 -10.5t-10 -4.5h-30q-37 0 -67.5 17.5t-50.5 50.5q-20 -33 -51 -50.5t-66 -17.5t-63.5 17.5t-45.5 50.5q-20 -34 -50 -51t-65 -17q-26 0 -50.5 10t-43.5 33v-47q0 -35 -13.5 -66
t-36.5 -54t-54 -36.5t-66 -13.5h-171q-40 0 -75 15t-61.5 41t-41.5 61t-15 75v259zM724 412v75h75v-75h-75zM860 599v-75h-75v75h75zM851 412v75h75v-75h-75z" />
    <glyph glyph-name="uniFEB7" unicode="&#x634;" horiz-adv-x="702" arabic-form="initial" 
d="M0 65h40q33 0 57 23.5t24 57.5v148h55v-150q0 -33 23.5 -56t56.5 -23h14q32 0 56 20t30 51l30 150l54 -9l-25 -125q-2 -8 -2 -16q0 -9 4 -21t15 -24t26.5 -19t33.5 -7h90v258h55v-244q0 -37 -21 -58t-58 -21h-67q-34 0 -64 18t-44 50q-20 -34 -51 -51t-66 -17
q-37 0 -67.5 17.5t-50.5 50.5q-20 -33 -50.5 -50.5t-67.5 -17.5h-30q-14 0 -14 14v37q0 14 14 14zM285 487h75v-75h-75v75zM346 599h75v-75h-75v75zM412 412v75h75v-75h-75z" />
    <glyph glyph-name="uniFEB8" unicode="&#x634;" horiz-adv-x="758" arabic-form="medial" 
d="M-14 51q0 14 14 14h40q33 0 57 24t24 57v148h55v-150q0 -33 24 -56t56 -23h14q32 0 56.5 20t30.5 51l29 150l55 -9l-25 -125q-2 -8 -2 -16q0 -27 22 -49t62 -22h4q33 0 56.5 24t23.5 57v178h55v-184q3 -32 26 -53.5t55 -21.5h40q5 0 9.5 -4t4.5 -10v-37q0 -5 -4 -9.5
t-10 -4.5h-30q-37 0 -67.5 17.5t-50.5 51.5q-20 -34 -51 -51.5t-67 -17.5q-35 0 -64.5 17t-43.5 52q-20 -35 -50.5 -52t-65.5 -17q-37 0 -68 17.5t-51 51.5q-20 -34 -51 -51.5t-68 -17.5h-30q-6 0 -10 4.5t-4 9.5v37zM286 488h75v-75h-75v75zM421 600v-75h-75v75h75z
M413 413v75h75v-75h-75z" />
    <glyph glyph-name="uniFEBA" unicode="&#x635;" horiz-adv-x="1259" arabic-form="final" 
d="M80 18v259h55v-249q0 -28 11 -53t29.5 -43.5t43.5 -29.5t53 -11h172q24 0 45 9t37 25t25 37t9 45v287h55v-141q0 -18 4.5 -30t9.5 -20q6 -8 14 -13l170 187q27 29 64 45t78 16h61q27 0 51 -10.5t42 -28.5t28.5 -42t10.5 -51v-60q0 -34 23.5 -57.5t57.5 -23.5h30
q5 0 9.5 -4t4.5 -10v-37q0 -5 -4 -9.5t-10 -4.5h-20q-36 0 -66 17.5t-49 49.5q-37 -67 -108 -67h-282q-29 0 -49 3t-33.5 8t-22 12t-14.5 15v-42q0 -35 -13.5 -66t-36.5 -54t-54.5 -36.5t-66.5 -13.5h-172q-40 0 -75 15t-61 41t-41 61t-15 75zM1022 65q29 0 50 21t21 50v66
q0 32 -22 54t-54 22h-62q-32 0 -60.5 -13t-50.5 -36l-152 -164h330z" />
    <glyph glyph-name="uniFEBB" unicode="&#x635;" horiz-adv-x="774" arabic-form="initial" 
d="M0 65h40q34 0 57.5 23.5t23.5 56.5v131h55v-122q0 -19 4.5 -31t9.5 -19q6 -9 14 -13l170 185q27 29 64 45.5t78 16.5h61q27 0 51 -10.5t42 -28.5t28.5 -42t10.5 -51v-74q0 -27 -10.5 -51t-28.5 -42t-42 -28.5t-51 -10.5h-306q-18 0 -37.5 4.5t-37 13t-30.5 21.5t-19 29
q-20 -33 -50 -50.5t-67 -17.5h-30q-6 0 -10 4.5t-4 10.5v36q0 14 14 14zM253 65h330q29 0 50 19.5t21 51.5v66q0 32 -22 54t-54 22h-62q-35 0 -62 -13t-49 -36z" />
    <glyph glyph-name="uniFEBC" unicode="&#x635;" horiz-adv-x="819" arabic-form="medial" 
d="M-14 51q0 6 4.5 10t9.5 4h40q34 0 57.5 23.5t23.5 56.5v131h55v-133q0 -17 3.5 -27.5t8.5 -16.5q5 -8 12 -11l174 188q27 29 63.5 45.5t77.5 16.5h62q27 0 51 -10.5t42 -28.5t28.5 -42t10.5 -51v-67q0 -32 24 -53t56 -21h30q14 0 14 -14v-37q0 -5 -4 -9.5t-10 -4.5h-20
q-36 0 -66.5 17t-48.5 50q-37 -67 -107 -67h-310q-42 0 -74 15t-48 53q-42 -68 -115 -68h-30q-5 0 -9.5 4.5t-4.5 10.5v36zM582 65q30 0 51 21t21 50v66q0 32 -22.5 54t-54.5 22h-62q-32 0 -61 -13t-51 -36l-154 -164h333z" />
    <glyph glyph-name="uniFEBE" unicode="&#x636;" horiz-adv-x="1258" arabic-form="final" 
d="M79 18v259h55v-249q0 -28 11 -53t29.5 -43.5t43.5 -29.5t53 -11h172q24 0 45 9t37 25t25 37t9 45v287h55v-141q0 -18 4.5 -30t9.5 -20q6 -8 14 -13l170 187q27 29 64 45t78 16h61q27 0 51 -10.5t42 -28.5t28.5 -42t10.5 -51v-60q0 -34 23.5 -57.5t57.5 -23.5h30
q5 0 9.5 -4t4.5 -10v-37q0 -5 -4 -9.5t-10 -4.5h-20q-36 0 -66 17.5t-49 49.5q-37 -67 -108 -67h-282q-29 0 -49 3t-33.5 8t-22 12t-14.5 15v-42q0 -35 -13.5 -66t-36.5 -54t-54.5 -36.5t-66.5 -13.5h-172q-40 0 -75 15t-61 41t-41 61t-15 75zM1021 65q29 0 50 21t21 50v66
q0 32 -22 54t-54 22h-62q-32 0 -60.5 -13t-50.5 -36l-152 -164h330zM922 465v75h75v-75h-75z" />
    <glyph glyph-name="uniFEBF" unicode="&#x636;" horiz-adv-x="774" arabic-form="initial" 
d="M-14 15v36q0 14 14 14h40q34 0 57.5 23.5t23.5 56.5v131h55v-122q0 -19 4.5 -31t9.5 -19q6 -9 14 -13l170 185q27 29 64 45.5t78 16.5h61q27 0 51 -10.5t42 -28.5t28.5 -42t10.5 -51v-74q0 -27 -10.5 -51t-28.5 -42t-42 -28.5t-51 -10.5h-306q-18 0 -37.5 4.5t-37 13
t-30.5 21.5t-19 29q-20 -33 -50 -50.5t-67 -17.5h-30q-6 0 -10 4.5t-4 10.5zM253 65h330q29 0 50 19.5t21 51.5v66q0 32 -22 54t-54 22h-62q-35 0 -62 -13t-49 -36zM559 540v-75h-75v75h75z" />
    <glyph glyph-name="uniFEC0" unicode="&#x636;" horiz-adv-x="819" arabic-form="medial" 
d="M-14 51q0 6 4.5 10t9.5 4h40q34 0 57.5 23.5t23.5 56.5v131h55v-133q0 -17 3.5 -27.5t8.5 -16.5q5 -8 12 -11l174 188q27 29 63.5 45.5t77.5 16.5h62q27 0 51 -10.5t42 -28.5t28.5 -42t10.5 -51v-67q0 -32 24 -53t56 -21h30q14 0 14 -14v-37q0 -5 -4 -9.5t-10 -4.5h-20
q-36 0 -66.5 17t-48.5 50q-37 -67 -107 -67h-310q-42 0 -74 15t-48 53q-42 -68 -115 -68h-30q-5 0 -9.5 4.5t-4.5 10.5v36zM249 65h333q30 0 51 21t21 50v66q0 32 -22.5 54t-54.5 22h-62q-32 0 -61 -13t-51 -36zM483 540h75v-75h-75v75z" />
    <glyph glyph-name="uniFEC2" unicode="&#x637;" horiz-adv-x="777" arabic-form="final" 
d="M80 0v65h54l114 122v463h55v-373q0 -14 -2 -24.5t-3 -10.5q1 1 5 5.5t9.5 10t10.5 11t8 8.5q28 29 64 45t77 16h62q27 0 51 -10.5t42 -28t28.5 -41.5t10.5 -51v-61q0 -34 23.5 -57.5t57.5 -23.5h30q5 0 9.5 -4t4.5 -10v-37q0 -5 -4.5 -9.5t-9.5 -4.5h-20q-36 0 -66.5 17
t-48.5 49q-18 -32 -46 -49t-63 -17h-453zM206 65h333q30 0 51 21.5t21 50.5v65q0 32 -22.5 54t-54.5 22h-62q-32 0 -61 -12.5t-51 -35.5z" />
    <glyph glyph-name="uniFEC3" unicode="&#x637;" horiz-adv-x="660" arabic-form="initial" 
d="M-14 51q0 6 4.5 10t9.5 4h64l113 122v463h55v-373q0 -7 -0.5 -13.5t-1.5 -11.5q-1 -6 -2 -11q1 2 6 7t10 11l10 11l6 6q28 30 64.5 46t77.5 16h61q27 0 51 -10.5t42 -28.5t28.5 -42t10.5 -51v-74q0 -27 -10.5 -51t-28.5 -42t-42 -28.5t-51 -10.5h-463q-5 0 -9.5 4.5
t-4.5 10.5v36zM469 65q29 0 50 21t21 50v66q0 32 -22 54t-54 22h-62q-32 0 -61 -13t-51 -36l-155 -164h334z" />
    <glyph glyph-name="uniFEC4" unicode="&#x637;" horiz-adv-x="706" arabic-form="medial" 
d="M0 65h63l114 122v463h55v-373q0 -14 -2 -24q-2 -9 -3 -10q0 -1 -227 -243l227 243q2 1 5 5l9.5 9.5t10.5 11t8 8.5q28 29 64 45t77 16h62q27 0 51 -10.5t42 -28t28.5 -41.5t10.5 -51v-61q0 -34 23.5 -57.5t57.5 -23.5h30q5 0 9.5 -4t4.5 -10v-37q0 -5 -4.5 -9.5
t-9.5 -4.5h-20q-36 0 -66.5 17t-48.5 49q-37 -66 -109 -66h-462q-14 0 -14 14v37q0 14 14 14zM468 65q30 0 51 21.5t21 50.5v65q0 32 -22.5 54t-54.5 22h-62q-32 0 -61 -12.5t-51 -35.5l-154 -165h333z" />
    <glyph glyph-name="uniFEC6" unicode="&#x638;" horiz-adv-x="777" arabic-form="final" 
d="M80 0v65h54l114 122v463h55v-373q0 -14 -2 -24.5t-3 -10.5q1 1 5 5.5t9.5 10t10.5 11t8 8.5q28 29 64 45t77 16h62q27 0 51 -10.5t42 -28t28.5 -41.5t10.5 -51v-61q0 -34 23.5 -57.5t57.5 -23.5h30q5 0 9.5 -4t4.5 -10v-37q0 -5 -4.5 -9.5t-9.5 -4.5h-20q-36 0 -66.5 17
t-48.5 49q-18 -32 -46 -49t-63 -17h-453zM206 65h333q30 0 51 21.5t21 50.5v65q0 32 -22.5 54t-54.5 22h-62q-32 0 -61 -12.5t-51 -35.5zM452 465v75h75v-75h-75z" />
    <glyph glyph-name="uniFEC7" unicode="&#x638;" horiz-adv-x="659" arabic-form="initial" 
d="M-14 14v37q0 14 14 14h63l113 122v463h55v-373q0 -7 -0.5 -13.5t-1.5 -11.5q-1 -6 -2 -11q1 2 6 7t10 11t10 11l6 6q28 30 64.5 46t77.5 16h61q27 0 51 -10.5t42 -28.5t28.5 -42t10.5 -51v-74q0 -27 -10.5 -51t-28.5 -42t-42 -28.5t-51 -10.5h-462q-14 0 -14 14zM468 65
q29 0 50 21t21 50v66q0 32 -22 54t-54 22h-62q-32 0 -61 -13t-51 -36l-155 -164h334zM375 540h75v-75h-75v75z" />
    <glyph glyph-name="uniFEC8" unicode="&#x638;" horiz-adv-x="706" arabic-form="medial" 
d="M0 65h63l114 122v463h55v-373q0 -14 -2 -24q-2 -9 -3 -10q0 -1 -227 -243l227 243q2 1 5 5l9.5 9.5t10.5 11t8 8.5q28 29 64 45t77 16h62q27 0 51 -10.5t42 -28t28.5 -41.5t10.5 -51v-61q0 -34 23.5 -57.5t57.5 -23.5h30q5 0 9.5 -4t4.5 -10v-37q0 -5 -4.5 -9.5
t-9.5 -4.5h-20q-36 0 -66.5 17t-48.5 49q-37 -66 -109 -66h-462q-14 0 -14 14v37q0 14 14 14zM135 65h333q30 0 51 21.5t21 50.5v65q0 32 -22.5 54t-54.5 22h-62q-32 0 -61 -12.5t-51 -35.5zM450 540v-75h-75v75h75z" />
    <glyph glyph-name="uniFECA" unicode="&#x639;" horiz-adv-x="589" arabic-form="final" 
d="M80 -163q0 54 24 103t72 83l80 57l-142 97v117q0 35 21.5 56.5t56.5 21.5h172q27 0 50.5 -9.5t41.5 -26.5t28 -39t10 -48v-24q0 -20 -9.5 -38.5t-27.5 -31.5l-94 -66q29 -12 63 -18t66 -6h97q6 0 10 -4.5t4 -9.5v-38q0 -13 -14 -13h-97q-53 0 -99.5 12.5t-88.5 35.5
l-100 -71q-33 -24 -51.5 -58t-18.5 -76q0 -36 14 -68t38.5 -55.5t57 -37.5t68.5 -14h234v-65h-234q-48 0 -90 18.5t-73.5 50t-50 74t-18.5 91.5zM169 310v-99l139 -95l129 95v34q0 28 -21 46.5t-50 18.5h-197z" />
    <glyph glyph-name="uniFECB" unicode="&#x639;" horiz-adv-x="463" arabic-form="initial" 
d="M-10 61q4 4 10 4h126q-6 12 -9 27l-25 134q-2 11 -2 22q0 17 6 38t22.5 41.5t41 33t53.5 12.5h147v-60h-153q-30 0 -46.5 -21t-16.5 -43q0 -6 1 -12l32 -170l212 22l9 -56l-137 -18q-114 -15 -229 -15h-32q-14 0 -14 14v37q0 5 4 10z" />
    <glyph glyph-name="uniFECC" unicode="&#x639;" horiz-adv-x="580" arabic-form="medial" 
d="M-14 51q0 14 14 14h116q30 0 60.5 5.5t59.5 16.5l-132 90v120q0 33 20.5 53.5t53.5 20.5h184q25 0 47.5 -9.5t39 -26t26.5 -38.5t10 -48v-24q0 -20 -9.5 -38.5t-26.5 -30.5l-97 -67q29 -11 59.5 -17.5t61.5 -6.5h107q14 0 14 -14v-36q0 -6 -4 -10.5t-10 -4.5h-107
q-48 0 -93.5 13t-87.5 42q-41 -28 -86.5 -41.5t-93.5 -13.5h-112q-6 0 -10 4.5t-4 10.5v36zM159 211q17 -11 40.5 -27t45.5 -31q25 -18 52 -36l133 95v33q0 29 -19 47.5t-47 18.5h-205v-100z" />
    <glyph glyph-name="uniFECE" unicode="&#x63a;" horiz-adv-x="589" arabic-form="final" 
d="M104 -60q24 49 72 83l80 57l-142 97v117q0 35 21.5 56.5t56.5 21.5h172q27 0 50.5 -9.5t41.5 -26.5t28 -39t10 -48v-24q0 -20 -9.5 -38.5t-27.5 -31.5l-94 -66q29 -12 63 -18t66 -6h97q6 0 10 -4.5t4 -9.5v-38q0 -13 -14 -13h-97q-53 0 -99.5 12.5t-88.5 35.5l-100 -71
q-33 -24 -51.5 -58t-18.5 -76q0 -36 14 -68t38.5 -55.5t57 -37.5t68.5 -14h234v-65h-234q-48 0 -90 18.5t-73.5 50t-50 74t-18.5 91.5q0 54 24 103zM169 310v-99l139 -95l129 95v34q0 28 -21 46.5t-50 18.5h-197zM313 572v-75h-75v75h75z" />
    <glyph glyph-name="uniFECF" unicode="&#x63a;" horiz-adv-x="463" arabic-form="initial" 
d="M-10 61q4 4 10 4h126q-6 12 -9 27l-25 134q-2 11 -2 22q0 17 6 38t22.5 41.5t41 33t53.5 12.5h147v-60h-153q-30 0 -46.5 -21t-16.5 -43q0 -6 1 -12l32 -170l212 22l9 -56l-137 -18q-114 -15 -229 -15h-32q-14 0 -14 14v37q0 5 4 10zM213 530h75v-75h-75v75z" />
    <glyph glyph-name="uniFED0" unicode="&#x63a;" horiz-adv-x="580" arabic-form="medial" 
d="M-14 15v36q0 14 14 14h126q30 0 60.5 5.5t59.5 16.5l-132 90v120q0 33 20.5 53.5t53.5 20.5h184q25 0 47.5 -9.5t39 -26t26.5 -38.5t10 -48v-24q0 -20 -9.5 -38.5t-26.5 -30.5l-97 -67q29 -11 59.5 -17.5t61.5 -6.5h97q14 0 14 -14v-36q0 -6 -4 -10.5t-10 -4.5h-97
q-48 0 -93.5 13t-87.5 41q-41 -27 -86.5 -40.5t-93.5 -13.5h-122q-6 0 -10 4.5t-4 10.5zM169 211q17 -11 40.5 -27t45.5 -31q25 -18 52 -36l133 95v33q0 29 -19 47.5t-47 18.5h-205v-100zM331 573v-75h-75v75h75z" />
    <glyph glyph-name="uniFED2" unicode="&#x641;" horiz-adv-x="919" arabic-form="final" 
d="M80 174v146h55v-146q0 -48 30 -78.5t80 -30.5h357q7 0 15 1q-34 25 -54.5 57t-20.5 71v30q0 32 12.5 60.5t33.5 50t49.5 34t60.5 12.5h11q32 0 60.5 -12.5t49.5 -34t33.5 -50t12.5 -60.5v-30q0 -39 -20.5 -71t-54.5 -57q8 -1 15 -1h114q6 0 10 -4.5t4 -9.5v-37
q0 -14 -14 -14h-80q-34 0 -64.5 4.5t-71.5 18.5q-40 -14 -70.5 -18.5t-64.5 -4.5h-313q-39 0 -71.5 13.5t-55.5 37t-35.5 55t-12.5 68.5zM628 125q30 -30 75 -53q46 21 76.5 52.5t30.5 60.5v36q0 21 -8 39t-21.5 31.5t-32 21.5t-39.5 8h-11q-21 0 -39.5 -8t-32 -21.5
t-21.5 -31.5t-8 -39v-36q0 -31 31 -60zM741 582v-75h-75v75h75z" />
    <glyph glyph-name="uniFED3" unicode="&#x641;" horiz-adv-x="444" arabic-form="initial" 
d="M-11 61q4 4 11 4h232q36 0 63.5 19.5t27.5 67.5v12q-14 -7 -34 -7h-110q-29 0 -53.5 12.5t-41.5 32.5t-22.5 41t-5.5 37q0 11 2 23l16 85q4 22 15 40t27.5 31.5t36.5 21t42 7.5h52q27 0 51 -10.5t42 -28.5t28.5 -42t10.5 -51v-210q0 -30 -11.5 -57t-31.5 -46.5t-47 -31
t-57 -11.5h-232q-14 0 -14 14v36q0 6 3 11zM126 245q19 -23 49 -23h149v135q0 29 -21 50t-51 21h-56q-26 0 -45.5 -16t-24.5 -42l-14 -73q-1 -6 -1 -12q0 -22 15 -40zM259 689v-75h-75v75h75z" />
    <glyph glyph-name="uniFED4" unicode="&#x641;" horiz-adv-x="431" arabic-form="medial" 
d="M-14 14v36q0 6 4 10.5t10 4.5h114q7 0 15 1q-34 25 -54.5 57t-20.5 71v30q0 32 12.5 60.5t33.5 50t49.5 34t60.5 12.5h11q32 0 60.5 -12.5t49.5 -34t33.5 -50t12.5 -60.5v-30q0 -39 -20.5 -71t-54.5 -57q7 -1 14 -1h115q7 0 10.5 -4.5t3.5 -10.5v-36q0 -6 -4.5 -10
t-9.5 -4h-80q-34 0 -69 5.5t-67 16.5q-32 -11 -66.5 -16.5t-69.5 -5.5h-79q-14 0 -14 14zM139 126q30 -29 76 -54q46 25 76.5 53.5t30.5 64.5v30q0 21 -8 39.5t-21.5 32t-32 21.5t-39.5 8h-12q-21 0 -39 -8t-31.5 -21.5t-21.5 -32t-8 -39.5v-30q0 -36 30 -64zM250 583v-75
h-75v75h75z" />
    <glyph glyph-name="uniFED6" unicode="&#x642;" horiz-adv-x="728" arabic-form="final" 
d="M80 -33v231h55v-220q0 -29 10.5 -54t29.5 -43.5t44 -29.5t53 -11h172q24 0 45 9t36.5 25t24.5 37t9 45v51q-4 -2 -10 -3q-5 -2 -10.5 -3t-13.5 -1h-110q-29 0 -53.5 12.5t-41.5 33t-22.5 41.5t-5.5 37q0 11 2 23l16 85q4 22 15 40t27.5 31.5t36.5 21t42 7.5h52
q27 0 51 -10.5t42 -28.5t28.5 -42t10.5 -51v-135h113q14 0 14 -14v-37q0 -5 -4 -9.5t-10 -4.5h-114v-54q0 -35 -13.5 -66.5t-36.5 -54.5t-54 -36.5t-66 -13.5h-172q-40 0 -75 15t-61 41t-41 61t-15 75zM349 113q4 -14 13 -24.5t21.5 -17t27.5 -6.5h149v136q0 29 -21 50
t-51 21h-56q-26 0 -45.5 -16t-24.5 -42l-14 -73q-1 -6 -1 -12q0 -9 2 -16zM483 533h75v-75h-75v75zM431 533v-75h-75v75h75z" />
    <glyph glyph-name="uniFED7" unicode="&#x642;" horiz-adv-x="444" arabic-form="initial" 
d="M-11 61q4 4 11 4h232q36 0 63.5 19.5t27.5 67.5v12q-14 -7 -34 -7h-110q-29 0 -53.5 12.5t-41.5 32.5t-22.5 41t-5.5 37q0 11 2 23l16 85q4 22 15 40t27.5 31.5t36.5 21t42 7.5h52q27 0 51 -10.5t42 -28.5t28.5 -42t10.5 -51v-210q0 -30 -11.5 -57t-31.5 -46.5t-47 -31
t-57 -11.5h-232q-14 0 -14 14v36q0 6 3 11zM126 245q19 -23 49 -23h149v135q0 29 -21 50t-51 21h-56q-26 0 -45.5 -16t-24.5 -42l-14 -73q-1 -6 -1 -12q0 -22 15 -40zM323 690v-75h-75v75h75zM121 690h75v-75h-75v75z" />
    <glyph glyph-name="uniFED8" unicode="&#x642;" horiz-adv-x="431" arabic-form="medial" 
d="M-10 61q4 4 10 4h114q7 0 15 1q-34 25 -54.5 57t-20.5 71v30q0 32 12.5 60.5t33.5 50t49.5 34t60.5 12.5h11q32 0 60.5 -12.5t49.5 -34t33.5 -50t12.5 -60.5v-30q0 -39 -20.5 -71t-54.5 -57q7 -1 14 -1h115q7 0 10.5 -4.5t3.5 -10.5v-36q0 -6 -4.5 -10t-9.5 -4h-80
q-34 0 -69 5.5t-67 16.5q-32 -11 -66.5 -16.5t-69.5 -5.5h-79q-14 0 -14 14v36q0 6 4 11zM109 220v-30q0 -36 30 -64.5t76 -53.5q46 25 76.5 53.5t30.5 64.5v30q0 21 -8 39.5t-21.5 32t-32 21.5t-39.5 8h-12q-21 0 -39 -8t-31.5 -21.5t-21.5 -32t-8 -39.5zM241 507v75h75
v-75h-75zM114 507v75h75v-75h-75z" />
    <glyph glyph-name="uniFEDA" unicode="&#x643;" horiz-adv-x="887" arabic-form="final" 
d="M80 320h55v-140q0 -24 9 -45t25 -36.5t37 -24.5t45 -9h390q33 0 57 23.5t24 57.5v504h55v-504q0 -34 23.5 -57.5t57.5 -23.5h29q14 0 14 -14v-37q0 -14 -14 -14h-19q-37 0 -67.5 18t-50.5 50q-20 -33 -51 -50.5t-68 -17.5h-380q-35 0 -66 13.5t-54.5 36.5t-37 54
t-13.5 66v150zM297 295l82 39q-1 0 -7 4t-11 15q0 1 -2.5 6.5t-5.5 12t-6 12.5t-5 9q-9 20 -9.5 30.5t-0.5 11.5q0 18 7 34.5t20.5 30t30.5 20.5l72 30l14 -35l-77 -35q-18 -8 -23.5 -23t-5.5 -24q0 -12 6 -23q2 -3 5.5 -10.5t8 -17t9.5 -19t8 -16.5l146 76l17 -35
l-255 -130z" />
    <glyph glyph-name="uniFEDB" unicode="&#x643;" horiz-adv-x="384" arabic-form="initial" 
d="M0 65h133q35 0 63.5 17.5t41.5 43.5t13 55q0 6 -2 27.5t-30 60.5l-157 218v51l296 152l26 -51l-267 -137l148 -203q38 -51 40.5 -82t2.5 -40q0 -43 -19 -82.5t-62.5 -67t-101.5 -27.5h-125q-14 0 -14 14v37q0 14 14 14z" />
    <glyph glyph-name="uniFEDC" unicode="&#x643;" horiz-adv-x="512" arabic-form="medial" 
d="M0 65h133q36 0 64 17.5t40.5 43.5t12.5 54q0 7 -2 29t-29 60l-157 217v52l296 152l26 -51l-267 -137l282 -381q19 -25 44 -40.5t57 -15.5h12q8 0 11 -5t3 -11v-35q0 -6 -4.5 -10t-9.5 -4h-12q-88 0 -147 87l-56 83v-10q0 -36 -14 -66t-39 -51t-56.5 -32t-62.5 -11h-125
q-14 0 -14 14v37q0 14 14 14z" />
    <glyph glyph-name="uniFEDE" unicode="&#x644;" horiz-adv-x="744" arabic-form="final" 
d="M80 248h55v-218q0 -28 10.5 -53.5t29.5 -44.5t44 -30t53 -11h171q24 0 45 9.5t37 25.5t25 37.5t9 45.5v641h55v-504q0 -34 23.5 -57.5t57.5 -23.5h49q7 0 10.5 -4.5t3.5 -9.5v-37q0 -14 -14 -14h-36q-25 0 -49.5 9t-44.5 34v-46q0 -36 -13.5 -67t-36.5 -54t-54 -36.5
t-67 -13.5h-171q-40 0 -75 15.5t-61 42t-41 61.5t-15 75v228z" />
    <glyph glyph-name="uniFEDF" unicode="&#x644;" horiz-adv-x="261" arabic-form="initial" 
d="M0 65h60q33 0 57 23.5t24 57.5v504h55v-504q0 -30 -11.5 -57t-31.5 -46.5t-46.5 -31t-56.5 -11.5h-50q-14 0 -14 14v37q0 14 14 14z" />
    <glyph glyph-name="uniFEE0" unicode="&#x644;" horiz-adv-x="332" arabic-form="medial" 
d="M0 65h61q33 0 57 23.5t24 56.5v505h55v-509q0 -16 6.5 -29.5t17.5 -24t25.5 -16.5t30.5 -6h55q7 0 10.5 -4.5t3.5 -10.5v-36q0 -14 -14 -14h-45q-37 0 -67.5 16.5t-50.5 44.5q-20 -28 -50.5 -44.5t-67.5 -16.5h-51q-14 0 -14 14v37q0 14 14 14z" />
    <glyph glyph-name="uniFEE2" unicode="&#x645;" horiz-adv-x="742" arabic-form="final" 
d="M80 192q0 30 11.5 57t31.5 47t46.5 31.5t56.5 11.5h216q27 0 51 -10.5t42 -28.5t28.5 -42t10.5 -51v-61q0 -34 24 -57.5t57 -23.5h87q14 0 14 -14v-37q0 -5 -4 -9.5t-10 -4.5h-77q-29 0 -57.5 12.5t-46.5 39.5q-5 -32 -22.5 -42t-43.5 -10h-126q-29 0 -53.5 12.5
t-41.5 32.5t-22.5 41.5t-5.5 37.5q0 11 2 23l24 132h-56q-17 0 -31.5 -7.5t-25.5 -19.5t-17.5 -27.5t-6.5 -32.5v-438h-55v438zM314 88q17 -23 51 -23h154v143q0 29 -21 50t-51 21h-120l-25 -139q-1 -7 -1 -13q0 -21 13 -39z" />
    <glyph glyph-name="uniFEE3" unicode="&#x645;" horiz-adv-x="511" arabic-form="initial" 
d="M-14 14v37q0 5 4 9.5t10 4.5h32q31 0 55.5 20t29.5 50l20 103q4 22 15 40t27.5 31.5t36.5 21t42 7.5h56q27 0 51 -10.5t42 -28t28.5 -41.5t10.5 -51v-128q0 -37 -21 -58t-59 -21h-125q-32 0 -59 16t-41 52q-17 -36 -47.5 -52t-63.5 -16h-30q-14 0 -14 14zM175 112
q4 -14 12.5 -24.5t21 -16.5t27.5 -6h155v142q0 30 -21 50.5t-51 20.5h-60q-26 0 -45.5 -16t-24.5 -41l-15 -81q-1 -6 -1 -12q0 -9 2 -16z" />
    <glyph glyph-name="uniFEE4" unicode="&#x645;" horiz-adv-x="557" arabic-form="medial" 
d="M-14 50q0 5 3.5 10t10.5 5h32q31 0 55 20t30 50l20 103q4 22 15 40t27.5 31.5t36.5 21t42 7.5h56q27 0 51 -10.5t42 -28t28.5 -41.5t10.5 -51v-61q0 -34 23.5 -57.5t57.5 -23.5h30q6 0 10 -4.5t4 -9.5v-37q0 -14 -14 -14h-20q-30 0 -57.5 12.5t-46.5 39.5
q-5 -33 -23 -42.5t-44 -9.5h-125q-32 0 -59 16t-41 52q-17 -36 -47.5 -52t-63.5 -16h-30q-14 0 -14 14v36zM175 112q4 -14 12.5 -24.5t21 -16.5t27.5 -6h155v142q0 30 -21 50.5t-51 20.5h-60q-26 0 -45.5 -16t-24.5 -41l-15 -81q-1 -6 -1 -12q0 -9 2 -16z" />
    <glyph glyph-name="uniFEE6" unicode="&#x646;" horiz-adv-x="755" arabic-form="final" 
d="M135 276v-249q0 -28 10.5 -53t29.5 -43.5t44 -29.5t53 -11h172q24 0 45 9t37 25t25 37t9 45v287h55v-145q0 -23 7.5 -39t20 -25.5t29 -14t33.5 -4.5h50q14 0 14 -14v-37q0 -5 -4 -9.5t-10 -4.5h-50q-26 0 -51 11.5t-39 31.5v-47q0 -36 -13.5 -67t-36.5 -54t-54.5 -36.5
t-66.5 -13.5h-172q-40 0 -75 15t-61 41t-41 61t-15 75v259h55zM385 369v-75h-75v75h75z" />
    <glyph glyph-name="uniFEE7" unicode="&#x646;" horiz-adv-x="311" arabic-form="initial" 
d="M-10 61q4 4 10 4h105q33 0 56.5 23.5t23.5 56.5v176h55v-176q0 -30 -11.5 -56.5t-31 -46t-46 -31t-56.5 -11.5h-95q-14 0 -14 14v36q0 6 4 11zM246 524v-75h-75v75h75z" />
    <glyph glyph-name="uniFEE8" unicode="&#x646;" horiz-adv-x="334" arabic-form="medial" 
d="M0 65h57q32 0 56 20t30 50l30 151l54 -9l-25 -126q-1 -6 -1 -13q0 -10 4 -22.5t14.5 -24.5t26 -19t33.5 -7h57q14 0 14 -14v-37q0 -14 -14 -14h-58q-17 0 -34 5t-32 14t-26 21.5t-15 27.5q-18 -30 -48.5 -49t-65.5 -19h-57q-14 0 -14 14v37q0 14 14 14zM135 488h75v-75
h-75v75z" />
    <glyph glyph-name="uniFEEA" unicode="&#x647;" horiz-adv-x="512" arabic-form="final" 
d="M112 327q32 38 83 51l141 37v84h55v-347q0 -18 7.5 -33.5t20 -27.5t29 -19t34.5 -7h30q14 0 14 -14v-37q0 -14 -14 -14h-30q-45 0 -81 25t-53 64q-8 -6 -17.5 -10t-20.5 -4h-147q-83 0 -83 84v66q0 63 32 102zM336 142v214l-131 -34q-16 -4 -29.5 -14t-22.5 -23
t-14 -28.5t-5 -31.5v-83h202z" />
    <glyph glyph-name="uniFEEB" unicode="&#x647;" horiz-adv-x="650" arabic-form="initial" 
d="M-14 15v35q0 7 4.5 11t9.5 4h109q-14 5 -23 24t-9 36q0 9 2 19l15 71q4 20 15 37.5t26 30t34 19.5t40 7h36q27 0 49.5 -10t39.5 -26.5t26.5 -39t9.5 -48.5v-91q0 -15 -3.5 -21.5t-3.5 -7.5h167v138q0 38 -19.5 62t-48.5 33l-318 98l15 56l312 -97q47 -15 80.5 -52.5
t33.5 -99.5v-120q0 -83 -84 -83h-147v38l-3 -5q-4 -6 -12.5 -13.5t-21.5 -13.5t-32 -6h-285q-8 0 -11 5t-3 10zM144 84q18 -20 46 -20h125v121q0 29 -19.5 48.5t-48.5 19.5h-38q-24 0 -42 -16t-23 -39l-13 -65q-1 -7 -1 -13q0 -21 14 -36z" />
    <glyph glyph-name="uniFEEC" unicode="&#x647;" horiz-adv-x="556" arabic-form="medial" 
d="M-14 51q0 6 4.5 10t9.5 4h99v130q0 27 10 51t28 42t42 28.5t52 10.5h38q22 0 42 -7.5t36 -21t27.5 -31.5t15.5 -40l15 -80q2 -12 2 -23q0 -16 -5.5 -37.5t-22.5 -41.5t-41.5 -32.5t-53.5 -12.5h-96q-9 0 -17.5 2t-16.5 5v-11q0 -57 22 -84.5t67 -36.5l81 -16l74 127
q46 79 143 79h15q6 0 10 -5t4 -11v-34q0 -6 -4 -10.5t-10 -4.5h-32q-32 0 -51.5 -13.5t-36.5 -41.5q-3 -5 -16 -27t-28.5 -47.5t-28 -46.5t-13.5 -23l-126 25q-60 12 -92 53t-33 121h-99q-5 0 -9.5 4.5t-4.5 10.5v36zM154 196v-131h134q30 0 47 20.5t17 42.5q0 6 -1 12
l-13 69q-5 26 -24.5 42t-45.5 16h-43q-30 0 -50.5 -21t-20.5 -50z" />
    <glyph glyph-name="uniFEEE" unicode="&#x648;" horiz-adv-x="481" arabic-form="final" 
d="M73 147l17 91q4 22 15 40t27.5 31.5t36.5 21t42 7.5h56q27 0 51 -10.5t42 -28t28.5 -41.5t10.5 -51v-142h82q6 0 10 -4.5t4 -9.5v-37q0 -14 -14 -14h-83v-10q0 -34 -10 -66t-29 -58.5t-45.5 -46.5t-58.5 -31l-107 -36l-18 57l113 38q45 15 72.5 52.5t27.5 85.5v22
q-14 -7 -34 -7h-115q-29 0 -53.5 12.5t-41.5 32.5t-22.5 41.5t-5.5 37.5q0 11 2 23zM128 112q4 -14 12.5 -24.5t21 -16.5t27.5 -6h155v142q0 30 -21 50.5t-51 20.5h-60q-26 0 -45.5 -16t-24.5 -41l-15 -81q-1 -6 -1 -12q0 -9 2 -16z" />
    <glyph glyph-name="uniFEF0" unicode="&#x649;" horiz-adv-x="734" arabic-form="final" 
d="M135 188v-221q0 -28 11 -53t29.5 -43.5t43.5 -29.5t53 -11h172q24 0 45 9t37 25t25 37t9 45v54h-184v65h358q5 0 9.5 -4t4.5 -10v-37q0 -6 -4.5 -10t-9.5 -4h-124q5 -12 5 -23v-41q0 -35 -13.5 -66.5t-36.5 -54.5t-54.5 -36.5t-66.5 -13.5h-172q-40 0 -75 15t-61 41
t-41 61t-15 75v231h55z" />
    <glyph glyph-name="uniFEF2" unicode="&#x64a;" horiz-adv-x="734" arabic-form="final" 
d="M80 188h55v-221q0 -28 11 -53t29.5 -43.5t43.5 -29.5t53 -11h172q24 0 45 9t37 25t25 37t9 45v54h-184v65h358q5 0 9.5 -4t4.5 -10v-37q0 -6 -4.5 -10t-9.5 -4h-124q5 -12 5 -23v-41q0 -35 -13.5 -66.5t-36.5 -54.5t-54.5 -36.5t-66.5 -13.5h-172q-40 0 -75 15t-61 41
t-41 61t-15 75v231zM374 -320h75v-75h-75v75zM322 -320v-75h-75v75h75z" />
    <glyph glyph-name="uniFEF3" unicode="&#x64a;" horiz-adv-x="320" arabic-form="initial" 
d="M-10 61q4 4 10 4h105q33 0 56.5 23.5t23.5 56.5v176h55v-176q0 -30 -11.5 -56.5t-31 -46t-46 -31t-56.5 -11.5h-95q-14 0 -14 14v36q0 6 4 11zM204 -120v-75h-75v75h75zM2 -120h75v-75h-75v75z" />
    <glyph glyph-name="uniFEF4" unicode="&#x64a;" horiz-adv-x="336" arabic-form="medial" 
d="M0 65h57q32 0 56 20t30 50l30 151l54 -9l-25 -126q-1 -6 -1 -13q0 -10 4 -22.5t14.5 -24.5t26 -19t33.5 -7h57q14 0 14 -14v-37q0 -14 -14 -14h-58q-17 0 -34 5t-32 14t-26 21.5t-15 27.5q-18 -30 -48.5 -49t-65.5 -19h-57q-14 0 -14 14v37q0 14 14 14zM270 -120v-75h-75
v75h75zM143 -120v-75h-75v75h75z" />
    <glyph glyph-name=".notdef" horiz-adv-x="250" 
 />
    <glyph glyph-name=".null" 
 />
    <glyph glyph-name=".null" 
 />
    <glyph glyph-name="uni000D" unicode="&#xd;" horiz-adv-x="250" 
 />
    <glyph glyph-name="space" unicode=" " horiz-adv-x="140" 
 />
    <glyph glyph-name="exclam" unicode="!" horiz-adv-x="229" 
d="M81 0v99h68v-99h-68zM83 224l-3 470h68l-4 -470h-61z" />
    <glyph glyph-name="quotedbl" unicode="&#x22;" horiz-adv-x="394" 
d="M80 694h66l-5 -219h-59zM248 694h65l-4 -219h-59z" />
    <glyph glyph-name="numbersign" unicode="#" horiz-adv-x="670" 
d="M194 0v178h-114v56h114v196h-114v56h114v181h60v-181h162v181h60v-181h114v-56h-114v-196h114v-56h-114v-178h-60v178h-162v-178h-60zM254 234h162v196h-162v-196z" />
    <glyph glyph-name="dollar" unicode="$" horiz-adv-x="583" 
d="M80 498q0 41 12 75t40 57t69 34t91 11q13 0 26 -1l17 122l41 1l-17 -125q8 -1 25.5 -4t37 -6t37.5 -6t25 -4l-5 -56q-10 1 -28 3t-37.5 4t-36.5 3.5t-25 2.5l-34 -250q54 -13 89.5 -27.5t56.5 -34t30 -45.5t9 -63q-1 -98 -55 -151t-160 -53h-17l-12 -107q-23 2 -32 3
t-9 3l14 103l-144 24l8 54q10 -1 31 -3.5t43.5 -4.5t42 -4t26.5 -3l32 254q-40 10 -75 22.5t-60.5 34t-40.5 54.5t-15 83zM157 450q8 -21 24 -35t41 -24t58 -18l31 238q-31 0 -60 -2t-51 -12.5t-35.5 -32.5t-14.5 -63v-7q0 -25 7 -44zM396 81q37 33 37 98q0 28 -7 46t-22 30
t-38 20.5t-56 17.5l-30 -245h4q75 0 112 33z" />
    <glyph glyph-name="percent" unicode="%" horiz-adv-x="579" 
d="M40 534q0 136 109 136t109 -136q0 -71 -29 -106t-80 -35q-53 0 -81 35t-28 106zM323 132q0 135 108 135t108 -135q0 -70 -28.5 -106t-80.5 -36q-51 0 -79 36t-28 106zM170 -3l200 681l43 -14l-199 -680zM149 439q29 0 42.5 23t13.5 73q0 46 -13 67.5t-43 21.5
q-56 0 -56 -89q0 -96 56 -96zM390 59q13 -23 42 -23t41.5 23t12.5 72q0 48 -12.5 69t-41.5 21q-31 0 -43.5 -20.5t-12.5 -67.5q0 -51 14 -74z" />
    <glyph glyph-name="ampersand" unicode="&#x26;" horiz-adv-x="742" 
d="M90 281q9 32 28.5 55t49.5 39t71 29q-29 31 -43 62.5t-14 73.5q0 78 44.5 118.5t126.5 40.5q81 0 123.5 -39.5t42.5 -113.5q0 -69 -38.5 -111.5t-118.5 -74.5l161 -157q12 35 18.5 75t11.5 91l63 -1q-15 -129 -45 -207l131 -126l-39 -44l-124 118q-38 -63 -92.5 -91
t-128.5 -28q-126 0 -182 54t-56 160q0 45 10 77zM146 209q0 -82 41.5 -120.5t128.5 -38.5q67 0 109.5 23.5t67.5 74.5l-215 214q-70 -19 -101 -52t-31 -101zM272 464q24 -38 51 -65q24 9 47 21.5t41.5 30t30 41.5t11.5 55q0 92 -102 92q-51 0 -77 -23t-26 -67q0 -47 24 -85z
" />
    <glyph glyph-name="quotesingle" unicode="'" horiz-adv-x="226" 
d="M82 475l-2 219h66l-5 -219h-59z" />
    <glyph glyph-name="parenleft" unicode="(" horiz-adv-x="285" 
d="M106 514q25 110 75 236h64q-16 -44 -33 -100t-31 -117t-22.5 -122.5t-8.5 -116.5q0 -45 8.5 -99t22 -110t30.5 -110t34 -100h-64q-20 48 -38.5 101t-32.5 108.5t-22 111t-8 107.5q0 100 26 211z" />
    <glyph glyph-name="parenright" unicode=")" horiz-adv-x="285" 
d="M40 750h64q50 -126 75.5 -236.5t25.5 -210.5q0 -52 -8 -107.5t-22 -111t-32 -108.5t-39 -101h-64q17 46 34 100t30.5 110t22 110t8.5 99q0 55 -8.5 116.5t-22 122.5t-30.5 117t-34 100z" />
    <glyph glyph-name="asterisk" unicode="*" horiz-adv-x="564" 
d="M80 414l42 42l160 -160l160 160l42 -42l-160 -160l160 -160l-42 -42l-160 161l-160 -161l-42 42l160 160z" />
    <glyph glyph-name="plus" unicode="+" horiz-adv-x="609" 
d="M273 281v199h61v-199h195v-60h-195v-201h-61v201h-193v60h193z" />
    <glyph glyph-name="comma" unicode="," horiz-adv-x="279" 
d="M80 23q0 17 7 39t10 32l42 118l47 -17l-48 -137l62 -23l-29 -85q-18 7 -31.5 12t-25.5 12q-11 6 -22.5 17.5t-11.5 31.5z" />
    <glyph glyph-name="hyphen" unicode="-" horiz-adv-x="464" 
d="M80 246v62h304v-62h-304z" />
    <glyph glyph-name="period" unicode="." horiz-adv-x="228" 
d="M80 0v99h68v-99h-68z" />
    <glyph glyph-name="slash" unicode="/" horiz-adv-x="420" 
d="M99 -10l-59 20l282 697l58 -23z" />
    <glyph glyph-name="zero" unicode="0" horiz-adv-x="595" 
d="M60 330q0 93 14.5 158t44 105.5t73.5 59t104 18.5t105 -18.5t74.5 -59t44.5 -105.5t15 -158t-15 -158t-44.5 -105.5t-74 -58.5t-103.5 -18q-60 0 -105 18t-74.5 58.5t-44 105.5t-14.5 158zM130 330q0 -79 9.5 -132.5t30 -86t52 -46.5t76.5 -14q44 0 76 14t52 46.5
t29.5 86t9.5 132.5t-9.5 132.5t-29.5 86.5t-52 47t-76 14q-45 0 -76.5 -14t-52 -47t-30 -86.5t-9.5 -132.5z" />
    <glyph glyph-name="one" unicode="1" horiz-adv-x="422" 
d="M275 0v585l-174 -114l-31 50l209 139h63v-660h-67z" />
    <glyph glyph-name="two" unicode="2" horiz-adv-x="561" 
d="M342 346q25 29 43.5 67t18.5 85q0 58 -35.5 84.5t-113.5 26.5q-33 0 -69 -4.5t-78 -12.5l-27 -6l-6 57q46 14 93.5 20.5t92.5 6.5q110 0 161 -41.5t51 -131.5q0 -33 -6.5 -60.5t-18.5 -50.5q-16 -29 -43.5 -60.5t-67.5 -73.5l-187 -191h341v-61h-421v59z" />
    <glyph glyph-name="three" unicode="3" horiz-adv-x="570" 
d="M70 16l7 56q51 -11 93.5 -18t81.5 -7q37 0 69.5 7.5t57 24t38.5 43.5t14 66q0 60 -35 92.5t-108 32.5h-133v61h133q23 0 45.5 9.5t40.5 26.5t29.5 39.5t11.5 49.5q0 59 -33.5 85t-115.5 26q-35 0 -74 -4t-79 -12l-26 -5l-6 55q47 14 96 20.5t97 6.5q113 0 161.5 -41
t48.5 -131q0 -23 -8 -46t-22 -43.5t-33 -36t-40 -24.5q62 -21 90.5 -59.5t28.5 -109.5q0 -96 -52 -143t-167 -47q-38 0 -84 4t-96 15z" />
    <glyph glyph-name="four" unicode="4" horiz-adv-x="561" 
d="M232 660h73l-194 -468h255v209h68v-209h87v-59h-87v-133h-68v133h-326v52z" />
    <glyph glyph-name="five" unicode="5" horiz-adv-x="577" 
d="M70 20l8 54q107 -22 193 -22q82 0 124.5 42.5t42.5 121.5q0 73 -37 105.5t-112 32.5q-28 0 -56.5 -7.5t-52 -16t-37.5 -15.5t-14 -8v0l-50 8l18 345h382v-61h-325l-18 -229q41 23 81.5 34t88.5 11q99 0 150 -49t51 -149q0 -109 -57.5 -167.5t-163.5 -58.5q-43 0 -87 5.5
t-97 16.5z" />
    <glyph glyph-name="six" unicode="6" horiz-adv-x="602" 
d="M70 323q0 178 66 262.5t189 84.5q44 0 89.5 -4t88.5 -12l-6 -55q-91 12 -174 12q-88 0 -135 -62.5t-47 -177.5q16 6 39 13.5t47 13.5t46.5 10t38.5 4q220 0 220 -201q0 -108 -58 -164.5t-161 -56.5q-124 0 -183.5 83t-59.5 250zM140 312q1 -125 40.5 -194t117.5 -69
q82 0 123 40.5t41 115.5t-39.5 111.5t-114.5 36.5q-16 0 -38.5 -3.5t-46 -9.5t-45.5 -13.5t-38 -14.5z" />
    <glyph glyph-name="seven" unicode="7" horiz-adv-x="528" 
d="M221 -10l-64 21l253 563v25h-340v61h408v-92z" />
    <glyph glyph-name="eight" unicode="8" horiz-adv-x="593" 
d="M50 170q0 64 30.5 104t87.5 71q-57 26 -82 60.5t-25 84.5q0 51 22 85.5t56.5 55.5t75.5 30.5t80 9.5q53 0 97 -11t75.5 -33.5t48.5 -56.5t17 -80q0 -53 -26.5 -86t-89.5 -59q65 -26 95.5 -64.5t30.5 -103.5q0 -93 -60.5 -140t-187.5 -47q-245 0 -245 180zM295 52
q177 0 177 134q0 27 -7.5 46.5t-23 33.5t-39 25t-56.5 20h-109q-60 -16 -88 -46.5t-28 -82.5q0 -130 174 -130zM131 492q0 -45 25.5 -73.5t80.5 -45.5h109q61 17 88.5 45t27.5 75q0 116 -165 116q-166 0 -166 -117z" />
    <glyph glyph-name="nine" unicode="9" horiz-adv-x="564" 
d="M60 443q0 53 16 95t45.5 71.5t70.5 45t92 15.5q119 0 179 -87t60 -259q0 -176 -65 -255t-198 -79q-32 0 -70 4t-80 9l-25 3l6 54q46 -6 88.5 -8.5t83.5 -2.5q187 0 190 242q-53 -20 -98 -30t-90 -10q-102 0 -153.5 48.5t-51.5 143.5zM274 310q36 0 73 8t78 21l28 9
q-3 263 -170 263q-71 0 -112 -43t-41 -119q0 -139 144 -139z" />
    <glyph glyph-name="colon" unicode=":" horiz-adv-x="228" 
d="M80 0v100h68v-100h-68zM148 433v-100h-68v100h68z" />
    <glyph glyph-name="semicolon" unicode=";" horiz-adv-x="273" 
d="M80 80l26 77q19 -7 32.5 -11.5t24.5 -12.5q14 -8 22 -19.5t8 -26.5q0 -17 -7 -39t-11 -32l-42 -114l-41 15l50 141zM157 428v-92h-65v92h65z" />
    <glyph glyph-name="less" unicode="&#x3c;" horiz-adv-x="497" 
d="M40 222v58l417 207v-69l-352 -166l352 -169v-70z" />
    <glyph glyph-name="equal" unicode="=" horiz-adv-x="589" 
d="M80 311v61h429v-61h-429zM509 191v-61h-429v61h429z" />
    <glyph glyph-name="greater" unicode="&#x3e;" horiz-adv-x="498" 
d="M458 280v-58l-418 -209v70l352 169l-352 166v69z" />
    <glyph glyph-name="question" unicode="?" horiz-adv-x="532" 
d="M176 697q39 7 68 7h7q50 -1 88 -8.5t63 -25t37.5 -47t12.5 -73.5q0 -33 -4.5 -56.5t-15.5 -43.5t-28.5 -39t-44.5 -42q-15 -13 -32.5 -29t-32 -33.5t-24 -36t-9.5 -36.5v-36h-55l-2 6q-2 6 -4.5 15t-4.5 20t-2 20q0 22 12.5 43.5t30.5 41t38 36.5t34 31q25 24 40 40
t22.5 30t9.5 29t2 37q0 50 -33.5 73.5t-106.5 23.5q-40 0 -157 -24l-5 55q52 14 96 22zM198 100h68v-99h-68v99z" />
    <glyph glyph-name="at" unicode="@" horiz-adv-x="1038" 
d="M108 469q28 87 83.5 143t139.5 83t195 27q114 0 195.5 -27t134 -81.5t77.5 -136.5t25 -192q0 -42 -5.5 -93t-22.5 -95.5t-50 -74t-89 -29.5q-50 0 -79.5 15.5t-42.5 47.5q-51 -31 -96.5 -46.5t-90.5 -15.5q-35 0 -65 10.5t-52 37.5t-34.5 73t-12.5 117q0 74 11 126t35 85
t63 48t94 15q26 0 59.5 -8.5t59.5 -17.5v16h67v-240q0 -65 2 -105.5t10.5 -63t26.5 -30t51 -7.5q35 0 54 27.5t28 66t10.5 80t1.5 68.5q0 95 -20 165.5t-63.5 116.5t-112.5 68.5t-167 22.5t-169.5 -23t-118.5 -72.5t-70 -128t-23 -188.5q0 -89 17 -162t60 -125.5t117 -81.5
t188 -29l143 10l4 -58q-10 -1 -31.5 -2t-44.5 -2.5t-43 -3t-28 -1.5q-23 -1 -45 -1q-90 0 -166.5 25.5t-131.5 85t-80.5 148.5t-25.5 203q0 122 28 210zM385 244q0 -96 27 -143.5t78 -47.5q26 0 64.5 12.5t94.5 37.5q-9 56 -9 183v140q-33 11 -61.5 17t-56.5 6
q-39 0 -65 -11.5t-42 -36.5t-23 -64t-7 -93z" />
    <glyph glyph-name="A" unicode="A" horiz-adv-x="594" 
d="M221 693h152l196 -693h-66l-53 187h-306l-54 -187h-65zM434 247l-111 388h-51l-112 -388h274z" />
    <glyph glyph-name="B" unicode="B" horiz-adv-x="603" 
d="M327 696q103 0 153 -43t50 -134q0 -65 -24.5 -102t-70.5 -57q60 -21 89 -62t29 -112q0 -98 -53.5 -142t-156.5 -44h-263v696h247zM138 330v-280h203q76 0 115 32.5t39 101.5q0 39 -12.5 67t-34 45.5t-51 25.5t-63.5 8h-196zM138 646v-266h196q71 0 104.5 33.5t33.5 102.5
t-34.5 99.5t-112.5 30.5h-187z" />
    <glyph glyph-name="C" unicode="C" horiz-adv-x="541" 
d="M60 345q0 62 10 125.5t38 115.5t78 84.5t130 32.5q40 0 85.5 -4.5t99.5 -15.5l-3 -58q-99 18 -176 18q-66 0 -104.5 -30.5t-58.5 -76.5t-25.5 -99.5t-5.5 -99.5q0 -53 7.5 -104.5t30 -92t64.5 -65.5t112 -25q29 0 68.5 4.5t87.5 14.5l3 -58q-51 -11 -94.5 -16t-76.5 -5
q-81 0 -133 29t-82.5 77.5t-42.5 113t-12 135.5z" />
    <glyph glyph-name="D" unicode="D" horiz-adv-x="641" 
d="M80 0v694h251q73 0 121.5 -29t77 -76t40 -105.5t11.5 -118.5q0 -185 -63.5 -275t-186.5 -90h-251zM148 60h183q88 0 135 79.5t47 219.5q0 275 -182 275h-183v-574z" />
    <glyph glyph-name="E" unicode="E" horiz-adv-x="562" 
d="M502 694v-60h-351v-252h291v-60h-291v-262h351v-60h-418v694h418z" />
    <glyph glyph-name="F" unicode="F" horiz-adv-x="531" 
d="M491 694v-60h-344v-281h292v-60h-292v-294h-67v695h411z" />
    <glyph glyph-name="G" unicode="G" horiz-adv-x="610" 
d="M74 509q13 65 45 108.5t85 64.5t131 21q36 0 82.5 -4.5t98.5 -14.5l34 -6l-3 -57q-64 11 -117.5 16.5t-100.5 5.5q-56 0 -94.5 -16.5t-62 -51.5t-34 -90t-10.5 -132q0 -48 7 -101t28.5 -98t61.5 -74.5t106 -29.5q39 0 73 3.5t78 12.5v227h-121v60h189v-339
q-126 -24 -223 -24q-75 0 -126 22.5t-82.5 68t-45 113.5t-13.5 159q0 90 14 156z" />
    <glyph glyph-name="H" unicode="H" horiz-adv-x="661" 
d="M147 694v-316h367v316h67v-693h-67v317h-367v-317h-67v693h67z" />
    <glyph glyph-name="I" unicode="I" horiz-adv-x="227" 
d="M80 0v694h67v-694h-67z" />
    <glyph glyph-name="J" unicode="J" horiz-adv-x="283" 
d="M74 -9q22 4 36 16t20 35t6 62v590h67v-603q0 -48 -14 -79t-38.5 -50t-58.5 -26.5t-74 -7.5v60q33 0 56 3z" />
    <glyph glyph-name="K" unicode="K" horiz-adv-x="562" 
d="M80 694h67v-326l115 3l191 323h77l-209 -349l221 -345h-80l-197 312l-118 -3v-309h-67v694z" />
    <glyph glyph-name="L" unicode="L" horiz-adv-x="490" 
d="M80 0v694h67v-634h313v-60h-380z" />
    <glyph glyph-name="M" unicode="M" horiz-adv-x="823" 
d="M204 694l208 -595l207 595h124v-694h-67v624h-13l-213 -600h-77l-214 600h-12v-624h-67v694h124z" />
    <glyph glyph-name="N" unicode="N" horiz-adv-x="660" 
d="M209 694l285 -635h19v635h67v-694h-128l-288 635h-17v-635h-67v694h129z" />
    <glyph glyph-name="O" unicode="O" horiz-adv-x="663" 
d="M60 343q0 126 26 204t85 117t162 39q100 0 159.5 -39t85 -117.5t25.5 -205.5t-24.5 -203t-83 -112t-161.5 -36q-105 0 -164.5 37t-84.5 114t-25 202zM128 344q0 -110 18.5 -173t62 -92t125.5 -29q79 0 122 29t61 91.5t18 171.5q0 108 -18.5 173.5t-62.5 96.5t-121 31
q-80 0 -124 -31t-62.5 -95.5t-18.5 -172.5z" />
    <glyph glyph-name="P" unicode="P" horiz-adv-x="591" 
d="M80 0v694h255q113 0 164.5 -54.5t51.5 -168.5q0 -117 -53 -174.5t-163 -57.5h-188v-239h-67zM147 299h187q150 0 150 174q0 83 -35.5 122t-114.5 39h-187v-335z" />
    <glyph glyph-name="Q" unicode="Q" horiz-adv-x="683" 
d="M80 344q0 93 14 160.5t46 112t84 65.5t128 21q75 0 127 -21t84 -64.5t46 -110.5t14 -158q0 -43 -4 -91.5t-16.5 -93.5t-35 -82t-59.5 -58l84 -137l-62 -30l-88 143q-19 -5 -41 -7.5t-48 -2.5q-78 0 -130 27t-84 74t-45.5 112t-13.5 141zM148 341q0 -48 7 -99.5t28.5 -94
t62.5 -70t109 -27.5q60 0 99 22.5t61.5 61.5t31 91.5t8.5 112.5q0 54 -8 108.5t-30.5 98t-62.5 71t-105 27.5q-60 0 -99 -24.5t-61.5 -66t-31.5 -96t-9 -115.5z" />
    <glyph glyph-name="R" unicode="R" horiz-adv-x="620" 
d="M336 694q112 0 164.5 -50.5t52.5 -156.5q0 -166 -130 -203l137 -284h-72l-133 271h-208v-271h-67v694h256zM147 634v-303h190q149 0 149 153q0 150 -150 150h-189z" />
    <glyph glyph-name="S" unicode="S" horiz-adv-x="561" 
d="M115 660q55 45 172 45q39 0 89.5 -5t110.5 -14l-6 -58q-67 8 -116.5 12.5t-80.5 4.5q-156 0 -156 -119q0 -36 13 -58.5t36 -37.5t56 -24.5t72 -18.5q36 -9 71 -21t63 -32t45 -51.5t17 -78.5q0 -213 -220 -213q-32 0 -82.5 5t-133.5 16l7 57q69 -9 119.5 -13.5t79.5 -4.5
q84 0 123 37t39 110q0 36 -13.5 58.5t-35.5 36t-50.5 20.5t-58.5 13q-43 9 -82.5 22t-68.5 35.5t-46.5 57.5t-17.5 86q0 88 55 133z" />
    <glyph glyph-name="T" unicode="T" horiz-adv-x="540" 
d="M20 694h500v-60h-215v-634h-67v634h-218v60z" />
    <glyph glyph-name="U" unicode="U" horiz-adv-x="619" 
d="M70 694h68v-489q0 -155 173 -155q85 0 127.5 37t42.5 118v489h68v-488q0 -113 -60.5 -164.5t-181.5 -51.5q-120 0 -178.5 51.5t-58.5 164.5v488z" />
    <glyph glyph-name="V" unicode="V" horiz-adv-x="588" 
d="M30 694h69l166 -635h58l166 635h69l-185 -694h-158z" />
    <glyph glyph-name="W" unicode="W" horiz-adv-x="874" 
d="M30 694h70l123 -634h31l145 628h78l144 -628h32l123 634h68l-142 -694h-129l-136 604l-134 -604h-130z" />
    <glyph glyph-name="X" unicode="X" horiz-adv-x="576" 
d="M30 0l217 341l-217 353h77l183 -304l183 304h73l-215 -352l215 -342h-76l-182 296l-185 -296h-73z" />
    <glyph glyph-name="Y" unicode="Y" horiz-adv-x="552" 
d="M97 694l179 -333l180 333h76l-222 -400v-294h-67v294l-223 400h77z" />
    <glyph glyph-name="Z" unicode="Z" horiz-adv-x="530" 
d="M490 694v-86l-375 -529v-20h375v-60h-450v84l374 528v23h-374v60h450z" />
    <glyph glyph-name="bracketleft" unicode="[" horiz-adv-x="324" 
d="M283 749v-58h-137v-756h137v-58h-203v872h203z" />
    <glyph glyph-name="backslash" unicode="\" horiz-adv-x="446" 
d="M347 -10l-307 690l60 25l306 -691z" />
    <glyph glyph-name="bracketright" unicode="]" horiz-adv-x="323" 
d="M243 749v-872h-203v58h137v756h-137v58h203z" />
    <glyph glyph-name="asciicircum" unicode="^" horiz-adv-x="513" 
d="M223 660h60l190 -340h-70l-148 275l-145 -275h-70z" />
    <glyph glyph-name="underscore" unicode="_" horiz-adv-x="588" 
d="M80 -153v58h428v-58h-428z" />
    <glyph glyph-name="a" unicode="a" horiz-adv-x="502" 
d="M76 247q35 35 113 43l165 16v45q0 53 -22.5 77.5t-63.5 24.5q-49 0 -98.5 -4.5t-99.5 -9.5l-3 50q108 21 193 21q83 0 121.5 -37.5t38.5 -121.5v-264q0 -17 16.5 -27.5t45.5 -15.5l-3 -54q-76 0 -116 42q-90 -42 -184 -42q-69 0 -104 39.5t-35 111.5q0 70 36 106zM188 47
q35 0 70 6.5t71 18.5l25 8v176l-157 -16q-48 -5 -68.5 -27.5t-20.5 -69.5q0 -96 80 -96z" />
    <glyph glyph-name="b" unicode="b" horiz-adv-x="517" 
d="M146 721v-246q41 17 78.5 26t78.5 9q48 0 81.5 -13.5t54 -43.5t29.5 -79t9 -120q0 -70 -13 -120t-42 -81.5t-76.5 -46.5t-115.5 -15q-32 0 -72 2.5t-78 7.5v720h66zM170 52q15 -1 30.5 -1.5t29 -1.5t17.5 -1q47 0 78.5 11.5t50.5 37t27 65t8 94.5q0 56 -6 93.5t-20 60.5
t-37 33t-57 10q-61 0 -145 -31v-369q8 0 24 -1z" />
    <glyph glyph-name="c" unicode="c" horiz-adv-x="441" 
d="M70 352q10 47 33 82.5t59.5 56t90.5 20.5q35 0 70.5 -4t76.5 -11l-3 -53q-3 0 -15.5 1.5t-29.5 3t-35.5 2.5t-33.5 1q-48 0 -78 -13.5t-47.5 -39t-23.5 -63.5t-6 -86q0 -37 2.5 -73t17 -64t45 -45t87.5 -17l119 9l2 -55q-48 -7 -82.5 -10.5t-57.5 -3.5q-57 0 -95.5 14.5
t-62 46t-33.5 81t-10 119.5q0 54 10 101z" />
    <glyph glyph-name="d" unicode="d" horiz-adv-x="540" 
d="M60 243q0 71 12 121.5t37.5 83t66 47.5t98.5 15q29 0 58.5 -3.5t61.5 -9.5v224h66v-721h-67v34q-78 -44 -156 -44q-95 0 -136 60.5t-41 192.5zM128 248q0 -103 26 -152t88 -49q15 0 32.5 2.5t35 6.5t34 9.5t28.5 11.5l22 10v354q-64 12 -112 12q-44 0 -73.5 -11.5
t-47.5 -36t-25.5 -63.5t-7.5 -94z" />
    <glyph glyph-name="e" unicode="e" horiz-adv-x="506" 
d="M60 246q0 131 50 197.5t158 66.5q100 0 149 -54.5t49 -153.5q0 -13 -1 -27l-3 -50h-336q0 -49 7.5 -83t25.5 -55t48 -30.5t75 -9.5q29 0 65.5 1t68.5 4l30 3l2 -50q-106 -15 -182 -15q-58 0 -97.5 18t-63.5 51.5t-34.5 81t-10.5 105.5zM125 276h274q0 95 -31 136t-100 41
q-72 0 -107.5 -42.5t-35.5 -134.5z" />
    <glyph glyph-name="f" unicode="f" horiz-adv-x="358" 
d="M40 499h65v50q0 53 7 88t22.5 56t41.5 29.5t63 8.5l99 -7l-1 -53q-26 1 -47 2q-18 0 -33.5 0.5t-17.5 0.5h-5q-36 0 -49.5 -31t-13.5 -95v-49h149v-57h-149v-442h-66v442h-65v57z" />
    <glyph glyph-name="g" unicode="g" horiz-adv-x="539" 
d="M81 -16q21 29 59 57q-13 9 -19.5 25.5t-6.5 33.5q0 16 7 35t25 54q-80 35 -80 151q0 87 44.5 128.5t138.5 41.5q50 0 103 -13l147 4v-57l-97 1q18 -17 25.5 -42.5t7.5 -61.5q0 -92 -44.5 -130.5t-138.5 -38.5q-20 0 -33 1t-24 3q-3 -5 -6 -14.5t-6 -20t-5 -20.5t-2 -18
q1 -20 21 -27t68 -8h16q10 0 20.5 -0.5t19.5 -0.5h11q32 0 60.5 -6.5t50.5 -23t34.5 -45t12.5 -71.5q0 -40 -12.5 -69.5t-40 -49t-71 -29t-105.5 -9.5q-57 0 -96 8t-62 26t-33 46t-10 67q0 45 21 73zM132 -130q6 -19 22.5 -30.5t43.5 -16.5t67 -5q44 0 74.5 5.5t49.5 18
t27 32t8 46.5q0 56 -32 75t-97 19h-110q-29 -21 -44.5 -40.5t-15.5 -54.5q0 -29 7 -49zM158 252q27 -26 92 -26t92 26t27 89t-27 89t-90 26q-66 0 -93.5 -26.5t-27.5 -89.5t27 -88z" />
    <glyph glyph-name="h" unicode="h" horiz-adv-x="513" 
d="M80 1v720h66v-249q84 38 160 38q53 0 85.5 -17t50.5 -48.5t24.5 -77t6.5 -103.5v-263h-66v261q0 36 -2.5 70.5t-13 61t-32.5 43t-61 16.5q-17 0 -37.5 -3t-41 -8t-40 -10.5t-33.5 -11.5v-419h-66z" />
    <glyph glyph-name="i" unicode="i" horiz-adv-x="206" 
d="M70 0v500h66v-500h-66zM136 702v-79h-66v79h66z" />
    <glyph glyph-name="j" unicode="j" horiz-adv-x="211" 
d="M30 -117q26 23 35.5 51t9.5 77v489h66v-490q0 -62 -14 -100t-48.5 -67.5t-102.5 -64.5l-27 51q55 32 81 54zM141 702v-79h-66v79h66z" />
    <glyph glyph-name="k" unicode="k" horiz-adv-x="470" 
d="M136 721v-428l82 3l151 204h74l-169 -229l176 -271h-74l-157 238l-83 -2v-236h-66v721h66z" />
    <glyph glyph-name="l" unicode="l" horiz-adv-x="206" 
d="M70 0v721h66v-721h-66z" />
    <glyph glyph-name="m" unicode="m" horiz-adv-x="823" 
d="M135 498v-34q75 44 154 44q91 0 126 -50q20 12 44.5 21t50 15.5t50 10t44.5 3.5q51 0 82 -21t48.5 -55t23 -78t5.5 -91v-263h-66v261q0 35 -2.5 69t-13.5 61t-33.5 43.5t-63.5 16.5q-33 0 -71.5 -11t-73.5 -29q14 -22 14 -151v-260h-66v258q0 36 -2 71t-11.5 62t-30 43.5
t-57.5 16.5q-16 0 -36.5 -3.5t-41 -9t-39.5 -12.5t-33 -15v-411h-66v498h65z" />
    <glyph glyph-name="n" unicode="n" horiz-adv-x="523" 
d="M135 498v-34q46 24 83.5 34t74.5 10q54 0 87.5 -18t51.5 -50.5t24.5 -77.5t6.5 -99v-263h-66v261q0 32 -2.5 65.5t-13.5 61.5t-33.5 45.5t-62.5 17.5q-18 0 -38.5 -3.5t-40.5 -9.5t-38 -13t-32 -14v-411h-66v498h65z" />
    <glyph glyph-name="o" unicode="o" horiz-adv-x="543" 
d="M70 347q9 48 33 84t65 57.5t104 21.5q58 0 98.5 -19t65.5 -53.5t36 -83t11 -107.5q0 -54 -10 -100.5t-34 -81.5t-65 -55t-103 -20q-57 0 -97.5 17.5t-65.5 50.5t-36.5 80.5t-11.5 107.5q0 53 10 101zM133 171q5 -37 20.5 -64.5t44 -43.5t75.5 -16q43 0 70.5 14t43.5 40.5
t22 64t6 83.5q0 38 -5 75t-20 65.5t-43.5 46t-76.5 17.5q-43 0 -71 -15t-43.5 -42t-21.5 -65t-6 -84q0 -40 5 -76z" />
    <glyph glyph-name="p" unicode="p" horiz-adv-x="509" 
d="M70 500h65v-36q41 24 79 35t79 11q92 0 134 -60t42 -195q0 -71 -11.5 -121.5t-37.5 -82.5t-68 -46.5t-103 -14.5q-57 0 -113 12v-226h-66v724zM206 50q29 -3 49 -3q80 0 114 47.5t34 157.5q0 108 -29 154.5t-84 46.5q-17 0 -38 -4t-42 -10t-40.5 -13.5t-33.5 -15.5v-352
q40 -5 70 -8z" />
    <glyph glyph-name="q" unicode="q" horiz-adv-x="507" 
d="M40 241q0 71 12 123t40 86t68 47.5t87 13.5q13 0 26 -1l164 -10v-724h-66v247q-37 -17 -72.5 -25t-73.5 -8q-97 0 -141 58.5t-44 192.5zM106 243q0 -53 7 -90.5t23 -61t40.5 -34t59.5 -10.5q14 0 31.5 2.5t36 7t36 10t31.5 11.5v369q-7 0 -22 1t-30.5 2t-28.5 2t-18 1
q-9 1 -18 1q-38 0 -67 -12t-48 -39t-26 -67.5t-7 -92.5z" />
    <glyph glyph-name="r" unicode="r" horiz-adv-x="347" 
d="M135 500v-70q86 60 187 81v-67q-19 -3 -43.5 -11t-50 -18t-49.5 -21.5t-43 -21.5v-372h-66v500h65z" />
    <glyph glyph-name="s" unicode="s" horiz-adv-x="494" 
d="M109 476q48 33 141 33q38 0 82.5 -5t84.5 -13l-2 -56q-44 6 -86.5 11.5t-80.5 5.5q-64 0 -93 -20t-29 -59q0 -35 27 -53.5t97 -32.5q27 -6 59 -14.5t60 -24.5t46.5 -41t18.5 -63q0 -81 -46.5 -117.5t-145.5 -36.5q-44 0 -88 5.5t-87 13.5l4 56q57 -8 100 -13t75 -5
q62 0 92 21t30 69q0 24 -14.5 40.5t-36 27.5t-46.5 17t-46 9q-45 8 -76.5 18.5t-51 26t-28.5 38t-9 53.5q0 76 49 109z" />
    <glyph glyph-name="t" unicode="t" horiz-adv-x="370" 
d="M30 500h73v155h66v-155h163v-57h-163v-258q0 -31 1.5 -56.5t9 -44t23 -28.5t42.5 -10l91 7l4 -53q-36 -6 -61 -8.5t-44 -2.5q-37 0 -62.5 8.5t-41 29t-22 55.5t-6.5 87v274h-73v57z" />
    <glyph glyph-name="u" unicode="u" horiz-adv-x="515" 
d="M60 237v261h66v-259q0 -39 2 -74t12.5 -61.5t33.5 -41.5t65 -15q66 0 140 40v411h66v-498h-67v34q-41 -23 -75 -33.5t-73 -10.5q-55 0 -88.5 19.5t-51.5 53t-24 78.5t-6 96z" />
    <glyph glyph-name="v" unicode="v" horiz-adv-x="487" 
d="M30 500h70l123 -443h39l127 443h68l-145 -500h-138z" />
    <glyph glyph-name="w" unicode="w" horiz-adv-x="756" 
d="M30 500h65l109 -443h14l126 433h68l126 -433h16l106 443h66l-123 -500h-109l-116 405l-116 -405h-109z" />
    <glyph glyph-name="x" unicode="x" horiz-adv-x="462" 
d="M30 500h72l129 -203l129 203h72l-162 -248l161 -252h-72l-128 202l-129 -202h-72l161 250z" />
    <glyph glyph-name="y" unicode="y" horiz-adv-x="488" 
d="M30 500h65l131 -443h35l131 443h66l-213 -724h-66l66 224h-70z" />
    <glyph glyph-name="z" unicode="z" horiz-adv-x="451" 
d="M411 500v-57l-291 -386h291v-57h-371v57l292 386h-292v57h371z" />
    <glyph glyph-name="braceleft" unicode="{" horiz-adv-x="365" 
d="M40 338q57 13 81.5 39.5t24.5 72.5l-7 128q0 46 10 78.5t32 53.5t57.5 31.5t85.5 12.5l1 -57q-68 -4 -94.5 -32t-26.5 -90l7 -122q0 -32 -5 -55t-17 -39.5t-32 -27.5t-50 -19q30 -9 49.5 -20.5t31.5 -28t17 -39.5t5 -54l-7 -116q0 -62 27 -91t95 -33l-2 -57q-49 2 -84 13
t-57.5 32t-32.5 53.5t-10 77.5l7 121q0 45 -24.5 72t-81.5 43v53z" />
    <glyph glyph-name="bar" unicode="|" horiz-adv-x="208" 
d="M76 -224v945h64v-945h-64z" />
    <glyph glyph-name="braceright" unicode="}" horiz-adv-x="369" 
d="M44 -70q69 4 96 33t27 91l-7 116q0 31 5 54t17 39.5t31.5 28t49.5 20.5q-30 8 -50 19t-32 27.5t-17 39.5t-5 55l7 122q0 62 -26.5 90t-94.5 32l1 57q50 -2 85 -12.5t57 -31.5t32 -53.5t10 -78.5l-7 -128q0 -46 24.5 -72.5t81.5 -39.5v-53q-57 -16 -81.5 -43t-24.5 -72
l7 -121q0 -45 -10 -77.5t-32 -53.5t-56.5 -32t-84.5 -13z" />
    <glyph glyph-name="asciitilde" unicode="~" horiz-adv-x="584" 
d="M76 271q61 52 115 52q29 0 104 -30q71 -33 92 -33q11 0 25 5t29 12t28.5 15.5t22.5 14.5l11 -53q-65 -55 -117 -55q-29 0 -101 33q-74 32 -93 32q-10 0 -24.5 -5t-29.5 -12.5t-28.5 -16t-22.5 -14.5z" />
    <glyph glyph-name="exclamdown" unicode="&#xa1;" horiz-adv-x="229" 
d="M80 -194l4 470h60l4 -470h-68zM81 400v100h68v-100h-68z" />
    <glyph glyph-name="cent" unicode="&#xa2;" horiz-adv-x="420" 
d="M0 246q0 110 42 161.5t133 56.5v121h58v-124l105 -11l-3 -54q-40 4 -72 6t-57 2q-39 0 -65 -8.5t-42 -27t-23 -48t-7 -72.5t6.5 -72.5t23 -46.5t43.5 -24.5t69 -7.5l125 7l3 -55q-35 -5 -61 -7.5t-45 -2.5v-121h-58l1 119q-47 3 -80.5 14.5t-54.5 36t-31 63t-10 95.5z
" />
    <glyph glyph-name="sterling" unicode="&#xa3;" horiz-adv-x="555" 
d="M163 58v299h-67v57h67v54q0 48 5 85.5t20.5 63.5t44 39.5t75.5 13.5q32 0 65.5 -4.5t64.5 -11.5v-54q-45 6 -75 9t-48 3q-32 0 -50 -11.5t-26.5 -32t-10.5 -48t-2 -58.5v-48h174v-57h-174v-299h159l79 16l11 -56l-82 -18h-317v58h87z" />
    <glyph glyph-name="currency" unicode="&#xa4;" horiz-adv-x="595" 
d="M150 151q-31 47 -31 100t31 102l-70 70l47 47l69 -71q43 31 101 31q55 0 102 -31l70 71l46 -47l-71 -70q32 -49 32 -102q0 -56 -32 -100l71 -70l-46 -46l-70 70q-47 -31 -102 -31q-58 0 -101 31l-69 -71l-47 47zM177 252q0 -49 36 -84q36 -36 85 -36q24 0 46 10
t38.5 26.5t26 38t9.5 45.5t-9.5 46t-26 38.5t-38.5 26t-46 9.5t-46 -9.5t-38.5 -26t-26.5 -38.5t-10 -46z" />
    <glyph glyph-name="yen" unicode="&#xa5;" horiz-adv-x="668" 
d="M155 660l180 -280l178 280h75l-176 -284h144v-56h-187v-97h188v-55h-188v-168h-67v168h-190v55h190v97h-191v56h147l-178 284h75z" />
    <glyph glyph-name="brokenbar" unicode="&#xa6;" horiz-adv-x="208" 
d="M140 154v-378h-64v378h64zM76 347v374h64v-374h-64z" />
    <glyph glyph-name="section" unicode="&#xa7;" horiz-adv-x="530" 
d="M76 262q0 13 5 31t13 36t18.5 33.5t20.5 24.5q-44 32 -44 111q0 155 188 155q36 0 80 -5t82 -10l-4 -56q-108 15 -165 15q-118 0 -118 -97q0 -29 11 -47t30 -29t45.5 -17.5t57.5 -12.5q32 -6 61.5 -15t52 -25t36 -40.5t13.5 -61.5q0 -69 -43 -131q37 -31 37 -99
q0 -83 -47 -124.5t-139 -41.5q-42 0 -87 5t-87 12l6 55q110 -15 165 -15q127 0 127 106q0 29 -15 46.5t-37.5 27t-48.5 14.5t-47 9q-85 14 -126 45.5t-41 100.5zM148 229q6 -15 20.5 -25.5t39 -18.5t60.5 -14q77 -15 99 -25q5 7 10 19.5t9 27.5t5.5 28t1.5 22v9
q-1 20 -7.5 33.5t-20.5 23.5t-37 17.5t-59 14.5q-22 3 -47.5 8.5t-45.5 13.5q-35 -62 -35 -99q0 -20 7 -35z" />
    <glyph glyph-name="copyright" unicode="&#xa9;" horiz-adv-x="676" 
d="M110 572q34 62 93.5 97.5t134.5 35.5q73 0 133 -36q60 -37 94 -99t34 -137q0 -76 -34 -137q-34 -62 -92.5 -97.5t-133.5 -35.5q-74 0 -134 36t-94.5 98t-34.5 138q0 74 34 137zM117 434q0 -63 29 -116t79 -83.5t112 -30.5t112 31q51 30 80 82.5t29 116.5q0 63 -29 116
q-29 54 -79 84.5t-112 30.5q-95 0 -158 -67q-63 -69 -63 -164zM225 434q0 83 26 119.5t90 36.5q41 0 66 -6l10 -3l-3 -48q-39 6 -74 6t-48 -23t-13 -80q0 -60 13.5 -84t50.5 -24l71 7l3 -47q-41 -11 -76 -11q-64 0 -90 36.5t-26 120.5z" />
    <glyph glyph-name="guillemotleft" unicode="&#xab;" horiz-adv-x="494" 
d="M40 276l183 140v-68l-126 -97l126 -108v-69l-183 148v54zM271 276l183 140v-68l-126 -97l126 -108v-69l-183 148v54z" />
    <glyph glyph-name="registered" unicode="&#xae;" horiz-adv-x="676" 
d="M110 572q34 62 93.5 97.5t134.5 35.5q73 0 134 -35q60 -36 93.5 -97.5t33.5 -138.5q0 -76 -34 -138t-93 -97.5t-133 -35.5t-134 36t-94.5 98.5t-34.5 137.5q0 74 34 137zM117 435q0 -63 29 -116q29 -54 79.5 -84.5t112.5 -30.5t112 31q51 30 79.5 82.5t28.5 116.5
q0 62 -29 117q-29 53 -79 83.5t-112 30.5q-61 0 -112 -30q-51 -31 -80 -84t-29 -116zM230 283v301h106q114 0 114 -87q0 -43 -12.5 -64.5t-41.5 -33.5l57 -116h-53l-53 110h-67v-110h-50zM279 435h66q29 0 41.5 12.5t12.5 40.5q0 53 -67 53h-53v-106z" />
    <glyph glyph-name="degree" unicode="&#xb0;" horiz-adv-x="532" 
d="M80 -47q0 33 4.5 56.5t15 43.5t28.5 39t45 42q15 14 32.5 29.5t31.5 33t23.5 36t9.5 36.5v36h55q4 -10 7 -21q3 -9 5 -19.5t2 -20.5q0 -22 -12.5 -43.5t-30.5 -41t-38 -36.5t-35 -31q-25 -24 -39.5 -40t-22 -30t-9.5 -29t-2 -37q0 -50 33.5 -73.5t106.5 -23.5
q40 0 157 24l4 -55q-51 -14 -93 -21.5t-70 -7.5h-7q-50 1 -88 8.5t-63 25t-37.5 47t-12.5 73.5zM265 403v99h68v-99h-68z" />
    <glyph glyph-name="plusminus" unicode="&#xb1;" horiz-adv-x="610" 
d="M273 358v129h61v-129h195v-59h-195v-132h-61v132h-193v59h193zM529 101v-60h-449v60h449z" />
    <glyph glyph-name="paragraph" unicode="&#xb6;" horiz-adv-x="675" 
d="M76 511q0 40 14 73.5t39 58t59.5 38t74.5 13.5h329v-57h-78v-637h-61v637h-123v-637h-61v330h-7q-40 0 -74 13.5t-59 38t-39 57.5t-14 72z" />
    <glyph glyph-name="periodcentered" unicode="&#xb7;" horiz-adv-x="228" 
d="M80 245v99h68v-99h-68z" />
    <glyph glyph-name="guillemotright" unicode="&#xbb;" horiz-adv-x="494" 
d="M454 276v-54l-183 -148v69l126 108l-126 97v68zM40 74v69l127 108l-127 97v68l183 -140v-54z" />
    <glyph glyph-name="questiondown" unicode="&#xbf;" horiz-adv-x="532" 
d="M80 -47q0 33 4.5 56.5t15 43.5t28.5 39t45 42q15 14 32.5 29.5t31.5 33t23.5 36t9.5 36.5v36h55q4 -10 7 -21q3 -9 5 -19.5t2 -20.5q0 -22 -12.5 -43.5t-30.5 -41t-38 -36.5t-35 -31q-25 -24 -39.5 -40t-22 -30t-9.5 -29t-2 -37q0 -50 33.5 -73.5t106.5 -23.5
q40 0 157 24l4 -55q-51 -14 -93 -21.5t-70 -7.5h-7q-50 1 -88 8.5t-63 25t-37.5 47t-12.5 73.5zM265 403v99h68v-99h-68z" />
    <glyph glyph-name="multiply" unicode="&#xd7;" horiz-adv-x="564" 
d="M80 414l42 42l160 -160l160 160l42 -42l-160 -160l160 -160l-42 -42l-160 161l-160 -161l-42 42l160 160z" />
    <glyph glyph-name="divide" unicode="&#xf7;" horiz-adv-x="456" 
d="M376 378v-65h-296v65h296zM196 125v96h66v-96h-66zM262 566v-95h-66v95h66z" />
    <glyph glyph-name="tilde" unicode="&#x2dc;" horiz-adv-x="584" 
d="M76 271q61 52 115 52q29 0 104 -30q71 -33 92 -33q11 0 25 5t29 12t28.5 15.5t22.5 14.5l11 -53q-65 -55 -117 -55q-29 0 -101 33q-74 32 -93 32q-10 0 -24.5 -5t-29.5 -12.5t-28.5 -16t-22.5 -14.5z" />
    <glyph glyph-name="uni060C" unicode="&#x60c;" horiz-adv-x="279" 
d="M80 23q0 17 7 39t10 32l42 118l47 -17l-48 -137l62 -23l-29 -85q-18 7 -31.5 12t-25.5 12q-11 6 -22.5 17.5t-11.5 31.5z" />
    <glyph glyph-name="uni060D" unicode="&#x60d;" horiz-adv-x="158" 
d="M40 -103l43 214h69l-60 -214h-52z" />
    <glyph glyph-name="uni061B" unicode="&#x61b;" horiz-adv-x="260" 
d="M80 335q0 17 7 39t11 32l42 114l41 -15l-50 -141l62 -22l-26 -77q-19 7 -32.5 11.5t-24.5 12.5q-14 8 -22 19.5t-8 26.5zM116 -6v92h65v-92h-65z" />
    <glyph glyph-name="uni061F" unicode="&#x61f;" horiz-adv-x="532" 
d="M80 550q0 44 12.5 73.5t37.5 47t63 25t88 8.5h7q28 0 70 -7.5t94 -21.5l-5 -55q-117 24 -157 24q-73 0 -106.5 -23.5t-33.5 -73.5q0 -26 4 -43t12.5 -31.5t22.5 -28t34 -33.5q15 -14 35 -31t38 -37t30.5 -42.5t12.5 -46.5q0 -16 -7 -35q-3 -11 -7 -21h-55v36
q0 18 -9.5 36.5t-23.5 36t-31.5 33.5t-32.5 29q-27 23 -45 42t-28.5 39t-15 43.5t-4.5 56.5zM333 100v-99h-68v99h68z" />
    <glyph glyph-name="uni0640" unicode="&#x640;" horiz-adv-x="188" 
d="M0 65h188q14 0 14 -14v-37q0 -14 -14 -14h-188q-14 0 -14 14v37q0 14 14 14z" />
    <glyph glyph-name="uni0653" unicode="&#x653;" 
d="M-129 700v33q0 14 6 27t16.5 23t23 16t26.5 6h185v-51h-190q-10 0 -18 -8t-8 -18v-28h-41z" />
    <glyph glyph-name="uni0653" unicode="&#x6e4;" 
d="M-129 700v33q0 14 6 27t16.5 23t23 16t26.5 6h185v-51h-190q-10 0 -18 -8t-8 -18v-28h-41z" />
    <glyph glyph-name="uni0654" unicode="&#x654;" 
d="M-134 735l82 15q-1 1 -4.5 7t-5.5 17q0 2 -1 7t-2.5 11t-2.5 11.5t-1 8.5q-2 9 -2 18q0 10 3.5 23t14 26.5t25.5 22.5t32 11l71 8l5 -41l-77 -9q-17 -2 -28 -13t-11 -27q0 -5 1 -12l12 -63q12 3 37 8t49 10q29 6 62 13l9 -35l-261 -53z" />
    <glyph glyph-name="uni0655" unicode="&#x655;" 
d="M-133 -187l81 16q-1 1 -4.5 7t-5.5 17q0 1 -1.5 7t-2.5 12.5t-2 12t-1 6.5q-2 9 -2 18t3.5 22.5t14 27t25.5 22.5t32 11l71 8l5 -41l-77 -9q-17 -2 -28 -13t-11 -27q0 -5 1 -12l12 -63q12 2 37 7.5t49 10.5q29 6 62 13l9 -35l-261 -53z" />
    <glyph glyph-name="uni0656" unicode="&#x656;" 
d="M18 -125h-35v125h35v-125z" />
    <glyph glyph-name="uni0660" unicode="&#x660;" horiz-adv-x="267" 
d="M80 159h107v-107h-107v107z" />
    <glyph glyph-name="uni0661" unicode="&#x661;" horiz-adv-x="245" 
d="M134 651l12 -60q9 -47 14 -93.5t5 -94.5v-403h-55v404q0 48 -5 94t-14 92l-11 51z" />
    <glyph glyph-name="uni0662" unicode="&#x662;" horiz-adv-x="511" 
d="M134 651l4 -15q3 -15 7.5 -38.5t9 -52.5t6.5 -59q2 -28 26 -46t53 -18h156v228h55v-214q0 -37 -21 -58t-58 -21h-121q-25 0 -46.5 8.5t-39.5 29.5v-395h-55v404q0 48 -5 94t-14 92l-11 51z" />
    <glyph glyph-name="uni0663" unicode="&#x663;" horiz-adv-x="681" 
d="M80 641l54 10l4 -14q3 -15 7.5 -38t9 -52t6.5 -59q0 -10 5 -21.5t14.5 -21.5t24.5 -16.5t35 -6.5h14q32 0 56 20t30 50l30 151l54 -10l-25 -125q-1 -5 -1 -9q0 -12 5 -25.5t15.5 -25.5t25 -19t32.5 -7h90v228h55v-204q0 -37 -25.5 -63t-63.5 -26h-56q-35 0 -63 16t-45 42
q-20 -27 -49 -42.5t-67 -15.5q-26 0 -47.5 8.5t-39.5 30.5v-396h-55v404q0 97 -19 186z" />
    <glyph glyph-name="uni0664" unicode="&#x664;" horiz-adv-x="459" 
d="M80 125l1 78q1 46 20.5 78.5t49.5 52.5q-18 14 -30.5 33.5t-17.5 42.5l-18 92q-3 12 -3 24q0 16 6 36t23 40.5t41.5 32.5t53.5 12h122v-60h-126q-15 0 -27.5 -7t-21.5 -18t-11.5 -22t-2.5 -18t1 -14l15 -80q2 -12 10 -24.5t18.5 -22t20 -13.5t15.5 -4q4 0 8 1l110 31
l15 -56l-148 -44q-30 -8 -48.5 -34.5t-19.5 -58.5l-1 -74v-3q0 -26 19.5 -45t48.5 -19h186v-62h-184q-26 0 -49 10t-40 27t-26.5 39.5t-9.5 48.5z" />
    <glyph glyph-name="uni0665" unicode="&#x665;" horiz-adv-x="586" 
d="M75 281q14 50 39.5 93.5t60.5 84t77 84.5l-64 59l35 48l99 -93q43 -40 80 -80.5t64.5 -86t43.5 -100.5t16 -124q0 -34 -8 -64t-26 -52.5t-45.5 -35.5t-66.5 -13h-174q-39 0 -66.5 13t-45.5 35.5t-26 52.5t-8 64q0 64 15 115zM115 165q0 -40 18 -69.5t63 -29.5h194
q45 0 63 29.5t18 69.5q0 51 -8.5 92t-28.5 80t-54.5 79t-86.5 89q-52 -50 -86.5 -90t-54.5 -78.5t-28.5 -79.5t-8.5 -92z" />
    <glyph glyph-name="uni0666" unicode="&#x666;" horiz-adv-x="514" 
d="M45 646l19 -2q18 -2 45 -4.5t58.5 -4t58.5 -1.5q29 0 59 2t55.5 4.5t42.5 5t21 3.5v-402q0 -48 5 -94t14 -92l11 -51l-54 -10l-12 60q-9 47 -14 93.5t-5 94.5v329q-8 0 -26.5 -1t-40 -2t-41 -2t-28.5 -1q-27 0 -57.5 2.5t-56 6t-42.5 6.5l-17 2z" />
    <glyph glyph-name="uni0667" unicode="&#x667;" horiz-adv-x="553" 
d="M86 653q6 -7 30 -44.5t54 -104.5t60 -163.5t47 -221.5q7 69 24 145t41.5 148t56 135t68.5 106l46 -38q-4 -6 -18.5 -25t-34 -52t-43 -82t-45.5 -115t-40.5 -150.5t-28.5 -189.5h-53q-22 161 -55 273.5t-65.5 185t-58 109.5t-31.5 46z" />
    <glyph glyph-name="uni0668" unicode="&#x668;" horiz-adv-x="553" 
d="M40 39q6 9 31.5 46t58 109.5t65.5 185t55 273.5h53q11 -105 29 -189.5t40 -150.5t45.5 -115t43 -82t34 -52t18.5 -25l-46 -38q-37 43 -68.5 106t-56 135t-41.5 148t-24 145q-17 -125 -47 -221.5t-60 -163.5t-54 -104t-30 -45z" />
    <glyph glyph-name="uni0669" unicode="&#x669;" horiz-adv-x="488" 
d="M53 457l17 91q4 22 15 40t27.5 31.5t36.5 21t42 7.5h56q27 0 51.5 -10.5t42.5 -28t28 -41.5t10 -51v-271v-15q0 -40 5 -82t14 -88l10 -52l-54 -9l-12 59q-10 47 -14 93.5t-4 94.5v70q-15 -7 -35 -7h-115q-29 0 -53.5 12.5t-41.5 32.5t-22.5 41.5t-5.5 37.5q0 11 2 23z
M108 422q4 -14 12.5 -24.5t21 -16.5t27.5 -6h155v142q0 30 -21 50.5t-51 20.5h-60q-26 0 -45.5 -16t-24.5 -41l-15 -81q-1 -6 -1 -12q0 -9 2 -16z" />
    <glyph glyph-name="uni066A" unicode="&#x66a;" horiz-adv-x="503" 
d="M356 107h107v-107h-107v107zM82 0l-37 24l393 632l37 -25zM41 659h107v-107h-107v107z" />
    <glyph glyph-name="uni066B" unicode="&#x66b;" horiz-adv-x="158" 
d="M40 -103l43 214h69l-60 -214h-52z" />
    <glyph glyph-name="uni066C" unicode="&#x66c;" horiz-adv-x="158" 
d="M40 409l43 214h69l-60 -214h-52z" />
    <glyph glyph-name="uni066D" unicode="&#x66d;" horiz-adv-x="474" 
d="M108 421l-28 37l108 79l-106 78l28 38l107 -78l41 126l45 -14l-40 -128h131v-46h-133l41 -126l-45 -14l-41 127z" />
    <glyph glyph-name="uni0670" unicode="&#x670;" 
d="M17 700h-35v124h35v-124z" />
    <glyph glyph-name="uni06F0" unicode="&#x6f0;" horiz-adv-x="453" 
d="M70 184v51q0 27 10.5 51t28.5 42t42 28.5t51 10.5h49q27 0 51 -10.5t42 -28.5t28.5 -42t10.5 -51v-51q0 -27 -10.5 -51t-28.5 -41.5t-42 -28t-51 -10.5h-49q-27 0 -51 10.5t-42 28t-28.5 41.5t-10.5 51zM126 236v-47q0 -30 21 -50.5t50 -20.5h59q30 0 51 20.5t21 50.5v47
q0 30 -21 50.5t-51 20.5h-59q-29 0 -50 -20.5t-21 -50.5z" />
    <glyph glyph-name="uni06F1" unicode="&#x6f1;" horiz-adv-x="245" 
d="M134 651l12 -60q9 -47 14 -93.5t5 -94.5v-403h-55v404q0 48 -5 94t-14 92l-11 51z" />
    <glyph glyph-name="uni06F2" unicode="&#x6f2;" horiz-adv-x="521" 
d="M134 651l4 -15q3 -15 7.5 -38.5t9 -52.5t6.5 -59q2 -28 26 -46t53 -18h156v228h55v-214q0 -37 -21 -58t-58 -21h-121q-25 0 -46.5 8.5t-39.5 29.5v-395h-55v404q0 48 -5 94t-14 92l-11 51z" />
    <glyph glyph-name="uni06F3" unicode="&#x6f3;" horiz-adv-x="691" 
d="M80 641l54 10l4 -14q3 -15 7.5 -38t9 -52t6.5 -59q0 -10 5 -21.5t14.5 -21.5t24.5 -16.5t35 -6.5h14q32 0 56 20t30 50l30 151l54 -10l-25 -125q-1 -5 -1 -9q0 -12 5 -25.5t15.5 -25.5t25 -19t32.5 -7h90v228h55v-214q0 -37 -20.5 -58t-58.5 -21h-66q-35 0 -63 16t-45 42
q-20 -27 -49 -42.5t-68 -15.5q-25 0 -46.5 8.5t-39.5 29.5v-395h-55v404q0 97 -19 186z" />
    <glyph glyph-name="uni06F4" unicode="&#x6f4;" horiz-adv-x="629" 
d="M134 651q8 -41 15.5 -81.5t11.5 -81.5q5 -29 27.5 -48t51.5 -19h47q-3 6 -5.5 13t-3.5 15l-2 12q-2 11 -5 26t-5.5 30t-4.5 22q-2 12 -2 24q0 16 5.5 37t22.5 41t41.5 32.5t53.5 12.5h136l-1 -60h-141q-30 0 -47 -20.5t-17 -42.5q0 -6 1 -12l25 -127q26 1 62.5 4.5
t69.5 7.5t57 7l23 3l9 -55q-5 -1 -24 -3.5t-45.5 -6.5t-58.5 -8t-64.5 -7.5t-63 -6t-53.5 -2.5q-24 0 -46 8.5t-39 30.5v-396h-55v404q0 58 -9 119t-21 118z" />
    <glyph glyph-name="uni06F5" unicode="&#x6f5;" horiz-adv-x="686" 
d="M80 165q0 70 19 128.5t50.5 108t71.5 92.5t82 81l-38 35l33 44l101 -90q30 -27 66 -65t67.5 -88t52.5 -111.5t21 -134.5q0 -33 -8.5 -63t-26.5 -52.5t-45 -36t-63 -13.5q-39 0 -66.5 16.5t-53.5 50.5q-26 -34 -55 -50.5t-68 -16.5q-37 0 -63.5 13.5t-43.5 36t-25 52.5
t-8 63zM139 127q4 -19 13.5 -32.5t25 -21.5t37.5 -8h14q32 0 56 20t31 50l23 97l54 -9l-22 -91q3 -10 11 -22t19.5 -22t25.5 -16.5t29 -6.5h14q23 0 38 8t25 21.5t14 32t4 38.5q0 65 -15.5 116.5t-43.5 95.5t-66.5 83t-83.5 80q-42 -41 -79.5 -81t-66 -84.5t-45 -95.5
t-16.5 -114q0 -20 4 -38z" />
    <glyph glyph-name="uni06F6" unicode="&#x6f6;" horiz-adv-x="574" 
d="M80 21l205 293q-9 0 -23 7t-22 13l-112 86q-23 18 -33 42t-10 47q0 4 1 19t13.5 41t34.5 44l107 84l26 -40l-109 -91q-12 -10 -18 -23t-6.5 -21t-0.5 -10q0 -11 5 -23t17 -21l156 -116q53 76 122 144l44 42l42 -37l-38 -36q-20 -19 -34.5 -33.5t-27 -29.5t-26.5 -34
t-33 -46l-230 -332z" />
    <glyph glyph-name="uni06F7" unicode="&#x6f7;" horiz-adv-x="553" 
d="M86 653q38 -60 74 -135q31 -65 63 -153.5t53 -197.5q20 109 52 197.5t63 153.5q36 75 76 135l46 -38q-48 -75 -90 -170q-18 -40 -36 -89t-34 -105t-29 -119t-21 -131h-53q-15 137 -49.5 250t-70.5 194q-42 95 -90 170z" />
    <glyph glyph-name="uni06F8" unicode="&#x6f8;" horiz-adv-x="553" 
d="M40 39q48 75 90 171q36 81 70.5 193.5t49.5 249.5h53q8 -68 21 -130.5t29 -118.5t34 -104.5t36 -89.5q42 -96 90 -171l-46 -38q-40 60 -76 135q-31 65 -63 154t-52 197q-21 -108 -53 -197t-63 -154q-36 -75 -74 -135z" />
    <glyph glyph-name="uni06F9" unicode="&#x6f9;" horiz-adv-x="478" 
d="M53 457l17 91q4 22 15 40t27.5 31.5t36.5 21t42 7.5h56q27 0 51.5 -10.5t42.5 -28t28 -41.5t10 -51v-271v-15q0 -40 5 -82t14 -88l10 -52l-54 -9l-12 59q-10 47 -14 93.5t-4 94.5v70q-15 -7 -35 -7h-115q-29 0 -53.5 12.5t-41.5 32.5t-22.5 41.5t-5.5 37.5q0 11 2 23z
M108 422q4 -14 12.5 -24.5t21 -16.5t27.5 -6h155v142q0 30 -21 50.5t-51 20.5h-60q-26 0 -45.5 -16t-24.5 -41l-15 -81q-1 -6 -1 -12q0 -9 2 -16z" />
    <glyph glyph-name="uni200B" unicode="&#x200b;" horiz-adv-x="333" 
 />
    <glyph glyph-name="uni200C" unicode="&#x200c;" horiz-adv-x="333" 
 />
    <glyph glyph-name="endash" unicode="&#x2013;" horiz-adv-x="660" 
d="M80 239v58h500v-58h-500z" />
    <glyph glyph-name="emdash" unicode="&#x2014;" horiz-adv-x="1160" 
d="M80 239v58h1000v-58h-1000z" />
    <glyph glyph-name="quoteleft" unicode="&#x2018;" horiz-adv-x="192" 
d="M40 499l61 214h51l-43 -214h-69z" />
    <glyph glyph-name="quoteright" unicode="&#x2019;" horiz-adv-x="192" 
d="M40 498l43 215h69l-60 -215h-52z" />
    <glyph glyph-name="quotesinglbase" unicode="&#x201a;" horiz-adv-x="185" 
d="M40 -103l60 214h52l-43 -214h-69z" />
    <glyph glyph-name="quotedblleft" unicode="&#x201c;" horiz-adv-x="340" 
d="M248 713h52l-43 -214h-70zM40 499l61 214h51l-43 -214h-69z" />
    <glyph glyph-name="quotedblright" unicode="&#x201d;" horiz-adv-x="340" 
d="M231 713h69l-61 -214h-52zM40 499l43 214h69l-60 -214h-52z" />
    <glyph glyph-name="quotedblbase" unicode="&#x201e;" horiz-adv-x="330" 
d="M242 111h52l-43 -214h-69zM100 111h52l-43 -214h-69z" />
    <glyph glyph-name="dagger" unicode="&#x2020;" horiz-adv-x="564" 
d="M248 500v194h64v-194h172v-58h-172l-3 -519h-58l-3 519h-172v58h172z" />
    <glyph glyph-name="daggerdbl" unicode="&#x2021;" horiz-adv-x="565" 
d="M76 500h172v194h65v-194h171v-58h-171v-268h172v-57h-172v-194h-65v194h-172v57h172v268h-172v58z" />
    <glyph glyph-name="bullet" unicode="&#x2022;" horiz-adv-x="428" 
d="M339 109h-250v288h250v-288z" />
    <glyph glyph-name="ellipsis" unicode="&#x2026;" horiz-adv-x="736" 
d="M80 99h68v-99h-68v99zM333 99h68v-99h-68v99zM589 99h67v-99h-67v99z" />
    <glyph glyph-name="guilsinglleft" unicode="&#x2039;" horiz-adv-x="263" 
d="M40 276l183 140v-68l-126 -97l126 -108v-69l-183 148v54z" />
    <glyph glyph-name="guilsinglright" unicode="&#x203a;" horiz-adv-x="263" 
d="M223 274v-54l-183 -147v68l126 108l-126 98v67z" />
    <glyph glyph-name="fraction" unicode="&#x2044;" horiz-adv-x="126" 
d="M-168 4l-37 24l393 632l37 -25z" />
    <glyph glyph-name="Euro" unicode="&#x20ac;" horiz-adv-x="641" 
d="M80 440h65q6 61 21.5 105t44 72.5t70 42.5t99.5 14q45 0 89.5 -6.5t90.5 -16.5l-2 -54q-47 8 -90.5 12.5t-85.5 4.5q-83 0 -122.5 -40.5t-48.5 -133.5h295v-53h-299v-103h299v-52h-296q8 -96 47.5 -139t125.5 -43q84 0 175 18l3 -57q-98 -20 -179 -20q-60 0 -102.5 14.5
t-70.5 44.5t-44 75.5t-22 106.5h-63v52h61v103h-61v53z" />
    <glyph glyph-name="trademark" unicode="&#x2122;" horiz-adv-x="667" 
d="M308 331v297h67l70 -217l75 217h65v-297h-47v233l-71 -219h-42l-70 219v-233h-47zM76 628h200v-45h-70v-251h-50v251h-80v45z" />
    <glyph glyph-name="minus" unicode="&#x2212;" horiz-adv-x="586" 
d="M80 221v60h426v-60h-426z" />
    <glyph glyph-name="uniFBB2" unicode="&#xfbb2;" 
d="M275 1l-1 74h76v-74h-75z" />
    <glyph glyph-name="uniFBB3" unicode="&#xfbb3;" 
d="M275 -75l-1 75h76v-75h-75z" />
    <glyph glyph-name="uniFBB4" unicode="&#xfbb4;" 
d="M339 75h75v-75h-75v75zM287 75v-75h-75v75h75z" />
    <glyph glyph-name="uniFBB5" unicode="&#xfbb5;" 
d="M339 0h75v-75h-75v75zM287 0v-75h-75v75h75z" />
    <glyph glyph-name="uniFBB6" unicode="&#xfbb6;" 
d="M337 75h75v-75h-75v75zM346 187v-75h-75v75h75zM285 75v-75h-75v75h75z" />
    <glyph glyph-name="uniFBB7" unicode="&#xfbb7;" 
d="M339 0h75v-75h-75v75zM353 -112v-75h-75v75h75zM287 0v-75h-75v75h75z" />
    <glyph glyph-name="uniFBB7" unicode="&#xfbb9;" 
d="M339 0h75v-75h-75v75zM353 -112v-75h-75v75h75zM287 0v-75h-75v75h75z" />
    <glyph glyph-name="uniFE70FE7C" 
d="M-145 850h36v-69q1 -16 12.5 -27.5t27.5 -12.5h8q16 0 28 10t15 25l13 67l36 -6l-11 -58q-1 -3 -1 -6q0 -13 11.5 -22t27.5 -10h45v113h36v-113q0 -41 -41 -41h-40q-18 0 -33 8t-25 21q-11 -14 -28 -21.5t-35 -7.5q-34 0 -58 23.5t-24 58.5v68zM139 994l9 -35l-289 -62
l-7 36zM-148 1048l287 62l9 -35l-289 -62z" />
    <glyph glyph-name="uniFB8E.alt" horiz-adv-x="1095" 
d="M135 335v-162q0 -48 30 -78t80 -30h659q29 0 50 21t21 50v66q0 32 -22 54t-54 22h-451l-40 38l252 295l40 -37l-200 -236h398q27 0 51 -10.5t42 -28.5t28.5 -42t10.5 -51v-74q0 -27 -10.5 -51t-28.5 -42t-42 -28.5t-51 -10.5h-643q-39 0 -71 13.5t-55.5 36.5t-36 54.5
t-12.5 68.5v162h55z" />
    <glyph glyph-name="uniFB8F.alt" horiz-adv-x="1141" 
d="M80 335h55v-162q0 -48 30 -78t80 -30h659q29 0 50 21t21 50v66q0 32 -22 54t-54 22h-451l-40 38l252 295l40 -37l-200 -236h398q27 0 51 -10.5t42 -28.5t28.5 -42t10.5 -51v-60q0 -34 23.5 -57.5t57.5 -23.5h30q6 0 10 -4.5t4 -10.5v-36q0 -14 -14 -14h-20q-36 0 -66 17
t-49 51q-18 -34 -45.5 -51t-62.5 -17h-643q-39 0 -71 13.5t-55.5 36.5t-36 54.5t-12.5 68.5v162z" />
    <glyph glyph-name="uniFB91.alt" horiz-adv-x="786" 
d="M-14 15v36q0 14 14 14h549q29 0 50 21t21 50v66q0 32 -22 54t-54 22h-451l-41 38l252 295l40 -37l-200 -236h399q27 0 51 -10.5t42 -28.5t28.5 -42t10.5 -51v-61q0 -33 24 -56.5t57 -23.5h30q14 0 14 -14v-37q0 -5 -4 -9.5t-10 -4.5h-20q-36 0 -66 17.5t-49 50.5
q-17 -34 -45 -51t-63 -17h-543q-6 0 -10 4.5t-4 10.5z" />
    <glyph glyph-name="uniFB90.alt" horiz-adv-x="740" 
d="M-14 15v36q0 14 14 14h549q29 0 50 21t21 50v66q0 32 -22 54t-54 22h-451l-41 38l252 295l40 -37l-200 -236h399q27 0 51 -10.5t42 -28.5t28.5 -42t10.5 -51v-74q0 -27 -10.5 -51t-28.5 -42t-42 -28.5t-51 -10.5h-543q-6 0 -10 4.5t-4 10.5z" />
    <glyph glyph-name="uniFB92.alt" horiz-adv-x="1095" 
d="M135 335v-162q0 -48 30 -78t80 -30h659q29 0 50 21t21 50v66q0 32 -22 54t-54 22h-451l-40 38l252 295l40 -37l-200 -236h398q27 0 51 -10.5t42 -28.5t28.5 -42t10.5 -51v-74q0 -27 -10.5 -51t-28.5 -42t-42 -28.5t-51 -10.5h-643q-39 0 -71 13.5t-55.5 36.5t-36 54.5
t-12.5 68.5v162h55zM567 660l33 -27l-192 -226l-32 27z" />
    <glyph glyph-name="uniFB93.alt" horiz-adv-x="1141" 
d="M80 335h55v-162q0 -48 30 -78t80 -30h659q29 0 50 21t21 50v66q0 32 -22 54t-54 22h-451l-40 38l252 295l40 -37l-200 -236h398q27 0 51 -10.5t42 -28.5t28.5 -42t10.5 -51v-60q0 -34 23.5 -57.5t57.5 -23.5h30q6 0 10 -4.5t4 -10.5v-36q0 -14 -14 -14h-20q-36 0 -66 17
t-49 51q-18 -34 -45.5 -51t-62.5 -17h-643q-39 0 -71 13.5t-55.5 36.5t-36 54.5t-12.5 68.5v162zM378 433l190 226l32 -27l-192 -226z" />
    <glyph glyph-name="uniFB95.alt" horiz-adv-x="826" 
d="M-14 51q0 14 14 14h589q29 0 50 21t21 50v66q0 32 -22 54t-54 22h-451l-41 38l252 295l40 -37l-200 -236h399q27 0 51 -10.5t42 -28.5t28.5 -42t10.5 -51v-61q0 -33 24 -56.5t57 -23.5h30q14 0 14 -14v-37q0 -5 -4 -9.5t-10 -4.5h-20q-36 0 -66 17.5t-49 50.5
q-17 -34 -45 -51t-63 -17h-583q-6 0 -10 4.5t-4 10.5v36zM61 434l191 226l32 -27l-193 -227z" />
    <glyph glyph-name="uniFB94.alt" horiz-adv-x="780" 
d="M-14 51q0 14 14 14h589q29 0 50 21t21 50v66q0 32 -22 54t-54 22h-451l-41 38l252 295l40 -37l-200 -236h399q27 0 51 -10.5t42 -28.5t28.5 -42t10.5 -51v-74q0 -27 -10.5 -51t-28.5 -42t-42 -28.5t-51 -10.5h-583q-6 0 -10 4.5t-4 9.5v37zM253 659l31 -26l-193 -227
l-29 27z" />
  </font>
</defs>
</svg>
