<?xml version="1.0" standalone="no"?>
<!DOCTYPE svg PUBLIC "-//W3C//DTD SVG 1.1//EN" "http://www.w3.org/Graphics/SVG/1.1/DTD/svg11.dtd" >
<svg xmlns="http://www.w3.org/2000/svg" xmlns:xlink="http://www.w3.org/1999/xlink" version="1.1">
<metadata>
Created by FontForge 20170731 at Wed Jun 10 09:39:48 2020
 By Aleksey,,,
Copyright (c) 2019 by www.fontiran.com All rights reserved.
</metadata>
<defs>
<font id="PeydaWeb-Medium" horiz-adv-x="0" >
  <font-face 
    font-family="PeydaWeb Med"
    font-weight="500"
    font-stretch="normal"
    units-per-em="1000"
    panose-1="0 0 0 0 0 0 0 0 0 0"
    ascent="800"
    descent="-200"
    x-height="499"
    cap-height="687"
    bbox="-214 -417 1456 1166"
    underline-thickness="50"
    underline-position="-175"
    unicode-range="U+000D-FEFC"
  />
<missing-glyph horiz-adv-x="250" 
 />
    <glyph glyph-name="uniFDF2" unicode="&#x627;&#xfedf;&#xfee0;&#xfeea;" horiz-adv-x="1265" arabic-form="isolated" 
d="M70 246q0 62 35 106t89 58l133 35v84h82v-360q0 -29 22.5 -50t52.5 -21h77q27 0 46 19.5t19 45.5v290h82v-294q2 -26 20 -43.5t42 -17.5h81q26 0 45.5 19t19.5 46v397h82v-397q0 -33 -13 -63t-35 -52t-51.5 -35t-62.5 -13h-48q-36 0 -67 15.5t-53 40.5q-23 -25 -54 -40.5
t-67 -15.5h-62q-46 0 -83 25t-57 63q-8 -5 -18.5 -8.5t-22.5 -3.5h-129q-48 0 -76.5 28.5t-28.5 76.5v65zM1119 0v668h83v-668h-83zM507 718h58v-80q0 -12 9.5 -21t20.5 -9h6q11 0 21 8t12 19l16 77l57 -10l-13 -67q-1 -3 -1 -6q0 -9 8.5 -15t19.5 -6h42v113h58v-114
q0 -26 -18.5 -44.5t-44.5 -18.5h-37q-17 0 -32 7t-26 21q-12 -14 -28.5 -21t-34.5 -7q-19 0 -36 7.5t-29.5 20t-20 30t-7.5 36.5v80zM152 173h175v182l-113 -30q-28 -7 -45 -30.5t-17 -52.5v-69zM640 756v146h57v-146h-57z" />
    <glyph glyph-name="uniFEF5" unicode="&#xfedf;&#xfe82;" horiz-adv-x="542" arabic-form="isolated" 
d="M56 60l108 14l-48 518l83 12l46 -520l86 11q33 5 52.5 27t19.5 58v488h82v-488q0 -72 -40.5 -116t-102.5 -53l-275 -39zM-20 629v44q1 35 25 59t59 24h196v-73h-201q-6 0 -10.5 -4.5t-4.5 -10.5v-39h-64z" />
    <glyph glyph-name="uniFEF6" unicode="&#xfee0;&#xfe82;" horiz-adv-x="599" arabic-form="final" 
d="M164 73l-48 519l82 11l46 -520l87 12q33 4 52.5 26t19.5 58v489h82v-507q0 -32 21 -47.5t48 -15.5h45q14 0 14 -14v-70q0 -5 -4 -9.5t-10 -4.5h-36q-38 0 -69.5 16.5t-53.5 43.5q-38 -41 -98 -49l-275 -39l-11 87zM-19 673q1 35 24.5 59t58.5 24h196v-73h-201
q-6 0 -10.5 -4.5t-4.5 -10.5v-39h-63v44z" />
    <glyph glyph-name="uniFEF7" unicode="&#xfedf;&#xfe84;" horiz-adv-x="541" arabic-form="isolated" 
d="M52 59l108 14l-48 518l83 12l46 -520l86 11q33 5 52.5 27t19.5 58v488h82v-488q0 -72 -40.5 -116t-102.5 -53l-275 -38zM129 717q-1 0 -7 2.5t-11 13.5q-2 3 -8 14.5t-10 18.5q-10 20 -10 40.5t7.5 38t21 31.5t31.5 21l77 32l24 -59l-77 -34q-13 -5 -17 -15t-4 -16
q0 -9 5 -17q2 -5 10.5 -21.5t13.5 -25.5l129 66l27 -56l-249 -128l-29 59z" />
    <glyph glyph-name="uniFEF8" unicode="&#xfee0;&#xfe84;" horiz-adv-x="595" arabic-form="final" 
d="M160 72l-48 519l82 11l46 -520l87 12q33 4 52.5 26t19.5 58v489h82v-507q0 -32 21 -47.5t48 -15.5h45q14 0 14 -14v-70q0 -5 -4 -9.5t-10 -4.5h-36q-38 0 -69.5 16.5t-53.5 43.5q-38 -41 -98 -49l-275 -39l-11 87zM58 682l76 35q-1 0 -7 2.5t-11 12.5q-2 3 -8 15t-9 19
q-10 20 -10 40.5t7 38t20.5 31.5t31.5 21l77 32l24 -59l-77 -34q-12 -5 -16.5 -15.5t-4.5 -16.5q0 -8 5 -16q3 -5 11.5 -21.5t13.5 -26.5l128 67l28 -57l-250 -127z" />
    <glyph glyph-name="uniFEF9" unicode="&#xfedf;&#xfe88;" horiz-adv-x="540" arabic-form="isolated" 
d="M51 59l108 14l-48 518l83 12l46 -520l86 11q33 5 52.5 27t19.5 58v488h82v-488q0 -72 -40.5 -116t-102.5 -53l-275 -38zM124 -303q23 11 41 19q-1 1 -7.5 3.5t-12.5 13.5q-1 2 -7 13.5t-9 18.5q-10 21 -10 41t7 38t20.5 31.5t31.5 21.5l77 32l24 -59l-77 -34
q-12 -5 -16.5 -15.5t-4.5 -17.5q0 -8 5 -16q2 -5 11 -21.5t14 -26.5q19 10 41 21.5t42 21.5q22 12 45 24l28 -56l-251 -127l-28 58q12 6 36 16z" />
    <glyph glyph-name="uniFEFA" unicode="&#xfee0;&#xfe88;" horiz-adv-x="594" arabic-form="final" 
d="M159 73l-48 519l82 11l46 -520l87 12q33 4 52.5 26t19.5 58v489h82v-507q0 -32 21 -47.5t48 -15.5h45q14 0 14 -14v-70q0 -5 -4 -9.5t-10 -4.5h-36q-38 0 -69.5 16.5t-53.5 43.5q-38 -41 -98 -49l-275 -39l-11 87zM164 -283q-1 1 -7.5 3t-12.5 13l-7 14q-6 12 -9 19
q-10 20 -10 40.5t7.5 38t21 31.5t31.5 21l76 32l25 -59l-78 -34q-12 -5 -16 -15.5t-4 -16.5q0 -8 4 -16q3 -5 11.5 -21.5t13.5 -26.5q19 10 40.5 21t40.5 21t32 17t15 8l28 -56l-250 -128l-28 59z" />
    <glyph glyph-name="uniFEFB" unicode="&#xfedf;&#xfe8e;" horiz-adv-x="540" arabic-form="isolated" 
d="M159 74l-48 518l83 12l46 -520l86 11q33 5 52.5 27t19.5 58v488h82v-488q0 -72 -40.5 -116t-102.5 -53l-275 -39l-11 88z" />
    <glyph glyph-name="uniFEFC" unicode="&#xfee0;&#xfe8e;" horiz-adv-x="594" arabic-form="final" 
d="M159 73l-48 519l82 11l46 -520l87 12q33 4 52.5 26t19.5 58v489h82v-507q0 -32 21 -47.5t48 -15.5h45q14 0 14 -14v-70q0 -5 -4 -9.5t-10 -4.5h-36q-38 0 -69.5 16.5t-53.5 43.5q-38 -41 -98 -49l-275 -39l-11 87z" />
    <glyph glyph-name="uniFEB3FBFD" unicode="&#xfeb3;&#xfbfd;" horiz-adv-x="1323" 
d="M70 -6v247h82v-233q0 -26 10 -48.5t26.5 -39.5t39.5 -26.5t48 -9.5h189q21 0 39 7.5t32 21t21.5 31.5t7.5 39v36l-244 57v88q0 38 13.5 70.5t36.5 57t53 40.5t63 20l54 8q12 2 24 2q34 0 72.5 -18t65.5 -57l92 -139q13 -20 33.5 -35t47.5 -15q28 0 48.5 16.5t25.5 41.5
l33 165l81 -14l-28 -139q-1 -4 -1 -9q0 -8 3.5 -19t12 -20.5t21 -15.5t26.5 -6h83v258h82v-255q0 -44 -28 -72.5t-73 -28.5h-64q-67 0 -104 65q-21 -33 -52 -49t-68 -16q-45 0 -79 24t-66 73l-84 129q-16 24 -39.5 35t-44.5 11q-6 0 -13 -1l-64 -8q-37 -5 -59.5 -33.5
t-22.5 -65.5v-20l169 -39q35 -8 55.5 -34.5t20.5 -61.5v-35q0 -39 -13 -73.5t-37 -60t-57 -40t-72 -14.5h-190q-43 0 -81 16.5t-66 44.5t-44.5 66t-16.5 81z" />
    <glyph glyph-name="uniFEB4FBFD" unicode="&#xfeb4;&#xfbfd;" horiz-adv-x="1365" 
d="M70 -8v248h82v-234q0 -26 9.5 -48.5t26.5 -39t39.5 -26.5t48.5 -10h189q21 0 39.5 7.5t32 21t21 30.5t7.5 35v5v36l-244 58v87q0 38 14 70.5t37 57.5t52.5 41t62.5 20l53 8q11 1 22 1q36 0 75 -18t66 -57l92 -139q14 -20 34.5 -34.5t46.5 -14.5q28 0 48.5 16t25.5 41
l33 166l80 -15l-27 -139q-1 -6 -1 -11q0 -21 17 -39.5t46 -18.5h14q28 0 46.5 19t18.5 46v192h82v-196q0 -26 19.5 -43t45.5 -17h41q6 0 10.5 -4t4.5 -11v-69q-2 -14 -15 -14h-27q-36 0 -67 16t-52 48q-23 -32 -50.5 -48.5t-63.5 -16.5q-33 0 -63 16t-48 49q-21 -33 -52 -49
t-67 -16q-46 0 -80.5 23.5t-66.5 72.5l-83 130q-16 23 -40.5 34t-48.5 11h-8l-65 -9q-18 -3 -33 -11.5t-26 -22t-17.5 -30t-6.5 -34.5v-21l171 -39q34 -8 55 -34t21 -62v-35q0 -39 -13 -73t-37 -59.5t-56.5 -40.5t-71.5 -15h-192q-43 0 -81 16.5t-66 45t-44 66t-16 80.5z
" />
    <glyph glyph-name="uniFEB7FBFD" unicode="&#xfeb7;&#xfbfd;" horiz-adv-x="1320" 
d="M70 -7v248h82v-235q0 -25 10 -47.5t26.5 -39t39.5 -26.5t48 -10h189q42 0 71 28.5t29 70.5v35l-244 58v88q0 38 14 70.5t37 57t52.5 40.5t62.5 21l53 7q12 2 24 2q34 0 73.5 -18t65.5 -57l92 -139q13 -20 33.5 -34.5t46.5 -14.5q29 0 49.5 16t25.5 40l32 166l82 -14
l-28 -139q-1 -5 -1 -10q0 -22 17 -40.5t45 -18.5h83v257h83v-255q0 -44 -28.5 -72t-73.5 -28h-64q-32 0 -58.5 15t-44.5 49q-21 -34 -52 -49t-68 -15q-46 0 -80 23t-66 72l-83 130q-15 23 -39.5 34t-46.5 11q-5 0 -11 -1l-65 -8q-18 -3 -32.5 -11.5t-25.5 -22t-17 -30
t-6 -34.5v-20l169 -39q34 -8 55 -34.5t21 -61.5v-35q0 -39 -13 -73.5t-37 -60t-57 -40t-72 -14.5h-191q-43 0 -81 16.5t-66 44.5t-44 66t-16 81zM1101 524v-94h-95v94h95zM931 656h94v-94h-94v94zM953 524v-94h-94v94h94z" />
    <glyph glyph-name="uniFEB8FBFD" unicode="&#xfeb8;&#xfbfd;" horiz-adv-x="1365" 
d="M152 242v-234q0 -26 10 -48.5t26.5 -39t39.5 -26.5t48 -10h189q42 0 70.5 28.5t28.5 70.5v36l-243 58v87q0 38 14 70.5t37 57.5t52.5 41t62.5 20l53 8q10 1 20 1q13 0 31.5 -3t39.5 -12.5t39.5 -24.5t31.5 -35l93 -139q14 -20 34.5 -35t46.5 -15q28 0 48.5 16.5
t25.5 41.5l33 166l81 -15l-28 -139q-1 -6 -1 -11q0 -21 17 -40t46 -19h14q28 0 46.5 19.5t18.5 46.5v192h82v-196q0 -26 19.5 -44t45.5 -18h41q6 0 10.5 -4t4.5 -10v-70q-2 -14 -15 -14h-27q-36 0 -67 17t-52 49q-23 -32 -50.5 -49t-63.5 -17q-33 0 -63 16.5t-48 49.5
q-20 -33 -51 -49.5t-68 -16.5q-46 0 -80.5 24t-66.5 73l-84 130q-15 23 -39.5 34t-48.5 11h-8l-65 -9q-18 -3 -33 -11.5t-26 -22t-17 -30t-6 -34.5v-21l170 -39q34 -8 54.5 -34t20.5 -62v-35q0 -39 -13 -73t-36.5 -59.5t-56 -40.5t-71.5 -15h-192q-43 0 -81 16.5t-66 45
t-44 66t-16 80.5v248h82zM954 525v-95h-95v95h95zM930 657h95v-95h-95v95zM1006 430v95h95v-95h-95z" />
    <glyph glyph-name="uniFEBBFBFD" unicode="&#xfebb;&#xfbfd;" horiz-adv-x="1400" 
d="M70 -7v247h82v-234q0 -26 9.5 -48.5t26.5 -39.5t40 -27t49 -10h189q21 0 39 8t31 22t20.5 32t7.5 39v35l-242 58v87q0 39 14 71.5t36.5 57.5t53 40.5t63.5 19.5l63 8q12 2 24 2q34 0 72 -17.5t63 -56.5l79 -121q5 -7 14.5 -19t14.5 -18l161 174q30 32 69.5 50t84.5 18h61
q30 0 57 -11.5t47 -32t31.5 -47.5t11.5 -57v-67q0 -32 -12 -60.5t-33 -49.5t-49 -33.5t-60 -12.5h-302q-49 0 -83 23.5t-66 71.5l-83 130q-15 24 -38 35t-44 11q-7 0 -14 -1l-73 -9q-18 -2 -33 -10.5t-26.5 -22t-17.5 -30t-6 -34.5v-23l169 -38q34 -8 54.5 -33.5t20.5 -60.5
v-36q0 -39 -13 -73.5t-36.5 -60.5t-56 -41t-70.5 -15h-192q-43 0 -81 16.5t-66 45t-44.5 67t-16.5 81.5zM1199 98q26 0 43.5 17t17.5 43v58q0 26 -18.5 44.5t-44.5 18.5h-72q-29 0 -54 -12t-45 -32l-129 -137h302z" />
    <glyph glyph-name="uniFEBCFBFD" unicode="&#xfebc;&#xfbfd;" horiz-adv-x="1442" 
d="M68 -8v250h82v-236q0 -26 10 -48.5t27 -39.5t40 -26.5t49 -9.5h191q20 0 38 8t31.5 21.5t21.5 31.5t8 38v35l-246 58v88q0 38 14 70.5t37 58t54 41.5t64 20l64 9q11 1 22 1q36 0 75.5 -17t65.5 -59q1 -1 9 -14t18.5 -29.5t21 -32.5t14.5 -24q2 -2 8 -10t12.5 -17.5
t13 -17.5t7.5 -10l160 173q30 32 70 50t85 18h61q31 0 58 -12t47.5 -32.5t32.5 -47.5t12 -58v-57q0 -27 18.5 -47t44.5 -20h33q14 0 14 -14v-70q0 -5 -4 -9.5t-10 -4.5h-19q-36 0 -66 13.5t-51 38.5q-21 -25 -51.5 -38.5t-66.5 -13.5h-300q-50 0 -83 23t-65 71l-84 130
q-16 24 -39.5 34.5t-45.5 10.5q-7 0 -14 -1l-71 -8q-18 -2 -33.5 -11t-27.5 -22t-18.5 -29.5t-6.5 -34.5v-22l171 -37q35 -8 56 -34.5t21 -61.5v-36q0 -39 -13 -73.5t-36.5 -60t-56 -40t-71.5 -14.5h-194q-43 0 -81 16t-66.5 44.5t-45 66t-16.5 81.5zM1202 98
q25 0 42.5 17.5t17.5 41.5v59q0 25 -18.5 43t-43.5 18h-74q-28 0 -54 -11.5t-45 -31.5l-127 -136h302z" />
    <glyph glyph-name="uniFEBFFBFD" unicode="&#xfebf;&#xfbfd;" horiz-adv-x="1400" 
d="M70 -7v247h82v-234q0 -26 9.5 -48.5t26.5 -39.5t40 -27t49 -10h189q21 0 39 8t31 22t20.5 32t7.5 39v35l-242 58v87q0 39 14 71.5t36.5 57.5t53 40.5t63.5 19.5l63 8q12 2 24 2q34 0 72 -17.5t63 -56.5l79 -121q5 -7 14.5 -19t14.5 -18l161 174q30 32 69.5 50t84.5 18h61
q30 0 57 -11.5t47 -32t31.5 -47.5t11.5 -57v-67q0 -32 -12 -60.5t-33 -49.5t-49 -33.5t-60 -12.5h-302q-49 0 -83 23.5t-66 71.5l-83 130q-15 24 -38 35t-44 11q-7 0 -14 -1l-73 -9q-18 -2 -33 -10.5t-26.5 -22t-17.5 -30t-6 -34.5v-23l169 -38q34 -8 54.5 -33.5t20.5 -60.5
v-36q0 -39 -13 -73.5t-36.5 -60.5t-56 -41t-70.5 -15h-192q-43 0 -81 16.5t-66 45t-44.5 67t-16.5 81.5zM897 98h302q26 0 43.5 17t17.5 43v58q0 26 -18.5 44.5t-44.5 18.5h-72q-29 0 -54 -12t-45 -32zM1102 478v96h95v-96h-95z" />
    <glyph glyph-name="uniFEC0FBFD" unicode="&#xfec0;&#xfbfd;" horiz-adv-x="1439" 
d="M70 -7v248h82v-234q0 -26 9.5 -48.5t26.5 -39.5t39.5 -26.5t48.5 -9.5h190q21 0 39 7.5t31.5 21t21 31.5t7.5 39v36l-244 57v87q0 37 13.5 69.5t37 58t54 41.5t63.5 20l64 9q11 1 22 1q35 0 74 -17t65 -57q1 -1 9.5 -14.5t19 -30.5t21.5 -33t16 -24q1 -2 7 -10.5
t12.5 -17.5t12.5 -17t8 -10l159 174q30 32 69.5 49.5t84.5 17.5h61q30 0 57.5 -11.5t47.5 -32t32 -47.5t12 -58v-57q0 -26 18.5 -46.5t44.5 -20.5h33q15 0 15 -14v-70q0 -6 -4.5 -10t-10.5 -4h-19q-35 0 -65 14.5t-51 39.5q-21 -25 -51.5 -39.5t-65.5 -14.5h-300
q-49 0 -82.5 23.5t-65.5 72.5l-83 129q-17 24 -40 34.5t-45 10.5q-7 0 -14 -1l-72 -8q-35 -5 -58.5 -33.5t-23.5 -64.5v-22l168 -37q34 -8 55 -34t21 -61v-37q0 -39 -13.5 -73t-37 -59.5t-56 -40t-70.5 -14.5h-192q-43 0 -81 16.5t-66 44.5t-44.5 66t-16.5 81zM897 98h303
q25 0 43 17.5t18 41.5v59q0 26 -18.5 44t-44.5 18h-73q-29 0 -54.5 -11.5t-45.5 -31.5zM1106 575h95v-95h-95v95z" />
    <glyph glyph-name="uniFE92FBFD" unicode="&#xfe92;&#xfbfd;" horiz-adv-x="915" 
d="M152 240v-233q0 -26 9.5 -49t26.5 -39.5t39.5 -26t48.5 -9.5h189q42 0 70.5 28.5t28.5 70.5v36l-242 57v87q0 36 13.5 68.5t36.5 57.5t53 42t63 21l65 8q12 2 24 2q34 0 71 -17.5t63 -55.5q8 -11 23 -34t31 -47q18 -29 39 -61q14 -20 35 -34t50 -14h26q6 0 10 -4.5
t4 -9.5v-69q0 -6 -4 -10.5t-10 -4.5h-26q-49 0 -83.5 23.5t-66.5 72.5l-84 130q-16 24 -39.5 35t-44.5 11q-7 0 -14 -1l-73 -9q-37 -5 -59.5 -33.5t-22.5 -65.5v-23l169 -37q34 -8 54.5 -34t20.5 -61v-36q0 -39 -13 -73t-37 -59.5t-56.5 -40t-71.5 -14.5h-190
q-43 0 -81 16.5t-66 45t-44.5 66t-16.5 80.5v247h82zM729 -121h94v-95h-94v95z" />
    <glyph glyph-name="uniFB59FBFD" unicode="&#xfb59;&#xfbfd;" horiz-adv-x="989" 
d="M70 -7v247h82v-233q0 -26 9.5 -49t26.5 -39.5t39.5 -26t48.5 -9.5h189q42 0 70.5 28.5t28.5 70.5v36l-242 57v87q0 36 13.5 68.5t36.5 57.5t53 42t63 21l65 8q12 2 24 2q34 0 71 -17.5t63 -55.5q8 -11 23 -34t31 -47q18 -29 39 -61q14 -20 35 -34t50 -14h100q6 0 10 -4.5
t4 -9.5v-69q0 -6 -4 -10.5t-10 -4.5h-100q-49 0 -83.5 23.5t-66.5 72.5l-84 130q-16 24 -39.5 35t-44.5 11q-7 0 -14 -1l-73 -9q-37 -5 -59.5 -33.5t-22.5 -65.5v-23l169 -37q34 -8 54.5 -34t20.5 -61v-36q0 -39 -13 -73t-37 -59.5t-56.5 -40t-71.5 -14.5h-190
q-43 0 -81 16.5t-66 45t-44.5 66t-16.5 80.5zM693 -215v95h95v-95h-95zM862 -252v-95h-95v95h95zM935 -120v-95h-95v95h95z" />
    <glyph glyph-name="uniFE98FBFD" unicode="&#xfe98;&#xfbfd;" horiz-adv-x="915" 
d="M152 240v-233q0 -26 9.5 -49t26.5 -39.5t39.5 -26t48.5 -9.5h189q42 0 70.5 28.5t28.5 70.5v36l-242 57v87q0 36 13.5 68.5t36.5 57.5t53 42t63 21l65 8q12 2 24 2q34 0 71 -17.5t63 -55.5q8 -11 23 -34t31 -47q18 -29 39 -61q14 -20 35 -34t50 -14h26q6 0 10 -4.5
t4 -9.5v-69q0 -6 -4 -10.5t-10 -4.5h-26q-49 0 -83.5 23.5t-66.5 72.5l-84 130q-16 24 -39.5 35t-44.5 11q-7 0 -14 -1l-73 -9q-37 -5 -59.5 -33.5t-22.5 -65.5v-23l169 -37q34 -8 54.5 -34t20.5 -61v-36q0 -39 -13 -73t-37 -59.5t-56.5 -40t-71.5 -14.5h-190
q-43 0 -81 16.5t-66 45t-44.5 66t-16.5 80.5v247h82zM776 578v-95h-95v95h95zM534 578h95v-95h-95v95z" />
    <glyph glyph-name="uniFE9CFBFD" unicode="&#xfe9c;&#xfbfd;" horiz-adv-x="915" 
d="M152 240v-233q0 -26 9.5 -49t26.5 -39.5t39.5 -26t48.5 -9.5h189q42 0 70.5 28.5t28.5 70.5v36l-242 57v87q0 36 13.5 68.5t36.5 57.5t53 42t63 21l65 8q12 2 24 2q34 0 71 -17.5t63 -55.5q8 -11 23 -34t31 -47q18 -29 39 -61q14 -20 35 -34t50 -14h26q6 0 10 -4.5
t4 -9.5v-69q0 -6 -4 -10.5t-10 -4.5h-26q-49 0 -83.5 23.5t-66.5 72.5l-84 130q-16 24 -39.5 35t-44.5 11q-7 0 -14 -1l-73 -9q-37 -5 -59.5 -33.5t-22.5 -65.5v-23l169 -37q34 -8 54.5 -34t20.5 -61v-36q0 -39 -13 -73t-37 -59.5t-56.5 -40t-71.5 -14.5h-190
q-43 0 -81 16.5t-66 45t-44.5 66t-16.5 80.5v247h82zM605 713h98v-98h-98v98zM532 578h98v-97h-98v97zM682 481v97h97v-97h-97z" />
    <glyph glyph-name="uniFEE8FBFD" unicode="&#xfee8;&#xfbfd;" horiz-adv-x="912" 
d="M152 241v-234q0 -26 9.5 -48.5t26 -39.5t39 -26.5t48.5 -9.5h189q42 0 70.5 28.5t28.5 70.5v36l-243 57v87q0 36 14 68.5t36.5 57.5t53 42t63.5 21l64 8q12 2 24 2q34 0 72 -17.5t64 -55.5q7 -11 22 -34.5t31 -46.5q18 -28 39 -60q13 -20 34 -34.5t50 -14.5h25
q14 0 14 -14v-70q0 -6 -4.5 -10t-9.5 -4h-26q-49 0 -83 23.5t-66 71.5l-84 130q-15 24 -38.5 35t-45.5 11q-7 0 -14 -1l-73 -10q-36 -5 -59.5 -33t-23.5 -64v-23l171 -36q34 -7 54.5 -33.5t20.5 -61.5v-36q0 -39 -13 -73.5t-36.5 -60t-56 -40t-71.5 -14.5h-191
q-43 0 -81 16.5t-66 44.5t-44.5 66t-16.5 81v248h83zM702 578v-95h-95v95h95z" />
    <glyph glyph-name="uniFBFDFE8C" unicode="&#xfe8c;&#xfbfd;" horiz-adv-x="913" 
d="M70 -7v248h83v-234q0 -26 9.5 -48.5t26 -39.5t39 -26.5t48.5 -9.5h189q42 0 70.5 28.5t28.5 70.5v36l-243 57v87q0 36 14 68.5t36.5 57.5t53 42t63.5 21l64 8q12 2 24 2q34 0 72 -17.5t64 -55.5q7 -11 22 -34.5t31 -46.5q18 -28 39 -60q13 -20 34 -34.5t50 -14.5h25
q14 0 14 -14v-70q0 -6 -4.5 -10t-9.5 -4h-26q-49 0 -83 23.5t-66 71.5l-84 130q-15 24 -38.5 35t-45.5 11q-7 0 -14 -1l-73 -10q-36 -5 -59.5 -33t-23.5 -64v-23l171 -36q34 -7 54.5 -33.5t20.5 -61.5v-36q0 -39 -13 -73.5t-36.5 -60t-56 -40t-71.5 -14.5h-191
q-43 0 -81 16.5t-66 44.5t-44.5 66t-16.5 81zM496 505l74 34q-1 1 -6 3.5t-10 12.5q-2 4 -8 15.5t-9 18.5q-10 21 -10 41t7 37.5t20.5 31.5t31.5 21l77 32l24 -59l-77 -34q-12 -5 -16.5 -15.5t-4.5 -16.5q0 -8 5 -16q4 -7 12 -23.5t13 -24.5l128 67l28 -56l-250 -128z" />
    <glyph glyph-name="uniFBFDFBFF" unicode="&#xfbff;&#xfbfd;" horiz-adv-x="988" 
d="M70 -7v247h82v-233q0 -26 9.5 -49t26.5 -39.5t39.5 -26t48.5 -9.5h189q42 0 70.5 28.5t28.5 70.5v36l-242 57v87q0 36 13.5 68.5t36.5 57.5t53 42t63 21l65 8q12 2 24 2q34 0 71 -17.5t63 -55.5q8 -11 23 -34t31 -47q18 -29 39 -61q14 -20 35 -34t50 -14h100q6 0 10 -4.5
t4 -9.5v-69q0 -6 -4 -10.5t-10 -4.5h-100q-49 0 -83.5 23.5t-66.5 72.5l-84 130q-16 24 -39.5 35t-44.5 11q-7 0 -14 -1l-73 -9q-37 -5 -59.5 -33.5t-22.5 -65.5v-23l169 -37q34 -8 54.5 -34t20.5 -61v-36q0 -39 -13 -73t-37 -59.5t-56.5 -40t-71.5 -14.5h-190
q-43 0 -81 16.5t-66 45t-44.5 66t-16.5 80.5zM845 -120h95v-95h-95v95zM698 -215v95h95v-95h-95z" />
    <glyph glyph-name="uni0621" unicode="&#x621;" horiz-adv-x="454" arabic-form="isolated" 
d="M66 52l89 46q-2 0 -10 4.5t-15 18.5l-17 33q-12 24 -12 47.5t8.5 44t24.5 36.5t37 25l90 37l30 -69l-90 -39q-17 -8 -21.5 -19.5t-4.5 -18.5q0 -9 5 -18q2 -3 5 -10t7 -15l8 -17q4 -9 7 -15l150 79l33 -67l-293 -149z" />
    <glyph glyph-name="uni0622" unicode="&#x622;" horiz-adv-x="254" arabic-form="isolated" 
d="M98 588h82v-588h-82v588zM-30 614v43q0 38 24 60.5t59 22.5h196v-72h-192q-10 0 -17 -7.5t-7 -16.5v-30h-63z" />
    <glyph glyph-name="uni0623" unicode="&#x623;" horiz-adv-x="218" arabic-form="isolated" 
d="M76 0v588h82v-588h-82zM56 725q-1 1 -7.5 3t-11.5 13q-2 2 -8 14t-9 19q-10 20 -10 40.5t7.5 38t21 31.5t31.5 21l76 32l25 -59l-78 -34q-12 -5 -16 -15.5t-4 -16.5q0 -8 4 -16q2 -5 11 -21.5t14 -26.5l128 67l28 -57l-250 -127l-28 58z" />
    <glyph glyph-name="uni0624" unicode="&#x624;" horiz-adv-x="486" arabic-form="isolated" 
d="M63 166l17 91q10 50 48.5 82t88.5 32h57q31 0 58 -11.5t47 -32t31.5 -47.5t11.5 -57v-218q0 -37 -11 -71t-31.5 -62.5t-49 -50t-63.5 -33.5l-123 -42l-26 81l128 43q42 14 67.5 47t25.5 78v14q-9 -5 -22 -7t-25 -2h-92q-33 0 -61 14t-46.5 37t-25 47t-6.5 42q0 13 2 26z
M72 501l76 35q-1 0 -7.5 2.5t-11.5 13.5q-1 2 -7 13.5t-9 18.5q-10 21 -10.5 31.5t-0.5 11.5q0 19 7.5 36.5t21 31.5t31.5 21l77 32l25 -60l-78 -34q-12 -5 -16.5 -15t-4.5 -16q0 -8 5 -17q2 -5 11 -21.5t14 -26.5l128 68l28 -57l-251 -127zM154 114q14 -17 37 -17h149v127
q0 23 -16.5 38.5t-39.5 15.5h-71q-20 0 -34.5 -12t-18.5 -32l-16 -81q-1 -5 -1 -10q0 -16 11 -29z" />
    <glyph glyph-name="uni0625" unicode="&#x625;" horiz-adv-x="226" arabic-form="isolated" 
d="M76 0v668h83v-668h-83zM56 -261q-1 0 -7.5 2t-11.5 13q-2 2 -7.5 14t-9.5 19q-10 21 -10 41t7.5 38t21 31.5t31.5 20.5l77 32l24 -59l-78 -34q-12 -5 -16 -15t-4 -16q0 -8 4 -16q3 -5 11.5 -21.5t13.5 -26.5l128 66l28 -56l-250 -128l-29 59z" />
    <glyph glyph-name="uni0626" unicode="&#x626;" horiz-adv-x="756" arabic-form="isolated" 
d="M178 266v-217q0 -25 10 -47.5t27 -39.5t39.5 -26.5t48.5 -9.5h209q42 0 70.5 28.5t28.5 70.5v35l-275 65v109q0 38 13 70.5t35.5 57.5t52.5 41t65 20l124 16l13 -88l-141 -19q-36 -4 -59 -32.5t-23 -64.5v-42l202 -46q34 -8 54.5 -32.5t20.5 -59.5v-39q0 -39 -14.5 -73.5
t-40 -60t-59.5 -40t-73 -14.5h-201q-43 0 -81.5 16.5t-66.5 44.5t-44.5 66t-16.5 81v230h82zM70 450q12 5 35 16t40 19l-6 2q-7 5 -12 14l-16 31q-10 21 -10.5 32t-0.5 12q0 19 7.5 36.5t21 31.5t31.5 21l77 32l24 -60l-78 -34q-12 -5 -16 -15t-4 -16q0 -8 4 -16
q3 -5 11.5 -21.5t13.5 -26.5q19 10 41 21t42 22l46 24l28 -57l-251 -127z" />
    <glyph glyph-name="uni0627" unicode="&#x627;" horiz-adv-x="213" arabic-form="isolated" 
d="M70 0v668h82v-668h-82z" />
    <glyph glyph-name="uni0628" unicode="&#x628;" horiz-adv-x="857" arabic-form="isolated" 
d="M71 186v168h82v-157q0 -42 29 -70.5t71 -28.5h401q26 0 45 18.5t19 45.5v192h82v-192q0 -34 -13 -63.5t-35 -51.5t-51.5 -34.5t-63.5 -12.5h-380q-39 0 -72.5 14.5t-59 40t-40 59t-14.5 72.5zM483 -119v-95h-95v95h95z" />
    <glyph glyph-name="uni0629" unicode="&#x629;" horiz-adv-x="493" arabic-form="isolated" 
d="M70 163v33q0 42 18.5 76t46.5 51q10 6 18.5 11t14.5 9q8 4 14 8l-68 45l45 71q56 -37 101 -68q20 -13 39 -26t34.5 -23.5t26.5 -18t14 -9.5q32 -23 46.5 -55.5t14.5 -67.5v-36q0 -32 -12 -63t-34 -55.5t-54 -39.5t-73 -15h-21q-39 0 -70.5 15t-54 39.5t-34.5 55.5t-12 63
zM152 207v-39q0 -31 23.5 -55.5t60.5 -24.5h34q20 0 35 7.5t26 19.5t16.5 26t5.5 27v38q0 13 -6 25.5t-19 21.5q-4 3 -17 11t-27 17q-16 11 -35 23l-74 -52q-10 -8 -16 -18t-7 -27zM369 672v-95h-95v95h95zM127 672h95v-95h-95v95z" />
    <glyph glyph-name="uni062A" unicode="&#x62a;" horiz-adv-x="857" arabic-form="isolated" 
d="M70 186v168h82v-157q0 -42 29 -70.5t71 -28.5h401q26 0 45 18.5t19 45.5v192h82v-192q0 -34 -13 -63.5t-35 -51.5t-51.5 -34.5t-63.5 -12.5h-380q-39 0 -72.5 14.5t-59 40t-40 59t-14.5 72.5zM460 449h95v-95h-95v95zM408 449v-95h-95v95h95z" />
    <glyph glyph-name="uni062B" unicode="&#x62b;" horiz-adv-x="856" arabic-form="isolated" 
d="M152 354v-157q0 -42 28.5 -70.5t70.5 -28.5h401q27 0 46 18.5t19 45.5v192h82v-191q0 -34 -12.5 -63.5t-34.5 -51.5t-51.5 -35t-63.5 -13h-380q-39 0 -73 14.5t-59.5 40t-40 59.5t-14.5 73v167h82zM409 450v-95h-95v95h95zM385 487v95h95v-95h-95zM461 355v95h95v-95h-95
z" />
    <glyph glyph-name="uni062C" unicode="&#x62c;" horiz-adv-x="681" arabic-form="isolated" 
d="M70 249l24 84q8 27 25.5 46.5t40 30.5t38 12.5t21.5 1.5q18 0 34 -5l370 -112l-24 -78l-59 16q-9 3 -18 3q-5 0 -14 -1.5t-20 -9.5l-253 -185q-29 -22 -44.5 -52t-15.5 -64v-4q0 -33 12.5 -62t34 -51t50.5 -34.5t62 -12.5h243v-97h-242q-52 0 -97 19.5t-79 53t-53.5 78.5
t-19.5 96q0 57 25.5 107t70.5 82q21 15 50.5 37t60 44.5t57.5 42t42 30.5q10 7 18 12t11 7l-201 60q-5 2 -11 2q-9 0 -20.5 -7.5t-16.5 -22.5l-28 -87zM453 0v-95h-95v95h95z" />
    <glyph glyph-name="uni062D" unicode="&#x62d;" horiz-adv-x="681" arabic-form="isolated" 
d="M95 333q8 27 25.5 46.5t40 30.5t38 12.5t21.5 1.5q18 0 34 -5l370 -112l-24 -78l-59 16q-9 3 -18 3q-5 0 -14 -1.5t-20 -9.5l-253 -185q-29 -22 -44.5 -52t-15.5 -64v-4q0 -33 12.5 -62t34 -51t50.5 -34.5t62 -12.5h243v-97h-242q-52 0 -97 19.5t-79 53t-53.5 78.5
t-19.5 96q0 57 25.5 107t70.5 82q21 15 50.5 37t60 44.5t57.5 42t42 30.5q10 7 18 12t11 7l-201 60q-5 2 -11 2q-9 0 -20.5 -7.5t-16.5 -22.5l-28 -87l-74 20z" />
    <glyph glyph-name="uni062E" unicode="&#x62e;" horiz-adv-x="681" arabic-form="isolated" 
d="M70 249l24 83q8 28 25.5 47.5t39.5 30t38 12t22 1.5q18 0 34 -5l370 -111l-24 -78l-60 16q-8 2 -16 2q-5 0 -14.5 -1.5t-20.5 -9.5l-253 -184q-29 -22 -45 -53.5t-16 -66.5q0 -33 12.5 -62t34.5 -50.5t51 -34t62 -12.5h243v-98h-243q-51 0 -96.5 19.5t-79 53.5t-53 78.5
t-19.5 95.5q0 57 25.5 107t70.5 82q21 15 50.5 36.5t60 44t57.5 42.5t42 31q9 7 17.5 12t11.5 7l-201 59q-6 2 -11 2q-9 0 -20.5 -7t-16.5 -22l-28 -87zM156 533v95h95v-95h-95z" />
    <glyph glyph-name="uni062F" unicode="&#x62f;" horiz-adv-x="557" arabic-form="isolated" 
d="M141 231v-97q0 -15 9 -25.5t26 -10.5h159q26 0 44 11.5t26.5 29t8.5 37.5t-10 37l-118 211l69 46l121 -215q24 -42 24 -86q0 -2 -0.5 -25.5t-21.5 -60t-58.5 -60t-86.5 -23.5h-146q-24 0 -45 9.5t-37 25t-25 37t-9 45.5v114h70z" />
    <glyph glyph-name="uni0630" unicode="&#x630;" horiz-adv-x="557" arabic-form="isolated" 
d="M141 231v-97q0 -15 9 -25.5t26 -10.5h159q26 0 44 11.5t26.5 29t8.5 37.5t-10 37l-118 211l69 46l121 -215q24 -42 24 -86q0 -2 -0.5 -25.5t-21.5 -60t-58.5 -60t-86.5 -23.5h-146q-24 0 -45 9.5t-37 25t-25 37t-9 45.5v114h70zM226 674h95v-95h-95v95z" />
    <glyph glyph-name="uni0631" unicode="&#x631;" horiz-adv-x="333" arabic-form="isolated" 
d="M89 -128q42 14 66.5 49t24.5 78v327h82v-319q0 -37 -11 -70.5t-31 -62t-48 -50t-63 -33.5l-123 -42l-26 81z" />
    <glyph glyph-name="uni0632" unicode="&#x632;" horiz-adv-x="338" arabic-form="isolated" 
d="M89 -128q42 14 66.5 48.5t24.5 78.5v326h82v-318q0 -37 -11 -70.5t-31 -62t-48.5 -50t-63.5 -33.5l-122 -42l-26 80zM268 529v-95h-95v95h95z" />
    <glyph glyph-name="uni0633" unicode="&#x633;" horiz-adv-x="1163" arabic-form="isolated" 
d="M70 33v277h82v-263q0 -25 10 -48t26.5 -39.5t39.5 -26.5t48 -10h176q21 0 40 8t33 22t22 32.5t8 39.5v301h82v-165q1 -27 20 -45t45 -18h21q26 0 45.5 15.5t24.5 41.5l33 166l81 -15l-27 -135q-1 -6 -1 -12q0 -22 16.5 -41.5t45.5 -19.5h83v258h82v-256q0 -44 -28 -72
t-72 -28h-66q-33 0 -60.5 15.5t-46.5 48.5q-21 -33 -51.5 -48.5t-65.5 -15.5q-21 0 -41.5 7.5t-37.5 29.5v-36q0 -37 -15 -69t-40.5 -56t-59 -37.5t-70.5 -13.5h-174q-43 0 -81 16.5t-66 45t-44.5 66t-16.5 80.5z" />
    <glyph glyph-name="uni0634" unicode="&#x634;" horiz-adv-x="1163" arabic-form="isolated" 
d="M70 33v277h82v-263q0 -25 10 -48t26.5 -39.5t39.5 -26.5t48 -10h176q21 0 40 8t33 22t22 32.5t8 39.5v301h82v-165q1 -27 20 -45t45 -18h21q26 0 45.5 15.5t24.5 41.5l33 166l81 -15l-27 -135q-1 -6 -1 -12q0 -22 16.5 -41.5t45.5 -19.5h83v258h82v-256q0 -44 -28 -72
t-72 -28h-66q-33 0 -60.5 15.5t-46.5 48.5q-21 -33 -51.5 -48.5t-65.5 -15.5q-21 0 -41.5 7.5t-37.5 29.5v-36q0 -37 -15 -69t-40.5 -56t-59 -37.5t-70.5 -13.5h-174q-43 0 -81 16.5t-66 45t-44.5 66t-16.5 80.5zM704 430v95h95v-95h-95zM870 657v-95h-95v95h95zM946 525
v-95h-95v95h95z" />
    <glyph glyph-name="uni0635" unicode="&#x635;" horiz-adv-x="1232" arabic-form="isolated" 
d="M152 309v-262q0 -25 10 -48t26.5 -39.5t39.5 -26.5t48 -10h177q21 0 39.5 8t33 22t22.5 33t8 40v299h82v-136q0 -16 3 -26t7 -16q4 -7 9 -11l154 167q29 32 69 49.5t85 17.5h61q31 0 58 -11.5t47 -31.5t31.5 -47t11.5 -58v-67q0 -32 -12 -60.5t-33 -49.5t-49.5 -33
t-60.5 -12h-261q-38 0 -70.5 8.5t-50.5 30.5v-38q0 -37 -15 -69t-40 -56t-58.5 -37.5t-71.5 -13.5h-174q-43 0 -80.5 16.5t-66 45t-45 66t-16.5 80.5v276h82zM1032 98q25 0 42.5 16.5t17.5 42.5v59q0 26 -18 44t-44 18h-74q-58 0 -99 -44l-127 -136h302z" />
    <glyph glyph-name="uni0636" unicode="&#x636;" horiz-adv-x="1232" arabic-form="isolated" 
d="M152 309v-262q0 -25 10 -48t26.5 -39.5t39.5 -26.5t48 -10h177q21 0 39.5 8t33 22t22.5 33t8 40v299h82v-136q0 -16 3 -26t7 -16q4 -7 9 -11l154 167q29 32 69 49.5t85 17.5h61q31 0 58 -11.5t47 -31.5t31.5 -47t11.5 -58v-67q0 -32 -12 -60.5t-33 -49.5t-49.5 -33
t-60.5 -12h-261q-38 0 -70.5 8.5t-50.5 30.5v-38q0 -37 -15 -69t-40 -56t-58.5 -37.5t-71.5 -13.5h-174q-43 0 -80.5 16.5t-66 45t-45 66t-16.5 80.5v276h82zM1032 98q25 0 42.5 16.5t17.5 42.5v59q0 26 -18 44t-44 18h-74q-58 0 -99 -44l-127 -136h302zM913 575h95v-95h-95
v95z" />
    <glyph glyph-name="uni0637" unicode="&#x637;" horiz-adv-x="737" arabic-form="isolated" 
d="M125 98l109 118v452h83v-327q0 -17 -4 -31t-5 -16l4 4q3 3 6.5 7t6.5 7l4 4q29 27 65.5 41t75.5 14h62q31 0 58 -11.5t47 -31.5t31.5 -47t11.5 -58v-67q0 -32 -12.5 -60.5t-33.5 -49.5t-49.5 -33.5t-60.5 -12.5h-454v98h55zM538 98q25 0 42.5 17.5t17.5 42.5v59
q0 26 -18.5 44t-44.5 18h-73q-59 0 -100 -44l-128 -137h304z" />
    <glyph glyph-name="uni0638" unicode="&#x638;" horiz-adv-x="737" arabic-form="isolated" 
d="M70 0v98h55l109 118v452h83v-327q0 -17 -4 -31t-5 -16l4 4q3 3 6.5 7t6.5 7l4 4q29 27 65.5 41t75.5 14h62q31 0 58 -11.5t47 -31.5t31.5 -47t11.5 -58v-67q0 -32 -12.5 -60.5t-33.5 -49.5t-49.5 -33.5t-60.5 -12.5h-454zM538 98q25 0 42.5 17.5t17.5 42.5v59
q0 26 -18.5 44t-44.5 18h-73q-59 0 -100 -44l-128 -137h304zM528 575v-95h-95v95h95z" />
    <glyph glyph-name="uni0639" unicode="&#x639;" horiz-adv-x="568" arabic-form="isolated" 
d="M76 -127q6 24 18 48t30 46t43 40q-8 7 -13 17.5t-7 21.5l-31 152q-2 13 -2 26q0 18 6.5 41.5t25.5 46.5t47 37t61 14h152v-93h-158q-24 0 -37.5 -16t-13.5 -34q0 -5 1 -11l34 -172q20 7 59.5 19.5t79.5 25.5q46 15 99 32l25 -76l-241 -76q-16 -5 -32.5 -14t-30.5 -24
t-23 -36.5t-9 -49.5q0 -32 12 -60.5t33 -50t50.5 -34t64.5 -12.5h177v-98h-177q-52 0 -97.5 20t-79 53.5t-53 78t-19.5 93.5q0 21 6 45z" />
    <glyph glyph-name="uni063A" unicode="&#x63a;" horiz-adv-x="568" arabic-form="isolated" 
d="M76 -126q6 24 18 48t30 46t43 40q-8 7 -13 17.5t-7 21.5l-27 148q-3 14 -3 27q0 18 6.5 41t26 46t47 36.5t60.5 13.5h152v-93h-157q-25 0 -38.5 -16t-13.5 -34q0 -5 1 -11l31 -167q20 7 59.5 19.5t79.5 25.5q46 15 99 32l25 -76l-241 -76q-16 -5 -32.5 -14t-30.5 -24
t-23 -36t-9 -49q0 -32 12.5 -61t34 -50.5t51 -34t62.5 -12.5h177v-98h-177q-52 0 -97.5 20t-79 53.5t-53 78t-19.5 94.5q0 21 6 44zM228 489v95h95v-95h-95z" />
    <glyph glyph-name="uni0641" unicode="&#x641;" horiz-adv-x="858" arabic-form="isolated" 
d="M70 189v164h82v-160q0 -41 27.5 -68t69.5 -27h398q29 0 49.5 16.5t20.5 50.5v17q-21 -9 -47 -9h-84q-33 0 -61.5 14t-47.5 37.5t-25.5 47.5t-6.5 42q0 13 2 27l16 83q10 49 48 81t89 32h53q30 0 57 -11.5t46.5 -31.5t31 -46.5t11.5 -57.5v-228q0 -34 -12.5 -63.5
t-34.5 -51.5t-51.5 -34.5t-63.5 -12.5h-378q-41 0 -75.5 14.5t-60 40t-39.5 60t-14 74.5zM539 287q14 -17 37 -17h141v120q0 23 -15.5 38.5t-38.5 15.5h-66q-20 0 -35.5 -12.5t-19.5 -32.5l-13 -72q-1 -6 -1 -11q0 -16 11 -29zM677 741v-95h-95v95h95z" />
    <glyph glyph-name="uni0642" unicode="&#x642;" horiz-adv-x="701" arabic-form="isolated" 
d="M152 231v-234q0 -26 10 -48.5t27 -39t40 -26.5t48 -10h175q21 0 40 7.5t33.5 21t22.5 31.5t8 38v38q-8 -2 -20 -5.5t-27 -3.5h-85q-33 0 -61.5 14t-47.5 37.5t-25.5 47.5t-6.5 43q0 13 2 27l17 83q5 24 17.5 45t30.5 36t41 23.5t48 8.5h52q31 0 57.5 -11.5t46.5 -31.5
t31.5 -47t11.5 -57v-256q0 -39 -14.5 -73t-39.5 -59.5t-59 -40t-73 -14.5h-173q-43 0 -81.5 16.5t-66.5 44.5t-44.5 66t-16.5 82v247h82zM377 115q14 -17 37 -17h142v119q0 23 -16 39t-39 16h-67q-20 0 -34.5 -12.5t-18.5 -32.5l-14 -72q-1 -6 -1 -11q0 -16 11 -29zM493 474
v95h96v-95h-96zM346 569h95v-95h-95v95z" />
    <glyph glyph-name="uni0643" unicode="&#x643;" horiz-adv-x="859" arabic-form="isolated" 
d="M70 354h82v-157q0 -42 29 -70.5t71 -28.5h400q26 0 45.5 19t19.5 46v520h82v-520q0 -34 -13 -63.5t-35 -51.5t-51.5 -35t-62.5 -13h-380q-39 0 -73 14.5t-59.5 40t-40 59.5t-14.5 73v167zM366 380q-1 1 -7.5 3t-11.5 13q-2 2 -8 14t-9 19q-10 20 -10 40.5t7.5 38t21 31.5
t31.5 21l76 32l25 -59l-78 -34q-12 -5 -16 -15.5t-4 -16.5q0 -8 4 -16q2 -5 11 -21.5t14 -26.5l128 67l28 -57l-250 -127l-28 58z" />
    <glyph glyph-name="uni0644" unicode="&#x644;" horiz-adv-x="697" arabic-form="isolated" 
d="M71 281l82 -1v-234q0 -25 10 -47.5t26.5 -39.5t39.5 -26.5t48 -9.5h176q21 0 40 8t33 22t22 32.5t8 39.5v643h82v-657q0 -39 -14.5 -72.5t-40 -59t-59 -40t-72.5 -14.5h-173q-43 0 -81 16.5t-66 44.5t-44.5 66t-16.5 81v248z" />
    <glyph glyph-name="uni0645" unicode="&#x645;" horiz-adv-x="665" arabic-form="isolated" 
d="M70 208q0 34 13 63.5t35 51.5t51.5 35t63.5 13h226q31 0 58 -11.5t47.5 -31.5t32 -47t11.5 -58v-123q0 -44 -28.5 -72t-72.5 -28h-121q-33 0 -61 14t-46.5 37t-25 47t-6.5 42q0 13 2 27l21 111h-53q-26 0 -45.5 -20t-19.5 -47v-463h-82v460zM340 115q13 -17 37 -17h149
v126q0 23 -16.5 38.5t-39.5 15.5h-116l-23 -124q-1 -6 -1 -11q0 -15 10 -28z" />
    <glyph glyph-name="uni0646" unicode="&#x646;" horiz-adv-x="697" arabic-form="isolated" 
d="M70 309h82v-263q0 -25 10 -47.5t26.5 -39.5t39.5 -26.5t48 -9.5h176q21 0 40 8t33 22t22 33t8 40v300h82v-315q0 -39 -14.5 -72.5t-40 -59t-59 -40t-72.5 -14.5h-173q-43 0 -81 16.5t-66 44.5t-44.5 66t-16.5 81v276zM306 421h95v-95h-95v95z" />
    <glyph glyph-name="uni0647" unicode="&#x647;" horiz-adv-x="493" arabic-form="isolated" 
d="M70 163v33q0 42 18.5 75.5t46.5 50.5q10 6 18.5 11t14.5 10q8 4 14 8l-68 45l45 70l214 -144q33 -23 47.5 -56t14.5 -68v-35q0 -33 -12 -64t-34 -55.5t-54 -39.5t-73 -15h-21q-39 0 -70.5 15t-54 39.5t-34.5 56t-12 63.5zM158 139q6 -15 17.5 -26.5t27 -18.5t33.5 -7h34
q20 0 35 7.5t26 19.5t16.5 26.5t5.5 27.5v37q0 14 -6 26.5t-19 21.5q-4 2 -17 10.5t-27 17.5q-16 10 -35 23l-74 -52q-10 -8 -16 -18t-7 -27v-38q0 -15 6 -30z" />
    <glyph glyph-name="uni0648" unicode="&#x648;" horiz-adv-x="486" arabic-form="isolated" 
d="M63 166l17 91q10 50 48.5 82t88.5 32h57q31 0 58 -11.5t47 -32t31.5 -47.5t11.5 -57v-218q0 -37 -11 -71t-31.5 -62.5t-49 -50t-63.5 -33.5l-123 -42l-26 81l128 43q42 14 65.5 47t26.5 78l1 14q-9 -5 -22 -7t-25 -2h-92q-33 0 -61 14t-46.5 37t-25 47t-6.5 42q0 13 2 26
zM154 115q14 -17 37 -17h149v125q0 23 -16.5 39t-39.5 16h-71q-20 0 -34.5 -12t-18.5 -32l-16 -81q-1 -5 -1 -9q0 -17 11 -29z" />
    <glyph glyph-name="uni0649" unicode="&#x649;" horiz-adv-x="729" arabic-form="isolated" 
d="M69 36v230h82v-217q0 -25 10 -47.5t27 -39.5t39.5 -26.5t48.5 -9.5h209q42 0 70.5 28.5t28.5 70.5v35l-276 65v109q0 38 13 70.5t35.5 57.5t53 41t65.5 20l124 16l13 -88l-141 -19q-36 -5 -59.5 -33t-23.5 -64v-42l203 -46q34 -8 54.5 -32.5t20.5 -59.5v-39
q0 -39 -14.5 -73.5t-40 -60t-59.5 -40t-73 -14.5h-201q-43 0 -81.5 16.5t-66.5 44.5t-44.5 66t-16.5 81z" />
    <glyph glyph-name="uni064A" unicode="&#x64a;" horiz-adv-x="729" arabic-form="isolated" 
d="M69 36v230h82v-217q0 -25 10 -47.5t27 -39.5t39.5 -26.5t48.5 -9.5h209q42 0 70.5 28.5t28.5 70.5v35l-275 65v109q0 38 13 70.5t35.5 57.5t52.5 41t65 20l124 16l13 -88l-141 -19q-36 -4 -59 -32.5t-23 -64.5v-42l202 -46q34 -8 54.5 -32.5t20.5 -59.5v-39
q0 -39 -14.5 -73.5t-40 -60t-59.5 -40t-73 -14.5h-201q-43 0 -81.5 16.5t-66.5 44.5t-44.5 66t-16.5 81zM392 -365v95h95v-95h-95zM245 -270h95v-95h-95v95z" />
    <glyph glyph-name="uni064B" unicode="&#xfe70;" arabic-form="isolated" 
d="M-151 700l-10 56l309 66l13 -55zM-151 822l-10 56l309 66l13 -55z" />
    <glyph glyph-name="uni064C" unicode="&#xfe72;" arabic-form="isolated" 
d="M-171 755l39 8l-21 96l63 15l22 -96l42 8q-6 26 -9.5 42.5t-6.5 33.5q-1 5 -1 10q0 10 3.5 21.5t13 22.5t23 18.5t30.5 9.5l52 5h5q12 0 25.5 -4.5t25 -13.5t19.5 -21.5t11 -27.5l7 -38v-8q0 -27 -18 -49t-50 -30l-11 -2q-12 -3 -31 -7t-42.5 -9.5t-48.5 -10.5
q-58 -12 -132 -28zM18 859l16 -61l64 14q8 2 13.5 7.5t5.5 11.5v4q0 1 -1 6.5t-3 13.5t-5 19q-2 10 -9 14t-13 4h-3l-46 -6q-8 -1 -13.5 -6.5t-5.5 -14.5v-6z" />
    <glyph glyph-name="uni064D" unicode="&#xfe74;" arabic-form="isolated" 
d="M-151 -128l-10 61l308 67l14 -61zM-151 -250l-10 61l308 66l14 -60z" />
    <glyph glyph-name="uni064E" unicode="&#xfe76;" arabic-form="isolated" 
d="M-151 700l-10 55l309 66l13 -55z" />
    <glyph glyph-name="uni064F" unicode="&#xfe78;" arabic-form="isolated" 
d="M-43 779q-6 26 -9.5 42.5t-6.5 33.5q-1 6 -1 11q0 23 18.5 45t51.5 26l52 5q4 1 8 1q11 0 23 -4.5t24 -13.5t20 -22t11 -28l7 -38v-6q0 -28 -17.5 -50.5t-48.5 -30.5l-10 -2q-11 -2 -27.5 -5.5t-37.5 -7.5t-43 -9q-51 -11 -116 -25l-11 54zM1 852l15 -61l65 14
q8 2 13 7.5t6 11.5q-1 2 -1 4q0 1 -1 6.5t-3 13.5t-4 19q-3 10 -10 14t-13 4h-3l-45 -7q-8 0 -13.5 -6t-5.5 -15v-5z" />
    <glyph glyph-name="uni0650" unicode="&#xfe7a;" horiz-adv-x="1" arabic-form="isolated" 
d="M-150 -129l-11 62l308 67l15 -63z" />
    <glyph glyph-name="uni0651" unicode="&#xfe7c;" arabic-form="isolated" 
d="M-157 793v80h59v-81q1 -11 9.5 -19.5t20.5 -9.5h6q12 0 21 8t11 19l16 77l58 -10l-13 -67v-5q0 -9 8 -15t19 -7h40v113h59v-119q0 -26 -16 -41.5t-42 -15.5h-36q-17 0 -32.5 6.5t-26.5 23.5q-11 -17 -30.5 -23.5t-37.5 -6.5q-19 0 -36 7t-29.5 20t-20 30t-7.5 36z" />
    <glyph glyph-name="uni0652" unicode="&#xfe7e;" arabic-form="isolated" 
d="M-96 802q0 38 26 64.5t65 26.5h10q19 0 35.5 -7t29 -19.5t19.5 -29t7 -35.5v-11q0 -38 -26.5 -64.5t-64.5 -26.5h-10q-19 0 -35.5 7.5t-29 20t-19.5 29t-7 34.5v11zM-42 802v-8q0 -14 9 -23t23 -9h21q13 0 22.5 9t9.5 23v8q0 14 -9.5 23.5t-22.5 9.5h-21q-14 -1 -23 -10
t-9 -23z" />
    <glyph glyph-name="uni0671" unicode="&#x671;" horiz-adv-x="331" arabic-form="isolated" 
d="M-40 635v65h33q13 0 22 9t9 22v43h55v-24q0 -11 3 -18t6 -10l82 82q38 38 89 38h24q37 0 62.5 -25.5t25.5 -61.5v-32q0 -18 -7 -34t-19 -28t-28 -19t-33 -7h-164q-23 0 -38.5 7.5t-28.5 23.5q-24 -31 -65 -31h-28zM208 588v-588h-82v588h82zM291 700q11 0 18.5 7.5
t7.5 18.5v26q0 11 -8.5 19.5t-20.5 8.5h-36q-14 0 -28 -6t-25 -17l-60 -57h152z" />
    <glyph glyph-name="uni067E" unicode="&#x67e;" horiz-adv-x="857" arabic-form="isolated" 
d="M152 354v-157q0 -42 29 -70.5t71 -28.5h401q26 0 45 18.5t19 45.5v192h82v-192q0 -34 -13 -63.5t-35 -51.5t-51.5 -34.5t-63.5 -12.5h-380q-39 0 -72.5 14.5t-59 40t-40 59t-14.5 72.5v168h82zM321 -120h95v-95h-95v95zM395 -252h95v-95h-95v95zM468 -120h95v-95h-95v95z
" />
    <glyph glyph-name="uni0686" unicode="&#x686;" horiz-adv-x="681" arabic-form="isolated" 
d="M70 249l24 84q8 27 25.5 46.5t40 30.5t38 12.5t21.5 1.5q18 0 34 -5l370 -112l-24 -78l-59 16q-9 3 -18 3q-5 0 -14 -1.5t-20 -9.5l-253 -185q-29 -22 -44.5 -52t-15.5 -64v-4q0 -33 12.5 -62t34 -51t50.5 -34.5t62 -12.5h243v-97h-242q-52 0 -97 19.5t-79 53t-53.5 78.5
t-19.5 96q0 57 25.5 107t70.5 82q21 15 50.5 37t60 44.5t57.5 42t42 30.5q10 7 18 12t11 7l-201 60q-5 2 -11 2q-9 0 -20.5 -7.5t-16.5 -22.5l-28 -87zM402 -80h86v-85h-86v85zM334 38h86v-85h-86v85zM466 -47v85h85v-85h-85z" />
    <glyph glyph-name="uni0698" unicode="&#x698;" horiz-adv-x="371" arabic-form="isolated" 
d="M-40 -170l129 42q42 14 66.5 49t24.5 78v327h82v-319q0 -37 -11 -70.5t-31 -62t-48 -50t-63 -33.5l-123 -42zM194 530v-95h-95v95h95zM171 567v95h95v-95h-95zM246 530h95v-95h-95v95z" />
    <glyph glyph-name="uni06A9" unicode="&#x6a9;" horiz-adv-x="881" arabic-form="isolated" 
d="M153 355v-161q0 -42 27 -69t69 -27h375q31 0 55.5 15.5t36 39t11.5 48.5q0 4 -1 21.5t-23 48.5l-164 225v65l317 161l37 -73l-270 -138l147 -193q39 -51 41.5 -83t2.5 -40q0 -47 -22.5 -90.5t-69.5 -74t-109 -30.5h-354q-40 0 -74.5 15t-60 40.5t-39.5 60t-14 73.5v166
h82z" />
    <glyph glyph-name="uni06AF" unicode="&#x6af;" horiz-adv-x="881" arabic-form="isolated" 
d="M71 189v166h82v-161q0 -42 27 -69t69 -27h375q31 0 55.5 15.5t36 39t11.5 48.5q0 4 -1 21.5t-23 48.5l-164 225v65l317 161l37 -73l-270 -138l147 -193q39 -51 41.5 -83t2.5 -40q0 -47 -22.5 -90.5t-69.5 -74t-109 -30.5h-354q-40 0 -74.5 15t-60 40.5t-39.5 60t-14 73.5
zM507 685l288 147l27 -60l-289 -147z" />
    <glyph glyph-name="uni06C0" unicode="&#x6c0;" horiz-adv-x="493" arabic-form="isolated" 
d="M70 163v33q0 42 18.5 76t46.5 51q10 6 18.5 11t14.5 9q8 4 14 8l-68 45l45 71q56 -37 101 -68q20 -13 39 -26t34.5 -23.5t26.5 -18t14 -9.5q32 -23 46.5 -55.5t14.5 -67.5v-36q0 -32 -12 -63t-34 -55.5t-54 -39.5t-73 -15h-21q-39 0 -70.5 15t-54 39.5t-34.5 55.5t-12 63
zM152 207v-39q0 -31 23.5 -55.5t60.5 -24.5h34q20 0 35 7.5t26 19.5t16.5 26t5.5 27v38q0 13 -6 25.5t-19 21.5q-4 3 -17 11t-27 17q-16 11 -35 23l-74 -52q-10 -8 -16 -18t-7 -27zM201 638q-1 1 -7.5 3t-11.5 13q-2 2 -8 14t-9 19q-10 20 -10 40.5t7.5 38t21 31.5t31.5 21
l76 32l25 -59l-78 -34q-12 -5 -16 -15.5t-4 -16.5q0 -8 4 -16q2 -5 11 -21.5t14 -26.5l128 67l28 -57l-250 -127l-28 58z" />
    <glyph glyph-name="uni06CC" unicode="&#x6cc;" horiz-adv-x="729" arabic-form="isolated" 
d="M69 36v230h82v-217q0 -25 10 -47.5t27 -39.5t39.5 -26.5t48.5 -9.5h209q42 0 70.5 28.5t28.5 70.5v35l-275 65v109q0 38 13 70.5t35.5 57.5t52.5 41t65 20l124 16l13 -88l-141 -19q-36 -4 -59 -32.5t-23 -64.5v-42l202 -46q34 -8 54.5 -32.5t20.5 -59.5v-39
q0 -39 -14.5 -73.5t-40 -60t-59.5 -40t-73 -14.5h-201q-43 0 -81.5 16.5t-66.5 44.5t-44.5 66t-16.5 81z" />
    <glyph glyph-name="uniFB51" unicode="&#x671;" horiz-adv-x="315" arabic-form="final" 
d="M-7 700q13 0 22 9t9 22v43h55v-24q0 -11 3 -18t6 -10l82 82q38 38 89 38h24q37 0 62.5 -25.5t25.5 -61.5v-32q0 -18 -7 -34t-19 -28t-28 -19t-33 -7h-164q-23 0 -38.5 7.5t-28.5 23.5q-24 -31 -65 -31h-28v65h33zM116 589h82v-426q0 -27 19 -46t46 -19h52q6 0 10 -4.5
t4 -10.5v-69q0 -5 -4 -9.5t-10 -4.5h-39q-33 0 -62 12.5t-51 34.5t-34.5 51.5t-12.5 63.5v427zM139 700h152q11 0 18.5 7.5t7.5 18.5v26q0 11 -8.5 19.5t-20.5 8.5h-36q-14 0 -28 -6t-25 -17z" />
    <glyph glyph-name="uniFB57" unicode="&#x67e;" horiz-adv-x="893" arabic-form="final" 
d="M152 354v-157q0 -42 28.5 -70.5t70.5 -28.5h402q26 0 45 19t19 45v164h82v-163q0 -27 19 -46t46 -19h29q14 0 14 -14v-70q0 -14 -14 -14h-15q-36 0 -67 17t-52 47q-23 -32 -54 -48t-68 -16h-380q-39 0 -73 14.5t-59.5 40t-40 59.5t-14.5 73v167h82zM322 -120h95v-95h-95
v95zM396 -347v95h95v-95h-95zM469 -215v95h95v-95h-95z" />
    <glyph glyph-name="uniFB58" unicode="&#x67e;" horiz-adv-x="412" arabic-form="initial" 
d="M-14 83q0 6 4 10.5t10 4.5h198q26 0 45 19t19 45v192h82v-192q0 -33 -12.5 -62.5t-34.5 -51.5t-51.5 -35t-63.5 -13h-182q-6 0 -10 4.5t-4 9.5v69zM14 -120h95v-95h-95v95zM183 -252v-95h-95v95h95zM256 -120v-95h-95v95h95z" />
    <glyph glyph-name="uniFB59" unicode="&#x67e;" horiz-adv-x="356" arabic-form="medial" 
d="M0 98h71q26 0 45.5 16t24.5 41l34 166l81 -14l-28 -139q-1 -6 -1 -11q0 -21 16.5 -40t45.5 -19h66q14 0 14 -14v-70q0 -5 -4 -9.5t-10 -4.5h-67q-16 0 -33 5t-32 13.5t-26 20.5t-16 25q-16 -27 -48.5 -45.5t-66.5 -18.5h-66q-14 0 -14 14v70q0 14 14 14zM61 -120h95v-95
h-95v95zM135 -347v95h95v-95h-95zM208 -120h95v-95h-95v95z" />
    <glyph glyph-name="uniFB7B" unicode="&#x686;" horiz-adv-x="692" arabic-form="final" 
d="M95 333q8 27 25.5 46.5t40 30.5t38 12.5t21.5 1.5q18 0 34 -5l370 -112l-24 -76l-59 14q-8 2 -16 2q-15 0 -30 -7v-77q0 -28 19.5 -46.5t45.5 -18.5h133q14 0 14 -14v-70q0 -14 -14 -14h-119q-33 0 -61 12.5t-48.5 34t-32 50t-11.5 60.5v31l-185 -136q-29 -22 -44.5 -52
t-15.5 -64v-4q0 -33 12.5 -62t34 -51t50.5 -34.5t62 -12.5h243v-97h-242q-52 0 -97 19.5t-79 53t-53.5 78t-19.5 95.5q0 58 25.5 108t70.5 82q21 15 49.5 36t58 43t57 42t45.5 33q5 4 14.5 10t14.5 9l-201 60q-5 2 -11 2q-9 0 -20.5 -7.5t-16.5 -22.5l-28 -87l-74 20z
M319 -165v67h67v-67h-67zM369 -8h67v-67h-67v67zM332 -8v-67h-66v67h66z" />
    <glyph glyph-name="uniFB7C" unicode="&#x686;" horiz-adv-x="680" arabic-form="initial" 
d="M-14 14v69q0 15 14 15h168q47 0 90.5 15.5t75.5 47.5l79 75q10 10 16 13l-230 69q-6 2 -12 2q-9 0 -19.5 -6.5t-15.5 -21.5l-30 -87l-72 20l24 83q8 27 24.5 46.5t38 31t37.5 13t23 1.5q18 0 36 -5l390 -117l-26 -79l-42 13q-13 4 -25 5q-11 -1 -24.5 -7.5t-31.5 -23.5
l-115 -108q-42 -39 -94 -58t-109 -20h-156q-6 0 -10 4.5t-4 9.5zM277 -251h95v-96h-95v96zM350 -214v95h95v-95h-95zM298 -119v-95h-95v95h95z" />
    <glyph glyph-name="uniFB7D" unicode="&#x686;" horiz-adv-x="685" arabic-form="medial" 
d="M-14 14v70q0 5 4.5 9.5t9.5 4.5h168q46 0 89.5 15t75.5 47l79 75q8 8 16 14l-229 68q-6 2 -12 2q-9 0 -20 -6.5t-16 -21.5l-30 -86l-72 19l24 84q8 26 24.5 45.5t38.5 31t38 13.5t23 2q18 0 35 -6l390 -117l-25 -79l-43 13q-12 4 -22 4q-8 0 -19.5 -3.5t-24.5 -13.5v-36
q0 -27 18.5 -45.5t45.5 -18.5h133q14 0 14 -14v-70q0 -14 -14 -14h-119q-30 0 -55 10t-44.5 28t-32 42t-17.5 52l-59 -55q-42 -39 -94 -58t-109 -19h-155q-14 0 -14 14zM272 -347v96h95v-96h-95zM345 -214v95h95v-95h-95zM198 -119h95v-95h-95v95z" />
    <glyph glyph-name="uniFB8B" unicode="&#x698;" horiz-adv-x="425" arabic-form="final" 
d="M-40 -172l129 43q42 14 67 49t25 79v326h82v-167q0 -26 19.5 -43t45.5 -17h98q14 0 14 -14v-70q0 -14 -14 -14h-83q-23 0 -44.5 8.5t-35.5 28.5v-36q0 -36 -11.5 -69t-32 -61t-48.5 -48.5t-62 -32.5l-123 -42zM195 529v-95h-95v95h95zM171 566v95h95v-95h-95zM247 434v95
h95v-95h-95z" />
    <glyph glyph-name="uniFB8F" unicode="&#x6a9;" horiz-adv-x="1000" arabic-form="final" 
d="M71 189v166h82v-161q0 -42 27 -69t69 -27h375q32 0 56.5 16t35.5 39t11 47q0 5 -1.5 23t-23.5 48l-164 225v65l317 161l38 -73l-270 -138l277 -366q16 -21 38.5 -34t50.5 -13h11q5 0 9.5 -4.5t4.5 -10.5v-69q0 -5 -4 -9.5t-10 -4.5h-9q-43 0 -78.5 20.5t-63.5 58.5
l-50 72q-5 -35 -22.5 -63t-43 -47.5t-56.5 -30t-64 -10.5h-354q-40 0 -74.5 15t-60 40.5t-39.5 60t-14 73.5z" />
    <glyph glyph-name="uniFB90" unicode="&#x6a9;" horiz-adv-x="393" arabic-form="initial" 
d="M-14 84q0 5 4 9.5t10 4.5h135q32 0 56.5 15.5t36 39t11.5 49.5q0 4 -1 21.5t-24 47.5l-164 225v65l318 161l37 -74l-271 -137l148 -193q39 -51 41 -82.5t2 -38.5q0 -48 -22 -92t-69 -74.5t-109 -30.5h-125q-6 0 -10 4.5t-4 10.5v69z" />
    <glyph glyph-name="uniFB91" unicode="&#x6a9;" horiz-adv-x="513" arabic-form="medial" 
d="M-14 84q0 5 4 9.5t10 4.5h135q32 0 56.5 16t36 38.5t11.5 47.5q0 5 -1.5 23t-23.5 48l-164 224v66l318 161l37 -74l-271 -137l278 -366q16 -22 39 -35t50 -13h12q14 0 14 -14v-69q0 -5 -4 -9.5t-10 -4.5h-10q-88 0 -142 79l-50 72q-5 -35 -22.5 -63t-43 -47.5t-56.5 -30
t-64 -10.5h-125q-6 0 -10 4.5t-4 10.5v69z" />
    <glyph glyph-name="uniFB93" unicode="&#x6af;" horiz-adv-x="1000" arabic-form="final" 
d="M71 189v166h82v-161q0 -42 27 -69t69 -27h375q32 0 56.5 16t35.5 39t11 47q0 5 -1.5 23t-23.5 48l-164 225v65l317 161l38 -73l-270 -138l277 -366q16 -21 38.5 -34t50.5 -13h11q5 0 9.5 -4.5t4.5 -10.5v-69q0 -5 -4 -9.5t-10 -4.5h-9q-43 0 -78.5 20.5t-63.5 58.5
l-50 72q-5 -35 -22.5 -63t-43 -47.5t-56.5 -30t-64 -10.5h-354q-40 0 -74.5 15t-60 40.5t-39.5 60t-14 73.5zM795 832l27 -60l-289 -147l-26 60z" />
    <glyph glyph-name="uniFB94" unicode="&#x6af;" horiz-adv-x="394" arabic-form="initial" 
d="M-14 84q0 5 4 9.5t10 4.5h135q32 0 56.5 15.5t36 39t11.5 49.5q0 4 -1 21.5t-24 47.5l-164 225v65l318 161l37 -74l-271 -137l148 -193q39 -51 41 -82.5t2 -38.5q0 -48 -22 -92t-69 -74.5t-109 -30.5h-125q-6 0 -10 4.5t-4 10.5v69zM25 685l289 147l26 -60l-288 -148z
" />
    <glyph glyph-name="uniFB95" unicode="&#x6af;" horiz-adv-x="514" arabic-form="medial" 
d="M-14 84q0 5 4 9.5t10 4.5h135q32 0 56.5 16t36 38.5t11.5 47.5q0 5 -1.5 23t-23.5 48l-164 224v66l318 161l37 -74l-271 -137l278 -366q16 -22 39 -35t50 -13h12q14 0 14 -14v-69q0 -5 -4 -9.5t-10 -4.5h-10q-88 0 -142 79l-50 72q-5 -35 -22.5 -63t-43 -47.5t-56.5 -30
t-64 -10.5h-125q-6 0 -10 4.5t-4 10.5v69zM313 832l26 -60l-288 -148l-27 61z" />
    <glyph glyph-name="uniFBA5" unicode="&#x6c0;" horiz-adv-x="519" arabic-form="final" 
d="M71 245q0 63 35 106.5t89 57.5l138 35v79h82v-355q0 -14 6 -27t16.5 -22.5t23.5 -15t28 -5.5h30q14 0 14 -14v-70q0 -14 -14 -14h-30q-48 0 -84 25t-56 66q-9 -8 -23 -12t-28 -4h-123q-48 0 -76 28.5t-28 76.5v65zM120 596l77 36q-3 1 -6 3q-6 3 -12 13q-2 2 -8 13.5
t-10 18.5q-10 21 -10 41t7.5 38t21 32t31.5 21l77 32l24 -59l-77 -34q-12 -6 -16.5 -16t-4.5 -16q0 -8 5 -16q1 -3 4 -9t7 -13t7.5 -14t5.5 -12l128 67l28 -57l-250 -128zM153 241v-68h180v181l-118 -29q-29 -7 -45.5 -31t-16.5 -53z" />
    <glyph glyph-name="uniFBE8" unicode="&#x649;" horiz-adv-x="342" arabic-form="initial" 
d="M-14 83q0 6 4 10.5t10 4.5h138q26 0 45 19t19 45v192h82v-192q0 -33 -12.5 -62.5t-34.5 -51.5t-51.5 -35t-63.5 -13h-122q-6 0 -10 4.5t-4 9.5v69z" />
    <glyph glyph-name="uniFBE9" unicode="&#x649;" horiz-adv-x="356" arabic-form="medial" 
d="M0 98h71q26 0 45.5 16t24.5 41l34 166l81 -14l-28 -139q-1 -6 -1 -11q0 -21 16.5 -40t45.5 -19h66q14 0 14 -14v-70q0 -5 -4 -9.5t-10 -4.5h-67q-16 0 -33 5t-32 13.5t-26 20.5t-16 25q-16 -27 -48.5 -45.5t-66.5 -18.5h-66q-14 0 -14 14v70q0 14 14 14z" />
    <glyph glyph-name="uniFBFD" unicode="&#x6cc;" horiz-adv-x="740" arabic-form="final" 
d="M70 -27v248h82v-235q0 -26 10 -48t27 -39t40 -26.5t48 -9.5h178q42 0 71 28.5t30 70.5v38h-191v98h375q14 0 14 -13v-71q0 -14 -14 -14h-106q1 -3 2.5 -8.5t1.5 -13.5v-29q0 -39 -15 -72.5t-40.5 -58t-60 -39t-73.5 -14.5h-171q-43 0 -81 16.5t-66 44.5t-44.5 66
t-16.5 81z" />
    <glyph glyph-name="uniFBFE" unicode="&#x6cc;" horiz-adv-x="424" arabic-form="initial" 
d="M-14 83q0 6 4 10.5t10 4.5h198q26 0 45 19t19 45v192h82v-192q0 -33 -12.5 -62.5t-34.5 -51.5t-51.5 -35t-63.5 -13h-182q-6 0 -10 4.5t-4 9.5v69zM154 -215v95h95v-95h-95zM8 -120h94v-95h-94v95z" />
    <glyph glyph-name="uniFBFF" unicode="&#x6cc;" horiz-adv-x="355" arabic-form="medial" 
d="M0 98h71q26 0 45.5 16t24.5 41l34 166l81 -14l-28 -139q-1 -6 -1 -11q0 -21 16.5 -40t45.5 -19h66q14 0 14 -14v-70q0 -5 -4 -9.5t-10 -4.5h-67q-16 0 -33 5t-32 13.5t-26 20.5t-16 25q-16 -27 -48.5 -45.5t-66.5 -18.5h-66q-14 0 -14 14v70q0 14 14 14zM204 -120h95v-95
h-95v95zM152 -120v-95h-94v95h94z" />
    <glyph glyph-name="uniFC5E" unicode="&#xfc5e;" arabic-form="isolated" 
d="M-177 972l39 8l-21 97l64 15l21 -98l42 10q-3 15 -6 29q-3 11 -5.5 24t-4.5 22q-1 5 -1 11q0 8 3.5 19t13 22.5t23.5 20t30 9.5l52 5h8q26 0 49.5 -18.5t28.5 -47.5l7 -38v-6q0 -28 -18 -51t-49 -31l-12 -2q-12 -3 -30.5 -7t-42.5 -9t-49 -10q-58 -12 -131 -28zM-157 872
h59v-80q1 -11 9.5 -19.5t19.5 -9.5h7q11 0 20.5 7.5t11.5 18.5l16 78l57 -11l-12 -66v-5q0 -10 7.5 -16t18.5 -6h41v113h59v-120q0 -26 -15.5 -41t-41.5 -15h-43q-34 0 -58 24q-12 -12 -28.5 -18t-34.5 -7q-19 0 -36 7.5t-29.5 20t-20 29.5t-7.5 36v80zM12 1075l16 -59
l64 14q8 2 13.5 7.5t5.5 11.5v4l-9 39q-2 10 -8.5 13t-12.5 3h-4l-46 -5q-8 -1 -13.5 -7t-5.5 -15v-6z" />
    <glyph glyph-name="uniFC5F" unicode="&#xfc5f;" arabic-form="isolated" 
d="M-156 1079v80h59v-80q0 -12 8.5 -20.5t20.5 -8.5h7q11 0 20.5 7.5t11.5 18.5l15 77l58 -10l-13 -67v-5q0 -9 8 -15t19 -6h41v113h58v-120q0 -26 -15.5 -41.5t-41.5 -15.5h-42q-35 0 -58 25q-12 -12 -29 -18.5t-34 -6.5q-19 0 -36 7.5t-29.5 20t-20 29.5t-7.5 36z
M-161 756l309 66l13 -55l-312 -67zM148 944l13 -55l-312 -67l-10 56z" />
    <glyph glyph-name="uniFC60" unicode="&#xfc60;" arabic-form="isolated" 
d="M-154 794v80h58v-80q1 -12 9.5 -20.5t20.5 -9.5h7q11 0 20 8t11 19l16 77l58 -10l-13 -67v-5q0 -9 8 -15t19 -7h41v113h58v-119q0 -26 -15.5 -42t-41.5 -16h-42q-36 2 -58 25q-12 -11 -29 -18t-34 -7q-39 0 -66 27.5t-27 66.5zM-160 970l308 66l13 -55l-311 -66z" />
    <glyph glyph-name="uniFC61" unicode="&#xfc61;" arabic-form="isolated" 
d="M-152 965l113 24q-3 13 -8 35.5t-8 40.5q-1 5 -1 10q0 10 3.5 21.5t13 22.5t23 18.5t30.5 9.5l53 5h5q27 0 51 -19t29 -48l7 -39q1 -7 1 -13q0 -24 -17.5 -44.5t-49.5 -28.5l-10 -2q-11 -2 -27.5 -5.5t-37 -8t-42.5 -9.5q-51 -11 -116 -25zM-98 873v-81q1 -11 9.5 -19.5
t20.5 -9.5h6q12 0 21 8t11 19l16 77l58 -10l-13 -67v-5q0 -9 8 -15t19 -7h40v113h59v-119q0 -26 -16 -41.5t-42 -15.5h-42q-34 0 -58 24q-11 -11 -28 -17.5t-35 -6.5q-19 0 -36 7t-29.5 20t-20 30t-7.5 36v80h59zM5 1061l15 -61l65 15q8 2 13.5 7.5t5.5 12.5v4l-9 38
q-2 10 -9 14t-12 4q-3 0 -5 -1l-45 -6q-9 -1 -14 -7t-5 -14v-6z" />
    <glyph glyph-name="uniFC62" unicode="&#xfc62;" arabic-form="isolated" 
d="M-156 944v80h58v-80q1 -12 9.5 -20.5t20.5 -9.5h7q11 0 20 8t11 19l16 77l58 -10l-13 -67v-5q0 -9 8 -15t19 -6h41v112h58v-119q0 -26 -15.5 -41.5t-41.5 -15.5h-42q-36 0 -58 25q-12 -12 -29 -19t-34 -7q-19 0 -36 7.5t-29.5 20t-20 30t-7.5 36.5zM148 822l13 -56
l-312 -66l-10 55z" />
    <glyph glyph-name="uniFC63" unicode="&#xfc63;" arabic-form="isolated" 
d="M-157 873h58v-80q1 -12 9.5 -20.5t20.5 -9.5h7q11 0 20 8t11 19l16 77l58 -10l-13 -67v-5q0 -9 8 -15t19 -6h40l1 113h58v-120q0 -26 -15.5 -41.5t-41.5 -15.5h-42q-36 0 -58 25q-12 -12 -29 -18.5t-34 -6.5q-39 0 -66 27t-27 66v80zM27 1055v-148l-57 1v147h57z" />
    <glyph glyph-name="uniFE82" unicode="&#x622;" horiz-adv-x="297" arabic-form="final" 
d="M180 588v-426q0 -26 19 -45t46 -19h52q6 0 10 -4.5t4 -10.5v-69v-2q0 -4 -4 -8t-10 -4h-38q-33 0 -62.5 12.5t-51.5 34.5t-34.5 51t-12.5 62v428h82zM-25 614v43q0 18 7 33.5t18.5 26.5t26.5 17t31 6h196v-72h-192q-11 0 -17.5 -7.5t-6.5 -16.5v-30h-63z" />
    <glyph glyph-name="uniFE84" unicode="&#x623;" horiz-adv-x="255" arabic-form="final" 
d="M138 590v-429q0 -26 19 -44.5t46 -18.5h52q6 0 10 -4.5t4 -10.5v-69q0 -14 -14 -14h-39q-33 0 -62 12.5t-51 34.5t-34.5 51t-12.5 62v430h82zM56 726q-3 1 -7 2q-7 5 -12 14q-1 2 -7 13.5t-9 18.5q-10 21 -10 41t7 38t20.5 31.5t31.5 20.5l77 32l25 -58l-78 -35
q-12 -5 -16.5 -15t-4.5 -16q0 -8 5 -16l25 -48l128 67l28 -57l-250 -128l-29 60z" />
    <glyph glyph-name="uniFE86" unicode="&#x624;" horiz-adv-x="498" arabic-form="final" 
d="M63 166l17 91q10 50 48.5 82t88.5 32h57q31 0 58 -11.5t47 -32t31.5 -47.5t11.5 -57v-125h76q14 0 14 -14v-70q0 -14 -14 -14h-77v-5q0 -4 -1 -8q-3 -68 -44.5 -122t-108.5 -77l-123 -42l-26 81l128 43q42 14 67 47t25 78v14q-9 -5 -21.5 -7t-24.5 -2h-92q-33 0 -61 14
t-46.5 37t-25 47t-6.5 42q0 13 2 26zM148 536q-1 0 -7.5 2.5t-11.5 13.5q-1 2 -7 13.5t-9 18.5q-10 21 -10.5 31.5t-0.5 11.5q0 19 7.5 36.5t21 31.5t31.5 21l77 32l25 -60l-78 -34q-12 -5 -16.5 -15t-4.5 -16q0 -8 5 -17q2 -5 11 -21.5t14 -26.5l128 68l28 -57l-251 -127
l-28 59zM154 115q14 -17 37 -17h148v125q0 23 -16 39t-39 16h-71q-20 0 -34.5 -12t-18.5 -32l-16 -81q-1 -5 -1 -9q0 -17 11 -29z" />
    <glyph glyph-name="uniFE88" unicode="&#x625;" horiz-adv-x="271" arabic-form="final" 
d="M72 161v468h82v-467q0 -26 19 -45t46 -19h52q6 0 10 -4.5t4 -10.5v-69q0 -14 -14 -14h-39q-33 0 -62 12.5t-51 34.5t-34.5 51.5t-12.5 62.5zM95 -261q-3 1 -7 2q-7 3 -12 14q-1 2 -7 13.5t-10 19.5q-10 20 -10 40.5t7.5 38t21 31t31.5 21.5l76 31l25 -58l-78 -35
q-12 -5 -16 -15t-4 -15q0 -9 5 -17l24 -48l129 67l27 -57l-250 -128l-28 60z" />
    <glyph glyph-name="uniFE8A" unicode="&#x626;" horiz-adv-x="742" arabic-form="final" 
d="M72 221h82v-235q0 -26 10 -48t27 -39t40 -26.5t48 -9.5h178q42 0 71 28.5t30 70.5v38h-191v98h375q14 0 14 -13v-71q0 -14 -14 -14h-106q1 -3 2.5 -8.5t1.5 -13.5v-29q0 -39 -15 -72.5t-40.5 -58t-60 -39t-73.5 -14.5h-171q-43 0 -81 16.5t-66 44.5t-44.5 66t-16.5 81
v248zM70 390l75 35q0 1 -6.5 3t-11.5 13q-2 2 -7.5 14t-9.5 19q-10 21 -10.5 31.5t-0.5 11.5q0 19 7.5 36t21.5 31t32 21l76 32l25 -59l-78 -34q-12 -5 -16 -15.5t-4 -16.5q0 -8 4 -16q3 -5 11.5 -21.5t13.5 -26.5l128 67l28 -56l-250 -128z" />
    <glyph glyph-name="uniFE8B" unicode="&#x626;" horiz-adv-x="355" arabic-form="initial" 
d="M-14 83q0 6 4 10.5t10 4.5h138q26 0 45 19t19 45v192h82v-192q0 -33 -12.5 -62.5t-34.5 -51.5t-51.5 -35t-63.5 -13h-122q-6 0 -10 4.5t-4 9.5v69zM74 471q-1 1 -7.5 3t-12.5 13l-7 14q-6 12 -9 19q-10 20 -10 40.5t7.5 38t21 31.5t31.5 21l76 32l25 -59l-78 -34
q-12 -5 -16 -15.5t-4 -16.5q0 -8 4 -16q3 -5 11.5 -21.5t13.5 -26.5q19 10 40.5 21t40.5 21t32 17t15 8l28 -56l-250 -128l-28 59z" />
    <glyph glyph-name="uniFE8C" unicode="&#x626;" horiz-adv-x="355" arabic-form="medial" 
d="M0 98h71q26 0 45.5 16t24.5 41l34 166l81 -14l-28 -139q-1 -6 -1 -11q0 -21 16.5 -40t45.5 -19h66q14 0 14 -14v-70q0 -5 -4 -9.5t-10 -4.5h-67q-16 0 -33 5t-32 13.5t-26 20.5t-16 25q-16 -27 -48.5 -45.5t-66.5 -18.5h-66q-14 0 -14 14v70q0 14 14 14zM39 448l76 35
q-1 0 -7 2.5t-11 13.5q-2 3 -8 14.5t-10 18.5q-10 20 -10 40.5t7.5 38t21 31.5t31.5 21l77 32l24 -59l-77 -34q-13 -5 -17 -15t-4 -16q0 -9 5 -17q2 -5 10.5 -21.5t13.5 -25.5l129 66l27 -56l-249 -128z" />
    <glyph glyph-name="uniFE8E" unicode="&#x627;" horiz-adv-x="266" arabic-form="final" 
d="M153 668v-506q0 -26 19 -45t45 -19h49q6 0 10 -4.5t4 -10.5v-69q0 -14 -14 -14h-35q-33 0 -62 12.5t-51 34.5t-34.5 51.5t-12.5 62.5v507h82z" />
    <glyph glyph-name="uniFE90" unicode="&#x628;" horiz-adv-x="892" arabic-form="final" 
d="M70 187v167h82v-157q0 -42 28.5 -70.5t70.5 -28.5h401q26 0 45 19t19 45v164h82v-163q0 -27 19 -46t46 -19h29q14 0 14 -14v-70q0 -14 -14 -14h-15q-36 0 -67 17t-52 47q-23 -32 -54 -48t-68 -16h-380q-38 0 -72 14.5t-59.5 40t-40 59.5t-14.5 73zM481 -122v-95h-95v95
h95z" />
    <glyph glyph-name="uniFE91" unicode="&#x628;" horiz-adv-x="342" arabic-form="initial" 
d="M-14 83q0 6 4 10.5t10 4.5h138q26 0 45 19t19 45v192h82v-192q0 -33 -12.5 -62.5t-34.5 -51.5t-51.5 -35t-63.5 -13h-122q-6 0 -10 4.5t-4 9.5v69zM21 -215v95h95v-95h-95z" />
    <glyph glyph-name="uniFE92" unicode="&#x628;" horiz-adv-x="355" arabic-form="medial" 
d="M0 98h71q26 0 45.5 16t24.5 41l34 166l81 -14l-28 -139q-1 -6 -1 -11q0 -21 16.5 -40t45.5 -19h66q14 0 14 -14v-70q0 -5 -4 -9.5t-10 -4.5h-67q-16 0 -33 5t-32 13.5t-26 20.5t-16 25q-16 -27 -48.5 -45.5t-66.5 -18.5h-66q-14 0 -14 14v70q0 14 14 14zM227 -121v-95
h-95v95h95z" />
    <glyph glyph-name="uniFE94" unicode="&#x629;" horiz-adv-x="519" arabic-form="final" 
d="M71 180v65q0 63 35 106.5t89 57.5l138 35v79h82v-355q0 -14 6 -27t16.5 -22.5t23.5 -15t28 -5.5h30q14 0 14 -14v-70q0 -14 -14 -14h-30q-48 0 -84 25t-56 66q-9 -8 -23 -12t-28 -4h-123q-48 0 -76 28.5t-28 76.5zM153 173h180v181l-118 -29q-29 -7 -45.5 -31t-16.5 -53
v-68zM361 721v-95h-95v95h95zM214 721v-95h-95v95h95z" />
    <glyph glyph-name="uniFE96" unicode="&#x62a;" horiz-adv-x="893" arabic-form="final" 
d="M70 187v167h82v-157q0 -42 28.5 -70.5t70.5 -28.5h402q26 0 45 19t19 45v164h82v-163q0 -27 19 -46t46 -19h29q14 0 14 -14v-70q0 -14 -14 -14h-15q-36 0 -67 17t-52 47q-23 -32 -54 -48t-68 -16h-380q-39 0 -73 14.5t-59.5 40t-40 59.5t-14.5 73zM556 449v-95h-95v95h95
zM409 354h-95v95h95v-95z" />
    <glyph glyph-name="uniFE97" unicode="&#x62a;" horiz-adv-x="342" arabic-form="initial" 
d="M-14 83q0 6 4 10.5t10 4.5h138q26 0 45 19t19 45v192h82v-192q0 -33 -12.5 -62.5t-34.5 -51.5t-51.5 -35t-63.5 -13h-122q-6 0 -10 4.5t-4 9.5v69zM189 463v95h95v-95h-95zM42 558h95v-95h-95v95z" />
    <glyph glyph-name="uniFE98" unicode="&#x62a;" horiz-adv-x="355" arabic-form="medial" 
d="M0 98h71q26 0 45.5 16t24.5 41l34 166l81 -14l-28 -139q-1 -6 -1 -11q0 -21 16.5 -40t45.5 -19h66q14 0 14 -14v-70q0 -5 -4 -9.5t-10 -4.5h-67q-16 0 -33 5t-32 13.5t-26 20.5t-16 25q-16 -27 -48.5 -45.5t-66.5 -18.5h-66q-14 0 -14 14v70q0 14 14 14zM201 525h95v-95
h-95v95zM149 525v-95h-95v95h95z" />
    <glyph glyph-name="uniFE9A" unicode="&#x62b;" horiz-adv-x="893" arabic-form="final" 
d="M70 187v167h82v-157q0 -42 28.5 -70.5t70.5 -28.5h402q26 0 45 19t19 45v164h82v-163q0 -27 19 -46t46 -19h29q14 0 14 -14v-70q0 -14 -14 -14h-15q-36 0 -67 17t-52 47q-23 -32 -54 -48t-68 -16h-380q-39 0 -73 14.5t-59.5 40t-40 59.5t-14.5 73zM409 449v-95h-95v95h95
zM385 581h95v-95h-95v95zM556 449v-95h-95v95h95z" />
    <glyph glyph-name="uniFE9B" unicode="&#x62b;" horiz-adv-x="342" arabic-form="initial" 
d="M-14 83q0 6 4 10.5t10 4.5h138q26 0 45 19t19 45v192h82v-192q0 -33 -12.5 -62.5t-34.5 -51.5t-51.5 -35t-63.5 -13h-122q-6 0 -10 4.5t-4 9.5v69zM41 557h95v-95h-95v95zM208 690v-95h-95v95h95zM283 557v-95h-95v95h95z" />
    <glyph glyph-name="uniFE9C" unicode="&#x62b;" horiz-adv-x="355" arabic-form="medial" 
d="M0 98h71q26 0 45.5 16t24.5 41l34 166l81 -14l-28 -139q-1 -6 -1 -11q0 -21 16.5 -40t45.5 -19h66q14 0 14 -14v-70q0 -5 -4 -9.5t-10 -4.5h-67q-16 0 -33 5t-32 13.5t-26 20.5t-16 25q-16 -27 -48.5 -45.5t-66.5 -18.5h-66q-14 0 -14 14v70q0 14 14 14zM149 526v-95h-95
v95h95zM125 563v95h95v-95h-95zM296 526v-95h-95v95h95z" />
    <glyph glyph-name="uniFE9E" unicode="&#x62c;" horiz-adv-x="692" arabic-form="final" 
d="M70 249l24 84q8 27 25.5 46.5t40 30.5t38 12.5t21.5 1.5q18 0 34 -5l370 -112l-24 -76l-59 14q-8 2 -16 2q-15 0 -30 -7v-77q0 -28 19.5 -46.5t45.5 -18.5h133q14 0 14 -14v-70q0 -14 -14 -14h-119q-33 0 -61 12.5t-48.5 34t-32 50t-11.5 60.5v31l-185 -136
q-29 -22 -44.5 -52t-15.5 -64v-4q0 -33 12.5 -62t34 -51t50.5 -34.5t62 -12.5h243v-97h-242q-52 0 -97 19.5t-79 53t-53.5 78t-19.5 95.5q0 58 25.5 108t70.5 82q21 15 49.5 36t58 43t57 42t45.5 33q5 4 14.5 10t14.5 9l-201 60q-5 2 -11 2q-9 0 -20.5 -7.5t-16.5 -22.5
l-28 -87zM408 -5v-95h-95v95h95z" />
    <glyph glyph-name="uniFE9F" unicode="&#x62c;" horiz-adv-x="680" arabic-form="initial" 
d="M-14 83q0 15 14 15h168q47 0 90.5 15.5t75.5 47.5l79 75q10 10 16 13l-230 69q-6 2 -12 2q-9 0 -19.5 -6.5t-15.5 -21.5l-30 -87l-72 20l24 83q8 27 24.5 46.5t38 31t37.5 13t23 1.5q18 0 36 -5l390 -117l-26 -79l-42 13q-13 4 -25 5q-11 -1 -24.5 -7.5t-31.5 -23.5
l-115 -108q-42 -39 -94 -58t-109 -20h-156q-6 0 -10 4.5t-4 9.5v69zM276 -120h95v-95h-95v95z" />
    <glyph glyph-name="uniFEA0" unicode="&#x62c;" horiz-adv-x="685" arabic-form="medial" 
d="M-14 84q0 5 4.5 9.5t9.5 4.5h168q46 0 89.5 15t75.5 47l79 75q8 8 16 14l-229 68q-6 2 -12 2q-9 0 -20 -6.5t-16 -21.5l-30 -86l-72 19l24 84q8 26 24.5 45.5t38.5 31t38 13.5t23 2q18 0 35 -6l390 -117l-25 -79l-43 13q-12 4 -22 4q-8 0 -19.5 -3.5t-24.5 -13.5v-36
q0 -27 18.5 -45.5t45.5 -18.5h133q14 0 14 -14v-70q0 -14 -14 -14h-119q-30 0 -55 10t-44.5 28t-32 42t-17.5 52l-59 -55q-42 -39 -94 -58t-109 -19h-155q-14 0 -14 14v70zM275 -216v95h95v-95h-95z" />
    <glyph glyph-name="uniFEA2" unicode="&#x62d;" horiz-adv-x="691" arabic-form="final" 
d="M70 249l24 84q8 27 25.5 46.5t40 30.5t38 12.5t21.5 1.5q18 0 34 -5l370 -112l-24 -76l-59 14q-8 2 -16 2q-15 0 -30 -7v-77q0 -28 19.5 -46.5t45.5 -18.5h133q14 0 14 -14v-70q0 -14 -14 -14h-119q-33 0 -61 12.5t-48.5 34t-32 50t-11.5 60.5v31l-185 -136
q-29 -22 -44.5 -52t-15.5 -64v-4q0 -33 12.5 -62t34 -51t50.5 -34.5t62 -12.5h243v-97h-242q-52 0 -97 19.5t-79 53t-53.5 78t-19.5 95.5q0 58 25.5 108t70.5 82q21 15 49.5 36t58 43t57 42t45.5 33q5 4 14.5 10t14.5 9l-201 60q-5 2 -11 2q-9 0 -20.5 -7.5t-16.5 -22.5
l-28 -87z" />
    <glyph glyph-name="uniFEA3" unicode="&#x62d;" horiz-adv-x="680" arabic-form="initial" 
d="M-14 14v69q0 15 14 15h168q47 0 90.5 15.5t75.5 47.5l79 75q10 10 16 13l-230 69q-6 2 -12 2q-9 0 -19.5 -6.5t-15.5 -21.5l-30 -87l-72 20l24 83q8 27 24.5 46.5t38 31t37.5 13t23 1.5q18 0 36 -5l390 -117l-26 -79l-42 13q-13 4 -25 5q-11 -1 -24.5 -7.5t-31.5 -23.5
l-115 -108q-42 -39 -94 -58t-109 -20h-156q-6 0 -10 4.5t-4 9.5z" />
    <glyph glyph-name="uniFEA4" unicode="&#x62d;" horiz-adv-x="685" arabic-form="medial" 
d="M-14 14v70q0 5 4.5 9.5t9.5 4.5h168q46 0 89.5 15t75.5 47l79 75q8 8 16 14l-229 68q-6 2 -12 2q-9 0 -20 -6.5t-16 -21.5l-30 -86l-72 19l24 84q8 26 24.5 45.5t38.5 31t38 13.5t23 2q18 0 35 -6l390 -117l-25 -79l-43 13q-12 4 -22 4q-8 0 -19.5 -3.5t-24.5 -13.5v-36
q0 -27 18.5 -45.5t45.5 -18.5h133q14 0 14 -14v-70q0 -14 -14 -14h-119q-30 0 -55 10t-44.5 28t-32 42t-17.5 52l-59 -55q-42 -39 -94 -58t-109 -19h-155q-14 0 -14 14z" />
    <glyph glyph-name="uniFEA6" unicode="&#x62e;" horiz-adv-x="692" arabic-form="final" 
d="M70 249l24 84q8 27 25.5 46.5t40 30.5t38 12.5t21.5 1.5q18 0 34 -5l370 -112l-24 -76l-59 14q-8 2 -16 2q-15 0 -30 -7v-77q0 -28 19.5 -46.5t45.5 -18.5h133q14 0 14 -14v-70q0 -14 -14 -14h-119q-33 0 -61 12.5t-48.5 34t-32 50t-11.5 60.5v31l-185 -136
q-29 -22 -44.5 -52t-15.5 -64v-4q0 -33 12.5 -62t34 -51t50.5 -34.5t62 -12.5h243v-97h-242q-52 0 -97 19.5t-79 53t-53.5 78t-19.5 95.5q0 58 25.5 108t70.5 82q21 15 49.5 36t58 43t57 42t45.5 33q5 4 14.5 10t14.5 9l-201 60q-5 2 -11 2q-9 0 -20.5 -7.5t-16.5 -22.5
l-28 -87zM156 532v95h95v-95h-95z" />
    <glyph glyph-name="uniFEA7" unicode="&#x62e;" horiz-adv-x="680" arabic-form="initial" 
d="M-14 83q0 15 14 15h168q47 0 90.5 15.5t75.5 47.5l79 75q10 10 16 13l-230 69q-6 2 -12 2q-9 0 -19.5 -6.5t-15.5 -21.5l-30 -87l-72 20l24 83q8 27 24.5 46.5t38 31t37.5 13t23 1.5q18 0 36 -5l390 -117l-26 -79l-42 13q-13 4 -25 5q-11 -1 -24.5 -7.5t-31.5 -23.5
l-115 -108q-42 -39 -94 -58t-109 -20h-156q-6 0 -10 4.5t-4 9.5v69zM152 508v95h95v-95h-95z" />
    <glyph glyph-name="uniFEA8" unicode="&#x62e;" horiz-adv-x="685" arabic-form="medial" 
d="M-14 84q0 5 4.5 9.5t9.5 4.5h168q46 0 89.5 15t75.5 47l79 75q8 8 16 14l-229 68q-6 2 -12 2q-9 0 -20 -6.5t-16 -21.5l-30 -86l-72 19l24 84q8 26 24.5 45.5t38.5 31t38 13.5t23 2q18 0 35 -6l390 -117l-25 -79l-43 13q-12 4 -22 4q-8 0 -19.5 -3.5t-24.5 -13.5v-36
q0 -27 18.5 -45.5t45.5 -18.5h133q14 0 14 -14v-70q0 -14 -14 -14h-119q-30 0 -55 10t-44.5 28t-32 42t-17.5 52l-59 -55q-42 -39 -94 -58t-109 -19h-155q-14 0 -14 14v70zM152 603h95v-95h-95v95z" />
    <glyph glyph-name="uniFEAA" unicode="&#x62f;" horiz-adv-x="586" arabic-form="final" 
d="M141 231v-97q0 -15 9 -25.5t25 -10.5h146q19 0 34.5 8t26 21.5t14 26.5t3.5 22q0 8 -2 16l-76 276l78 29l97 -348q6 -23 24.5 -37t41.5 -14h24q5 0 9.5 -4.5t4.5 -10.5v-69q0 -14 -14 -14h-20q-38 0 -69 18.5t-51 48.5q-21 -32 -54 -49.5t-71 -17.5h-135q-24 0 -45 9.5
t-37 25t-25 37t-9 45.5v114h71z" />
    <glyph glyph-name="uniFEAC" unicode="&#x630;" horiz-adv-x="586" arabic-form="final" 
d="M141 231v-97q0 -15 9 -25.5t25 -10.5h146q19 0 34.5 8t26 21.5t14 26.5t3.5 22q0 8 -2 16l-76 276l78 29l97 -348q6 -23 24.5 -37t41.5 -14h24q5 0 9.5 -4.5t4.5 -10.5v-69q0 -14 -14 -14h-20q-38 0 -69 18.5t-51 48.5q-21 -32 -54 -49.5t-71 -17.5h-135q-24 0 -45 9.5
t-37 25t-25 37t-9 45.5v114h71zM292 700h95v-95h-95v95z" />
    <glyph glyph-name="uniFEAE" unicode="&#x631;" horiz-adv-x="418" arabic-form="final" 
d="M-41 -172l129 43q42 14 67 49t25 79v326h82v-167q0 -26 19.5 -43t45.5 -17h91q14 0 14 -14v-70q0 -14 -14 -14h-77q-23 0 -44 8.5t-35 28.5v-36q0 -36 -11.5 -69t-32 -61t-48.5 -48.5t-62 -32.5l-123 -42z" />
    <glyph glyph-name="uniFEB0" unicode="&#x632;" horiz-adv-x="425" arabic-form="final" 
d="M88 -129q42 14 67 49t25 79v326h82v-167q0 -26 19.5 -43t45.5 -17h98q14 0 14 -14v-70q0 -14 -14 -14h-83q-23 0 -44.5 8.5t-35.5 28.5v-36q0 -36 -11.5 -69t-32 -61t-48.5 -48.5t-62 -32.5l-123 -42l-26 80zM173 435v95h95v-95h-95z" />
    <glyph glyph-name="uniFEB2" unicode="&#x633;" horiz-adv-x="1210" arabic-form="final" 
d="M70 34v275h82v-262q0 -25 10 -48t26.5 -39.5t39.5 -26.5t48 -10h176q21 0 40 8t32.5 22t21.5 33t8 40v300h82v-165q0 -26 19.5 -44.5t45.5 -18.5h21q26 0 45.5 16t24.5 41l33 166l81 -15l-27 -138q-1 -5 -1 -9q0 -9 3.5 -19.5t11.5 -20.5t20.5 -15.5t26.5 -5.5h18
q26 0 45 18.5t19 44.5v194h83v-196q0 -24 19 -42.5t45 -18.5h41q14 0 14 -14v-69q0 -6 -4 -10.5t-10 -4.5h-27q-36 0 -67 16t-53 48q-22 -32 -54.5 -48t-68.5 -16q-34 0 -62 16t-46 48q-22 -33 -50.5 -48.5t-63.5 -15.5q-21 0 -43 7.5t-39 29.5v-36q0 -36 -15 -68t-40.5 -56
t-59 -38t-70.5 -14h-173q-43 0 -81 16.5t-66 45t-44.5 66.5t-16.5 81z" />
    <glyph glyph-name="uniFEB3" unicode="&#x633;" horiz-adv-x="714" arabic-form="initial" 
d="M-14 84q0 6 4.5 10t9.5 4h42q27 0 45.5 19.5t18.5 46.5v163h83v-165q0 -26 18.5 -45t44.5 -19h22q26 0 45.5 16t24.5 42l33 165l81 -14l-27 -138q-1 -7 -1 -13q0 -20 16.5 -39t45.5 -19h82v257h82v-254q0 -44 -28 -72.5t-72 -28.5h-65q-33 0 -62 16t-46 49
q-21 -34 -51.5 -49.5t-64.5 -15.5q-36 0 -67 16t-53 48q-21 -32 -52 -48t-68 -16h-27q-6 0 -10 4.5t-4 9.5v70z" />
    <glyph glyph-name="uniFEB4" unicode="&#x633;" horiz-adv-x="761" arabic-form="medial" 
d="M-14 14v70q0 14 14 14h41q26 1 45 19.5t19 44.5v164h83v-166q0 -26 19 -44t44 -18h23q26 0 46 16t25 41l32 166l81 -15l-27 -138q-1 -7 -1 -13q0 -21 17 -39t47 -18h16q26 0 45 18.5t19 44.5v193h83v-195q0 -26 19 -43.5t45 -17.5h40q14 0 14 -14v-70q0 -5 -3.5 -9.5
t-10.5 -4.5h-26q-36 0 -67 16t-52 48q-22 -32 -53.5 -48t-67.5 -16q-34 0 -64 15t-47 49q-22 -34 -52 -49t-64 -15q-37 0 -68 16t-53 48q-22 -32 -53 -48t-68 -16h-26q-5 0 -9.5 4.5t-4.5 9.5z" />
    <glyph glyph-name="uniFEB6" unicode="&#x634;" horiz-adv-x="1210" arabic-form="final" 
d="M152 309v-262q0 -25 10 -48t26.5 -39.5t39.5 -26.5t48 -10h176q21 0 40 8t32.5 22t21.5 33t8 40v300h82v-165q0 -26 19.5 -44.5t45.5 -18.5h21q26 0 45.5 16t24.5 41l33 166l81 -15l-27 -138q-1 -5 -1 -9q0 -9 3.5 -19.5t11.5 -20.5t20.5 -15.5t26.5 -5.5h18
q26 0 45 18.5t19 44.5v194h83v-196q0 -24 19 -42.5t45 -18.5h41q14 0 14 -14v-69q0 -6 -4 -10.5t-10 -4.5h-27q-36 0 -67 16t-53 48q-22 -32 -54.5 -48t-68.5 -16q-34 0 -62 16t-46 48q-22 -33 -50.5 -48.5t-63.5 -15.5q-21 0 -43 7.5t-39 29.5v-36q0 -36 -15 -68t-40.5 -56
t-59 -38t-70.5 -14h-173q-43 0 -81 16.5t-66 45t-44.5 66.5t-16.5 81v275h82zM799 524v-95h-95v95h95zM870 656v-95h-95v95h95zM851 524h95v-95h-95v95z" />
    <glyph glyph-name="uniFEB7" unicode="&#x634;" horiz-adv-x="716" arabic-form="initial" 
d="M-10 94q5 4 10 4h43q27 0 46 19t19 46v163h82v-164q0 -27 19 -45.5t45 -18.5h20q26 0 45.5 16t24.5 41l34 166l82 -15l-27 -137q-1 -7 -1 -13q0 -21 16.5 -39.5t45.5 -18.5h82v256h82v-253q0 -45 -28 -73t-72 -28h-65q-33 0 -62 16t-46 48q-21 -33 -51.5 -48.5
t-64.5 -15.5q-37 0 -68 15.5t-52 47.5q-22 -32 -53 -47.5t-68 -15.5h-28q-14 0 -14 14v69q0 6 4 11zM352 524v-95h-95v95h95zM329 561v95h95v-95h-95zM499 524v-95h-95v95h95z" />
    <glyph glyph-name="uniFEB8" unicode="&#x634;" horiz-adv-x="764" arabic-form="medial" 
d="M-14 84q0 14 14 14h43q26 0 45 19.5t19 45.5v164h83v-169q0 -26 19 -43t44 -17h23q26 0 46 16.5t25 41.5l32 166l82 -15l-28 -138q-1 -6 -1 -12q0 -21 17 -40t48 -19h15q26 0 45 19t19 45v193h83v-196q2 -26 20 -43.5t44 -17.5h41q14 0 14 -14v-70q0 -5 -3.5 -9.5
t-10.5 -4.5h-27q-36 0 -67 16t-52 48q-22 -32 -53.5 -48t-67.5 -16q-34 0 -64 15t-47 49q-22 -34 -52 -49t-64 -15q-37 0 -68 16t-53 48q-22 -32 -53 -48t-68 -16h-28q-5 0 -9.5 4.5t-4.5 9.5v70zM258 429v95h95v-95h-95zM329 561v95h95v-95h-95zM500 524v-95h-95v95h95z
" />
    <glyph glyph-name="uniFEBA" unicode="&#x635;" horiz-adv-x="1272" arabic-form="final" 
d="M153 309v-262q0 -25 9.5 -48t26.5 -39.5t39.5 -26.5t47.5 -10h176q21 0 39.5 8t33 22t22.5 33t8 40v300h82v-137q0 -16 3 -26t7 -16q4 -7 10 -11l154 167q29 32 69 49.5t85 17.5h61q31 0 58 -11.5t47 -31.5t31.5 -47t11.5 -58v-60q0 -27 19 -45.5t46 -18.5h32q5 0 10 -4
t5 -10v-70q0 -6 -4.5 -10t-9.5 -4h-19q-36 0 -66.5 15t-51.5 43q-21 -28 -51 -43t-65 -15h-261q-38 0 -70 8.5t-51 30.5v-38q0 -37 -15 -69t-40.5 -56t-59 -37.5t-71.5 -13.5h-173q-43 0 -81 16.5t-66 44.5t-44.5 66t-16.5 82v275h83zM1032 98q25 0 42.5 17t17.5 42v58
q0 26 -18.5 44.5t-44.5 18.5h-73q-29 0 -54 -12t-45 -32l-127 -136h302z" />
    <glyph glyph-name="uniFEBB" unicode="&#x635;" horiz-adv-x="788" arabic-form="initial" 
d="M-14 83q0 6 4 10.5t10 4.5h46q27 0 46 18.5t19 45.5v147h82v-119q0 -16 3 -26t7 -16q4 -7 10 -11l154 167q29 32 69 49.5t84 17.5h62q31 0 58 -11.5t47 -32t31.5 -47.5t11.5 -57v-67q0 -32 -12.5 -60.5t-33.5 -49.5t-49 -33.5t-60 -12.5h-301q-37 0 -71.5 16t-51.5 48
q-22 -32 -53 -48t-67 -16h-31q-6 0 -10 4.5t-4 9.5v69zM286 98h302q25 0 42.5 17t17.5 43v58q0 26 -18.5 44t-44.5 18h-73q-30 0 -55 -11.5t-44 -31.5z" />
    <glyph glyph-name="uniFEBC" unicode="&#x635;" horiz-adv-x="828" arabic-form="medial" 
d="M-14 14v70q0 6 4.5 10t9.5 4h48q27 0 45.5 18.5t18.5 44.5v148h82v-125q0 -15 2.5 -24.5t6.5 -14.5q3 -7 8 -10l156 168q30 32 69.5 49.5t84.5 17.5h61q31 0 58 -11.5t47.5 -31.5t32 -47t11.5 -58v-65q0 -25 19 -42t45 -17h33q5 0 9.5 -4t4.5 -10v-70q0 -5 -4 -9.5
t-10 -4.5h-19q-36 0 -67 15.5t-51 47.5q-43 -63 -116 -63h-302q-39 0 -70.5 14.5t-51.5 48.5q-45 -63 -119 -63h-32q-14 0 -14 14zM588 98q25 0 43 17.5t18 41.5v59q0 26 -19 44t-45 18h-73q-29 0 -54 -12t-45 -32l-128 -136h303z" />
    <glyph glyph-name="uniFEBE" unicode="&#x636;" horiz-adv-x="1271" arabic-form="final" 
d="M151 309v-262q0 -25 10 -48t26.5 -39.5t39.5 -26.5t48 -10h176q21 0 39.5 8t33 22t22.5 33t8 40v300h82v-137q0 -16 3 -26t7 -16q4 -7 10 -11l154 167q29 32 69 49.5t85 17.5h61q31 0 58 -11.5t47 -31.5t31.5 -47t11.5 -58v-60q0 -27 19 -45.5t46 -18.5h32q5 0 10 -4
t5 -10v-70q0 -6 -4.5 -10t-9.5 -4h-19q-36 0 -66.5 14.5t-51.5 42.5q-43 -57 -116 -57h-261q-38 0 -70 8.5t-51 30.5v-38q0 -37 -15 -69t-40.5 -56t-59 -37.5t-71.5 -13.5h-173q-43 0 -81 16.5t-66 44.5t-44.5 66t-16.5 82v275h82zM1031 98q25 0 42.5 17t17.5 42v58
q0 26 -18.5 44t-44.5 18h-73q-29 0 -54 -11.5t-45 -31.5l-127 -136h302zM1008 575v-95h-95v95h95z" />
    <glyph glyph-name="uniFEBF" unicode="&#x636;" horiz-adv-x="788" arabic-form="initial" 
d="M-14 83q0 6 4 10.5t10 4.5h46q27 0 46 18.5t19 45.5v147h82v-119q0 -16 3 -26t7 -16q4 -7 10 -11l154 167q29 32 69 49.5t84 17.5h62q31 0 58 -11.5t47 -32t31.5 -47.5t11.5 -57v-67q0 -32 -12.5 -60.5t-33.5 -49.5t-49 -33.5t-60 -12.5h-301q-37 0 -71.5 16t-51.5 48
q-22 -32 -53 -48t-67 -16h-31q-6 0 -10 4.5t-4 9.5v69zM286 98h302q25 0 42.5 17t17.5 43v58q0 26 -18.5 44t-44.5 18h-73q-30 0 -55 -11.5t-44 -31.5zM580 575v-95h-95v95h95z" />
    <glyph glyph-name="uniFEC0" unicode="&#x636;" horiz-adv-x="829" arabic-form="medial" 
d="M-14 14v70q0 6 4.5 10t9.5 4h48q27 0 45.5 18.5t18.5 44.5v148h82v-125q0 -15 2.5 -24.5t6.5 -14.5q3 -7 8 -10l156 168q30 32 69.5 49.5t84.5 17.5h61q31 0 58 -11.5t47.5 -31.5t32 -47t11.5 -58v-65q0 -25 19 -42t45 -17h33q5 0 9.5 -4t4.5 -10v-70q0 -5 -4 -9.5
t-10 -4.5h-19q-36 0 -67 15.5t-51 47.5q-43 -63 -116 -63h-302q-39 0 -70.5 14.5t-51.5 48.5q-45 -63 -119 -63h-32q-14 0 -14 14zM285 98h303q25 0 43 17.5t18 41.5v59q0 26 -19 44t-45 18h-73q-29 0 -54 -12t-45 -32zM486 574h95v-95h-95v95z" />
    <glyph glyph-name="uniFEC2" unicode="&#x637;" horiz-adv-x="780" arabic-form="final" 
d="M125 98l110 118v452h82v-328q0 -17 -4 -31q-3 -12 -5 -15l11 11q8 8 14 13q26 25 62 39t75 14h62q31 0 58 -11.5t47 -31.5t31.5 -47t11.5 -58v-61q0 -27 19 -45.5t46 -18.5h36q5 0 9.5 -4t4.5 -10v-70q0 -6 -4.5 -10t-9.5 -4h-22q-36 0 -67 15.5t-51 46.5
q-21 -31 -51 -46.5t-66 -15.5h-453v98h54zM538 98q25 0 42.5 17.5t17.5 42.5v58q0 26 -18.5 44t-44.5 18h-73q-29 0 -54.5 -11t-45.5 -32l-128 -137h304z" />
    <glyph glyph-name="uniFEC3" unicode="&#x637;" horiz-adv-x="677" arabic-form="initial" 
d="M-14 84q0 14 14 14h64l109 118v452h83v-327q0 -8 -1 -16.5t-3 -15.5q-2 -8 -5 -15l4 4q3 3 6.5 7t6.5 7l4 4q29 27 65.5 41t75.5 14h62q31 0 58 -11.5t47 -31.5t31.5 -47t11.5 -58v-67q0 -32 -12.5 -60.5t-33.5 -49.5t-49.5 -33.5t-60.5 -12.5h-463q-6 0 -10 4.5t-4 10.5
v69zM477 98q25 0 42.5 17.5t17.5 42.5v59q0 26 -18.5 44t-44.5 18h-73q-59 0 -100 -44l-128 -137h304z" />
    <glyph glyph-name="uniFEC4" unicode="&#x637;" horiz-adv-x="720" arabic-form="medial" 
d="M0 98h64l110 118v452h82v-328q0 -17 -4 -31q-3 -12 -5 -15l11 11q8 8 14 13q26 25 62 39t75 14h62q31 0 58 -11.5t47 -31.5t31.5 -47t11.5 -58v-61q0 -27 19 -45.5t46 -18.5h36q5 0 9.5 -4t4.5 -10v-70q0 -6 -4.5 -10t-9.5 -4h-22q-36 0 -67 15.5t-51 47.5
q-21 -32 -51 -47.5t-66 -15.5h-463q-14 0 -14 14v70q0 14 14 14zM477 98q25 0 42.5 17.5t17.5 42.5v58q0 26 -18.5 44t-44.5 18h-73q-29 0 -54.5 -11t-45.5 -32l-128 -137h304z" />
    <glyph glyph-name="uniFEC6" unicode="&#x638;" horiz-adv-x="780" arabic-form="final" 
d="M71 98h54l110 118v452h82v-328q0 -17 -4 -31q-3 -12 -5 -15l11 11q8 8 14 13q26 25 62 39t75 14h62q31 0 58 -11.5t47 -31.5t31.5 -47t11.5 -58v-61q0 -27 19 -45.5t46 -18.5h36q5 0 9.5 -4t4.5 -10v-70q0 -6 -4.5 -10t-9.5 -4h-22q-36 0 -67 15.5t-51 46.5
q-21 -31 -51 -46.5t-66 -15.5h-453v98zM538 98q25 0 42.5 17.5t17.5 42.5v58q0 26 -18.5 44t-44.5 18h-73q-29 0 -54.5 -11t-45.5 -32l-128 -137h304zM433 575h95v-95h-95v95z" />
    <glyph glyph-name="uniFEC7" unicode="&#x638;" horiz-adv-x="676" arabic-form="initial" 
d="M-14 84q0 14 14 14h64l109 118v452h83v-327q0 -8 -1 -16.5t-3 -15.5q-2 -8 -5 -15l4 4q3 3 6.5 7t6.5 7l4 4q29 27 65.5 41t75.5 14h62q31 0 58 -11.5t47 -31.5t31.5 -47t11.5 -58v-67q0 -32 -12.5 -60.5t-33.5 -49.5t-49.5 -33.5t-60.5 -12.5h-463q-6 0 -10 4.5t-4 10.5
v69zM173 98h304q25 0 42.5 17.5t17.5 42.5v59q0 26 -18.5 44t-44.5 18h-73q-59 0 -100 -44zM375 575h95v-95h-95v95z" />
    <glyph glyph-name="uniFEC8" unicode="&#x638;" horiz-adv-x="720" arabic-form="medial" 
d="M0 98h64l110 118v452h82v-328q0 -17 -4 -31q-3 -12 -5 -15l11 11q8 8 14 13q26 25 62 39t75 14h62q31 0 58 -11.5t47 -31.5t31.5 -47t11.5 -58v-61q0 -27 19 -45.5t46 -18.5h36q5 0 9.5 -4t4.5 -10v-70q0 -6 -4.5 -10t-9.5 -4h-22q-36 0 -67 15.5t-51 47.5
q-21 -32 -51 -47.5t-66 -15.5h-463q-14 0 -14 14v70q0 14 14 14zM477 98q25 0 42.5 17.5t17.5 42.5v58q0 26 -18.5 44t-44.5 18h-73q-29 0 -54.5 -11t-45.5 -32l-128 -137h304zM375 574h95v-95h-95v95z" />
    <glyph glyph-name="uniFECA" unicode="&#x639;" horiz-adv-x="606" arabic-form="final" 
d="M95 -43q24 49 70 82l74 55l-134 91v128q0 42 24.5 66.5t65.5 24.5h181q29 0 54.5 -11t44.5 -29.5t30 -43.5t11 -54v-25q0 -23 -11 -45.5t-31 -36.5l-67 -47q20 -8 42.5 -10.5t45.5 -2.5h111q7 0 9.5 -5t2.5 -11v-70q0 -13 -12 -13h-112q-50 0 -95.5 12t-87.5 34l-92 -66
q-29 -21 -45 -52.5t-16 -68.5q0 -33 12.5 -61.5t34.5 -50.5t51 -34.5t62 -12.5h246v-97h-246q-51 0 -96 19.5t-79 53.5t-53.5 79t-19.5 96q0 57 25 106zM186 311v-75l131 -86l118 82v26q0 23 -17.5 38t-40.5 15h-191z" />
    <glyph glyph-name="uniFECB" unicode="&#x639;" horiz-adv-x="479" arabic-form="initial" 
d="M-15 14v69q0 6 4 10.5t12 4.5h112q-8 13 -11 28l-22 117q-2 13 -2 26q0 18 6.5 41.5t25.5 46.5t47 37t60 14h163v-93h-168q-25 0 -38.5 -16.5t-13.5 -34.5q0 -5 1 -11l30 -153l218 23l13 -87l-153 -21q-59 -8 -116.5 -12t-114.5 -4h-39q-6 0 -9.5 4.5t-4.5 10.5z" />
    <glyph glyph-name="uniFECC" unicode="&#x639;" horiz-adv-x="609" arabic-form="medial" 
d="M-14 83q0 6 4.5 10.5t9.5 4.5h127q24 0 50 3.5t42 9.5l-112 76v129q0 40 24 64.5t64 24.5h188q28 0 53 -10.5t43.5 -29.5t29.5 -43.5t11 -53.5v-25q0 -24 -11 -46t-31 -36l-71 -49q16 -5 41.5 -9.5t54.5 -4.5h106h2q5 0 8.5 -4.5t3.5 -10.5v-69q0 -5 -4 -9.5t-9 -4.5
h-118q-48 0 -93.5 13t-87.5 36q-42 -23 -87.5 -36t-93.5 -13h-130q-5 0 -9.5 4.5t-4.5 9.5v69zM223 215q21 -15 42 -29q24 -17 51 -36l122 83v26q0 24 -16 39.5t-39 15.5h-194v-77q12 -8 34 -22z" />
    <glyph glyph-name="uniFECE" unicode="&#x63a;" horiz-adv-x="607" arabic-form="final" 
d="M95 -44q24 50 70 82l74 55l-134 91v129q0 42 24.5 66.5t65.5 24.5h181q29 0 54.5 -11t44.5 -29.5t30 -43.5t11 -54v-25q0 -23 -11 -46t-31 -37l-67 -47q20 -7 42.5 -10t45.5 -3h111q15 0 15 -16v-68q0 -13 -15 -13h-112q-100 0 -183 44l-92 -66q-29 -20 -45 -52t-16 -69
q0 -32 12.5 -61t34.5 -50.5t51 -34t62 -12.5h246v-97h-246q-51 0 -96 19.5t-79 53t-53.5 79t-19.5 96.5q0 56 25 105zM186 310v-74l131 -86l118 81v27q0 23 -17.5 37.5t-40.5 14.5h-191zM344 607v-95h-95v95h95z" />
    <glyph glyph-name="uniFECF" unicode="&#x63a;" horiz-adv-x="479" arabic-form="initial" 
d="M-11 94q4 4 11 4h113q-8 13 -11 28l-22 117q-2 13 -2 26q0 18 6.5 41.5t25.5 46.5t47 37t60 14h163v-93h-168q-25 0 -38.5 -16.5t-13.5 -34.5q0 -5 1 -11l30 -153l218 23l13 -87l-153 -21q-117 -15 -231 -15h-38q-12 0 -14 14v69q0 6 3 11zM299 587v-95h-95v95h95z" />
    <glyph glyph-name="uniFED0" unicode="&#x63a;" horiz-adv-x="609" arabic-form="medial" 
d="M-14 14v69q0 6 4 10.5t10 4.5h132q26 0 51.5 3.5t40.5 9.5l-111 76v129q0 40 24 64.5t64 24.5h187q28 0 53 -10.5t44 -29.5t30 -43.5t11 -53.5v-25q0 -24 -11 -46t-32 -36l-70 -49q15 -5 38 -9.5t57 -4.5h101q7 0 10.5 -4.5t3.5 -10.5v-69q0 -5 -4.5 -9.5t-9.5 -4.5h-111
q-48 0 -93.5 13t-87.5 36q-42 -23 -87.5 -36t-93.5 -13h-136q-5 0 -9.5 4.5t-4.5 9.5zM194 314v-77q12 -8 33.5 -22.5t42.5 -28.5q25 -17 52 -36l122 83v26q0 24 -16 39.5t-39 15.5h-195zM256 610h95v-94h-95v94z" />
    <glyph glyph-name="uniFED2" unicode="&#x641;" horiz-adv-x="932" arabic-form="final" 
d="M71 189v164h82v-159q0 -42 27.5 -69t69.5 -27h333q-25 24 -39.5 52.5t-14.5 60.5v29q0 35 14 66.5t38 55.5t55 38t65 14h14q35 0 66 -13.5t54 -36.5t36.5 -54.5t13.5 -66.5v-32q0 -32 -14.5 -60.5t-39.5 -52.5h102q6 0 10 -4.5t4 -10.5v-69q0 -6 -4.5 -10t-9.5 -4h-90
q-18 0 -33 1.5t-31 5t-33 9.5t-39 16q-43 -19 -72 -25.5t-64 -6.5h-310q-41 0 -75.5 14.5t-60 40t-40 60t-14.5 74.5zM611 234v-30q0 -26 27.5 -50.5t68.5 -42.5q42 17 69 42.5t27 50.5v30q0 36 -26 61.5t-63 25.5h-15q-36 0 -62 -25.5t-26 -61.5zM658 617h95v-95h-95v95z
" />
    <glyph glyph-name="uniFED3" unicode="&#x641;" horiz-adv-x="464" arabic-form="initial" 
d="M-10 94q4 4 10 4h253q28 0 49 16t21 51v16q-22 -9 -47 -9h-85q-33 0 -61.5 14t-47.5 37.5t-25.5 47.5t-6.5 42q0 13 3 27l16 83q5 25 17.5 45.5t30.5 35.5t41 23.5t48 8.5h53q30 0 57 -11.5t46.5 -31.5t31 -47t11.5 -57v-227q0 -34 -12.5 -63.5t-34.5 -51.5t-51.5 -34.5
t-63.5 -12.5h-243q-14 0 -14 14v70q0 5 4 10zM144 287q14 -17 37 -17h142v119q0 23 -16 39t-39 16h-66q-20 0 -35.5 -12.5t-18.5 -32.5l-14 -72q-1 -5 -1 -10q0 -17 11 -30zM189 644v95h95v-95h-95z" />
    <glyph glyph-name="uniFED4" unicode="&#x641;" horiz-adv-x="461" arabic-form="medial" 
d="M-10 94q4 4 10 4h93q9 0 14 1q-25 23 -39 51.5t-14 60.5v30q0 36 14 68t37 55t54 36.5t65 13.5h14q35 0 66 -13.5t54 -36.5t36.5 -54t13.5 -66v-33q0 -32 -14.5 -60.5t-39.5 -51.5q5 -1 15 -1h92q6 0 10 -4.5t4 -10.5v-69q0 -14 -14 -14h-95q-35 0 -66 7t-70 25
q-39 -18 -70 -25t-66 -7h-94q-14 0 -14 14v69q0 6 4 11zM136 234v-27q0 -29 26 -52.5t68 -43.5q42 20 69 43.5t27 52.5v27q0 37 -26 62.5t-63 25.5h-15q-36 0 -61 -25.5t-25 -62.5zM276 618v-95h-95v95h95z" />
    <glyph glyph-name="uniFED6" unicode="&#x642;" horiz-adv-x="734" arabic-form="final" 
d="M70 -17v248h82v-235q0 -26 10 -48t26.5 -39t39.5 -26.5t48 -9.5h176q43 0 72.5 28t29.5 69v38q-7 -2 -19 -5t-27 -3h-85q-33 0 -61.5 14t-47.5 37.5t-25.5 47.5t-6.5 42q0 13 3 27l15 83q10 50 48.5 81.5t88.5 31.5h53q31 0 57.5 -11.5t46.5 -31t31.5 -46.5t11.5 -57
v-120h97q6 0 10 -4.5t4 -10.5v-69q0 -5 -4 -9.5t-10 -4.5h-97v-39q0 -39 -14.5 -72.5t-40 -59t-59 -40t-72.5 -14.5h-173q-43 0 -81 16.5t-66 44.5t-44.5 66t-16.5 81zM376 115q14 -17 37 -17h142v119q0 23 -16 38.5t-39 15.5h-66q-20 0 -35 -12t-19 -32l-14 -72
q-1 -6 -1 -11q0 -16 11 -29zM579 568v-95h-95v95h95zM432 568v-95h-95v95h95z" />
    <glyph glyph-name="uniFED7" unicode="&#x642;" horiz-adv-x="464" arabic-form="initial" 
d="M-14 83q0 6 4 10.5t10 4.5h254q28 0 48.5 16.5t20.5 50.5v17q-21 -9 -47 -9h-84q-33 0 -61.5 14t-47.5 37.5t-25.5 47t-6.5 41.5q0 14 3 28l15 83q10 50 48.5 81.5t88.5 31.5h53q31 0 57.5 -11.5t46.5 -31.5t31.5 -47t11.5 -57v-227q0 -34 -13 -63.5t-35 -51.5t-51.5 -35
t-63.5 -13h-243q-6 0 -10 4.5t-4 10.5v68zM145 288q14 -18 37 -18h142v120q0 23 -16 39t-39 16h-67q-20 0 -35 -12.5t-19 -32.5l-13 -72q-1 -6 -1 -11q0 -16 11 -29zM257 740h95v-95h-95v95zM110 645v95h95v-95h-95z" />
    <glyph glyph-name="uniFED8" unicode="&#x642;" horiz-adv-x="461" arabic-form="medial" 
d="M-10 94q4 4 10 4h93q9 0 14 1q-25 23 -39 51.5t-14 60.5v30q0 36 14 68t37 55t54 36.5t65 13.5h14q35 0 66 -13.5t54 -36.5t36.5 -54t13.5 -66v-33q0 -32 -14.5 -60.5t-39.5 -51.5q5 -1 15 -1h92q6 0 10 -4.5t4 -10.5v-69q0 -14 -14 -14h-95q-35 0 -66 7t-70 25
q-39 -18 -70 -25t-66 -7h-94q-14 0 -14 14v69q0 6 4 11zM162 155q26 -24 68 -44q42 20 69 43.5t27 52.5v27q0 37 -26 62.5t-63 25.5h-15q-36 0 -61 -25.5t-25 -62.5v-27q0 -29 26 -52zM255 618h95v-95h-95v95zM108 523v95h95v-95h-95z" />
    <glyph glyph-name="uniFEDA" unicode="&#x643;" horiz-adv-x="893" arabic-form="final" 
d="M70 354h82v-157q0 -42 29 -70.5t71 -28.5h400q26 0 45.5 19t19.5 46v520h82v-520q0 -27 19 -46t46 -19h29q14 0 14 -14v-70q0 -14 -14 -14h-15q-37 0 -67.5 15.5t-52.5 43.5q-22 -28 -53.5 -43.5t-67.5 -15.5h-380q-39 0 -73 14.5t-59.5 40t-40 59.5t-14.5 73v167z
M365 380q-4 0 -9 3.5t-10 11.5q-1 3 -7 14.5t-10 19.5q-10 20 -10 40.5t7.5 38.5t21 32t31.5 21l77 31l24 -59l-77 -34q-13 -6 -17 -16t-4 -15q0 -9 5 -17q2 -5 10.5 -21.5t13.5 -26.5l129 67l28 -57l-251 -127l-28 59z" />
    <glyph glyph-name="uniFEDB" unicode="&#x643;" horiz-adv-x="393" arabic-form="initial" 
d="M-14 84q0 5 4 9.5t10 4.5h135q32 0 56.5 15.5t36 39t11.5 49.5q0 4 -1 21.5t-24 47.5l-164 225v65l318 161l37 -74l-271 -137l148 -193q39 -51 41 -82.5t2 -38.5q0 -48 -22 -92t-69 -74.5t-109 -30.5h-125q-6 0 -10 4.5t-4 10.5v69z" />
    <glyph glyph-name="uniFEDC" unicode="&#x643;" horiz-adv-x="513" arabic-form="medial" 
d="M-14 84q0 5 4 9.5t10 4.5h135q32 0 56.5 16t36 38.5t11.5 47.5q0 5 -1.5 23t-23.5 48l-164 224v66l318 161l37 -74l-271 -137l278 -366q16 -22 39 -35t50 -13h12q14 0 14 -14v-69q0 -5 -4 -9.5t-10 -4.5h-10q-88 0 -142 79l-50 72q-5 -35 -22.5 -63t-43 -47.5t-56.5 -30
t-64 -10.5h-125q-6 0 -10 4.5t-4 10.5v69z" />
    <glyph glyph-name="uniFEDE" unicode="&#x644;" horiz-adv-x="757" arabic-form="final" 
d="M70 281h82v-233q0 -25 10 -48t26.5 -39.5t39.5 -26.5t48 -10h176q21 0 40 8t33 22t22 33t8 40v641h82v-506q0 -26 19 -45t46 -19h55q6 0 10 -4.5t4 -9.5v-69q0 -6 -4 -10.5t-10 -4.5h-40q-23 0 -43 7.5t-37 30.5v-33q0 -33 -13.5 -65t-38 -57.5t-59 -41t-75.5 -15.5h-173
q-43 0 -81 16.5t-66 45t-44.5 66.5t-16.5 81v246z" />
    <glyph glyph-name="uniFEDF" unicode="&#x644;" horiz-adv-x="265" arabic-form="initial" 
d="M0 98h60q27 0 46 19t19 45v506h83v-506q0 -34 -13 -63.5t-35 -51.5t-51.5 -34.5t-63.5 -12.5h-45q-14 0 -14 14v70q0 14 14 14z" />
    <glyph glyph-name="uniFEE0" unicode="&#x644;" horiz-adv-x="333" arabic-form="medial" 
d="M0 98h63q27 0 46 19t19 45v506h82v-510q2 -26 20 -43t44 -17h59q14 0 14 -14v-70q0 -14 -14 -14h-45q-36 0 -67 14.5t-52 40.5q-22 -26 -53.5 -40.5t-67.5 -14.5h-48q-14 0 -14 14v70q0 14 14 14z" />
    <glyph glyph-name="uniFEE2" unicode="&#x645;" horiz-adv-x="742" arabic-form="final" 
d="M70 208q0 34 13 63.5t35 51.5t51.5 35t63.5 13h226q31 0 58 -11.5t47.5 -31.5t32 -47t11.5 -58v-60q0 -27 19 -46t45 -19h70q14 0 14 -14v-70q0 -5 -4 -9.5t-10 -4.5h-56q-29 0 -56.5 11t-47.5 36q-11 -27 -30 -37t-45 -10h-121q-33 0 -61 14t-46.5 37t-25 47t-6.5 42
q0 13 2 27l21 112h-53q-26 0 -45.5 -20.5t-19.5 -47.5v-462h-82v459zM340 115q13 -17 38 -17h148v126q0 23 -16.5 39t-39.5 16h-116l-23 -125q-1 -6 -1 -11q0 -15 10 -28z" />
    <glyph glyph-name="uniFEE3" unicode="&#x645;" horiz-adv-x="520" arabic-form="initial" 
d="M-14 14v70q0 5 4 9.5t10 4.5h32q25 0 44.5 16t24.5 41l20 103q10 49 48.5 81t88.5 32h56q31 0 58 -11.5t47 -31.5t31.5 -47t11.5 -58v-122q0 -44 -28 -72.5t-72 -28.5h-121q-31 0 -58 14t-45 49q-20 -35 -49.5 -49t-61.5 -14h-27q-14 0 -14 14zM195 115q14 -17 37 -17
h148v126q0 23 -16 38.5t-39 15.5h-71q-20 0 -34.5 -12t-18.5 -32l-16 -80q-1 -5 -1 -10q0 -16 11 -29z" />
    <glyph glyph-name="uniFEE4" unicode="&#x645;" horiz-adv-x="561" arabic-form="medial" 
d="M-14 84q0 5 4 9.5t9 4.5h33q25 0 44.5 16t24.5 41l20 103q10 49 48.5 81t88.5 32h56q31 0 58 -11.5t47 -31.5t31.5 -47t11.5 -58v-61q0 -26 19 -45t46 -19h34q14 0 14 -14v-70q0 -6 -4.5 -10t-9.5 -4h-20q-29 0 -56.5 11t-47.5 37q-11 -29 -30 -38.5t-45 -9.5h-121
q-31 0 -58 14t-45 49q-20 -35 -49.5 -49t-61.5 -14h-27q-14 0 -14 14v70zM195 115q14 -17 37 -17h148v126q0 23 -16 38.5t-39 15.5h-71q-20 0 -34.5 -12t-18.5 -32l-16 -80q-1 -5 -1 -10q0 -16 11 -29z" />
    <glyph glyph-name="uniFEE6" unicode="&#x646;" horiz-adv-x="762" arabic-form="final" 
d="M70 32v276h82v-263q0 -25 10 -47.5t26.5 -39.5t39.5 -26.5t48 -9.5h176q21 0 40 8t33 22t22 33t8 40v300h82v-162q0 -33 21 -49t48 -16h56q14 0 14 -14v-70q0 -5 -4 -9.5t-10 -4.5h-47q-29 0 -49 11.5t-29 25.5v-36q0 -37 -15 -69t-40.5 -56t-59 -38t-71.5 -14h-173
q-43 0 -81 16.5t-66 44.5t-44.5 66t-16.5 81zM401 420v-95h-95v95h95z" />
    <glyph glyph-name="uniFEE7" unicode="&#x646;" horiz-adv-x="345" arabic-form="initial" 
d="M-14 83q0 6 4 10.5t10 4.5h138q26 0 45 19t19 45v192h82v-192q0 -33 -12.5 -62.5t-34.5 -51.5t-51.5 -35t-63.5 -13h-122q-6 0 -10 4.5t-4 9.5v69zM192 559h95v-95h-95v95z" />
    <glyph glyph-name="uniFEE8" unicode="&#x646;" horiz-adv-x="355" arabic-form="medial" 
d="M0 98h71q26 0 45.5 16t24.5 41l34 166l81 -14l-28 -139q-1 -6 -1 -11q0 -21 16.5 -40t45.5 -19h66q14 0 14 -14v-70q0 -5 -4 -9.5t-10 -4.5h-67q-16 0 -33 5t-32 13.5t-26 20.5t-16 25q-16 -27 -48.5 -45.5t-66.5 -18.5h-66q-14 0 -14 14v70q0 14 14 14zM142 525h95v-95
h-95v95z" />
    <glyph glyph-name="uniFEEA" unicode="&#x647;" horiz-adv-x="519" arabic-form="final" 
d="M71 180v65q0 63 35 106.5t90 57.5l137 35v79h82v-355q0 -14 6 -27t16.5 -22.5t23.5 -15t28 -5.5h30q14 0 14 -14v-70q0 -14 -14 -14h-30q-48 0 -84 25t-56 66q-9 -8 -23 -12t-28 -4h-123q-48 0 -76 29t-28 76zM153 241v-68h180v182l-117 -29q-29 -8 -46 -32t-17 -53z" />
    <glyph glyph-name="uniFEEB" unicode="&#x647;" horiz-adv-x="704" arabic-form="initial" 
d="M-14 84q0 14 14 14h101q-14 6 -17.5 23t-3.5 29q0 10 2 21l15 70q5 24 17.5 44t30 34.5t40 23t46.5 8.5h38q30 0 56.5 -11.5t46 -31t30.5 -45.5t11 -55v-72q0 -17 -4 -27t-4 -11h159v141q0 29 -15.5 49.5t-40.5 28.5l-338 104l23 85l329 -102q54 -17 89.5 -61t35.5 -107
v-131q0 -48 -29 -76.5t-77 -28.5h-154v55q-3 -10 -12.5 -19.5t-22.5 -17.5t-28 -13t-30 -5h-294q-14 0 -14 13v71zM171 114q14 -16 36 -16h123v115q0 22 -15 37t-38 15h-51q-19 0 -33.5 -12t-18.5 -31l-13 -71q-1 -5 -1 -11q0 -15 11 -26z" />
    <glyph glyph-name="uniFEEC" unicode="&#x647;" horiz-adv-x="585" arabic-form="medial" 
d="M-14 84q0 6 4.5 10t9.5 4h78v115q0 30 11.5 57t31.5 47t46.5 31.5t57.5 11.5h40q50 0 88.5 -32t48.5 -81l15 -79q3 -14 3 -28q0 -18 -6.5 -41.5t-26 -47t-47.5 -37.5t-61 -14h-71q-25 0 -48 9q0 -1 1 -3v-7v-4q0 -75 66 -88l99 -19l87 125q29 41 68.5 63t90.5 22h13
q5 0 9.5 -4t4.5 -10v-70q0 -14 -14 -14h-30q-53 0 -85 -49q-3 -5 -20 -29t-36 -51.5t-34.5 -50.5t-17.5 -25l-173 42q-52 11 -81 53.5t-29 109.5h-79q-5 0 -9.5 4t-4.5 10v70zM161 213v-115h128q23 0 35.5 15t12.5 30q0 5 -1 11l-13 68q-3 20 -18.5 32.5t-35.5 12.5h-54
q-23 0 -38.5 -15.5t-15.5 -38.5z" />
    <glyph glyph-name="uniFEEE" unicode="&#x648;" horiz-adv-x="498" arabic-form="final" 
d="M63 166l17 91q10 50 48.5 82t88.5 32h57q31 0 58 -11.5t47 -32t31.5 -47.5t11.5 -57v-125h76q14 0 14 -14v-70q0 -14 -14 -14h-77v-5q0 -4 -1 -8q-3 -68 -44.5 -122t-108.5 -77l-123 -42l-26 81l128 43q42 14 67 47t25 78v14q-9 -5 -21.5 -7t-24.5 -2h-92q-33 0 -61 14
t-46.5 37t-25 47t-6.5 42q0 13 2 26zM154 115q14 -17 37 -17h148v125q0 23 -16 39t-39 16h-71q-20 0 -34.5 -12t-18.5 -32l-16 -81q-1 -5 -1 -9q0 -17 11 -29z" />
    <glyph glyph-name="uniFEF0" unicode="&#x649;" horiz-adv-x="740" arabic-form="final" 
d="M70 -27v248h82v-235q0 -26 10 -48t27 -39t40 -26.5t48 -9.5h178q42 0 71 28.5t30 70.5v38h-191v98h375q14 0 14 -13v-71q0 -14 -14 -14h-106q1 -3 2.5 -8.5t1.5 -13.5v-29q0 -39 -15 -72.5t-40.5 -58t-60 -39t-73.5 -14.5h-171q-43 0 -81 16.5t-66 44.5t-44.5 66
t-16.5 81z" />
    <glyph glyph-name="uniFEF2" unicode="&#x64a;" horiz-adv-x="740" arabic-form="final" 
d="M70 -27v248h82v-235q0 -26 10 -48t27 -39t40 -26.5t48 -9.5h178q42 0 71 28.5t30 70.5v38h-191v98h375q14 0 14 -13v-71q0 -14 -14 -14h-106q1 -3 2.5 -8.5t1.5 -13.5v-29q0 -39 -15 -72.5t-40.5 -58t-60 -39t-73.5 -14.5h-171q-43 0 -81 16.5t-66 44.5t-44.5 66
t-16.5 81zM475 -321v-95h-95v95h95zM328 -321v-95h-94v95h94z" />
    <glyph glyph-name="uniFEF3" unicode="&#x64a;" horiz-adv-x="394" arabic-form="initial" 
d="M-14 83q0 6 4 10.5t10 4.5h198q26 0 45 19t19 45v192h82v-192q0 -33 -12.5 -62.5t-34.5 -51.5t-51.5 -35t-63.5 -13h-182q-6 0 -10 4.5t-4 9.5v69zM154 -215v95h95v-95h-95zM7 -120h95v-95h-95v95z" />
    <glyph glyph-name="uniFEF4" unicode="&#x64a;" horiz-adv-x="355" arabic-form="medial" 
d="M0 98h71q26 0 45.5 16t24.5 41l34 166l81 -14l-28 -139q-1 -6 -1 -11q0 -21 16.5 -40t45.5 -19h66q14 0 14 -14v-70q0 -5 -4 -9.5t-10 -4.5h-67q-16 0 -33 5t-32 13.5t-26 20.5t-16 25q-16 -27 -48.5 -45.5t-66.5 -18.5h-66q-14 0 -14 14v70q0 14 14 14zM206 -120h95v-95
h-95v95zM154 -120v-95h-95v95h95z" />
    <glyph glyph-name=".notdef" horiz-adv-x="250" 
 />
    <glyph glyph-name=".null" 
 />
    <glyph glyph-name=".null" 
 />
    <glyph glyph-name="uni000D" unicode="&#xd;" horiz-adv-x="250" 
 />
    <glyph glyph-name="space" unicode=" " horiz-adv-x="120" 
 />
    <glyph glyph-name="exclam" unicode="!" horiz-adv-x="247" 
d="M76 0v118h96v-118h-96zM78 237l-8 450h107l-9 -450h-90z" />
    <glyph glyph-name="quotedbl" unicode="&#x22;" horiz-adv-x="398" 
d="M60 687h98l-6 -229h-89zM240 687h97l-5 -229h-89z" />
    <glyph glyph-name="numbersign" unicode="#" horiz-adv-x="659" 
d="M70 164v84h105v161h-105v84h105v171h88v-171h133v171h88v-171h105v-84h-105v-161h105v-84h-105v-164h-88v164h-133v-164h-88v164h-105zM263 248h133v161h-133v-161z" />
    <glyph glyph-name="dollar" unicode="$" horiz-adv-x="580" 
d="M80 556q9 33 35 59.5t71 42t113 15.5h9l18 130l57 1l-17 -135q12 -1 29 -3.5t35 -5t35 -5.5t29 -6l-8 -81q-10 1 -29 3t-38.5 4t-37 3.5t-26.5 2.5l-27 -206q47 -13 81 -27t56.5 -34t33.5 -48.5t11 -70.5q-1 -101 -58.5 -155t-163.5 -54h-9l-13 -112q-58 3 -58 6l14 110
l-32 5q-20 3 -40 6.5t-39 7t-33 6.5l11 79q10 -1 31 -3.5t43.5 -4.5t42.5 -4t27 -3l27 214q-39 11 -74 25t-61 36t-40.5 54.5t-14.5 79.5q0 34 10 68zM172 493q0 -21 5.5 -36t17.5 -26t31.5 -20t46.5 -17l24 189q-27 -1 -50 -4.5t-39.5 -13t-26 -26.5t-9.5 -46zM291 77
q60 2 88.5 29t28.5 78q0 21 -5 35t-16 24t-28.5 17.5t-42.5 15.5z" />
    <glyph glyph-name="percent" unicode="%" horiz-adv-x="596" 
d="M40 531q0 140 115 140q114 0 114 -140q0 -72 -29 -108t-85 -36q-115 0 -115 144zM327 133q0 140 114 140q115 0 115 -140q0 -72 -29.5 -108t-85.5 -36t-85 36t-29 108zM378 689l58 -20l-217 -693l-58 18zM111 531q0 -81 44 -81q43 0 43 81q0 77 -43 77q-44 0 -44 -77z
M398 134q0 -82 44 -82q43 0 43 81q0 77 -43 77q-24 0 -34 -18.5t-10 -57.5z" />
    <glyph glyph-name="ampersand" unicode="&#x26;" horiz-adv-x="759" 
d="M70 202q0 41 9 72.5t27.5 55t47 41t67.5 31.5q-34 38 -48 70t-14 72q0 80 49 121t140 41q90 0 137 -40t47 -115q0 -36 -10.5 -65t-30 -52.5t-46.5 -42.5t-60 -36l130 -128q5 13 8.5 31t6.5 38t5.5 40.5t3.5 37.5l97 -2q-15 -123 -48 -205l121 -112l-57 -66l-115 103
q-41 -53 -93.5 -78t-129.5 -25q-126 0 -185 53.5t-59 159.5zM314 79q54 0 94 17.5t60 51.5l-194 194q-54 -19 -78.5 -49.5t-24.5 -84.5q0 -129 143 -129zM267 508q6 -20 16 -37t22.5 -32t23.5 -27q18 9 36.5 21.5t33 29t23.5 36.5t9 45q0 36 -20.5 55.5t-63.5 19.5
q-44 0 -65.5 -19.5t-21.5 -53.5q0 -19 7 -38z" />
    <glyph glyph-name="quotesingle" unicode="'" horiz-adv-x="218" 
d="M63 458l-3 229h98l-6 -229h-89z" />
    <glyph glyph-name="parenleft" unicode="(" horiz-adv-x="314" 
d="M70 302q0 51 8 107t22 113.5t34 115.5t45 112h95q-16 -42 -32.5 -99.5t-30.5 -119.5t-23 -123.5t-9 -109.5q0 -44 7.5 -95.5t20 -106t30 -111t37.5 -110.5h-95q-22 42 -42 96t-35 111.5t-23.5 114.5t-8.5 105z" />
    <glyph glyph-name="parenright" unicode=")" horiz-adv-x="314" 
d="M78 -15q17 57 30 111.5t20 106t7 95.5q0 48 -9 109.5t-22.5 123.5t-30.5 119.5t-33 99.5h96q24 -54 44 -112t34.5 -115.5t22 -113.5t7.5 -107q0 -48 -8.5 -105t-23 -114.5t-34 -111.5t-42.5 -96h-96q21 54 38 110z" />
    <glyph glyph-name="asterisk" unicode="*" horiz-adv-x="566" 
d="M134 466l149 -149l149 149l64 -64l-149 -149l149 -149l-64 -64l-149 150l-149 -150l-64 64l150 149l-150 149z" />
    <glyph glyph-name="plus" unicode="+" horiz-adv-x="595" 
d="M251 296v184h91v-184h183v-90h-183v-185h-91v185h-181v90h181z" />
    <glyph glyph-name="comma" unicode="," horiz-adv-x="274" 
d="M70 27q0 16 6 37t10 32l43 125l58 -20l-44 -130l62 -23l-35 -102q-16 6 -30 11.5t-25 11.5q-15 8 -29.5 22t-15.5 36z" />
    <glyph glyph-name="hyphen" unicode="-" horiz-adv-x="440" 
d="M70 226v92h300v-92h-300z" />
    <glyph glyph-name="period" unicode="." horiz-adv-x="246" 
d="M75 0v118h96v-118h-96z" />
    <glyph glyph-name="slash" unicode="/" horiz-adv-x="443" 
d="M124 -22l-89 31l285 704l88 -33z" />
    <glyph glyph-name="zero" unicode="0" horiz-adv-x="594" 
d="M50 331q0 92 15 156.5t45.5 106t77 60.5t108.5 19q63 0 109.5 -19t77 -60.5t46 -106t15.5 -156.5q0 -91 -15 -156t-46 -106t-77.5 -60t-108.5 -19q-63 0 -109 19t-77 60t-46 106t-15 156zM156 331q0 -70 8 -118t25 -77t44 -42t64 -13q38 0 64.5 13t43.5 42t25 77t8 118
q0 71 -8 119t-25 77t-43.5 42t-64.5 13q-37 0 -64 -13t-44 -42t-25 -77t-8 -119z" />
    <glyph glyph-name="one" unicode="1" horiz-adv-x="433" 
d="M261 0v545l-159 -103l-47 76l214 142h94v-660h-102z" />
    <glyph glyph-name="two" unicode="2" horiz-adv-x="555" 
d="M236 266l77 82q26 31 41.5 63.5t15.5 71.5q0 51 -29.5 74t-92.5 23q-65 0 -146 -15l-26 -4l-6 82q48 14 96.5 21t97.5 7q108 0 159.5 -44t51.5 -138q0 -57 -19 -98q-14 -34 -44 -69t-79 -83l-151 -147h308v-92h-425v89z" />
    <glyph glyph-name="three" unicode="3" horiz-adv-x="565" 
d="M65 19l7 81q54 -11 96.5 -16.5t77.5 -5.5q68 0 108.5 26t40.5 85q0 51 -30.5 78.5t-89.5 27.5h-133v88h133q20 0 39 7.5t34 21.5t24 34.5t9 47.5q0 45 -29.5 66t-98.5 21q-62 0 -146 -15l-26 -4l-8 78q94 32 198 32q114 0 164.5 -41.5t50.5 -133.5q0 -51 -24 -89.5
t-66 -61.5q28 -12 48 -25.5t32.5 -31.5t18 -41.5t5.5 -56.5q0 -103 -53 -152.5t-170 -49.5q-39 0 -84 5t-96 18z" />
    <glyph glyph-name="four" unicode="4" horiz-adv-x="561" 
d="M218 660h112l-185 -450h198v198h103v-198h75v-89h-75v-121h-103v121h-303v78z" />
    <glyph glyph-name="five" unicode="5" horiz-adv-x="579" 
d="M65 23l12 78q114 -21 197 -21q66 0 100 34.5t34 99.5q0 59 -29 86.5t-87 27.5q-30 0 -56.5 -6t-46 -13.5t-31 -14t-12.5 -7.5l-67 12l18 361h393v-90h-310l-18 -186q36 17 71.5 25.5t77.5 8.5q100 0 151.5 -49t51.5 -151q0 -109 -58 -169t-164 -60q-44 0 -95 7.5
t-98 18.5z" />
    <glyph glyph-name="six" unicode="6" horiz-adv-x="609" 
d="M65 326q0 177 67.5 261t194.5 84q47 0 97 -7t94 -15l-9 -81q-48 7 -92 10.5t-83 3.5q-79 0 -120.5 -50t-41.5 -147q19 6 40 12t40.5 10.5t37 7.5t30.5 3q224 0 224 -205q0 -110 -61 -167t-173 -57q-123 0 -184 85t-61 252zM206 135q33 -56 101 -56q64 0 97.5 33t33.5 96
q0 60 -31.5 90t-91.5 30q-15 0 -34 -3t-39 -7.5t-38.5 -10t-32.5 -10.5q1 -106 35 -162z" />
    <glyph glyph-name="seven" unicode="7" horiz-adv-x="525" 
d="M234 -11l-96 29l239 522v28h-312v92h415v-124z" />
    <glyph glyph-name="eight" unicode="8" horiz-adv-x="608" 
d="M55 172q0 58 25 98t76 73q-48 29 -69 63.5t-21 84.5q0 49 22.5 83.5t57 56t76 31.5t80.5 10q47 0 90 -11t77 -33.5t54 -56.5t20 -80q0 -27 -5 -48t-16 -38t-29 -32t-44 -30q53 -30 78.5 -67.5t25.5 -95.5q0 -96 -64.5 -143.5t-189.5 -47.5q-244 0 -244 183zM165 189
q0 -107 139 -107q140 0 140 108q0 43 -22.5 65.5t-70.5 37.5h-98q-45 -14 -66.5 -38.5t-21.5 -65.5zM175 483q0 -35 19 -59t59 -41h98q43 17 63 41t20 60q0 95 -129 95q-130 0 -130 -96z" />
    <glyph glyph-name="nine" unicode="9" horiz-adv-x="576" 
d="M60 445q0 108 63 167t174 59q120 0 181 -87.5t61 -258.5q0 -175 -67 -255.5t-202 -80.5q-36 0 -75.5 5t-82.5 13l-28 5l9 80q48 -7 92.5 -10t86.5 -3q160 0 161 202q-51 -18 -88 -26.5t-69 -8.5q-106 0 -161 50.5t-55 148.5zM286 335q30 0 61 6.5t64 17.5l22 7
q-1 216 -141 216q-59 0 -92.5 -34.5t-33.5 -97.5q0 -115 120 -115z" />
    <glyph glyph-name="colon" unicode=":" horiz-adv-x="244" 
d="M75 0v118h96v-118h-96zM75 326v118h96v-118h-96z" />
    <glyph glyph-name="semicolon" unicode=";" horiz-adv-x="272" 
d="M70 72l34 97q16 -6 29.5 -11t24.5 -12q17 -10 30 -25.5t13 -32.5q0 -7 -1.5 -16.5t-4 -19t-5 -18t-4.5 -13.5l-44 -124l-55 20l45 132zM81 323v114h95v-114h-95z" />
    <glyph glyph-name="less" unicode="&#x3c;" horiz-adv-x="492" 
d="M40 209v84l412 195v-102l-307 -133l307 -138v-103z" />
    <glyph glyph-name="equal" unicode="=" horiz-adv-x="577" 
d="M70 303v91h437v-91h-437zM507 200v-91h-437v91h437z" />
    <glyph glyph-name="greater" unicode="&#x3e;" horiz-adv-x="492" 
d="M452 293v-84l-412 -197v103l307 138l-307 133v102z" />
    <glyph glyph-name="question" unicode="?" horiz-adv-x="494" 
d="M153 691q40 7 74 7h9q100 -1 149 -36t49 -119q0 -33 -3.5 -57.5t-13 -45.5t-26.5 -40t-44 -40q-37 -29 -62 -58t-25 -61v-33h-81q-6 11 -11 24q-4 11 -7.5 24.5t-3.5 27.5q0 18 13.5 38t32.5 39t38.5 36t32.5 29q17 16 27.5 28t16.5 23.5t8.5 24t2.5 28.5q0 40 -27.5 59
t-87.5 19q-23 0 -60 -4.5t-88 -15.5l-6 78q48 16 93 25zM168 1v117h96v-117h-96z" />
    <glyph glyph-name="at" unicode="@" horiz-adv-x="1032" 
d="M100 464q30 88 88 146.5t143.5 87t195.5 28.5q221 0 328 -110.5t107 -324.5q0 -59 -8.5 -112.5t-29.5 -94t-55.5 -64.5t-86.5 -24q-48 0 -80 15.5t-47 44.5q-46 -29 -87 -44t-81 -15q-41 0 -73.5 12.5t-55 41.5t-34.5 76.5t-12 116.5t10.5 118t34 80.5t61 46t90.5 14.5
q23 0 53 -8.5t53 -16.5v14h100v-209q0 -61 1.5 -100t8 -61.5t20.5 -31.5t39 -9q28 0 43.5 20t23.5 51t10 69t2 74q0 87 -19 151.5t-59.5 107t-104 63.5t-153.5 21q-179 0 -267 -93.5t-88 -291.5q0 -89 17.5 -158t59 -116.5t110 -72t169.5 -24.5l143 9l5 -87q-16 -2 -37 -4
l-42 -3q-21 -1 -39.5 -2t-30.5 -1h-21q-103 0 -184.5 27.5t-138 86.5t-84.5 146.5t-28 201.5q0 120 30 208zM499 86q42 0 122 37q-4 23 -5.5 58.5t-1.5 86.5v131q-27 8 -49.5 12.5t-43.5 4.5q-31 0 -52 -9t-34 -29t-18 -52t-5 -78q0 -162 87 -162z" />
    <glyph glyph-name="A" unicode="A" horiz-adv-x="601" 
d="M203 689h195l179 -689h-93l-44 163h-279l-44 -163h-93zM421 246l-95 363h-50l-96 -363h241z" />
    <glyph glyph-name="B" unicode="B" horiz-adv-x="598" 
d="M328 688q106 0 156.5 -43.5t50.5 -137.5q0 -58 -20.5 -94t-64.5 -59q53 -20 78 -59t25 -104q0 -98 -55 -144.5t-160 -46.5h-268v688h258zM168 305v-220h166q61 0 91 25t30 81q0 60 -33.5 87t-91.5 27h-162zM168 603v-213h161q109 0 109 108q0 55 -27 80t-87 25h-156z" />
    <glyph glyph-name="C" unicode="C" horiz-adv-x="540" 
d="M50 345q0 60 9.5 123t37.5 114t78 83.5t131 32.5q85 0 194 -24l-3 -84q-50 8 -92 12.5t-77 4.5q-57 0 -91 -26t-52.5 -66t-24 -88.5t-5.5 -93.5t6 -90.5t24.5 -81.5t54.5 -58.5t97 -22.5q31 0 71.5 4t88.5 13l3 -86q-53 -11 -98.5 -16.5t-82.5 -5.5q-79 0 -131 28
t-82.5 76t-43 113t-12.5 139z" />
    <glyph glyph-name="D" unicode="D" horiz-adv-x="630" 
d="M70 0v687h240q79 0 131 -27t83 -73t43.5 -105.5t12.5 -125.5q0 -171 -64.5 -263.5t-205.5 -92.5h-240zM173 90h137q48 0 80 22t51 59t26.5 86t7.5 102q0 57 -8.5 101.5t-28 74.5t-51 46t-77.5 16h-137v-507z" />
    <glyph glyph-name="E" unicode="E" horiz-adv-x="551" 
d="M501 687v-90h-326v-205h266v-90h-266v-212h326v-90h-429v687h429z" />
    <glyph glyph-name="F" unicode="F" horiz-adv-x="523" 
d="M493 687v-90h-320v-240h267v-90h-267v-268h-103v688h423z" />
    <glyph glyph-name="G" unicode="G" horiz-adv-x="610" 
d="M64 506q14 66 47 108.5t86 63t131 20.5t187 -20l35 -7l-3 -82q-123 18 -207 18q-56 0 -92 -19t-56.5 -54t-28.5 -84t-8 -109q0 -41 5.5 -87t23.5 -85t53 -64.5t94 -25.5q35 0 62 2.5t54 7.5v180h-100v90h203v-346q-136 -24 -223 -24q-77 0 -130 25t-85.5 72t-47 113.5
t-14.5 148.5q0 92 14 158z" />
    <glyph glyph-name="H" unicode="H" horiz-adv-x="655" 
d="M173 687v-297h310v297h102v-686h-102v299h-310v-299h-103v686h103z" />
    <glyph glyph-name="I" unicode="I" horiz-adv-x="243" 
d="M70 0v687h103v-687h-103z" />
    <glyph glyph-name="J" unicode="J" horiz-adv-x="279" 
d="M19 19q27 0 45.5 3.5t30 14t16.5 28.5t5 48v574h103v-584q0 -49 -14 -82t-40 -53.5t-63 -29.5t-83 -9v90z" />
    <glyph glyph-name="K" unicode="K" horiz-adv-x="568" 
d="M70 687h103v-311l104 6l151 305h117l-179 -344l187 -343h-120l-155 292l-105 -6v-286h-103v687z" />
    <glyph glyph-name="L" unicode="L" horiz-adv-x="479" 
d="M70 0v687h103v-596h281v-91h-384z" />
    <glyph glyph-name="M" unicode="M" horiz-adv-x="827" 
d="M250 687l164 -545l163 545h180v-687h-103v575h-14l-173 -548h-107l-174 548h-13v-575h-103v687h180z" />
    <glyph glyph-name="N" unicode="N" horiz-adv-x="663" 
d="M251 687l225 -597h14v597h103v-687h-178l-229 598h-13v-598h-103v687h181z" />
    <glyph glyph-name="O" unicode="O" horiz-adv-x="654" 
d="M50 340q0 125 27 202.5t87.5 116.5t163.5 39q101 0 162 -39t87.5 -117t26.5 -203q0 -123 -25.5 -199t-86 -113.5t-164.5 -37.5t-164.5 37t-87 114t-26.5 200zM155 341q0 -95 15 -151t52 -83.5t106 -27.5q67 0 103.5 26t52 82t15.5 153q0 96 -16 154t-53 86t-102 28
q-67 0 -104 -28t-53 -85.5t-16 -153.5z" />
    <glyph glyph-name="P" unicode="P" horiz-adv-x="587" 
d="M70 0v687h253q118 0 173.5 -57t55.5 -172q0 -118 -57 -178.5t-172 -60.5h-150v-219h-103zM173 309h149q127 0 127 150q0 72 -30 105t-97 33h-149v-288z" />
    <glyph glyph-name="Q" unicode="Q" horiz-adv-x="664" 
d="M75 500q14 67 46.5 111t85.5 65.5t130 21.5t129.5 -21.5t85.5 -65t47.5 -110.5t14.5 -158q0 -49 -5.5 -96.5t-18 -89t-33.5 -74t-53 -52.5l83 -136l-94 -45l-89 145q-24 -6 -65 -6q-78 0 -131.5 23.5t-86.5 68.5t-47 110.5t-14 149.5q0 92 15 159zM165 339q0 -40 4.5 -86
t22 -84.5t52.5 -64t95 -25.5q50 0 83 17.5t52.5 50.5t27 80.5t7.5 108.5q0 59 -7.5 109t-27 86t-53 56.5t-85.5 20.5q-50 0 -83 -19t-52.5 -54t-27.5 -84.5t-8 -111.5z" />
    <glyph glyph-name="R" unicode="R" horiz-adv-x="612" 
d="M330 687q229 0 229 -213q0 -152 -116 -201l118 -273h-112l-106 250h-170v-250h-103v687h260zM173 597v-257h158q61 0 92 33.5t31 96.5q0 127 -124 127h-157z" />
    <glyph glyph-name="S" unicode="S" horiz-adv-x="556" 
d="M284 699q37 0 85 -5.5t123 -17.5l-9 -84q-57 7 -108 12t-90 5q-132 0 -132 -91q0 -31 16 -51.5t41 -34.5t55 -22.5t58 -16.5q33 -10 66 -23.5t59 -35.5t42 -54.5t16 -79.5q0 -103 -59 -157t-171 -54q-42 0 -96 8t-123 19l10 82q137 -18 203 -18q133 0 133 117
q0 26 -10 43t-29 29t-45.5 21t-59.5 17q-49 12 -88 28t-66 39t-41 55.5t-14 78.5q0 191 234 191z" />
    <glyph glyph-name="T" unicode="T" horiz-adv-x="530" 
d="M15 687h500v-91h-197v-596h-103v596h-200v91z" />
    <glyph glyph-name="U" unicode="U" horiz-adv-x="629" 
d="M65 687h103v-471q0 -137 147 -137q73 0 109.5 33t36.5 104v471h103v-469q0 -119 -62 -174t-189 -55q-126 0 -187 55t-61 174v469z" />
    <glyph glyph-name="V" unicode="V" horiz-adv-x="600" 
d="M25 687h107l142 -597h52l142 597h107l-172 -687h-206z" />
    <glyph glyph-name="W" unicode="W" horiz-adv-x="903" 
d="M25 687h108l103 -598h23l134 595h119l133 -595h23l104 598h106l-136 -687h-169l-121 561l-121 -561h-169z" />
    <glyph glyph-name="X" unicode="X" horiz-adv-x="584" 
d="M25 0l207 334l-207 353h115l155 -277l156 277h108l-206 -349l206 -338h-115l-154 266l-157 -266h-108z" />
    <glyph glyph-name="Y" unicode="Y" horiz-adv-x="574" 
d="M135 687l152 -302l153 302h114l-215 -402v-285h-102v285l-217 402h115z" />
    <glyph glyph-name="Z" unicode="Z" horiz-adv-x="530" 
d="M490 687v-103l-329 -475v-19h329v-91h-450v102l329 476v20h-329v90h450z" />
    <glyph glyph-name="bracketleft" unicode="[" horiz-adv-x="338" 
d="M298 749v-89h-126v-694h126v-89h-228v872h228z" />
    <glyph glyph-name="backslash" unicode="\" horiz-adv-x="470" 
d="M348 -23l-313 695l87 39l313 -697z" />
    <glyph glyph-name="bracketright" unicode="]" horiz-adv-x="338" 
d="M268 749v-872h-228v89h126v694h-126v89h228z" />
    <glyph glyph-name="asciicircum" unicode="^" horiz-adv-x="548" 
d="M229 660h87l191 -343h-105l-128 246l-129 -246h-105z" />
    <glyph glyph-name="underscore" unicode="_" horiz-adv-x="568" 
d="M70 -170v86h428v-86h-428z" />
    <glyph glyph-name="a" unicode="a" horiz-adv-x="501" 
d="M74 255q38 35 123 43l136 12v38q0 42 -18 60t-54 18q-48 0 -96.5 -3t-96.5 -8l-4 71q54 13 103 19t93 6q92 0 132.5 -38.5t40.5 -124.5v-236q2 -21 13 -31t35 -14l-4 -78q-45 0 -74.5 9t-54.5 30q-82 -39 -166 -39q-73 0 -110 40t-37 116q0 75 39 110zM204 72
q25 0 52.5 5t56.5 14l20 6v141l-124 -12q-73 -6 -73 -79q0 -75 68 -75z" />
    <glyph glyph-name="b" unicode="b" horiz-adv-x="521" 
d="M170 711v-231q39 17 70 24t67 7q49 0 84 -14t57 -45t32.5 -80t10.5 -120t-13 -121t-42 -81.5t-75 -46t-113 -14.5q-42 0 -87.5 4t-90.5 9v709h100zM170 401v-318q9 -1 21 -1.5t24 -1.5t22.5 -1.5t15.5 -0.5q77 0 107 40t30 135q0 47 -5.5 79.5t-18.5 52.5t-32.5 29
t-48.5 9q-24 0 -52 -5.5t-63 -16.5z" />
    <glyph glyph-name="c" unicode="c" horiz-adv-x="436" 
d="M61 361q11 48 35 82t62.5 51.5t93.5 17.5q33 0 68 -4.5t86 -14.5l-4 -79q-2 0 -16.5 1t-33 2.5t-38 3t-30.5 1.5q-40 0 -66 -10t-40.5 -31.5t-20 -54.5t-5.5 -79q0 -32 3 -62t16 -53.5t40 -38t75 -14.5l117 9l3 -81q-100 -18 -154 -18q-55 0 -93.5 15t-62.5 46.5
t-35 81.5t-11 119q0 62 11 110z" />
    <glyph glyph-name="d" unicode="d" horiz-adv-x="545" 
d="M50 244q0 141 49.5 204t155.5 63q26 0 55.5 -3.5t64.5 -9.5v213h100v-711h-100v28q-41 -21 -74.5 -30t-68.5 -9q-97 0 -139.5 62t-42.5 193zM175 118q23 -40 77 -40q23 0 52 6t53 15l18 6v310q-61 11 -98 11q-35 0 -59 -10t-38.5 -31t-21 -55t-6.5 -82q0 -90 23 -130z
" />
    <glyph glyph-name="e" unicode="e" horiz-adv-x="508" 
d="M50 242q0 135 52 202t164 67q103 0 154.5 -55t51.5 -159v-16l-6 -67h-315q1 -37 7.5 -63t22 -42.5t40.5 -24t63 -7.5q32 0 69 1t71 4l30 3l2 -74q-109 -22 -191 -22q-59 0 -100 16.5t-66.5 48.5t-37 79t-11.5 109zM150 286h222q0 77 -24.5 109.5t-81.5 32.5
q-60 0 -88 -33.5t-28 -108.5z" />
    <glyph glyph-name="f" unicode="f" horiz-adv-x="361" 
d="M35 497h60v39q0 54 7 89.5t23.5 57t43.5 30.5t66 9l106 -8l-1 -83q-24 1 -44 2q-17 0 -31 0.5t-16 0.5h-4q-27 0 -38.5 -26t-11.5 -73v-38h135v-85h-135v-412h-100v412h-60v85z" />
    <glyph glyph-name="g" unicode="g" horiz-adv-x="549" 
d="M50 -93q0 41 19.5 70t56.5 58q-15 11 -23 28t-8 34q0 20 10.5 42t24.5 48q-74 42 -74 149q0 88 50 131t144 43q49 0 104 -13l155 5v-83l-86 4q15 -19 21 -39t6 -51q0 -91 -47.5 -129.5t-147.5 -38.5q-34 0 -51 4q-5 -11 -9.5 -26.5t-4.5 -24.5v-4q0 -21 24.5 -28t66.5 -7
q26 -1 53.5 -2t41.5 -3q28 -3 51.5 -11t40.5 -24.5t26.5 -42t9.5 -62.5q0 -86 -57 -126.5t-183 -40.5q-112 0 -163 32.5t-51 107.5zM155 -116q6 -14 20 -22t37 -12t58 -4q73 0 103 19t30 59q0 23 -9.5 37.5t-25 23t-35.5 11.5t-41 3h-100q-21 -17 -32 -35t-11 -44
q0 -21 6 -36zM179 265q23 -22 74 -22t74 21.5t23 72.5q0 50 -22.5 72t-73.5 22t-74.5 -22t-23.5 -73q0 -50 23 -71z" />
    <glyph glyph-name="h" unicode="h" horiz-adv-x="519" 
d="M70 711h100v-237q40 19 74.5 28t71.5 9q49 0 81.5 -15.5t51.5 -46.5t27 -76t8 -105v-267h-100v264q0 35 -3 64t-12.5 50t-28 32.5t-48.5 11.5q-14 0 -30.5 -2.5t-33 -6t-31.5 -8t-27 -8.5v-397h-100v710z" />
    <glyph glyph-name="i" unicode="i" horiz-adv-x="210" 
d="M55 0v500h100v-500h-100zM155 706v-107h-100v107h100z" />
    <glyph glyph-name="j" unicode="j" horiz-adv-x="221" 
d="M28 -99q22 21 30 46t8 71v482h100v-483q0 -67 -14.5 -106.5t-50 -70t-107.5 -66.5l-40 75q51 31 74 52zM166 706v-107h-100v107h100z" />
    <glyph glyph-name="k" unicode="k" horiz-adv-x="496" 
d="M165 711v-413l67 6l125 196h112l-150 -233l157 -267h-113l-129 217l-69 -6v-211h-100v711h100z" />
    <glyph glyph-name="l" unicode="l" horiz-adv-x="230" 
d="M65 0v711h100v-711h-100z" />
    <glyph glyph-name="m" unicode="m" horiz-adv-x="812" 
d="M155 499v-31q38 22 70.5 32t67.5 10q40 0 72 -12t51 -36q44 23 91.5 35.5t89.5 12.5q49 0 81 -17.5t50.5 -49t26 -76.5t7.5 -100v-267h-100v264q0 35 -3 64t-12 50t-27 32.5t-48 11.5q-27 0 -60.5 -9t-59.5 -21q9 -14 9 -132v-260h-100v258q0 27 -1.5 56t-9.5 53
t-25.5 39.5t-49.5 15.5q-26 0 -61 -9t-58 -20v-393h-100v499h99z" />
    <glyph glyph-name="n" unicode="n" horiz-adv-x="519" 
d="M155 499v-31q42 23 75.5 32.5t68.5 9.5q50 0 82.5 -16.5t52 -47.5t27.5 -76t8 -103v-267h-100v264q0 33 -3 62t-13 50.5t-27.5 33.5t-47.5 12t-65 -10t-57 -19v-393h-100v499h99z" />
    <glyph glyph-name="o" unicode="o" horiz-adv-x="532" 
d="M57 355q12 48 38.5 82.5t68.5 54t102 19.5q57 0 99 -18t69 -52t40 -82.5t13 -109.5q0 -58 -12.5 -106t-39 -82t-68.5 -53t-101 -19q-114 0 -167.5 68.5t-53.5 191.5q0 57 12 106zM147 249q0 -40 5.5 -72t19 -54.5t36.5 -35t59 -12.5q67 0 92.5 44t25.5 131q0 39 -5 71.5
t-18.5 55.5t-37 36t-59.5 13q-67 0 -92.5 -45.5t-25.5 -131.5z" />
    <glyph glyph-name="p" unicode="p" horiz-adv-x="512" 
d="M55 500h99v-31q40 23 72.5 32.5t67.5 9.5q95 0 139 -62t44 -199q0 -71 -12 -121t-38.5 -81t-68 -45t-101.5 -14q-53 0 -102 10v-216h-100v717zM210 77q23 -2 40 -2q68 0 97 40t29 134q0 93 -24.5 133.5t-74.5 40.5q-28 0 -63.5 -10.5t-58.5 -21.5v-308q32 -4 55 -6z" />
    <glyph glyph-name="q" unicode="q" horiz-adv-x="515" 
d="M40 247q0 65 13 115t41.5 84t72 49.5t100.5 15.5h14l179 -11v-717h-100v236q-38 -16 -67.5 -23t-64.5 -7q-98 0 -143 60t-45 198zM166 117q26 -39 85 -39q23 0 54.5 7t54.5 15v321q-8 1 -19 1.5t-22.5 1.5t-21 1.5t-14.5 0.5h-13q-33 0 -58.5 -9.5t-42 -32t-23 -56.5
t-6.5 -80q0 -92 26 -131z" />
    <glyph glyph-name="r" unicode="r" horiz-adv-x="350" 
d="M154 500v-61q88 55 174 73v-101q-19 -3 -41 -9t-45 -14t-45.5 -17t-41.5 -17v-354h-100v500h99z" />
    <glyph glyph-name="s" unicode="s" horiz-adv-x="478" 
d="M96 474q50 36 142 36q43 0 89 -6.5t90 -14.5l-2 -84q-53 8 -97 14t-79 6q-46 0 -70 -14t-24 -46q0 -29 23.5 -43t80.5 -26q31 -6 63.5 -14.5t59.5 -24.5t44 -41t17 -65q0 -85 -48 -123.5t-148 -38.5q-45 0 -92 6.5t-92 15.5l4 84q60 -8 103.5 -14t76.5 -6q45 0 70.5 14.5
t25.5 49.5q0 18 -10.5 30.5t-28 21.5t-41 15.5t-50.5 12.5q-36 7 -65.5 16.5t-50 25.5t-31.5 40t-11 59q0 78 51 114z" />
    <glyph glyph-name="t" unicode="t" horiz-adv-x="369" 
d="M25 500h66v147h100v-147h143v-85h-143v-232q0 -25 1.5 -45t7.5 -33.5t17.5 -20.5t32.5 -7l84 5l5 -80q-38 -8 -62 -11t-44 -3q-40 0 -67.5 9t-44 30.5t-23.5 57.5t-7 89v241h-66v85z" />
    <glyph glyph-name="u" unicode="u" horiz-adv-x="510" 
d="M50 238v261h100v-261q0 -31 1.5 -60t10.5 -51.5t29 -35.5t57 -13q24 0 50.5 6.5t61.5 22.5v392h100v-499h-100v31q-41 -22 -73 -32t-69 -10q-52 0 -84.5 17t-51 49t-25.5 78t-7 105z" />
    <glyph glyph-name="v" unicode="v" horiz-adv-x="498" 
d="M25 500h105l102 -414h33l106 414h102l-133 -500h-183z" />
    <glyph glyph-name="w" unicode="w" horiz-adv-x="760" 
d="M25 500h99l85 -414h19l101 404h103l101 -404h20l83 414h99l-109 -500h-154l-92 356l-91 -356h-155z" />
    <glyph glyph-name="x" unicode="x" horiz-adv-x="475" 
d="M25 500h108l104 -179l105 179h108l-152 -246l151 -254h-107l-105 178l-104 -178h-108l149 251z" />
    <glyph glyph-name="y" unicode="y" horiz-adv-x="499" 
d="M25 500h99l111 -414h29l111 414h99l-195 -717h-98l60 217h-82z" />
    <glyph glyph-name="z" unicode="z" horiz-adv-x="431" 
d="M401 500v-88l-250 -323h250v-89h-371v89l251 323h-251v88h371z" />
    <glyph glyph-name="braceleft" unicode="{" horiz-adv-x="387" 
d="M124 390q25 22 25 59v6l-7 127v8q0 42 9.5 73t33 51.5t61 31t91.5 12.5v-86q-55 -4 -76 -25.5t-21 -66.5v-4l7 -125v-11q0 -25 -4 -45.5t-16.5 -36t-33.5 -26t-54 -19.5q32 -9 53.5 -20t33.5 -27.5t16.5 -37.5t4.5 -47v-10l-7 -116v-8q0 -44 21 -66.5t75 -25.5l-1 -86
q-52 2 -89.5 12.5t-60.5 31.5t-33 51.5t-10 71.5v8l7 121v4q0 76 -109 104v79q57 13 84 38z" />
    <glyph glyph-name="bar" unicode="|" horiz-adv-x="231" 
d="M68 -217v928h99v-928h-99z" />
    <glyph glyph-name="braceright" unicode="}" horiz-adv-x="389" 
d="M145 746q37 -11 60 -31.5t32.5 -50.5t9.5 -67v-15l-7 -127v-3q0 -39 26 -63t83 -37v-79q-109 -29 -109 -107v-1l7 -121v-14q0 -37 -9.5 -66.5t-32.5 -50.5t-60 -31.5t-90 -12.5l-2 86q55 3 76 25.5t21 66.5v8l-7 116v10q0 26 4.5 47t16.5 37.5t33.5 27.5t53.5 20
q-33 9 -54 19.5t-33.5 26t-16.5 36t-4 45.5v11l7 125v4q0 45 -21 66.5t-76 25.5v86q54 -2 92 -12z" />
    <glyph glyph-name="asciitilde" unicode="~" horiz-adv-x="570" 
d="M68 276q62 53 119 53q29 0 104 -27q74 -27 94 -27q11 0 25 4.5t28.5 10.5t28.5 13.5t23 13.5l9 -80q-25 -23 -57 -37.5t-58 -14.5q-29 0 -104 27q-78 27 -96 27q-9 0 -23.5 -5t-29.5 -11.5t-29 -14t-23 -13.5z" />
    <glyph glyph-name="exclamdown" unicode="&#xa1;" horiz-adv-x="247" 
d="M70 -187l9 450h89l9 -450h-107zM76 382v118h96v-118h-96z" />
    <glyph glyph-name="cent" unicode="&#xa2;" horiz-adv-x="456" 
d="M74 408q44 53 135 59v111h84v-114l92 -12l-4 -77q-15 1 -33.5 2t-36.5 1.5t-34 1t-25 0.5h-4q-62 0 -88.5 -30t-26.5 -102q0 -36 6.5 -60.5t21.5 -39.5t39.5 -21.5t60.5 -6.5l121 6l3 -78q-26 -5 -49 -7.5t-43 -3.5v-116h-84v112q-92 6 -135.5 56.5t-43.5 158.5
q0 107 44 160z" />
    <glyph glyph-name="sterling" unicode="&#xa3;" horiz-adv-x="548" 
d="M149 86v252h-66v86h66v56q0 50 7 86t25 59.5t48 34.5t75 11q33 0 71.5 -6t70.5 -14l-2 -79q-41 5 -68.5 7t-51.5 2q-25 0 -40 -8t-23.5 -23t-11.5 -35.5t-3 -44.5v-46h164v-86h-164v-252h142l74 16l16 -84l-82 -18h-328v86h81z" />
    <glyph glyph-name="currency" unicode="&#xa4;" horiz-adv-x="608" 
d="M141 159q-25 43 -25 93t25 93l-71 72l70 69l70 -72q44 26 94 26q47 0 93 -26l72 72l69 -69l-72 -72q26 -46 26 -93q0 -50 -26 -93l72 -71l-69 -69l-72 71q-44 -25 -93 -25q-52 0 -93 25l-71 -72l-70 70zM201 252q0 -42 31 -72q31 -31 72 -31q21 0 39.5 8.5t32.5 22.5
t22.5 32.5t8.5 39.5t-8.5 39.5t-22.5 32.5t-32.5 22.5t-39.5 8.5t-39.5 -8.5t-32.5 -22.5t-22.5 -32.5t-8.5 -39.5z" />
    <glyph glyph-name="yen" unicode="&#xa5;" horiz-adv-x="670" 
d="M184 660l152 -245l150 245h114l-160 -270h117v-80h-169v-80h169v-79h-169v-151h-103v151h-172v79h172v80h-173v80h120l-162 270h114z" />
    <glyph glyph-name="brokenbar" unicode="&#xa6;" horiz-adv-x="231" 
d="M167 162v-379h-99v379h99zM68 337v374h99v-374h-99z" />
    <glyph glyph-name="section" unicode="&#xa7;" horiz-adv-x="544" 
d="M74 271q5 18 13.5 36.5t19.5 34.5t22 25q-44 32 -44 110q0 169 202 169q18 0 39.5 -2t44 -5t44.5 -6.5t41 -6.5l-5 -82q-55 8 -95.5 12t-69.5 4q-56 0 -80.5 -19t-24.5 -62q0 -20 9 -33t25.5 -22t41 -15.5t55.5 -13.5q33 -7 63.5 -17.5t53.5 -27t36.5 -41.5t13.5 -61
q0 -69 -47 -136q20 -18 29 -42t9 -62q0 -91 -49.5 -133t-152.5 -42q-44 0 -90 6t-90 14l10 81q108 -15 163 -15q114 0 114 82q0 24 -16.5 39t-39 24t-47 14t-41.5 9q-36 8 -66 18.5t-51.5 28t-33.5 43t-12 61.5q0 14 6 33zM172 223q4 -13 14.5 -22t29 -15t46.5 -12
q30 -7 53.5 -13t40.5 -13q10 13 15.5 36t5.5 46v7q-1 32 -21 47.5t-70 26.5q-8 1 -20.5 3.5t-26 6t-25.5 6.5t-20 6q-26 -44 -26 -79q0 -19 4 -31z" />
    <glyph glyph-name="copyright" unicode="&#xa9;" horiz-adv-x="674" 
d="M103 576q35 63 96 99.5t139 36.5q75 0 137 -37q62 -38 96 -101.5t34 -141.5t-34 -140q-35 -63 -95.5 -99t-137.5 -36q-76 0 -138 36q-62 37 -97 101t-35 142q0 76 35 140zM120 434q0 -64 28 -114q29 -53 78 -83t110 -30q62 0 111 30q50 30 78 81.5t28 114.5t-28 115
q-29 53 -78.5 83.5t-109.5 30.5q-92 0 -155 -67q-62 -66 -62 -161zM220 435q0 44 6.5 74.5t21.5 49t38.5 27t57.5 8.5q41 0 69 -9l10 -3l-6 -67q-36 6 -67 6q-30 0 -40.5 -18t-10.5 -66t11 -69.5t39 -21.5l68 6l6 -65q-36 -14 -83 -14q-65 0 -92.5 37t-27.5 125z" />
    <glyph glyph-name="guillemotleft" unicode="&#xab;" horiz-adv-x="540" 
d="M40 283l203 152v-101l-117 -86l117 -98v-101l-203 159v75zM297 283l203 152v-101l-117 -86l117 -98v-101l-203 159v75z" />
    <glyph glyph-name="registered" unicode="&#xae;" horiz-adv-x="674" 
d="M103 576q35 63 96 99.5t138 36.5q75 0 138 -37q61 -37 95.5 -100.5t34.5 -141.5q0 -79 -34 -141q-35 -63 -95 -99t-137 -36t-139 36q-62 37 -97 100.5t-35 141.5q0 77 35 141zM148 320q29 -52 79 -82.5t110 -30.5q61 0 110 30q50 31 78 82.5t28 114.5t-28 115
q-29 52 -78.5 82.5t-109.5 30.5t-111 -31q-50 -31 -78 -83t-28 -114t28 -114zM343 587q55 0 84.5 -23t29.5 -68t-9.5 -66.5t-35.5 -36.5l49 -113h-75l-40 101h-54v-101h-70v307h121zM291 438h50q44 0 44 46t-50 46h-44v-92z" />
    <glyph glyph-name="degree" unicode="&#xb0;" horiz-adv-x="429" 
d="M68 553q0 65 40 105t105 40q32 0 58.5 -10.5t46 -29.5t30.5 -46t11 -59q0 -65 -40.5 -104.5t-105.5 -39.5q-64 0 -104.5 39.5t-40.5 104.5zM130 553q0 -38 22.5 -62t60.5 -24t61.5 24t23.5 62t-23.5 62.5t-61.5 24.5t-60.5 -24.5t-22.5 -62.5z" />
    <glyph glyph-name="plusminus" unicode="&#xb1;" horiz-adv-x="595" 
d="M251 379v119h91v-119h183v-89h-183v-116h-91v116h-181v89h181zM70 30v90h455v-90h-455z" />
    <glyph glyph-name="paragraph" unicode="&#xb6;" horiz-adv-x="657" 
d="M68 500q0 40 14 74.5t39 59.5t59.5 39t75.5 14h330v-85h-57v-602h-88v602h-92v-602h-88v308h-7q-40 0 -74 15t-59 41t-39 61t-14 75z" />
    <glyph glyph-name="periodcentered" unicode="&#xb7;" horiz-adv-x="246" 
d="M76 221v118h96v-118h-96z" />
    <glyph glyph-name="guillemotright" unicode="&#xbb;" horiz-adv-x="540" 
d="M243 283v-75l-203 -159v102l118 97l-118 86v101zM500 283v-75l-203 -159v102l118 97l-118 86v101z" />
    <glyph glyph-name="questiondown" unicode="&#xbf;" horiz-adv-x="494" 
d="M59 -42q0 33 3.5 57.5t13 45.5t26.5 40t44 40q37 29 62 58t25 61v33h81q6 -11 11 -24q5 -11 8 -24.5t3 -27.5q0 -18 -13.5 -38t-32 -39t-38.5 -36t-33 -29q-17 -16 -27.5 -28t-16.5 -23.5t-8.5 -24t-2.5 -28.5q0 -40 27.5 -59t87.5 -19q23 0 60 4.5t88 15.5l5 -78
q-48 -16 -90 -24t-77 -8h-8q-100 1 -149 36t-49 119zM324 500v-117h-96v117h96z" />
    <glyph glyph-name="multiply" unicode="&#xd7;" horiz-adv-x="566" 
d="M134 466l149 -149l149 149l64 -64l-149 -149l149 -149l-64 -64l-149 150l-149 -150l-64 64l150 149l-150 149z" />
    <glyph glyph-name="divide" unicode="&#xf7;" horiz-adv-x="518" 
d="M448 390v-92h-378v92h378zM210 102v114h99v-114h-99zM309 586v-114h-99v114h99z" />
    <glyph glyph-name="tilde" unicode="&#x2dc;" horiz-adv-x="570" 
d="M68 276q62 53 119 53q29 0 104 -27q74 -27 94 -27q11 0 25 4.5t28.5 10.5t28.5 13.5t23 13.5l9 -80q-25 -23 -57 -37.5t-58 -14.5q-29 0 -104 27q-78 27 -96 27q-9 0 -23.5 -5t-29.5 -11.5t-29 -14t-23 -13.5z" />
    <glyph glyph-name="uni060C" unicode="&#x60c;" horiz-adv-x="274" 
d="M70 27q0 16 6 37t10 32l43 125l58 -20l-44 -130l62 -23l-35 -102q-16 6 -30 11.5t-25 11.5q-15 8 -29.5 22t-15.5 36z" />
    <glyph glyph-name="uni060D" unicode="&#x60d;" horiz-adv-x="224" 
d="M40 -117l46 231h104l-73 -231h-77z" />
    <glyph glyph-name="uni061B" unicode="&#x61b;" horiz-adv-x="275" 
d="M69 351q0 13 5.5 32.5t10.5 33.5l43 124l58 -20l-44 -130l62 -23l-35 -100q-13 4 -27 9t-27 13q-17 10 -31 25.5t-15 35.5zM93 118h100v-119h-100v119z" />
    <glyph glyph-name="uni061F" unicode="&#x61f;" horiz-adv-x="494" 
d="M59 544q0 84 49 119t149 36h8q35 0 77.5 -8t90.5 -24l-6 -78q-51 11 -88 15.5t-60 4.5q-60 0 -87.5 -19t-27.5 -59q0 -18 3 -31.5t10 -25t17 -22.5t25 -25q13 -12 33 -29t38.5 -36t32 -39.5t13.5 -40.5q0 -13 -3 -25.5t-8 -23.5q-5 -13 -11 -24h-81v33q0 32 -25 61
t-62 58q-27 21 -44 40t-26.5 40t-13 45.5t-3.5 57.5zM228 119h96v-117h-96v117z" />
    <glyph glyph-name="uni0640" unicode="&#x640;" horiz-adv-x="168" 
d="M0 98h168q14 0 14 -14v-70q0 -14 -14 -14h-168q-14 0 -14 14v70q0 14 14 14z" />
    <glyph glyph-name="uni0653" unicode="&#x653;" 
d="M-140 700l1 43q0 35 25 59t57 24h196v-73h-192q-11 0 -17.5 -7t-6.5 -16v-30h-63z" />
    <glyph glyph-name="uni0653" unicode="&#x6e4;" 
d="M-140 700l1 43q0 35 25 59t57 24h196v-73h-192q-11 0 -17.5 -7t-6.5 -16v-30h-63z" />
    <glyph glyph-name="uni0654" unicode="&#x654;" 
d="M-148 760l81 14q-1 1 -4 6t-5 15q-1 4 -2.5 14t-3.5 16q-2 11 -2 21q0 14 6 30.5t19 30.5t29.5 22t30.5 10l82 9l8 -63l-83 -9q-14 -2 -24 -10.5t-10 -21.5q0 -6 2 -13l8 -47q19 4 44 9t48 10q27 6 55 12l16 -57l-284 -58z" />
    <glyph glyph-name="uni0655" unicode="&#x655;" 
d="M-147 -190l81 14q-1 1 -4 6t-5 14l-1 4q-1 4 -2 9t-1.5 9.5t-0.5 5.5q-2 12 -2 22q0 15 5.5 31.5t18.5 31t29.5 22.5t30.5 10l82 10l8 -63l-89 -11q-11 -2 -20 -9.5t-9 -19.5q0 -4 1 -10l10 -52q19 4 44 9t48 10q27 6 55 12l15 -56l-284 -58z" />
    <glyph glyph-name="uni0656" unicode="&#x656;" 
d="M29 -147h-58v147h58v-147z" />
    <glyph glyph-name="uni0660" unicode="&#x660;" horiz-adv-x="279" 
d="M206 52h-133v134h133v-134z" />
    <glyph glyph-name="uni0661" unicode="&#x661;" horiz-adv-x="261" 
d="M70 670l87 16l15 -76q9 -48 14 -95.5t5 -95.5v-420h-88v421q0 93 -18 183z" />
    <glyph glyph-name="uni0662" unicode="&#x662;" horiz-adv-x="534" 
d="M159 686l4 -17q4 -17 9 -43t10 -58t7 -63q2 -23 21 -37t42 -14h140v228h87v-225q0 -44 -28 -72t-72 -28h-116q-24 0 -42 9.5t-27 20.5l-1 -388h-87v421q0 47 -5 92.5t-14 90.5l-14 67z" />
    <glyph glyph-name="uni0663" unicode="&#x663;" horiz-adv-x="707" 
d="M70 670l86 16q0 -2 4 -18t8.5 -41t10 -56.5t8.5 -64.5q1 -18 17.5 -35t45.5 -17h14q26 0 45 16.5t24 40.5l34 167l86 -16l-28 -140v-8q0 -21 15.5 -40.5t44.5 -19.5h80l-1 229l88 -1v-220q0 -22 -8 -41t-22.5 -33t-33.5 -22.5t-41 -8.5h-62q-32 0 -60 13.5t-48 36.5
q-21 -23 -50.5 -36.5t-64.5 -13.5q-20 0 -38 5t-33 18v-381h-88v421q0 95 -19 183z" />
    <glyph glyph-name="uni0664" unicode="&#x664;" horiz-adv-x="466" 
d="M71 220q1 44 18 77t44 56q-14 14 -24.5 32t-14.5 39l-18 92q-3 14 -3 28q0 18 6.5 41t25.5 46t47 36.5t61 13.5h138v-92h-147q-22 0 -34.5 -16.5t-12.5 -32.5q0 -6 1 -12l15 -80q2 -9 7.5 -19t13.5 -17.5t15.5 -10.5t12.5 -3q4 0 7 1l126 35l23 -83l-163 -48
q-25 -7 -43 -29.5t-18 -48.5l-1 -78q0 -21 15 -36t37 -15h207v-96h-200q-29 0 -55 11t-45 29.5t-30 44.5t-11 56v79z" />
    <glyph glyph-name="uni0665" unicode="&#x665;" horiz-adv-x="599" 
d="M65 295q13 50 37.5 94t58.5 84.5t75 84.5l-62 58l53 75l132 -124q41 -39 76 -79.5t60.5 -86.5t40 -99.5t14.5 -119.5q0 -37 -10 -70.5t-30 -58t-50.5 -39t-72.5 -14.5h-174q-42 0 -72.5 14.5t-50.5 39t-29.5 58t-9.5 70.5q0 63 14 113zM138 181q0 -45 19 -64t46 -19h194
q28 0 46.5 19t18.5 64q0 48 -7.5 86.5t-26 74.5t-49.5 73.5t-79 82.5q-48 -46 -79 -84t-49.5 -74t-26 -74t-7.5 -85z" />
    <glyph glyph-name="uni0666" unicode="&#x666;" horiz-adv-x="526" 
d="M25 593l8 90q13 -1 35 -3.5t48.5 -5t55 -4t54.5 -1.5q34 0 68.5 3t62.5 6t46 6t20 3v-421q0 -94 19 -182l14 -68l-86 -15l-15 75q-10 48 -14.5 95.5t-4.5 95.5v312q-7 0 -23.5 -1t-35.5 -1.5t-36 -1.5t-25 -1q-27 0 -55 2.5t-54 5.5t-47.5 6t-34.5 5z" />
    <glyph glyph-name="uni0667" unicode="&#x667;" horiz-adv-x="586" 
d="M107 693q2 -2 15 -22.5t32 -55t41 -81t42 -101.5t35.5 -116.5t21.5 -125.5q2 46 13.5 96.5t28 101.5t36.5 99.5t40 89.5t38 71t30 44l71 -59q-2 -3 -16 -23.5t-35 -57.5t-46 -90.5t-48.5 -123t-43 -154.5t-28.5 -185h-81q-23 166 -58.5 284t-70 194.5t-60 114t-28.5 41.5
z" />
    <glyph glyph-name="uni0668" unicode="&#x668;" horiz-adv-x="586" 
d="M35 59q3 5 28.5 42t60 113.5t70 194.5t58.5 284h81q10 -100 29 -185t42.5 -154.5t48.5 -123t46 -90.5t35 -57.5t16 -23.5l-71 -59q-12 14 -30 44t-38 71t-40 89.5t-36.5 99.5t-28 102t-13.5 96q-6 -64 -21.5 -125.5t-35.5 -116.5t-42 -101.5t-41 -81t-32 -55t-15 -22.5z
" />
    <glyph glyph-name="uni0669" unicode="&#x669;" horiz-adv-x="505" 
d="M44 479l18 92q5 24 17.5 45t30.5 36t41 23.5t48 8.5h56q30 0 57 -11.5t47.5 -32t32 -47.5t11.5 -57v-271v-15q0 -38 4.5 -79.5t13.5 -87.5l14 -68l-81 -15l-15 75q-10 48 -14.5 95.5t-4.5 95.5v56q-5 -2 -15.5 -5.5t-26.5 -3.5h-97q-33 0 -61 12.5t-47 35t-25.5 46.5
t-6.5 43q0 14 3 29zM136 427q14 -16 36 -16h148v125q0 25 -16 40t-39 15h-71q-20 0 -34.5 -12t-18.5 -32l-15 -80q-1 -6 -1 -11q0 -17 11 -29z" />
    <glyph glyph-name="uni066A" unicode="&#x66a;" horiz-adv-x="503" 
d="M463 9h-133v134h133v-134zM70 9l-45 30l392 632l46 -31zM162 536h-133v134h133v-134z" />
    <glyph glyph-name="uni066B" unicode="&#x66b;" horiz-adv-x="158" 
d="M40 -117l46 231h104l-73 -231h-77z" />
    <glyph glyph-name="uni066C" unicode="&#x66c;" horiz-adv-x="158" 
d="M40 395l46 231h104l-73 -231h-77z" />
    <glyph glyph-name="uni066D" unicode="&#x66d;" horiz-adv-x="267" 
d="M108 410l-38 48l107 79l-104 75l37 51l104 -76l40 124l60 -20l-39 -125h127v-60h-128l39 -123l-59 -18l-41 124z" />
    <glyph glyph-name="uni0670" unicode="&#x670;" 
d="M29 700h-58v147h58v-147z" />
    <glyph glyph-name="uni06F0" unicode="&#x6f0;" horiz-adv-x="466" 
d="M60 199v51q0 31 11.5 58t31.5 47t47 31.5t58 11.5h49q31 0 58 -11.5t47.5 -31.5t32 -47t11.5 -58v-51q0 -30 -11.5 -57t-32 -47.5t-47.5 -32t-58 -11.5h-49q-30 0 -57 11.5t-47.5 32t-32 47.5t-11.5 57zM149 251v-48q0 -23 16 -38.5t39 -15.5h58q24 0 40 15.5t16 38.5v48
q0 23 -16 38.5t-40 15.5h-58q-23 0 -39 -15.5t-16 -38.5z" />
    <glyph glyph-name="uni06F1" unicode="&#x6f1;" horiz-adv-x="256" 
d="M152 686l15 -76q9 -48 14 -95.5t5 -95.5v-420h-83v421q0 47 -5 92.5t-14 90.5l-14 67z" />
    <glyph glyph-name="uni06F2" unicode="&#x6f2;" horiz-adv-x="532" 
d="M151 686l4 -17q4 -17 9 -43t10 -58t7 -63q2 -23 21 -37t42 -14h140v228h87v-225q0 -44 -28 -72t-72 -28h-112q-21 0 -40 7t-34 26v-391h-82v421q0 47 -5 92.5t-14 90.5l-14 67z" />
    <glyph glyph-name="uni06F3" unicode="&#x6f3;" horiz-adv-x="702" 
d="M70 671l81 16q0 -2 4 -18t8.5 -41t10 -56.5t8.5 -64.5q1 -18 17.5 -35t45.5 -17h14q26 0 45 16.5t24 40.5l34 167l81 -16l-28 -140v-8q0 -21 15.5 -40.5t44.5 -19.5h89v229h83v-226q0 -44 -28 -72t-72 -28h-67q-33 0 -60.5 14t-47.5 43q-22 -29 -48.5 -43t-61.5 -14
q-20 0 -40.5 6.5t-35.5 26.5v-392h-83v422q0 95 -19 183z" />
    <glyph glyph-name="uni06F4" unicode="&#x6f4;" horiz-adv-x="632" 
d="M151 687q2 -12 6 -31.5t8.5 -43.5t8.5 -51t7 -54q5 -23 21.5 -37.5t39.5 -14.5h40q-2 3 -5 10t-4 16q-3 15 -5 28q-2 12 -4.5 24t-4.5 20q-2 13 -2 26q0 19 7 43.5t26 47t47 36t59 13.5h132v-87h-143q-26 0 -37 -16.5t-11 -33.5q0 -5 1 -11l22 -113q19 1 52 4t65.5 6.5
t56.5 6.5l24 3l14 -84q-25 -3 -63.5 -9t-82.5 -12t-89 -10.5t-83 -4.5q-19 0 -36.5 5t-32.5 18v-380h-82v420q0 63 -10 126.5t-23 123.5z" />
    <glyph glyph-name="uni06F5" unicode="&#x6f5;" horiz-adv-x="679" 
d="M80 308q18 57 48 106.5t68.5 92.5t78.5 82l-38 34l56 72l115 -106q34 -31 71.5 -70.5t68.5 -89t51 -111t20 -136.5q0 -37 -9.5 -70.5t-29.5 -58t-50 -39t-72 -14.5q-37 0 -65 14t-53 41q-25 -26 -54.5 -40.5t-64.5 -14.5q-43 0 -73.5 15t-49.5 40.5t-28 58t-9 68.5
q0 68 19 126zM148 182q0 -35 15.5 -59.5t52.5 -24.5h10q26 0 45 16t27 48l21 90l86 -15l-20 -88q5 -18 25 -34.5t43 -16.5h10q37 0 53 23.5t16 60.5q0 56 -11.5 101t-35.5 85t-60.5 79t-85.5 84q-47 -45 -83 -84.5t-60 -80t-36 -85t-12 -99.5z" />
    <glyph glyph-name="uni06F6" unicode="&#x6f6;" horiz-adv-x="596" 
d="M281 342q-11 0 -27.5 6.5t-25.5 13.5l-95 74q-27 21 -38.5 48.5t-11.5 54.5q0 3 0.5 19t14.5 44.5t39 48.5l119 95l45 -64l-121 -102q-8 -7 -13 -16.5t-5.5 -15t-0.5 -6.5q0 -9 3.5 -18t12.5 -16l143 -107q26 35 54.5 68t60.5 64l55 53l61 -61l-50 -47q-18 -17 -33 -32.5
t-29 -32t-27.5 -34.5t-29.5 -41l-240 -346l-72 51z" />
    <glyph glyph-name="uni06F7" unicode="&#x6f7;" horiz-adv-x="586" 
d="M107 693l12 -19q12 -19 30.5 -53t40.5 -79.5t42.5 -98.5t37 -111.5t23.5 -116.5q5 44 15.5 88t24.5 86t30.5 80.5t32.5 72.5q39 79 84 151l71 -59q-51 -79 -95 -177q-18 -42 -37 -92.5t-35.5 -108t-29.5 -122t-20 -134.5h-81q-19 155 -55.5 272.5t-72.5 198.5
q-42 94 -89 163z" />
    <glyph glyph-name="uni06F8" unicode="&#x6f8;" horiz-adv-x="586" 
d="M36 59q47 69 89 163q36 81 72.5 198.5t55.5 272.5h81q7 -70 20 -134t29.5 -122t35.5 -108.5t37 -92.5q44 -98 95 -177l-71 -59q-45 72 -84 151q-16 34 -32.5 73t-30.5 81t-24.5 85.5t-15.5 87.5q-7 -58 -23.5 -116.5t-37 -111.5t-42.5 -98.5t-40.5 -79.5t-30.5 -53
l-12 -19z" />
    <glyph glyph-name="uni06F9" unicode="&#x6f9;" horiz-adv-x="499" 
d="M42 479l18 92q5 24 17.5 45t30.5 36t41 23.5t48 8.5h56q30 0 57 -11.5t47.5 -32t32 -47.5t11.5 -57v-271v-15q0 -38 4.5 -79.5t13.5 -87.5l14 -68l-81 -15l-15 75q-10 48 -14.5 95.5t-4.5 95.5v56q-5 -2 -15.5 -5.5t-26.5 -3.5h-97q-33 0 -61 12.5t-47 35t-25.5 46.5
t-6.5 43q0 14 3 29zM134 427q14 -16 36 -16h148v125q0 25 -16 40t-39 15h-71q-20 0 -34.5 -12t-18.5 -32l-15 -80q-1 -6 -1 -11q0 -17 11 -29z" />
    <glyph glyph-name="uni200B" unicode="&#x200b;" horiz-adv-x="333" 
 />
    <glyph glyph-name="uni200C" unicode="&#x200c;" horiz-adv-x="333" 
 />
    <glyph glyph-name="endash" unicode="&#x2013;" horiz-adv-x="640" 
d="M70 224v86h500v-86h-500z" />
    <glyph glyph-name="emdash" unicode="&#x2014;" horiz-adv-x="1140" 
d="M70 224v86h1000v-86h-1000z" />
    <glyph glyph-name="quoteleft" unicode="&#x2018;" horiz-adv-x="230" 
d="M40 465l73 231h77l-45 -231h-105z" />
    <glyph glyph-name="quoteright" unicode="&#x2019;" horiz-adv-x="230" 
d="M40 466l46 230h104l-73 -230h-77z" />
    <glyph glyph-name="quotesinglbase" unicode="&#x201a;" horiz-adv-x="239" 
d="M40 -117l72 231h78l-46 -231h-104z" />
    <glyph glyph-name="quotedblleft" unicode="&#x201c;" horiz-adv-x="396" 
d="M279 696h77l-45 -230h-105zM40 466l73 230h77l-45 -230h-105z" />
    <glyph glyph-name="quotedblright" unicode="&#x201d;" horiz-adv-x="396" 
d="M40 466l46 231h104l-73 -231h-77zM206 466l46 231h104l-73 -231h-77z" />
    <glyph glyph-name="quotedblbase" unicode="&#x201e;" horiz-adv-x="396" 
d="M40 -117l72 231h78l-46 -231h-104zM206 -117l73 231h77l-45 -231h-105z" />
    <glyph glyph-name="dagger" unicode="&#x2020;" horiz-adv-x="554" 
d="M227 500v187h99v-187h158v-86h-158l-7 -488h-86l-6 488h-159v86h159z" />
    <glyph glyph-name="daggerdbl" unicode="&#x2021;" horiz-adv-x="555" 
d="M68 500h159v187h99v-187h157v-86h-157v-215h158v-86h-158v-187h-99v187h-159v86h159v215h-159v86z" />
    <glyph glyph-name="bullet" unicode="&#x2022;" horiz-adv-x="428" 
d="M339 109h-250v288h250v-288z" />
    <glyph glyph-name="ellipsis" unicode="&#x2026;" horiz-adv-x="755" 
d="M75 118h96v-118h-96v118zM329 118h96v-118h-96v118zM585 118h95v-118h-95v118z" />
    <glyph glyph-name="guilsinglleft" unicode="&#x2039;" horiz-adv-x="283" 
d="M40 283l203 152v-101l-117 -86l117 -98v-101l-203 159v75z" />
    <glyph glyph-name="guilsinglright" unicode="&#x203a;" horiz-adv-x="283" 
d="M243 287v-75l-203 -159v102l118 97l-118 86v101z" />
    <glyph glyph-name="fraction" unicode="&#x2044;" horiz-adv-x="126" 
d="M-169 -1l-45 30l392 632l46 -31z" />
    <glyph glyph-name="Euro" unicode="&#x20ac;" horiz-adv-x="631" 
d="M128 297v84h-58v78h64q6 60 22.5 102.5t44.5 69.5t70 39.5t99 12.5q44 0 90.5 -6.5t99.5 -17.5l-3 -81q-46 8 -87.5 12t-79.5 4t-65 -7t-45 -23t-28.5 -41.5t-15.5 -63.5h265v-78h-271v-84h271v-77h-263q10 -70 43.5 -105.5t107.5 -35.5q75 0 168 15l3 -83
q-50 -11 -97.5 -16.5t-93.5 -5.5q-111 0 -165.5 59.5t-69.5 171.5h-64v77h58z" />
    <glyph glyph-name="trademark" unicode="&#x2122;" horiz-adv-x="652" 
d="M296 331v305h86l55 -187l60 187h83v-305h-64v203l-53 -186h-48l-54 186v-203h-65zM68 636h200v-62h-55v-242h-69v242h-76v62z" />
    <glyph glyph-name="minus" unicode="&#x2212;" horiz-adv-x="571" 
d="M70 206v90h431v-90h-431z" />
    <glyph glyph-name="uniFBB2" unicode="&#xfbb2;" 
d="M275 1v94h96l-1 -94h-95z" />
    <glyph glyph-name="uniFBB3" unicode="&#xfbb3;" 
d="M275 -95v95h96v-95h-96z" />
    <glyph glyph-name="uniFBB4" unicode="&#xfbb4;" 
d="M359 95h95v-95h-95v95zM307 95v-95h-95v95h95z" />
    <glyph glyph-name="uniFBB5" unicode="&#xfbb5;" 
d="M359 0h95v-95h-95v95zM307 0v-95h-95v95h95z" />
    <glyph glyph-name="uniFBB6" unicode="&#xfbb6;" 
d="M357 95h95v-95h-95v95zM376 227v-95h-95v95h95zM305 95v-95h-95v95h95z" />
    <glyph glyph-name="uniFBB7" unicode="&#xfbb7;" 
d="M359 0h95v-95h-95v95zM381 -132v-95h-95v95h95zM307 0v-95h-95v95h95z" />
    <glyph glyph-name="uniFBB7" unicode="&#xfbb9;" 
d="M359 0h95v-95h-95v95zM381 -132v-95h-95v95h95zM307 0v-95h-95v95h95z" />
    <glyph glyph-name="uniFE70FE7C" 
d="M-154 873h59v-80q0 -12 9 -20.5t20 -8.5h7q11 0 20.5 7.5t11.5 18.5l16 77l57 -10l-13 -67v-5q0 -9 8 -15t19 -6h41v113h59v-120q0 -26 -16 -41.5t-42 -15.5h-42q-35 0 -58 25q-25 -25 -63 -25q-19 0 -36 7t-29.5 20t-20 30t-7.5 36v80zM148 1166l13 -55l-312 -67l-10 56
zM148 1044l13 -55l-312 -67l-10 56z" />
    <glyph glyph-name="uniFB8E.alt" horiz-adv-x="1110" 
d="M152 362v-168q0 -41 27.5 -68.5t69.5 -27.5h668q23 0 38.5 16t15.5 39v69q0 25 -17 42.5t-42 17.5h-474l-60 56l273 320l60 -55l-196 -231h390q31 0 58 -11.5t47 -32t31.5 -47.5t11.5 -57v-75q0 -31 -12 -58t-32.5 -47.5t-47 -32t-56.5 -11.5h-646q-40 0 -75 15t-60 40.5
t-39.5 60t-14.5 73.5v173h82z" />
    <glyph glyph-name="uniFB8F.alt" horiz-adv-x="1163" 
d="M70 362h82v-168q0 -41 27 -68.5t69 -27.5h669q23 0 38.5 16t15.5 39v69q0 25 -17 42.5t-42 17.5h-474l-60 56l273 320l60 -55l-196 -231h390q31 0 58 -11.5t47 -32t31.5 -47.5t11.5 -57v-63q1 -26 19.5 -44.5t44.5 -18.5h46q6 0 10 -4.5t4 -10.5v-68q0 -6 -4 -10.5
t-10 -4.5h-31q-35 0 -65.5 15t-51.5 42q-20 -27 -48.5 -42t-61.5 -15h-646q-40 0 -75 15t-60 40.5t-39.5 60t-14.5 73.5v173z" />
    <glyph glyph-name="uniFB91.alt" horiz-adv-x="832" 
d="M-14 14v70q0 14 14 14h584q22 0 38 15.5t16 38.5v68v3q0 24 -17 40.5t-42 16.5h-472l-61 57l273 319l60 -55l-196 -231h390q31 0 58 -11.5t47 -31.5t31.5 -47t11.5 -58v-61q0 -26 19.5 -44.5t45.5 -18.5h46q14 0 14 -14v-70q0 -5 -4 -9.5t-10 -4.5h-32q-35 0 -65.5 14.5
t-51.5 42.5q-42 -57 -112 -57h-571q-6 0 -10 4.5t-4 9.5z" />
    <glyph glyph-name="uniFB90.alt" horiz-adv-x="778" 
d="M-14 14v70q0 14 14 14h584q22 0 38.5 16t16.5 39v67v3q0 24 -17 40.5t-42 16.5h-473l-61 57l273 319l60 -55l-196 -231h390q31 0 58 -11.5t47 -31.5t31.5 -47t11.5 -58v-74q0 -31 -12 -58.5t-32.5 -47t-48 -31t-57.5 -11.5h-571q-6 0 -10 4.5t-4 9.5z" />
    <glyph glyph-name="uniFB92.alt" horiz-adv-x="1110" 
d="M152 362v-168q0 -41 27.5 -68.5t69.5 -27.5h668q23 0 38.5 16t15.5 39v69q0 25 -17 42.5t-42 17.5h-474l-60 56l273 320l60 -55l-196 -231h390q31 0 58 -11.5t47 -32t31.5 -47.5t11.5 -57v-75q0 -31 -12 -58t-32.5 -47.5t-47 -32t-56.5 -11.5h-646q-40 0 -75 15t-60 40.5
t-39.5 60t-14.5 73.5v173h82zM323 457l212 250l44 -40l-211 -247z" />
    <glyph glyph-name="uniFB93.alt" horiz-adv-x="1163" 
d="M70 362h82v-168q0 -41 27 -68.5t69 -27.5h669q23 0 38.5 16t15.5 39v69q0 25 -17 42.5t-42 17.5h-474l-60 56l273 320l60 -55l-196 -231h390q31 0 58 -11.5t47 -32t31.5 -47.5t11.5 -57v-63q1 -26 19.5 -44.5t44.5 -18.5h46q6 0 10 -4.5t4 -10.5v-68q0 -6 -4 -10.5
t-10 -4.5h-31q-35 0 -65.5 15t-51.5 42q-20 -27 -48.5 -42t-61.5 -15h-646q-40 0 -75 15t-60 40.5t-39.5 60t-14.5 73.5v173zM536 706l43 -39l-211 -247l-44 36z" />
    <glyph glyph-name="uniFB95.alt" horiz-adv-x="897" 
d="M-14 84q0 14 14 14h649q22 0 38.5 15.5t16.5 38.5v68v3q0 24 -17.5 40.5t-42.5 16.5h-472l-61 57l273 319l60 -55l-196 -231h390q31 0 58 -11.5t47 -31.5t31.5 -47t11.5 -58v-61q0 -26 19.5 -44.5t45.5 -18.5h46q14 0 14 -14v-70q0 -5 -4 -9.5t-10 -4.5h-32
q-35 0 -65.5 14.5t-51.5 42.5q-42 -57 -112 -57h-636q-6 0 -10 4.5t-4 9.5v70zM57 455l212 251l43 -40l-211 -248z" />
    <glyph glyph-name="uniFB94.alt" horiz-adv-x="844" 
d="M-14 83q0 14 14 14h652q20 0 36 15.5t16 36.5v3v68q0 25 -17.5 42.5t-41.5 17.5h-473l-60 57l272 319l60 -55l-196 -231h390q30 0 57 -11.5t47.5 -31.5t32 -47t11.5 -58v-74q0 -31 -12 -58.5t-32.5 -47.5t-48 -31.5t-57.5 -11.5l-636 1q-6 0 -10 4.5t-4 9.5v69zM57 455
l212 251l43 -40l-211 -248z" />
  </font>
</defs>
</svg>
