<?xml version="1.0" standalone="no"?>
<!DOCTYPE svg PUBLIC "-//W3C//DTD SVG 1.1//EN" "http://www.w3.org/Graphics/SVG/1.1/DTD/svg11.dtd" >
<svg xmlns="http://www.w3.org/2000/svg" xmlns:xlink="http://www.w3.org/1999/xlink" version="1.1">
<metadata>
Created by FontForge 20170731 at Wed Jun 10 09:38:32 2020
 By Aleksey,,,
Copyright (c) 2019 by www.fontiran.com All rights reserved.
</metadata>
<defs>
<font id="PeydaWeb-Bold" horiz-adv-x="0" >
  <font-face 
    font-family="PeydaWeb"
    font-weight="700"
    font-stretch="normal"
    units-per-em="1000"
    panose-1="0 0 0 0 0 0 0 0 0 0"
    ascent="800"
    descent="-200"
    x-height="500"
    cap-height="680"
    bbox="-224 -435 1463 1223"
    underline-thickness="50"
    underline-position="-175"
    unicode-range="U+000D-FEFC"
  />
<missing-glyph horiz-adv-x="250" 
 />
    <glyph glyph-name="uniFDF2" unicode="&#x627;&#xfedf;&#xfee0;&#xfeea;" horiz-adv-x="1281" arabic-form="isolated" 
d="M70 325q10 28 28 51.5t42.5 40t54.5 24.5l122 32v84h110v-373q0 -22 17.5 -38t40.5 -16h85q20 0 34 14.5t14 34.5v305h110v-311q2 -18 15 -30.5t28 -12.5h92q20 0 34 14t14 34v394h110v-393q0 -37 -14 -69.5t-38.5 -57t-57 -38.5t-69.5 -14h-46q-35 0 -66.5 13t-55.5 36
q-24 -23 -55.5 -36t-66.5 -13h-64q-47 0 -84.5 24.5t-60.5 61.5q-20 -11 -44 -11h-113q-26 0 -49 10t-40 27t-27 40t-10 49v64q0 31 10 60zM1111 0v685h110v-685h-110zM582 755v-91q0 -7 6 -12.5t13 -5.5h5q7 0 14 5t9 12l18 88l80 -14l-15 -76q-1 -2 -1 -4q0 -4 5 -7.5
t11 -3.5h38v113h80v-126q0 -31 -22 -52.5t-52 -21.5h-44q-32 0 -58 21q-27 -21 -63 -21q-21 0 -40 8.5t-33.5 22.5t-22.5 33t-8 41v91h80zM317 205v149l-92 -25q-25 -6 -40 -26t-15 -45v-53h147zM715 953v-169h-80v169h80z" />
    <glyph glyph-name="uniFEF5" unicode="&#xfedf;&#xfe82;" horiz-adv-x="564" arabic-form="isolated" 
d="M50 88l109 14l-48 519l111 15l46 -520l73 9q27 4 45 24t18 48v488h110v-487q0 -36 -12 -68t-34 -57t-52 -41.5t-65 -21.5l-285 -40zM-19 716q1 42 29 68t65 26h206v-95h-211q-5 0 -5 -4v-49h-85z" />
    <glyph glyph-name="uniFEF6" unicode="&#xfee0;&#xfe82;" horiz-adv-x="624" arabic-form="final" 
d="M50 87l109 14l-49 521l111 14l46 -521l74 10q27 3 45 23.5t18 47.5v489h110v-507q0 -20 14 -34t34 -14h62q14 0 14 -14v-102q0 -14 -14 -14h-44q-39 0 -72 15.5t-57 41.5q-42 -39 -101 -48l-285 -40zM-19 716q1 42 29 68t65 26h206v-95h-211q-5 0 -5 -4v-49h-85z" />
    <glyph glyph-name="uniFEF7" unicode="&#xfedf;&#xfe84;" horiz-adv-x="567" arabic-form="isolated" 
d="M53 88l109 14l-48 519l111 15l46 -520l73 9q27 4 45 24t18 48v488h110v-487q0 -36 -12 -68t-34 -57t-52 -41.5t-65 -21.5l-285 -40zM50 733l71 31q-4 0 -7 1q-9 2 -14 11q-1 2 -5.5 10t-8.5 16q-10 21 -10.5 32t-0.5 13q0 19 7.5 37t22 32t32.5 22l82 33l35 -83l-78 -33
q-7 -2 -9.5 -7.5t-2.5 -9.5t3 -9l18 -33l111 58l38 -78l-245 -125z" />
    <glyph glyph-name="uniFEF8" unicode="&#xfee0;&#xfe84;" horiz-adv-x="628" arabic-form="final" 
d="M163 101l-49 521l111 14l46 -521l74 10q27 3 45 23.5t18 47.5v489h110v-507q0 -20 14 -34t34 -14h62q14 0 14 -14v-102q0 -14 -14 -14h-44q-39 0 -72 15.5t-57 41.5q-42 -39 -101 -48l-285 -40l-15 118zM50 733l71 31q-4 0 -7 1q-8 4 -13 11q-2 2 -6.5 9.5t-8.5 15.5
q-10 22 -10.5 33t-0.5 13q0 19 7.5 36.5t22 32t33.5 21.5l81 34l35 -83l-78 -33q-6 -3 -9 -8.5t-3 -8.5q0 -5 3 -9q2 -3 8 -14.5t10 -18.5l111 58l39 -78l-246 -125z" />
    <glyph glyph-name="uniFEF9" unicode="&#xfedf;&#xfe88;" horiz-adv-x="564" arabic-form="isolated" 
d="M50 88l109 14l-48 519l111 15l46 -520l73 9q27 4 45 24t18 48v488h110v-487q0 -36 -12 -68t-34 -57t-52 -41.5t-65 -21.5l-285 -40zM100 -304q9 5 20 10t21.5 9.5t16.5 6.5q-4 0 -8 1q-3 2 -6.5 4.5t-6.5 7.5q-2 2 -6 9.5t-8 15.5q-10 21 -10.5 32t-0.5 13q0 19 7.5 37
t22 32t32.5 22l82 33l34 -83l-78 -33q-6 -2 -9 -8t-3 -9q0 -5 3 -9q2 -3 8.5 -14.5t10.5 -18.5q11 5 29 15l36 20q21 11 45 23l39 -77l-246 -125l-39 81q4 1 14 5z" />
    <glyph glyph-name="uniFEFA" unicode="&#xfee0;&#xfe88;" horiz-adv-x="624" arabic-form="final" 
d="M159 101l-49 521l111 14l46 -521l74 10q27 3 45 23.5t18 47.5v489h110v-507q0 -20 14 -34t34 -14h62q14 0 14 -14v-102q0 -14 -14 -14h-44q-39 0 -72 15.5t-57 41.5q-42 -39 -101 -48l-285 -40l-15 118zM157 -277q-4 0 -7 1q-8 4 -13 11q-2 2 -6.5 9.5t-8.5 15.5
q-10 22 -10.5 33t-0.5 13q0 19 7.5 36.5t22 32t33.5 21.5l81 34l35 -83l-78 -33q-6 -3 -9 -8.5t-3 -8.5q0 -5 3 -9q2 -3 8 -14.5t10 -18.5l111 58l39 -78l-246 -125l-39 82z" />
    <glyph glyph-name="uniFEFB" unicode="&#xfedf;&#xfe8e;" horiz-adv-x="564" arabic-form="isolated" 
d="M159 102l-48 519l111 15l46 -520l73 9q27 4 45 24t18 48v488h110v-487q0 -36 -12 -68t-34 -57t-52 -41.5t-65 -21.5l-285 -40l-16 118z" />
    <glyph glyph-name="uniFEFC" unicode="&#xfee0;&#xfe8e;" horiz-adv-x="624" arabic-form="final" 
d="M159 101l-49 521l111 14l46 -521l74 10q27 3 45 23.5t18 47.5v489h110v-507q0 -20 14 -34t34 -14h62q14 0 14 -14v-102q0 -14 -14 -14h-44q-39 0 -72 15.5t-57 41.5q-42 -39 -101 -48l-285 -40l-15 118z" />
    <glyph glyph-name="uniFEB3FBFD" unicode="&#xfeb3;&#xfbfd;" horiz-adv-x="1346" 
d="M60 9v264h110v-247q0 -23 9 -43t24 -35t35 -24t43 -9h196q34 0 58.5 24t24.5 59v26l-249 60l1 93q1 41 16 76t39.5 62t57 44t68.5 23l50 8q16 2 31 2q41 0 87 -20t78 -68l87 -132q10 -14 26.5 -28t40.5 -14q22 0 38.5 13t20.5 31l36 180l109 -19l-31 -157v-3
q0 -18 13 -31.5t33 -13.5h74v257h110v-266q0 -25 -9.5 -47t-26 -38.5t-39 -26t-47.5 -9.5h-63q-31 0 -56 13.5t-45 44.5q-22 -31 -52 -44.5t-65 -13.5q-51 0 -85.5 25.5t-68.5 77.5l-75 115q-18 27 -45.5 39t-50.5 12q-9 0 -17 -1l-61 -8q-31 -5 -51 -28t-20 -54v-4l163 -38
q40 -9 64 -39t24 -72v-35q0 -42 -13 -79.5t-37 -65.5t-58.5 -44t-77.5 -16h-200q-46 0 -87 17.5t-71.5 48t-48 71t-17.5 87.5z" />
    <glyph glyph-name="uniFEB4FBFD" unicode="&#xfeb4;&#xfbfd;" horiz-adv-x="1380" 
d="M60 9v264h110v-247q0 -23 9 -43t24 -35t35 -24t43 -9h196q17 0 32.5 6.5t27 17.5t17.5 25.5t6 28.5v5l-1 27l-248 59l1 93q1 41 16 76t39.5 62t57 44t68.5 23l50 8q16 2 31 2q41 0 87 -20t78 -68l87 -132q10 -14 26.5 -28t40.5 -14q22 0 38.5 13t20.5 31l36 180l109 -19
l-31 -157q-1 -5 -1 -9q0 -14 13.5 -26.5t33.5 -12.5h19q20 0 34 14.5t14 34.5v208h110v-209q0 -20 14 -34t34 -14h43q14 0 14 -14v-102q0 -14 -14 -14h-24q-36 0 -67.5 14.5t-54.5 44.5q-24 -30 -50 -44.5t-61 -14.5q-32 0 -62.5 13.5t-50.5 44.5q-22 -31 -52 -44.5
t-65 -13.5q-51 0 -85.5 25.5t-68.5 77.5l-75 115q-18 27 -45.5 39t-50.5 12q-9 0 -17 -1l-61 -8q-31 -5 -51 -28t-20 -54v-4l163 -38q40 -9 64 -39t24 -72v-35q0 -42 -13 -79.5t-37 -65.5t-58.5 -44t-77.5 -16h-200q-46 0 -87 17.5t-71.5 48t-48 71t-17.5 87.5z" />
    <glyph glyph-name="uniFEB7FBFD" unicode="&#xfeb7;&#xfbfd;" horiz-adv-x="1346" 
d="M170 273v-247q0 -23 8.5 -43t23.5 -35t35 -24t43 -9h196q17 0 32.5 6.5t27.5 17.5t18 25t6 29v5l-1 26l-248 60v93q1 41 16 76t39.5 62t57 44t68.5 23l50 8q15 3 30 3q13 0 34 -3.5t46.5 -14.5t48 -29t38.5 -42l87 -133q9 -14 25.5 -27.5t40.5 -13.5q23 0 39 12.5
t21 31.5l35 180l109 -19l-31 -157v-3q0 -18 13 -31.5t33 -13.5h75v257h110v-266q0 -25 -9.5 -47.5t-26.5 -38.5t-39 -25.5t-48 -9.5h-62q-31 0 -56.5 13t-45.5 45q-22 -32 -52 -45.5t-65 -13.5q-51 0 -85.5 26t-67.5 78l-75 115q-18 27 -46 39t-52 12q-8 0 -15 -1l-61 -9
q-31 -5 -51 -28t-20 -53v-5l162 -37q40 -9 64.5 -39.5t24.5 -71.5v-35q0 -42 -13 -79.5t-37.5 -65.5t-59 -44t-77.5 -16h-199q-46 0 -87 17.5t-71.5 48t-48 71t-17.5 87.5v264h110zM841 446v115h115v-115h-115zM923 598v115h115v-115h-115zM1123 561v-115h-115v115h115z" />
    <glyph glyph-name="uniFEB8FBFD" unicode="&#xfeb8;&#xfbfd;" horiz-adv-x="1380" 
d="M60 9v264h110v-247q0 -23 9 -43t24 -35t35 -24t43 -9h196q17 0 32.5 6.5t27 17.5t17.5 25.5t6 28.5v5l-1 27l-248 59l1 93q1 41 16 76t39.5 62t57 44t68.5 23l50 8q16 2 31 2q41 0 87 -20t78 -68l87 -132q10 -14 26.5 -28t40.5 -14q22 0 38.5 13t20.5 31l36 180l109 -19
l-31 -157q-1 -5 -1 -9q0 -14 13.5 -26.5t33.5 -12.5h19q20 0 34 14.5t14 34.5v208h110v-209q0 -20 14 -34t34 -14h43q14 0 14 -14v-102q0 -14 -14 -14h-24q-36 0 -67.5 14.5t-54.5 44.5q-24 -30 -50 -44.5t-61 -14.5q-32 0 -62.5 13.5t-50.5 44.5q-22 -31 -52 -44.5
t-65 -13.5q-51 0 -85.5 25.5t-68.5 77.5l-75 115q-18 27 -45.5 39t-50.5 12q-9 0 -17 -1l-61 -8q-31 -5 -51 -28t-20 -54v-4l163 -38q40 -9 64 -39t24 -72v-35q0 -42 -13 -79.5t-37 -65.5t-58.5 -44t-77.5 -16h-200q-46 0 -87 17.5t-71.5 48t-48 71t-17.5 87.5zM842 561h115
v-115h-115v115zM924 713h115v-115h-115v115zM1009 446v115h115v-115h-115z" />
    <glyph glyph-name="uniFEBBFBFD" unicode="&#xfebb;&#xfbfd;" horiz-adv-x="1415" 
d="M60 9v264h109v-247q0 -23 8.5 -43t23.5 -35t35.5 -24t44.5 -9h197q35 0 57.5 24t23.5 59v27l-247 59v93q0 41 15 76.5t40 62.5t58.5 44.5t69.5 22.5l49 8q14 2 29 2q41 0 86.5 -20.5t76.5 -68.5l65 -100q4 -6 9 -12.5t9 -12.5l6 -9l149 161q32 35 75 53.5t91 18.5h62
q33 0 63 -13t52 -35.5t35 -52t13 -63.5v-60q0 -37 -14 -69.5t-38 -57t-56.5 -38.5t-70.5 -14h-292q-54 0 -90 25t-70 78l-73 114q-17 27 -43.5 39.5t-50.5 12.5q-8 0 -16 -1l-59 -9q-29 -5 -50 -28t-21 -52v-10l160 -33q39 -8 63.5 -39t24.5 -72v-35q0 -42 -13 -79.5
t-37 -65.5t-57.5 -44t-75.5 -16h-202q-46 0 -87 17.5t-71.5 48t-48 71t-17.5 87.5zM934 130h273q20 0 34.5 14.5t14.5 34.5v51q0 20 -14.5 34t-34.5 14h-85q-24 0 -46.5 -10t-39.5 -28z" />
    <glyph glyph-name="uniFEBCFBFD" unicode="&#xfebc;&#xfbfd;" horiz-adv-x="1448" 
d="M60 9v264h109v-247q0 -23 8.5 -43t23.5 -35t35.5 -24t44.5 -9h197q17 0 32 6.5t26.5 17.5t17.5 25.5t6 28.5v5l-1 27l-247 59v93q0 39 15 74t40 62.5t58 45.5t70 23l51 8q14 2 28 2t34.5 -3t46 -14t47 -29t36.5 -42q0 -1 4.5 -8t10.5 -16.5t12 -18.5t9 -13l8 -12
q8 -12 17.5 -26.5t18.5 -26.5l8 -13l148 161q32 35 74.5 53.5t90.5 18.5h62q34 0 63.5 -13t52 -35.5t35.5 -52t13 -63.5v-55q0 -20 13.5 -37t33.5 -17h36q15 0 15 -14v-102q0 -14 -15 -14h-18q-36 0 -66.5 13t-53.5 36q-24 -23 -56 -36t-68 -13h-291q-27 0 -48.5 6.5t-40 19
t-35 32t-33.5 45.5l-75 115q-18 27 -44.5 39t-49.5 12q-9 0 -17 -1l-60 -9q-30 -5 -50.5 -27.5t-20.5 -53.5v-9l160 -33q39 -8 63.5 -39t24.5 -72v-35q0 -42 -13 -79.5t-37 -65.5t-57.5 -44t-75.5 -16h-202q-46 0 -87 17.5t-71.5 48t-48 71t-17.5 87.5zM1207 130q20 0 34 14
t14 34v52q0 20 -14 34t-34 14h-85q-25 0 -47.5 -10.5t-39.5 -27.5l-103 -110h275z" />
    <glyph glyph-name="uniFEBFFBFD" unicode="&#xfebf;&#xfbfd;" horiz-adv-x="1415" 
d="M60 9v264h110v-247q0 -23 8.5 -43t23.5 -35t35 -24t44 -9h197q34 0 57.5 24t23.5 59v27l-248 59l1 93q1 41 16.5 76t40.5 62t57.5 44.5t68.5 23.5l49 8q14 2 29 2q41 0 86.5 -20.5t76.5 -68.5l65 -100q4 -6 9 -12.5t9 -12.5l6 -9l149 161q32 35 75 53.5t91 18.5h62
q33 0 63 -13t52 -35.5t35 -52t13 -63.5v-60q0 -37 -14 -69.5t-38 -57t-56.5 -38.5t-70.5 -14h-292q-54 0 -90 25t-70 78l-73 114q-17 27 -43.5 39.5t-50.5 12.5q-8 0 -16 -1l-59 -9q-30 -5 -50.5 -28t-20.5 -52v-10l160 -33q39 -8 63.5 -39t24.5 -72v-35q0 -42 -13 -79.5
t-37 -65.5t-57.5 -44t-75.5 -16h-202q-46 0 -87 17.5t-71.5 48t-48 71t-17.5 87.5zM1207 130q20 0 34.5 14.5t14.5 34.5v51q0 20 -14.5 34t-34.5 14h-85q-24 0 -46.5 -10t-39.5 -28l-102 -110h273zM1102 492v115h115v-115h-115z" />
    <glyph glyph-name="uniFEC0FBFD" unicode="&#xfec0;&#xfbfd;" horiz-adv-x="1448" 
d="M170 273v-247q0 -23 8.5 -43t23.5 -35t35 -24t44 -9h197q17 0 32 6.5t26.5 17.5t17.5 25.5t6 28.5v5l-1 27l-247 59v93q0 39 15 74t40 62.5t58 45.5t70 23l51 8q14 2 28 2t34.5 -3t46 -14t47 -29t36.5 -42q0 -1 4.5 -8t10.5 -16.5t12 -18.5t9 -13l8 -12q8 -12 17.5 -26.5
t18.5 -26.5l8 -13l148 161q32 35 74.5 53.5t90.5 18.5h62q33 0 63 -13t52.5 -35.5t35.5 -52t13 -63.5v-55q0 -20 13.5 -37t33.5 -17h36q14 0 14 -14v-102q0 -14 -14 -14h-18q-36 0 -66.5 13t-53.5 36q-24 -23 -56 -36t-68 -13h-291q-54 0 -88.5 25.5t-68.5 77.5l-75 115
q-18 27 -44.5 39t-49.5 12q-9 0 -17 -1l-60 -9q-30 -5 -50.5 -27.5t-20.5 -53.5v-9l160 -33q39 -8 63.5 -39t24.5 -72v-35q0 -42 -13 -79.5t-37 -65.5t-57.5 -44t-75.5 -16h-202q-46 0 -87 17.5t-71.5 48t-48 71t-17.5 87.5v264h110zM1207 130q20 0 34 14t14 34v52
q0 20 -14 34t-34 14h-85q-25 0 -47.5 -10.5t-39.5 -27.5l-103 -110h275zM1225 610v-115h-115v115h115z" />
    <glyph glyph-name="uniFE92FBFD" unicode="&#xfe92;&#xfbfd;" horiz-adv-x="920" 
d="M60 9v264h110v-247q0 -23 8.5 -43t23.5 -35t35.5 -24t43.5 -9h195q35 0 59 24t24 59v28l-247 58v93q0 36 14.5 71t39.5 63t58 47.5t69 24.5l52 7q16 3 31 3q40 0 84.5 -20t76.5 -68q7 -10 21.5 -31.5t29.5 -44.5q17 -27 37 -57q10 -14 26.5 -28t42.5 -14h26q15 0 15 -14
v-101q0 -7 -4.5 -11t-10.5 -4h-25q-27 0 -48 6.5t-39.5 19.5t-35.5 32.5t-34 45.5l-75 114q-18 27 -45 39t-50 12q-9 0 -17 -1l-61 -8q-31 -5 -51 -28t-20 -54v-10l162 -31q40 -8 64 -39.5t24 -71.5v-36q0 -42 -13 -79.5t-37 -65.5t-58.5 -44t-76.5 -16h-200q-46 0 -87 17.5
t-71.5 48t-48 71t-17.5 87.5zM845 -121v-115h-115v115h115z" />
    <glyph glyph-name="uniFB59FBFD" unicode="&#xfb59;&#xfbfd;" horiz-adv-x="1021" 
d="M60 9v264h110v-247q0 -23 8.5 -43t23.5 -35t35.5 -24t43.5 -9h195q35 0 59 24t24 59v28l-247 58v93q0 36 14.5 71t39.5 63t58 47.5t69 24.5l52 7q16 3 31 3q40 0 84.5 -20t76.5 -68q7 -10 21.5 -31.5t29.5 -44.5q17 -27 37 -57q10 -14 26.5 -28t42.5 -14h127q14 0 14 -14
v-101q0 -15 -14 -15h-126q-27 0 -48 6.5t-39.5 19.5t-35.5 32.5t-34 45.5l-75 114q-18 27 -45 39t-50 12q-9 0 -17 -1l-61 -8q-31 -5 -51 -28t-20 -54v-10l162 -31q40 -8 64 -39.5t24 -71.5v-36q0 -42 -13 -79.5t-37 -65.5t-58.5 -44t-76.5 -16h-200q-46 0 -87 17.5
t-71.5 48t-48 71t-17.5 87.5zM707 -120h115v-115h-115v115zM904 -272v-115h-115v115h115zM989 -120v-115h-115v115h115z" />
    <glyph glyph-name="uniFE98FBFD" unicode="&#xfe98;&#xfbfd;" horiz-adv-x="920" 
d="M60 9v264h110v-247q0 -23 8.5 -43t23.5 -35t35.5 -24t43.5 -9h195q35 0 59 24t24 59v28l-247 58v93q0 36 14.5 71t39.5 63t58 47.5t69 24.5l52 7q16 3 31 3q40 0 84.5 -20t76.5 -68q7 -10 21.5 -31.5t29.5 -44.5q17 -27 37 -57q10 -14 26.5 -28t42.5 -14h26q15 0 15 -14
v-101q0 -7 -4.5 -11t-10.5 -4h-25q-27 0 -48 6.5t-39.5 19.5t-35.5 32.5t-34 45.5l-75 114q-18 27 -45 39t-50 12q-9 0 -17 -1l-61 -8q-31 -5 -51 -28t-20 -54v-10l162 -31q40 -8 64 -39.5t24 -71.5v-36q0 -42 -13 -79.5t-37 -65.5t-58.5 -44t-76.5 -16h-200q-46 0 -87 17.5
t-71.5 48t-48 71t-17.5 87.5zM808 615v-115h-115v115h115zM641 615v-115h-115v115h115z" />
    <glyph glyph-name="uniFE9CFBFD" unicode="&#xfe9c;&#xfbfd;" horiz-adv-x="920" 
d="M170 273v-247q0 -23 8.5 -43t23.5 -35t35.5 -24t43.5 -9h195q35 0 59 24t24 59v28l-247 58v93q0 36 14.5 71t39.5 63t58 47.5t69 24.5l52 7q16 3 31 3q40 0 84.5 -20t76.5 -68q7 -10 21.5 -31.5t29.5 -44.5q17 -27 37 -57q10 -14 26.5 -28t42.5 -14h26q15 0 15 -14v-101
q0 -7 -4.5 -11t-10.5 -4h-25q-27 0 -48 6.5t-39.5 19.5t-35.5 32.5t-34 45.5l-75 114q-18 27 -45 39t-50 12q-9 0 -17 -1l-61 -8q-31 -5 -51 -28t-20 -54v-10l162 -31q40 -8 64 -39.5t24 -71.5v-36q0 -42 -13 -79.5t-37 -65.5t-58.5 -44t-76.5 -16h-200q-46 0 -87 17.5
t-71.5 48t-48 71t-17.5 87.5v264h110zM643 618v-120h-120v120h120zM728 775v-120h-120v120h120zM815 618v-120h-120v120h120z" />
    <glyph glyph-name="uniFEE8FBFD" unicode="&#xfee8;&#xfbfd;" horiz-adv-x="920" 
d="M60 9v264h110v-247q0 -23 8.5 -43t23.5 -35t35.5 -24t43.5 -9h195q35 0 59 24t24 59v28l-247 58v93q0 36 14.5 71t39.5 63t58 47.5t69 24.5l52 7q16 3 31 3q40 0 84.5 -20t76.5 -68q7 -10 21.5 -31.5t29.5 -44.5q17 -27 37 -57q10 -14 26.5 -28t42.5 -14h26q15 0 15 -14
v-101q0 -7 -4.5 -11t-10.5 -4h-25q-27 0 -48 6.5t-39.5 19.5t-35.5 32.5t-34 45.5l-75 114q-18 27 -45 39t-50 12q-9 0 -17 -1l-61 -8q-31 -5 -51 -28t-20 -54v-10l162 -31q40 -8 64 -39.5t24 -71.5v-36q0 -42 -13 -79.5t-37 -65.5t-58.5 -44t-76.5 -16h-200q-46 0 -87 17.5
t-71.5 48t-48 71t-17.5 87.5zM611 615h115v-115h-115v115z" />
    <glyph glyph-name="uniFBFDFE8C" unicode="&#xfe8c;&#xfbfd;" horiz-adv-x="920" 
d="M60 9v264h110v-247q0 -23 8.5 -43t23.5 -35t35.5 -24t43.5 -9h195q35 0 59 24t24 59v28l-247 58v93q0 36 14.5 71t39.5 63t58 47.5t69 24.5l52 7q16 3 31 3q40 0 84.5 -20t76.5 -68q7 -10 21.5 -31.5t29.5 -44.5q17 -27 37 -57q10 -14 26.5 -28t42.5 -14h26q15 0 15 -14
v-101q0 -7 -4.5 -11t-10.5 -4h-25q-27 0 -48 6.5t-39.5 19.5t-35.5 32.5t-34 45.5l-75 114q-18 27 -45 39t-50 12q-9 0 -17 -1l-61 -8q-31 -5 -51 -28t-20 -54v-10l162 -31q40 -8 64 -39.5t24 -71.5v-36q0 -42 -13 -79.5t-37 -65.5t-58.5 -44t-76.5 -16h-200q-46 0 -87 17.5
t-71.5 48t-48 71t-17.5 87.5zM510 571l66 29q-4 0 -9 5t-9 11.5t-7 13.5t-5 10q-10 21 -10.5 32t-0.5 13q0 19 7.5 36.5t22 32t33.5 21.5l81 34l35 -84l-78 -32q-6 -3 -9 -8.5t-3 -8.5q0 -5 3 -9q2 -5 8.5 -16.5t9.5 -16.5l111 58l39 -78l-246 -125z" />
    <glyph glyph-name="uniFBFDFBFF" unicode="&#xfbff;&#xfbfd;" horiz-adv-x="1021" 
d="M60 9v264h110v-247q0 -23 8.5 -43t23.5 -35t35.5 -24t43.5 -9h195q35 0 59 24t24 59v28l-247 58v93q0 36 14.5 71t39.5 63t58 47.5t69 24.5l52 7q16 3 31 3q40 0 84.5 -20t76.5 -68q7 -10 21.5 -31.5t29.5 -44.5q17 -27 37 -57q10 -14 26.5 -28t42.5 -14h127q14 0 14 -14
v-101q0 -15 -14 -15h-126q-27 0 -48 6.5t-39.5 19.5t-35.5 32.5t-34 45.5l-75 114q-18 27 -45 39t-50 12q-9 0 -17 -1l-61 -8q-31 -5 -51 -28t-20 -54v-10l162 -31q40 -8 64 -39.5t24 -71.5v-36q0 -42 -13 -79.5t-37 -65.5t-58.5 -44t-76.5 -16h-200q-46 0 -87 17.5
t-71.5 48t-48 71t-17.5 87.5zM989 -120v-115h-115v115h115zM822 -120v-115h-115v115h115z" />
    <glyph glyph-name="uni0621" unicode="&#x621;" horiz-adv-x="450" arabic-form="isolated" 
d="M60 77l81 41q-2 0 -10 3.5t-14 15.5l-13 25q-13 25 -13 49.5t9 46t25.5 38t38.5 25.5l95 39l41 -97l-89 -38q-12 -5 -13.5 -11t-1.5 -10q0 -5 2 -9q2 -5 8 -18.5t10 -21.5l129 68l45 -91l-287 -146z" />
    <glyph glyph-name="uni0622" unicode="&#x622;" horiz-adv-x="281" arabic-form="isolated" 
d="M106 607h110v-607h-110v607zM-30 632v53q0 46 29 70.5t65 24.5h207v-95h-195q-10 0 -15.5 -6.5t-5.5 -14.5v-32h-85z" />
    <glyph glyph-name="uni0623" unicode="&#x623;" horiz-adv-x="225" arabic-form="isolated" 
d="M60 607h110v-607h-110v607zM51 761q-4 0 -7 1q-8 4 -13 11q-2 2 -6.5 10t-8.5 16q-10 21 -10.5 32t-0.5 13q0 19 7.5 37t22 32t33.5 22l81 33l35 -83l-78 -33q-6 -2 -9 -8t-3 -9q0 -5 3 -9q2 -3 8.5 -14.5t9.5 -18.5l111 58l39 -78l-246 -125l-39 82z" />
    <glyph glyph-name="uni0624" unicode="&#x624;" horiz-adv-x="503" arabic-form="isolated" 
d="M53 186l17 91q5 27 19.5 50.5t34.5 40.5t45.5 26.5t53.5 9.5h56q34 0 64 -13t52 -35.5t35 -52.5t13 -64v-218q0 -39 -12 -75.5t-33.5 -67t-52 -53.5t-68.5 -36l-137 -47l-34 105l141 47q38 13 61.5 42t23.5 69v7q-11 -5 -27 -8.5t-32 -3.5h-67q-37 0 -68 15.5t-52.5 41.5
t-28.5 52t-7 46q0 15 3 31zM139 591q-4 0 -7 1q-3 2 -6.5 4.5t-6.5 7.5q-2 2 -6.5 9.5t-7.5 15.5q-11 21 -11.5 32t-0.5 13q0 19 7.5 37t22 32t33.5 22l81 34l35 -84l-78 -33q-6 -2 -9 -8t-3 -9q0 -5 3 -9q2 -3 8.5 -14.5t10.5 -18.5l110 59l39 -78l-246 -125l-39 81z
M168 142q9 -12 24 -12h141v110q0 16 -11 27.5t-27 11.5h-81q-14 0 -24 -9t-13 -23l-16 -80q-1 -3 -1 -6q0 -11 8 -19z" />
    <glyph glyph-name="uni0625" unicode="&#x625;" horiz-adv-x="238" arabic-form="isolated" 
d="M62 0v685h110v-685h-110zM-27 -277l72 31q-4 0 -8 1q-8 2 -13 11q-2 2 -6 9.5t-8 15.5q-11 22 -11 43t7.5 39t22 32t32.5 22l82 34l34 -83l-78 -33q-6 -3 -9 -8.5t-3 -8.5q0 -5 3 -9q2 -3 8 -14.5t11 -18.5l110 58l39 -78l-246 -125z" />
    <glyph glyph-name="uni0626" unicode="&#x626;" horiz-adv-x="749" arabic-form="isolated" 
d="M65 264h110v-213q0 -23 9 -43t24 -35t35 -23.5t43 -8.5h215q35 0 59 24t24 59v26l-280 66v117q0 40 13.5 75t37.5 62.5t57 45t72 22.5l140 18l18 -120l-160 -21q-31 -4 -51.5 -27t-20.5 -54v-29l196 -44q39 -9 63.5 -39t24.5 -71v-35q0 -42 -16 -79.5t-43.5 -65.5
t-65 -44t-80.5 -16h-200q-46 0 -87 17.5t-71.5 48t-48 71t-17.5 87.5v229zM60 457l71 32q-15 0 -20 12l-14 25q-10 21 -10.5 32t-0.5 13q0 19 7.5 37t22 32t32.5 22l82 34l34 -84l-78 -33q-6 -2 -9 -7.5t-3 -8.5q0 -5 3 -9q2 -3 8.5 -14.5t10.5 -18.5l110 58l39 -78
l-246 -125z" />
    <glyph glyph-name="uni0627" unicode="&#x627;" horiz-adv-x="220" arabic-form="isolated" 
d="M60 0v685h110v-685h-110z" />
    <glyph glyph-name="uni0628" unicode="&#x628;" horiz-adv-x="871" arabic-form="isolated" 
d="M170 386v-173q0 -35 24 -59t59 -24h410q20 0 34 14t14 34v208h110v-208q0 -37 -14 -69.5t-38.5 -56.5t-57 -38t-69.5 -14h-380q-42 0 -79 16t-64 43t-43 64t-16 79v184h110zM383 -234v115h115v-115h-115z" />
    <glyph glyph-name="uni0629" unicode="&#x629;" horiz-adv-x="508" arabic-form="isolated" 
d="M60 209q0 24 6.5 46t17.5 40.5t24.5 32.5t28.5 22q8 5 13 7.5t8 4.5q3 1 4 2l-67 45l60 93q61 -41 110 -73q21 -14 41.5 -28t37 -25t28 -18t13.5 -9q42 -28 57.5 -65t15.5 -72v-34q0 -33 -11.5 -66.5t-35.5 -60.5t-59.5 -44.5t-83.5 -17.5h-21q-45 0 -80 17.5t-59 45
t-36 61t-12 65.5v31zM170 220v-42q0 -10 4.5 -21t13 -20.5t20.5 -16t28 -6.5h46q18 0 31 7.5t20.5 17.5t11 20.5t3.5 15.5v42q0 11 -5.5 22t-16.5 18q-4 2 -15.5 10t-25.5 16q-15 9 -33 21l-62 -47q-7 -5 -13.5 -13.5t-6.5 -23.5zM393 711v-115h-115v115h115zM111 596v115
h115v-115h-115z" />
    <glyph glyph-name="uni062A" unicode="&#x62a;" horiz-adv-x="871" arabic-form="isolated" 
d="M170 387v-174q0 -35 24 -59t59 -24h410q20 0 34 14t14 34v209h110v-208q0 -37 -14 -69.5t-38.5 -57t-57 -38.5t-69.5 -14h-379q-42 0 -79 16t-64.5 43.5t-43.5 64.5t-16 79v184h110zM466 502h115v-115h-115v115zM299 502h115v-115h-115v115z" />
    <glyph glyph-name="uni062B" unicode="&#x62b;" horiz-adv-x="871" arabic-form="isolated" 
d="M170 387v-174q0 -35 24 -59t59 -24h410q20 0 34 14t14 34v209h110v-208q0 -37 -14 -69.5t-38.5 -57t-57 -38.5t-69.5 -14h-379q-42 0 -79 16t-64.5 43.5t-43.5 64.5t-16 79v184h110zM414 387h-115v115h115v-115zM381 654h115v-115h-115v115zM581 387h-115v115h115v-115z
" />
    <glyph glyph-name="uni062C" unicode="&#x62c;" horiz-adv-x="701" arabic-form="isolated" 
d="M60 263l26 91q15 49 55 76t85 27q20 0 39 -6l386 -116l-32 -107l-65 19q-9 3 -18 3q-17 0 -32 -11l-253 -184q-26 -19 -39.5 -47t-13.5 -60q0 -29 11 -55t30.5 -45.5t45.5 -30.5t56 -11h260v-130h-259q-55 0 -103.5 21t-84.5 56.5t-56.5 83t-20.5 100.5q0 59 25.5 109
t70.5 82q20 14 47.5 34.5t56 41.5t54 40t39.5 29q13 10 25 17q6 4 11 7l-183 54q-5 2 -10 2q-14 0 -19 -17l-34 -100zM478 30v-115h-115v115h115z" />
    <glyph glyph-name="uni062D" unicode="&#x62d;" horiz-adv-x="701" arabic-form="isolated" 
d="M60 263l26 91q15 49 55 76t85 27q20 0 39 -6l386 -116l-32 -107l-65 19q-9 3 -18 3q-17 0 -32 -11l-253 -184q-26 -19 -39.5 -47t-13.5 -60q0 -29 11 -55t30.5 -45.5t45.5 -30.5t56 -11h260v-130h-259q-55 0 -103.5 21t-84.5 56.5t-56.5 83t-20.5 100.5q0 59 25.5 109
t70.5 82q20 14 47.5 34.5t56 41.5t54 40t39.5 29q13 10 25 17q6 4 11 7l-183 54q-5 2 -10 2q-14 0 -19 -17l-34 -100z" />
    <glyph glyph-name="uni062E" unicode="&#x62e;" horiz-adv-x="701" arabic-form="isolated" 
d="M86 354q15 49 55 76t85 27q20 0 39 -6l386 -116l-32 -107l-65 19q-9 3 -18 3q-17 0 -32 -11l-253 -184q-26 -19 -39.5 -47t-13.5 -60q0 -29 11 -55t30.5 -45.5t45.5 -30.5t56 -11h260v-130h-259q-55 0 -103.5 21t-84.5 56.5t-56.5 83t-20.5 100.5q0 59 25.5 109t70.5 82
q20 14 47.5 34.5t56 41.5t54 40t39.5 29q13 10 25 17q6 4 11 7l-183 54q-5 2 -10 2q-14 0 -19 -17l-34 -100l-100 27zM146 663h115v-115h-115v115z" />
    <glyph glyph-name="uni062F" unicode="&#x62f;" horiz-adv-x="573" arabic-form="isolated" 
d="M60 133v130h94v-110q0 -10 7 -16.5t16 -6.5h165q18 0 32.5 9t23 23t9 22.5t0.5 9.5q0 16 -9 31l-124 221l93 61l133 -236q24 -41 24 -85q0 -4 -1.5 -30t-24.5 -65.5t-64 -65t-93 -25.5h-149q-27 0 -51 10.5t-42 28.5t-28.5 42.5t-10.5 51.5z" />
    <glyph glyph-name="uni0630" unicode="&#x630;" horiz-adv-x="573" arabic-form="isolated" 
d="M60 133v130h94v-110q0 -10 7 -16.5t16 -6.5h165q18 0 32.5 9t23 23t9 22.5t0.5 9.5q0 16 -9 31l-124 221l93 61l133 -236q24 -41 24 -85q0 -4 -1.5 -30t-24.5 -65.5t-64 -65t-93 -25.5h-149q-27 0 -51 10.5t-42 28.5t-28.5 42.5t-10.5 51.5zM333 712v-115h-115v115h115z
" />
    <glyph glyph-name="uni0631" unicode="&#x631;" horiz-adv-x="357" arabic-form="isolated" 
d="M-40 -152l144 47q38 13 60.5 45t22.5 71v346h110v-335q0 -39 -12 -75.5t-33.5 -66.5t-52 -52.5t-67.5 -35.5l-138 -47z" />
    <glyph glyph-name="uni0632" unicode="&#x632;" horiz-adv-x="357" arabic-form="isolated" 
d="M104 -105q38 13 60.5 45t22.5 71v346h110v-335q0 -39 -12 -75.5t-33.5 -66.5t-52 -52.5t-67.5 -35.5l-138 -47l-34 103zM182 564h115v-115h-115v115z" />
    <glyph glyph-name="uni0633" unicode="&#x633;" horiz-adv-x="1184" arabic-form="isolated" 
d="M60 49v293h110v-276q0 -23 8.5 -43t23.5 -35t35 -24t43 -9h180q38 0 64 26.5t26 63.5v313h109v-182q2 -20 15.5 -33t32.5 -13h29q20 0 35 12t19 32l36 181l108 -20l-30 -150q-1 -5 -1 -10q0 -16 12.5 -30.5t34.5 -14.5h74v258h110v-266q0 -25 -9.5 -47.5t-26 -39
t-38.5 -26t-47 -9.5h-64q-32 0 -59.5 13.5t-47.5 45.5q-23 -32 -53 -45.5t-65 -13.5q-17 0 -34.5 5.5t-31.5 25.5v-25q0 -39 -16.5 -72t-44 -57t-63.5 -38t-75 -14h-175q-46 0 -87 17.5t-71.5 48t-48 71.5t-17.5 87z" />
    <glyph glyph-name="uni0634" unicode="&#x634;" horiz-adv-x="1184" arabic-form="isolated" 
d="M60 49v293h110v-276q0 -23 8.5 -43t23.5 -35t35 -24t43 -9h180q38 0 64 26.5t26 63.5v313h109v-182q2 -20 15.5 -33t32.5 -13h29q20 0 35 12t19 32l36 181l108 -20l-30 -150q-1 -5 -1 -10q0 -16 12.5 -30.5t34.5 -14.5h74v258h110v-266q0 -25 -9.5 -47.5t-26 -39
t-38.5 -26t-47 -9.5h-64q-32 0 -59.5 13.5t-47.5 45.5q-23 -32 -53 -45.5t-65 -13.5q-17 0 -34.5 5.5t-31.5 25.5v-25q0 -39 -16.5 -72t-44 -57t-63.5 -38t-75 -14h-175q-46 0 -87 17.5t-71.5 48t-48 71.5t-17.5 87zM683 562h115v-115h-115v115zM764 599v115h115v-115h-115z
M850 447v115h115v-115h-115z" />
    <glyph glyph-name="uni0635" unicode="&#x635;" horiz-adv-x="1250" arabic-form="isolated" 
d="M170 343v-276q0 -23 8.5 -43t23 -35t34.5 -24t43 -9h182q37 0 63 26.5t26 63.5v312h110v-132q0 -13 2 -21.5t4 -13.5t5 -8l138 148q32 34 74.5 53t90.5 19h62q34 0 64 -13t52 -35t35 -52t13 -64v-60q0 -37 -14 -69.5t-38 -57t-56.5 -38.5t-69.5 -14h-241q-30 0 -64.5 8.5
t-57.5 31.5v-33q0 -38 -16 -71t-43.5 -57.5t-64 -38.5t-76.5 -14h-175q-46 0 -87 17.5t-71.5 48t-48 71.5t-17.5 87v293h110zM1042 130q20 0 34 14.5t14 34.5v51q0 20 -14 34t-34 14h-85q-51 0 -87 -38l-103 -110h275z" />
    <glyph glyph-name="uni0636" unicode="&#x636;" horiz-adv-x="1250" arabic-form="isolated" 
d="M60 50v293h110v-276q0 -23 8.5 -43t23 -35t34.5 -24t43 -9h182q37 0 63 26.5t26 63.5v312h110v-132q0 -13 2 -21.5t4 -13.5t5 -8l138 148q32 34 74.5 53t90.5 19h62q34 0 64 -13t52 -35t35 -52t13 -64v-60q0 -37 -14 -69.5t-38 -57t-56.5 -38.5t-69.5 -14h-241
q-30 0 -64.5 8.5t-57.5 31.5v-33q0 -38 -16 -71t-43.5 -57.5t-64 -38.5t-76.5 -14h-175q-46 0 -87 17.5t-71.5 48t-48 71.5t-17.5 87zM767 130h275q20 0 34 14.5t14 34.5v51q0 20 -14 34t-34 14h-85q-51 0 -87 -38zM902 610h115v-115h-115v115z" />
    <glyph glyph-name="uni0637" unicode="&#x637;" horiz-adv-x="743" arabic-form="isolated" 
d="M60 0v130h55l105 113v442h110v-282q0 -20 -6 -37.5t-7 -19.5q2 1 5 4l5 5q62 48 140 48h62q34 0 64 -13t52 -35t35 -52t13 -64v-60q0 -37 -14 -69.5t-38.5 -57t-57 -38.5t-69.5 -14h-454zM535 130q20 0 34 14t14 34v52q0 20 -14 34t-34 14h-85q-52 0 -87 -38l-101 -110
h273z" />
    <glyph glyph-name="uni0638" unicode="&#x638;" horiz-adv-x="743" arabic-form="isolated" 
d="M115 130l105 113v442h110v-282q0 -10 -2 -20.5t-4 -18.5q-3 -9 -7 -18q2 1 6 4.5t9 7.5q26 21 61.5 33t73.5 12h62q34 0 64 -13t52 -35t35 -52t13 -64v-60q0 -37 -14 -69.5t-38.5 -57t-57 -38.5t-69.5 -14h-454v130h55zM535 130q20 0 34 14.5t14 34.5v51q0 20 -14 34
t-34 14h-85q-51 0 -87 -38l-101 -110h273zM412 609h115v-115h-115v115z" />
    <glyph glyph-name="uni0639" unicode="&#x639;" horiz-adv-x="571" arabic-form="isolated" 
d="M65 -109q5 23 17 47.5t31.5 49.5t47.5 46q-8 5 -13 15t-7 20l-30 146q-3 15 -3 30q0 20 7.5 45.5t29 51t53 40.5t67.5 15h167v-125h-172q-19 0 -29.5 -12.5t-10.5 -26.5q0 -4 1 -9l31 -149q26 9 66 22t78 25q44 14 92 29l33 -100l-257 -82q-14 -4 -29 -11.5t-27 -20
t-19.5 -31t-7.5 -43.5q0 -30 11 -56t30.5 -45.5t45.5 -31t56 -11.5h169v-130h-168q-56 0 -104.5 21.5t-84 57.5t-56 84t-20.5 102q0 15 5 37z" />
    <glyph glyph-name="uni063A" unicode="&#x63a;" horiz-adv-x="571" arabic-form="isolated" 
d="M60 -145q0 15 5 37.5t17 47t31.5 49.5t47.5 46q-8 5 -13 15t-7 20l-30 146q-3 15 -3 30q0 20 7.5 45.5t29 51t53 40.5t67.5 15h167v-125h-172q-19 0 -29.5 -12.5t-10.5 -26.5q0 -4 1 -9l31 -149q26 9 66 22t78 25q44 14 92 29l33 -100l-257 -82q-14 -4 -29 -11.5t-27 -20
t-19.5 -31t-7.5 -43.5q0 -30 11 -56t30.5 -45.5t45.5 -31t56 -11.5h169v-130h-168q-56 0 -104.5 21.5t-84 57.5t-56 84t-20.5 102zM345 642v-115h-115v115h115z" />
    <glyph glyph-name="uni0641" unicode="&#x641;" horiz-adv-x="872" arabic-form="isolated" 
d="M170 386v-174q0 -35 24.5 -58.5t58.5 -23.5h410q20 0 34 13.5t14 31.5v3v21q-28 -11 -60 -11h-58q-37 0 -69 16t-53.5 42t-29 53t-7.5 47q0 15 3 31l16 81q11 55 53.5 90.5t99.5 35.5h54q33 0 62.5 -12.5t51.5 -34.5t35 -51.5t13 -63.5v-244q0 -37 -14 -69.5t-38.5 -56.5
t-57 -38t-69.5 -14h-380q-42 0 -79 16t-64.5 43.5t-43.5 64.5t-16 79v183h110zM553 330q10 -12 25 -12h134v104q0 16 -11 26.5t-27 10.5h-76q-14 0 -25.5 -9t-13.5 -23l-13 -71q-1 -3 -1 -7q0 -11 8 -19zM576 791h115v-115h-115v115z" />
    <glyph glyph-name="uni0642" unicode="&#x642;" horiz-adv-x="711" arabic-form="isolated" 
d="M60 -1v264h110v-248q0 -23 8.5 -43t23.5 -35t35 -23.5t43 -8.5h179q19 0 35.5 6t29 17t20 25t7.5 31v26q-14 -5 -29.5 -7.5t-30.5 -2.5h-60q-37 0 -69 16t-53.5 42t-29 53t-7.5 47q0 15 3 31l16 81q11 55 53.5 90.5t99.5 35.5h54q34 0 64 -12.5t52 -34.5t34.5 -51.5
t12.5 -63.5v-258q0 -42 -16 -78.5t-43.5 -63.5t-64.5 -43t-79 -16h-174q-46 0 -87 17.5t-71.5 48t-48 71t-17.5 87.5zM390 142q9 -12 25 -12h136v103q0 15 -12 26t-27 11h-77q-14 0 -24.5 -9t-13.5 -23l-14 -70q-1 -3 -1 -7q0 -11 8 -19zM615 602v-115h-117v115h117z
M446 602v-115h-115v115h115z" />
    <glyph glyph-name="uni0643" unicode="&#x643;" horiz-adv-x="871" arabic-form="isolated" 
d="M60 386h110v-173q0 -35 24 -59t59 -24h410q20 0 34 14t14 34v537h110v-537q0 -37 -14 -69.5t-38.5 -56.5t-57 -38t-69.5 -14h-379q-42 0 -79 16t-64.5 43.5t-43.5 64.5t-16 79v183zM281 394l71 31q-4 0 -7 1q-9 2 -14 11q-1 2 -5.5 10t-8.5 16q-10 21 -10.5 32t-0.5 13
q0 19 7.5 37t22 32t32.5 22l82 33l35 -83l-78 -33q-7 -2 -9.5 -7.5t-2.5 -9.5t3 -9l18 -33l111 58l38 -78l-245 -125z" />
    <glyph glyph-name="uni0644" unicode="&#x644;" horiz-adv-x="709" arabic-form="isolated" 
d="M60 49v264h110v-248q0 -23 9 -43t24 -35t35 -23.5t42 -8.5h180q38 0 64 26t26 63v641h110v-659q0 -42 -16 -78.5t-43 -63.5t-63.5 -43t-78.5 -16h-175q-46 0 -87 17.5t-71.5 48t-48 71.5t-17.5 87z" />
    <glyph glyph-name="uni0645" unicode="&#x645;" horiz-adv-x="691" arabic-form="isolated" 
d="M60 224q0 37 14 69.5t38.5 57t57 38.5t69.5 14h237q34 0 64 -13t52.5 -35.5t35.5 -52t13 -63.5v-118q0 -25 -9.5 -47t-26 -38.5t-39 -26t-47.5 -9.5h-116q-37 0 -68 15.5t-52 41t-28.5 52.5t-7.5 47q0 15 3 30l17 92h-49q-20 0 -34 -14t-14 -34v-487h-110v481zM366 142
q9 -12 23 -12h142v110q0 16 -11.5 27t-27.5 11h-112l-21 -110q-1 -3 -1 -7q0 -11 8 -19z" />
    <glyph glyph-name="uni0646" unicode="&#x646;" horiz-adv-x="709" arabic-form="isolated" 
d="M60 48v293h110v-277q0 -23 8.5 -43t23.5 -35t35 -23.5t43 -8.5h179q38 0 64 26t26 64v313h110v-332q0 -42 -16 -78.5t-43 -63.5t-63.5 -43t-78.5 -16h-174q-46 0 -87 17.5t-71.5 48t-48 71.5t-17.5 87zM302 472h115v-115h-115v115z" />
    <glyph glyph-name="uni0647" unicode="&#x647;" horiz-adv-x="508" arabic-form="isolated" 
d="M60 178v31q0 24 6.5 46t17.5 40.5t24.5 32.5t28.5 22q8 5 13 7.5t8 4.5q3 1 4 2l-67 45l60 93l230 -153q42 -28 57.5 -65t15.5 -72v-34q0 -33 -11.5 -66.5t-35.5 -60.5t-59.5 -44.5t-83.5 -17.5h-21q-45 0 -80 17.5t-59 45t-36 61t-12 65.5zM170 220v-42q0 -10 4.5 -21
t13 -20.5t20.5 -16t28 -6.5h46q18 0 31 7.5t20.5 17.5t11 20.5t3.5 15.5v42q0 11 -5.5 22t-16.5 18q-4 2 -15.5 10t-25.5 16q-15 9 -33 21l-62 -47q-7 -5 -13.5 -13.5t-6.5 -23.5z" />
    <glyph glyph-name="uni0648" unicode="&#x648;" horiz-adv-x="503" arabic-form="isolated" 
d="M53 186l17 91q5 27 19.5 50.5t34.5 40.5t45.5 26.5t53.5 9.5h56q34 0 64 -13t52 -35.5t35 -52.5t13 -64v-218q0 -39 -12 -75.5t-33.5 -67t-52 -53.5t-68.5 -36l-137 -47l-34 105l141 47q38 13 61.5 42t23.5 69v7q-11 -5 -27 -8.5t-32 -3.5h-67q-37 0 -68 15.5t-52.5 41.5
t-28.5 52t-7 46q0 15 3 31zM168 142q9 -12 24 -12h141v110q0 16 -11 27.5t-27 11.5h-81q-14 0 -24 -9t-13 -23l-16 -80q-1 -3 -1 -6q0 -11 8 -19z" />
    <glyph glyph-name="uni0649" unicode="&#x649;" horiz-adv-x="744" arabic-form="isolated" 
d="M60 35v229h110v-213q0 -23 9 -43t24 -35t35 -23.5t43 -8.5h215q35 0 59 24t24 59v26l-280 66v117q0 40 13.5 75t37.5 62.5t57 45t72 22.5l140 18l18 -120l-160 -21q-31 -4 -51.5 -27t-20.5 -54v-29l196 -44q39 -9 63.5 -39t24.5 -71v-35q0 -42 -16 -79.5t-43.5 -65.5
t-65 -44t-80.5 -16h-200q-46 0 -87 17.5t-71.5 48t-48 71t-17.5 87.5z" />
    <glyph glyph-name="uni064A" unicode="&#x64a;" horiz-adv-x="744" arabic-form="isolated" 
d="M60 35v229h110v-213q0 -23 9 -43t24 -35t35 -23.5t43 -8.5h215q35 0 59 24t24 59v26l-280 66v117q0 40 13.5 75t37.5 62.5t57 45t72 22.5l140 18l18 -120l-160 -21q-31 -4 -51.5 -27t-20.5 -54v-29l196 -44q39 -9 63.5 -39t24.5 -71v-35q0 -42 -16 -79.5t-43.5 -65.5
t-65 -44t-80.5 -16h-200q-46 0 -87 17.5t-71.5 48t-48 71t-17.5 87.5zM400 -290h115v-115h-115v115zM234 -290h114v-115h-114v115z" />
    <glyph glyph-name="uni064B" unicode="&#xfe70;" arabic-form="isolated" 
d="M-161 700l-13 76l330 71l18 -76zM-161 829l-13 76l330 71l18 -76z" />
    <glyph glyph-name="uni064C" unicode="&#xfe72;" arabic-form="isolated" 
d="M-155 782l-21 87l90 20l21 -88l30 7q-4 15 -6 23t-3 13.5t-2 11.5t-2 16q-1 5 -1 9q0 12 5 25.5t16 26t25.5 20.5t30.5 10l52 7q5 1 9 1q12 0 26.5 -5t27.5 -15.5t22 -25t12 -31.5l6 -33q2 -8 2 -15q0 -10 -4.5 -23t-15.5 -26.5t-27 -23t-34 -13.5l-12 -2
q-12 -3 -31.5 -7t-44.5 -9.5t-50 -10.5q-61 -13 -137 -30l-13 74zM34 867l12 -44l48 11q8 2 12 6t4 8q0 2 -1 4l-8 29q-4 12 -14 12q-2 0 -4 -1l-36 -7q-6 -2 -10 -5.5t-4 -7.5q0 -3 1 -5z" />
    <glyph glyph-name="uni064D" unicode="&#xfe74;" arabic-form="isolated" 
d="M-160 -147l-13 76l330 71l18 -76zM-160 -276l-13 76l330 71l18 -76z" />
    <glyph glyph-name="uni064E" unicode="&#xfe76;" arabic-form="isolated" 
d="M-161 701l-13 76l330 71l18 -76z" />
    <glyph glyph-name="uni064F" unicode="&#xfe78;" arabic-form="isolated" 
d="M-53 800q-4 15 -6 23t-3 13.5t-2 11.5t-2 16q-1 5 -1 9q0 12 5 25.5t16 26t25.5 20.5t30.5 10l52 7q5 1 9 1q12 0 26.5 -5t27.5 -15.5t22 -25t12 -31.5l6 -33q1 -7 1 -13q0 -11 -4 -24t-15.5 -26.5t-27 -23.5t-33.5 -14t-37 -8q-17 -4 -38.5 -8t-43.5 -9
q-52 -12 -118 -26l-13 75zM16 859l12 -44l48 11q8 2 12 6t4 8q0 2 -1 4l-8 29q-4 12 -14 12q-2 0 -4 -1l-36 -7q-6 -2 -10 -5.5t-4 -7.5q0 -3 1 -5z" />
    <glyph glyph-name="uni0650" unicode="&#xfe7a;" arabic-form="isolated" 
d="M-160 -161l-15 90l330 71l20 -90z" />
    <glyph glyph-name="uni0651" unicode="&#xfe7c;" arabic-form="isolated" 
d="M-171 805v91h81v-92q2 -16 19 -18h6q8 0 13.5 5t7.5 13l18 88l80 -14l-15 -76v-3q0 -6 5 -9t11 -4h36v113h81v-125q0 -31 -21.5 -52.5t-52.5 -21.5h-37q-16 0 -30.5 6t-27.5 21q-13 -15 -33 -21t-37 -6q-21 0 -40 8.5t-33.5 22.5t-22.5 33t-8 41z" />
    <glyph glyph-name="uni0652" unicode="&#xfe7e;" arabic-form="isolated" 
d="M-107 814q0 44 29 73t73 29h10q21 0 40 -8t33 -22t22 -32.5t8 -39.5v-11q0 -21 -8 -40t-22 -33t-33 -22t-40 -8h-10q-22 0 -40.5 8.5t-32 23t-21.5 33t-8 38.5v11zM-33 814v-9q0 -8 6 -14t15 -6h26q8 0 14.5 5t6.5 15v9q0 9 -6.5 15t-14.5 6h-26q-9 0 -15 -6t-6 -15z" />
    <glyph glyph-name="uni0671" unicode="&#x671;" horiz-adv-x="353" arabic-form="isolated" 
d="M4 738q8 0 14 6t6 14v59h73v-20q0 -6 1 -11t2 -9q1 -5 3 -8l70 70q42 42 97 42h24q21 0 39 -8t31.5 -21.5t21 -31.5t7.5 -38v-32q0 -19 -8.5 -37t-22 -31.5t-31 -22t-36.5 -8.5h-164q-37 0 -66 23q-28 -23 -66 -23h-39v87h44zM114 607h110v-607h-110v607zM171 738h135
q6 0 10.5 4.5t4.5 10.5v26q0 7 -5 12t-13 5h-48q-25 0 -45 -20z" />
    <glyph glyph-name="uni067E" unicode="&#x67e;" horiz-adv-x="871" arabic-form="isolated" 
d="M170 387v-174q0 -35 24 -59t59 -24h410q20 0 34 14t14 34v209h110v-208q0 -37 -14 -69.5t-38.5 -57t-57 -38.5t-69.5 -14h-379q-42 0 -79 16t-64.5 43.5t-43.5 64.5t-16 79v184h110zM414 -119v-115h-115v115h115zM381 -271h115v-115h-115v115zM466 -234v115h115v-115
h-115z" />
    <glyph glyph-name="uni0686" unicode="&#x686;" horiz-adv-x="701" arabic-form="isolated" 
d="M60 263l26 91q15 49 55 76t85 27q20 0 39 -6l386 -116l-32 -107l-65 19q-9 3 -18 3q-17 0 -32 -11l-253 -184q-26 -19 -39.5 -47t-13.5 -60q0 -29 11 -55t30.5 -45.5t45.5 -30.5t56 -11h260v-130h-259q-55 0 -103.5 21t-84.5 56.5t-56.5 83t-20.5 100.5q0 59 25.5 109
t70.5 82q20 14 47.5 34.5t56 41.5t54 40t39.5 29q13 10 25 17q6 4 11 7l-183 54q-5 2 -10 2q-14 0 -19 -17l-34 -100zM514 -57v-96h-96v96h96zM348 -28v95h96v-95h-96zM580 67v-95h-95v95h95z" />
    <glyph glyph-name="uni0698" unicode="&#x698;" horiz-adv-x="399" arabic-form="isolated" 
d="M-40 -152l144 47q38 13 60.5 45t22.5 71v346h110v-335q0 -39 -12 -75.5t-33.5 -66.5t-52 -52.5t-67.5 -35.5l-138 -47zM97 563h115v-115h-115v115zM179 600v115h115v-115h-115zM264 563h115v-115h-115v115z" />
    <glyph glyph-name="uni06A9" unicode="&#x6a9;" horiz-adv-x="896" arabic-form="isolated" 
d="M170 358v-145q0 -35 24 -59t59 -24h379q27 0 48 14t31 34.5t10 43.5q0 2 -0.5 15.5t-16.5 35.5l-171 232v78l338 171l49 -96l-273 -138l146 -183q28 -34 36 -66.5t8 -57.5q0 -12 -3 -37t-21 -59t-46 -60t-65.5 -41.5t-80.5 -15.5h-358q-42 0 -79 16t-64.5 43.5
t-43.5 64.5t-16 79v155h110z" />
    <glyph glyph-name="uni06AF" unicode="&#x6af;" horiz-adv-x="896" arabic-form="isolated" 
d="M170 358v-145q0 -35 24 -59t59 -24h379q27 0 48 14t31 34.5t10 43.5q0 2 -0.5 15.5t-16.5 35.5l-171 232v78l338 171l49 -96l-273 -138l146 -183q28 -34 36 -66.5t8 -57.5q0 -12 -3 -37t-21 -59t-46 -60t-65.5 -41.5t-80.5 -15.5h-358q-42 0 -79 16t-64.5 43.5
t-43.5 64.5t-16 79v155h110zM802 876l34 -77l-315 -160l-34 77z" />
    <glyph glyph-name="uni06C0" unicode="&#x6c0;" horiz-adv-x="508" arabic-form="isolated" 
d="M60 178v31q0 24 6.5 46t17.5 40.5t24.5 32.5t28.5 22q8 5 13 7.5t8 4.5q3 1 4 2l-67 45l60 93l230 -153q42 -28 57.5 -65t15.5 -72v-34q0 -33 -11.5 -66.5t-35.5 -60.5t-59.5 -44.5t-83.5 -17.5h-21q-45 0 -80 17.5t-59 45t-36 61t-12 65.5zM123 663l72 31q-4 0 -8 1
q-8 2 -13 11q-2 2 -6 9.5t-8 15.5q-11 22 -11 43t7.5 39t22 32t32.5 22l82 34l34 -83l-78 -33q-6 -3 -9 -8.5t-3 -8.5q0 -5 3 -9q2 -3 8 -14.5t11 -18.5l110 58l39 -78l-246 -125zM170 220v-42q0 -10 4.5 -21t13 -20.5t20.5 -16t28 -6.5h46q18 0 31 7.5t20.5 17.5t11 20.5
t3.5 15.5v42q0 11 -5.5 22t-16.5 18q-4 2 -15.5 10t-25.5 16q-15 9 -33 21l-62 -47q-7 -5 -13.5 -13.5t-6.5 -23.5z" />
    <glyph glyph-name="uni06CC" unicode="&#x6cc;" horiz-adv-x="744" arabic-form="isolated" 
d="M60 35v229h110v-213q0 -23 9 -43t24 -35t35 -23.5t43 -8.5h215q35 0 59 24t24 59v26l-280 66v117q0 40 13.5 75t37.5 62.5t57 45t72 22.5l140 18l18 -120l-160 -21q-31 -4 -51.5 -27t-20.5 -54v-29l196 -44q39 -9 63.5 -39t24.5 -71v-35q0 -42 -16 -79.5t-43.5 -65.5
t-65 -44t-80.5 -16h-200q-46 0 -87 17.5t-71.5 48t-48 71t-17.5 87.5z" />
    <glyph glyph-name="uniFB51" unicode="&#x671;" horiz-adv-x="324" arabic-form="final" 
d="M110 607h110v-429q0 -20 14.5 -34t34.5 -14h57q5 0 9.5 -4.5t4.5 -10.5v-101q0 -5 -4.5 -9.5t-9.5 -4.5h-40q-36 0 -68 14t-56 38t-38 56t-14 68v431zM-40 738h44q8 0 14 6t6 14v59h73v-20q0 -6 1 -11t2 -9q1 -5 3 -8l70 70q42 42 97 42h24q21 0 39 -8t31.5 -21.5
t21 -31.5t7.5 -38v-32q0 -19 -8.5 -37t-22 -31.5t-31 -22t-36.5 -8.5h-164q-37 0 -66 23q-28 -23 -66 -23h-39v87zM171 738h135q6 0 10.5 4.5t4.5 10.5v26q0 7 -5 12t-13 5h-48q-25 0 -45 -20z" />
    <glyph glyph-name="uniFB57" unicode="&#x67e;" horiz-adv-x="898" arabic-form="final" 
d="M170 386v-174q0 -35 24 -58.5t59 -23.5h410q20 0 34 13.5t14 33.5v180h110v-179q0 -20 14 -34t34 -14h29q6 0 10.5 -4t4.5 -10v-102q0 -6 -4.5 -10t-10.5 -4h-10q-36 0 -67 15.5t-54 43.5q-25 -31 -56.5 -45t-67.5 -14h-380q-42 0 -79 16t-64.5 43.5t-43.5 64.5t-16 79
v183h110zM415 -120v-115h-115v115h115zM497 -272v-115h-115v115h115zM467 -235v115h115v-115h-115z" />
    <glyph glyph-name="uniFB58" unicode="&#x67e;" horiz-adv-x="468" arabic-form="initial" 
d="M-14 115q0 6 4 10.5t10 4.5h230q20 0 34 14.5t14 34.5v207h110v-207q0 -37 -14 -69.5t-38.5 -57t-57 -38.5t-69.5 -14h-209q-6 0 -10 4.5t-4 9.5v101zM26 -120h115v-115h-115v115zM108 -387v115h115v-115h-115zM308 -120v-115h-115v115h115z" />
    <glyph glyph-name="uniFB59" unicode="&#x67e;" horiz-adv-x="375" arabic-form="medial" 
d="M-10 126q4 4 10 4h86q20 0 35 12t19 32l37 180l108 -19l-30 -151q-1 -6 -1 -11q0 -14 12 -28.5t34 -14.5h75q6 0 10 -4.5t4 -10.5v-101q0 -5 -4 -9.5t-10 -4.5h-76q-32 0 -64 17.5t-43 41.5q-7 -12 -20 -22.5t-28.5 -19t-33 -13t-34.5 -4.5h-76q-14 0 -14 14v101
q0 6 4 11zM51 -235v115h115v-115h-115zM133 -387v115h115v-115h-115zM333 -120v-115h-115v115h115z" />
    <glyph glyph-name="uniFB7B" unicode="&#x686;" horiz-adv-x="701" arabic-form="final" 
d="M86 354q15 49 55 76t85 27q20 0 39 -6l386 -116l-31 -103l-66 15q-8 2 -17.5 2t-17.5 -2v-68q0 -20 14.5 -34.5t34.5 -14.5h133q14 0 14 -14v-102q0 -5 -4 -9.5t-10 -4.5h-115q-37 0 -67.5 13.5t-52.5 36.5t-34.5 53.5t-12.5 64.5v10l-168 -123q-26 -19 -39.5 -46.5
t-13.5 -59.5q0 -30 11 -56t30.5 -45.5t45.5 -30.5t56 -11h260v-130h-259q-55 0 -103.5 21t-84.5 56.5t-56.5 83t-20.5 100.5q0 59 25.5 109t70.5 82q20 14 46.5 34t54.5 40t53.5 39t42.5 32l36 24l-183 54q-5 2 -10 2q-14 0 -19 -17l-34 -100l-100 27zM375 -58v74h74v-74
h-74zM324 -80h73v-74h-73v74zM343 16v-74h-73v74h73z" />
    <glyph glyph-name="uniFB7C" unicode="&#x686;" horiz-adv-x="684" arabic-form="initial" 
d="M-10 125q5 5 10 5h179q42 0 83 13.5t70 44.5l67 71q4 4 5 4l-210 63q-4 1 -8 1q-5 0 -11 -3.5t-10 -12.5l-38 -100l-96 26l26 92q7 25 21.5 44.5t33 32.5t40.5 19.5t44 6.5q21 0 40 -6l398 -119l-33 -103l-47 14q-11 2 -21 2t-21 -4t-26 -19l-115 -114q-43 -43 -100 -63
t-117 -20h-154q-14 0 -14 14v101q0 5 4 10zM192 -235v115h115v-115h-115zM274 -387v115h115v-115h-115zM359 -235v115h115v-115h-115z" />
    <glyph glyph-name="uniFB7D" unicode="&#x686;" horiz-adv-x="685" arabic-form="medial" 
d="M-14 14v101q0 5 4 10t9 5h181q42 0 83 13.5t70 44.5l67 71q4 4 5 4l-210 63q-4 1 -8 1q-5 0 -11 -3.5t-10 -12.5l-38 -100l-96 26l26 92q7 25 21.5 44.5t33 32.5t40.5 19.5t44 6.5q21 0 40 -6l398 -119l-33 -103l-47 14q-11 3 -20 3q-5 0 -12.5 -1.5t-17.5 -7.5v-34
q0 -20 14 -34t34 -14h133q14 0 14 -14v-102q0 -14 -14 -14h-115q-60 0 -101.5 34.5t-57.5 88.5l-40 -40q-43 -43 -100 -63t-117 -20h-154q-15 0 -15 14zM298 -120v-115h-115v115h115zM265 -272h115v-115h-115v115zM465 -120v-115h-115v115h115z" />
    <glyph glyph-name="uniFB8B" unicode="&#x698;" horiz-adv-x="431" arabic-form="final" 
d="M-40 -151l144 47q38 12 60.5 44.5t22.5 71.5v346h110v-187q0 -18 15 -29.5t33 -11.5h86q14 0 14 -14v-102q0 -14 -14 -14h-68q-17 0 -36 6t-30 25v-18q0 -38 -12.5 -72.5t-34.5 -63.5t-52 -50.5t-66 -33.5l-138 -47zM100 563h115v-115h-115v115zM182 600v115h115v-115
h-115zM382 563v-115h-115v115h115z" />
    <glyph glyph-name="uniFB8F" unicode="&#x6a9;" horiz-adv-x="1007" arabic-form="final" 
d="M170 358v-145q0 -35 24 -59t59 -24h379q28 0 48.5 14t30.5 34.5t10 43.5q0 2 -0.5 15.5t-17.5 35.5l-171 232v78l339 171l49 -96l-273 -138l272 -351q14 -17 34 -28t43 -11h11q5 0 9.5 -4t4.5 -10v-102q0 -5 -4.5 -9.5t-9.5 -4.5h-6q-42 0 -77.5 18.5t-60.5 51.5l-44 61
q-12 -28 -31.5 -52t-45.5 -41.5t-56.5 -27.5t-65.5 -10h-357q-42 0 -79 16t-64.5 43.5t-43.5 64.5t-16 79v155h110z" />
    <glyph glyph-name="uniFB90" unicode="&#x6a9;" horiz-adv-x="402" arabic-form="initial" 
d="M-14 116q0 5 4 9.5t10 4.5h138q28 0 49 14.5t31 35t10 43.5q0 2 -0.5 15.5t-17.5 35.5l-171 231v79l339 171l49 -97l-274 -138l147 -183q27 -34 35 -66t8 -57q0 -12 -3 -37t-21 -59t-46 -60.5t-65.5 -42t-80.5 -15.5h-127q-6 0 -10 4.5t-4 10.5v101z" />
    <glyph glyph-name="uniFB91" unicode="&#x6a9;" horiz-adv-x="514" arabic-form="medial" 
d="M-14 117q0 5 4.5 9.5t9.5 4.5h138q28 0 49 14t31 34.5t10 43.5q0 2 -0.5 15.5t-17.5 35.5l-171 231v79l339 171l49 -97l-274 -138l272 -351q14 -18 34 -28.5t43 -10.5h12q14 0 14 -14v-102q0 -5 -4 -9.5t-10 -4.5h-7q-41 0 -77 18.5t-60 52.5l-44 61q-12 -28 -32 -52
t-45.5 -42t-56 -28t-65.5 -10h-127q-6 0 -10 4.5t-4 10.5v102z" />
    <glyph glyph-name="uniFB93" unicode="&#x6af;" horiz-adv-x="1007" arabic-form="final" 
d="M170 358v-145q0 -35 24 -59t59 -24h379q28 0 48.5 14t30.5 34.5t10 43.5q0 2 -0.5 15.5t-17.5 35.5l-171 232v78l339 171l49 -96l-273 -138l272 -351q14 -17 34 -28t43 -11h11q5 0 9.5 -4t4.5 -10v-102q0 -5 -4.5 -9.5t-9.5 -4.5h-6q-42 0 -77.5 18.5t-60.5 51.5l-44 61
q-12 -28 -31.5 -52t-45.5 -41.5t-56.5 -27.5t-65.5 -10h-357q-42 0 -79 16t-64.5 43.5t-43.5 64.5t-16 79v155h110zM802 876l34 -77l-315 -160l-34 77z" />
    <glyph glyph-name="uniFB94" unicode="&#x6af;" horiz-adv-x="423" arabic-form="initial" 
d="M-13 117q0 5 4 9.5t9 4.5h159q28 0 49 14.5t31 34.5t10 43q0 2 -0.5 15.5t-17.5 35.5l-171 231v79l339 171l49 -97l-274 -138l147 -183q27 -34 35 -66t8 -57q0 -12 -3 -37t-21 -59t-46 -60.5t-65.5 -42t-80.5 -15.5h-147q-6 0 -10 4.5t-4 10.5v102zM341 877l33 -77
l-314 -161l-35 78z" />
    <glyph glyph-name="uniFB95" unicode="&#x6af;" horiz-adv-x="534" arabic-form="medial" 
d="M-14 116q0 5 4.5 9.5t9.5 4.5h158q28 0 49 14t31 34.5t10 43.5q0 2 -0.5 16t-17.5 36l-171 231v79l339 171l49 -97l-274 -138l272 -351q14 -18 34 -28.5t43 -10.5h12q5 0 9.5 -4t4.5 -10v-102q0 -5 -4 -9.5t-10 -4.5h-7q-41 0 -77 18.5t-60 52.5l-44 61q-12 -28 -32 -52
t-45.5 -42t-56 -28t-65.5 -10h-147q-6 0 -10 4.5t-4 10.5v101zM22 717l316 160l33 -77l-314 -161z" />
    <glyph glyph-name="uniFBA5" unicode="&#x6c0;" horiz-adv-x="525" arabic-form="final" 
d="M60 265q0 31 10 59.5t28 51.5t42.5 40t54.5 24l132 32v75h110v-363q0 -22 17.5 -38t40.5 -16h30q5 0 9.5 -4t4.5 -10v-102q0 -6 -4.5 -10t-9.5 -4h-30q-51 0 -87 25t-59 67q-11 -8 -30 -12.5t-35 -4.5h-98q-26 0 -49 10t-40 27t-27 40t-10 49v64zM123 652l71 31
q-4 0 -7 1q-8 4 -13 11q-2 2 -6.5 9.5t-8.5 15.5q-10 22 -10.5 33t-0.5 13q0 19 7.5 36.5t22 32t33.5 21.5l81 34l35 -83l-78 -33q-6 -3 -9 -8.5t-3 -8.5q0 -5 3 -9q2 -3 8 -14.5t10 -18.5l111 58l39 -78l-246 -125zM170 257v-52h157v149l-102 -25q-25 -6 -40 -26t-15 -46z
" />
    <glyph glyph-name="uniFBE8" unicode="&#x649;" horiz-adv-x="378" arabic-form="initial" 
d="M-14 115q0 6 4 10.5t10 4.5h170q20 0 34 14.5t14 34.5v207h110v-207q0 -37 -14 -69.5t-38.5 -57t-57 -38.5t-69.5 -14h-149q-6 0 -10 4.5t-4 9.5v101z" />
    <glyph glyph-name="uniFBE9" unicode="&#x649;" horiz-adv-x="375" arabic-form="medial" 
d="M-10 126q4 4 10 4h86q20 0 35 12t19 32l37 180l108 -19l-30 -151q-1 -6 -1 -11q0 -14 12 -28.5t34 -14.5h75q6 0 10 -4.5t4 -10.5v-101q0 -5 -4 -9.5t-10 -4.5h-76q-32 0 -64 17.5t-43 41.5q-7 -12 -20 -22.5t-28.5 -19t-33 -13t-34.5 -4.5h-76q-14 0 -14 14v101
q0 6 4 11z" />
    <glyph glyph-name="uniFBFD" unicode="&#x6cc;" horiz-adv-x="746" arabic-form="final" 
d="M60 -11v265h110v-248q0 -23 9 -43.5t24 -35.5t35 -23.5t43 -8.5h185q35 0 59.5 24t25.5 59l-1 21h-196v131h392h2q5 0 8.5 -4t3.5 -9v-102q0 -12 -14 -16h-89q0 -1 1.5 -6.5t1.5 -13.5v-16q0 -42 -16 -78t-44 -63t-65.5 -42t-80.5 -15h-170q-46 0 -87 17.5t-71.5 48
t-48 71t-17.5 87.5z" />
    <glyph glyph-name="uniFBFE" unicode="&#x6cc;" horiz-adv-x="438" arabic-form="initial" 
d="M-14 115q0 6 4 10.5t10 4.5h230q20 0 34 14.5t14 34.5v207h110v-207q0 -37 -14 -69.5t-38.5 -57t-57 -38.5t-69.5 -14h-209q-6 0 -10 4.5t-4 9.5v101zM296 -120v-115h-115v115h115zM129 -120v-115h-114v115h114z" />
    <glyph glyph-name="uniFBFF" unicode="&#x6cc;" horiz-adv-x="375" arabic-form="medial" 
d="M-10 126q4 4 10 4h86q20 0 35 12t19 32l37 180l108 -19l-30 -151q-1 -6 -1 -11q0 -14 12 -28.5t34 -14.5h75q6 0 10 -4.5t4 -10.5v-101q0 -5 -4 -9.5t-10 -4.5h-76q-32 0 -64 17.5t-43 41.5q-7 -12 -20 -22.5t-28.5 -19t-33 -13t-34.5 -4.5h-76q-14 0 -14 14v101
q0 6 4 11zM213 -120h115v-115h-115v115zM47 -235v115h114v-115h-114z" />
    <glyph glyph-name="uniFC5E" unicode="&#xfc5e;" arabic-form="isolated" 
d="M-181 1007l30 6l-21 87l90 21l20 -89l31 7q-2 11 -5 22q-2 9 -4.5 20t-4.5 22q-1 5 -1 10q0 9 4.5 21.5t16 25.5t26.5 22.5t30 11.5l52 7q5 1 9 1q12 0 26.5 -5t27.5 -15.5t22 -25t12 -30.5l6 -33q1 -6 1 -12q0 -11 -4.5 -24.5t-15.5 -27.5t-26.5 -24t-32.5 -14l-12 -2
q-12 -3 -31.5 -7t-44.5 -9.5t-50 -10.5q-61 -13 -137 -30zM-171 804v91h81v-91q2 -16 18 -18h7q8 0 13.5 4.5t7.5 12.5l18 88l80 -14l-15 -75v-3q0 -7 5 -10t11 -3h36v113h81v-126q0 -30 -21.5 -51.5t-52.5 -21.5h-44q-32 0 -58 20q-26 -20 -63 -20q-21 0 -40 8t-33.5 22.5
t-22.5 33.5t-8 40zM38 1098l11 -44l49 11q7 2 11.5 6t4.5 8q0 2 -1 4l-9 29q-3 12 -13 12q-3 0 -5 -1l-35 -7q-7 -1 -10.5 -5t-3.5 -8q0 -2 1 -5z" />
    <glyph glyph-name="uniFC5F" unicode="&#xfc5f;" arabic-form="isolated" 
d="M-168 1213h81v-91q2 -16 18 -18h7q8 0 13.5 4.5t7.5 12.5l18 88l80 -14l-15 -75v-3q0 -7 5 -10t11 -3h36v113h81v-126q0 -30 -21.5 -51.5t-52.5 -21.5h-44q-32 0 -58 20q-26 -20 -63 -20q-21 0 -40 8t-33.5 22.5t-22.5 33.5t-8 40v91zM-175 905l330 72l17 -76l-334 -71z
M-175 776l330 71l17 -75l-334 -72z" />
    <glyph glyph-name="uniFC60" unicode="&#xfc60;" arabic-form="isolated" 
d="M-166 804v91h81v-91q0 -7 5 -12t13 -6h7q7 0 12.5 4.5t7.5 12.5l18 88l80 -14l-15 -75q0 -9 5 -12.5t11 -3.5h36v113h81v-126q0 -30 -21.5 -51.5t-52.5 -21.5h-43q-33 0 -59 20q-13 -10 -29 -15t-33 -5q-22 0 -41 8t-33 22.5t-22 33.5t-8 40zM-176 1010l331 71l17 -76
l-334 -71z" />
    <glyph glyph-name="uniFC61" unicode="&#xfc61;" arabic-form="isolated" 
d="M-172 805v91h81v-92q2 -16 19 -18h6q8 0 13.5 5t7.5 13l18 88l80 -14l-15 -76v-3q0 -6 5 -9t11 -4h36v113h81v-125q0 -31 -21.5 -52.5t-52.5 -21.5h-44q-32 0 -58 20q-26 -20 -63 -20q-21 0 -40 8.5t-33.5 22.5t-22.5 33t-8 41zM-49 1022q-4 15 -7 29t-7 35q0 4 -1 8
q1 13 6 26.5t16 26t25.5 20.5t30.5 10l52 7q5 1 9 1q12 0 26 -5t27 -15.5t22 -25t12 -31.5l6 -33q1 -6 1 -12q0 -30 -22 -55.5t-57 -33.5l-10 -2q-11 -2 -27.5 -6t-38 -8t-43.5 -9q-52 -12 -118 -26l-14 75zM20 1081l11 -44l49 11q7 2 11 6t4 10v2l-9 29q-4 12 -13 12
q-2 0 -4 -1l-36 -8q-7 -1 -10.5 -4.5t-3.5 -7.5q0 -2 1 -5z" />
    <glyph glyph-name="uniFC62" unicode="&#xfc62;" arabic-form="isolated" 
d="M-167 967v91h81v-91q0 -7 5 -12t13 -6h7q7 0 12.5 4.5t7.5 12.5l18 88l80 -14l-15 -75q0 -9 5 -12.5t11 -3.5h36v113h81v-126q0 -30 -21.5 -51.5t-52.5 -21.5h-43q-33 0 -59 20q-13 -10 -29 -15t-33 -5q-22 0 -41 8t-33 22.5t-22 33.5t-8 40zM155 847l18 -76l-335 -71
l-13 76z" />
    <glyph glyph-name="uniFC63" unicode="&#xfc63;" arabic-form="isolated" 
d="M-90 896v-92q2 -16 19 -18h6q8 0 13.5 5t7.5 13l18 88l80 -14l-15 -76v-3q0 -6 5 -9t11 -4h36v113h81v-125q0 -31 -21.5 -52.5t-52.5 -21.5h-44q-32 0 -58 20q-26 -20 -63 -20q-21 0 -40 8.5t-33.5 22.5t-22.5 33t-8 41v91h81zM-39 1088h80v-170h-80v170z" />
    <glyph glyph-name="uniFE82" unicode="&#x622;" horiz-adv-x="330" arabic-form="final" 
d="M225 607v-429q0 -20 14.5 -34t34.5 -14h57q5 0 9.5 -4.5t4.5 -10.5v-101q0 -5 -4.5 -9.5t-9.5 -4.5h-40q-36 0 -68 14t-56 38t-38 56t-14 68v431h110zM-1 756q29 24 65 24h207v-95h-195q-10 0 -15.5 -6.5t-5.5 -14.5v-32h-85v53q0 46 29 71z" />
    <glyph glyph-name="uniFE84" unicode="&#x623;" horiz-adv-x="276" arabic-form="final" 
d="M61 176v431h110v-429q0 -20 14.5 -34t34.5 -14h57q5 0 9.5 -4.5t4.5 -10.5v-101q0 -5 -4.5 -9.5t-9.5 -4.5h-40q-36 0 -68 14t-56 38t-38 56t-14 68zM-20 731l72 31q-4 0 -8 1q-8 2 -13 11q-1 2 -5.5 9.5t-8.5 15.5q-10 22 -10.5 33t-0.5 13q0 19 7.5 36.5t22 32
t32.5 21.5l82 34l35 -83l-79 -33q-6 -3 -8.5 -8.5t-2.5 -8.5q0 -4 3 -9l18 -33l110 58l39 -78l-245 -125z" />
    <glyph glyph-name="uniFE86" unicode="&#x624;" horiz-adv-x="513" arabic-form="final" 
d="M53 186l17 91q5 27 19.5 50.5t34.5 40.5t45.5 26.5t53.5 9.5h56q34 0 64 -13t52 -35.5t35 -52.5t13 -64v-109h70q14 0 14 -14v-102q0 -14 -14 -14h-71q0 -37 -13.5 -70t-36 -60.5t-52.5 -48t-63 -32.5l-137 -47l-34 105l141 47q38 13 61.5 42t23.5 69v7q-11 -5 -27 -8.5
t-32 -3.5h-67q-37 0 -68 15.5t-52 41.5t-28.5 52.5t-7.5 46.5q0 15 3 30zM139 591q-4 0 -7 1q-3 2 -6.5 4.5t-6.5 7.5q-2 2 -6.5 9.5t-7.5 15.5q-11 21 -11.5 32t-0.5 13q0 19 7.5 37t22 32t33.5 22l81 34l35 -84l-78 -33q-6 -2 -9 -8t-3 -9q0 -5 3 -9q2 -3 8.5 -14.5
t10.5 -18.5l110 59l39 -78l-246 -125l-39 81zM168 142q9 -12 24 -12h141v110q0 16 -11 27.5t-27 11.5h-81q-14 0 -24 -9t-13 -23l-16 -80q-1 -3 -1 -6q0 -11 8 -19z" />
    <glyph glyph-name="uniFE88" unicode="&#x625;" horiz-adv-x="278" arabic-form="final" 
d="M172 607v-429q0 -20 14.5 -34t34.5 -14h57q5 0 9.5 -4.5t4.5 -10.5v-101q0 -5 -4.5 -9.5t-9.5 -4.5h-40q-36 0 -68 14t-56 38t-38 56t-14 68v431h110zM20 -277l71 31q-4 0 -7 1q-9 2 -14 11q-1 2 -5.5 10t-8.5 16q-10 21 -10.5 32t-0.5 13q0 19 7.5 37t22 32t32.5 22
l82 33l35 -83l-78 -33q-7 -2 -9.5 -7.5t-2.5 -9.5t3 -9l18 -33l111 58l38 -78l-245 -125z" />
    <glyph glyph-name="uniFE8A" unicode="&#x626;" horiz-adv-x="751" arabic-form="final" 
d="M65 -10v264h110v-248q0 -23 9 -43t24 -35t35 -23.5t43 -8.5h185q35 0 59.5 24t25.5 59v21h-197v130h392q14 0 14 -13v-102q0 -6 -4 -10.5t-10 -4.5h-89l2 -6q0 -3 0.5 -6.5t0.5 -7.5v-16q0 -42 -16 -78t-44 -63t-65.5 -42t-80.5 -15h-170q-46 0 -87 17.5t-71.5 48t-48 71
t-17.5 87.5zM60 418l71 31q-4 0 -7 1q-8 2 -12 10q-2 3 -6.5 10.5t-8.5 15.5q-11 22 -11 43t7.5 39t22 32.5t32.5 21.5l81 34l35 -83l-78 -33q-6 -3 -9 -8.5t-3 -8.5q0 -5 3 -9q2 -3 8.5 -14.5t10.5 -18.5l109 58l39 -78l-245 -125z" />
    <glyph glyph-name="uniFE8B" unicode="&#x626;" horiz-adv-x="378" arabic-form="initial" 
d="M-14 115q0 6 4 10.5t10 4.5h170q20 0 34 14.5t14 34.5v207h110v-207q0 -37 -14 -69.5t-38.5 -57t-57 -38.5t-69.5 -14h-149q-6 0 -10 4.5t-4 9.5v101zM1 472l71 32q-4 0 -7 1q-9 2 -14 11q-1 2 -5.5 9.5t-8.5 15.5q-10 21 -10.5 32t-0.5 13q0 19 7.5 37t22 32t33.5 22
l81 34l35 -84l-78 -33q-7 -2 -9.5 -7.5t-2.5 -8.5q0 -4 3 -9q2 -4 8 -15.5t10 -17.5q10 5 28.5 14.5t36.5 19t31.5 16.5t14.5 8l38 -78l-245 -125z" />
    <glyph glyph-name="uniFE8C" unicode="&#x626;" horiz-adv-x="375" arabic-form="medial" 
d="M-10 126q4 4 10 4h86q20 0 35 12t19 32l37 180l108 -19l-30 -151q-1 -6 -1 -11q0 -14 12 -28.5t34 -14.5h75q6 0 10 -4.5t4 -10.5v-101q0 -5 -4 -9.5t-10 -4.5h-76q-32 0 -64 17.5t-43 41.5q-7 -12 -20 -22.5t-28.5 -19t-33 -13t-34.5 -4.5h-76q-14 0 -14 14v101
q0 6 4 11zM55 508l72 31q-4 0 -8 1q-8 2 -13 11q-1 2 -5.5 9.5t-8.5 15.5q-10 22 -10.5 33t-0.5 13q0 19 7.5 36.5t22 32t32.5 21.5l82 34l35 -83l-79 -33q-6 -3 -8.5 -8.5t-2.5 -8.5q0 -4 3 -9l18 -33l110 58l39 -78l-245 -125z" />
    <glyph glyph-name="uniFE8E" unicode="&#x627;" horiz-adv-x="265" arabic-form="final" 
d="M60 175v510h110v-507q0 -20 14 -34t34 -14h47q6 0 10 -4.5t4 -10.5v-101q0 -14 -14 -14h-29q-36 0 -68 13.5t-56 37.5t-38 56t-14 68z" />
    <glyph glyph-name="uniFE90" unicode="&#x628;" horiz-adv-x="898" arabic-form="final" 
d="M170 386v-174q0 -35 24 -58.5t59 -23.5h410q20 0 34 13.5t14 33.5v180h110v-179q0 -20 14 -34t34 -14h29q6 0 10.5 -4t4.5 -10v-102q0 -6 -4.5 -10t-10.5 -4h-10q-36 0 -67 15.5t-54 43.5q-25 -31 -56.5 -45t-67.5 -14h-380q-42 0 -79 16t-64.5 43.5t-43.5 64.5t-16 79
v183h110zM383 -237v115h115v-115h-115z" />
    <glyph glyph-name="uniFE91" unicode="&#x628;" horiz-adv-x="378" arabic-form="initial" 
d="M-14 115q0 6 4 10.5t10 4.5h170q20 0 34 14.5t14 34.5v207h110v-207q0 -37 -14 -69.5t-38.5 -57t-57 -38.5t-69.5 -14h-149q-6 0 -10 4.5t-4 9.5v101zM141 -120v-115h-115v115h115z" />
    <glyph glyph-name="uniFE92" unicode="&#x628;" horiz-adv-x="375" arabic-form="medial" 
d="M-14 14v101q0 6 4 10.5t10 4.5h86q20 0 35 12t19 32l37 180l108 -19l-30 -151q-1 -6 -1 -11q0 -14 12 -28.5t34 -14.5h75q6 0 10 -4.5t4 -10.5v-101q0 -5 -4 -9.5t-10 -4.5h-76q-32 0 -64 17.5t-43 41.5q-7 -12 -20 -22.5t-28.5 -19t-33 -13t-34.5 -4.5h-76q-14 0 -14 14
zM249 -121v-115h-115v115h115z" />
    <glyph glyph-name="uniFE94" unicode="&#x629;" horiz-adv-x="525" arabic-form="final" 
d="M60 265q0 31 10 59.5t28 51.5t42.5 40t54.5 24l132 32v75h110v-363q0 -22 17.5 -38t40.5 -16h30q5 0 9.5 -4t4.5 -10v-102q0 -6 -4.5 -10t-9.5 -4h-30q-51 0 -87 25t-59 67q-11 -8 -30 -12.5t-35 -4.5h-98q-26 0 -49 10t-40 27t-27 40t-10 49v64zM170 205h157v149
l-102 -25q-25 -6 -40 -26t-15 -46v-52zM387 762v-115h-115v115h115zM105 762h115v-115h-115v115z" />
    <glyph glyph-name="uniFE96" unicode="&#x62a;" horiz-adv-x="899" arabic-form="final" 
d="M170 386v-174q0 -35 24 -58.5t59 -23.5h410q20 0 34 13.5t14 33.5v180h110v-179q0 -20 14 -34t34 -14h29q6 0 10.5 -4t4.5 -10v-102q0 -6 -4.5 -10t-10.5 -4h-10q-36 0 -67 15.5t-54 43.5q-25 -31 -56.5 -45t-67.5 -14h-380q-42 0 -79 16t-64.5 43.5t-43.5 64.5t-16 79
v183h110zM467 501h115v-115h-115v115zM300 501h115v-115h-115v115z" />
    <glyph glyph-name="uniFE97" unicode="&#x62a;" horiz-adv-x="378" arabic-form="initial" 
d="M-14 115q0 6 4 10.5t10 4.5h170q20 0 34 14.5t14 34.5v207h110v-207q0 -37 -14 -69.5t-38.5 -57t-57 -38.5t-69.5 -14h-149q-6 0 -10 4.5t-4 9.5v101zM213 477v115h115v-115h-115zM46 592h115v-115h-115v115z" />
    <glyph glyph-name="uniFE98" unicode="&#x62a;" horiz-adv-x="375" arabic-form="medial" 
d="M-10 126q4 4 10 4h86q20 0 35 12t19 32l37 180l108 -19l-30 -151q-1 -6 -1 -11q0 -14 12 -28.5t34 -14.5h75q6 0 10 -4.5t4 -10.5v-101q0 -5 -4 -9.5t-10 -4.5h-76q-32 0 -64 17.5t-43 41.5q-7 -12 -20 -22.5t-28.5 -19t-33 -13t-34.5 -4.5h-76q-14 0 -14 14v101
q0 6 4 11zM204 561h115v-115h-115v115zM37 446v115h115v-115h-115z" />
    <glyph glyph-name="uniFE9A" unicode="&#x62b;" horiz-adv-x="898" arabic-form="final" 
d="M170 386v-174q0 -35 24 -58.5t59 -23.5h410q20 0 34 13.5t14 33.5v180h110v-179q0 -20 14 -34t34 -14h29q6 0 10.5 -4t4.5 -10v-102q0 -6 -4.5 -10t-10.5 -4h-10q-36 0 -67 15.5t-54 43.5q-25 -31 -56.5 -45t-67.5 -14h-380q-42 0 -79 16t-64.5 43.5t-43.5 64.5t-16 79
v183h110zM415 501v-115h-115v115h115zM382 653h115v-115h-115v115zM467 501h115v-115h-115v115z" />
    <glyph glyph-name="uniFE9B" unicode="&#x62b;" horiz-adv-x="378" arabic-form="initial" 
d="M-14 115q0 6 4 10.5t10 4.5h170q20 0 34 14.5t14 34.5v207h110v-207q0 -37 -14 -69.5t-38.5 -57t-57 -38.5t-69.5 -14h-149q-6 0 -10 4.5t-4 9.5v101zM45 592h115v-115h-115v115zM242 744v-115h-115v115h115zM212 592h115v-115h-115v115z" />
    <glyph glyph-name="uniFE9C" unicode="&#x62b;" horiz-adv-x="375" arabic-form="medial" 
d="M-10 126q4 4 10 4h86q20 0 35 12t19 32l37 180l108 -19l-30 -151q-1 -6 -1 -11q0 -14 12 -28.5t34 -14.5h75q6 0 10 -4.5t4 -10.5v-101q0 -5 -4 -9.5t-10 -4.5h-76q-32 0 -64 17.5t-43 41.5q-7 -12 -20 -22.5t-28.5 -19t-33 -13t-34.5 -4.5h-76q-14 0 -14 14v101
q0 6 4 11zM36 448v115h115v-115h-115zM233 715v-115h-115v115h115zM203 448v115h115v-115h-115z" />
    <glyph glyph-name="uniFE9E" unicode="&#x62c;" horiz-adv-x="701" arabic-form="final" 
d="M86 354q15 49 55 76t85 27q20 0 39 -6l386 -116l-31 -103l-66 15q-8 2 -17.5 2t-17.5 -2v-68q0 -20 14.5 -34.5t34.5 -14.5h133q14 0 14 -14v-102q0 -5 -4 -9.5t-10 -4.5h-115q-37 0 -67.5 13.5t-52.5 36.5t-34.5 53.5t-12.5 64.5v10l-168 -123q-26 -19 -39.5 -46.5
t-13.5 -59.5q0 -30 11 -56t30.5 -45.5t45.5 -30.5t56 -11h260v-130h-259q-55 0 -103.5 21t-84.5 56.5t-56.5 83t-20.5 100.5q0 59 25.5 109t70.5 82q20 14 46.5 34t54.5 40t53.5 39t42.5 32l36 24l-183 54q-5 2 -10 2q-14 0 -19 -17l-34 -100l-100 27zM313 -95v115h115v-115
h-115z" />
    <glyph glyph-name="uniFE9F" unicode="&#x62c;" horiz-adv-x="685" arabic-form="initial" 
d="M-10 125q5 5 11 5h179q42 0 83 13.5t70 44.5l67 71q4 4 5 4l-210 63q-4 1 -8 1q-5 0 -11 -3.5t-10 -12.5l-38 -100l-96 26l26 92q7 25 21.5 44.5t33 32.5t40.5 19.5t44 6.5q21 0 40 -6l398 -119l-33 -103l-47 14q-11 2 -21 2t-21 -4t-26 -19l-115 -114q-43 -43 -100 -63
t-117 -20h-154q-15 0 -15 14v101q0 5 4 10zM277 -121h115v-115h-115v115z" />
    <glyph glyph-name="uniFEA0" unicode="&#x62c;" horiz-adv-x="685" arabic-form="medial" 
d="M-10 125q4 5 9 5h181q42 0 83 13.5t70 44.5l67 71q4 4 5 4l-210 63q-4 1 -8 1q-5 0 -11 -3.5t-10 -12.5l-38 -100l-96 26l26 92q7 25 21.5 44.5t33 32.5t40.5 19.5t44 6.5q21 0 40 -6l398 -119l-33 -103l-47 14q-11 3 -20 3q-5 0 -12.5 -1.5t-17.5 -7.5v-34q0 -20 14 -34
t34 -14h133q14 0 14 -14v-102q0 -14 -14 -14h-115q-60 0 -101.5 34.5t-57.5 88.5l-40 -40q-43 -43 -100 -63t-117 -20h-154q-15 0 -15 14v101q0 5 4 10zM276 -121h115v-115h-115v115z" />
    <glyph glyph-name="uniFEA2" unicode="&#x62d;" horiz-adv-x="701" arabic-form="final" 
d="M86 354q15 49 55 76t85 27q20 0 39 -6l386 -116l-31 -103l-66 15q-8 2 -17.5 2t-17.5 -2v-68q0 -20 14.5 -34.5t34.5 -14.5h133q14 0 14 -14v-102q0 -5 -4 -9.5t-10 -4.5h-115q-37 0 -67.5 13.5t-52.5 36.5t-34.5 53.5t-12.5 64.5v10l-168 -123q-26 -19 -39.5 -46.5
t-13.5 -59.5q0 -30 11 -56t30.5 -45.5t45.5 -30.5t56 -11h260v-130h-259q-55 0 -103.5 21t-84.5 56.5t-56.5 83t-20.5 100.5q0 59 25.5 109t70.5 82q20 14 46.5 34t54.5 40t53.5 39t42.5 32l36 24l-183 54q-5 2 -10 2q-14 0 -19 -17l-34 -100l-100 27z" />
    <glyph glyph-name="uniFEA3" unicode="&#x62d;" horiz-adv-x="684" arabic-form="initial" 
d="M-10 125q5 5 10 5h179q42 0 83 13.5t70 44.5l67 71q4 4 5 4l-210 63q-4 1 -8 1q-5 0 -11 -3.5t-10 -12.5l-38 -100l-96 26l26 92q7 25 21.5 44.5t33 32.5t40.5 19.5t44 6.5q21 0 40 -6l398 -119l-33 -103l-47 14q-11 2 -21 2t-21 -4t-26 -19l-115 -114q-43 -43 -100 -63
t-117 -20h-154q-14 0 -14 14v101q0 5 4 10z" />
    <glyph glyph-name="uniFEA4" unicode="&#x62d;" horiz-adv-x="685" arabic-form="medial" 
d="M-10 125q5 5 10 5h179q42 0 83 13.5t70 44.5l67 71q4 4 5 4l-210 63q-4 1 -8 1q-5 0 -11 -3.5t-10 -12.5l-38 -100l-96 26l26 92q7 25 21.5 44.5t33 32.5t40.5 19.5t44 6.5q21 0 40 -6l398 -119l-33 -103l-47 14q-11 3 -20 3q-5 0 -12.5 -1.5t-17.5 -7.5v-34
q0 -20 14 -34t34 -14h133q14 0 14 -14v-102q0 -14 -14 -14h-115q-60 0 -101.5 34.5t-57.5 88.5l-40 -40q-43 -43 -100 -63t-117 -20h-154q-14 0 -14 14v101q0 5 4 10z" />
    <glyph glyph-name="uniFEA6" unicode="&#x62e;" horiz-adv-x="701" arabic-form="final" 
d="M86 354q15 49 55 76t85 27q20 0 39 -6l386 -116l-31 -103l-66 15q-8 2 -17.5 2t-17.5 -2v-68q0 -20 14.5 -34.5t34.5 -14.5h133q14 0 14 -14v-102q0 -5 -4 -9.5t-10 -4.5h-115q-37 0 -67.5 13.5t-52.5 36.5t-34.5 53.5t-12.5 64.5v10l-168 -123q-26 -19 -39.5 -46.5
t-13.5 -59.5q0 -30 11 -56t30.5 -45.5t45.5 -30.5t56 -11h260v-130h-259q-55 0 -103.5 21t-84.5 56.5t-56.5 83t-20.5 100.5q0 59 25.5 109t70.5 82q20 14 46.5 34t54.5 40t53.5 39t42.5 32l36 24l-183 54q-5 2 -10 2q-14 0 -19 -17l-34 -100l-100 27zM261 663v-115h-115
v115h115z" />
    <glyph glyph-name="uniFEA7" unicode="&#x62e;" horiz-adv-x="684" arabic-form="initial" 
d="M-10 125q5 5 11 5h179q42 0 83 13.5t70 44.5l67 71q4 4 5 4l-210 63q-4 1 -8 1q-5 0 -11 -3.5t-10 -12.5l-38 -100l-96 26l26 92q7 25 21.5 44.5t33 32.5t40.5 19.5t44 6.5q21 0 40 -6l398 -119l-33 -103l-47 14q-11 2 -21 2t-21 -4t-26 -19l-115 -114q-43 -43 -100 -63
t-117 -20h-154q-15 0 -15 14v101q0 5 4 10zM153 638h115v-115h-115v115z" />
    <glyph glyph-name="uniFEA8" unicode="&#x62e;" horiz-adv-x="685" arabic-form="medial" 
d="M-10 125q4 5 9 5h181q42 0 83 13.5t70 44.5l67 71q4 4 5 4l-210 63q-4 1 -8 1q-5 0 -11 -3.5t-10 -12.5l-38 -100l-96 26l26 92q7 25 21.5 44.5t33 32.5t40.5 19.5t44 6.5q21 0 40 -6l398 -119l-33 -103l-47 14q-11 3 -20 3q-5 0 -12.5 -1.5t-17.5 -7.5v-34q0 -20 14 -34
t34 -14h133q14 0 14 -14v-102q0 -14 -14 -14h-115q-60 0 -101.5 34.5t-57.5 88.5l-40 -40q-43 -43 -100 -63t-117 -20h-154q-15 0 -15 14v101q0 5 4 10zM268 638v-115h-115v115h115z" />
    <glyph glyph-name="uniFEAA" unicode="&#x62f;" horiz-adv-x="592" arabic-form="final" 
d="M60 133v130h94v-110q0 -10 7 -16.5t16 -6.5h147q15 0 28.5 6.5t22.5 17t11.5 20.5t2.5 16q0 8 -2 15l-80 289l104 38l102 -363q5 -17 19 -28t32 -11h28q5 0 9.5 -4.5t4.5 -10.5v-101q0 -5 -4 -9.5t-10 -4.5h-20q-40 0 -71 16t-51 36q-24 -23 -56.5 -37.5t-70.5 -14.5
h-131q-27 0 -51 10.5t-42 28.5t-28.5 42.5t-10.5 51.5z" />
    <glyph glyph-name="uniFEAC" unicode="&#x630;" horiz-adv-x="592" arabic-form="final" 
d="M60 133v130h94v-110q0 -10 7 -16.5t16 -6.5h147q15 0 28.5 6.5t22.5 17t11.5 20.5t2.5 16q0 8 -2 15l-80 289l104 38l102 -363q5 -17 19 -28t32 -11h28q5 0 9.5 -4.5t4.5 -10.5v-101q0 -5 -4 -9.5t-10 -4.5h-20q-40 0 -71 16t-51 36q-24 -23 -56.5 -37.5t-70.5 -14.5
h-131q-27 0 -51 10.5t-42 28.5t-28.5 42.5t-10.5 51.5zM280 738h115v-115h-115v115z" />
    <glyph glyph-name="uniFEAE" unicode="&#x631;" horiz-adv-x="418" arabic-form="final" 
d="M-40 -151l144 47q38 12 60.5 44.5t22.5 71.5v346h110v-187q0 -18 15 -29.5t33 -11.5h73q14 0 14 -14v-102q0 -14 -14 -14h-55q-17 0 -36 6t-30 25v-18q0 -38 -12.5 -72.5t-34.5 -63.5t-52 -50.5t-66 -33.5l-138 -47z" />
    <glyph glyph-name="uniFEB0" unicode="&#x632;" horiz-adv-x="431" arabic-form="final" 
d="M104 -104q38 12 60.5 44.5t22.5 71.5v346h110v-187q0 -18 15 -29.5t33 -11.5h86q14 0 14 -14v-102q0 -14 -14 -14h-68q-17 0 -36 6t-30 25v-18q0 -38 -12.5 -72.5t-34.5 -63.5t-52 -50.5t-66 -33.5l-138 -47l-34 103zM182 564h115v-115h-115v115z" />
    <glyph glyph-name="uniFEB2" unicode="&#x633;" horiz-adv-x="1224" arabic-form="final" 
d="M60 49v292h110v-276q0 -23 8.5 -43t23.5 -35t35 -23.5t43 -8.5h179q38 0 64 26t26 64v313h110v-182q0 -19 14.5 -32.5t33.5 -13.5h29q20 0 35 12t19 32l36 181l108 -20l-30 -151q-1 -6 -1 -11q0 -15 12.5 -29.5t33.5 -14.5h27q20 0 34 13.5t14 33.5v209h110v-208
q0 -20 14 -33.5t34 -13.5h42q14 0 14 -14v-102q0 -14 -14 -14h-24q-35 0 -66.5 14t-55.5 45q-24 -31 -58.5 -45.5t-70.5 -14.5q-32 0 -60 14.5t-48 45.5q-23 -32 -51 -45.5t-62 -13.5q-17 0 -36.5 5.5t-33.5 25.5v-26q0 -38 -16 -70.5t-44 -57t-64.5 -38.5t-75.5 -14h-174
q-46 0 -87 17.5t-71.5 48t-48 71.5t-17.5 87z" />
    <glyph glyph-name="uniFEB3" unicode="&#x633;" horiz-adv-x="729" arabic-form="initial" 
d="M-10 126q5 4 10 4h46q20 0 34 15t14 35v178h110v-179q0 -20 14 -34.5t34 -14.5h29q20 0 35 12t19 32l37 181l108 -20l-30 -150q-1 -5 -1 -11q0 -14 12.5 -29t33.5 -15h74v255h110v-263q0 -25 -9.5 -47.5t-26 -39t-39 -26t-47.5 -9.5h-62q-32 0 -60 14t-48 46
q-23 -32 -53 -46t-63 -14q-36 0 -67.5 14.5t-54.5 44.5q-24 -30 -55.5 -44.5t-67.5 -14.5h-26q-14 0 -14 14v101q0 6 4 11z" />
    <glyph glyph-name="uniFEB4" unicode="&#x633;" horiz-adv-x="764" arabic-form="medial" 
d="M-14 115q0 6 4.5 10.5t9.5 4.5h41q20 1 34 15t14 34v179h110v-181q0 -18 15 -32.5t32 -14.5h32q20 0 35 12.5t19 32.5l35 181l108 -20l-30 -152q-1 -5 -1 -10q0 -15 12.5 -29.5t33.5 -14.5h28q20 0 34 13.5t14 33.5v207h110v-206q0 -20 14 -34t34 -14h40q6 0 10 -4.5
t4 -9.5v-101q0 -6 -3.5 -10.5t-10.5 -4.5h-22q-36 0 -67 14t-54 45q-24 -31 -56 -45t-68 -14q-32 0 -63 13.5t-51 45.5q-23 -32 -53 -45.5t-63 -13.5q-36 0 -67 14t-55 45q-24 -31 -55.5 -45t-67.5 -14h-22q-5 0 -9.5 4.5t-4.5 9.5v101z" />
    <glyph glyph-name="uniFEB6" unicode="&#x634;" horiz-adv-x="1224" arabic-form="final" 
d="M60 49v292h110v-276q0 -23 8.5 -43t23.5 -35t35 -23.5t43 -8.5h179q38 0 64 26t26 64v313h110v-182q0 -19 14.5 -32.5t33.5 -13.5h29q20 0 35 12t19 32l36 181l108 -20l-30 -151q-1 -6 -1 -11q0 -15 12.5 -29.5t33.5 -14.5h27q20 0 34 13.5t14 33.5v209h110v-208
q0 -20 14 -33.5t34 -13.5h42q14 0 14 -14v-102q0 -14 -14 -14h-24q-35 0 -66.5 14t-55.5 45q-24 -31 -58.5 -45.5t-70.5 -14.5q-32 0 -60 14.5t-48 45.5q-23 -32 -51 -45.5t-62 -13.5q-17 0 -36.5 5.5t-33.5 25.5v-26q0 -38 -16 -70.5t-44 -57t-64.5 -38.5t-75.5 -14h-174
q-46 0 -87 17.5t-71.5 48t-48 71.5t-17.5 87zM797 561v-115h-115v115h115zM764 598v115h115v-115h-115zM849 446v115h115v-115h-115z" />
    <glyph glyph-name="uniFEB7" unicode="&#x634;" horiz-adv-x="729" arabic-form="initial" 
d="M-14 14v101q0 6 4.5 10.5t9.5 4.5h46q20 0 34 15t14 35v178h110v-179q0 -20 14 -34.5t34 -14.5h29q20 0 35 12t19 32l37 181l108 -20l-30 -150q-1 -5 -1 -11q0 -14 12.5 -29t33.5 -15h74v255h110v-263q0 -25 -9.5 -47.5t-26 -39t-39 -26t-47.5 -9.5h-62q-32 0 -60 14
t-48 46q-23 -32 -53 -46t-63 -14q-36 0 -67.5 14.5t-54.5 44.5q-24 -30 -55.5 -44.5t-67.5 -14.5h-26q-14 0 -14 14zM229 446v115h115v-115h-115zM311 713h115v-115h-115v115zM396 446v115h115v-115h-115z" />
    <glyph glyph-name="uniFEB8" unicode="&#x634;" horiz-adv-x="770" arabic-form="medial" 
d="M-14 115q0 6 4.5 10.5t9.5 4.5h45q20 0 34 14.5t14 34.5v179h110v-187q0 -18 15 -29.5t32 -11.5h32q20 0 35 12.5t19 32.5l35 181l109 -20l-30 -152q-1 -5 -1 -10q0 -15 12.5 -29.5t33.5 -14.5h27q20 0 34 13.5t14 33.5v207h110v-207q0 -20 14 -33.5t34 -13.5h42
q6 0 10 -4.5t4 -9.5v-101q0 -6 -3.5 -10.5t-10.5 -4.5h-24q-36 0 -67 14t-54 45q-24 -31 -56 -45t-67 -14q-33 0 -64 13.5t-51 45.5q-23 -32 -53 -45.5t-63 -13.5q-36 0 -67 14t-55 45q-24 -31 -55.5 -45t-67.5 -14h-26q-5 0 -9.5 4.5t-4.5 9.5v101zM344 560v-115h-115v115
h115zM311 597v115h115v-115h-115zM396 560h115v-115h-115v115z" />
    <glyph glyph-name="uniFEBA" unicode="&#x635;" horiz-adv-x="1284" arabic-form="final" 
d="M60 50v292h110v-276q0 -23 8.5 -43t23.5 -35t35 -23.5t43 -8.5h179q37 0 63.5 26t26.5 63v313h110v-133q0 -13 2 -21t4 -13q2 -6 5 -9l138 148q32 34 75 53t91 19h61q34 0 64 -13t52.5 -35t35.5 -52t13 -64v-60q0 -20 14 -34t34 -14h36q6 0 10 -4.5t4 -10.5v-101
q0 -6 -4.5 -10t-9.5 -4h-18q-36 0 -67 13t-54 36q-24 -23 -56 -36t-68 -13h-240q-9 0 -24 1t-33 5.5t-35.5 12.5t-30.5 21v-34q0 -38 -16.5 -71t-44 -57t-63.5 -38t-76 -14h-174q-46 0 -87 17.5t-71.5 48t-48 71.5t-17.5 87zM1042 130q20 0 34 14t14 34v51q0 20 -14.5 34
t-34.5 14h-84q-51 0 -87 -38l-103 -109h275z" />
    <glyph glyph-name="uniFEBB" unicode="&#x635;" horiz-adv-x="801" arabic-form="initial" 
d="M-14 14v100q0 6 4.5 11t9.5 5h53q20 0 34 14t14 34v164h110v-117q0 -26 5.5 -34t5.5 -9l138 149q32 35 75 53.5t90 18.5h62q34 0 64 -13t52 -35.5t35 -52t13 -63.5v-60q0 -37 -14 -69.5t-38 -57t-56.5 -38.5t-69.5 -14h-296q-36 0 -67 14t-54 45q-24 -31 -56 -45t-68 -14
h-32q-6 0 -10 4.5t-4 9.5zM319 130h274q20 0 34 14.5t14 34.5v51q0 20 -14 34t-34 14h-85q-52 0 -87 -38z" />
    <glyph glyph-name="uniFEBC" unicode="&#x635;" horiz-adv-x="838" arabic-form="medial" 
d="M-14 14v101q0 6 4.5 10.5t9.5 4.5h53q20 0 34 14t14 34v164h110v-117q0 -26 5.5 -34t5.5 -9l138 149q32 35 75 53.5t91 18.5h61q34 0 64 -13t52.5 -35.5t35.5 -52t13 -63.5v-63q0 -19 14 -32.5t34 -13.5h38q6 0 10 -4.5t4 -9.5v-101q0 -6 -4 -10.5t-10 -4.5h-20
q-36 0 -67 14.5t-54 44.5q-25 -30 -56.5 -44.5t-67.5 -14.5h-295q-36 0 -67.5 14t-54.5 45q-24 -31 -56 -45t-67 -14h-33q-14 0 -14 14zM320 130h274q20 0 34 14.5t14 34.5v51q0 20 -14.5 34t-34.5 14h-84q-52 0 -87 -38z" />
    <glyph glyph-name="uniFEBE" unicode="&#x636;" horiz-adv-x="1284" arabic-form="final" 
d="M170 342v-276q0 -23 8.5 -43t23.5 -35t35 -23.5t43 -8.5h179q37 0 63.5 26t26.5 63v313h110v-133q0 -13 2 -21t4 -13q2 -6 5 -9l138 148q32 34 75 53t91 19h61q34 0 64 -13t52.5 -35t35.5 -52t13 -64v-60q0 -20 14 -34t34 -14h36q6 0 10 -4.5t4 -10.5v-101q0 -6 -4.5 -10
t-9.5 -4h-18q-36 0 -67 13t-54 36q-24 -23 -56 -36t-68 -13h-240q-9 0 -24 1t-33 5.5t-35.5 12.5t-30.5 21v-34q0 -38 -16.5 -71t-44 -57t-63.5 -38t-76 -14h-174q-46 0 -87 17.5t-71.5 48t-48 71.5t-17.5 87v292h110zM767 130h275q20 0 34 14t14 34v51q0 20 -14.5 34
t-34.5 14h-84q-51 0 -87 -38zM902 493v115h115v-115h-115z" />
    <glyph glyph-name="uniFEBF" unicode="&#x636;" horiz-adv-x="801" arabic-form="initial" 
d="M-14 114q0 6 4.5 11t9.5 5h53q20 0 34 14t14 34v164h110v-117q0 -26 5.5 -34t5.5 -9l138 149q32 35 75 53.5t90 18.5h62q34 0 64 -13t52 -35.5t35 -52t13 -63.5v-60q0 -37 -14 -69.5t-38 -57t-56.5 -38.5t-69.5 -14h-296q-36 0 -67 14t-54 45q-24 -31 -56 -45t-68 -14
h-32q-6 0 -10 4.5t-4 9.5v100zM593 130q20 0 34 14.5t14 34.5v51q0 20 -14 34t-34 14h-85q-52 0 -87 -38l-102 -110h274zM487 494v115h115v-115h-115z" />
    <glyph glyph-name="uniFEC0" unicode="&#x636;" horiz-adv-x="838" arabic-form="medial" 
d="M-10 126q5 4 10 4h53q20 0 34 14t14 34v164h110v-117q0 -26 5.5 -34t5.5 -9l138 149q32 35 75 53.5t91 18.5h61q34 0 64 -13t52.5 -35.5t35.5 -52t13 -63.5v-63q0 -19 14 -32.5t34 -13.5h38q6 0 10 -4.5t4 -9.5v-101q0 -6 -4 -10.5t-10 -4.5h-20q-36 0 -67 14.5t-54 44.5
q-25 -30 -56.5 -44.5t-67.5 -14.5h-295q-36 0 -67.5 14t-54.5 45q-24 -31 -56 -45t-67 -14h-33q-14 0 -14 14v101q0 6 4 11zM320 130h274q20 0 34 14.5t14 34.5v51q0 20 -14.5 34t-34.5 14h-84q-52 0 -87 -38zM603 609v-115h-115v115h115z" />
    <glyph glyph-name="uniFEC2" unicode="&#x637;" horiz-adv-x="783" arabic-form="final" 
d="M115 130l105 114v441h110v-282q0 -10 -2 -20.5t-4 -18.5q-3 -9 -7 -18q2 1 6 4.5t10 8.5q26 20 61 32t73 12h62q34 0 64 -13t52 -35t35 -52t13 -64v-62q0 -20 14 -33.5t34 -13.5h42q14 0 14 -14v-102q0 -14 -14 -14h-23q-36 0 -67.5 14.5t-54.5 44.5q-24 -30 -56 -44.5
t-68 -14.5h-454v130h55zM535 130q20 0 34 14t14 34v52q0 20 -14 34t-34 14h-85q-51 0 -87 -38l-102 -110h274z" />
    <glyph glyph-name="uniFEC3" unicode="&#x637;" horiz-adv-x="693" arabic-form="initial" 
d="M-14 116q0 14 14 14h65l105 113v442h110v-282q0 -10 -2 -20.5t-4 -18.5q-3 -9 -7 -18q2 1 5 4l5 5q62 48 140 48h62q34 0 64 -13t52 -35t35 -52t13 -64v-60q0 -37 -14 -69.5t-38.5 -57t-57 -38.5t-69.5 -14h-464q-6 0 -10 4.5t-4 9.5v102zM485 130q20 0 34 14t14 34v52
q0 20 -14 34t-34 14h-85q-51 0 -87 -38l-101 -110h273z" />
    <glyph glyph-name="uniFEC4" unicode="&#x637;" horiz-adv-x="733" arabic-form="medial" 
d="M-14 116q0 14 14 14h65l105 114v441h110v-282q0 -10 -2 -20.5t-4 -18.5q-3 -9 -7 -18q2 1 6 4.5t10 8.5q26 20 61 32t73 12h62q34 0 64 -13t52 -35t35 -52t13 -64v-62q0 -20 14 -33.5t34 -13.5h42q14 0 14 -14v-102q0 -14 -14 -14h-23q-36 0 -67.5 14.5t-54.5 45.5
q-24 -31 -56 -45.5t-68 -14.5h-464q-6 0 -10 4.5t-4 10.5v101zM485 130q20 0 34 14t14 34v52q0 20 -14 34t-34 14h-85q-51 0 -87 -38l-102 -110h274z" />
    <glyph glyph-name="uniFEC6" unicode="&#x638;" horiz-adv-x="783" arabic-form="final" 
d="M60 0v130h55l105 114v441h110v-282q0 -10 -2 -20.5t-4 -18.5q-3 -9 -7 -18q2 1 6 4.5t10 8.5q26 20 61 32t73 12h62q34 0 64 -13t52 -35t35 -52t13 -64v-62q0 -20 14 -33.5t34 -13.5h42q14 0 14 -14v-102q0 -14 -14 -14h-23q-36 0 -67.5 14.5t-54.5 44.5
q-24 -30 -56 -44.5t-68 -14.5h-454zM261 130h274q20 0 34 14t14 34v52q0 20 -14 34t-34 14h-85q-51 0 -87 -38zM412 609h115v-115h-115v115z" />
    <glyph glyph-name="uniFEC7" unicode="&#x638;" horiz-adv-x="693" arabic-form="initial" 
d="M-14 116q0 14 14 14h65l105 113v442h110v-282q0 -10 -2 -20.5t-4 -18.5q-3 -9 -7 -18q2 1 5 4l5 5q62 48 140 48h62q34 0 64 -13t52 -35t35 -52t13 -64v-60q0 -37 -14 -69.5t-38.5 -57t-57 -38.5t-69.5 -14h-464q-6 0 -10 4.5t-4 9.5v102zM485 130q20 1 34 15t14 34v51
q0 20 -14 34t-34 14h-85q-51 0 -87 -38l-101 -110h273zM490 609v-115h-115v115h115z" />
    <glyph glyph-name="uniFEC8" unicode="&#x638;" horiz-adv-x="733" arabic-form="medial" 
d="M-14 116q0 14 14 14h65l105 114v441h110v-282q0 -10 -2 -20.5t-4 -18.5q-3 -9 -7 -18q2 1 6 4.5t10 8.5q26 20 61 32t73 12h62q34 0 64 -13t52 -35t35 -52t13 -64v-62q0 -20 14 -33.5t34 -13.5h42q14 0 14 -14v-102q0 -14 -14 -14h-23q-36 0 -67.5 14.5t-54.5 45.5
q-24 -31 -56 -45.5t-68 -14.5h-464q-6 0 -10 4.5t-4 10.5v101zM485 130q20 0 34 14t14 34v52q0 20 -14 34t-34 14h-85q-51 0 -87 -38l-102 -110h274zM375 493v115h115v-115h-115z" />
    <glyph glyph-name="uniFECA" unicode="&#x639;" horiz-adv-x="625" arabic-form="final" 
d="M84 -29q24 51 69 83l68 52l-126 86v140q0 47 27.5 75.5t75.5 28.5h189q32 0 59.5 -12t48 -33t32.5 -49t12 -60v-25q0 -28 -12.5 -53.5t-35.5 -42.5l-39 -27q10 -3 21.5 -3.5t23.5 -0.5h128q14 0 14 -16v-101q0 -5 -4 -9t-10 -4h-129q-47 0 -91 10.5t-86 30.5l-86 -61
q-25 -17 -38.5 -46t-13.5 -61q0 -29 11 -55t30.5 -45t45.5 -30t56 -11h259v-130h-258q-55 0 -103.5 21t-84.5 56.5t-56.5 83t-20.5 101.5q0 57 24 107zM205 260l122 -76l104 67v18q0 17 -12.5 29t-31.5 12h-182v-50z" />
    <glyph glyph-name="uniFECB" unicode="&#x639;" horiz-adv-x="495" arabic-form="initial" 
d="M-11 126q4 4 11 4h100q-5 7 -8.5 14.5t-5.5 15.5l-19 99q-3 15 -3 29q0 20 8 46t29.5 51.5t52.5 40.5t67 15h178v-125h-183q-19 0 -29.5 -12.5t-10.5 -26.5q0 -4 1 -9l28 -135l222 24l18 -119l-170 -23q-117 -15 -232 -15h-43q-12 0 -14 14v101q0 6 3 11z" />
    <glyph glyph-name="uniFECC" unicode="&#x639;" horiz-adv-x="638" arabic-form="medial" 
d="M-14 115q0 6 4 10.5t10 4.5h158q10 0 19 0.5t15 1.5h6l-88 60v139q0 48 28 76.5t76 28.5h189q32 0 59.5 -12t48.5 -33t33 -48.5t12 -59.5v-26q0 -29 -13 -54.5t-36 -41.5l-41 -28q2 0 21 -1.5t45 -1.5h106q7 0 10.5 -4.5t3.5 -10.5v-101q0 -5 -4.5 -9.5t-9.5 -4.5h-127
q-97 0 -180 44q-85 -44 -181 -44h-150q-6 0 -10 4.5t-4 9.5v101zM220 311v-50q8 -5 26.5 -17.5t38.5 -26.5q24 -16 51 -35l109 69v18q0 17 -12.5 29.5t-30.5 12.5h-182z" />
    <glyph glyph-name="uniFECE" unicode="&#x63a;" horiz-adv-x="625" arabic-form="final" 
d="M60 -136q0 57 24 107.5t69 82.5l68 52l-126 86v140q0 47 27.5 75.5t75.5 28.5h189q32 0 59.5 -12t48 -33t32.5 -49t12 -60v-25q0 -28 -12.5 -53.5t-35.5 -42.5l-39 -27q10 -3 21.5 -3.5t23.5 -0.5h128q14 0 14 -16v-101q0 -5 -4 -9t-10 -4h-129q-47 0 -91 10.5t-86 30.5
l-86 -61q-25 -17 -38.5 -46t-13.5 -61q0 -29 11 -55t30.5 -45t45.5 -30t56 -11h259v-130h-258q-55 0 -103.5 21t-84.5 56.5t-56.5 83t-20.5 101.5zM205 310v-50l122 -76l104 67v18q0 17 -12.5 29t-31.5 12h-182zM375 641v-115h-115v115h115z" />
    <glyph glyph-name="uniFECF" unicode="&#x63a;" horiz-adv-x="495" arabic-form="initial" 
d="M-11 126q4 4 11 4h100q-5 7 -8.5 14.5t-5.5 15.5l-19 99q-3 15 -3 29q0 20 8 46t29.5 51.5t52.5 40.5t67 15h178v-125h-183q-19 0 -29.5 -12.5t-10.5 -26.5q0 -4 1 -9l28 -135l222 24l18 -119l-170 -23q-117 -15 -232 -15h-43q-12 0 -14 14v101q0 6 3 11zM309 643v-115
h-115v115h115z" />
    <glyph glyph-name="uniFED0" unicode="&#x63a;" horiz-adv-x="638" arabic-form="medial" 
d="M-14 14v101q0 6 4 10.5t10 4.5h138q21 0 40.5 0.5t19.5 1.5l-88 60v139q0 48 28 76.5t76 28.5h189q32 0 59.5 -12t48.5 -33t33 -48.5t12 -59.5v-26q0 -29 -13 -54.5t-36 -41.5l-41 -28q5 -1 15 -1q8 -1 20.5 -1.5t30.5 -0.5h106q8 0 11 -4.5t3 -10.5v-101q0 -5 -4.5 -9.5
t-9.5 -4.5h-127q-97 0 -180 44q-85 -44 -181 -44h-150q-6 0 -10 4.5t-4 9.5zM220 311v-50q8 -5 26.5 -17.5t38.5 -26.5q24 -16 51 -35l109 69v18q0 17 -12.5 29.5t-30.5 12.5h-182zM255 643h115v-115h-115v115z" />
    <glyph glyph-name="uniFED2" unicode="&#x641;" horiz-adv-x="945" arabic-form="final" 
d="M170 386v-173q0 -35 24 -59t59 -24h294q-33 47 -33 97v29q0 38 16 72.5t42 60.5t60.5 41.5t70.5 15.5h16q38 0 71.5 -14.5t58.5 -39.5t39.5 -58.5t14.5 -71.5v-35q0 -50 -33 -97h75q6 0 10 -4.5t4 -10.5v-101q0 -6 -4.5 -10t-9.5 -4h-100q-18 0 -33 1.5t-30 6t-32.5 12.5
t-40.5 21q-23 -13 -40.5 -21t-32.5 -12.5t-30 -6t-34 -1.5h-307q-42 0 -79.5 16t-65.5 43.5t-44 64.5t-16 79v183h110zM648 182q24 -20 61 -33q37 13 60.5 32.5t23.5 40.5v24q0 32 -21.5 53.5t-53.5 21.5h-19q-31 0 -53 -21.5t-22 -52.5v-25q0 -21 24 -40zM649 652h115v-115
h-115v115z" />
    <glyph glyph-name="uniFED3" unicode="&#x641;" horiz-adv-x="483" arabic-form="initial" 
d="M-14 15v101q0 5 3.5 9.5t10.5 4.5h275q20 0 34 14t14 34v21q-30 -11 -60 -11h-59q-37 0 -69 16t-53.5 42.5t-28.5 53t-7 46.5q0 16 3 32l15 80q5 28 19.5 51t34.5 40t45.5 26.5t53.5 9.5h54q34 0 63.5 -13t51.5 -35t34.5 -51.5t12.5 -62.5v-244q0 -37 -14 -69.5
t-38.5 -57t-57 -38.5t-69.5 -14h-254q-6 0 -10 4.5t-4 10.5zM164 330q9 -12 24 -12h135v104q0 16 -11 27t-27 11h-77q-14 0 -25 -9t-13 -23l-13 -71q-1 -3 -1 -7q0 -11 8 -20zM194 790h115v-115h-115v115z" />
    <glyph glyph-name="uniFED4" unicode="&#x641;" horiz-adv-x="490" arabic-form="medial" 
d="M-11 126q4 4 11 4h85q-32 46 -32 97v30q0 40 15.5 74.5t41 60t59 40t69.5 14.5h16q38 0 71.5 -14.5t58.5 -39.5t39.5 -58.5t14.5 -71.5v-35q0 -50 -33 -97h85q7 0 10.5 -4.5t3.5 -10.5v-101q0 -5 -4 -9.5t-10 -4.5h-110q-18 0 -33 1.5t-30.5 6t-32.5 12.5t-40 21
q-23 -13 -40 -21t-32 -12.5t-30 -6t-33 -1.5h-109q-14 0 -14 14v101q0 6 3 11zM159 247v-25q0 -21 23.5 -40t61.5 -33q37 14 60.5 33t23.5 40v25q0 31 -22 52.5t-53 21.5h-19q-31 0 -53 -21.5t-22 -52.5zM187 652h115v-115h-115v115z" />
    <glyph glyph-name="uniFED6" unicode="&#x642;" horiz-adv-x="740" arabic-form="final" 
d="M60 -1v264h110v-248q0 -23 8.5 -43t23.5 -35t35 -23.5t43 -8.5h179q38 0 64 23t26 57v25q-14 -5 -28.5 -7.5t-29.5 -2.5h-61q-37 0 -68.5 16t-53.5 42t-29 52.5t-7 46.5q0 16 3 32l15 81q6 27 20 50.5t34.5 40t45.5 26t53 9.5h54q34 0 63.5 -12.5t51.5 -34.5t34.5 -51.5
t12.5 -62.5v-105h81q6 0 10 -4.5t4 -10.5v-101q0 -5 -4 -9.5t-10 -4.5h-81v-24q0 -42 -16 -78.5t-43 -63.5t-63.5 -43t-78.5 -16h-175q-46 0 -86.5 17.5t-71 48t-48 71t-17.5 87.5zM390 142q9 -12 24 -12h135v103q0 15 -11 26t-27 11h-76q-14 0 -24.5 -8.5t-13.5 -22.5
l-14 -71q-1 -3 -1 -7q0 -11 8 -19zM485 488v115h115v-115h-115zM433 603v-115h-115v115h115z" />
    <glyph glyph-name="uniFED7" unicode="&#x642;" horiz-adv-x="483" arabic-form="initial" 
d="M-14 15v101q0 5 3.5 9.5t10.5 4.5h275q20 0 34 14t14 34v21q-30 -11 -60 -11h-59q-37 0 -69 16t-53.5 42.5t-28.5 53t-7 46.5q0 16 3 32l15 80q5 28 19.5 51t34.5 40t45.5 26.5t53.5 9.5h54q34 0 63.5 -13t51.5 -35t34.5 -51.5t12.5 -62.5v-244q0 -37 -14 -69.5
t-38.5 -57t-57 -38.5t-69.5 -14h-254q-6 0 -10 4.5t-4 10.5zM164 330q9 -12 24 -12h135v104q0 16 -11 27t-27 11h-77q-14 0 -25 -9t-13 -23l-13 -71q-1 -3 -1 -7q0 -11 8 -20zM380 789v-115h-115v115h115zM213 789v-115h-115v115h115z" />
    <glyph glyph-name="uniFED8" unicode="&#x642;" horiz-adv-x="490" arabic-form="medial" 
d="M-14 115q0 6 3.5 10.5t10.5 4.5h85q-32 46 -32 97v30q0 40 15.5 74.5t41 60t59 40t69.5 14.5h16q38 0 71.5 -14.5t58.5 -39.5t39.5 -58.5t14.5 -71.5v-35q0 -50 -33 -97h85q7 0 10.5 -4.5t3.5 -10.5v-101q0 -5 -4 -9.5t-10 -4.5h-110q-18 0 -33 1.5t-30.5 6t-32.5 12.5
t-40 21q-23 -13 -40 -21t-32 -12.5t-30 -6t-33 -1.5h-109q-6 0 -10 4.5t-4 9.5v101zM183 182q23 -19 61 -33q37 14 60.5 33t23.5 40v25q0 31 -22 52.5t-53 21.5h-19q-31 0 -53 -21.5t-22 -52.5v-25q0 -21 24 -40zM269 538v115h115v-115h-115zM217 653v-115h-115v115h115z
" />
    <glyph glyph-name="uniFEDA" unicode="&#x643;" horiz-adv-x="898" arabic-form="final" 
d="M170 386v-173q0 -35 24 -59t59 -24h410q20 0 34 14t14 34v537h110v-537q0 -20 14 -34t34 -14h29q14 0 14 -14v-102q0 -14 -14 -14h-10q-37 0 -68 13.5t-54 36.5q-24 -23 -56 -36.5t-68 -13.5h-379q-42 0 -79 16t-64.5 43.5t-43.5 64.5t-16 79v183h110zM280 394l71 31
q-14 0 -20 11q-2 3 -6.5 11t-8.5 16q-10 21 -10.5 32.5t-0.5 12.5q0 20 7.5 38t22 32.5t33.5 21.5l81 33l35 -84l-78 -32q-7 -4 -9.5 -9t-2.5 -8q0 -5 3 -10q2 -3 8 -14.5t10 -18.5l112 59l38 -79l-246 -125z" />
    <glyph glyph-name="uniFEDB" unicode="&#x643;" horiz-adv-x="402" arabic-form="initial" 
d="M-14 116q0 5 4 9.5t10 4.5h138q28 0 49 14.5t31 35t10 43.5q0 2 -0.5 15.5t-17.5 35.5l-171 231v79l339 171l49 -97l-274 -138l147 -183q27 -34 35 -66t8 -57q0 -12 -3 -37t-21 -59t-46 -60.5t-65.5 -42t-80.5 -15.5h-127q-6 0 -10 4.5t-4 10.5v101z" />
    <glyph glyph-name="uniFEDC" unicode="&#x643;" horiz-adv-x="514" arabic-form="medial" 
d="M-14 117q0 5 4.5 9.5t9.5 4.5h138q28 0 49 14t31 34.5t10 43.5q0 2 -0.5 15.5t-17.5 35.5l-171 231v79l339 171l49 -97l-274 -138l272 -351q14 -18 34 -28.5t43 -10.5h12q14 0 14 -14v-102q0 -5 -4 -9.5t-10 -4.5h-7q-41 0 -77 18.5t-60 52.5l-44 61q-12 -28 -32 -52
t-45.5 -42t-56 -28t-65.5 -10h-127q-6 0 -10 4.5t-4 10.5v102z" />
    <glyph glyph-name="uniFEDE" unicode="&#x644;" horiz-adv-x="770" arabic-form="final" 
d="M60 49v264l110 -1v-247q0 -23 9 -43t24 -35t35 -23.5t42 -8.5h180q38 0 64 26t26 63v641h110v-508q0 -20 14 -33.5t34 -13.5h62q6 0 10 -4.5t4 -9.5v-101q0 -6 -4 -10.5t-10 -4.5h-44q-21 0 -37 6t-30 25v-18q0 -30 -14 -63t-39.5 -61t-62.5 -46t-84 -18h-175
q-46 0 -87 17.5t-71.5 48t-48 71.5t-17.5 87z" />
    <glyph glyph-name="uniFEDF" unicode="&#x644;" horiz-adv-x="269" arabic-form="initial" 
d="M-14 14v102q0 14 14 14h61q20 0 34 14t14 34v507h110v-507q0 -37 -14 -69.5t-38 -56.5t-56.5 -38t-69.5 -14h-41q-5 0 -9.5 4t-4.5 10z" />
    <glyph glyph-name="uniFEE0" unicode="&#x644;" horiz-adv-x="333" arabic-form="medial" 
d="M0 130h64q20 0 34 14t14 34v507h110v-512q2 -18 15.5 -30.5t32.5 -12.5h63q5 0 9.5 -4t4.5 -10v-102q0 -6 -4.5 -10t-9.5 -4h-45q-35 0 -66.5 13t-54.5 36q-24 -23 -56 -36t-67 -13h-44q-14 0 -14 14v102q0 14 14 14z" />
    <glyph glyph-name="uniFEE2" unicode="&#x645;" horiz-adv-x="742" arabic-form="final" 
d="M60 224q0 37 14 69.5t38.5 57t57 38.5t69.5 14h237q34 0 64 -13t52.5 -35.5t35.5 -52t13 -63.5v-60q0 -20 14 -34.5t34 -14.5h53q14 0 14 -14v-102q0 -14 -14 -14h-35q-29 0 -55.5 9.5t-48.5 32.5q-17 -23 -38 -32.5t-46 -9.5h-116q-37 0 -68 15.5t-52 41t-28.5 52.5
t-7.5 47q0 15 3 30l17 92h-49q-20 0 -34 -14t-14 -34v-486h-110v480zM366 141q9 -11 24 -11h141v110q0 16 -11.5 27t-27.5 11h-112l-21 -111q-1 -3 -1 -7q0 -11 8 -19z" />
    <glyph glyph-name="uniFEE3" unicode="&#x645;" horiz-adv-x="528" arabic-form="initial" 
d="M0 131h32q20 0 34.5 12t18.5 32l20 103q5 27 19.5 50.5t34.5 40t45.5 26t53.5 9.5h56q34 0 64 -13t52 -35t35 -52t13 -64v-117q0 -25 -9.5 -47.5t-26 -39t-38.5 -26t-47 -9.5h-116q-30 0 -57 12.5t-49 44.5q-23 -32 -51 -44.5t-60 -12.5h-24q-14 0 -14 14v102q0 14 14 14
zM203 143q9 -12 24 -12h141v110q0 16 -11 27t-27 11h-81q-14 0 -24 -8.5t-13 -22.5l-16 -80q-1 -3 -1 -6q0 -11 8 -19z" />
    <glyph glyph-name="uniFEE4" unicode="&#x645;" horiz-adv-x="564" arabic-form="medial" 
d="M0 130h32q20 0 34.5 12t18.5 32l20 103q5 27 19.5 50.5t34.5 40t45.5 26t53.5 9.5h56q34 0 64 -13t52 -35t35 -52t13 -64v-61q0 -20 14 -34t34 -14h38q14 0 14 -14v-102q0 -6 -4.5 -10t-9.5 -4h-19q-29 0 -55.5 10t-48.5 33q-32 -43 -84 -43h-116q-30 0 -57 13t-49 45
q-23 -32 -51 -45t-60 -13h-24q-14 0 -14 14v102q0 14 14 14zM203 142q9 -12 24 -12h141v110q0 16 -11 27t-27 11h-81q-14 0 -24 -8.5t-13 -22.5l-16 -80q-1 -3 -1 -6q0 -11 8 -19z" />
    <glyph glyph-name="uniFEE6" unicode="&#x646;" horiz-adv-x="769" arabic-form="final" 
d="M60 48v293h110v-277q0 -23 8.5 -43t23.5 -35t35 -23.5t43 -8.5h179q38 0 64 26t26 64v313h110v-179q0 -20 14 -34t34 -14h62q6 0 10 -4.5t4 -10.5v-101q0 -5 -4 -9.5t-10 -4.5h-45q-33 0 -47 12t-19 19v-25q0 -38 -16.5 -71t-44 -58t-63.5 -39t-76 -14h-174
q-46 0 -87 17.5t-71.5 48t-48 71.5t-17.5 87zM302 472h115v-115h-115v115z" />
    <glyph glyph-name="uniFEE7" unicode="&#x646;" horiz-adv-x="378" arabic-form="initial" 
d="M-14 115q0 6 4 10.5t10 4.5h170q20 0 34 14.5t14 34.5v207h110v-207q0 -37 -14 -69.5t-38.5 -57t-57 -38.5t-69.5 -14h-149q-6 0 -10 4.5t-4 9.5v101zM213 592h115v-115h-115v115z" />
    <glyph glyph-name="uniFEE8" unicode="&#x646;" horiz-adv-x="375" arabic-form="medial" 
d="M-14 14v101q0 6 4 10.5t10 4.5h86q20 0 35 12t19 32l37 180l108 -19l-30 -151q-1 -6 -1 -11q0 -14 12 -28.5t34 -14.5h75q6 0 10 -4.5t4 -10.5v-101q0 -5 -4 -9.5t-10 -4.5h-76q-32 0 -64 17.5t-43 41.5q-7 -12 -20 -22.5t-28.5 -19t-33 -13t-34.5 -4.5h-76q-14 0 -14 14
zM150 561h115v-115h-115v115z" />
    <glyph glyph-name="uniFEEA" unicode="&#x647;" horiz-adv-x="525" arabic-form="final" 
d="M60 201v64q0 31 10 59.5t28 51.5t42.5 40t54.5 24l132 32v75h110v-363q0 -22 17.5 -38t40.5 -16h30q5 0 9.5 -4t4.5 -10v-102q0 -6 -4.5 -10t-9.5 -4h-30q-51 0 -87 25t-59 67q-11 -8 -30 -12.5t-35 -4.5h-98q-26 0 -49 10t-40 27t-27 40t-10 49zM170 257v-52h157v149
l-102 -25q-25 -6 -40 -26t-15 -46z" />
    <glyph glyph-name="uniFEEB" unicode="&#x647;" horiz-adv-x="758" arabic-form="initial" 
d="M0 130h92q-6 4 -8.5 12t-2.5 18t2 21l2 17l14 68q6 27 20 50.5t34 40t45.5 26t53.5 9.5h41q33 0 62.5 -13t51.5 -35t35 -51.5t13 -62.5v-52q0 -18 -4 -32t-5 -16h152v144q0 21 -12 37.5t-32 23.5l-358 111l30 114l347 -108q30 -9 55 -27t42.5 -42t27.5 -53t10 -61v-143
q0 -26 -10 -49t-27 -40t-40.5 -27t-49.5 -10h-161v73q-7 -20 -22.5 -34t-33 -22.5t-34.5 -12.5t-28 -4h-302q-14 0 -14 14v102q0 14 14 14zM198 142q10 -12 25 -12h122v110q0 15 -11 26t-27 11h-65q-14 0 -25 -9t-13 -23l-13 -77q-1 -3 -1 -7q0 -11 8 -19z" />
    <glyph glyph-name="uniFEEC" unicode="&#x647;" horiz-adv-x="614" arabic-form="medial" 
d="M0 130h57v100q0 34 12.5 63.5t34.5 51.5t51.5 34.5t63.5 12.5h41q28 0 53 -9.5t45.5 -26t34.5 -40t20 -50.5l15 -77q4 -17 4 -33q0 -20 -7.5 -46t-29.5 -52t-53.5 -42t-68.5 -16h-46q-17 0 -31 3t-29 8v-9q0 -20 8.5 -39t34.5 -24l117 -22l101 124q33 41 77.5 65t96.5 24
h12q5 0 9.5 -4t4.5 -10v-102q0 -14 -14 -14h-29q-23 0 -45 -11t-37 -31q-3 -4 -13 -17t-24.5 -31.5t-30 -38.5t-29 -37.5t-23 -30t-10.5 -13.5l-220 58q-22 6 -39.5 20t-30 34.5t-19 45.5t-6.5 52h-58q-14 0 -14 14v102q0 14 14 14zM167 230v-100h123q15 0 23.5 10t8.5 21
q0 3 -1 7l-13 67q-2 14 -13 23t-25 9h-66q-15 0 -26 -11t-11 -26z" />
    <glyph glyph-name="uniFEEE" unicode="&#x648;" horiz-adv-x="513" arabic-form="final" 
d="M53 186l17 91q5 27 19.5 50.5t34.5 40.5t45.5 26.5t53.5 9.5h56q34 0 64 -13t52 -35.5t35 -52.5t13 -64v-109h70q14 0 14 -14v-102q0 -14 -14 -14h-71q0 -37 -13.5 -70t-36 -60.5t-52.5 -48t-63 -32.5l-137 -47l-34 105l141 47q38 13 61.5 42t23.5 69v7q-11 -5 -27 -8.5
t-32 -3.5h-67q-37 0 -68 15.5t-52 41.5t-28.5 52.5t-7.5 46.5q0 15 3 30zM168 142q9 -12 24 -12h141v110q0 16 -11 27.5t-27 11.5h-81q-14 0 -24 -9t-13 -23l-16 -80q-1 -3 -1 -6q0 -11 8 -19z" />
    <glyph glyph-name="uniFEF0" unicode="&#x649;" horiz-adv-x="746" arabic-form="final" 
d="M60 -10v264h110v-248q0 -23 9 -43t24 -35t35 -23.5t43 -8.5h185q35 0 59.5 24t25.5 59v21h-197v130h392q14 0 14 -13v-102q0 -6 -4 -10.5t-10 -4.5h-89l2 -6q0 -3 0.5 -6.5t0.5 -7.5v-16q0 -42 -16 -78t-44 -63t-65.5 -42t-80.5 -15h-170q-46 0 -87 17.5t-71.5 48t-48 71
t-17.5 87.5z" />
    <glyph glyph-name="uniFEF2" unicode="&#x64a;" horiz-adv-x="746" arabic-form="final" 
d="M60 -10v264h110v-248q0 -23 9 -43t24 -35t35 -23.5t43 -8.5h185q35 0 59.5 24t25.5 59v21h-197v130h392q14 0 14 -13v-102q0 -6 -4 -10.5t-10 -4.5h-89l2 -6q0 -3 0.5 -6.5t0.5 -7.5v-16q0 -42 -16 -78t-44 -63t-65.5 -42t-80.5 -15h-170q-46 0 -87 17.5t-71.5 48t-48 71
t-17.5 87.5zM500 -320v-115h-114v115h114zM334 -320v-115h-114v115h114z" />
    <glyph glyph-name="uniFEF3" unicode="&#x64a;" horiz-adv-x="438" arabic-form="initial" 
d="M-14 115q0 6 4 10.5t10 4.5h230q20 0 34 14.5t14 34.5v207h110v-207q0 -37 -14 -69.5t-38.5 -57t-57 -38.5t-69.5 -14h-209q-6 0 -10 4.5t-4 9.5v101zM178 -235v115h115v-115h-115zM126 -120v-115h-114v115h114z" />
    <glyph glyph-name="uniFEF4" unicode="&#x64a;" horiz-adv-x="375" arabic-form="medial" 
d="M-10 126q4 4 10 4h86q20 0 35 12t19 32l37 180l108 -19l-30 -151q-1 -6 -1 -11q0 -14 12 -28.5t34 -14.5h75q6 0 10 -4.5t4 -10.5v-101q0 -5 -4 -9.5t-10 -4.5h-76q-32 0 -64 17.5t-43 41.5q-7 -12 -20 -22.5t-28.5 -19t-33 -13t-34.5 -4.5h-76q-14 0 -14 14v101
q0 6 4 11zM217 -120h115v-115h-115v115zM51 -235v115h114v-115h-114z" />
    <glyph glyph-name=".notdef" horiz-adv-x="250" 
 />
    <glyph glyph-name=".null" 
 />
    <glyph glyph-name=".null" 
 />
    <glyph glyph-name="uni000D" unicode="&#xd;" horiz-adv-x="250" 
 />
    <glyph glyph-name="space" unicode=" " horiz-adv-x="100" 
 />
    <glyph glyph-name="exclam" unicode="!" horiz-adv-x="265" 
d="M70 0v136h124v-136h-124zM73 250l-13 430h145l-14 -430h-118z" />
    <glyph glyph-name="quotedbl" unicode="&#x22;" horiz-adv-x="401" 
d="M44 440l-4 240h129l-7 -240h-118zM236 440l-4 240h129l-7 -240h-118z" />
    <glyph glyph-name="numbersign" unicode="#" horiz-adv-x="648" 
d="M60 149v112h96v126h-96v112h96v161h116v-161h104v161h116v-161h96v-112h-96v-126h96v-112h-96v-149h-116v149h-104v-149h-116v149h-96zM272 261h104v126h-104v-126z" />
    <glyph glyph-name="dollar" unicode="$" horiz-adv-x="576" 
d="M60 477q1 27 7.5 61t30.5 63.5t71.5 50t128.5 20.5l18 138h74l-18 -144q33 -3 66 -7.5t65 -12.5l-11 -106q-11 1 -30 3t-39.5 3.5t-38.5 3t-27 2.5l-20 -161q41 -13 74 -26.5t56 -34t36 -51.5t13 -78q0 -105 -61 -159t-167 -54h-1l-15 -118q-74 3 -74 7l14 116
q-36 5 -72 11t-72 14l13 104q11 -1 32 -3.5t43.5 -4.5t42.5 -4t28 -3l22 174q-39 11 -74 26.5t-61 38t-40 53.5t-14 72v6zM193 485q0 -24 15.5 -39t57.5 -31l17 139q-90 -4 -90 -69zM364 132q19 21 19 56q0 27 -13.5 41.5t-48.5 29.5l-19 -153q42 4 62 26z" />
    <glyph glyph-name="percent" unicode="%" horiz-adv-x="612" 
d="M451 279q121 0 121 -145q0 -146 -121 -146t-121 146q0 145 121 145zM40 527q0 145 120 145t120 -145q0 -146 -120 -146t-120 146zM151 -8l234 707l73 -26l-234 -705zM451 68q32 0 32 66q0 65 -32 65t-32 -65q0 -66 32 -66zM129 527q0 -66 31 -66t31 66q0 65 -31 65
t-31 -65z" />
    <glyph glyph-name="ampersand" unicode="&#x26;" horiz-adv-x="776" 
d="M60 200q0 75 33.5 122.5t108.5 76.5q-38 45 -52 78t-14 70q0 83 53.5 124t152.5 41t151 -40t52 -117q0 -37 -12 -67.5t-31 -55t-43.5 -45t-50.5 -38.5l98 -98q3 9 6.5 26.5t6 37t4.5 37.5t2 27l130 -3q-15 -116 -51 -203l112 -98l-76 -87l-106 87q-22 -22 -45 -38.5
t-50 -27t-58.5 -16t-71.5 -5.5q-249 0 -249 212zM312 108q42 0 79 11t52 29l-173 173q-74 -36 -74 -114q0 -99 116 -99zM279 510q6 -17 15 -32.5t20 -29.5t20 -23q13 8 26.5 20.5t24 27.5t17.5 32.5t7 35.5q0 26 -16.5 41.5t-50.5 15.5q-35 0 -52.5 -15.5t-17.5 -40.5
q0 -15 7 -32z" />
    <glyph glyph-name="quotesingle" unicode="'" horiz-adv-x="209" 
d="M44 440l-4 240h129l-7 -240h-118z" />
    <glyph glyph-name="parenleft" unicode="(" horiz-adv-x="343" 
d="M60 301q0 52 9 111.5t24.5 119t37 116t45.5 102.5h127q-15 -39 -32 -98.5t-31 -123t-23 -124.5t-9 -103q0 -173 95 -426h-127q-24 37 -45.5 92t-37 114.5t-24.5 118t-9 101.5z" />
    <glyph glyph-name="parenright" unicode=")" horiz-adv-x="343" 
d="M167 750q24 -46 45.5 -102.5t37 -116t24.5 -119t9 -111.5q0 -43 -9 -101.5t-24.5 -118t-37 -114.5t-45.5 -92h-127q95 253 95 426q0 42 -9 103t-23 124.5t-31 123t-32 98.5h127z" />
    <glyph glyph-name="asterisk" unicode="*" horiz-adv-x="567" 
d="M145 475l139 -138l138 138l85 -85l-138 -138l138 -139l-85 -85l-138 139l-139 -139l-85 85l139 139l-139 138z" />
    <glyph glyph-name="plus" unicode="+" horiz-adv-x="580" 
d="M229 311v168h120v-168h171v-120h-171v-170h-120v170h-169v120h169z" />
    <glyph glyph-name="comma" unicode="," horiz-adv-x="269" 
d="M60 31q0 14 5 34.5t9 32.5l44 132l69 -24l-40 -122l62 -24l-41 -117q-15 5 -33 13t-34.5 18.5t-28 24.5t-12.5 32z" />
    <glyph glyph-name="hyphen" unicode="-" horiz-adv-x="416" 
d="M60 205v122h296v-122h-296z" />
    <glyph glyph-name="period" unicode="." horiz-adv-x="264" 
d="M70 0v136h124v-136h-124z" />
    <glyph glyph-name="slash" unicode="/" horiz-adv-x="466" 
d="M148 -34l-118 42l288 710l118 -42z" />
    <glyph glyph-name="zero" unicode="0" horiz-adv-x="592" 
d="M103 593q63 81 193 81t193 -81.5t63 -260.5t-63 -260.5t-193 -81.5t-193 81.5t-63 260.5t63 261zM189 229q6 -43 19.5 -69.5t35 -38t52.5 -11.5t52.5 11.5t35 38t20 69t6.5 103.5q0 62 -6.5 104t-20 68.5t-35 38t-52.5 11.5t-52.5 -11.5t-35 -38t-20 -68.5t-6.5 -104
q0 -61 7 -103z" />
    <glyph glyph-name="one" unicode="1" horiz-adv-x="444" 
d="M246 0v504l-143 -92l-63 103l218 145h126v-660h-138z" />
    <glyph glyph-name="two" unicode="2" horiz-adv-x="548" 
d="M60 0v119l141 142l82 89q27 32 39.5 58.5t12.5 58.5q0 45 -23 64t-71 19q-66 0 -146 -12l-24 -3l-7 107q98 30 203 30q210 0 210 -191q0 -44 -11.5 -78.5t-31 -64.5t-46.5 -56.5t-59 -55.5l-115 -104h274v-122h-428z" />
    <glyph glyph-name="three" unicode="3" horiz-adv-x="560" 
d="M67 127q55 -10 99 -14.5t74 -4.5q62 0 90 20t28 62t-25.5 64.5t-70.5 22.5h-133v114h133q34 0 59 22t25 75q0 64 -107 64q-26 0 -60 -3.5t-79 -10.5l-26 -4l-9 102q92 36 202 36q115 0 168 -42t53 -135q0 -54 -18.5 -89.5t-58.5 -63.5q26 -14 43 -26.5t27 -28t14.5 -36
t4.5 -50.5q0 -110 -54 -161.5t-174 -51.5q-76 0 -180 26l-32 8z" />
    <glyph glyph-name="four" unicode="4" horiz-adv-x="561" 
d="M203 660h152l-177 -431h142v185h138v-185h63v-120h-63v-109h-138v109h-280v105z" />
    <glyph glyph-name="five" unicode="5" horiz-adv-x="580" 
d="M60 25l15 102q60 -10 110 -14.5t92 -4.5q49 0 75 26t26 77q0 90 -84 90q-32 0 -55.5 -5t-40 -11t-25 -11.5t-10.5 -7.5l-84 17l18 377h403v-120h-295l-17 -143q31 12 61.5 18t65.5 6q101 0 153 -49.5t52 -152.5q0 -110 -58 -170.5t-164 -60.5q-22 0 -49 2.5t-54.5 6.5
t-53 9t-45.5 10z" />
    <glyph glyph-name="six" unicode="6" horiz-adv-x="615" 
d="M60 328q0 176 69.5 260t199.5 84q49 0 104 -9.5t100 -19.5l-12 -106q-102 15 -177 15q-141 0 -141 -154q87 25 125 25q227 0 227 -208q0 -113 -63 -170t-185 -57t-184.5 87t-62.5 253zM202 281q0 -173 114 -173q46 0 71.5 26.5t25.5 75.5q0 93 -91 93q-28 0 -62 -7.5
t-58 -14.5z" />
    <glyph glyph-name="seven" unicode="7" horiz-adv-x="522" 
d="M247 -12l-128 36l225 481v32h-284v123h422v-156z" />
    <glyph glyph-name="eight" unicode="8" horiz-adv-x="623" 
d="M80 266q20 39 63 74q-39 31 -55.5 66.5t-16.5 85.5q0 47 22.5 81t57.5 56t76.5 32.5t80.5 10.5q40 0 83 -10.5t79 -33t59.5 -56.5t23.5 -81q0 -27 -3.5 -47.5t-12 -38t-22 -33t-34.5 -32.5q41 -34 61.5 -70t20.5 -88q0 -98 -68 -146t-192 -48q-121 0 -182 45.5t-61 139.5
q0 53 20 93zM208 195q0 -83 104 -83q103 0 103 82q0 31 -15 50.5t-44 30.5h-88q-60 -22 -60 -80zM231 429q12 -20 37 -37h88q49 34 49 83q0 73 -93 73q-47 0 -70 -19.5t-23 -54.5q0 -26 12 -45z" />
    <glyph glyph-name="nine" unicode="9" horiz-adv-x="588" 
d="M60 447q0 109 65 167t184 58q121 0 183.5 -87.5t62.5 -258.5q0 -175 -69 -256.5t-206 -81.5q-40 0 -81.5 6t-85.5 16l-31 7l12 106q102 -15 186 -15q132 0 132 162q-50 -16 -77.5 -23t-47.5 -7q-111 0 -169 52.5t-58 154.5zM202 451q0 -91 96 -91q23 0 48 5t51 13l16 5
q0 169 -113 169q-47 0 -72.5 -26.5t-25.5 -74.5z" />
    <glyph glyph-name="colon" unicode=":" horiz-adv-x="260" 
d="M70 0v136h124v-136h-124zM70 319v136h124v-136h-124z" />
    <glyph glyph-name="semicolon" unicode=";" horiz-adv-x="270" 
d="M60 63l41 117q13 -5 27.5 -10.5t24.5 -10.5q20 -11 38 -31t18 -40q0 -11 -4.5 -31t-8.5 -32l-45 -132l-69 24l40 122zM70 309v136h124v-136h-124z" />
    <glyph glyph-name="less" unicode="&#x3c;" horiz-adv-x="486" 
d="M446 489v-136l-261 -99l261 -108v-136l-406 186v110z" />
    <glyph glyph-name="equal" unicode="=" horiz-adv-x="564" 
d="M60 87v121h444v-121h-444zM504 416v-121h-444v121h444z" />
    <glyph glyph-name="greater" unicode="&#x3e;" horiz-adv-x="486" 
d="M446 306v-110l-406 -186v136l261 108l-261 99v136z" />
    <glyph glyph-name="question" unicode="?" horiz-adv-x="455" 
d="M40 657q88 35 180 35q195 0 195 -153v-3q0 -33 -2.5 -58.5t-10.5 -47.5t-24 -41t-44 -39q-42 -30 -59 -52t-17 -50v-31h-107q-9 13 -15 28q-6 12 -11 28.5t-5 34.5q0 15 14.5 33.5t34 37.5t39.5 35t31 26q17 16 27 33.5t10 39.5q0 29 -21.5 44t-69.5 15q-25 0 -60 -4
t-78 -12zM138 136h124v-136h-124v136z" />
    <glyph glyph-name="at" unicode="@" horiz-adv-x="1026" 
d="M92 460q32 89 92.5 149t147.5 90t196 30q215 0 326.5 -112t111.5 -320q0 -153 -48 -225t-145 -72q-46 0 -81 15t-52 41q-80 -56 -149 -56q-96 0 -141 60t-45 195q0 127 43.5 186t146.5 59q20 0 46.5 -8.5t45.5 -16.5v13h134v-179q0 -56 0.5 -93.5t5 -60.5t14 -33
t27.5 -10q41 0 52.5 47t11.5 138q0 160 -73 237t-235 77q-161 0 -245.5 -91.5t-84.5 -267.5q0 -88 18.5 -153t58 -107t102.5 -62.5t151 -20.5l144 9l5 -117q-43 -5 -80.5 -7.5t-70.5 -2.5q-227 0 -344.5 117.5t-117.5 343.5q0 118 32 208zM456 151q16 -33 52 -33q15 0 37 6
t48 19q-6 36 -6 106v123q-39 10 -68 10q-24 0 -39.5 -6.5t-24.5 -22t-12.5 -40.5t-3.5 -62q0 -67 17 -100z" />
    <glyph glyph-name="A" unicode="A" horiz-adv-x="608" 
d="M173 680h262l153 -680h-138l-27 123h-238l-27 -123h-138zM397 243l-69 323h-48l-69 -323h186z" />
    <glyph glyph-name="B" unicode="B" horiz-adv-x="592" 
d="M329 680q108 0 159 -44t51 -141q0 -52 -16.5 -86t-58.5 -61q88 -35 88 -152q0 -99 -56.5 -147.5t-162.5 -48.5h-273v680h269zM198 280v-160h128q47 0 67.5 18t20.5 60t-20 62t-68 20h-128zM198 560v-160h125q80 0 80 80t-81 80h-124z" />
    <glyph glyph-name="C" unicode="C" horiz-adv-x="539" 
d="M40 344q0 59 9 121t36.5 112.5t78 82.5t132.5 32q91 0 203 -27l-4 -110q-99 15 -161 15q-48 0 -77.5 -21t-46.5 -54.5t-22.5 -77t-5.5 -88.5q0 -38 4 -77t19 -70.5t44.5 -51.5t81.5 -20q34 0 75 3.5t89 10.5l3 -113q-55 -11 -102 -17t-89 -6q-77 0 -128.5 27t-82 74.5
t-43.5 112.5t-13 142z" />
    <glyph glyph-name="D" unicode="D" horiz-adv-x="618" 
d="M289 680q85 0 141 -25t89 -70t46 -106t13 -133q0 -79 -15 -143t-49 -109t-89.5 -69.5t-135.5 -24.5h-229v680h229zM198 120h91q53 0 82.5 23.5t43.5 59.5t17.5 78t3.5 78q0 45 -5.5 82.5t-21 63.5t-44.5 40.5t-76 14.5h-91v-440z" />
    <glyph glyph-name="E" unicode="E" horiz-adv-x="540" 
d="M500 680v-120h-302v-159h242v-120h-242v-161h302v-120h-440v680h440z" />
    <glyph glyph-name="F" unicode="F" horiz-adv-x="514" 
d="M494 680v-120h-296v-200h242v-120h-242v-240h-138v680h434z" />
    <glyph glyph-name="G" unicode="G" horiz-adv-x="610" 
d="M55 503q15 66 48 108t86.5 61.5t130.5 19.5q41 0 89.5 -5t103.5 -16l37 -7l-4 -107q-60 7 -108.5 10t-87.5 3q-56 0 -89 -21.5t-50.5 -56t-23 -78t-5.5 -86.5q0 -34 4 -72.5t19 -71.5t45 -54.5t81 -21.5q61 0 81 4v132h-80v120h218v-353q-75 -11 -131 -17t-92 -6
q-80 0 -135 27.5t-88.5 75.5t-48.5 113t-15 139q0 93 15 160z" />
    <glyph glyph-name="H" unicode="H" horiz-adv-x="649" 
d="M198 680v-278h253v278h138v-680h-138v282h-253v-282h-138v680h138z" />
    <glyph glyph-name="I" unicode="I" horiz-adv-x="258" 
d="M60 0v680h138v-680h-138z" />
    <glyph glyph-name="J" unicode="J" horiz-adv-x="274" 
d="M20 -70v120q41 0 58.5 15.5t17.5 55.5v559h138v-565q0 -99 -55.5 -142t-158.5 -43z" />
    <glyph glyph-name="K" unicode="K" horiz-adv-x="573" 
d="M60 680h138v-297l93 9l111 288h157l-148 -340l152 -340h-159l-114 272l-92 -9v-263h-138v680z" />
    <glyph glyph-name="L" unicode="L" horiz-adv-x="467" 
d="M60 0v680h138v-558h249v-122h-387z" />
    <glyph glyph-name="M" unicode="M" horiz-adv-x="830" 
d="M295 680l120 -495l120 495h235v-680h-138v526h-15l-133 -496h-138l-133 496h-15v-526h-138v680h235z" />
    <glyph glyph-name="N" unicode="N" horiz-adv-x="665" 
d="M293 680l164 -560h10v560h138v-680h-227l-170 560h-10v-560h-138v680h233z" />
    <glyph glyph-name="O" unicode="O" horiz-adv-x="644" 
d="M40 337q0 123 27.5 200.5t89.5 116t165 38.5t165 -38.5t89.5 -116t27.5 -200.5q0 -120 -26.5 -196t-88.5 -114.5t-167 -38.5q-103 0 -165 37t-89.5 113.5t-27.5 198.5zM182 337q0 -79 11 -128t41.5 -75t87.5 -26q54 0 84.5 22.5t43 72t12.5 134.5t-13 135.5t-43.5 75
t-83.5 24.5t-83.5 -24.5t-43.5 -75t-13 -135.5z" />
    <glyph glyph-name="P" unicode="P" horiz-adv-x="582" 
d="M60 0v680h251q241 0 241 -236q0 -120 -60.5 -183t-180.5 -63h-113v-198h-138zM198 318h112q104 0 104 127q0 60 -24.5 87.5t-79.5 27.5h-112v-242z" />
    <glyph glyph-name="Q" unicode="Q" horiz-adv-x="644" 
d="M55 495q15 67 48.5 110.5t87.5 65t131 21.5t131 -21.5t87.5 -65t48.5 -110.5t15 -159q0 -222 -105 -299l83 -134l-126 -59l-90 147q-10 -3 -42 -3q-78 0 -132.5 20.5t-88 63t-48.5 108.5t-15 157t15 158zM185 264q2 -40 15 -74.5t41.5 -58t80.5 -23.5q41 0 67.5 12
t43 38.5t23 69.5t6.5 105q0 64 -7 109.5t-23.5 74t-43 42t-66.5 13.5t-66.5 -13t-43 -41.5t-23.5 -73.5t-7 -108q0 -33 3 -72z" />
    <glyph glyph-name="R" unicode="R" horiz-adv-x="604" 
d="M323 680q121 0 181 -55.5t60 -163.5q0 -138 -101 -200l98 -261h-152l-79 228h-132v-228h-138v680h263zM325 348q48 0 72.5 29t24.5 78t-25.5 77t-73.5 28h-125v-212h127z" />
    <glyph glyph-name="S" unicode="S" horiz-adv-x="550" 
d="M102 641q62 51 178 51q17 0 36.5 -1.5t44.5 -4.5t58 -8t77 -13l-11 -109q-48 5 -100 10.5t-100 5.5q-54 0 -80.5 -16.5t-26.5 -45.5q0 -26 19.5 -44.5t45.5 -31.5t53.5 -21t43.5 -14q31 -11 61.5 -26.5t54.5 -39t39 -57.5t15 -81q0 -49 -16.5 -87.5t-48 -65t-75.5 -40.5
t-100 -14q-52 0 -109 10t-113 21l14 107q135 -18 206 -18q104 0 104 88q0 29 -29 49.5t-101 41.5q-55 16 -93.5 34t-62.5 42t-35 55t-11 71q0 101 62 152z" />
    <glyph glyph-name="T" unicode="T" horiz-adv-x="520" 
d="M10 680h500v-122h-180v-558h-138v558h-182v122z" />
    <glyph glyph-name="U" unicode="U" horiz-adv-x="638" 
d="M198 680v-453q0 -119 121 -119t121 119v453h138v-450q0 -125 -63.5 -183.5t-195.5 -58.5t-195.5 58.5t-63.5 183.5v450h138z" />
    <glyph glyph-name="V" unicode="V" horiz-adv-x="611" 
d="M20 680h145l118 -560h45l118 560h145l-158 -680h-255z" />
    <glyph glyph-name="W" unicode="W" horiz-adv-x="932" 
d="M20 680h145l84 -562h15l122 562h160l122 -562h15l84 562h145l-130 -680h-209l-107 517l-107 -517h-209z" />
    <glyph glyph-name="X" unicode="X" horiz-adv-x="591" 
d="M20 680h153l126 -250l129 250h143l-196 -347l196 -333h-153l-126 235l-129 -235h-143l196 326z" />
    <glyph glyph-name="Y" unicode="Y" horiz-adv-x="596" 
d="M173 680l125 -271l125 271h153l-208 -405v-275h-138v275l-210 405h153z" />
    <glyph glyph-name="Z" unicode="Z" horiz-adv-x="530" 
d="M490 680v-120l-284 -422v-18h284v-120h-450v119l284 423v18h-284v120h450z" />
    <glyph glyph-name="bracketleft" unicode="[" horiz-adv-x="352" 
d="M60 -123v872h252v-120h-115v-632h115v-120h-252z" />
    <glyph glyph-name="backslash" unicode="\" horiz-adv-x="494" 
d="M348 -36l-318 700l114 52l320 -703z" />
    <glyph glyph-name="bracketright" unicode="]" horiz-adv-x="352" 
d="M292 749v-872h-252v120h115v632h-115v120h252z" />
    <glyph glyph-name="asciicircum" unicode="^" horiz-adv-x="582" 
d="M234 660h114l194 -347h-140l-109 217l-113 -217h-140z" />
    <glyph glyph-name="underscore" unicode="_" horiz-adv-x="548" 
d="M60 -187v114h428v-114h-428z" />
    <glyph glyph-name="a" unicode="a" horiz-adv-x="499" 
d="M72 264q41 34 132 41l108 8v31q0 30 -13.5 42t-45.5 12q-48 0 -95 -2t-93 -6l-4 93q108 29 198 29q101 0 144 -40t43 -128v-208q2 -25 8.5 -34t24.5 -13l-4 -101q-26 0 -46 1.5t-36.5 5.5t-31 11t-29.5 17q-75 -35 -147 -35q-155 0 -155 161q0 80 42 115zM164 150
q0 -26 13 -39.5t43 -13.5q14 0 34 3t43 9l15 4v107l-92 -8q-56 -5 -56 -62z" />
    <glyph glyph-name="b" unicode="b" horiz-adv-x="524" 
d="M194 700v-215q19 8 34 13t28 8t26 4.5t28 1.5q50 0 86.5 -15t60.5 -46.5t35.5 -81t11.5 -119.5q0 -73 -12.5 -123t-41 -81t-74 -44.5t-110.5 -13.5q-52 0 -103.5 4.5t-102.5 9.5v698h134zM231 109q16 -1 27 -1q62 0 86 31.5t24 109.5t-21 110.5t-69 32.5q-35 0 -84 -13
v-267q20 -2 37 -3z" />
    <glyph glyph-name="c" unicode="c" horiz-adv-x="431" 
d="M40 250q0 139 49.5 200.5t160.5 61.5q16 0 32 -1t34.5 -4t41.5 -7t53 -10l-4 -106q-1 0 -17.5 1t-37 2.5t-40 3t-27.5 1.5q-33 0 -54 -6.5t-33 -23t-17 -45t-5 -72.5q0 -27 3 -51.5t14.5 -43.5t34.5 -30.5t63 -11.5l116 8l4 -107q-106 -21 -168 -21q-106 0 -154.5 62.5
t-48.5 199.5z" />
    <glyph glyph-name="d" unicode="d" horiz-adv-x="549" 
d="M40 244q0 141 48.5 204.5t146.5 63.5q24 0 53 -3.5t67 -10.5v202h134v-700h-133v21q-41 -19 -70 -26t-60 -7q-99 0 -142.5 63t-43.5 193zM195 140q19 -32 67 -32q33 0 79 12l14 3v265q-26 5 -48 7.5t-36 2.5q-52 0 -73.5 -34t-21.5 -116q0 -77 19 -108z" />
    <glyph glyph-name="e" unicode="e" horiz-adv-x="509" 
d="M95 445q54 67 169 67q106 0 160.5 -56t54.5 -170l-10 -83h-294q3 -52 26 -74.5t85 -22.5q35 0 72.5 1t73.5 5l29 3l2 -99q-58 -14 -107.5 -21t-91.5 -7q-119 0 -171.5 59t-52.5 191q0 139 55 207zM174 295h171q0 60 -18 83.5t-64 23.5q-48 0 -68 -24.5t-21 -82.5z" />
    <glyph glyph-name="f" unicode="f" horiz-adv-x="364" 
d="M30 495h54v27q0 54 7.5 90.5t24.5 58.5t45 31.5t69 9.5l114 -9l-2 -113q-22 1 -40 2q-16 1 -28.5 1.5t-14.5 0.5h-2q-19 0 -29 -21.5t-10 -51.5v-26h121v-114h-121v-381h-134v381h-54v114z" />
    <glyph glyph-name="g" unicode="g" horiz-adv-x="558" 
d="M58 -31q17 29 54 59q-18 12 -27.5 30.5t-9.5 35.5q0 12 4.5 24.5t10.5 24.5t12.5 22.5t11.5 18.5q-68 50 -68 147q0 91 54.5 135t149.5 44q48 0 106 -13l162 5v-108l-75 6q13 -21 17.5 -35.5t4.5 -39.5q0 -91 -51 -129.5t-156 -38.5q-30 0 -45 4q-5 -12 -7.5 -22
t-2.5 -15q0 -11 8 -18t20.5 -10.5t29.5 -5t35 -1.5q41 0 71.5 -1.5t52.5 -6.5q48 -11 73 -42.5t25 -91.5q0 -92 -61.5 -134.5t-189.5 -42.5q-109 0 -168 31t-59 102q0 38 18 66zM180 332q0 -73 76 -73q75 0 75 73t-75 73q-76 0 -76 -73zM172 -78q0 -28 22 -37t80 -10h7
q52 0 76.5 14.5t24.5 39.5q0 18 -11 28.5t-26 16.5t-31 8t-26 2h-89q-27 -27 -27 -62z" />
    <glyph glyph-name="h" unicode="h" horiz-adv-x="524" 
d="M60 700h134v-224q38 19 67.5 27.5t63.5 8.5q92 0 130.5 -58.5t38.5 -182.5v-271h-134v268q0 68 -15.5 96t-58.5 28q-22 0 -47.5 -5t-44.5 -11v-376h-134v700z" />
    <glyph glyph-name="i" unicode="i" horiz-adv-x="214" 
d="M40 0v500h134v-500h-134zM174 709v-135h-134v135h134z" />
    <glyph glyph-name="j" unicode="j" horiz-adv-x="231" 
d="M25 -81q19 20 25.5 42t6.5 63v476h134v-477q0 -70 -15 -111.5t-51.5 -72.5t-111.5 -69l-53 99q45 30 65 50zM191 709v-135h-134v135h134z" />
    <glyph glyph-name="k" unicode="k" horiz-adv-x="521" 
d="M60 0v700h134v-398l51 9l99 189h150l-130 -237l137 -263h-151l-101 195l-55 -9v-186h-134z" />
    <glyph glyph-name="l" unicode="l" horiz-adv-x="254" 
d="M60 0v700h134v-700h-134z" />
    <glyph glyph-name="m" unicode="m" horiz-adv-x="800" 
d="M40 500h133v-28q37 21 64.5 30.5t58.5 9.5q35 0 67 -11.5t53 -35.5q48 24 89 35.5t84 11.5q93 0 132 -57t39 -184v-271h-134v267q0 67 -14.5 96t-53.5 29q-21 0 -48.5 -6.5t-46.5 -12.5q1 -13 2 -31q1 -14 1.5 -35.5t0.5 -47.5v-259h-134v257q0 18 -1 41.5t-8 44t-21 35
t-41 14.5q-18 0 -44.5 -6t-43.5 -12v-374h-134v500z" />
    <glyph glyph-name="n" unicode="n" horiz-adv-x="514" 
d="M40 500h133v-28q38 22 67.5 31t63.5 9q92 0 131 -59t39 -182v-271h-134v267q0 69 -15.5 97t-55.5 28q-23 0 -50.5 -6t-44.5 -12v-374h-134v500z" />
    <glyph glyph-name="o" unicode="o" horiz-adv-x="520" 
d="M88 445q58 67 172 67t172 -67.5t58 -193.5q0 -127 -58 -195t-172 -68t-172 68t-58 195q0 126 58 194zM166 251q0 -79 23 -114t71 -35t71 35t23 114t-23 113t-71 34t-71 -34t-23 -113z" />
    <glyph glyph-name="p" unicode="p" horiz-adv-x="514" 
d="M40 500h133v-27q39 23 65.5 31t56.5 8q97 0 143 -63.5t46 -203.5q0 -72 -12.5 -121t-39 -79t-68 -43.5t-99.5 -13.5q-25 0 -46.5 2t-44.5 6v-206h-134v710zM245 102q57 0 80 33t23 110t-20 112t-64 35q-22 0 -47.5 -6.5t-42.5 -13.5v-264q45 -6 71 -6z" />
    <glyph glyph-name="q" unicode="q" horiz-adv-x="523" 
d="M40 253q0 59 13 107t42.5 82t77 52t115.5 18l195 -13v-709h-134v225q-19 -7 -34 -12.5t-28.5 -8.5t-27 -4.5t-28.5 -1.5q-49 0 -85.5 14.5t-59.5 46.5t-34.5 82.5t-11.5 121.5zM196 141q21 -33 69 -33q20 0 42 4t42 9v273q-17 2 -31 3t-25 1q-34 0 -57 -8t-36.5 -25.5
t-19.5 -45t-6 -67.5q0 -78 22 -111z" />
    <glyph glyph-name="r" unicode="r" horiz-adv-x="353" 
d="M40 500h133v-53q86 50 160 65v-135q-36 -5 -78.5 -16.5t-80.5 -25.5v-335h-134v500z" />
    <glyph glyph-name="s" unicode="s" horiz-adv-x="461" 
d="M83 471q52 40 143 40q47 0 95 -8.5t96 -16.5l-2 -111q-62 8 -107 15t-78 7q-29 0 -47.5 -8t-18.5 -32q0 -23 19.5 -33t63.5 -19q36 -7 69 -15.5t58.5 -24.5t41 -41.5t15.5 -66.5q0 -87 -48.5 -128t-150.5 -41q-48 0 -97 7.5t-97 16.5l4 113q62 -8 106.5 -15.5t78.5 -7.5
q29 0 49.5 8.5t20.5 29.5q0 22 -26.5 36.5t-90.5 29.5q-27 6 -54 15t-48.5 25.5t-34.5 42t-13 64.5q0 78 53 118z" />
    <glyph glyph-name="t" unicode="t" horiz-adv-x="367" 
d="M20 500h59v139h134v-139h123v-114h-123v-205q0 -39 7 -56t32 -17h3l76 2l6 -107q-20 -5 -35 -8l-27 -4q-12 -2 -23 -2.5t-22 -0.5q-43 0 -72 9.5t-46.5 32t-25 58.5t-7.5 90v208h-59v114z" />
    <glyph glyph-name="u" unicode="u" horiz-adv-x="504" 
d="M40 500h134v-264q0 -24 1.5 -47t9 -41t24 -29t47.5 -11q17 0 34 4t50 14v374h134v-500h-133v28q-21 -12 -38.5 -19.5t-33.5 -12t-31.5 -6.5t-32.5 -2q-47 0 -79 14t-51 44.5t-27 78t-8 113.5v262z" />
    <glyph glyph-name="v" unicode="v" horiz-adv-x="508" 
d="M20 500h140l80 -386h28l84 386h136l-120 -500h-228z" />
    <glyph glyph-name="w" unicode="w" horiz-adv-x="764" 
d="M20 500h132l61 -386h24l76 376h138l76 -376h24l61 386h132l-95 -500h-200l-67 306l-67 -306h-200z" />
    <glyph glyph-name="x" unicode="x" horiz-adv-x="487" 
d="M20 500h143l80 -155l81 155h143l-142 -245l142 -255h-143l-81 153l-80 -153h-143l137 251z" />
    <glyph glyph-name="y" unicode="y" horiz-adv-x="509" 
d="M20 500h132l91 -386h23l91 386h132l-176 -710h-131l55 210h-94z" />
    <glyph glyph-name="z" unicode="z" horiz-adv-x="411" 
d="M391 500v-120l-210 -260h210v-120h-371v120l210 260h-210v120h371z" />
    <glyph glyph-name="braceleft" unicode="{" horiz-adv-x="409" 
d="M40 261v104q57 13 84.5 35t27.5 54v5l-7 127q-1 11 -1 21q0 34 9 63t34 49.5t65 30t97 11.5v-114q-42 -4 -58 -19.5t-16 -44.5v-7l7 -128q1 -11 1 -21q0 -19 -3.5 -37t-16 -32.5t-35 -24.5t-58.5 -19q35 -9 58 -20t35.5 -27t16.5 -35.5t4 -40.5q0 -9 -1 -19l-7 -117v-8
q0 -30 15.5 -47t55.5 -20v-114q-55 2 -94.5 12t-64.5 30.5t-34.5 48.5t-9.5 61q0 10 1 20l7 121v5q0 34 -27.5 58.5t-84.5 38.5z" />
    <glyph glyph-name="bar" unicode="|" horiz-adv-x="254" 
d="M60 -210v910h134v-910h-134z" />
    <glyph glyph-name="braceright" unicode="}" horiz-adv-x="409" 
d="M60 647v114q57 -2 97 -11.5t65 -30t34 -49.5t9 -63q0 -10 -1 -21l-7 -127v-5q0 -32 27.5 -54t84.5 -35v-104q-57 -14 -84.5 -38.5t-27.5 -58.5v-5l7 -121q1 -10 1 -20q0 -33 -9.5 -61t-34.5 -48.5t-64 -30.5t-95 -12v114q40 3 55.5 20t15.5 47v8l-7 117q-1 10 -1 19
q0 21 4 40.5t16.5 35.5t35.5 27t58 20q-36 9 -58.5 19t-35 24.5t-16 32.5t-3.5 37q0 10 1 21l7 128v7q0 29 -16 44.5t-58 19.5z" />
    <glyph glyph-name="asciitilde" unicode="~" horiz-adv-x="556" 
d="M60 282q61 52 123 52q31 0 104 -22t96 -22q11 0 25 4t28.5 9.5t28 12t23.5 12.5l8 -107q-9 -9 -23 -18t-30 -16.5t-32 -12t-29 -4.5q-31 0 -107 22t-98 22q-9 0 -23.5 -4.5t-30 -10.5t-30 -12.5t-23.5 -11.5z" />
    <glyph glyph-name="exclamdown" unicode="&#xa1;" horiz-adv-x="265" 
d="M60 -180l13 430h118l14 -430h-145zM70 363v136h124v-136h-124z" />
    <glyph glyph-name="cent" unicode="&#xa2;" horiz-adv-x="491" 
d="M60 249q0 206 182 221v101h110v-105l79 -13l-4 -100q-10 0 -29 0.5t-39.5 1t-37.5 1t-23 0.5h-7q-47 0 -71 -25t-24 -83q0 -56 25 -80.5t81 -24.5h9l116 4l4 -100q-35 -10 -79 -13v-109h-110v104q-182 14 -182 220z" />
    <glyph glyph-name="sterling" unicode="&#xa3;" horiz-adv-x="540" 
d="M60 0v114h74v205h-64v114h64v59q0 52 9.5 86.5t29.5 55t51.5 29t75.5 8.5q34 0 76.5 -7.5t76.5 -16.5l-4 -104q-36 4 -61.5 5.5t-54.5 1.5q-35 0 -51 -20.5t-16 -52.5v-44h153v-114h-153v-205h124l69 16l21 -112l-81 -18h-339z" />
    <glyph glyph-name="currency" unicode="&#xa4;" horiz-adv-x="620" 
d="M152 502l72 -73q43 20 86 20q42 0 85 -20l73 73l92 -92l-73 -73q20 -43 20 -85q0 -43 -20 -86l73 -72l-92 -92l-73 73q-43 -20 -85 -20t-85 20l-73 -73l-92 92l72 72q-19 38 -19 86q0 47 19 85l-72 73zM250 192q25 -26 60 -26t60.5 25.5t25.5 60.5t-25.5 60.5t-60.5 25.5
t-60.5 -25.5t-25.5 -60.5t26 -60z" />
    <glyph glyph-name="yen" unicode="&#xa5;" horiz-adv-x="671" 
d="M60 660h153l123 -211l122 211h153l-143 -257h89v-104h-151v-63h151v-102h-151v-134h-138v134h-155v102h155v63h-155v104h92z" />
    <glyph glyph-name="brokenbar" unicode="&#xa6;" horiz-adv-x="254" 
d="M194 170v-380h-134v380h134zM60 328v372h134v-372h-134z" />
    <glyph glyph-name="section" unicode="&#xa7;" horiz-adv-x="558" 
d="M66 248q5 19 14 37.5t20.5 35t23.5 26.5q-44 32 -44 108q0 183 217 183q18 0 40.5 -2t46 -5.5t47 -8t42.5 -8.5l-6 -108q-56 8 -96.5 12t-69.5 4q-53 0 -72 -14t-19 -51q0 -21 27.5 -33t90.5 -28q35 -9 66 -20t54 -28.5t36.5 -43t13.5 -61.5q0 -70 -51 -141
q22 -20 30.5 -42.5t8.5 -66.5q0 -97 -51.5 -140t-165.5 -43q-46 0 -93.5 7.5t-92.5 15.5l13 108q108 -15 162 -15t77 13.5t23 42.5q0 19 -17.5 32t-41 21.5t-46.5 13.5t-35 8q-30 8 -58.5 19t-50.5 28.5t-35.5 44t-13.5 64.5q0 15 6 35zM197 216q2 -11 8 -18t18 -11.5
t32 -9.5q46 -12 89 -28q9 11 12.5 29.5t3.5 43.5q0 24 -14 37t-44 21q-5 1 -18 4t-27 7t-27 7t-18 4q-17 -26 -17 -59q0 -17 2 -27z" />
    <glyph glyph-name="copyright" unicode="&#xa9;" horiz-adv-x="671" 
d="M60 436q0 60 20 112t56.5 89.5t88 59t113.5 21.5q61 0 111.5 -22t86.5 -60t55.5 -90.5t19.5 -113.5q0 -60 -19.5 -111.5t-55 -89.5t-86 -59.5t-112.5 -21.5q-60 0 -111 22t-88 60.5t-58 91t-21 112.5zM122 434q0 -45 16 -85.5t44.5 -71.5t67.5 -49t86 -18t86 17.5t67 48
t44 71t16 86.5q0 45 -15.5 86t-44 71.5t-67.5 49t-86 18.5q-46 0 -85.5 -18t-68 -48.5t-44.5 -71.5t-16 -86zM223 513q7 31 22.5 50t41 27t61.5 8q39 0 70 -12l10 -3l-7 -86q-34 6 -61 6q-25 0 -33 -13.5t-8 -50.5q0 -75 35 -75l67 5l7 -82q-28 -18 -90 -18q-65 0 -93.5 37
t-28.5 129q0 47 7 78z" />
    <glyph glyph-name="guillemotleft" unicode="&#xab;" horiz-adv-x="586" 
d="M263 454v-135l-109 -75l109 -86v-135l-223 171v96zM546 454v-135l-109 -75l109 -86v-135l-223 171v96z" />
    <glyph glyph-name="registered" unicode="&#xae;" horiz-adv-x="671" 
d="M80 547q20 52 56.5 90t87.5 59.5t113 21.5q61 0 111.5 -22t86.5 -60t56 -90.5t20 -113.5q0 -59 -19.5 -110.5t-55 -89.5t-85.5 -60t-112 -22q-61 0 -112 21.5t-88 60t-58 90.5t-21 113q0 60 20 112zM122 434q0 -45 16.5 -85.5t45 -71t68 -49t85.5 -18.5t84.5 18t67 49
t44.5 71.5t16 85.5t-15.5 85.5t-44 71.5t-67.5 49t-86 18q-46 0 -85.5 -18t-68 -48.5t-44.5 -71t-16 -86.5zM351 591q52 0 83 -25.5t31 -71.5q0 -23 -2 -39.5t-6.5 -28.5t-11.5 -21.5t-18 -18.5l41 -110h-95l-28 93h-41v-93h-89v315h136zM338 440q34 0 34 40q0 39 -35 39
h-34v-79h35z" />
    <glyph glyph-name="degree" unicode="&#xb0;" horiz-adv-x="420" 
d="M71 603q11 28 30.5 47.5t47 30.5t60.5 11t60.5 -11t48 -30.5t31.5 -47.5t11 -61q0 -67 -42 -108t-109 -41q-33 0 -60.5 11t-47 30.5t-30.5 47t-11 60.5t11 61zM155 487q20 -21 54 -21t55 21t21 55t-21 55.5t-55 21.5q-35 0 -54.5 -22t-19.5 -55q0 -34 20 -55z" />
    <glyph glyph-name="plusminus" unicode="&#xb1;" horiz-adv-x="580" 
d="M229 400v108h120v-108h171v-120h-171v-100h-120v100h-169v120h169zM60 19v120h460v-120h-460z" />
    <glyph glyph-name="paragraph" unicode="&#xb6;" horiz-adv-x="639" 
d="M60 489q0 41 14 76t38.5 60.5t59 40t76.5 14.5h331v-114h-36v-566h-114v566h-62v-566h-114v286h-7q-40 0 -74 16t-59 44t-39 64.5t-14 78.5z" />
    <glyph glyph-name="periodcentered" unicode="&#xb7;" horiz-adv-x="264" 
d="M71 197v136h124v-136h-124z" />
    <glyph glyph-name="guillemotright" unicode="&#xbb;" horiz-adv-x="586" 
d="M546 290v-96l-223 -171v135l109 86l-109 75v135zM40 23v135l109 86l-109 75v135l223 -164v-96z" />
    <glyph glyph-name="questiondown" unicode="&#xbf;" horiz-adv-x="455" 
d="M39 -37q0 33 2.5 58.5t10.5 47.5t24 41t44 39q42 30 59 52t17 50v31h107q9 -13 16 -27q5 -13 10 -29.5t5 -34.5q0 -15 -14.5 -33.5t-34 -37.5t-39.5 -35t-31 -26q-17 -16 -27 -33.5t-10 -39.5q0 -29 21.5 -44t69.5 -15q25 0 60 4t78 12l7 -101q-88 -35 -180 -35
q-195 0 -195 154v2zM316 499v-136h-124v136h124z" />
    <glyph glyph-name="multiply" unicode="&#xd7;" horiz-adv-x="567" 
d="M145 475l139 -138l138 138l85 -85l-138 -138l138 -139l-85 -85l-138 139l-139 -139l-85 85l139 139l-139 138z" />
    <glyph glyph-name="divide" unicode="&#xf7;" horiz-adv-x="580" 
d="M60 281v120h460v-120h-460zM355 209v-132h-132v132h132zM223 472v132h132v-132h-132z" />
    <glyph glyph-name="tilde" unicode="&#x2dc;" horiz-adv-x="556" 
d="M60 282q61 52 123 52q31 0 104 -22t96 -22q11 0 25 4t28.5 9.5t28 12t23.5 12.5l8 -107q-9 -9 -23 -18t-30 -16.5t-32 -12t-29 -4.5q-31 0 -107 22t-98 22q-9 0 -23.5 -4.5t-30 -10.5t-30 -12.5t-23.5 -11.5z" />
    <glyph glyph-name="uni060C" unicode="&#x60c;" horiz-adv-x="269" 
d="M60 31q0 14 5 34.5t9 32.5l44 132l69 -24l-40 -122l62 -24l-41 -117q-15 5 -33 13t-34.5 18.5t-28 24.5t-12.5 32z" />
    <glyph glyph-name="uni060D" unicode="&#x60d;" horiz-adv-x="255" 
d="M143 -117h-103l48 247h140z" />
    <glyph glyph-name="uni061B" unicode="&#x61b;" horiz-adv-x="269" 
d="M57 357q0 11 5 31t9 32l44 132l69 -24l-40 -122l62 -24l-41 -116q-15 5 -33.5 13t-35 19t-27.5 26t-12 33zM72 136h124v-136h-124v136z" />
    <glyph glyph-name="uni061F" unicode="&#x61f;" horiz-adv-x="455" 
d="M234 694q92 0 180 -35l-7 -101q-43 8 -78 12t-60 4q-48 0 -69.5 -15t-21.5 -44q0 -22 10 -39.5t27 -33.5q11 -10 31 -26t39.5 -35t34 -37.5t14.5 -33.5q0 -18 -5 -34.5t-10 -28.5q-7 -15 -16 -28h-107v31q0 28 -17 50t-59 52q-28 20 -44 39t-24 41t-10.5 47.5t-2.5 58.5
v2q0 154 195 154zM316 138v-136h-124v136h124z" />
    <glyph glyph-name="uni0640" unicode="&#x640;" horiz-adv-x="148" 
d="M0 130h148q14 0 14 -14v-102q0 -14 -14 -14h-148q-14 0 -14 14v102q0 14 14 14z" />
    <glyph glyph-name="uni0653" unicode="&#x653;" 
d="M-149 754q0 21 8 38.5t21 30t29.5 19.5t34.5 7h207v-95h-194q-11 0 -16.5 -6.5t-5.5 -14.5v-33h-85z" />
    <glyph glyph-name="uni0653" unicode="&#x6e4;" 
d="M-149 754q0 21 8 38.5t21 30t29.5 19.5t34.5 7h207v-95h-194q-11 0 -16.5 -6.5t-5.5 -14.5v-33h-85z" />
    <glyph glyph-name="uni0654" unicode="&#x654;" 
d="M-161 785l80 12q-2 0 -4 5.5t-3.5 12.5t-3 13.5t-1.5 8.5q-2 12 -2 22q0 20 8 39.5t24 34.5t34 22t29 8l93 12l10 -86l-89 -10q-12 -2 -20 -8t-8 -17q0 -5 1 -11l6 -32q24 5 49.5 10t47.5 10l48 10l23 -78l-308 -62z" />
    <glyph glyph-name="uni0655" unicode="&#x655;" 
d="M-161 -190l81 12q-5 5 -8.5 15t-3.5 18q-2 14 -2 27q0 20 7.5 40t23.5 35.5t34 22.5t29 8l93 12l10 -86l-99 -12q-5 -1 -12.5 -4.5t-7.5 -12.5q0 -4 1 -8l8 -41q24 5 49.5 9.5t47.5 9.5q24 6 48 11l23 -78l-308 -62z" />
    <glyph glyph-name="uni0656" unicode="&#x656;" 
d="M40 -170h-80v170h80v-170z" />
    <glyph glyph-name="uni0660" unicode="&#x660;" horiz-adv-x="290" 
d="M225 52l-160 1v160h160v-161z" />
    <glyph glyph-name="uni0661" unicode="&#x661;" horiz-adv-x="276" 
d="M60 700l119 21l18 -91q10 -49 14.5 -97.5t4.5 -96.5v-436h-120v437q0 91 -18 179z" />
    <glyph glyph-name="uni0662" unicode="&#x662;" horiz-adv-x="557" 
d="M183 721l5 -18l10 -47.5t11.5 -63.5t7.5 -67q2 -17 16 -27.5t31 -10.5h123v228h120v-236q0 -25 -9.5 -47.5t-26 -39t-38.5 -26t-47 -9.5h-112q-11 0 -20.5 3.5t-17.5 7.5q-8 5 -14 11l-1 -379h-120v437q0 45 -5 89.5t-14 89.5l-17 84z" />
    <glyph glyph-name="uni0663" unicode="&#x663;" horiz-adv-x="733" 
d="M178 721q1 -4 4.5 -21t9 -44t11 -60.5t9.5 -70.5q2 -17 16 -27.5t31 -10.5h14q20 0 35 12.5t18 31.5l37 182l118 -21l-31 -156v-5q0 -15 10 -29.5t34 -14.5h69l-1 229l121 -1v-236q0 -25 -9.5 -47.5t-26 -39t-39 -26t-47.5 -9.5h-67q-63 0 -108 42q-23 -20 -52.5 -31
t-61.5 -11q-29 0 -56 8v-365h-120v437q0 45 -5 89.5t-14 89.5l-17 84z" />
    <glyph glyph-name="uni0664" unicode="&#x664;" horiz-adv-x="472" 
d="M60 237q0 41 14.5 74.5t39.5 59.5q-24 30 -31 67l-18 92q-3 16 -3 32q0 20 7 46t28 51.5t52.5 40.5t68.5 15h154v-125h-168q-14 0 -22.5 -11.5t-8.5 -22.5q0 -4 1 -8l15 -80q2 -14 13 -25.5t21 -11.5q3 0 7 1l141 39l32 -109l-179 -53q-19 -5 -36.5 -23.5t-17.5 -38.5
v-82q0 -15 10.5 -25t24.5 -10h228v-130h-216q-32 0 -60.5 11.5t-50 32.5t-34 50t-12.5 63v80z" />
    <glyph glyph-name="uni0665" unicode="&#x665;" horiz-adv-x="612" 
d="M40 197q0 62 12.5 112t35.5 94t56 85t74 85l-60 56l72 102l164 -155q39 -37 72.5 -77.5t57 -87t36 -97.5t12.5 -108v-9q-1 -41 -12 -77t-33.5 -62.5t-55.5 -42t-78 -15.5h-174q-45 0 -78.5 15.5t-56 42t-33.5 62.5t-11 77zM160 197q0 -25 6 -38.5t14 -20t16 -7.5t13 -1
h194q5 0 13.5 1t16.5 7.5t13.5 20t5.5 38.5q0 44 -7 80t-23.5 69.5t-44.5 68t-71 76.5q-43 -43 -71.5 -78t-45 -68.5t-23 -68.5t-6.5 -79z" />
    <glyph glyph-name="uni0666" unicode="&#x666;" horiz-adv-x="537" 
d="M10 599l11 122q51 -5 102 -10.5t102 -5.5q39 0 78 3.5t69.5 7.5t50.5 7l19 3v-441q0 -44 4 -88.5t14 -89.5l18 -85l-118 -20l-19 90q-11 49 -15 98t-4 97v294q-6 0 -20.5 -0.5t-30.5 -1t-31 -1t-22 -0.5q-52 0 -104 6.5t-104 14.5z" />
    <glyph glyph-name="uni0667" unicode="&#x667;" horiz-adv-x="618" 
d="M30 654l97 80l14 -22q13 -23 33.5 -60t44 -85.5t43.5 -100.5t33.5 -104.5t13.5 -97.5q0 34 8 72t20.5 77.5t29 78.5t33.5 75q40 83 91 167l97 -80q-54 -82 -100 -184q-39 -88 -75.5 -207t-49.5 -263h-108q-23 172 -61.5 295.5t-74.5 202.5q-43 94 -89 156z" />
    <glyph glyph-name="uni0668" unicode="&#x668;" horiz-adv-x="618" 
d="M119 235q36 80 74.5 203.5t61.5 294.5h108q13 -143 49.5 -262.5t75.5 -207.5q46 -102 100 -184l-97 -80q-51 84 -91 168q-17 36 -33.5 75t-29 78t-20.5 77t-8 72q0 -45 -13.5 -97.5t-33.5 -104.5t-43.5 -100.5t-44 -85.5t-33.5 -59l-14 -23l-97 80q46 62 89 156z" />
    <glyph glyph-name="uni0669" unicode="&#x669;" horiz-adv-x="521" 
d="M34 501l18 92q5 27 19.5 50.5t34.5 40t45.5 26t53.5 9.5h56q34 0 63.5 -13t52 -35.5t35.5 -52t13 -63.5v-271q0 -44 4 -88.5t14 -90.5l18 -84l-109 -21l-18 91q-10 49 -14.5 97.5t-4.5 96.5v42q-1 0 -14 -5.5t-35 -5.5h-79q-38 0 -69.5 13t-52.5 37.5t-28 50.5t-7 46
q0 18 4 38zM149 455q10 -9 24 -9h142v109q0 20 -12 29.5t-27 9.5h-81q-14 0 -24 -8.5t-13 -22.5l-15 -80q-1 -5 -1 -10q0 -12 7 -18z" />
    <glyph glyph-name="uni066A" unicode="&#x66a;" horiz-adv-x="503" 
d="M463 9l-160 1v160h160v-161zM70 9l-53 36l393 632l53 -35zM184 516l-160 1v160h160v-161z" />
    <glyph glyph-name="uni066B" unicode="&#x66b;" horiz-adv-x="158" 
d="M143 -117h-103l48 247h140z" />
    <glyph glyph-name="uni066C" unicode="&#x66c;" horiz-adv-x="158" 
d="M143 395h-103l48 247h140z" />
    <glyph glyph-name="uni066D" unicode="&#x66d;" horiz-adv-x="429" 
d="M87 399l-47 59l105 78l-102 73l46 63l101 -73l39 121l75 -25l-38 -122h123v-74h-123l38 -120l-73 -22l-41 121z" />
    <glyph glyph-name="uni0670" unicode="&#x670;" 
d="M40 700h-80v170h80v-170z" />
    <glyph glyph-name="uni06F0" unicode="&#x6f0;" horiz-adv-x="478" 
d="M63 328q13 30 35 52t52 35t64 13h49q34 0 64 -13t52.5 -35t35.5 -52t13 -64v-51q0 -34 -13 -63.5t-35.5 -52t-52.5 -35.5t-64 -13h-49q-33 0 -63 13t-52.5 35.5t-35.5 52t-13 63.5v51q0 34 13 64zM171 265v-48q0 -16 11 -27t28 -11h58q18 0 28.5 11t10.5 27v48
q0 17 -11 27.5t-28 10.5h-58q-17 0 -28 -11t-11 -27z" />
    <glyph glyph-name="uni06F1" unicode="&#x6f1;" horiz-adv-x="266" 
d="M60 700l109 21l18 -91q10 -49 14.5 -97.5t4.5 -96.5v-436h-110v437q0 45 -5 89.5t-14 89.5z" />
    <glyph glyph-name="uni06F2" unicode="&#x6f2;" horiz-adv-x="542" 
d="M168 721l5 -18l10 -47.5t11.5 -63.5t7.5 -67q2 -17 16 -27.5t31 -10.5h123v228h120v-236q0 -25 -9.5 -47.5t-26 -39t-38.5 -26t-47 -9.5h-104q-17 0 -33 5.5t-28 22.5v-385h-110v437q0 45 -5 89.5t-14 89.5l-17 84z" />
    <glyph glyph-name="uni06F3" unicode="&#x6f3;" horiz-adv-x="712" 
d="M168 721q1 -4 4.5 -21t9 -44t11 -60.5t9.5 -70.5q2 -17 16 -27.5t31 -10.5h14q20 0 35 12.5t18 31.5l37 182l108 -21l-31 -156v-5q0 -15 10 -29.5t34 -14.5h88v229h110v-237q0 -25 -9.5 -47.5t-26 -39t-38.5 -26t-47 -9.5h-68q-31 0 -58.5 12.5t-49.5 43.5
q-23 -29 -47 -42.5t-56 -13.5q-14 0 -33.5 5t-32.5 23v-385h-110v437q0 45 -5 89.5t-14 89.5l-17 84z" />
    <glyph glyph-name="uni06F4" unicode="&#x6f4;" horiz-adv-x="634" 
d="M168 721q1 -4 4.5 -22.5t9 -46t11 -61t9.5 -66.5q8 -38 42 -38h34q-1 1 -4.5 7.5t-5.5 16.5l-1 5q-1 5 -2.5 13t-3.5 18t-4 19q-3 15 -3 30q0 21 8.5 48t30.5 52.5t53 40t64 14.5h128v-115h-143q-22 0 -27 -13t-5 -23q0 -5 1 -10l19 -99q6 1 16.5 2t24.5 2.5t30 3t32 2.5
q37 3 80 7l18 -113q-82 -11 -162.5 -24.5t-162.5 -13.5q-26 0 -53 8v-365h-110v437q0 66 -11 132t-25 131z" />
    <glyph glyph-name="uni06F5" unicode="&#x6f5;" horiz-adv-x="671" 
d="M58 322q17 56 45.5 105.5t65.5 93t76 82.5l-37 33l79 99l129 -121q39 -36 77 -76.5t69 -90t50 -110.5t19 -138q0 -42 -10.5 -78.5t-32.5 -63t-55.5 -42t-80.5 -15.5q-35 0 -64.5 11.5t-52.5 31.5q-23 -20 -53.5 -31.5t-60.5 -11.5q-49 0 -83.5 17t-56.5 44.5t-31.5 63.5
t-9.5 74q0 66 18 123zM173 150q13 -20 42 -20h6q20 0 35 12t23 47l19 82l118 -21l-19 -84q6 -16 20.5 -26t31.5 -10h6q56 0 56 68q0 48 -8 86t-27.5 74.5t-53.5 75.5t-87 87q-53 -50 -87 -89t-53.5 -75t-27 -74t-7.5 -85q0 -28 13 -48z" />
    <glyph glyph-name="uni06F6" unicode="&#x6f6;" horiz-adv-x="618" 
d="M274 365q-13 0 -31 6.5t-29 14.5l-78 61q-31 24 -44.5 55t-13.5 61q0 3 1 21.5t16.5 50t43.5 53.5l132 105l64 -87l-133 -113q-10 -8 -12 -16.5t-2 -10.5q0 -11 11 -19l130 -99q24 32 51 62t56 59l67 64l85 -85l-62 -59q-67 -62 -118 -136l-249 -358l-99 68z" />
    <glyph glyph-name="uni06F7" unicode="&#x6f7;" horiz-adv-x="618" 
d="M30 654l97 80l14 -22q13 -23 33.5 -60t44 -85.5t43.5 -100.5t33.5 -104.5t13.5 -97.5q0 34 8 72t20.5 77.5t29 78.5t33.5 75q40 83 91 167l97 -80q-54 -82 -100 -184q-39 -88 -75.5 -207t-49.5 -263h-108q-23 172 -61.5 295.5t-74.5 202.5q-43 94 -89 156z" />
    <glyph glyph-name="uni06F8" unicode="&#x6f8;" horiz-adv-x="618" 
d="M119 235q36 80 74.5 203.5t61.5 294.5h108q13 -143 49.5 -262.5t75.5 -207.5q46 -102 100 -184l-97 -80q-51 84 -91 168q-17 36 -33.5 75t-29 78t-20.5 77t-8 72q0 -45 -13.5 -97.5t-33.5 -104.5t-43.5 -100.5t-44 -85.5t-33.5 -59l-14 -23l-97 80q46 62 89 156z" />
    <glyph glyph-name="uni06F9" unicode="&#x6f9;" horiz-adv-x="519" 
d="M32 501l18 92q5 27 19.5 50.5t34.5 40t45.5 26t53.5 9.5h56q34 0 63.5 -13t52 -35.5t35.5 -52t13 -63.5v-271q0 -44 4 -88.5t14 -90.5l18 -84l-109 -21l-18 91q-10 49 -14.5 97.5t-4.5 96.5v42q-1 0 -14 -5.5t-35 -5.5h-79q-38 0 -69.5 13t-52.5 37.5t-28 50.5t-7 46
q0 18 4 38zM147 455q10 -9 24 -9h142v109q0 20 -12 29.5t-27 9.5h-81q-14 0 -24 -8.5t-13 -22.5l-15 -80q-1 -5 -1 -10q0 -12 7 -18z" />
    <glyph glyph-name="uni200B" unicode="&#x200b;" horiz-adv-x="333" 
 />
    <glyph glyph-name="uni200C" unicode="&#x200c;" horiz-adv-x="333" 
 />
    <glyph glyph-name="endash" unicode="&#x2013;" horiz-adv-x="620" 
d="M60 209v114h500v-114h-500z" />
    <glyph glyph-name="emdash" unicode="&#x2014;" horiz-adv-x="1120" 
d="M60 209v114h1000v-114h-1000z" />
    <glyph glyph-name="quoteleft" unicode="&#x2018;" horiz-adv-x="268" 
d="M40 432l85 247h103l-48 -247h-140z" />
    <glyph glyph-name="quoteright" unicode="&#x2019;" horiz-adv-x="268" 
d="M40 433l48 247h140l-85 -247h-103z" />
    <glyph glyph-name="quotesinglbase" unicode="&#x201a;" horiz-adv-x="268" 
d="M40 -117l85 247h103l-48 -247h-140z" />
    <glyph glyph-name="quotedblleft" unicode="&#x201c;" horiz-adv-x="452" 
d="M309 679h103l-48 -247h-140zM125 679h103l-48 -247h-140z" />
    <glyph glyph-name="quotedblright" unicode="&#x201d;" horiz-adv-x="452" 
d="M40 433l48 247h140l-85 -247h-103zM327 433h-103l48 247h140z" />
    <glyph glyph-name="quotedblbase" unicode="&#x201e;" horiz-adv-x="452" 
d="M309 117h103l-48 -247h-140zM125 117h103l-48 -247h-140z" />
    <glyph glyph-name="dagger" unicode="&#x2020;" horiz-adv-x="544" 
d="M205 500v180h134v-180h145v-114h-145l-10 -457h-114l-10 457h-145v114h145z" />
    <glyph glyph-name="daggerdbl" unicode="&#x2021;" horiz-adv-x="544" 
d="M60 500h145v180h134v-180h144v-114h-144v-163h145v-114h-145v-180h-134v180h-145v114h145v163h-145v114z" />
    <glyph glyph-name="bullet" unicode="&#x2022;" horiz-adv-x="428" 
d="M339 109h-250v288h250v-288z" />
    <glyph glyph-name="ellipsis" unicode="&#x2026;" horiz-adv-x="774" 
d="M70 0v136h124v-136h-124zM325 0v136h124v-136h-124zM581 0v136h124v-136h-124z" />
    <glyph glyph-name="guilsinglleft" unicode="&#x2039;" horiz-adv-x="303" 
d="M263 454v-135l-109 -75l109 -86v-135l-223 171v96z" />
    <glyph glyph-name="guilsinglright" unicode="&#x203a;" horiz-adv-x="303" 
d="M263 300v-96l-223 -171v135l109 86l-109 75v135z" />
    <glyph glyph-name="fraction" unicode="&#x2044;" horiz-adv-x="126" 
d="M-171 -7l-53 36l393 632l53 -35z" />
    <glyph glyph-name="Euro" unicode="&#x20ac;" horiz-adv-x="620" 
d="M115 309v66h-55v102h62q8 59 24.5 99.5t45 66.5t69.5 37.5t98 11.5q44 0 92.5 -6.5t108.5 -19.5l-4 -107q-46 7 -85.5 10.5t-72.5 3.5q-34 0 -57.5 -4.5t-39.5 -15t-25 -29t-15 -47.5h235v-102h-243v-66h243v-102h-231q12 -45 40 -72.5t90 -27.5q33 0 73 3t88 10l3 -109
q-52 -11 -102 -17t-101 -6q-103 0 -159 58t-73 161h-64v102h55z" />
    <glyph glyph-name="trademark" unicode="&#x2122;" horiz-adv-x="636" 
d="M285 644h103l41 -158l45 158h102v-313h-82v174l-34 -153h-55l-38 153v-174h-82v313zM60 644h200v-79h-41v-233h-88v233h-71v79z" />
    <glyph glyph-name="minus" unicode="&#x2212;" horiz-adv-x="556" 
d="M60 191v120h436v-120h-436z" />
    <glyph glyph-name="uniFBB2" unicode="&#xfbb2;" 
d="M275 1l1 114h115l-2 -115z" />
    <glyph glyph-name="uniFBB3" unicode="&#xfbb3;" 
d="M276 -116l-1 116h116l1 -116h-116z" />
    <glyph glyph-name="uniFBB4" unicode="&#xfbb4;" 
d="M379 115h115v-115h-115v115zM327 115v-115h-115v115h115z" />
    <glyph glyph-name="uniFBB5" unicode="&#xfbb5;" 
d="M378 0h115v-115h-115v115zM326 0v-115h-114v115h114z" />
    <glyph glyph-name="uniFBB6" unicode="&#xfbb6;" 
d="M377 0v115h115v-115h-115zM292 152v115h115v-115h-115zM210 115h115v-115h-115v115z" />
    <glyph glyph-name="uniFBB7" unicode="&#xfbb7;" 
d="M379 0h115v-115h-115v115zM409 -152v-115h-115v115h115zM327 0v-115h-115v115h115z" />
    <glyph glyph-name="uniFBB7" unicode="&#xfbb9;" 
d="M379 0h115v-115h-115v115zM409 -152v-115h-115v115h115zM327 0v-115h-115v115h115z" />
    <glyph glyph-name="uniFE70FE7C" 
d="M-166 895h81v-91q2 -16 18 -18h7q8 0 13.5 4.5t7.5 12.5l18 88l80 -14l-15 -75v-3q0 -7 5 -10t11 -3h36v113h81v-126q0 -30 -21.5 -51.5t-52.5 -21.5h-44q-32 0 -58 20q-26 -20 -63 -20q-21 0 -40 8t-33.5 22.5t-22.5 33.5t-8 40v91zM-177 1023l331 71l17 -76l-334 -71z
M154 1223l17 -76l-334 -71l-14 76z" />
    <glyph glyph-name="uniFB8E.alt" horiz-adv-x="1125" 
d="M170 387v-174q0 -34 24 -58.5t59 -24.5h673q17 0 27.5 11.5t10.5 27.5v71q0 18 -12.5 31t-30.5 13h-493l-80 75l294 344l79 -73l-192 -226h381q34 0 64 -13t52 -35.5t35 -52t13 -63.5v-76q0 -34 -13.5 -64t-36.5 -52.5t-52.5 -35t-61.5 -12.5h-647q-42 0 -79 16
t-64.5 43.5t-43.5 64.5t-16 79v184h110z" />
    <glyph glyph-name="uniFB8F.alt" horiz-adv-x="1185" 
d="M170 387v-174q0 -34 24 -58.5t59 -24.5h673q17 0 27.5 11.5t10.5 27.5v71q0 18 -12.5 31t-30.5 13h-493l-80 75l294 344l79 -73l-192 -226h381q34 0 64 -13t52 -35.5t35 -52t13 -63.5v-66q2 -19 15.5 -31.5t32.5 -12.5h63q6 0 10 -4.5t4 -10.5v-100q0 -6 -4 -10.5
t-10 -4.5h-44q-35 0 -65 12.5t-53 33.5q-23 -21 -52 -33.5t-61 -12.5h-647q-42 0 -79 16t-64.5 43.5t-43.5 64.5t-16 79v184h110z" />
    <glyph glyph-name="uniFB91.alt" horiz-adv-x="877" 
d="M-14 116q0 6 3.5 10t8.5 4h2h618q15 0 27 11t12 28v71q0 18 -13 30.5t-31 12.5h-493l-79 76l294 344l79 -74l-192 -226h381q34 0 63.5 -13t52 -35t35.5 -52t13 -64v-61q0 -20 14 -34t34 -14h62q6 0 10 -4.5t4 -9.5v-101q0 -6 -4 -10.5t-10 -4.5h-43q-35 0 -65 12.5
t-53 34.5q-23 -22 -53.5 -34.5t-63.5 -12.5h-599q-6 0 -10 4.5t-4 9.5v102z" />
    <glyph glyph-name="uniFB90.alt" horiz-adv-x="817" 
d="M0 130h618q15 0 27 10.5t12 28.5v71q0 18 -13 30.5t-31 12.5h-493l-79 76l294 344l79 -74l-192 -226h381q34 0 63.5 -13t52 -35t35.5 -52t13 -64v-74q0 -36 -13.5 -66t-37 -52t-54 -34.5t-63.5 -12.5h-599q-14 2 -14 14v102q0 14 14 14z" />
    <glyph glyph-name="uniFB92.alt" horiz-adv-x="1125" 
d="M170 387v-174q0 -34 24 -58.5t59 -24.5h673q17 0 27.5 11.5t10.5 27.5v71q0 18 -12.5 31t-30.5 13h-493l-80 75l294 344l79 -73l-192 -226h381q34 0 64 -13t52 -35.5t35 -52t13 -63.5v-76q0 -34 -13.5 -64t-36.5 -52.5t-52.5 -35t-61.5 -12.5h-647q-42 0 -79 16
t-64.5 43.5t-43.5 64.5t-16 79v184h110zM503 752l54 -52l-229 -268l-58 46z" />
    <glyph glyph-name="uniFB93.alt" horiz-adv-x="1185" 
d="M170 387v-174q0 -34 24 -58.5t59 -24.5h673q17 0 27.5 11.5t10.5 27.5v71q0 18 -12.5 31t-30.5 13h-493l-80 75l294 344l79 -73l-192 -226h381q34 0 64 -13t52 -35.5t35 -52t13 -63.5v-66q2 -19 15.5 -31.5t32.5 -12.5h63q6 0 10 -4.5t4 -10.5v-100q0 -6 -4 -10.5
t-10 -4.5h-44q-35 0 -65 12.5t-53 33.5q-23 -21 -52 -33.5t-61 -12.5h-647q-42 0 -79 16t-64.5 43.5t-43.5 64.5t-16 79v184h110zM503 752l54 -52l-229 -268l-58 46z" />
    <glyph glyph-name="uniFB95.alt" horiz-adv-x="957" 
d="M-14 116q0 14 14 14h698q15 0 27 11t12 28v71q0 18 -13 30.5t-31 12.5h-493l-79 76l294 344l79 -74l-192 -226h381q34 0 63.5 -13t52 -35t35.5 -52t13 -64v-61q0 -20 14 -34t34 -14h62q6 0 10 -4.5t4 -9.5v-101q0 -6 -4 -10.5t-10 -4.5h-43q-35 0 -65 12.5t-53 34.5
q-23 -22 -53.5 -34.5t-63.5 -12.5h-679q-6 0 -10 4.5t-4 9.5v102zM42 478l234 274l54 -52l-229 -268z" />
    <glyph glyph-name="uniFB94.alt" horiz-adv-x="897" 
d="M-14 116q0 14 14 14h703q11 0 22.5 11t11.5 28v71q0 18 -13 30.5t-31 12.5h-493l-79 76l294 344l79 -74l-192 -226h381q34 0 63.5 -13t52 -35t35.5 -52t13 -64v-74q0 -36 -13.5 -66t-37 -52t-54 -34.5t-63.5 -12.5h-679q-7 0 -10.5 4.5t-3.5 9.5v102zM42 478l234 274
l54 -52l-229 -268z" />
  </font>
</defs>
</svg>
